<?xml version="1.0" encoding="utf-8"?>
<!-- Generator: Adobe Illustrator 23.0.0, SVG Export Plug-In . SVG Version: 6.00 Build 0)  -->
<svg version="1.1" id="Capa_2" xmlns="http://www.w3.org/2000/svg" xmlns:xlink="http://www.w3.org/1999/xlink" x="0px" y="0px"
	 viewBox="0 0 360 360" style="enable-background:new 0 0 360 360;" xml:space="preserve">
<style type="text/css">
	.st0{fill:#222E5B;}
	.st1{fill:#7B2279;}
	.st2{fill:#F69F17;}
</style>
<g>
	<g>
		<g>
			<path class="st0" d="M106.1,115.48c12.61-3.53,28.03,3.29,32.92,15.71c2.63,6.22-1.17,14.07-7.69,15.8
				c-12.91,3.76-28.82-2.98-33.63-15.87C95.22,124.63,99.33,117,106.1,115.48z"/>
			<g>
				<path class="st0" d="M104.23,153.22c16.16-2.75,33.2,1.32,46.94,10.1c4.1,2.98,9.53,6.9,7.84,12.72
					c-5.05,2.47-10.5,0.15-15.66-0.58c-10.86-1.85-23.31-3.54-32.78,3.49c-9.08,8.5-7.82,22.06-4.41,32.88
					c7.82,25.73,25.88,46.67,44.51,65.42c1.71,1.85,3.64,4.82,2.05,7.26c-1.54,3.33-5.95,2.76-8.87,2.03
					c-12.54-4.23-23.93-11.35-34.49-19.23c-18.63-14.19-34.35-33.95-38.49-57.51c-1.55-10.5-1.98-21.77,2.57-31.65
					C78.64,165.38,90.52,155.46,104.23,153.22z"/>
			</g>
		</g>
		<g>
			<path class="st1" d="M275.32,152.52c-3.6,12.59-17.48,22.15-30.62,19.82c-6.68-1.02-11.37-8.37-9.44-14.83
				c3.56-12.96,17.63-22.99,31.13-20.34C273.22,138.47,277.56,145.96,275.32,152.52z"/>
			<path class="st1" d="M244.14,131.16c-6.12,15.2-18.51,27.59-33.19,34.7c-4.68,1.93-10.87,4.5-14.94,0.02
				c0.55-5.6,5.37-9.02,8.69-13.03c7.26-8.29,15.22-18,14.19-29.76c-2.49-12.19-14.7-18.21-25.7-20.97
				c-26.02-6.82-53.32-2.39-79.04,3.66c-2.47,0.49-6.01,0.57-7.26-2.06c-2.03-3.05,0.77-6.52,2.91-8.62
				c10.18-8.47,22.2-14.45,34.44-19.32c21.84-8.45,46.91-11.48,69.15-2.68c9.75,4.18,19.59,9.71,25.62,18.77
				C247.19,103,249.41,118.32,244.14,131.16z"/>
		</g>
		<g>
			<path class="st2" d="M157.9,274.89c-8.72-9.77-9.38-26.61-0.38-36.47c4.43-5.1,13.15-5.14,17.58-0.05
				c9.06,9.94,10.01,27.19,0.55,37.18C170.9,280.62,162.25,280.29,157.9,274.89z"/>
			<path class="st2" d="M192.62,259.96c-9.58-13.3-13.43-30.39-11.59-46.6c0.87-4.99,2-11.59,7.97-12.64
				c4.44,3.45,4.75,9.36,6.37,14.31c3.12,10.56,7.08,22.49,17.56,27.9c11.63,4.41,23.24-2.69,31.46-10.51
				c19.67-18.34,30.52-43.79,39.15-68.76c0.9-2.35,2.73-5.39,5.62-5.04c3.67-0.08,5.1,4.13,5.73,7.06
				c1.72,13.13,0.35,26.48-2.08,39.44c-4.54,22.98-15.37,45.78-34.69,59.88c-8.74,6.01-18.68,11.36-29.55,11.62
				C214.79,277.58,200.66,271.28,192.62,259.96z"/>
		</g>
	</g>
	<g>
		<g>
			<path class="st0" d="M41.77,236.84l-4.72-12.73l3.28-1.22l2.96,7.97l2.44-0.91l-2.74-7.39l3.14-1.16l2.74,7.39l3.03-1.12
				l-3.04-8.2l3.48-1.29l4.81,12.96L41.77,236.84z"/>
			<path class="st0" d="M35.58,219.63l-1.42-6.51l9.2-4.64l-10.29-0.36l-1.42-6.5l16.02-3.5l0.88,4.05l-12.22,2.67l12.9,0.45
				l0.8,3.67l-11.53,5.79l12.22-2.67l0.89,4.05L35.58,219.63z"/>
			<path class="st0" d="M31.11,196.68l-0.64-8.4c-0.14-1.83,0.19-3.23,0.99-4.21c0.8-0.98,2-1.53,3.61-1.65
				c1.65-0.13,2.98,0.27,3.98,1.19c1,0.92,1.58,2.4,1.74,4.44l0.21,2.77l6.07-0.46l0.39,5.07L31.11,196.68z M37.69,191.07
				l-0.09-1.24c-0.08-0.97-0.3-1.65-0.66-2.01c-0.37-0.37-0.82-0.53-1.34-0.49c-0.51,0.04-0.93,0.24-1.27,0.61
				c-0.33,0.37-0.46,1.03-0.39,1.97l0.11,1.44L37.69,191.07z"/>
			<path class="st0" d="M46.38,179.28L30,178.5l0.4-8.43c0.07-1.56,0.27-2.75,0.57-3.57c0.31-0.81,0.84-1.46,1.59-1.93
				c0.75-0.47,1.65-0.68,2.69-0.63c0.91,0.04,1.68,0.27,2.32,0.69c0.64,0.42,1.15,0.98,1.53,1.67c0.24,0.44,0.43,1.05,0.56,1.81
				c0.23-0.59,0.45-1.02,0.67-1.29c0.14-0.18,0.44-0.44,0.9-0.77c0.46-0.33,0.81-0.55,1.05-0.66l4.86-2.23l-0.27,5.72l-5.13,2.47
				c-0.66,0.31-1.1,0.6-1.31,0.86c-0.27,0.35-0.42,0.76-0.44,1.22l-0.02,0.45l6.65,0.32L46.38,179.28z M36.88,173.73l0.1-2.13
				c0.01-0.23-0.04-0.68-0.16-1.35c-0.05-0.34-0.21-0.62-0.48-0.85c-0.27-0.23-0.58-0.35-0.93-0.36c-0.53-0.02-0.94,0.12-1.24,0.45
				c-0.3,0.32-0.47,0.94-0.51,1.87l-0.11,2.22L36.88,173.73z"/>
			<path class="st0" d="M31.25,159.26l2.33-13.38l3.45,0.6l-1.46,8.37l2.57,0.45l1.35-7.77l3.29,0.57l-1.35,7.77l3.18,0.55l1.5-8.62
				l3.66,0.64l-2.37,13.62L31.25,159.26z"/>
			<path class="st0" d="M44.89,145.5l1.1-4.7c0.78,0.13,1.41,0.1,1.9-0.09c0.79-0.31,1.32-0.92,1.6-1.85c0.21-0.69,0.21-1.27,0-1.75
				c-0.21-0.47-0.53-0.77-0.96-0.9c-0.41-0.12-0.83-0.05-1.25,0.21c-0.43,0.26-0.98,1-1.66,2.21c-1.12,1.98-2.21,3.31-3.28,3.97
				c-1.07,0.67-2.22,0.83-3.44,0.45c-0.81-0.24-1.5-0.71-2.07-1.39c-0.58-0.68-0.93-1.56-1.05-2.62c-0.13-1.06,0.06-2.41,0.55-4.05
				c0.61-2.01,1.44-3.42,2.5-4.25c1.06-0.83,2.44-1.1,4.13-0.8l-1.11,4.65c-0.74-0.09-1.33,0.01-1.77,0.3
				c-0.44,0.29-0.76,0.78-0.97,1.47c-0.17,0.56-0.18,1.02-0.03,1.38c0.15,0.36,0.4,0.59,0.74,0.69c0.25,0.08,0.51,0.03,0.78-0.15
				c0.28-0.17,0.63-0.65,1.07-1.45c1.1-1.98,2.02-3.36,2.76-4.14c0.75-0.78,1.53-1.27,2.34-1.48c0.82-0.21,1.66-0.18,2.51,0.08
				c1.01,0.3,1.85,0.86,2.53,1.68c0.68,0.81,1.09,1.79,1.23,2.92c0.14,1.13-0.02,2.46-0.48,3.98c-0.81,2.67-1.88,4.36-3.22,5.08
				C48,145.65,46.52,145.84,44.89,145.5z"/>
			<path class="st0" d="M56.75,120.58l-2.34,5.25l2.15,1.83l-2.11,4.73l-12.47-12.3l2.25-5.05l17.48,1.05l-2.16,4.85L56.75,120.58z
				 M53.09,120.1l-6.12-0.75l4.66,4.04L53.09,120.1z"/>
			<path class="st0" d="M52.57,99.49l7.03-10.37l2.92,1.98l-4.17,6.16l2.37,1.61l3.56-5.26l2.74,1.86l-3.56,5.26l5.55,3.76
				l-2.86,4.21L52.57,99.49z"/>
			<path class="st0" d="M77.67,88.71l-3.71,4.4l1.56,2.36l-3.33,3.96l-8.57-15.28l3.56-4.23l16.51,5.85l-3.42,4.06L77.67,88.71z
				 M74.28,87.23l-5.67-2.41l3.35,5.17L74.28,87.23z"/>
			<path class="st0" d="M73.49,72.78l4.97-4.43l8.56,5.74l-4.73-9.14l4.97-4.43l10.91,12.24l-3.1,2.76l-8.32-9.33l5.93,11.46
				l-2.8,2.5l-10.7-7.21l8.32,9.33l-3.1,2.76L73.49,72.78z"/>
			<path class="st0" d="M91.28,57.77l4.14-2.94l9.49,13.37l-4.14,2.94L91.28,57.77z"/>
			<path class="st0" d="M99.3,52.15l4.37-2.56l6.24,10.67l6.83-3.99l2.04,3.49l-11.2,6.55L99.3,52.15z"/>
			<path class="st0" d="M113.8,44.08l4.59-2.17l7,14.83l-4.59,2.17L113.8,44.08z"/>
			<path class="st0" d="M136.9,49.34l-5.42,1.93l0.16,2.82l-4.87,1.74l0.29-17.51l5.21-1.86l11.32,13.37l-5,1.78L136.9,49.34z
				 M134.71,46.35l-3.69-4.94l0.3,6.15L134.71,46.35z"/>
			<path class="st0" d="M144.76,49.61l-3.46-16.03l8.25-1.78c1.53-0.33,2.73-0.45,3.59-0.36c0.87,0.09,1.62,0.43,2.27,1.04
				c0.65,0.6,1.08,1.42,1.3,2.44c0.19,0.89,0.17,1.7-0.07,2.42c-0.24,0.73-0.65,1.36-1.23,1.91c-0.37,0.35-0.9,0.68-1.6,1.01
				c0.63,0.07,1.1,0.17,1.42,0.31c0.21,0.09,0.53,0.32,0.97,0.67c0.44,0.36,0.74,0.64,0.91,0.85l3.4,4.13l-5.6,1.21l-3.7-4.33
				c-0.47-0.56-0.86-0.91-1.16-1.04c-0.41-0.17-0.84-0.21-1.29-0.11l-0.44,0.09l1.4,6.5L144.76,49.61z M147.68,39l2.09-0.45
				c0.23-0.05,0.65-0.22,1.26-0.5c0.31-0.14,0.55-0.36,0.7-0.68c0.15-0.31,0.19-0.65,0.11-1c-0.11-0.52-0.36-0.88-0.75-1.09
				c-0.39-0.21-1.03-0.21-1.94-0.02l-2.18,0.47L147.68,39z"/>
			<path class="st0" d="M160.42,29.7l6.65-0.46l3.25,9.78l1.86-10.13l6.64-0.46l1.13,16.36l-4.14,0.29l-0.86-12.47l-2.33,12.69
				l-3.75,0.26l-4.04-12.25l0.86,12.47l-4.14,0.29L160.42,29.7z"/>
			<path class="st0" d="M183.79,28.61l13.55,0.93l-0.24,3.49l-8.48-0.58l-0.18,2.6l7.87,0.54l-0.23,3.34l-7.87-0.54L188,41.61
				l8.73,0.6l-0.25,3.7l-13.79-0.94L183.79,28.61z"/>
			<path class="st0" d="M201.97,30.09l4.64,0.93l4.27,10.11l1.78-8.89l4.68,0.94l-3.22,16.08l-4.68-0.94l-4.25-10.03l-1.77,8.83
				l-4.67-0.94L201.97,30.09z"/>
			<path class="st0" d="M221.06,34.19l14.58,4.97l-1.31,3.83l-4.89-1.67l-3.98,11.69l-4.79-1.63l3.98-11.69l-4.89-1.67L221.06,34.19
				z"/>
			<path class="st0" d="M239.17,40.67l12.23,5.9l-1.52,3.15l-7.65-3.7l-1.13,2.35l7.1,3.43l-1.45,3.01l-7.1-3.43l-1.41,2.91
				l7.88,3.8l-1.62,3.34l-12.45-6.01L239.17,40.67z"/>
			<path class="st0" d="M252.85,66.47l9.67-13.24l6.82,4.98c1.26,0.92,2.15,1.74,2.66,2.44c0.51,0.71,0.76,1.5,0.74,2.39
				c-0.02,0.89-0.34,1.75-0.95,2.59c-0.54,0.73-1.16,1.25-1.86,1.56c-0.7,0.3-1.45,0.42-2.24,0.35c-0.5-0.04-1.11-0.22-1.82-0.52
				c0.37,0.52,0.6,0.94,0.71,1.27c0.07,0.22,0.12,0.61,0.15,1.17c0.03,0.56,0.02,0.98-0.03,1.24l-0.82,5.28l-4.62-3.38l0.77-5.64
				c0.11-0.73,0.11-1.25,0-1.56c-0.15-0.42-0.41-0.77-0.78-1.04l-0.36-0.26l-3.92,5.38L252.85,66.47z M262.71,61.59l1.72,1.26
				c0.19,0.14,0.59,0.34,1.22,0.61c0.31,0.14,0.63,0.17,0.97,0.07c0.33-0.1,0.61-0.29,0.82-0.58c0.31-0.43,0.42-0.85,0.31-1.28
				c-0.1-0.43-0.53-0.91-1.28-1.46l-1.8-1.31L262.71,61.59z"/>
			<path class="st0" d="M277.88,64.87l9.89,9.3l-2.4,2.55l-6.19-5.82l-1.79,1.9l5.74,5.4l-2.29,2.44l-5.74-5.4l-2.22,2.35l6.37,5.99
				l-2.54,2.71l-10.07-9.47L277.88,64.87z"/>
			<path class="st0" d="M281.86,83.82l3.32,3.5c-0.53,0.58-0.86,1.13-0.96,1.64c-0.17,0.83,0.05,1.61,0.67,2.35
				c0.46,0.56,0.95,0.87,1.46,0.96c0.51,0.08,0.94-0.02,1.28-0.31c0.33-0.27,0.5-0.66,0.52-1.16c0.02-0.5-0.29-1.37-0.93-2.6
				c-1.04-2.03-1.55-3.67-1.52-4.92c0.02-1.26,0.53-2.31,1.51-3.13c0.65-0.54,1.41-0.86,2.3-0.97c0.89-0.11,1.81,0.08,2.77,0.56
				c0.96,0.48,1.98,1.37,3.08,2.68c1.34,1.61,2.07,3.08,2.18,4.43c0.11,1.34-0.42,2.64-1.6,3.89l-3.28-3.49
				c0.48-0.57,0.73-1.12,0.72-1.65c0-0.53-0.23-1.06-0.69-1.61c-0.38-0.45-0.76-0.71-1.14-0.78c-0.38-0.07-0.71,0.01-0.99,0.24
				c-0.2,0.17-0.3,0.41-0.3,0.74c-0.01,0.32,0.2,0.89,0.63,1.69c1.05,2,1.7,3.53,1.94,4.58c0.24,1.05,0.22,1.97-0.05,2.77
				c-0.28,0.8-0.76,1.48-1.44,2.06c-0.81,0.67-1.74,1.07-2.79,1.2c-1.05,0.12-2.09-0.07-3.11-0.58c-1.02-0.51-2.04-1.37-3.06-2.59
				c-1.79-2.14-2.61-3.97-2.48-5.48C280.02,86.33,280.68,84.99,281.86,83.82z"/>
			<path class="st0" d="M302.18,91.47l4.59,7.06c1,1.54,1.38,2.93,1.15,4.17c-0.23,1.24-1.03,2.3-2.38,3.18
				c-1.39,0.9-2.74,1.19-4.07,0.86c-1.32-0.33-2.54-1.35-3.66-3.06l-1.51-2.33l-5.1,3.31l-2.77-4.27L302.18,91.47z M299.09,99.55
				l0.68,1.04c0.53,0.82,1.05,1.3,1.55,1.45c0.5,0.15,0.97,0.08,1.42-0.21c0.43-0.28,0.7-0.66,0.82-1.14
				c0.11-0.48-0.09-1.12-0.6-1.92l-0.79-1.21L299.09,99.55z"/>
			<path class="st0" d="M304.22,109.84c2.41-1.15,4.62-1.38,6.61-0.68c1.99,0.7,3.56,2.25,4.71,4.65c1.18,2.46,1.42,4.67,0.74,6.64
				c-0.68,1.96-2.22,3.52-4.6,4.65c-1.73,0.83-3.29,1.21-4.67,1.16c-1.39-0.05-2.65-0.48-3.79-1.29c-1.14-0.81-2.11-2.03-2.89-3.67
				c-0.8-1.67-1.19-3.18-1.18-4.52c0.01-1.35,0.42-2.64,1.25-3.87C301.21,111.7,302.49,110.67,304.22,109.84z M306.38,114.42
				c-1.49,0.71-2.43,1.5-2.82,2.37c-0.39,0.87-0.35,1.78,0.1,2.73c0.47,0.98,1.15,1.59,2.05,1.82c0.9,0.23,2.17-0.05,3.83-0.84
				c1.39-0.67,2.27-1.43,2.65-2.3c0.37-0.87,0.33-1.78-0.13-2.75c-0.44-0.92-1.12-1.5-2.04-1.75
				C309.1,113.47,307.89,113.7,306.38,114.42z"/>
			<path class="st0" d="M320.59,125.88l1.43,4.51l-6.79,8.62l8.65-2.73l1.44,4.55l-15.63,4.94l-1.44-4.55l6.73-8.57l-8.58,2.71
				l-1.44-4.54L320.59,125.88z"/>
			<path class="st0" d="M315.47,146.76l1.14,4.69c-0.75,0.24-1.3,0.55-1.65,0.94c-0.56,0.63-0.76,1.42-0.59,2.38
				c0.13,0.71,0.39,1.23,0.79,1.56c0.4,0.33,0.82,0.45,1.26,0.37c0.42-0.07,0.76-0.32,1.02-0.75c0.27-0.43,0.43-1.33,0.48-2.72
				c0.1-2.27,0.48-3.95,1.13-5.03c0.65-1.08,1.6-1.74,2.87-1.96c0.83-0.15,1.66-0.05,2.48,0.3c0.82,0.35,1.53,0.97,2.13,1.86
				c0.59,0.89,1.04,2.18,1.34,3.86c0.37,2.06,0.26,3.7-0.31,4.92c-0.57,1.22-1.68,2.08-3.32,2.58l-1.11-4.65
				c0.71-0.25,1.19-0.61,1.45-1.07c0.26-0.46,0.33-1.04,0.2-1.75c-0.1-0.58-0.3-1-0.6-1.25c-0.3-0.25-0.62-0.34-0.98-0.28
				c-0.26,0.05-0.47,0.21-0.63,0.49c-0.17,0.27-0.27,0.87-0.3,1.78c-0.08,2.26-0.28,3.91-0.59,4.94c-0.31,1.03-0.79,1.82-1.42,2.38
				c-0.64,0.56-1.39,0.91-2.28,1.07c-1.03,0.18-2.04,0.07-3.01-0.35c-0.98-0.42-1.78-1.1-2.42-2.05c-0.63-0.95-1.09-2.2-1.37-3.77
				c-0.49-2.75-0.3-4.74,0.57-5.99C312.63,148.02,313.86,147.19,315.47,146.76z"/>
			<path class="st0" d="M316.17,174.35l-0.29-5.74l-2.74-0.66l-0.26-5.17l16.69,5.32l0.28,5.52l-16.06,6.99l-0.27-5.3L316.17,174.35
				z M319.66,173.12l5.79-2.11l-5.98-1.49L319.66,173.12z"/>
			<path class="st0" d="M330,183.02l-0.73,9.46c-0.12,1.58-0.6,2.76-1.45,3.54c-0.85,0.78-1.84,1.13-3,1.04
				c-0.97-0.07-1.77-0.44-2.42-1.09c-0.43-0.44-0.75-1.05-0.96-1.85c-0.37,1.15-0.92,1.98-1.66,2.48c-0.73,0.5-1.62,0.71-2.66,0.63
				c-0.85-0.06-1.59-0.32-2.24-0.77c-0.65-0.45-1.14-1.03-1.48-1.74c-0.21-0.44-0.34-1.1-0.39-1.96c-0.06-1.15-0.08-1.91-0.05-2.28
				l0.67-8.72L330,183.02z M316.77,187.12l-0.2,2.58c-0.07,0.87,0.04,1.49,0.32,1.87c0.28,0.38,0.68,0.59,1.2,0.63
				c0.48,0.04,0.88-0.11,1.21-0.44c0.32-0.33,0.51-0.94,0.58-1.82l0.2-2.57L316.77,187.12z M323.2,187.62l-0.17,2.2
				c-0.06,0.79,0.03,1.35,0.28,1.68c0.25,0.33,0.63,0.51,1.14,0.55c0.48,0.04,0.86-0.09,1.15-0.38c0.29-0.29,0.47-0.81,0.53-1.58
				l0.17-2.23L323.2,187.62z"/>
			<path class="st0" d="M328.15,202.27l-1,4.97l-12.12-2.43l-1.55,7.75l-3.96-0.79l2.55-12.72L328.15,202.27z"/>
			<path class="st0" d="M324.63,218.6l-4.2,12.91l-3.33-1.08l2.63-8.08l-2.48-0.8l-2.44,7.5l-3.18-1.03l2.44-7.5l-3.07-1l-2.7,8.32
				l-3.53-1.15l4.27-13.15L324.63,218.6z"/>
		</g>
		<g>
			<path class="st0" d="M52.4,242.88l0.84,1.33c-0.52,0.35-0.9,0.74-1.14,1.17c-0.23,0.42-0.33,0.95-0.29,1.57
				c0.04,0.62,0.22,1.25,0.55,1.88c0.29,0.56,0.63,1.02,1.02,1.36c0.39,0.34,0.78,0.55,1.18,0.61c0.4,0.06,0.77,0,1.12-0.18
				c0.35-0.18,0.6-0.44,0.76-0.78c0.16-0.34,0.2-0.78,0.14-1.34c-0.04-0.36-0.2-1.11-0.48-2.26c-0.28-1.15-0.42-1.99-0.41-2.51
				c0-0.68,0.15-1.25,0.43-1.72c0.28-0.47,0.67-0.84,1.19-1.11c0.56-0.29,1.17-0.4,1.82-0.33c0.65,0.07,1.27,0.34,1.83,0.83
				c0.57,0.48,1.05,1.1,1.43,1.85c0.42,0.83,0.67,1.62,0.73,2.39c0.06,0.77-0.08,1.46-0.43,2.06c-0.34,0.61-0.83,1.09-1.47,1.45
				l-0.83-1.36c0.67-0.44,1.07-0.97,1.2-1.59c0.13-0.62-0.02-1.36-0.46-2.22c-0.46-0.89-0.96-1.46-1.49-1.7
				c-0.54-0.24-1.04-0.24-1.5,0c-0.4,0.2-0.66,0.52-0.77,0.94c-0.11,0.42,0,1.29,0.35,2.63c0.35,1.34,0.53,2.28,0.56,2.83
				c0.04,0.8-0.1,1.48-0.4,2.02c-0.3,0.55-0.75,0.97-1.35,1.28c-0.59,0.3-1.24,0.42-1.94,0.35c-0.7-0.07-1.36-0.35-1.98-0.83
				c-0.62-0.49-1.13-1.13-1.54-1.92c-0.52-1.01-0.81-1.93-0.86-2.76c-0.06-0.83,0.11-1.6,0.5-2.29
				C51.1,243.84,51.67,243.29,52.4,242.88z"/>
			<path class="st0" d="M60.5,259.67l0.67,1.46c-0.92,0.28-1.78,0.26-2.57-0.05c-0.79-0.31-1.47-0.91-2.02-1.81
				c-0.7-1.13-0.9-2.24-0.62-3.33c0.29-1.09,1.06-2.03,2.32-2.8c1.3-0.8,2.52-1.09,3.65-0.87c1.13,0.23,2.03,0.87,2.69,1.94
				c0.64,1.03,0.81,2.09,0.51,3.18c-0.3,1.09-1.09,2.03-2.36,2.82c-0.08,0.05-0.2,0.12-0.35,0.21l-3.56-5.76
				c-0.82,0.57-1.32,1.21-1.5,1.92c-0.18,0.71-0.08,1.39,0.32,2.03c0.3,0.48,0.68,0.81,1.14,1
				C59.26,259.79,59.83,259.81,60.5,259.67z M59.96,254.06l2.67,4.32c0.61-0.46,1-0.93,1.16-1.4c0.25-0.73,0.17-1.43-0.25-2.09
				c-0.37-0.6-0.88-0.98-1.54-1.14C61.34,253.58,60.66,253.69,59.96,254.06z"/>
			<path class="st0" d="M66.4,267.49l0.72,1.35c-0.95,0.47-1.86,0.6-2.73,0.39c-0.88-0.21-1.6-0.72-2.18-1.53
				c-0.72-1.01-0.97-2.06-0.75-3.15c0.22-1.09,0.95-2.07,2.18-2.95c0.8-0.57,1.59-0.94,2.38-1.1c0.79-0.16,1.52-0.08,2.21,0.24
				c0.68,0.33,1.25,0.81,1.71,1.44c0.57,0.8,0.84,1.6,0.8,2.4c-0.04,0.8-0.38,1.54-1.03,2.22l-1.06-1.08
				c0.41-0.47,0.64-0.94,0.68-1.42c0.04-0.47-0.09-0.92-0.39-1.34c-0.45-0.63-1.04-0.98-1.78-1.05c-0.73-0.07-1.59,0.24-2.57,0.94
				c-0.99,0.71-1.58,1.42-1.76,2.12c-0.18,0.7-0.05,1.36,0.39,1.97c0.35,0.49,0.8,0.79,1.33,0.91
				C65.09,267.97,65.71,267.85,66.4,267.49z"/>
			<path class="st0" d="M65.65,271.97l7.1-5.67l0.86,1.08l-1.08,0.86c0.72-0.13,1.26-0.14,1.61-0.03c0.35,0.11,0.63,0.3,0.86,0.58
				c0.32,0.41,0.52,0.92,0.6,1.55l-1.45,0.48c-0.06-0.43-0.21-0.8-0.44-1.09c-0.21-0.26-0.48-0.44-0.8-0.52
				c-0.33-0.08-0.66-0.06-1.02,0.08c-0.53,0.21-1.06,0.51-1.56,0.92l-3.72,2.97L65.65,271.97z"/>
			<path class="st0" d="M75.92,279.56l0.91,1.32c-0.86,0.43-1.71,0.57-2.54,0.4c-0.83-0.16-1.6-0.64-2.31-1.42
				c-0.89-0.99-1.28-2.05-1.19-3.17c0.09-1.13,0.69-2.18,1.79-3.17c1.14-1.02,2.28-1.52,3.44-1.49c1.15,0.02,2.15,0.5,2.99,1.44
				c0.81,0.9,1.16,1.92,1.06,3.04c-0.1,1.13-0.71,2.19-1.83,3.19c-0.07,0.06-0.17,0.15-0.31,0.27l-4.52-5.05
				c-0.71,0.71-1.09,1.43-1.14,2.16c-0.06,0.73,0.17,1.38,0.67,1.95c0.38,0.42,0.81,0.68,1.3,0.78
				C74.72,279.9,75.28,279.82,75.92,279.56z M74.41,274.14l3.38,3.78c0.52-0.56,0.82-1.09,0.89-1.58c0.11-0.76-0.09-1.43-0.61-2.01
				c-0.47-0.53-1.04-0.81-1.72-0.86C75.68,273.42,75.03,273.65,74.41,274.14z"/>
			<path class="st0" d="M79.81,285.76l-0.81,1.12c-0.37-0.24-0.68-0.49-0.92-0.73c-0.39-0.4-0.64-0.77-0.73-1.11
				c-0.09-0.34-0.08-0.66,0.04-0.95c0.12-0.29,0.5-0.76,1.16-1.41l3.7-3.69l-0.8-0.8l0.85-0.84l0.8,0.8l1.59-1.59l1.74,0.43
				l-2.25,2.24l1.09,1.1l-0.85,0.85l-1.09-1.1l-3.76,3.75c-0.31,0.31-0.49,0.53-0.54,0.66c-0.05,0.13-0.06,0.26-0.03,0.4
				c0.03,0.14,0.13,0.29,0.29,0.45C79.42,285.44,79.59,285.59,79.81,285.76z"/>
			<path class="st0" d="M85.36,291.24c-0.75-0.02-1.38-0.14-1.91-0.34c-0.53-0.21-1.01-0.51-1.46-0.92
				c-0.74-0.67-1.15-1.36-1.22-2.08c-0.07-0.72,0.15-1.36,0.66-1.93c0.3-0.33,0.65-0.56,1.04-0.7c0.4-0.14,0.79-0.18,1.18-0.12
				c0.39,0.05,0.78,0.18,1.16,0.37c0.28,0.14,0.67,0.39,1.17,0.75c1.02,0.72,1.82,1.21,2.39,1.45c0.15-0.15,0.24-0.25,0.28-0.29
				c0.42-0.47,0.61-0.89,0.57-1.28c-0.06-0.52-0.38-1.04-0.95-1.56c-0.54-0.49-1.02-0.75-1.45-0.79c-0.43-0.04-0.92,0.12-1.47,0.49
				l-0.98-1.16c0.53-0.39,1.05-0.62,1.55-0.71c0.5-0.08,1.04-0.01,1.62,0.23c0.58,0.24,1.17,0.62,1.75,1.14
				c0.58,0.52,0.98,1.01,1.22,1.47c0.24,0.46,0.35,0.87,0.33,1.23c-0.02,0.36-0.13,0.72-0.35,1.1c-0.14,0.23-0.44,0.6-0.89,1.1
				l-1.38,1.52c-0.96,1.06-1.54,1.76-1.75,2.08c-0.21,0.33-0.35,0.68-0.44,1.07l-1.19-1.08C84.94,291.94,85.11,291.59,85.36,291.24z
				 M87.57,288.61c-0.57-0.2-1.32-0.62-2.26-1.25c-0.53-0.36-0.93-0.58-1.2-0.67c-0.27-0.09-0.53-0.1-0.79-0.04
				c-0.25,0.07-0.47,0.2-0.65,0.4c-0.28,0.3-0.39,0.66-0.34,1.07c0.05,0.41,0.29,0.82,0.74,1.22c0.44,0.4,0.92,0.65,1.43,0.77
				c0.52,0.12,1.01,0.08,1.47-0.11c0.36-0.15,0.76-0.47,1.22-0.98L87.57,288.61z"/>
			<path class="st0" d="M87.85,294.82l5.7-7.07l1.08,0.87l-0.86,1.07c0.68-0.28,1.2-0.41,1.56-0.38c0.36,0.03,0.68,0.15,0.96,0.38
				c0.4,0.33,0.71,0.79,0.92,1.38l-1.31,0.78c-0.15-0.41-0.38-0.73-0.67-0.97c-0.26-0.21-0.56-0.32-0.9-0.33
				c-0.34-0.01-0.66,0.09-0.97,0.3c-0.48,0.32-0.92,0.73-1.33,1.24l-2.98,3.7L87.85,294.82z"/>
			<path class="st0" d="M93.09,298.94l5.42-7.29l1.24,0.92l-5.42,7.29L93.09,298.94z M99.12,290.7l2.34-1.24l1.62,1.2l-2.94,0.8
				L99.12,290.7z"/>
			<path class="st0" d="M102.47,304.12c-0.74,0.09-1.39,0.07-1.94-0.06c-0.55-0.13-1.08-0.35-1.58-0.69
				c-0.83-0.55-1.34-1.18-1.51-1.88c-0.18-0.7-0.06-1.37,0.36-2c0.25-0.37,0.56-0.65,0.93-0.85c0.37-0.19,0.76-0.29,1.15-0.3
				c0.4,0,0.8,0.06,1.2,0.19c0.3,0.1,0.72,0.29,1.27,0.56c1.12,0.56,1.98,0.92,2.58,1.08c0.12-0.17,0.2-0.28,0.23-0.33
				c0.35-0.52,0.47-0.97,0.37-1.34c-0.14-0.51-0.53-0.98-1.17-1.41c-0.6-0.4-1.12-0.59-1.55-0.57c-0.43,0.02-0.89,0.25-1.38,0.7
				l-1.14-1c0.47-0.46,0.95-0.77,1.43-0.93c0.48-0.16,1.03-0.16,1.64-0.01c0.61,0.15,1.24,0.44,1.89,0.87
				c0.65,0.43,1.12,0.85,1.42,1.27c0.3,0.42,0.47,0.81,0.51,1.17c0.04,0.36-0.02,0.74-0.18,1.14c-0.1,0.25-0.34,0.66-0.72,1.23
				l-1.13,1.71c-0.79,1.19-1.26,1.96-1.42,2.32c-0.16,0.35-0.25,0.73-0.28,1.12l-1.34-0.89
				C102.15,304.87,102.27,304.5,102.47,304.12z M104.27,301.18c-0.59-0.12-1.4-0.42-2.42-0.91c-0.58-0.27-1.01-0.44-1.29-0.49
				c-0.28-0.05-0.54-0.02-0.78,0.08c-0.24,0.1-0.43,0.27-0.58,0.49c-0.23,0.34-0.29,0.71-0.18,1.11c0.11,0.4,0.41,0.77,0.91,1.1
				c0.49,0.33,1,0.51,1.53,0.55c0.53,0.04,1.01-0.07,1.44-0.32c0.33-0.2,0.68-0.58,1.06-1.15L104.27,301.18z"/>
			<path class="st0" d="M115.23,312.67l0.53-1.02c-0.93,0.53-1.89,0.54-2.88,0.03c-0.64-0.33-1.14-0.82-1.5-1.45
				c-0.35-0.63-0.51-1.35-0.48-2.14c0.03-0.79,0.27-1.59,0.69-2.42c0.42-0.8,0.93-1.46,1.54-1.98c0.61-0.52,1.27-0.81,1.99-0.88
				c0.72-0.07,1.41,0.07,2.07,0.41c0.49,0.25,0.87,0.58,1.14,0.98c0.27,0.4,0.44,0.83,0.51,1.28l2.08-3.99l1.36,0.71l-5.78,11.13
				L115.23,312.67z M113.01,306.4c-0.54,1.03-0.72,1.92-0.55,2.65c0.17,0.74,0.55,1.26,1.14,1.57c0.6,0.31,1.23,0.33,1.9,0.06
				c0.67-0.27,1.27-0.91,1.79-1.91c0.57-1.1,0.78-2.02,0.63-2.76c-0.16-0.74-0.55-1.27-1.17-1.59c-0.61-0.32-1.24-0.33-1.91-0.05
				C114.17,304.66,113.56,305.33,113.01,306.4z"/>
			<path class="st0" d="M126.06,314.39l1.38,0.81c-0.6,0.75-1.31,1.23-2.14,1.43c-0.83,0.2-1.72,0.09-2.69-0.33
				c-1.22-0.53-2.02-1.32-2.41-2.38c-0.39-1.06-0.29-2.27,0.29-3.62c0.61-1.4,1.44-2.33,2.49-2.8c1.06-0.46,2.16-0.44,3.31,0.05
				c1.12,0.48,1.86,1.25,2.24,2.32c0.38,1.07,0.27,2.29-0.33,3.66c-0.04,0.08-0.09,0.21-0.17,0.37l-6.22-2.69
				c-0.34,0.94-0.39,1.75-0.13,2.44c0.26,0.69,0.73,1.18,1.43,1.48c0.52,0.22,1.02,0.28,1.5,0.17
				C125.11,315.21,125.59,314.9,126.06,314.39z M122.41,310.1l4.66,2.01c0.24-0.73,0.29-1.33,0.15-1.81
				c-0.21-0.74-0.68-1.26-1.4-1.57c-0.65-0.28-1.29-0.3-1.92-0.06C123.27,308.92,122.77,309.4,122.41,310.1z"/>
			<path class="st0" d="M128.51,318.49l4.39-11.74l1.44,0.54l-4.39,11.74L128.51,318.49z"/>
			<path class="st0" d="M140.43,322.44l2.96-10.66l-3.98-1.1l0.4-1.43l9.58,2.66l-0.4,1.43l-4-1.11l-2.96,10.66L140.43,322.44z"/>
			<path class="st0" d="M147.28,324.21l1.94-8.88l1.35,0.3l-0.29,1.35c0.48-0.55,0.89-0.9,1.23-1.04c0.34-0.14,0.68-0.17,1.03-0.09
				c0.51,0.11,0.99,0.38,1.44,0.82l-0.82,1.28c-0.32-0.3-0.67-0.49-1.03-0.57c-0.33-0.07-0.65-0.04-0.95,0.1
				c-0.31,0.14-0.55,0.37-0.74,0.7c-0.28,0.5-0.5,1.06-0.63,1.7l-1.01,4.65L147.28,324.21z"/>
			<path class="st0" d="M159.46,325.35c-0.64,0.39-1.24,0.64-1.79,0.76c-0.55,0.11-1.13,0.12-1.72,0.03
				c-0.99-0.16-1.71-0.52-2.16-1.08c-0.45-0.56-0.62-1.22-0.5-1.97c0.07-0.44,0.23-0.83,0.49-1.16c0.26-0.33,0.57-0.58,0.92-0.75
				c0.36-0.17,0.75-0.28,1.17-0.32c0.31-0.03,0.77-0.04,1.39-0.01c1.25,0.05,2.18,0.02,2.79-0.09c0.04-0.21,0.06-0.34,0.07-0.4
				c0.1-0.62,0.02-1.08-0.22-1.38c-0.33-0.41-0.88-0.67-1.65-0.79c-0.71-0.11-1.26-0.07-1.64,0.12c-0.38,0.2-0.7,0.6-0.97,1.21
				l-1.45-0.44c0.24-0.61,0.54-1.09,0.91-1.43c0.37-0.34,0.87-0.57,1.49-0.69c0.62-0.12,1.31-0.12,2.09,0.01
				c0.76,0.12,1.37,0.31,1.82,0.57c0.45,0.26,0.77,0.54,0.95,0.85c0.18,0.31,0.28,0.68,0.31,1.11c0.01,0.27-0.04,0.74-0.15,1.41
				l-0.32,2.03c-0.22,1.41-0.33,2.31-0.33,2.7c0.01,0.38,0.08,0.76,0.21,1.14l-1.59-0.25C159.48,326.17,159.44,325.78,159.46,325.35
				z M159.87,321.93c-0.59,0.14-1.45,0.2-2.57,0.18c-0.64-0.01-1.1,0.02-1.38,0.09c-0.28,0.07-0.5,0.2-0.68,0.4
				c-0.18,0.19-0.28,0.42-0.33,0.69c-0.06,0.41,0.04,0.77,0.3,1.09c0.26,0.32,0.69,0.53,1.28,0.62c0.59,0.09,1.13,0.05,1.62-0.14
				c0.5-0.18,0.89-0.48,1.17-0.89c0.22-0.32,0.38-0.81,0.49-1.48L159.87,321.93z"/>
			<path class="st0" d="M165.05,327.17l-1.42-0.12l1.09-12.49l1.53,0.13l-0.39,4.46c0.72-0.75,1.58-1.09,2.59-1
				c0.56,0.05,1.07,0.21,1.55,0.47c0.48,0.27,0.86,0.62,1.15,1.05c0.29,0.43,0.49,0.95,0.63,1.54c0.13,0.59,0.17,1.21,0.11,1.86
				c-0.13,1.55-0.62,2.72-1.46,3.5c-0.84,0.78-1.8,1.12-2.87,1.03c-1.07-0.09-1.87-0.61-2.4-1.56L165.05,327.17z M165.43,322.57
				c-0.09,1.09-0.01,1.88,0.24,2.39c0.41,0.83,1.03,1.28,1.86,1.35c0.67,0.06,1.28-0.18,1.81-0.72c0.54-0.54,0.86-1.39,0.96-2.54
				c0.1-1.18-0.06-2.07-0.48-2.68c-0.42-0.6-0.96-0.93-1.63-0.99c-0.67-0.06-1.28,0.18-1.81,0.72
				C165.84,320.65,165.52,321.47,165.43,322.57z"/>
			<path class="st0" d="M179.8,326.81c-0.58,0.48-1.13,0.81-1.66,1c-0.53,0.19-1.1,0.28-1.7,0.27c-1-0.02-1.76-0.27-2.29-0.77
				c-0.53-0.5-0.79-1.12-0.77-1.88c0.01-0.44,0.12-0.85,0.32-1.21c0.21-0.36,0.48-0.66,0.81-0.87c0.33-0.22,0.7-0.38,1.12-0.49
				c0.3-0.08,0.76-0.14,1.37-0.21c1.25-0.13,2.16-0.29,2.75-0.49c0.01-0.21,0.01-0.34,0.02-0.4c0.01-0.63-0.13-1.07-0.41-1.33
				c-0.39-0.35-0.97-0.54-1.74-0.55c-0.72-0.01-1.26,0.11-1.61,0.35c-0.35,0.25-0.61,0.69-0.79,1.34l-1.5-0.23
				c0.15-0.64,0.38-1.16,0.7-1.55c0.32-0.39,0.78-0.69,1.38-0.89c0.6-0.2,1.29-0.3,2.07-0.29c0.78,0.01,1.4,0.11,1.89,0.3
				c0.48,0.19,0.83,0.43,1.06,0.71c0.22,0.28,0.38,0.63,0.46,1.05c0.05,0.26,0.07,0.74,0.05,1.42l-0.03,2.05
				c-0.02,1.43-0.01,2.34,0.05,2.72c0.06,0.38,0.18,0.75,0.37,1.1l-1.61-0.03C179.94,327.61,179.84,327.24,179.8,326.81z
				 M179.73,323.37c-0.56,0.22-1.4,0.4-2.52,0.54c-0.63,0.08-1.08,0.17-1.35,0.29c-0.26,0.11-0.47,0.27-0.62,0.49
				c-0.15,0.22-0.22,0.46-0.23,0.73c-0.01,0.41,0.14,0.76,0.45,1.03c0.31,0.28,0.76,0.42,1.36,0.43c0.59,0.01,1.12-0.11,1.59-0.36
				c0.47-0.25,0.81-0.6,1.04-1.05c0.17-0.34,0.26-0.86,0.27-1.54L179.73,323.37z"/>
			<path class="st0" d="M182.15,331.45l0.25-1.32c0.31,0.07,0.55,0.1,0.73,0.1c0.31-0.01,0.54-0.12,0.69-0.33
				c0.15-0.21,0.21-0.74,0.18-1.57l-0.31-9.54l1.54-0.05l0.31,9.57c0.04,1.12-0.08,1.9-0.36,2.35c-0.35,0.58-0.96,0.89-1.82,0.91
				C182.95,331.58,182.54,331.54,182.15,331.45z M183.64,317.12l-0.06-1.79l1.54-0.05l0.06,1.79L183.64,317.12z"/>
			<path class="st0" d="M187.34,323.25c-0.14-1.68,0.23-2.96,1.09-3.84c0.72-0.73,1.64-1.15,2.76-1.24c1.24-0.1,2.29,0.22,3.15,0.97
				c0.86,0.75,1.34,1.85,1.46,3.28c0.09,1.17,0,2.1-0.3,2.79c-0.29,0.7-0.76,1.26-1.4,1.68c-0.64,0.42-1.35,0.67-2.14,0.73
				c-1.27,0.1-2.33-0.22-3.17-0.97C187.95,325.92,187.46,324.78,187.34,323.25z M188.91,323.12c0.09,1.16,0.42,2.01,0.97,2.54
				c0.55,0.54,1.21,0.77,1.98,0.71c0.76-0.06,1.37-0.4,1.83-1.03c0.46-0.62,0.64-1.52,0.54-2.71c-0.09-1.12-0.42-1.95-0.97-2.48
				c-0.56-0.53-1.21-0.77-1.97-0.71c-0.77,0.06-1.38,0.4-1.84,1.02C189,321.08,188.82,321.96,188.91,323.12z"/>
			<path class="st0" d="M204.16,329.5l-0.43-1.39c0.35,0.03,0.64,0.02,0.89-0.03c0.33-0.06,0.59-0.17,0.77-0.32
				c0.18-0.15,0.32-0.34,0.41-0.56c0.07-0.17,0.15-0.57,0.25-1.21c0.01-0.09,0.03-0.22,0.07-0.39l-5.06-8.31l1.63-0.3l2.82,4.82
				c0.36,0.61,0.71,1.26,1.03,1.95c0.04-0.73,0.13-1.44,0.24-2.15l0.94-5.56l1.51-0.28l-1.7,9.71c-0.18,1.05-0.34,1.78-0.47,2.19
				c-0.18,0.55-0.42,0.97-0.72,1.27c-0.3,0.3-0.7,0.49-1.18,0.58C204.88,329.55,204.54,329.55,204.16,329.5z"/>
			<path class="st0" d="M217.93,322.98l-3.65-12l4.53-1.38c0.8-0.24,1.42-0.39,1.86-0.44c0.62-0.08,1.17-0.04,1.65,0.11
				c0.48,0.15,0.92,0.44,1.31,0.87c0.39,0.42,0.68,0.93,0.86,1.53c0.31,1.02,0.25,1.98-0.19,2.89c-0.43,0.9-1.5,1.61-3.2,2.13
				l-3.08,0.94l1.48,4.88L217.93,322.98z M217.61,316.2l3.1-0.94c1.03-0.31,1.7-0.72,2.01-1.24c0.32-0.51,0.37-1.12,0.16-1.81
				c-0.15-0.5-0.41-0.89-0.77-1.17c-0.36-0.28-0.77-0.42-1.22-0.4c-0.29,0.01-0.79,0.12-1.51,0.34l-3.07,0.93L217.61,316.2z"/>
			<path class="st0" d="M229.34,319.32l-3.2-8.5l1.3-0.49l0.49,1.29c0.1-0.73,0.26-1.24,0.47-1.54c0.21-0.3,0.48-0.51,0.82-0.64
				c0.49-0.18,1.04-0.21,1.66-0.09l0.01,1.52c-0.43-0.08-0.82-0.05-1.17,0.09c-0.31,0.12-0.56,0.32-0.74,0.6
				c-0.18,0.28-0.26,0.61-0.24,0.99c0.03,0.57,0.16,1.16,0.39,1.77l1.67,4.45L229.34,319.32z"/>
			<path class="st0" d="M239.72,311.89l1.53-0.46c0.15,0.95,0.01,1.8-0.4,2.54c-0.41,0.74-1.1,1.33-2.07,1.76
				c-1.21,0.54-2.34,0.59-3.39,0.16c-1.04-0.43-1.86-1.32-2.46-2.67c-0.62-1.4-0.74-2.64-0.36-3.73c0.38-1.09,1.14-1.89,2.29-2.4
				c1.11-0.49,2.18-0.51,3.22-0.07c1.04,0.44,1.86,1.35,2.47,2.72c0.04,0.08,0.09,0.21,0.16,0.38l-6.19,2.74
				c0.46,0.89,1.02,1.47,1.7,1.75c0.68,0.28,1.37,0.27,2.06-0.04c0.52-0.23,0.9-0.56,1.14-0.99
				C239.67,313.14,239.77,312.58,239.72,311.89z M234.09,311.66l4.64-2.05c-0.37-0.67-0.78-1.12-1.23-1.34
				c-0.69-0.34-1.39-0.36-2.1-0.04c-0.65,0.29-1.09,0.74-1.34,1.37C233.8,310.23,233.81,310.92,234.09,311.66z"/>
			<path class="st0" d="M246.82,311.64l-7.29-6.43l1.44-0.76l4.26,3.9c0.46,0.42,0.92,0.87,1.37,1.35c-0.1-0.49-0.2-1.09-0.3-1.8
				l-0.8-5.84l1.4-0.74l1.19,9.64L246.82,311.64z"/>
			<path class="st0" d="M247.14,299.17l-0.9-1.53l1.33-0.78l0.9,1.53L247.14,299.17z M252.59,308.46l-4.6-7.83l1.33-0.78l4.6,7.83
				L252.59,308.46z"/>
			<path class="st0" d="M254.26,304.37l1.15-1.03c0.4,0.46,0.86,0.73,1.36,0.79c0.5,0.06,1.05-0.1,1.64-0.49
				c0.59-0.39,0.95-0.79,1.08-1.22c0.13-0.43,0.09-0.8-0.12-1.13c-0.19-0.29-0.47-0.44-0.83-0.44c-0.25,0-0.79,0.14-1.6,0.42
				c-1.1,0.38-1.89,0.6-2.37,0.66c-0.48,0.06-0.91,0-1.3-0.18c-0.39-0.18-0.71-0.46-0.95-0.84c-0.22-0.34-0.35-0.7-0.38-1.09
				c-0.03-0.39,0.02-0.77,0.17-1.13c0.1-0.28,0.3-0.58,0.58-0.91c0.28-0.33,0.62-0.62,1.01-0.88c0.6-0.39,1.18-0.64,1.74-0.77
				c0.56-0.12,1.05-0.11,1.46,0.05c0.41,0.15,0.81,0.45,1.21,0.89l-1.15,0.99c-0.31-0.35-0.68-0.55-1.1-0.59
				c-0.42-0.04-0.88,0.1-1.38,0.43c-0.59,0.39-0.95,0.76-1.08,1.12c-0.13,0.36-0.1,0.67,0.07,0.94c0.11,0.17,0.26,0.28,0.45,0.35
				c0.2,0.07,0.43,0.08,0.72,0.02c0.16-0.04,0.61-0.17,1.35-0.41c1.07-0.35,1.84-0.57,2.3-0.65c0.46-0.08,0.89-0.04,1.29,0.13
				c0.4,0.16,0.74,0.46,1.03,0.9c0.28,0.43,0.42,0.92,0.41,1.46c0,0.54-0.17,1.07-0.51,1.59c-0.34,0.52-0.8,0.97-1.4,1.36
				c-0.99,0.64-1.88,0.93-2.66,0.86C255.65,305.48,254.93,305.08,254.26,304.37z"/>
			<path class="st0" d="M257.54,292.49l-1.03-1.44l1.25-0.9l1.03,1.44L257.54,292.49z M263.83,301.23l-5.3-7.38l1.25-0.9l5.3,7.38
				L263.83,301.23z"/>
			<path class="st0" d="M263.16,288.99l-0.6-2.58l1.58-1.26l0.02,3.04L263.16,288.99z M264.03,295.55c-1.05-1.32-1.46-2.58-1.23-3.8
				c0.19-1.01,0.73-1.87,1.61-2.57c0.98-0.78,2.03-1.09,3.16-0.95c1.13,0.15,2.14,0.78,3.04,1.91c0.73,0.91,1.16,1.74,1.31,2.49
				c0.14,0.74,0.07,1.47-0.23,2.17c-0.29,0.71-0.75,1.31-1.37,1.8c-1,0.79-2.05,1.11-3.17,0.96
				C266.02,297.42,264.98,296.75,264.03,295.55z M265.26,294.56c0.72,0.91,1.47,1.43,2.22,1.57c0.76,0.14,1.44-0.04,2.04-0.51
				c0.6-0.48,0.91-1.1,0.95-1.87c0.04-0.77-0.32-1.62-1.06-2.56c-0.7-0.88-1.43-1.38-2.19-1.52c-0.76-0.13-1.44,0.03-2.03,0.51
				c-0.6,0.48-0.92,1.1-0.96,1.87C264.2,292.81,264.54,293.65,265.26,294.56z"/>
			<path class="st0" d="M275.29,292.25l-6.15-6.69l1.02-0.94l0.87,0.95c-0.18-1.19,0.19-2.21,1.12-3.06c0.4-0.37,0.84-0.64,1.31-0.8
				c0.47-0.17,0.9-0.21,1.28-0.13c0.38,0.08,0.76,0.25,1.12,0.51c0.23,0.17,0.59,0.52,1.08,1.04l3.78,4.11l-1.13,1.04l-3.74-4.07
				c-0.42-0.46-0.79-0.77-1.08-0.91c-0.3-0.15-0.62-0.19-0.97-0.12c-0.35,0.07-0.68,0.24-0.98,0.52c-0.48,0.44-0.76,0.98-0.83,1.61
				c-0.07,0.63,0.29,1.37,1.08,2.23l3.36,3.65L275.29,292.25z"/>
			<path class="st0" d="M283.14,279.12l0.92-1.27c0.52,0.36,1.02,0.56,1.51,0.62c0.48,0.06,1-0.05,1.56-0.31
				c0.56-0.27,1.08-0.67,1.54-1.21c0.41-0.48,0.71-0.96,0.89-1.45c0.17-0.49,0.22-0.93,0.12-1.33c-0.09-0.39-0.28-0.72-0.58-0.97
				c-0.3-0.26-0.63-0.4-1-0.42c-0.37-0.02-0.8,0.1-1.3,0.37c-0.32,0.17-0.96,0.6-1.92,1.29c-0.96,0.69-1.69,1.13-2.18,1.32
				c-0.63,0.25-1.22,0.33-1.76,0.25c-0.54-0.08-1.03-0.31-1.47-0.69c-0.48-0.41-0.81-0.94-0.99-1.57c-0.18-0.63-0.15-1.3,0.08-2.01
				c0.24-0.71,0.63-1.38,1.18-2.02c0.61-0.7,1.26-1.22,1.95-1.56c0.69-0.34,1.38-0.46,2.07-0.37c0.69,0.09,1.32,0.37,1.9,0.83
				l-0.95,1.28c-0.65-0.45-1.3-0.63-1.93-0.52c-0.63,0.11-1.26,0.52-1.89,1.25c-0.66,0.76-1,1.43-1.02,2.02
				c-0.02,0.59,0.16,1.05,0.55,1.39c0.34,0.3,0.73,0.42,1.16,0.36c0.43-0.05,1.2-0.48,2.31-1.3c1.11-0.82,1.92-1.34,2.42-1.57
				c0.73-0.33,1.41-0.46,2.02-0.38c0.62,0.08,1.18,0.33,1.69,0.77c0.5,0.44,0.85,0.99,1.05,1.67c0.2,0.67,0.18,1.39-0.04,2.15
				c-0.22,0.75-0.63,1.47-1.21,2.15c-0.74,0.86-1.49,1.47-2.24,1.83c-0.75,0.36-1.52,0.49-2.31,0.38
				C284.5,279.97,283.79,279.65,283.14,279.12z"/>
			<path class="st0" d="M290.36,269.86c-1.35-1-2.08-2.12-2.17-3.35c-0.08-1.03,0.22-1.99,0.89-2.9c0.74-1,1.68-1.58,2.81-1.73
				c1.13-0.15,2.27,0.2,3.43,1.06c0.94,0.69,1.58,1.38,1.91,2.06c0.33,0.68,0.45,1.4,0.34,2.16c-0.1,0.76-0.39,1.46-0.86,2.09
				c-0.76,1.02-1.7,1.61-2.82,1.75C292.78,271.16,291.6,270.77,290.36,269.86z M291.31,268.59c0.94,0.69,1.79,1.01,2.55,0.94
				c0.77-0.06,1.38-0.4,1.84-1.02c0.45-0.61,0.6-1.3,0.43-2.05c-0.17-0.75-0.73-1.49-1.69-2.19c-0.9-0.67-1.74-0.97-2.51-0.9
				c-0.77,0.07-1.38,0.4-1.83,1.01c-0.46,0.62-0.61,1.3-0.45,2.05C289.82,267.18,290.37,267.9,291.31,268.59z"/>
			<path class="st0" d="M300.77,256.99l0.98-1.17c0.79,0.7,1.25,1.5,1.38,2.39c0.13,0.89-0.07,1.76-0.61,2.59
				c-0.67,1.05-1.55,1.67-2.64,1.87c-1.09,0.2-2.28-0.11-3.55-0.93c-0.83-0.53-1.46-1.13-1.91-1.8c-0.44-0.67-0.64-1.38-0.59-2.14
				c0.05-0.76,0.28-1.46,0.7-2.12c0.53-0.83,1.18-1.38,1.94-1.64c0.76-0.26,1.57-0.21,2.44,0.13l-0.61,1.38
				c-0.59-0.21-1.11-0.24-1.57-0.1c-0.45,0.14-0.82,0.42-1.1,0.86c-0.42,0.65-0.52,1.33-0.32,2.04c0.21,0.71,0.82,1.39,1.83,2.03
				c1.03,0.66,1.9,0.94,2.62,0.84c0.72-0.1,1.28-0.46,1.69-1.09c0.33-0.51,0.44-1.03,0.35-1.58
				C301.7,258.02,301.36,257.5,300.77,256.99z"/>
			<path class="st0" d="M295.87,250.64l-1.53-0.88l0.77-1.33l1.53,0.88L295.87,250.64z M305.2,256.03l-7.87-4.54l0.77-1.33
				l7.87,4.54L305.2,256.03z"/>
			<path class="st0" d="M309.05,246.52c0.17,0.73,0.22,1.37,0.16,1.93c-0.06,0.56-0.23,1.11-0.51,1.65
				c-0.45,0.89-1.02,1.46-1.7,1.71c-0.68,0.25-1.35,0.21-2.03-0.14c-0.4-0.2-0.71-0.48-0.95-0.83c-0.24-0.35-0.38-0.72-0.42-1.11
				c-0.05-0.39-0.03-0.8,0.06-1.22c0.07-0.31,0.21-0.75,0.42-1.32c0.43-1.17,0.7-2.07,0.78-2.69c-0.18-0.1-0.3-0.16-0.35-0.19
				c-0.56-0.29-1.02-0.36-1.38-0.22c-0.49,0.19-0.91,0.63-1.26,1.32c-0.33,0.64-0.46,1.18-0.39,1.6c0.07,0.42,0.35,0.85,0.85,1.29
				l-0.87,1.25c-0.51-0.42-0.87-0.85-1.08-1.31c-0.21-0.46-0.27-1-0.19-1.63c0.08-0.63,0.3-1.29,0.65-1.98
				c0.35-0.69,0.72-1.21,1.11-1.56c0.38-0.35,0.75-0.56,1.1-0.64c0.35-0.08,0.73-0.06,1.15,0.05c0.26,0.07,0.69,0.27,1.3,0.58
				l1.83,0.94c1.27,0.65,2.09,1.04,2.46,1.15c0.37,0.11,0.75,0.17,1.15,0.15l-0.73,1.43C309.83,246.76,309.45,246.68,309.05,246.52z
				 M305.93,245.07c-0.05,0.6-0.26,1.44-0.63,2.5c-0.21,0.61-0.32,1.05-0.34,1.34c-0.02,0.29,0.04,0.54,0.17,0.77
				c0.13,0.23,0.31,0.4,0.55,0.52c0.37,0.19,0.74,0.2,1.13,0.05c0.39-0.15,0.71-0.49,0.99-1.03c0.27-0.53,0.4-1.06,0.38-1.58
				c-0.02-0.53-0.18-0.99-0.48-1.39c-0.24-0.31-0.65-0.61-1.26-0.92L305.93,245.07z"/>
			<path class="st0" d="M311.82,243.27l-11.43-5.15l0.63-1.4l11.43,5.15L311.82,243.27z"/>
		</g>
	</g>
</g>
</svg>
