<?xml version="1.0" encoding="utf-8"?>
<!-- Generator: Adobe Illustrator 23.0.0, SVG Export Plug-In . SVG Version: 6.00 Build 0)  -->
<svg version="1.1" id="Capa_2" xmlns="http://www.w3.org/2000/svg" xmlns:xlink="http://www.w3.org/1999/xlink" x="0px" y="0px"
	 viewBox="0 0 360 360" style="enable-background:new 0 0 360 360;" xml:space="preserve">
<style type="text/css">
	.st0{fill:#E2680E;}
	.st1{fill:#07467A;}
	.st2{fill:#F8B436;}
	.st3{fill:#ABCA59;}
	.st4{fill:#CF067A;}
	.st5{fill:#21B0C7;}
	.st6{fill:#07457A;}
	.st7{fill:#E2670E;}
	.st8{fill:#606160;}
</style>
<g>
	<g>
		<g>
			<path class="st0" d="M174.23,126.75c3.45-2.69,7.95-2.18,12.03-1.89c3.07,1.64,6.28,3.49,7.89,6.75
				c2.14,3.25,1.61,7.25,1.49,10.93c-1.45,2.63-2.99,5.35-5.47,7.15c-5.66,4.37-14.61,3.19-19.08-2.36
				C165.94,141.3,167.32,130.88,174.23,126.75z"/>
			<path class="st0" d="M168.06,172.85c11.5-13.4,29.1-23.49,47.24-20.73c-0.2,1.88-0.4,3.76-0.64,5.63
				c-3.96,27.91-7.01,55.96-11.05,83.86c-2.29-2.62-3.38-6-5-9.02C188.36,212.71,178.23,192.78,168.06,172.85z"/>
		</g>
		<g>
			<path class="st1" d="M83.96,151.41"/>
		</g>
		<g>
			<path class="st2" d="M128.92,178.91c3.33-12.97,10.47-26.37,23.2-32.08c2.11,3.98,4.15,8.03,6.28,12.01
				c2.76,5.71,5.75,11.3,8.63,16.97c11.33,22.39,22.8,44.71,34.23,67.05c-23.97-15.14-47.67-30.69-71.6-45.9
				c-1.05-0.75-2.35-1.27-3.06-2.41c0.04-1.46,0.13-2.93,0.27-4.38C127.57,186.41,128.09,182.63,128.92,178.91z"/>
		</g>
		<g>
			<path class="st3" d="M215.17,170.26c7.01-0.1,14.06-0.41,21.04,0.42c2.62,0.73,5.26,1.42,7.89,2.16
				c7.48,2.66,14.55,6.66,20.2,12.3c-17.66,17.59-35.59,34.89-53.09,52.65c-1.63,1.69-3.36,3.26-5.2,4.71
				c2.19-16.76,4.39-33.54,6.21-50.34l0.47-0.73C213.05,184.32,214.35,177.32,215.17,170.26z"/>
		</g>
		<g>
			<path class="st4" d="M98.67,225.85c-4.07-14.69-5.55-31.46,1.84-45.37c32.84,21.77,66.26,42.68,99.12,64.41
				c-30.98,0.28-61.96,0.15-92.94,0.07C103.51,238.82,100.67,232.49,98.67,225.85z"/>
		</g>
		<g>
			<path class="st5" d="M250.69,201.93c0.87-1.07,2.28,0.28,2.91,1c10.42,11.36,16.7,26.61,16.34,42.11
				c-20.92-0.07-41.85,0.14-62.78-0.11C221.53,230.45,236.11,216.19,250.69,201.93z"/>
		</g>
	</g>
	<g>
		<path class="st6" d="M30.09,236.53c-0.14-1.83-0.13-4.2,0.11-6.64c0.4-4.14,1.5-6.76,3.39-8.65c2.04-2.07,5.1-3.2,9.28-2.8
			c4.53,0.44,7.51,2.25,9.24,4.49c1.85,2.48,2.5,6.08,2.09,10.32c-0.25,2.54-0.6,4.35-0.89,5.52L30.09,236.53z M49.85,233.51
			c0.15-0.41,0.21-1.12,0.27-1.69c0.47-4.46-1.92-7.64-7.58-8.19c-4.92-0.47-7.77,1.91-8.18,6.15c-0.1,1.06-0.07,1.81,0,2.24
			L49.85,233.51z"/>
		<path class="st6" d="M33.65,207.61l23.33,4.61l-0.95,4.81l-23.33-4.61L33.65,207.61z"/>
		<path class="st6" d="M52.41,206.84c1.07-1.04,2.35-2.82,2.93-4.83c0.62-2.17-0.03-3.6-1.52-4.03c-1.42-0.41-2.52,0.35-4.19,2.59
			c-2.35,3.08-5.12,4.78-8.44,3.82c-3.9-1.12-5.99-4.98-4.58-9.88c0.69-2.39,1.68-3.95,2.68-5l3.83,2.24
			c-0.67,0.68-1.75,2.01-2.33,4.03c-0.59,2.05,0.18,3.34,1.33,3.67c1.46,0.42,2.43-0.54,4.33-2.95c2.55-3.26,5.14-4.36,8.37-3.44
			c3.83,1.1,6.32,4.7,4.67,10.44c-0.69,2.39-2.07,4.54-3.13,5.52L52.41,206.84z"/>
		<path class="st6" d="M46.3,181.21l-2.24,5.43l-4.17-1.73l6.39-15.45l4.17,1.73l-2.27,5.49l17.81,7.37l-1.87,4.53L46.3,181.21z"/>
		<path class="st6" d="M50.57,161.38l21.09,10.98l-2.27,4.35l-21.09-10.98L50.57,161.38z"/>
		<path class="st6" d="M73.21,169.06l-19.84-13.13l3.17-4.79l9.76,1.04c2.8,0.31,5.97,0.89,8.76,1.54l0.04-0.05
			c-2.78-1.49-5.51-3.18-8.51-5.17l-5.77-3.82l2.49-3.77l19.83,13.13l-2.85,4.31l-10.22-1.19c-2.83-0.33-6.19-0.81-9.09-1.49
			l-0.07,0.11c2.74,1.62,5.57,3.42,8.81,5.56l5.97,3.95L73.21,169.06z"/>
		<path class="st6" d="M73.7,135.49l-3.88,4.41l-3.39-2.98l11.03-12.56l3.39,2.98l-3.92,4.46l14.47,12.71l-3.24,3.69L73.7,135.49z"
			/>
		<path class="st6" d="M84.22,118.08l16.31,17.3l-3.57,3.36l-16.31-17.3L84.22,118.08z"/>
		<path class="st6" d="M107.2,129.71l-19.93-14.74l4.29-3.25l8.19,6.41c2.32,1.83,4.48,3.56,6.68,5.6l0.08-0.06
			c-1.29-2.61-2.46-5.27-3.51-7.88l-3.93-9.77l4.17-3.16l8.54,23.37L107.2,129.71z"/>
		<path class="st6" d="M130.5,101.18c3.67,6.92,2.07,13.08-3.57,16.07c-5.67,3.01-11.53,0.08-14.72-5.93
			c-3.34-6.3-2.13-12.97,3.52-15.96C121.63,92.22,127.41,95.35,130.5,101.18z M116.75,108.79c2.2,4.15,5.5,6.11,8.41,4.57
			c2.94-1.56,3-5.5,0.83-9.59c-2.02-3.8-5.36-6.18-8.35-4.6C114.68,100.74,114.59,104.7,116.75,108.79z"/>
		<path class="st7" d="M183.61,93.74l-6.97,0.3l0.21,4.92l7.79-0.34l0.17,3.84l-12.06,0.52l-0.9-20.72l11.67-0.5l0.17,3.84
			l-7.39,0.32l0.19,4.31l6.97-0.3L183.61,93.74z"/>
		<path class="st7" d="M187.67,92.72c0.18-1.75,0.29-3.22,0.37-4.49l3.39,0.36l-0.04,1.91l0.08,0.01c0.65-0.86,1.94-2.06,4.12-1.83
			c1.68,0.18,2.87,1.26,3.26,2.78l0.05,0.01c0.58-0.69,1.19-1.21,1.86-1.54c0.75-0.35,1.57-0.53,2.51-0.43
			c2.47,0.26,4.13,2.35,3.68,6.57l-0.88,8.27l-3.89-0.41l0.81-7.63c0.22-2.04-0.26-3.28-1.55-3.42c-0.95-0.1-1.65,0.52-2.03,1.32
			c-0.11,0.31-0.21,0.73-0.25,1.11l-0.87,8.21l-3.88-0.41l0.84-7.89c0.19-1.75-0.26-3.02-1.55-3.15c-1.02-0.11-1.72,0.69-2.03,1.35
			c-0.17,0.33-0.24,0.73-0.28,1.1l-0.87,8.18l-3.88-0.41L187.67,92.72z"/>
		<path class="st7" d="M210.68,95.95c0.47-1.79,0.82-3.31,1.11-4.6l3.37,0.89l-0.33,1.94l0.05,0.01c1.3-1.18,2.93-1.58,4.74-1.1
			c2.73,0.72,4.49,3.97,3.34,8.32c-1.32,4.97-4.82,6.54-7.6,5.81c-1.51-0.4-2.5-1.38-2.83-2.42l-0.05-0.01l-1.8,6.78l-3.88-1.03
			L210.68,95.95z M213.71,100.19c-0.09,0.33-0.14,0.62-0.16,0.91c-0.05,1.21,0.62,2.31,1.74,2.61c1.68,0.45,3.09-0.82,3.7-3.14
			c0.58-2.18,0.12-4.06-1.62-4.52c-1.1-0.29-2.3,0.34-2.89,1.53c-0.11,0.21-0.21,0.48-0.28,0.73L213.71,100.19z"/>
		<path class="st7" d="M226.23,100.32c0.73-1.94,1.19-3.22,1.54-4.39l3.21,1.21l-0.77,2.49l0.1,0.04c1.35-1.71,3.12-1.97,4.3-1.52
			c0.34,0.13,0.51,0.22,0.76,0.38l-1.46,3.86c-0.28-0.17-0.55-0.33-0.97-0.49c-1.38-0.52-2.63-0.07-3.35,1.11
			c-0.15,0.25-0.3,0.57-0.42,0.89l-2.53,6.7l-3.75-1.42L226.23,100.32z"/>
		<path class="st7" d="M236.79,108.74c-0.7,1.68,0.42,3.19,2.1,4.01c1.24,0.6,2.32,0.9,3.47,1.01l-0.82,2.9
			c-1.45-0.03-3.03-0.48-4.59-1.24c-3.94-1.92-4.99-5.5-3.06-9.48c1.56-3.22,5.12-5.89,9.16-3.93c3.75,1.82,3.63,5.71,2.1,8.85
			c-0.33,0.67-0.69,1.24-0.88,1.5L236.79,108.74z M242.35,108.1c0.47-0.96,0.87-2.75-0.79-3.56c-1.52-0.74-2.88,0.49-3.48,1.48
			L242.35,108.1z"/>
		<path class="st7" d="M245.47,115.24c0.38,0.8,1.39,2.07,2.41,2.69c1.04,0.63,1.69,0.53,2.07-0.09c0.39-0.64,0.24-1.14-0.74-2.38
			c-1.79-2.24-1.83-4.14-0.94-5.55c1.39-2.27,4.18-2.89,6.91-1.22c1.28,0.79,2.2,1.82,2.65,2.6l-2.17,2.23
			c-0.32-0.6-1.04-1.58-1.97-2.15c-0.83-0.51-1.53-0.43-1.89,0.16c-0.36,0.59-0.11,1.15,0.92,2.49c1.61,2.07,1.75,3.78,0.7,5.54
			c-1.39,2.27-4,2.94-7.15,1.01c-1.44-0.88-2.5-2.04-3.03-3.04L245.47,115.24z"/>
		<path class="st7" d="M263.4,127.96c-0.8,1.06-1.53,2.13-1.87,2.85l-2.89-2.17l0.66-1.27l-0.06-0.05c-1.35,0.39-2.77,0.09-4-0.83
			c-2.09-1.57-2.09-4.16-0.74-5.97c2.2-2.93,5.65-2.52,9.3,0.22l0.1-0.14c0.47-0.62,0.81-1.7-0.77-2.89
			c-1.06-0.79-2.47-1.24-3.49-1.28l1.11-2.71c1.05,0.1,2.9,0.58,4.78,1.99c3.44,2.58,2.86,5.6,0.85,8.28L263.4,127.96z
			 M262.25,123.02c-1.69-1.27-3.33-1.81-4.33-0.47c-0.68,0.9-0.45,1.75,0.26,2.29c0.78,0.59,1.89,0.51,2.64-0.04
			c0.18-0.15,0.36-0.35,0.51-0.55L262.25,123.02z"/>
		<path class="st7" d="M283.65,124.65l-13.39,14.12l-2.91-2.76l13.39-14.12L283.65,124.65z"/>
		<path class="st7" d="M279.58,134.34c1.31-1.18,2.37-2.2,3.28-3.08l2.33,2.6l-1.34,1.45l0.05,0.06c1.04-0.22,2.91-0.17,4.36,1.45
			c1.76,1.97,1.64,4.73-1.46,7.51l-6.22,5.57l-2.68-2.99l5.83-5.22c1.36-1.21,1.89-2.47,0.92-3.56c-0.74-0.83-1.8-0.76-2.6-0.43
			c-0.29,0.11-0.6,0.36-0.91,0.63l-6.06,5.43l-2.68-2.99L279.58,134.34z"/>
		<path class="st7" d="M288.27,159.57c-0.73-0.35-1.76-1.26-2.67-2.49c-2.48-3.36-1.81-7.16,1.74-9.79
			c3.32-2.45,7.57-2.38,10.43,1.48c0.63,0.85,1.16,1.9,1.38,2.79l-3,1.43c-0.1-0.52-0.36-1.21-0.99-2.06
			c-1.25-1.7-3.39-1.82-5.24-0.43c-2.07,1.53-2.24,3.63-1.08,5.2c0.57,0.76,1.14,1.26,1.74,1.57L288.27,159.57z"/>
		<path class="st7" d="M306.17,150.28l2.17,3.38l-17.24,11.1l-2.17-3.38L306.17,150.28z"/>
		<path class="st7" d="M302.44,175.61c-1.63,0.88-2.92,1.64-3.93,2.25l-1.66-3.06l1.66-1.11l-0.04-0.07c-1-0.03-2.85-0.41-3.96-2.45
			c-1.26-2.32-0.59-4.84,3.24-6.92l7.29-3.95l1.91,3.53l-6.68,3.62c-1.8,0.98-2.6,2.1-1.92,3.35c0.53,0.97,1.58,1.16,2.3,1.03
			c0.28-0.03,0.58-0.14,0.91-0.31l7.39-4l1.91,3.53L302.44,175.61z"/>
		<path class="st7" d="M313.76,177.47l-5.65,4.49c-0.66,0.51-1.54,1.17-2.17,1.61l0.04,0.1c0.78-0.16,1.82-0.37,2.66-0.53l7.01-1.22
			l1.67,3.94l-9.73,0.86c-5.91,0.5-8.44,0.22-10.31-0.56c-1.76-0.75-2.79-1.92-3.29-2.79l3.06-2.24c0.3,0.42,0.79,0.9,1.37,1.31
			c0.56,0.42,1.49,0.77,2.27,0.84c0.26,0.03,0.51,0.01,0.67-0.05c0.16-0.07,0.33-0.17,0.6-0.43l10.05-9.42L313.76,177.47z"/>
		<path class="st7" d="M310.86,193.31c-1.7,0.66-2.01,2.51-1.43,4.29c0.42,1.31,0.96,2.3,1.68,3.2l-2.66,1.42
			c-0.99-1.07-1.76-2.51-2.3-4.17c-1.35-4.17,0.51-7.41,4.71-8.78c3.41-1.11,7.79-0.39,9.18,3.88c1.29,3.97-1.6,6.57-4.92,7.65
			c-0.71,0.23-1.37,0.36-1.69,0.41L310.86,193.31z M315.18,196.87c1.02-0.33,2.59-1.29,2.02-3.04c-0.52-1.61-2.35-1.73-3.49-1.48
			L315.18,196.87z"/>
		<path class="st7" d="M317.95,202.76c1.72-0.39,3.14-0.76,4.37-1.09l0.76,3.4l-1.88,0.61l0.02,0.08c1.02,0.31,2.63,1.28,3.1,3.39
			c0.58,2.58-0.87,4.93-4.93,5.84l-8.14,1.83l-0.88-3.92l7.63-1.71c1.78-0.4,2.86-1.24,2.54-2.65c-0.24-1.08-1.2-1.54-2.06-1.65
			c-0.3-0.04-0.71,0.02-1.1,0.11l-7.95,1.78l-0.88-3.92L317.95,202.76z"/>
		<path class="st7" d="M330,221.28l-3.77,0.54l0.41,2.85l-3.2,0.46l-0.41-2.85l-5.06,0.73c-1.69,0.24-2.4,0.75-2.23,1.92
			c0.08,0.55,0.14,0.81,0.28,1.16l-3.28,0.5c-0.27-0.47-0.58-1.41-0.74-2.51c-0.18-1.28,0.15-2.42,0.77-3.18
			c0.72-0.85,2.01-1.41,3.99-1.69l5.72-0.82l-0.24-1.7l3.2-0.46l0.24,1.7l2.6-0.37L330,221.28z"/>
		<path class="st7" d="M318.75,231.14c-1.81,0.23-2.55,1.95-2.42,3.82c0.1,1.37,0.38,2.46,0.85,3.51l-2.93,0.73
			c-0.7-1.28-1.1-2.86-1.22-4.6c-0.31-4.37,2.28-7.07,6.69-7.38c3.57-0.25,7.66,1.5,7.97,5.98c0.29,4.16-3.14,5.99-6.62,6.23
			c-0.75,0.05-1.42,0.02-1.74-0.01L318.75,231.14z M322.08,235.64c1.07-0.08,2.82-0.62,2.69-2.47c-0.12-1.69-1.87-2.25-3.02-2.28
			L322.08,235.64z"/>
	</g>
	<g>
		<path class="st8" d="M80.19,277.36c-0.98,0.33-2.83,0.79-4.69,0.79c-2.56,0-4.42-0.65-5.71-1.88c-1.27-1.23-1.98-3.06-1.98-5.13
			c0.02-4.67,3.42-7.34,8.02-7.34c1.81,0,3.21,0.35,3.9,0.67l-0.67,2.56c-0.77-0.35-1.71-0.61-3.25-0.61
			c-2.65,0-4.67,1.48-4.67,4.54c0,2.92,1.83,4.61,4.44,4.61c0.71,0,1.29-0.08,1.54-0.19v-2.96h-2.17v-2.48h5.23V277.36z"/>
		<path class="st8" d="M85.9,264.98c0,0.88-0.65,1.58-1.71,1.58c-1,0-1.65-0.71-1.65-1.58c0-0.9,0.67-1.58,1.69-1.58
			C85.26,263.4,85.88,264.09,85.9,264.98z M82.63,278.01v-10.19h3.17v10.19H82.63z"/>
		<path class="st8" d="M88.34,263.21h3.17v14.8h-3.17V263.21z"/>
		<path class="st8" d="M94.08,263.21h3.17v5.81h0.04c0.6-0.88,1.67-1.44,3.08-1.44c2.44,0,4.21,2.02,4.19,5.15
			c0,3.67-2.31,5.5-4.65,5.5c-1.19,0-2.35-0.44-3.06-1.65h-0.04l-0.13,1.42h-2.69c0.04-0.67,0.08-1.9,0.08-3.04V263.21z
			 M97.24,273.67c0,0.21,0.02,0.4,0.06,0.56c0.21,0.83,0.94,1.5,1.85,1.5c1.35,0,2.19-1.04,2.19-2.88c0-1.58-0.71-2.83-2.19-2.83
			c-0.85,0-1.65,0.65-1.85,1.56c-0.04,0.19-0.06,0.38-0.06,0.58V273.67z"/>
		<path class="st8" d="M109.04,273.92c0.08,1.31,1.4,1.94,2.88,1.94c1.08,0,1.96-0.15,2.81-0.44l0.42,2.15
			c-1.04,0.44-2.31,0.65-3.69,0.65c-3.46,0-5.44-2-5.44-5.19c0-2.58,1.61-5.44,5.15-5.44c3.29,0,4.54,2.56,4.54,5.09
			c0,0.54-0.06,1.02-0.1,1.25H109.04z M112.77,271.76c0-0.77-0.33-2.06-1.79-2.06c-1.33,0-1.88,1.23-1.96,2.06H112.77z"/>
		<path class="st8" d="M117.61,271.17c0-1.5-0.02-2.48-0.08-3.35h2.71l0.13,1.88h0.08c0.52-1.5,1.75-2.13,2.75-2.13
			c0.29,0,0.44,0.02,0.67,0.06v2.98c-0.25-0.04-0.5-0.08-0.85-0.08c-1.17,0-1.96,0.63-2.17,1.61c-0.04,0.21-0.06,0.46-0.06,0.71
			v5.17h-3.17V271.17z"/>
		<path class="st8" d="M129.51,265.07v2.75h2.27v2.33h-2.27v3.69c0,1.23,0.31,1.79,1.25,1.79c0.44,0,0.65-0.02,0.94-0.08l0.02,2.4
			c-0.4,0.15-1.17,0.27-2.04,0.27c-1.02,0-1.88-0.35-2.4-0.88c-0.58-0.6-0.88-1.58-0.88-3.02v-4.17h-1.35v-2.33h1.35v-1.9
			L129.51,265.07z"/>
		<path class="st8" d="M143.58,272.8c0,3.73-2.65,5.44-5.38,5.44c-2.98,0-5.27-1.96-5.27-5.25c0-3.31,2.17-5.42,5.46-5.42
			C141.5,267.57,143.58,269.71,143.58,272.8z M136.2,272.9c0,1.75,0.73,3.06,2.08,3.06c1.25,0,2.02-1.23,2.02-3.08
			c0-1.5-0.58-3.04-2.02-3.04C136.79,269.84,136.2,271.4,136.2,272.9z"/>
		<path class="st8" d="M149.86,264.15c1.02-0.17,2.52-0.29,4.23-0.29c2.08,0,3.54,0.31,4.54,1.11c0.85,0.67,1.31,1.67,1.31,2.96
			c0,1.77-1.27,3-2.48,3.44v0.06c0.98,0.4,1.52,1.31,1.88,2.61c0.44,1.61,0.85,3.44,1.13,3.98h-3.25c-0.21-0.42-0.56-1.54-0.96-3.27
			c-0.4-1.77-1-2.23-2.31-2.25H153v5.52h-3.15V264.15z M153,270.19h1.25c1.58,0,2.52-0.79,2.52-2.02c0-1.27-0.88-1.94-2.33-1.94
			c-0.77,0-1.21,0.04-1.44,0.1V270.19z"/>
		<path class="st8" d="M165.59,264.98c0,0.88-0.65,1.58-1.71,1.58c-1,0-1.65-0.71-1.65-1.58c0-0.9,0.67-1.58,1.69-1.58
			C164.95,263.4,165.57,264.09,165.59,264.98z M162.32,278.01v-10.19h3.17v10.19H162.32z"/>
		<path class="st8" d="M168.03,271.07c0-1.27-0.04-2.33-0.08-3.25h2.75l0.15,1.42h0.06c0.42-0.67,1.44-1.65,3.15-1.65
			c2.08,0,3.65,1.4,3.65,4.4v6.02h-3.17v-5.65c0-1.31-0.46-2.21-1.6-2.21c-0.88,0-1.4,0.6-1.63,1.19c-0.08,0.21-0.1,0.5-0.1,0.79
			v5.88h-3.17V271.07z"/>
		<path class="st8" d="M187.9,277.74c-0.56,0.27-1.63,0.48-2.83,0.48c-3.29,0-5.4-2.02-5.4-5.21c0-2.98,2.04-5.42,5.84-5.42
			c0.83,0,1.75,0.15,2.42,0.4l-0.5,2.35c-0.38-0.17-0.94-0.31-1.77-0.31c-1.67,0-2.75,1.19-2.73,2.86c0,1.85,1.25,2.86,2.79,2.86
			c0.75,0,1.33-0.13,1.81-0.33L187.9,277.74z"/>
		<path class="st8" d="M199.49,272.8c0,3.73-2.65,5.44-5.38,5.44c-2.98,0-5.27-1.96-5.27-5.25c0-3.31,2.17-5.42,5.46-5.42
			C197.4,267.57,199.49,269.71,199.49,272.8z M192.11,272.9c0,1.75,0.73,3.06,2.08,3.06c1.25,0,2.02-1.23,2.02-3.08
			c0-1.5-0.58-3.04-2.02-3.04C192.69,269.84,192.11,271.4,192.11,272.9z M197.46,263.38l-2.54,3.17h-2.17l1.79-3.17H197.46z"/>
		<path class="st8" d="M201.45,271.07c0-1.27-0.04-2.33-0.08-3.25h2.75l0.14,1.42h0.06c0.42-0.67,1.44-1.65,3.15-1.65
			c2.08,0,3.65,1.4,3.65,4.4v6.02h-3.17v-5.65c0-1.31-0.46-2.21-1.6-2.21c-0.88,0-1.4,0.6-1.63,1.19c-0.08,0.21-0.1,0.5-0.1,0.79
			v5.88h-3.17V271.07z"/>
		<path class="st8" d="M229.71,277.36c-0.98,0.33-2.83,0.79-4.69,0.79c-2.56,0-4.42-0.65-5.71-1.88c-1.27-1.23-1.98-3.06-1.98-5.13
			c0.02-4.67,3.42-7.34,8.02-7.34c1.81,0,3.21,0.35,3.9,0.67l-0.67,2.56c-0.77-0.35-1.71-0.61-3.25-0.61
			c-2.65,0-4.67,1.48-4.67,4.54c0,2.92,1.83,4.61,4.44,4.61c0.71,0,1.29-0.08,1.54-0.19v-2.96h-2.17v-2.48h5.23V277.36z"/>
		<path class="st8" d="M240.74,275.55c0,0.96,0.04,1.9,0.17,2.46h-2.86l-0.19-1.02h-0.06c-0.67,0.81-1.71,1.25-2.92,1.25
			c-2.06,0-3.29-1.5-3.29-3.13c0-2.65,2.38-3.9,5.98-3.9v-0.13c0-0.56-0.29-1.33-1.85-1.33c-1.04,0-2.15,0.36-2.81,0.77l-0.58-2.04
			c0.71-0.4,2.1-0.92,3.96-0.92c3.4,0,4.46,2,4.46,4.42V275.55z M237.67,273.19c-1.67,0-2.96,0.4-2.96,1.61
			c0,0.81,0.54,1.21,1.25,1.21c0.77,0,1.44-0.52,1.65-1.17c0.04-0.17,0.06-0.35,0.06-0.54V273.19z"/>
		<path class="st8" d="M243.26,263.21h3.17v14.8h-3.17V263.21z"/>
		<path class="st8" d="M249,263.21h3.17v14.8H249V263.21z"/>
		<path class="st8" d="M263.21,275.55c0,0.96,0.04,1.9,0.17,2.46h-2.86l-0.19-1.02h-0.06c-0.67,0.81-1.71,1.25-2.92,1.25
			c-2.06,0-3.29-1.5-3.29-3.13c0-2.65,2.38-3.9,5.98-3.9v-0.13c0-0.56-0.29-1.33-1.86-1.33c-1.04,0-2.15,0.36-2.81,0.77l-0.58-2.04
			c0.71-0.4,2.11-0.92,3.96-0.92c3.4,0,4.46,2,4.46,4.42V275.55z M260.15,273.19c-1.67,0-2.96,0.4-2.96,1.61
			c0,0.81,0.54,1.21,1.25,1.21c0.77,0,1.44-0.52,1.65-1.17c0.04-0.17,0.06-0.35,0.06-0.54V273.19z"/>
		<path class="st8" d="M265.73,271.17c0-1.5-0.02-2.48-0.08-3.35h2.71l0.13,1.88h0.08c0.52-1.5,1.75-2.13,2.75-2.13
			c0.29,0,0.44,0.02,0.67,0.06v2.98c-0.25-0.04-0.5-0.08-0.85-0.08c-1.17,0-1.96,0.63-2.17,1.61c-0.04,0.21-0.06,0.46-0.06,0.71
			v5.17h-3.17V271.17z"/>
		<path class="st8" d="M283.37,263.21v11.75c0,1.15,0.04,2.35,0.08,3.04h-2.81l-0.13-1.48h-0.06c-0.63,1.13-1.88,1.71-3.19,1.71
			c-2.42,0-4.36-2.06-4.36-5.23c-0.02-3.44,2.13-5.44,4.57-5.44c1.27,0,2.23,0.46,2.69,1.15h0.04v-5.5H283.37z M280.2,272.13
			c0-0.17,0-0.4-0.04-0.58c-0.19-0.83-0.88-1.54-1.85-1.54c-1.46,0-2.19,1.29-2.19,2.9c0,1.73,0.85,2.81,2.17,2.81
			c0.92,0,1.67-0.63,1.86-1.52c0.04-0.23,0.06-0.48,0.06-0.73V272.13z"/>
		<path class="st8" d="M295.98,272.8c0,3.73-2.65,5.44-5.38,5.44c-2.98,0-5.27-1.96-5.27-5.25c0-3.31,2.17-5.42,5.46-5.42
			C293.89,267.57,295.98,269.71,295.98,272.8z M288.6,272.9c0,1.75,0.73,3.06,2.08,3.06c1.25,0,2.02-1.23,2.02-3.08
			c0-1.5-0.58-3.04-2.02-3.04C289.18,269.84,288.6,271.4,288.6,272.9z"/>
	</g>
</g>
</svg>
