<?xml version="1.0" encoding="utf-8"?>
<!-- Generator: Adobe Illustrator 23.0.0, SVG Export Plug-In . SVG Version: 6.00 Build 0)  -->
<svg version="1.1" id="Capa_1" xmlns="http://www.w3.org/2000/svg" xmlns:xlink="http://www.w3.org/1999/xlink" x="0px" y="0px"
	 viewBox="0 0 360 360" style="enable-background:new 0 0 360 360;" xml:space="preserve">
<style type="text/css">
	.st0{clip-path:url(#SVGID_2_);fill:url(#SVGID_3_);}
	.st1{clip-path:url(#SVGID_5_);fill:#05538F;}
	.st2{clip-path:url(#SVGID_7_);fill:#EDB702;}
	.st3{clip-path:url(#SVGID_9_);fill:#EDB702;}
	.st4{clip-path:url(#SVGID_11_);fill:#EDB702;}
	.st5{clip-path:url(#SVGID_13_);fill:#EDB702;}
	.st6{clip-path:url(#SVGID_15_);fill:#EDB702;}
	.st7{clip-path:url(#SVGID_17_);fill:#EDB702;}
	.st8{clip-path:url(#SVGID_19_);fill:#EDB702;}
	.st9{clip-path:url(#SVGID_21_);fill:#EDB702;}
	.st10{clip-path:url(#SVGID_23_);fill:#EDB702;}
	.st11{clip-path:url(#SVGID_25_);fill:#EDB702;}
	.st12{clip-path:url(#SVGID_27_);fill:url(#SVGID_28_);}
	.st13{clip-path:url(#SVGID_30_);fill:#05538F;}
	.st14{clip-path:url(#SVGID_32_);fill:#EDB702;}
	.st15{clip-path:url(#SVGID_34_);fill:#05538F;}
	.st16{clip-path:url(#SVGID_36_);fill:#05538F;}
</style>
<g>
	<g>
		<defs>
			<path id="SVGID_1_" d="M64.13,183.86c0,66.13,53.61,119.73,119.73,119.73c66.13,0,119.73-53.61,119.73-119.73
				c0-66.13-53.61-119.73-119.73-119.73C117.74,64.13,64.13,117.73,64.13,183.86"/>
		</defs>
		<clipPath id="SVGID_2_">
			<use xlink:href="#SVGID_1_"  style="overflow:visible;"/>
		</clipPath>
		
			<linearGradient id="SVGID_3_" gradientUnits="userSpaceOnUse" x1="0" y1="4.993538e-05" x2="1" y2="4.993538e-05" gradientTransform="matrix(-1.150000e-05 -263.3712 263.3712 -1.150000e-05 183.8499 323.4152)">
			<stop  offset="0" style="stop-color:#FFFFFF"/>
			<stop  offset="0.1976" style="stop-color:#D9DDF0"/>
			<stop  offset="0.6405" style="stop-color:#768CC4"/>
			<stop  offset="1" style="stop-color:#03559F"/>
		</linearGradient>
		<rect x="64.13" y="64.13" class="st0" width="239.46" height="239.46"/>
	</g>
</g>
<g>
	<g>
		<defs>
			<rect id="SVGID_4_" width="360" height="360"/>
		</defs>
		<clipPath id="SVGID_5_">
			<use xlink:href="#SVGID_4_"  style="overflow:visible;"/>
		</clipPath>
		<path class="st1" d="M183.85,330.75c-31.72,0-61.89-9.99-87.25-28.89c-24.51-18.27-43.04-44.31-52.17-73.33
			c-0.68-2.15,0.52-4.44,2.67-5.12c2.15-0.68,4.44,0.52,5.12,2.67c18.17,57.73,71.07,96.51,131.64,96.51
			c76.09,0,137.99-61.9,137.99-137.98c0-60.32-38.58-113.15-96-131.48c-2.15-0.69-3.33-2.98-2.65-5.13
			c0.68-2.15,2.98-3.33,5.13-2.65c29.3,9.35,54.53,27.41,72.95,52.22c18.8,25.31,28.73,55.41,28.73,87.03
			C330,265.19,264.44,330.75,183.85,330.75"/>
	</g>
	<g>
		<defs>
			<rect id="SVGID_6_" width="360" height="360"/>
		</defs>
		<clipPath id="SVGID_7_">
			<use xlink:href="#SVGID_6_"  style="overflow:visible;"/>
		</clipPath>
		<polygon class="st2" points="167.21,51.48 153.82,32.79 149.93,33.74 166.21,56.46 169.46,56.03 179.5,29.25 175.25,29.66 		"/>
	</g>
	<g>
		<defs>
			
				<rect id="SVGID_8_" x="73.46" y="-210.28" transform="matrix(0.9477 -0.3191 0.3191 0.9477 22.9141 79.2979)" width="359.99" height="359.99"/>
		</defs>
		<clipPath id="SVGID_9_">
			<use xlink:href="#SVGID_8_"  style="overflow:visible;"/>
		</clipPath>
		
			<rect x="139.34" y="36.49" transform="matrix(0.9477 -0.3191 0.3191 0.9477 -8.0858 47.5898)" class="st3" width="3.71" height="23.96"/>
	</g>
	<g>
		<defs>
			<rect id="SVGID_10_" width="360" height="360"/>
		</defs>
		<clipPath id="SVGID_11_">
			<use xlink:href="#SVGID_10_"  style="overflow:visible;"/>
		</clipPath>
		<polygon class="st4" points="126.74,40.47 102.74,53.19 104.47,56.46 114.86,50.96 124.32,68.98 127.6,67.26 118.14,49.23 
			128.48,43.75 		"/>
	</g>
	<g>
		<defs>
			<rect id="SVGID_12_" width="360" height="360"/>
		</defs>
		<clipPath id="SVGID_13_">
			<use xlink:href="#SVGID_12_"  style="overflow:visible;"/>
		</clipPath>
		<polygon class="st5" points="89.97,61.86 103.56,76.18 75.16,74.57 72.5,77.6 89.04,95.67 91.78,93.16 78.32,78.46 106.61,79.68 
			109.4,77.06 92.67,59.31 		"/>
	</g>
	<g>
		<defs>
			
				<rect id="SVGID_14_" x="-149.46" y="-213.5" transform="matrix(0.5854 -0.8107 0.8107 0.5854 39.8283 10.8658)" width="359.99" height="359.99"/>
		</defs>
		<clipPath id="SVGID_15_">
			<use xlink:href="#SVGID_14_"  style="overflow:visible;"/>
		</clipPath>
		
			<rect x="68.9" y="85.4" transform="matrix(0.5854 -0.8107 0.8107 0.5854 -49.6368 97.7452)" class="st6" width="3.71" height="24.02"/>
	</g>
	<g>
		<defs>
			<rect id="SVGID_16_" width="360" height="360"/>
		</defs>
		<clipPath id="SVGID_17_">
			<use xlink:href="#SVGID_16_"  style="overflow:visible;"/>
		</clipPath>
		<polygon class="st7" points="57.19,101.3 53.93,99.53 41.22,123.01 44.48,124.77 49.96,114.67 68.04,124.46 69.8,121.2 
			51.72,111.41 		"/>
	</g>
</g>
<g>
	<g>
		<defs>
			
				<rect id="SVGID_18_" x="28.81" y="37.46" transform="matrix(0.0541 -0.9985 0.9985 0.0541 -17.3379 356.5993)" width="301.49" height="299.99"/>
		</defs>
		<clipPath id="SVGID_19_">
			<use xlink:href="#SVGID_18_"  style="overflow:visible;"/>
		</clipPath>
		
			<rect x="40.19" y="163.65" transform="matrix(0.0541 -0.9985 0.9985 0.0541 -135.5867 208.0886)" class="st8" width="3.71" height="23.92"/>
	</g>
	<g>
		<defs>
			<rect id="SVGID_20_" x="30" y="29.25" width="300" height="301.5"/>
		</defs>
		<clipPath id="SVGID_21_">
			<use xlink:href="#SVGID_20_"  style="overflow:visible;"/>
		</clipPath>
		<path class="st9" d="M52.86,195.17c-1.54-2.99-4.83-6.56-11.69-6.56c-3.76,0-6.65,1.19-8.6,3.54c-3.44,4.15-2.49,10.39-2.36,11.13
			l1.93,15.27l24.23-3.12l-1.88-13.98C54.48,200.77,54.31,197.98,52.86,195.17 M35.36,214.39l-1.47-11.63l-0.02-0.1
			c-0.01-0.05-0.91-5.18,1.56-8.15c1.23-1.48,3.1-2.19,5.73-2.19c9.28,0,9.61,8.32,9.62,9.26l1.42,10.64L35.36,214.39z"/>
	</g>
</g>
<g>
	<g>
		<defs>
			<rect id="SVGID_22_" width="360" height="360"/>
		</defs>
		<clipPath id="SVGID_23_">
			<use xlink:href="#SVGID_22_"  style="overflow:visible;"/>
		</clipPath>
		<path class="st10" d="M55.64,137.04l-0.27-0.14c-0.33-0.14-1.45-0.49-4.71-0.84c-3.8-0.4-5.64,2.97-5.93,5.22
			c-0.02,0.09-1.75,8.93-2.32,11.13c-0.53,2.07-0.92,3.04-3.77,2.48c-1.97-0.39-2.65-1.2-2.77-1.63c0.44-1.63,2.52-9.21,3.61-13.42
			c0.23-0.9,0.58-1.5,0.99-1.69c0.44-0.21,1.09,0.01,1.28,0.1l0.85-1.7l0.88-1.69c-0.24-0.12-2.37-1.16-4.55-0.19
			c-1.05,0.47-2.45,1.58-3.13,4.21c-1.21,4.68-3.66,13.59-3.68,13.68l-0.07,0.41c-0.01,0.18-0.14,4.46,5.86,5.65
			c6.5,1.28,7.72-3.47,8.19-5.26c0.6-2.31,2.3-10.99,2.39-11.48c0.01-0.09,0.32-2.2,1.78-2.04c2.21,0.23,3.21,0.46,3.53,0.54
			c0.46,0.34,1.76,1.47,1.44,2.98c-0.64,3.06-3.94,14.51-3.97,14.61c-0.12,0.39-0.6,1.65-1.89,1.31l-0.98,3.68
			c0.51,0.14,1,0.2,1.46,0.2c2.78,0,4.52-2.3,5.06-4.12c0.14-0.48,3.37-11.7,4.04-14.89C59.7,140.62,57.22,138.02,55.64,137.04"/>
	</g>
	<g>
		<defs>
			<rect id="SVGID_24_" width="360" height="360"/>
		</defs>
		<clipPath id="SVGID_25_">
			<use xlink:href="#SVGID_24_"  style="overflow:visible;"/>
		</clipPath>
		<path class="st11" d="M213.88,32.66l-20.69-1.76c-2.42-0.2-4.45,1.45-4.64,3.67l-1.48,17.4c-0.18,2.22,1.59,4.19,3.95,4.39
			l20.69,1.76c0.13,0.01,0.26,0.02,0.39,0.02c2.24,0,4.07-1.58,4.24-3.68l1.48-17.39C218.01,34.83,216.24,32.86,213.88,32.66
			 M212.56,54.12c0,0.04-0.16,0.2-0.45,0.2l-20.76-1.76c-0.34-0.03-0.49-0.24-0.49-0.28l1.48-17.39c0-0.04,0.15-0.2,0.51-0.2h0.01
			l20.69,1.76c0.34,0.03,0.49,0.24,0.48,0.28L212.56,54.12z"/>
	</g>
</g>
<g>
	<g>
		<defs>
			<path id="SVGID_26_" d="M109.05,223.83c0,40.21,32.6,72.81,72.82,72.81c40.6,0,73.52-32.6,73.52-72.82
				c0-40.22-62.42-103.54-73.52-146.34C170.88,120.29,109.05,183.61,109.05,223.83"/>
		</defs>
		<clipPath id="SVGID_27_">
			<use xlink:href="#SVGID_26_"  style="overflow:visible;"/>
		</clipPath>
		
			<linearGradient id="SVGID_28_" gradientUnits="userSpaceOnUse" x1="0" y1="3.153657e-04" x2="1" y2="3.153657e-04" gradientTransform="matrix(-1.020000e-05 233.2458 -233.2458 -1.020000e-05 182.2941 74.9712)">
			<stop  offset="0" style="stop-color:#FFFFFF"/>
			<stop  offset="0.1976" style="stop-color:#D9DDF0"/>
			<stop  offset="0.6405" style="stop-color:#768CC4"/>
			<stop  offset="1" style="stop-color:#03559F"/>
		</linearGradient>
		<rect x="109.05" y="77.49" class="st12" width="146.34" height="219.16"/>
	</g>
</g>
<g>
	<g>
		<defs>
			<rect id="SVGID_29_" width="360" height="360"/>
		</defs>
		<clipPath id="SVGID_30_">
			<use xlink:href="#SVGID_29_"  style="overflow:visible;"/>
		</clipPath>
		<path class="st13" d="M255.39,261.12v-0.04h-0.41c0,0-0.01,0-0.01,0c0,0-0.01,0-0.01,0h-0.19c-2.91,0-5.75-0.68-8.37-1.98
			c-1.63-0.86-2.68-1.83-3.13-2.86c-0.43-0.99-1.15-3.85-1.15-11.9v-82.86c0-7.45,0.56-10.45,1.02-11.65
			c0.56-1.44,1.61-2.49,3.29-3.26c2.61-1.28,5.42-1.93,8.34-1.93h0.62v-0.04c2.11-0.21,3.77-3.24,3.77-5.43
			c0-2.19-1.65-2.74-3.77-2.95v-0.04h-52.94v0.01c-0.04,0-0.08-0.01-0.12-0.01c-2.31,0-4.19,0.65-4.19,2.99
			c0,2.34,1.88,5.47,4.19,5.47c0.04,0,0.08-0.01,0.12-0.01v0.01h2.13c2.9,0,5.7,0.67,8.3,2c1.68,0.86,2.76,1.82,3.21,2.85
			c0.43,0.99,1.15,3.87,1.15,11.99v31.77h-60.35v-31.77c0-7.82,0.67-10.64,1.06-11.62c0.59-1.46,1.65-2.54,3.25-3.29
			c2.62-1.28,5.42-1.93,8.34-1.93h1.13c2.31,0,4.19-3.14,4.19-5.47c0-2.34-1.88-2.99-4.19-2.99h-54.98c-0.39,0-0.68,0.09-0.92,0.23
			c-1.68,0.55-2.9,0.89-2.9,2.77c0,2.34,1.88,5.47,4.19,5.47c0.21,0,0.42-0.03,0.62-0.06c0.02,0.03,0.04,0.06,0.04,0.06h2.62
			c2.91,0,5.75,0.68,8.37,1.98c1.62,0.86,2.68,1.83,3.13,2.86c0.43,0.99,1.15,3.87,1.15,11.99v82.86c0,9.63-1.35,12.31-1.9,12.98
			c-2.12,2.5-5.74,3.76-10.75,3.76h-3.26c0,0-0.01,0-0.01,0c-2.31,0-4.19,3.14-4.19,5.48c0,2.34,1.88,2.99,4.19,2.99h54.6
			c2.31,0,4.19-0.65,4.19-2.99c0-2.34-1.88-5.48-4.19-5.48c0,0-0.01,0-0.01,0h-1.12c-2.9,0-5.7-0.67-8.29-2
			c-1.68-0.86-2.76-1.82-3.21-2.85c-0.43-0.99-1.14-3.85-1.14-11.9v-39.11h60.35v39.11c0,9.6-1.4,12.27-2,12.98
			c-2.12,2.5-5.7,3.76-10.65,3.76h-2.24c0,0-0.01,0-0.01,0c-2.31,0-4.19,3.14-4.19,5.48c0,2.34,1.88,2.99,4.19,2.99h53.06v-0.04
			c2.11-0.22,3.77-0.76,3.77-2.95C259.16,264.36,257.5,261.34,255.39,261.12"/>
	</g>
	<g>
		<defs>
			<rect id="SVGID_31_" width="360" height="360"/>
		</defs>
		<clipPath id="SVGID_32_">
			<use xlink:href="#SVGID_31_"  style="overflow:visible;"/>
		</clipPath>
		<path class="st14" d="M255.39,257.26v-0.04h-0.41c0,0-0.01,0-0.01,0c0,0-0.01,0-0.01,0h-0.19c-2.91,0-5.75-0.67-8.37-1.96
			c-1.63-0.85-2.68-1.81-3.13-2.83c-0.43-0.98-1.15-3.81-1.15-11.77v-81.97c0-7.37,0.56-10.34,1.02-11.53
			c0.56-1.42,1.61-2.47,3.29-3.22c2.61-1.26,5.42-1.9,8.34-1.9h0.62v-0.04c2.11-0.21,3.77-3.2,3.77-5.37c0-2.17-1.65-2.71-3.77-2.92
			v-0.04h-52.94v0.01c-0.04,0-0.08-0.01-0.12-0.01c-2.31,0-4.19,0.65-4.19,2.96c0,2.31,1.88,5.41,4.19,5.41
			c0.04,0,0.08-0.01,0.12-0.01v0.01h2.13c2.9,0,5.7,0.67,8.3,1.98c1.68,0.85,2.76,1.8,3.21,2.82c0.43,0.98,1.15,3.83,1.15,11.87
			v31.43h-60.35v-31.43c0-7.74,0.67-10.52,1.06-11.49c0.59-1.45,1.65-2.51,3.25-3.26c2.62-1.26,5.42-1.9,8.34-1.9h1.13
			c2.31,0,4.19-3.1,4.19-5.41c0-2.31-1.88-2.96-4.19-2.96h-54.98c-0.39,0-0.68,0.09-0.92,0.22c-1.68,0.55-2.9,0.88-2.9,2.74
			c0,2.31,1.88,5.41,4.19,5.41c0.21,0,0.42-0.03,0.62-0.06c0.02,0.03,0.04,0.06,0.04,0.06h2.62c2.91,0,5.75,0.67,8.37,1.96
			c1.62,0.85,2.68,1.81,3.13,2.83c0.43,0.98,1.15,3.83,1.15,11.87v81.97c0,9.52-1.35,12.17-1.9,12.84
			c-2.12,2.47-5.74,3.72-10.75,3.72h-3.26c0,0-0.01,0-0.01,0c-2.31,0-4.19,3.1-4.19,5.42c0,2.31,1.88,2.96,4.19,2.96h54.6
			c2.31,0,4.19-0.65,4.19-2.96c0-2.31-1.88-5.42-4.19-5.42c0,0-0.01,0-0.01,0h-1.12c-2.9,0-5.7-0.67-8.29-1.98
			c-1.68-0.85-2.76-1.8-3.21-2.82c-0.43-0.98-1.14-3.81-1.14-11.77v-38.69h60.35v38.69c0,9.5-1.4,12.14-2,12.84
			c-2.12,2.47-5.7,3.72-10.65,3.72h-2.24c0,0-0.01,0-0.01,0c-2.31,0-4.19,3.1-4.19,5.42c0,2.31,1.88,2.96,4.19,2.96h53.06v-0.04
			c2.11-0.21,3.77-0.75,3.77-2.92S257.5,257.47,255.39,257.26"/>
	</g>
	<g>
		<defs>
			<rect id="SVGID_33_" width="360" height="360"/>
		</defs>
		<clipPath id="SVGID_34_">
			<use xlink:href="#SVGID_33_"  style="overflow:visible;"/>
		</clipPath>
		<path class="st15" d="M126.28,141.14c0,0,8.58,3.34,8.58,14.78v89.86c0,0-0.36,7.68-7.42,13.75c0,0,10.76-3.02,10.76-14.7V155.2
			C138.2,155.2,139.63,143.04,126.28,141.14"/>
	</g>
	<g>
		<defs>
			<rect id="SVGID_35_" width="360" height="360"/>
		</defs>
		<clipPath id="SVGID_36_">
			<use xlink:href="#SVGID_35_"  style="overflow:visible;"/>
		</clipPath>
		<path class="st16" d="M214.72,141.14c0,0,8.58,3.34,8.58,14.78v89.86c0,0-0.36,7.68-7.42,13.75c0,0,10.76-3.02,10.76-14.7V155.2
			C226.64,155.2,228.07,143.04,214.72,141.14"/>
	</g>
</g>
</svg>
