<?xml version="1.0" encoding="utf-8"?>
<!-- Generator: Adobe Illustrator 17.0.0, SVG Export Plug-In . SVG Version: 6.00 Build 0)  -->
<!DOCTYPE svg PUBLIC "-//W3C//DTD SVG 1.1//EN" "http://www.w3.org/Graphics/SVG/1.1/DTD/svg11.dtd">
<svg version="1.1" id="Capa_1" xmlns="http://www.w3.org/2000/svg" xmlns:xlink="http://www.w3.org/1999/xlink" x="0px" y="0px"
	 width="180px" height="120px" viewBox="0 0 180 120" enable-background="new 0 0 180 120" xml:space="preserve">
<g>
	<g>
		<path fill="#020203" d="M42.728,73.878c0,0,0,0,10.032,1.446c-5.796,3.672-18.264,8.85-28.145,5.376
			c-10.794-3.792-10.974-16.464-1.098-31.091c9.894-14.652,31.781-21.522,42.503-21.138c10.722,0.378,23.586,2.586,24.102,19.932
			c0,0,3.72-23.994-27.864-23.874C29.361,24.649-3.261,57.468,4.563,77.466c6.474,16.548,42.935,12.804,60.317-9.84L42.728,73.878z"
			/>
		<path fill="#A09259" d="M47.528,46.122c0,0,0,0-10.032-1.446c5.796-3.672,18.264-8.85,28.145-5.376
			c10.794,3.792,10.974,16.464,1.098,31.091c-9.894,14.652-31.781,21.522-42.503,21.138C13.515,91.151,0.651,88.943,0.135,71.598
			c0,0-3.72,23.994,27.864,23.874c32.897-0.12,65.519-32.939,57.695-52.937c-6.474-16.548-42.935-12.804-60.317,9.84L47.528,46.122z
			"/>
		<g>
			<path fill="#020203" stroke="#020203" stroke-width="2" d="M31.209,54.144h6.342l-0.312,2.07h-3.918L32.937,58.8h3.72
				l-0.33,2.094h-3.702l-0.432,2.88h3.798l-0.312,2.076h-6.246L31.209,54.144z"/>
			<path fill="#020203" stroke="#020203" stroke-width="2" d="M47.39,55.386l-1.302,1.704c-0.444-0.318-0.816-0.552-1.11-0.714
				c-0.294-0.162-0.588-0.24-0.876-0.24c-0.444,0-0.81,0.132-1.092,0.39c-0.282,0.258-0.426,0.588-0.426,0.984
				c0,0.348,0.156,0.654,0.462,0.918c0.306,0.264,0.828,0.552,1.572,0.876c0.594,0.372,1.002,0.66,1.224,0.858
				c0.222,0.198,0.426,0.498,0.618,0.894c0.192,0.396,0.288,0.828,0.288,1.296c0,1.014-0.378,1.872-1.14,2.586
				c-0.756,0.708-1.674,1.068-2.754,1.068c-1.29,0-2.532-0.504-3.726-1.518l1.374-1.692c0.312,0.216,0.666,0.45,1.062,0.708
				c0.396,0.258,0.792,0.39,1.188,0.39c0.426,0,0.792-0.144,1.098-0.426c0.306-0.282,0.456-0.624,0.456-1.02
				c0-0.36-0.15-0.678-0.45-0.954c-0.3-0.276-0.75-0.534-1.35-0.786c-0.6-0.252-1.026-0.468-1.278-0.66
				c-0.252-0.192-0.504-0.492-0.756-0.906c-0.252-0.414-0.378-0.924-0.378-1.536c0-1.038,0.378-1.902,1.14-2.586
				c0.756-0.684,1.716-1.026,2.874-1.026C45.266,53.982,46.364,54.45,47.39,55.386z"/>
			<path fill="#020203" stroke="#020203" stroke-width="2" d="M51.74,54.144h2.22c1.482,0,2.61,0.3,3.384,0.906
				s1.164,1.476,1.164,2.616c0,0.9-0.21,1.692-0.63,2.376c-0.42,0.684-1.128,1.146-2.118,1.368l2.28,4.446h-2.448L53.42,61.62
				h-0.366l-0.624,4.236h-2.424L51.74,54.144z M53.852,56.214l-0.486,3.312l0.492,0.018c0.612,0,1.134-0.168,1.56-0.51
				s0.636-0.756,0.636-1.242c0-0.552-0.18-0.954-0.534-1.2C55.154,56.346,54.602,56.22,53.852,56.214z"/>
		</g>
	</g>
	<g>
		<g>
			<path fill="#020203" stroke="#020203" stroke-width="2" stroke-linecap="square" stroke-linejoin="round" d="M94.424,41.418
				h5.286l-0.258,1.722h-3.264l-0.324,2.154h3.096l-0.276,1.746H95.6l-0.36,2.4h3.162l-0.258,1.734h-5.196L94.424,41.418z"/>
			<path fill="#020203" d="M102.109,41.418h1.854l1.008,5.484l2.748-5.484h1.872v9.762h-1.806v-5.832l-2.97,5.832h-0.942
				l-1.098-6.078l-2.058,6.078h-1.914L102.109,41.418z"/>
			<path fill="#020203" d="M111.961,41.418h2.028c2.442,0,3.666,1.032,3.666,3.09c0,0.54-0.12,1.044-0.366,1.512
				c-0.24,0.468-0.552,0.816-0.924,1.062c-0.372,0.24-0.756,0.39-1.152,0.45c-0.396,0.06-1.104,0.096-2.124,0.102l-0.522,3.546
				h-2.022L111.961,41.418z M113.755,43.14l-0.42,2.742h0.546c0.48,0,0.882-0.144,1.206-0.432c0.324-0.288,0.486-0.636,0.486-1.05
				c0-0.354-0.132-0.654-0.402-0.9c-0.27-0.24-0.6-0.366-0.99-0.366h-0.426V43.14z"/>
			<path fill="#020203" d="M119.641,41.418h1.848c1.236,0,2.172,0.252,2.82,0.756s0.972,1.23,0.972,2.184
				c0,0.75-0.174,1.41-0.528,1.98c-0.354,0.57-0.942,0.954-1.764,1.14l1.902,3.702h-2.04l-1.812-3.528h-0.306l-0.522,3.528h-2.022
				L119.641,41.418z M121.399,43.14l-0.408,2.76l0.408,0.012c0.51,0,0.942-0.144,1.296-0.426c0.354-0.282,0.534-0.63,0.534-1.038
				c0-0.462-0.15-0.798-0.444-0.996C122.485,43.254,122.023,43.146,121.399,43.14z"/>
			<path fill="#020203" d="M127.561,41.418h5.286l-0.258,1.722h-3.264l-0.324,2.16h3.096l-0.276,1.746h-3.084l-0.36,2.4h3.162
				l-0.258,1.734h-5.196L127.561,41.418z"/>
			<path fill="#020203" d="M139.069,42.45l-1.086,1.422c-0.372-0.264-0.678-0.462-0.924-0.594c-0.246-0.132-0.492-0.198-0.732-0.198
				c-0.372,0-0.678,0.108-0.912,0.324c-0.234,0.216-0.354,0.486-0.354,0.822c0,0.294,0.126,0.546,0.384,0.768
				c0.258,0.216,0.69,0.462,1.314,0.732c0.498,0.312,0.834,0.552,1.02,0.72c0.186,0.168,0.354,0.414,0.516,0.744
				c0.162,0.33,0.24,0.69,0.24,1.08c0,0.84-0.318,1.56-0.948,2.154c-0.63,0.594-1.398,0.888-2.292,0.888
				c-1.074,0-2.112-0.42-3.108-1.266l1.146-1.41c0.258,0.18,0.552,0.378,0.882,0.588c0.33,0.216,0.66,0.324,0.99,0.324
				c0.354,0,0.66-0.12,0.912-0.354c0.252-0.234,0.378-0.522,0.378-0.852c0-0.3-0.126-0.57-0.378-0.798
				c-0.252-0.228-0.624-0.444-1.128-0.654c-0.498-0.21-0.858-0.39-1.068-0.552c-0.21-0.156-0.42-0.408-0.63-0.756
				c-0.21-0.342-0.318-0.774-0.318-1.284c0-0.87,0.318-1.584,0.948-2.154s1.434-0.852,2.4-0.852
				C137.299,41.286,138.211,41.676,139.069,42.45z"/>
			<path fill="#020203" d="M143.929,41.418h1.398l2.484,9.762h-1.89l-0.492-1.962h-3.618l-1.056,1.962h-2.076L143.929,41.418z
				 M144.277,44.628l-1.548,2.874h2.268L144.277,44.628z"/>
		</g>
		<g>
			<path fill="#020203" stroke="#020203" stroke-width="2" stroke-linecap="square" stroke-linejoin="round" d="M94.394,68.82h1.854
				c1.236,0,2.172,0.252,2.82,0.756c0.648,0.504,0.972,1.23,0.972,2.184c0,0.75-0.174,1.41-0.528,1.98
				c-0.354,0.57-0.942,0.954-1.764,1.14l1.902,3.702h-2.04l-1.812-3.528h-0.306l-0.522,3.528h-2.022L94.394,68.82z M96.151,70.548
				l-0.408,2.76l0.408,0.012c0.51,0,0.942-0.144,1.296-0.426c0.354-0.282,0.534-0.63,0.534-1.038c0-0.462-0.15-0.798-0.444-0.996
				C97.237,70.656,96.781,70.554,96.151,70.548z"/>
			<path fill="#020203" d="M102.319,68.82h5.286l-0.258,1.722h-3.264l-0.324,2.154h3.096l-0.276,1.746h-3.084l-0.36,2.4h3.162
				l-0.258,1.734h-5.196L102.319,68.82z"/>
			<path fill="#020203" d="M113.827,69.852l-1.086,1.422c-0.372-0.264-0.678-0.462-0.924-0.594
				c-0.246-0.132-0.492-0.198-0.732-0.198c-0.372,0-0.678,0.108-0.912,0.324c-0.234,0.216-0.354,0.486-0.354,0.822
				c0,0.294,0.126,0.546,0.384,0.768c0.252,0.216,0.69,0.462,1.314,0.732c0.498,0.312,0.834,0.552,1.02,0.72
				c0.186,0.168,0.354,0.414,0.516,0.744c0.162,0.33,0.24,0.69,0.24,1.08c0,0.84-0.318,1.56-0.948,2.154
				c-0.63,0.594-1.398,0.888-2.292,0.888c-1.074,0-2.112-0.42-3.108-1.266l1.146-1.41c0.258,0.18,0.552,0.378,0.882,0.594
				c0.33,0.216,0.66,0.324,0.99,0.324c0.354,0,0.66-0.12,0.912-0.354c0.252-0.234,0.378-0.516,0.378-0.852
				c0-0.3-0.126-0.57-0.378-0.798c-0.252-0.228-0.624-0.444-1.128-0.654c-0.498-0.21-0.858-0.39-1.068-0.552
				c-0.21-0.156-0.42-0.408-0.63-0.756c-0.21-0.342-0.318-0.774-0.318-1.284c0-0.87,0.318-1.584,0.948-2.154
				c0.63-0.57,1.428-0.852,2.4-0.852C112.057,68.688,112.969,69.078,113.827,69.852z"/>
			<path fill="#020203" d="M115.081,68.82h2.028c2.442,0,3.666,1.032,3.666,3.09c0,0.54-0.12,1.044-0.366,1.506
				c-0.246,0.468-0.552,0.816-0.924,1.062c-0.372,0.24-0.756,0.39-1.152,0.45c-0.396,0.06-1.104,0.096-2.124,0.102l-0.522,3.546
				h-2.022L115.081,68.82z M116.875,70.548l-0.42,2.742h0.546c0.48,0,0.882-0.144,1.212-0.432c0.324-0.288,0.486-0.636,0.486-1.05
				c0-0.354-0.132-0.654-0.402-0.894c-0.27-0.24-0.6-0.36-0.99-0.36h-0.432V70.548z"/>
			<path fill="#020203" d="M127.003,68.67c1.488,0,2.634,0.426,3.438,1.272c0.804,0.846,1.206,2.028,1.206,3.54
				c0,1.56-0.504,2.826-1.506,3.792c-1.008,0.966-2.316,1.446-3.93,1.44c-1.434-0.006-2.562-0.438-3.384-1.296
				c-0.828-0.858-1.236-2.028-1.236-3.51c0-1.5,0.504-2.748,1.518-3.744C124.117,69.168,125.413,68.67,127.003,68.67z
				 M129.637,73.512c0-0.924-0.258-1.668-0.774-2.238c-0.516-0.57-1.2-0.852-2.04-0.852c-0.87,0-1.62,0.342-2.256,1.02
				c-0.636,0.684-0.954,1.494-0.954,2.436c0,0.9,0.264,1.644,0.786,2.22c0.522,0.582,1.188,0.87,2.004,0.87
				c0.888,0,1.65-0.342,2.286-1.02C129.319,75.27,129.637,74.46,129.637,73.512z"/>
			<path fill="#020203" d="M133.843,68.82h2.064l3.126,6.534l0.96-6.534h1.998l-1.434,9.762h-1.878l-3.27-6.774l-0.99,6.774h-2.016
				L133.843,68.82z"/>
			<path fill="#020203" d="M148.549,69.852l-1.086,1.422c-0.372-0.264-0.678-0.462-0.924-0.594
				c-0.246-0.132-0.492-0.198-0.732-0.198c-0.372,0-0.678,0.108-0.912,0.324c-0.234,0.216-0.354,0.486-0.354,0.822
				c0,0.294,0.126,0.546,0.384,0.768c0.252,0.216,0.69,0.462,1.314,0.732c0.498,0.312,0.834,0.552,1.02,0.72
				c0.186,0.168,0.354,0.414,0.516,0.744s0.24,0.69,0.24,1.08c0,0.84-0.318,1.56-0.948,2.154c-0.63,0.594-1.398,0.888-2.292,0.888
				c-1.074,0-2.112-0.42-3.108-1.266l1.146-1.41c0.258,0.18,0.552,0.378,0.882,0.594c0.33,0.216,0.66,0.324,0.99,0.324
				c0.354,0,0.66-0.12,0.912-0.354c0.252-0.234,0.378-0.516,0.378-0.852c0-0.3-0.126-0.57-0.378-0.798
				c-0.252-0.228-0.624-0.444-1.128-0.654c-0.498-0.21-0.858-0.39-1.068-0.552c-0.21-0.156-0.42-0.408-0.63-0.756
				c-0.21-0.342-0.318-0.774-0.318-1.284c0-0.87,0.318-1.584,0.948-2.154c0.63-0.57,1.428-0.852,2.4-0.852
				C146.779,68.688,147.691,69.078,148.549,69.852z"/>
			<path fill="#020203" d="M153.402,68.82h1.398l2.484,9.762H155.4l-0.492-1.962h-3.618l-1.056,1.962h-2.076L153.402,68.82z
				 M153.756,72.036l-1.548,2.874h2.268L153.756,72.036z"/>
			<path fill="#020203" d="M159.696,68.82h2.31c2.232,0,3.354,0.834,3.354,2.496c0,0.918-0.462,1.674-1.38,2.268
				c1.002,0.468,1.5,1.212,1.5,2.226c0,0.87-0.366,1.554-1.098,2.04c-0.732,0.486-1.758,0.732-3.09,0.732h-3.078L159.696,68.82z
				 M160.89,74.31l-0.396,2.664h1.002c0.6,0,1.086-0.12,1.452-0.36c0.372-0.24,0.552-0.552,0.552-0.936s-0.174-0.708-0.516-0.972
				c-0.342-0.264-0.768-0.396-1.266-0.396H160.89z M161.466,70.434l-0.348,2.334h0.756c0.48,0,0.876-0.108,1.188-0.324
				c0.312-0.216,0.468-0.492,0.468-0.816c0-0.36-0.132-0.648-0.402-0.864c-0.27-0.216-0.63-0.324-1.092-0.324h-0.57V70.434z"/>
			<path fill="#020203" d="M167.766,68.82h2.004l-1.164,8.028h3.228l-0.246,1.734h-5.256L167.766,68.82z"/>
			<path fill="#020203" d="M174.276,68.82h5.286l-0.258,1.722h-3.264l-0.324,2.154h3.096l-0.276,1.746h-3.084l-0.36,2.4h3.162
				l-0.258,1.734H172.8L174.276,68.82z"/>
		</g>
		<g>
			<path fill="#020203" stroke="#020203" stroke-width="2" stroke-linecap="square" stroke-linejoin="round" d="M99.829,55.902
				l-1.086,1.422c-0.372-0.264-0.678-0.462-0.924-0.594c-0.246-0.132-0.492-0.198-0.732-0.198c-0.372,0-0.678,0.108-0.912,0.324
				c-0.234,0.216-0.354,0.486-0.354,0.822c0,0.294,0.126,0.546,0.384,0.768c0.258,0.216,0.69,0.462,1.314,0.732
				c0.498,0.312,0.834,0.552,1.02,0.72c0.186,0.168,0.354,0.414,0.516,0.744c0.162,0.33,0.24,0.69,0.24,1.08
				c0,0.84-0.318,1.56-0.948,2.154c-0.63,0.594-1.398,0.888-2.292,0.888c-1.074,0-2.112-0.42-3.108-1.266l1.146-1.41
				c0.258,0.18,0.552,0.378,0.882,0.594c0.33,0.216,0.66,0.324,0.99,0.324c0.354,0,0.66-0.12,0.912-0.354
				c0.252-0.234,0.378-0.522,0.378-0.852c0-0.3-0.126-0.57-0.378-0.798c-0.252-0.228-0.624-0.444-1.128-0.654
				c-0.504-0.21-0.858-0.39-1.068-0.552c-0.21-0.156-0.42-0.408-0.63-0.756c-0.21-0.342-0.318-0.774-0.318-1.284
				c0-0.87,0.318-1.584,0.948-2.154s1.434-0.852,2.4-0.852C98.059,54.732,98.971,55.122,99.829,55.902z"/>
			<path fill="#020203" d="M105.715,54.72c1.488,0,2.634,0.426,3.438,1.272c0.804,0.846,1.206,2.028,1.206,3.54
				c0,1.56-0.504,2.826-1.506,3.792c-1.008,0.966-2.316,1.446-3.93,1.44c-1.434-0.006-2.562-0.438-3.384-1.296
				c-0.828-0.858-1.236-2.028-1.236-3.51c0-1.5,0.504-2.748,1.518-3.744C102.823,55.212,104.125,54.72,105.715,54.72z
				 M108.349,59.556c0-0.924-0.258-1.668-0.774-2.238s-1.2-0.852-2.04-0.852c-0.87,0-1.62,0.342-2.256,1.02
				c-0.636,0.684-0.954,1.494-0.954,2.436c0,0.9,0.264,1.644,0.786,2.22c0.522,0.582,1.188,0.87,2.004,0.87
				c0.888,0,1.65-0.342,2.286-1.02C108.031,61.314,108.349,60.504,108.349,59.556z"/>
			<path fill="#020203" d="M119.743,55.536l-0.258,1.782c-0.648-0.54-1.404-0.81-2.268-0.81c-0.972,0-1.824,0.354-2.55,1.068
				c-0.726,0.714-1.092,1.542-1.092,2.484c0,0.84,0.264,1.53,0.786,2.058c0.522,0.528,1.2,0.792,2.034,0.792
				c0.762,0,1.584-0.24,2.466-0.72l-0.288,1.986c-0.804,0.414-1.62,0.624-2.454,0.624c-1.446,0-2.58-0.456-3.396-1.368
				c-0.816-0.912-1.224-1.992-1.224-3.246c0-1.668,0.546-2.994,1.644-3.978c1.098-0.99,2.298-1.482,3.606-1.482
				C117.937,54.72,118.933,54.99,119.743,55.536z"/>
			<path fill="#020203" d="M121.111,54.864h2.004l-1.44,9.762h-2.016L121.111,54.864z"/>
			<path fill="#020203" d="M127.999,54.864h1.398l2.484,9.762h-1.89l-0.492-1.962h-3.618l-1.056,1.962h-2.076L127.999,54.864z
				 M128.347,58.08l-1.548,2.874h2.268L128.347,58.08z"/>
			<path fill="#020203" d="M134.275,54.864h2.004l-1.164,8.028h3.228l-0.246,1.734h-5.256L134.275,54.864z"/>
			<path fill="#020203" d="M141.979,54.864h1.854l1.008,5.484l2.748-5.484h1.872v9.762h-1.806v-5.832l-2.97,5.832h-0.942
				l-1.098-6.078l-2.058,6.078h-1.914L141.979,54.864z"/>
			<path fill="#020203" d="M152.059,54.864h5.286l-0.258,1.722h-3.264l-0.324,2.154h3.096l-0.276,1.746h-3.084l-0.36,2.4h3.162
				l-0.258,1.734h-5.196L152.059,54.864z"/>
			<path fill="#020203" d="M158.526,54.864h2.064l3.126,6.534l0.96-6.534h1.998l-1.434,9.762h-1.878l-3.27-6.774l-0.99,6.774h-2.016
				L158.526,54.864z"/>
			<path fill="#020203" d="M167.67,54.864h5.982l-0.258,1.722h-1.992l-1.176,8.034h-1.992l1.158-8.034h-1.962L167.67,54.864z"/>
			<path fill="#020203" d="M174.714,54.864H180l-0.258,1.722h-3.264l-0.324,2.154h3.096l-0.276,1.746h-3.084l-0.36,2.4h3.162
				l-0.258,1.734h-5.196L174.714,54.864z"/>
		</g>
	</g>
</g>
</svg>
