<?xml version="1.0" encoding="utf-8"?>
<!-- Generator: Adobe Illustrator 23.0.0, SVG Export Plug-In . SVG Version: 6.00 Build 0)  -->
<svg version="1.1" id="Capa_1" xmlns="http://www.w3.org/2000/svg" xmlns:xlink="http://www.w3.org/1999/xlink" x="0px" y="0px"
	 viewBox="0 0 360 360" style="enable-background:new 0 0 360 360;" xml:space="preserve">
<style type="text/css">
	.st0{fill-rule:evenodd;clip-rule:evenodd;fill:#BD122A;}
	.st1{fill-rule:evenodd;clip-rule:evenodd;fill:#FFFFFF;}
</style>
<g>
	<rect x="30" y="29.18" class="st0" width="300" height="301.64"/>
	<path class="st1" d="M243.41,48.13H242l-26.34,55.68h6.21l8.63-18.29h24.18l8.66,18.29h5.99L243.41,48.13z M233.09,80.1l9.62-20.36
		l9.53,20.36H233.09z"/>
	<path class="st1" d="M323.19,260.53c-0.86-1.51-2.04-2.69-3.53-3.54c-1.49-0.85-3.11-1.27-4.84-1.27c-1.74,0-3.34,0.43-4.84,1.27
		c-1.49,0.85-2.67,2.03-3.53,3.54c-0.86,1.45-1.29,3.06-1.29,4.81c0,1.75,0.43,3.34,1.29,4.81c0.86,1.51,2.04,2.68,3.53,3.54
		c1.5,0.85,3.1,1.27,4.83,1.27c1.73,0,3.34-0.42,4.84-1.27c1.49-0.86,2.66-2.03,3.53-3.54c0.86-1.47,1.29-3.06,1.29-4.81
		C324.49,263.64,324.05,261.98,323.19,260.53z M321.45,269.11c-0.68,1.18-1.61,2.11-2.8,2.78c-1.2,0.66-2.47,1.04-3.82,1.04
		c-1.38,0-2.64-0.38-3.83-1.04c-1.19-0.71-2.12-1.6-2.8-2.78c-0.67-1.18-1.02-2.41-1.02-3.77c0-2.12,0.75-3.91,2.25-5.37
		c1.5-1.51,3.31-2.26,5.43-2.26c2.11,0,3.9,0.75,5.38,2.26c1.49,1.46,2.24,3.3,2.24,5.42C322.47,266.69,322.13,267.97,321.45,269.11
		z"/>
	<path class="st1" d="M291.71,193.95c-5.68-5.62-12.73-8.44-21.15-8.44c-5.2,0-10.03,1.27-14.49,3.87
		c-4.47,2.59-7.99,6.17-10.57,10.75c-2.59,4.57-3.87,9.52-3.87,14.9c0,8.01,2.82,14.84,8.5,20.51c5.68,5.66,12.64,8.48,20.9,8.48
		c8.14,0,15.05-2.82,20.7-8.53c5.67-5.66,8.5-12.59,8.5-20.74C300.22,206.49,297.37,199.56,291.71,193.95z M291.38,226.82
		c-2.06,3.67-4.92,6.5-8.59,8.62c-3.68,2.07-7.67,3.11-11.99,3.11c-6.47,0-11.99-2.26-16.57-6.78c-4.58-4.58-6.87-10.19-6.87-16.78
		c0-4.49,1.04-8.49,3.11-12.17c2.06-3.63,4.94-6.5,8.63-8.62c3.68-2.17,7.59-3.21,11.7-3.21c4.19,0,8.16,1.04,11.89,3.21
		c3.74,2.12,6.63,5,8.69,8.53c2.05,3.59,3.08,7.59,3.08,12.03C294.47,219.17,293.43,223.18,291.38,226.82z"/>
	<polygon class="st1" points="270.54,48.13 300.91,48.13 300.91,53.56 288.5,53.56 288.5,103.81 282.96,103.81 282.96,53.56 
		270.54,53.56 	"/>
	<polygon class="st1" points="300.24,140.4 300.24,145.86 274.11,145.86 274.11,167.74 300.24,167.74 300.24,173.21 268.56,173.21 
		268.56,117.53 300.44,117.53 300.44,122.96 274.11,122.96 274.11,140.4 	"/>
	<path class="st1" d="M232.92,116.11c5.18,0,9.86,0.99,14.04,3.07c4.18,2.02,7.6,4.9,10.28,8.58l-4.4,3.39
		c-2.42-3.16-5.33-5.56-8.72-7.16c-3.39-1.6-7.12-2.45-11.17-2.45c-4.45,0-8.56,1.09-12.34,3.2c-3.79,2.18-6.71,5-8.79,8.63
		c-2.08,3.59-3.12,7.64-3.12,12.16c0,6.79,2.32,12.45,6.97,17.02c4.66,4.52,10.53,6.79,17.61,6.79c7.79,0,14.3-3.02,19.55-9.15
		l4.4,3.3c-2.77,3.54-6.24,6.27-10.37,8.21c-4.14,1.93-8.76,2.92-13.87,2.92c-9.71,0-17.38-3.25-22.99-9.76
		c-4.71-5.47-7.06-12.06-7.06-19.85c0-8.16,2.85-14.99,8.55-20.55C217.21,118.9,224.34,116.11,232.92,116.11"/>
	<polygon class="st1" points="177.35,48.13 209.22,48.13 209.22,53.56 182.89,53.56 182.89,71 209.02,71 209.02,76.47 182.89,76.47 
		182.89,98.35 209.02,98.35 209.02,103.81 177.35,103.81 	"/>
	<polygon class="st1" points="138.95,167.74 138.95,173.21 111.91,173.21 111.91,117.53 117.46,117.53 117.46,167.74 	"/>
	<path class="st1" d="M64.67,61.19c2.65-4.53,6.28-8.11,10.91-10.65c4.62-2.55,9.84-3.82,15.68-3.82c4.72,0,9.16,0.8,13.34,2.49
		c4.16,1.7,8.22,4.39,12.19,8.11l-4.31,4.1c-3.11-3.07-6.53-5.33-10.23-6.93c-3.71-1.56-7.31-2.36-10.83-2.36
		c-4.38,0-8.55,1.08-12.51,3.21c-3.95,2.17-7.02,5.04-9.19,8.72c-2.17,3.67-3.26,7.54-3.26,11.65c0,4.19,1.13,8.15,3.38,11.93
		c2.24,3.77,5.36,6.74,9.33,8.91c3.97,2.13,8.33,3.21,13.06,3.21c5.74,0,10.61-1.61,14.57-4.81c3.98-3.25,6.33-7.4,7.06-12.54H96.1
		v-5.42h24.01c-0.05,8.62-2.61,15.5-7.68,20.6c-5.07,5.09-11.84,7.64-20.33,7.64c-10.3,0-18.47-3.54-24.48-10.56
		c-4.62-5.38-6.93-11.65-6.93-18.72C60.69,70.67,62.02,65.77,64.67,61.19"/>
	<polygon class="st1" points="128.48,312.01 127.52,312.01 110.94,269.86 94.22,312.01 93.27,312.01 77.4,256.32 83.04,256.32 
		94.49,296.5 110.41,256.32 111.49,256.32 127.27,296.5 138.82,256.32 144.48,256.32 	"/>
	<polygon class="st1" points="205.49,192.36 205.49,186.93 235.86,186.93 235.86,192.36 223.46,192.36 223.46,242.6 217.91,242.6 
		217.91,192.36 	"/>
	<polygon class="st1" points="295.62,312.01 271.14,286.07 271.14,312.01 265.6,312.01 265.6,256.32 271.14,256.32 271.14,277.26 
		293.58,256.32 300.96,256.32 274.14,281.36 303.07,312.01 	"/>
	<path class="st1" d="M98.3,123.19c-2.02-2.45-4.63-4.05-7.81-4.85c-2.22-0.52-6.51-0.8-12.88-0.8H66.53v55.67h5.54v-25.93h3.98
		c6.92,0,11.65-0.33,14.17-0.9c3.46-0.85,6.17-2.46,8.16-4.86c1.97-2.4,2.94-5.47,2.94-9.19
		C101.32,128.66,100.32,125.59,98.3,123.19z M94.06,137.57c-1.01,1.51-2.41,2.64-4.17,3.35c-1.77,0.66-4.56,1.03-8.37,1.03
		l-9.45-0.14v-18.86h9.86c3.77,0,6.47,0.33,8.13,0.99c1.65,0.66,2.99,1.75,4,3.3c1.01,1.56,1.52,3.26,1.52,5.14
		C95.57,134.27,95.07,136.01,94.06,137.57z"/>
	<path class="st1" d="M234.46,286.17c4.66,0,8.32-0.62,10.97-1.8c2.65-1.17,4.68-2.92,6.11-5.22c1.42-2.26,2.15-4.95,2.15-7.97
		c0-3.68-1.04-6.75-3.11-9.2c-2.06-2.49-4.75-4.14-8.05-4.9c-2.2-0.52-6.38-0.75-12.57-0.75h-11.08v55.68h5.56v-25.84h3.16
		l20.02,25.84h6.88L234.46,286.17z M224.43,280.74v-19h9.81c3.82,0,6.55,0.34,8.19,1.04c1.64,0.62,2.97,1.75,3.98,3.26
		c1.01,1.56,1.51,3.25,1.51,5.09c0,1.93-0.49,3.68-1.5,5.22c-0.99,1.56-2.39,2.69-4.16,3.41c-1.79,0.7-4.53,1.03-8.25,1.03
		L224.43,280.74z"/>
	<path class="st1" d="M173.24,117.53h-1.42l-26.32,55.67h6.21l8.63-18.24h24.18l8.66,18.24h6L173.24,117.53z M162.92,149.49
		l9.62-20.37l9.53,20.37H162.92z"/>
	<path class="st1" d="M319.23,270c-0.05-0.19-0.11-0.94-0.18-2.26c-0.02-0.71-0.1-1.18-0.26-1.42l-0.79-0.75
		c0.48-0.33,0.8-0.71,0.98-1.04c0.17-0.38,0.26-0.85,0.26-1.41c0-0.66-0.15-1.22-0.43-1.69c-0.28-0.43-0.65-0.8-1.11-0.99
		c-0.46-0.24-1.19-0.33-2.17-0.33h-4.67v10.51h2.32v-4h1.86c0.56,0,0.94,0.04,1.13,0.14l0.39,0.47c0.08,0.24,0.13,0.8,0.15,1.75
		c0.01,0.42,0.04,0.74,0.06,0.94l0.23,0.7h2.66L319.23,270z M316.6,264.34c-0.24,0.18-0.74,0.28-1.48,0.28h-1.94v-2.54h1.95
		c0.74,0,1.24,0.13,1.48,0.32c0.24,0.19,0.36,0.47,0.36,0.94C316.97,263.78,316.85,264.11,316.6,264.34z"/>
	<path class="st1" d="M146.1,77.98c4.67-0.05,8.33-0.61,10.98-1.79c2.65-1.18,4.69-2.93,6.11-5.23c1.42-2.31,2.14-4.95,2.14-8.01
		c0-3.63-1.04-6.69-3.1-9.19c-2.07-2.5-4.75-4.1-8.06-4.86c-2.19-0.52-6.38-0.75-12.56-0.75h-11.09v55.68h5.55V77.98h3.16
		l20.04,25.84h6.86L146.1,77.98z M136.07,72.51V53.56h9.81c3.82,0,6.55,0.33,8.19,0.99c1.64,0.66,2.97,1.75,3.98,3.31
		c1.01,1.51,1.52,3.2,1.52,5.09c0,1.93-0.5,3.67-1.5,5.19c-1,1.56-2.39,2.68-4.17,3.4c-1.78,0.7-4.53,1.08-8.24,1.08L136.07,72.51z"
		/>
	<path class="st1" d="M199.37,263.35c-5.68-5.61-12.73-8.44-21.15-8.44c-5.2,0-10.03,1.32-14.5,3.87
		c-4.46,2.6-7.99,6.18-10.58,10.76c-2.58,4.56-3.88,9.51-3.88,14.89c0,8.01,2.84,14.85,8.51,20.52c5.68,5.65,12.63,8.48,20.89,8.48
		c8.15,0,15.05-2.83,20.72-8.54c5.66-5.66,8.5-12.59,8.5-20.74C207.88,275.94,205.04,269.01,199.37,263.35z M199.04,296.26
		c-2.06,3.63-4.92,6.5-8.6,8.58c-3.67,2.06-7.67,3.15-11.98,3.15c-6.46,0-11.99-2.31-16.57-6.84c-4.59-4.57-6.87-10.13-6.87-16.79
		c0-4.43,1.03-8.48,3.11-12.11c2.07-3.63,4.95-6.55,8.63-8.68c3.69-2.17,7.59-3.2,11.7-3.2c4.19,0,8.15,1.03,11.89,3.2
		c3.73,2.12,6.63,5.01,8.69,8.58c2.06,3.54,3.09,7.55,3.09,11.98C202.13,288.57,201.1,292.63,199.04,296.26z"/>
</g>
</svg>
