<?xml version="1.0" encoding="utf-8"?>
<!-- Generator: Adobe Illustrator 17.0.0, SVG Export Plug-In . SVG Version: 6.00 Build 0)  -->
<!DOCTYPE svg PUBLIC "-//W3C//DTD SVG 1.1//EN" "http://www.w3.org/Graphics/SVG/1.1/DTD/svg11.dtd">
<svg version="1.1" id="Capa_1" xmlns="http://www.w3.org/2000/svg" xmlns:xlink="http://www.w3.org/1999/xlink" x="0px" y="0px"
	 width="1500px" height="1500px" viewBox="0 0 1500 1500" enable-background="new 0 0 1500 1500" xml:space="preserve">
<g>
	<g>
		<g>
			<path fill="#52A045" d="M701.655,42.253h47.123c56.993,4.088,115.946,5.53,169.356,28.182
				c21.014,18.242,51.463-0.182,75.109,12.894c57.315,25.914,114.63,54.109,163.196,94.681
				c36.862,22.456,67.885,52.849,99.147,82.291c41.523,49.517,80.583,101.289,115.065,155.888
				c14.028,34.86,34.286,66.429,50.133,100.337c5.908,10.318,5.852,22.148,4.718,33.6c2.576,2.072,7.798,6.16,10.374,8.246
				c-0.686,8.12-1.316,16.296-1.82,24.472c1.568,8.246,2.828,16.674,1.512,25.102c14.028,77.825,18.116,157.652,11.004,236.415
				c-8.68,27.496-10.374,55.803-9.436,84.237c-22.204,71.091-54.865,138.906-95.745,201.065
				c-23.66,34.104-52.779,63.853-76.943,97.579c-43.217,33.348-74.493,81.213-123.744,106.763c1.008,2.142,3.08,6.482,4.088,8.624
				c-52.975,14.224-94.499,55.733-148.16,68.445c-53.101,11.004-101.163,38.877-155.202,46.675H727.051
				c-64.735-4.844-129.414-13.65-192.441-29.568c-37.184-9.058-63.797-39.382-99.903-51.085c5.096-1.19,15.414-3.528,20.566-4.662
				c-23.282-7.868-45.541-18.06-67.507-29.064c12.838,14.728,29.512,25.032,45.485,35.854
				c-25.732-3.024-44.673-21.896-66.933-33.096c10.066-1.946,20.062-3.962,30.128-5.852c-10.122-4.788-20.314-9.436-30.45-14.154
				c-20.006-18.942-50.077-23.912-65.113-48.439c-1.316,2.898-4.088,8.624-5.404,11.508c-8.302-21.392-21.196-40.641-38.066-56.181
				c0.056,4.718,0.126,14.154,0.182,18.872c-3.836-3.08-7.672-6.16-11.508-9.254c-2.702-20.692-17.304-35.979-31.332-50.133
				c-8.932-28.252-36.302-43.344-50.385-68.319c-5.726-9.632-13.272-17.934-22.778-23.912c1.764-1.764,5.278-5.222,7.112-6.916
				c-15.54-38.822-45.611-71.525-51.897-113.875c-4.41-26.166-21.14-48.565-23.282-75.305
				C58.112,804.893,36.79,702.54,60.814,602.694c22.078-75.235,44.729-152.122,88.829-217.865
				c14.28-20.692,22.778-45.289,41.397-62.915c29.008-51.715,78.511-87.569,122.358-126.012
				c18.06-16.856,40.193-28.434,63.223-36.988c52.597-48.439,123.94-64.553,187.164-93.925
				C608.865,52.627,656.058,52.123,701.655,42.253z M659.32,72.451c-24.668,8.05-50.455,12.39-74.801,21.448
				c-20.188-2.954-39.941,1.764-57.819,11.382c2.954,2.772,5.908,5.53,8.932,8.302c-5.53,6.034-8.932,15.414-18.438,15.974
				c2.268-7.42,5.53-14.91,3.528-22.778c-17.36,8.554-34.356,18.564-53.283,23.282c-29.19,7.112-57.245,24.416-73.163,50.329
				c0.504-3.332,1.442-9.996,1.89-13.272c-18.942,9.184-34.916,22.96-52.149,34.86c-29.316,18.186-49.643,46.801-74.801,69.831
				c-18.998,24.92-35.42,51.897-57.749,74.171c-3.906,18.494-18.564,31.262-28.812,46.241
				c-41.201,58.127-64.175,126.516-84.181,194.205c-6.86,22.078-6.916,45.415-11.886,67.885c1.26,41.145-8.498,81.969-5.096,123.184
				c-1.694,38.247,12.838,75.431,7.49,113.679c14.784,35.098,24.22,72.155,39.256,107.141
				c12.082,26.796,18.872,56.937,40.823,77.881c21.952,39.703,45.233,79.953,79.337,110.655
				c42.153,52.471,95.493,94.121,149.294,133.936c10.57,5.278,11.256,23.59,25.284,21.322c29.82-1.694,56.363,13.398,82.221,26.236
				c34.916,17.99,74.115,24.038,111.284,35.797c32.648,11.634,67.759,7.112,101.471,13.146c46.549-4.032,93.995,4.592,139.662-8.12
				c39.759-0.308,74.549-21.196,112.545-29.568c27.3-6.16,50.385-22.778,74.115-36.735c11.704-9.254,29.819-5.152,37.561-19.936
				c55.551-7.672,92.791-52.597,134.636-84.993c15.288-14.35,27.3-31.71,41.705-46.871c18.564-19.698,27.874-48.313,52.723-61.655
				c11.508-13.02,11.13-30.632,15.288-46.493c14.658-23.282,27.678-47.557,40.893-71.721
				c26.04-53.913,39.382-112.545,52.779-170.546c4.536-22.526,3.276-45.667,4.032-68.515c6.16-10.444,4.34-22.078,1.82-33.348
				c2.45-33.53-8.75-66.373-11.76-99.651c0.378-12.768-17.486-23.842-7.168-35.797c-6.412-14.854-12.46-29.946-16.17-45.737
				c-7.042-28.308-22.834-53.353-30.884-81.283c-15.47-60.017-66.429-99.777-101.093-148.468
				c-51.267-72.155-119.096-136.96-204.019-166.654c4.158-2.898,8.302-5.726,12.46-8.554c-9.758-5.656-19.376-11.634-29.568-16.422
				c4.662,3.332,13.902,9.996,18.564,13.342c-3.528,2.646-7.112,5.348-10.696,7.994c-13.272-9.688-27.37-18.368-38.948-30.198
				c-2.772-0.056-8.246-0.182-11.004-0.252c-6.356-11.256-20.566-10.374-31.71-11.76c-21.14-1.386-45.415-7.042-58.127-25.536
				l15.47-2.268c-12.39-3.962-25.228-0.308-37.813-1.134c-22.204-11.886-48.061,1.386-71.091-9.38
				c-0.504,2.268-1.512,6.86-2.016,9.184c-18.06-12.768-39.382-19.068-61.403-19.572c2.142,3.906,6.412,11.704,8.498,15.596
				C726.141,68.993,692.22,71.065,659.32,72.451z M1318.697,378.571c-4.284,7.994,3.584,26.166,13.72,22.526
				C1334.979,392.795,1327.937,378.263,1318.697,378.571z M1381.542,508.489c-2.016,8.75,1.316,12.082,9.94,9.884
				C1393.498,509.553,1390.152,506.221,1381.542,508.489z M1037.357,1377.094c-6.916,2.45-12.082,6.734-15.47,12.894
				c1.19,8.176,12.46-0.308,16.478-1.694c4.158-1.764,18.368-9.632,9.058-13.776
				C1044.903,1375.148,1039.877,1376.464,1037.357,1377.094z M512.112,1403.455c8.876,18.438,32.018,17.178,49.195,21.07
				C546.271,1414.711,529.668,1407.487,512.112,1403.455z M902.791,1420.941c-19.376,9.688,8.806,18.69,16.296,7.742
				C927.388,1418.799,908.265,1415.971,902.791,1420.941z M601.193,1428.305c-1.89,9.002,11.634,10.948,17.934,11.256
				c3.276,1.19,22.582-1.26,12.516-6.608C621.703,1431.637,611.007,1425.029,601.193,1428.305z"/>
		</g>
		<path fill="#52A045" d="M678.822,269.554c53.913-1.764,107.897-0.756,161.81-0.504c-38.122,14.406-66.121,45.989-81.031,83.355
			C748.471,313.206,716.257,283.638,678.822,269.554z"/>
	</g>
	<g>
		<path fill="#B1B4BC" d="M697.385,83.077c9.31-0.252,18.62-0.504,28-0.63c-9.758,5.348-19.572,10.696-29.386,15.918
			C696.322,94.529,697.008,86.913,697.385,83.077z"/>
		<path fill="#B1B4BC" d="M594.529,99.317"/>
		<path fill="#B1B4BC" d="M488.578,131.026"/>
		<path fill="#B1B4BC" d="M274.115,275.406"/>
		<path fill="#B1B4BC" d="M1381.542,508.489c8.624-2.268,11.956,1.064,9.94,9.884
			C1382.859,520.571,1379.526,517.225,1381.542,508.489z"/>
		<path fill="#B1B4BC" d="M377.042,523.833c86.001-2.268,172.058,0.56,258.059-1.386c1.764,1.764,5.348,5.278,7.168,7.042
			l-8.428,0.126c-0.378,83.551,1.316,167.088-0.812,250.569c-85.371-0.126-170.742,0.378-256.043-0.252
			c2.016-36.68,17.304-72.911,45.793-96.697c19.698-17.682,45.233-25.984,69.887-33.908
			C429.317,644.497,378.302,586.622,377.042,523.833z"/>
		<path fill="#B1B4BC" d="M97.409,1038.704c7.294-4.284,16.352,7.742,10.374,13.72
			C100.489,1056.568,91.683,1044.668,97.409,1038.704z"/>
		<path fill="#B1B4BC" d="M140.501,1114.499c8.624-2.772,11.886,0.252,9.884,9.128
			C141.691,1126.399,138.415,1123.375,140.501,1114.499z"/>
		<path fill="#B1B4BC" d="M204.032,1208.802c6.86-5.348,20.762,4.592,14.406,12.334
			C211.396,1227.058,198.376,1216.614,204.032,1208.802z"/>
		<path fill="#B1B4BC" d="M342.252,1327.716c8.806-2.268,12.516,0.938,11.074,9.562
			C344.45,1339.476,340.81,1336.27,342.252,1327.716z"/>
		<path fill="#B1B4BC" d="M601.193,1428.305c9.814-3.276,20.51,3.332,30.45,4.662c10.066,5.348-9.254,7.798-12.516,6.608
			C612.827,1439.253,599.303,1437.307,601.193,1428.305z"/>
	</g>
	<g>
		<path fill="#3A4256" d="M634.218,271.752c74.745,6.79,121.042,85.049,125.508,154.068c8.554-69.201,54.165-147.46,130.226-153.886
			c0,84.055,0.182,168.096-0.126,252.151c-43.091,40.893-85.245,82.725-127.398,124.57c-40.39-39.381-80.331-79.211-120.16-119.152
			c-1.82-1.764-5.404-5.278-7.168-7.042C633.28,438.91,634.974,355.303,634.218,271.752z"/>
	</g>
	<g>
		<path fill="#626879" d="M891.339,523.147c85.497,0.686,171.05-0.126,256.617,0.434c-3.15,62.789-52.723,120.216-116.451,125.942
			c37.24,9.506,74.241,27.748,94.625,61.781c13.342,20.258,18.116,44.547,21.77,68.137c-85.931,0.252-171.806-0.182-257.681,0.252
			C891.213,694.197,889.015,608.644,891.339,523.147z"/>
	</g>
	<g>
		<path fill="#898D9A" d="M634.344,779.638c85.371,2.072,170.868-0.938,256.239,1.512c-1.316,85.245,0,170.49-0.686,255.735
			c-38.318-3.906-76.943-19.572-100.715-51.085c-15.722-18.438-22.4-42.153-29.26-64.917c-4.284,42.027-30.576,81.087-68.571,99.903
			c-17.556,9.38-37.492,12.586-56.867,16.1C633.784,951.121,634.092,865.372,634.344,779.638z"/>
	</g>
	<g>
		<path fill="#898D9A" d="M322.778,1081.278l-16.268-22.904l-14.77,10.486l18.158,25.578l-11.55,8.19l-28.196-39.703l62.243-44.197
			l27.272,38.416l-11.55,8.19l-17.248-24.29l-12.936,9.184l16.254,22.904L322.778,1081.278z"/>
		<path fill="#898D9A" d="M336.4,1091.498c4.97-4.788,9.058-9.044,12.418-12.572l10.052,10.444l-4.83,5.754l0.238,0.252
			c4.172-0.728,11.312-0.826,17.906,6.034c4.942,5.138,6.258,11.732,3.752,17.458l0.154,0.168c3.458-0.49,6.818-0.266,9.758,0.504
			c3.43,0.952,6.426,2.772,9.268,5.698c7.378,7.672,7.574,18.648-4.34,30.114l-23.506,22.61l-11.62-12.082l21.7-20.888
			c5.796-5.572,7.336-10.668,3.486-14.672c-2.744-2.856-6.664-3.01-9.814-1.554c-1.218,0.532-2.674,1.638-3.654,2.576
			l-23.338,22.456l-11.62-12.082l22.358-21.518c5.054-4.872,6.762-9.968,2.982-13.874c-3.066-3.178-7.322-2.702-10.066-1.47
			c-1.372,0.532-2.59,1.554-3.57,2.492l-23.254,22.386l-11.62-12.082L336.4,1091.498z"/>
		<path fill="#898D9A" d="M406.147,1161.763c4.368-5.782,7.952-10.892,10.85-15.092l11.928,9.016l-4.018,6.622l0.182,0.14
			c6.804-2.24,13.706-0.854,20.118,4.004c9.66,7.308,11.984,22.274,1.316,36.371c-12.166,16.072-28.112,15.946-37.967,8.498
			c-5.334-4.032-7.84-9.338-7.644-13.734l-0.182-0.14l-16.604,21.952l-13.734-10.388L406.147,1161.763z M412.013,1182.552
			c-0.826,1.078-1.484,2.142-1.918,3.094c-1.904,4.382-0.854,9.576,3.122,12.586c5.964,4.508,13.244,2.212,18.914-5.292
			c5.334-7.042,6.202-14.77,0.056-19.418c-3.878-2.94-9.506-2.646-13.482,0.728c-0.728,0.588-1.498,1.428-2.114,2.24
			L412.013,1182.552z"/>
		<path fill="#898D9A" d="M462.077,1201.886c4.214-6.986,6.762-11.648,9.03-15.848l12.698,7.658l-4.774,9.016l0.392,0.238
			c6.58-5.418,14.14-4.816,18.704-2.072c1.358,0.812,2.03,1.232,2.982,2.058l-8.358,13.86c-0.952-0.84-2.086-1.792-3.738-2.786
			c-5.432-3.276-10.864-2.59-14.588,1.386c-0.784,0.854-1.582,1.96-2.282,3.122l-14.504,24.052l-14.742-8.89L462.077,1201.886z"/>
		<path fill="#898D9A" d="M504.65,1243.116c-2.562,6.678,2.296,12.768,9.548,16.24c5.306,2.534,9.94,3.878,14.77,4.55l-2.982,11.494
			c-6.09-0.406-12.81-2.366-19.544-5.586c-16.954-8.106-21.966-22.554-14.49-38.192c6.062-12.67,20.622-22.89,37.981-14.588
			c16.142,7.714,16.254,23.212,10.346,35.573c-1.274,2.66-2.702,4.858-3.444,5.88L504.65,1243.116z M528.016,1241.24
			c1.806-3.78,3.206-10.892-3.948-14.308c-6.538-3.122-12.026,1.526-14.434,5.516L528.016,1241.24z"/>
		<path fill="#898D9A" d="M547.083,1270.009c2.338,2.87,7.784,7.21,12.586,8.918c4.914,1.736,7.546,0.756,8.498-1.918
			c0.952-2.674-0.196-4.522-5.558-8.708c-9.492-7.462-11.578-14.812-9.268-20.958c3.444-9.716,14.392-14.126,27.314-9.534
			c6.09,2.156,11.032,5.488,13.664,8.218l-6.86,10.192c-1.89-2.114-5.768-5.418-10.248-7.014c-3.948-1.4-6.762-0.602-7.714,2.072
			c-0.868,2.464,0.7,4.452,6.314,8.974c8.708,6.944,11.088,13.44,8.47,21.168c-3.444,9.716-13.678,14.14-28.616,8.82
			c-6.832-2.422-12.39-6.076-15.582-9.618L547.083,1270.009z"/>
		<path fill="#898D9A" d="M624.04,1309.097l0.308-5.628l-0.322-0.084c-4.564,3.444-10.626,4.424-17.01,2.884
			c-10.892-2.632-15.484-12.124-13.412-20.72c3.374-13.986,17.556-17.668,36.568-12.964l0.182-0.77
			c0.686-2.856,0.126-7.308-8.12-9.296c-5.502-1.33-11.788-0.868-15.848,0.476l-0.476-11.536c4.242-1.19,12.264-2.044,22.064,0.322
			c17.948,4.34,21.126,16.282,18.06,28.952l-4.522,18.718c-1.246,5.18-2.226,10.178-2.394,13.286L624.04,1309.097z
			 M628.198,1283.183c-8.778-2.24-16.114-1.792-17.682,4.704c-1.036,4.298,1.316,7.084,5.068,7.98
			c4.186,1.008,8.26-0.924,10.192-4.074c0.434-0.826,0.784-1.792,1.022-2.786L628.198,1283.183z"/>
		<path fill="#898D9A" d="M684.604,1301.845c4.438,2.73,11.382,5.656,18.704,6.216c7.91,0.616,12.334-2.338,12.712-7.308
			c0.364-4.746-3.038-7.728-11.928-11.718c-12.306-5.376-20.006-13.02-19.152-24.08c1.008-12.978,12.614-22.078,30.562-20.692
			c8.582,0.658,14.77,2.954,19.124,5.334l-4.914,13.594c-2.94-1.708-8.19-4.27-15.638-4.844s-11.326,2.534-11.634,6.482
			c-0.378,4.858,3.752,7.336,13.286,11.816c13.048,6.006,18.83,13.496,18.004,24.22c-0.98,12.754-11.648,22.834-32.536,21.224
			c-8.694-0.672-17.094-3.598-21.21-6.3L684.604,1301.845z"/>
		<path fill="#898D9A" d="M800.2,1303.665c0.294,7.238,0.77,13.118,1.19,17.752l-14.938,0.616l-1.12-7.784l-0.336,0.014
			c-2.016,3.486-6.986,9.366-16.94,9.772c-11.2,0.462-19.754-6.202-20.468-23.296l-1.344-32.48l17.318-0.714l1.232,29.764
			c0.336,8.036,3.136,12.796,9.142,12.544c4.76-0.196,7.336-3.598,8.358-6.356c0.406-1.036,0.462-2.394,0.406-3.752l-1.372-32.942
			l17.318-0.714L800.2,1303.665z"/>
		<path fill="#898D9A" d="M817.504,1304.253c3.416,1.428,10.262,2.674,15.288,1.904c5.152-0.784,7-2.898,6.58-5.698
			s-2.31-3.892-9.016-5.04c-11.886-2.086-17.192-7.574-18.074-14.084c-1.554-10.192,5.992-19.236,19.544-21.308
			c6.384-0.98,12.306-0.392,15.918,0.784l-1.232,12.208c-2.66-0.966-7.644-2.044-12.348-1.33c-4.144,0.63-6.23,2.674-5.81,5.474
			c0.392,2.576,2.73,3.598,9.8,4.914c10.962,1.988,16.128,6.594,17.472,14.63c1.554,10.178-5.362,18.914-21.028,21.308
			c-7.168,1.092-13.776,0.504-18.27-1.106L817.504,1304.253z"/>
		<path fill="#898D9A" d="M874.357,1236.424l3.738,15.4l11.984-2.912l2.982,12.32l-11.984,2.912l4.718,19.474
			c1.582,6.496,3.836,9.086,8.89,7.854c2.086-0.504,3.696-1.134,4.844-1.638l3.178,12.628c-1.988,1.414-5.81,2.926-10.542,4.074
			c-5.39,1.302-10.346,0.532-13.664-1.582c-3.85-2.45-6.65-7.238-8.484-14.826l-5.334-22.008l-7.154,1.736l-2.982-12.32l7.154-1.736
			l-2.828-11.662L874.357,1236.424z"/>
		<path fill="#898D9A" d="M921.845,1273.691c2.87,6.552,10.626,7.462,18.214,4.816c5.558-1.932,9.8-4.242,13.692-7.154l5.964,10.276
			c-4.606,3.99-10.752,7.336-17.808,9.786c-17.752,6.16-31.486-0.574-37.169-16.926c-4.606-13.258-1.456-30.772,16.716-37.086
			c16.898-5.866,27.888,5.054,32.382,17.99c0.966,2.786,1.498,5.348,1.694,6.608L921.845,1273.691z M937.118,1255.925
			c-1.372-3.962-5.39-9.996-12.88-7.392c-6.846,2.38-7.476,9.548-6.384,14.084L937.118,1255.925z"/>
		<path fill="#898D9A" d="M961.674,1242.682c-3.038-6.202-5.838-11.382-8.176-15.652l13.412-6.58l4.046,6.468l0.308-0.154
			c0.49-4.144,3.234-11.424,11.466-15.456c10.164-4.984,21.084-2.016,28.252,12.628l14.448,29.484l-15.456,7.574l-13.51-27.552
			c-3.136-6.398-7.518-9.674-13.104-6.944c-4.27,2.086-5.362,6.286-4.984,9.632c0.042,1.12,0.588,2.744,1.288,4.158l14.056,28.672
			l-15.456,7.574L961.674,1242.682z"/>
		<path fill="#898D9A" d="M1019.661,1173.438l8.386,13.454l10.472-6.524l6.706,10.766l-10.472,6.524l10.598,17.01
			c3.542,5.67,6.496,7.42,10.92,4.676c1.82-1.134,3.15-2.226,4.088-3.08l6.986,10.99c-1.442,1.96-4.606,4.606-8.736,7.182
			c-4.704,2.94-9.674,3.752-13.468,2.786c-4.424-1.106-8.582-4.788-12.726-11.424l-11.984-19.222l-6.244,3.892l-6.706-10.766
			l6.244-3.892l-6.356-10.178L1019.661,1173.438z"/>
		<path fill="#898D9A" d="M1104.878,1200.15l-4.186-3.78l-0.266,0.21c-0.196,5.712-3.234,11.032-8.456,15.022
			c-8.89,6.818-19.152,4.41-24.514-2.604c-8.736-11.41-2.702-24.738,12.908-36.553l-0.476-0.63c-1.792-2.338-5.6-4.69-12.334,0.462
			c-4.494,3.444-8.092,8.61-9.59,12.614l-9.268-6.874c1.75-4.046,6.118-10.822,14.112-16.94
			c14.644-11.214,25.928-6.174,33.838,4.158l11.704,15.274c3.234,4.214,6.51,8.134,8.82,10.206L1104.878,1200.15z M1087.35,1180.634
			c-7.252,5.418-11.522,11.396-7.462,16.688c2.688,3.5,6.328,3.416,9.38,1.078c3.416-2.618,4.48-7,3.248-10.472
			c-0.364-0.854-0.896-1.736-1.512-2.548L1087.35,1180.634z"/>
		<path fill="#898D9A" d="M1131.086,1178.94c-2.366-2.744-6.888-7.686-11.242-12.124l-44.673-45.64l12.306-12.04l22.092,22.582
			l0.168-0.154c-0.98-5.698,1.008-11.914,6.51-17.304c9.464-9.268,24.108-8.232,35.91,3.99c13.944,14.238,11.844,30.24,2.786,39.101
			c-4.62,4.522-10.724,7.168-18.158,5.25l-0.154,0.154l4.9,5.978L1131.086,1178.94z M1127.236,1149.751
			c0.798,0.812,1.582,1.456,2.38,1.946c4.06,2.52,9.338,2.268,12.908-1.218c5.264-5.152,4.536-12.362-2.436-19.488
			c-6.02-6.146-13.524-8.316-19.264-2.688c-3.318,3.248-3.934,8.764-1.26,13.118c0.546,0.882,1.176,1.694,1.974,2.506
			L1127.236,1149.751z"/>
		<path fill="#898D9A" d="M1120.404,1075.034l11.116-13.132l61.333,51.939l-11.116,13.132L1120.404,1075.034z"/>
		<path fill="#898D9A" d="M1194.001,1076.252c6.146,3.668,12.978-0.098,17.626-6.664c3.402-4.802,5.502-9.142,6.986-13.79
			l10.836,4.9c-1.428,5.936-4.494,12.222-8.82,18.326c-10.864,15.344-25.97,17.836-40.109,7.826
			c-11.466-8.12-19.082-24.206-7.952-39.913c10.346-14.602,25.648-12.11,36.833-4.186c2.408,1.708,4.34,3.486,5.222,4.396
			L1194.001,1076.252z M1196.115,1052.9c-3.416-2.422-10.206-4.998-14.784,1.47c-4.186,5.922-0.532,12.11,2.996,15.176
			L1196.115,1052.9z"/>
	</g>
</g>
</svg>
