<?xml version="1.0" encoding="utf-8"?>
<!-- Generator: Adobe Illustrator 23.0.0, SVG Export Plug-In . SVG Version: 6.00 Build 0)  -->
<svg version="1.1" id="Capa_1" xmlns="http://www.w3.org/2000/svg" xmlns:xlink="http://www.w3.org/1999/xlink" x="0px" y="0px"
	 viewBox="0 0 360 360" style="enable-background:new 0 0 360 360;" xml:space="preserve">
<style type="text/css">
	.st0{fill:#0069B4;}
	.st1{fill:#706F6F;}
	.st2{fill-rule:evenodd;clip-rule:evenodd;fill:#004676;}
	.st3{fill-rule:evenodd;clip-rule:evenodd;fill:#706F6F;}
	.st4{fill:#FFFFFF;}
</style>
<g>
	<path class="st0" d="M180,71.15c53.5,0,98.09,38.78,107.2,89.71h41.59C319.35,87.09,256.33,30.08,180,30.08
		c-76.33,0-139.34,57.01-148.78,130.78H72.8C81.91,109.93,126.49,71.15,180,71.15L180,71.15z"/>
	<path class="st1" d="M71.79,167.72H30.5c-0.17,2.05-0.29,4.11-0.37,6.18h41.13C71.37,171.82,71.56,169.77,71.79,167.72
		L71.79,167.72z"/>
	<path class="st0" d="M180,289.02c-59.84,0-108.54-48.5-108.91-108.25H30c0.36,80.13,63.53,145.41,142.81,149.15h14.38
		c79.29-3.74,142.46-69.03,142.81-149.15h-41.08C288.54,240.52,239.83,289.02,180,289.02L180,289.02z"/>
	<path class="st1" d="M288.21,167.72c0.23,2.04,0.42,4.1,0.53,6.18h41.13c-0.09-2.07-0.21-4.13-0.37-6.18H288.21L288.21,167.72z"/>
	<polygon class="st2" points="113.37,173.89 114.61,170.48 111.7,168.36 115.04,168.36 115.87,165.81 117.12,168.36 120.03,168.36 
		117.54,170.48 118.36,173.89 115.87,171.76 113.37,173.89 	"/>
	<polygon class="st2" points="110.45,184.94 111.7,181.97 108.79,179.84 112.12,179.84 112.95,176.87 114.2,179.84 117.12,179.84 
		114.61,181.97 115.87,184.94 112.95,183.24 110.45,184.94 	"/>
	<polygon class="st2" points="112.95,195.15 113.78,192.16 111.29,190.04 114.61,190.04 115.45,187.07 116.29,190.04 119.62,190.04 
		117.12,192.16 117.96,195.15 115.45,193.01 112.95,195.15 	"/>
	<polygon class="st2" points="120.87,203.22 121.7,199.82 119.2,197.69 122.12,197.69 123.37,194.72 124.19,197.69 127.53,197.69 
		125.04,199.82 125.87,202.8 123.37,201.09 120.87,203.22 	"/>
	<polygon class="st2" points="130.87,206.63 132.12,203.22 129.62,201.09 132.53,201.09 133.37,198.12 134.62,201.09 137.53,201.09 
		135.03,203.22 135.87,206.63 133.37,204.5 130.87,206.63 	"/>
	<polygon class="st2" points="142.11,202.8 142.94,199.82 140.45,197.69 143.36,197.69 144.61,194.72 145.45,197.69 148.79,197.69 
		146.28,199.82 147.11,202.8 144.61,200.67 142.11,202.8 	"/>
	<polygon class="st2" points="149.2,195.15 150.03,191.75 147.54,189.62 150.86,189.62 151.7,186.64 152.53,189.62 155.86,189.62 
		153.36,191.75 154.2,195.15 151.7,193.01 149.2,195.15 	"/>
	<polygon class="st2" points="151.7,184.94 152.53,181.97 150.03,179.84 153.36,179.84 154.2,176.87 155.03,179.84 158.36,179.84 
		155.86,181.97 156.7,184.94 154.2,183.24 151.7,184.94 	"/>
	<polygon class="st2" points="148.36,173.46 149.2,170.48 146.69,168.36 149.61,168.36 150.86,165.38 151.7,168.36 155.03,168.36 
		152.11,170.48 153.36,173.46 150.86,171.76 148.36,173.46 	"/>
	<polygon class="st2" points="140.86,165.81 141.7,162.83 139.19,160.7 142.53,160.7 143.36,157.73 144.61,160.7 147.54,160.7 
		145.03,162.83 145.87,165.81 143.36,164.11 140.86,165.81 	"/>
	<polygon class="st2" points="130.87,163.69 131.7,160.28 129.2,158.16 132.12,158.16 133.37,155.6 134.19,158.16 137.53,158.16 
		135.03,160.28 135.87,163.26 133.37,161.55 130.87,163.69 	"/>
	<polygon class="st2" points="120.45,165.81 121.28,162.83 118.78,160.7 122.12,160.7 122.95,157.73 123.78,160.7 127.12,160.7 
		124.62,162.83 125.45,165.81 122.95,164.11 120.45,165.81 	"/>
	<polygon class="st2" points="134.62,193.01 135.87,189.62 133.37,187.5 136.28,187.5 137.53,184.51 138.36,187.5 141.7,187.5 
		139.19,189.62 140.04,193.01 137.53,190.89 134.62,193.01 	"/>
	<polygon class="st2" points="147.95,212.15 149.2,208.75 146.28,206.63 149.61,206.63 150.45,203.65 151.7,206.63 154.61,206.63 
		152.11,208.75 153.36,211.72 150.45,210.03 147.95,212.15 	"/>
	<polygon class="st1" points="102.86,201.83 91.82,201.83 91.82,157.52 102.86,157.52 102.86,201.83 	"/>
	<polygon class="st1" points="198.64,201.83 190.72,201.83 169.87,173.44 169.87,201.83 160.46,201.83 160.46,157.52 169.09,157.52 
		189.23,184.62 189.23,157.52 198.64,157.52 198.64,201.83 	"/>
	<path class="st1" d="M227.89,181.47c-0.43-4.54-3.17-7.27-7.2-7.27c-4.1,0-6.77,2.66-7.2,7.27H227.89L227.89,181.47L227.89,181.47z
		 M236.53,198.09c-5.97,4.39-12.24,4.39-14.83,4.39c-11.66,0-19.21-6.77-19.21-17.13c0-10.15,7.27-17.34,17.48-17.34
		c9.64,0,17.63,6.84,17.13,18.93h-23.82c0.36,5.9,4.39,9.36,10.94,9.36c4.17,0,7.41-1.22,12.31-4.75V198.09L236.53,198.09z"/>
	<path class="st1" d="M266.24,175.78h-12.09v13.67c0,3.24,1.87,5.33,5.11,5.33c2.16,0,4.17-0.51,6.98-1.95v7.56
		c-3.67,1.51-6.4,2.09-9.64,2.09c-6.91,0-12.88-3.17-12.88-12.45v-14.25h-4.75v-2.02l13.89-15.54h1.3v10.44h12.09V175.78
		L266.24,175.78z"/>
	<polygon class="st3" points="277.57,152.09 83.39,152.09 83.39,142.3 277.57,142.3 277.57,152.09 	"/>
	<polygon class="st3" points="277.57,219.66 83.39,219.66 83.39,214.76 277.57,214.76 277.57,219.66 	"/>
	<path class="st4" d="M67.14,106.03c0.53,0.11,2.21,0.97,2.73,1.27c0.57,0.32,0.7,0.93,0.36,1.52c-0.36,0.64-1.13,0.61-1.87,0.48
		c-1.6-0.28-3.99,0.18-5.25,2.38c-1.93,3.39,0.13,7.29,4.04,9.51c2.02,1.14,7.45,3.45,10.28-1.53c1.89-3.32-0.39-5.93,0.31-7.17
		c0.26-0.45,0.85-0.61,1.3-0.36c1.47,0.83,2.39,5.34-0.01,9.56c-2.86,5.03-8.77,7.38-14.03,4.39c-5.31-3.02-6.7-9.96-3.78-15.1
		c1.05-1.85,2.77-3.66,4.69-4.61C66.3,106.14,66.72,105.94,67.14,106.03L67.14,106.03z"/>
	<path class="st4" d="M93.25,94.36c1.96,2.01,2.33,1.92,5-0.65c1.17-1.14,1.87-1.94,1.82-3.68c-0.03-0.65-0.15-1.68,0.35-2.17
		c0.35-0.34,0.97-0.41,1.33-0.04c0.51,0.53,1,1.54,1.31,2.19c0.55,1.07,0.47,1.3-0.41,2.16l-9.54,9.31c-0.43,0.42-1.09,0.8-1.6,0.27
		c-0.34-0.35-0.24-0.68-0.1-1.08c0.3-0.71,0.03-1.06-0.64-1.74l-9.1-9.33c-0.74-0.76-1.01-1.03-1.57-0.71
		c-0.6,0.32-0.89,0.26-1.23-0.09c-0.51-0.53-0.12-1.18,0.31-1.6l9.12-8.9c0.59-0.57,0.96-0.86,1.3-0.81
		c0.56,0.06,1.74,1.12,2.14,1.53c0.44,0.45,0.62,1.03,0.12,1.53c-0.43,0.42-0.93,0.34-1.47,0.29c-1.54-0.09-2.07,0.15-4.11,2.15
		c-2.01,1.96-1.71,2.47-1.33,2.86l3.49,3.57l2.95-2.88c1.39-1.35,0.47-1.86,1.13-2.51c0.68-0.67,1.52,0.19,2,0.68
		c0.52,0.53,1.7,1.54,0.92,2.31c-0.66,0.65-1.17-0.19-2.5,1.11l-2.95,2.88L93.25,94.36L93.25,94.36z"/>
	<path class="st4" d="M116.81,69.5c2.23-1.27,5.11-3.96,3.6-6.77c-1.12-2.09-3.18-2.1-5.07-1.08c-1.99,1.07-1.74,1.9-1.03,3.22
		L116.81,69.5L116.81,69.5L116.81,69.5z M120.13,75.61c0.4,0.74,0.61,1.13,1.26,1.12c0.65-0.01,0.99-0.01,1.22,0.43
		c0.35,0.65-0.21,1.16-0.74,1.45l-4.56,2.46c-0.53,0.28-1.27,0.47-1.62-0.18c-0.23-0.43-0.05-0.72,0.2-1.07
		c0.48-0.6,0.32-1.01-0.13-1.85l-6.18-11.48c-0.5-0.94-0.68-1.27-1.31-1.12c-0.67,0.14-0.93,0-1.16-0.43
		c-0.35-0.65,0.21-1.17,0.74-1.45l8.52-4.59c1.3-0.7,2.83-1.47,4.33-1.5c1.71-0.05,3.32,0.81,4.13,2.33c1.22,2.26,0.3,4.7-1.14,6.63
		c2.46,0.84,4.54,2.39,6.49,4.06c0.7,0.55,1.04,0.83,1.94,0.84c0.42,0.02,0.73-0.02,0.97,0.41c0.35,0.65-0.42,1.12-0.88,1.37
		l-4.7,2.54c-0.58,0.31-1.43,0.8-1.87-0.01c-0.39-0.72,0.68-1.21,0.32-1.88c-0.66-1.22-4.46-3.45-5.97-4
		c-0.48,0.44-1.25,1.01-2.17,1.67L120.13,75.61L120.13,75.61z"/>
	<path class="st4" d="M149.09,50.37c-0.24-1.09-0.34-1.43-1.38-1.21c-3.04,0.65-2.75,2.91-3.97,3.17c-0.64,0.14-0.97-0.21-1.1-0.82
		c-0.06-0.29-0.05-0.6-0.09-1.57c-0.06-1.72,0.2-1.78,1.4-2.03l13.65-2.94c1.2-0.26,1.47-0.32,2.12,1.27
		c0.36,0.9,0.5,1.17,0.57,1.47c0.13,0.61-0.02,1.06-0.66,1.2c-1.22,0.26-1.89-1.91-4.93-1.25c-1.04,0.23-0.99,0.58-0.76,1.67
		l2.74,12.72c0.18,0.83,0.27,1.25,0.89,1.43c0.62,0.17,0.95,0.27,1.05,0.75c0.16,0.72-0.52,1.06-1.11,1.19l-5.07,1.09
		c-0.59,0.13-1.35,0.09-1.5-0.63c-0.1-0.48,0.16-0.7,0.49-0.97c0.63-0.44,0.59-0.88,0.39-1.81L149.09,50.37L149.09,50.37z"/>
	<path class="st4" d="M180.23,46.77c0.03-1.06,0.03-1.44-0.59-1.62c-0.65-0.21-0.81-0.45-0.8-0.95c0.02-0.74,0.76-0.91,1.36-0.9
		l5.18,0.11c0.6,0.01,1.33,0.22,1.31,0.96c-0.01,0.49-0.31,0.65-0.56,0.75c-0.85,0.42-0.92,0.8-0.94,1.75l-0.28,13.03
		c-0.02,0.84-0.03,1.28,0.54,1.59c0.56,0.31,0.86,0.48,0.85,0.97c-0.02,0.74-0.76,0.91-1.36,0.9l-5.18-0.11
		c-0.6-0.01-1.33-0.22-1.32-0.96c0.01-0.49,0.31-0.65,0.7-0.83c0.72-0.28,0.78-0.72,0.8-1.67L180.23,46.77L180.23,46.77z"/>
	<path class="st4" d="M208.29,63.2c-0.22,0.85-0.3,1.19,0.1,1.58c0.38,0.38,0.79,0.77,0.67,1.24c-0.18,0.71-0.94,0.72-1.52,0.57
		l-5.02-1.28c-0.58-0.15-1.24-0.52-1.06-1.23c0.12-0.48,0.45-0.56,0.87-0.65c0.76-0.11,0.92-0.52,1.16-1.45l3.23-12.63
		c0.26-1.03,0.36-1.4-0.21-1.71c-0.59-0.35-0.68-0.63-0.56-1.1c0.18-0.71,0.94-0.72,1.52-0.57l11.47,2.93
		c0.9,0.23,1.43,0.36,1.69,0.66c0.53,0.58,0.2,1.97,0.1,2.7c-0.12,0.56-0.22,1.52-1.06,1.3c-0.53-0.14-0.75-0.59-0.98-1.01
		c-0.98-1.91-2.1-2.25-4.08-2.76c-2.54-0.65-2.76-0.45-3.21,1.32l-1.14,4.47l3.86,0.98c1.88,0.48,1.83-0.57,2.73-0.34
		c0.9,0.23,0.7,1.11,0.46,2.06c-0.28,1.11-0.59,2.21-1.49,1.98c-0.9-0.23-0.45-1.1-2.25-1.56l-3.86-0.98L208.29,63.2L208.29,63.2z"
		/>
	<path class="st4" d="M239.15,60.64c0.49-0.94,0.67-1.28,0.19-1.72c-0.49-0.47-0.53-0.76-0.3-1.2c0.34-0.65,1.08-0.48,1.61-0.2
		l4.59,2.39c0.53,0.28,1.1,0.79,0.76,1.44c-0.23,0.44-0.57,0.44-0.83,0.43c-0.95,0-1.18,0.31-1.62,1.16l-6.02,11.56
		c-0.39,0.75-0.59,1.14-0.22,1.67c0.37,0.53,0.56,0.81,0.33,1.25c-0.34,0.65-1.08,0.48-1.61,0.2l-4.6-2.39
		c-0.53-0.28-1.1-0.79-0.75-1.44c0.22-0.44,0.57-0.44,0.99-0.44c0.77,0.06,1.02-0.3,1.46-1.15L239.15,60.64L239.15,60.64z"/>
	<path class="st4" d="M258.05,86.66c-1.84,2.13-1.71,2.48,1.08,4.93c1.23,1.07,2.1,1.7,3.82,1.5c0.65-0.09,1.66-0.3,2.2,0.17
		c0.37,0.32,0.49,0.93,0.15,1.32c-0.48,0.56-1.44,1.13-2.08,1.49c-1.02,0.63-1.25,0.57-2.18-0.23l-10.09-8.72
		c-0.45-0.39-0.88-1.02-0.4-1.58c0.32-0.37,0.65-0.3,1.07-0.19c0.73,0.24,1.06-0.06,1.68-0.78l8.52-9.86
		c0.7-0.81,0.95-1.09,0.58-1.63c-0.37-0.57-0.33-0.87-0.01-1.24c0.48-0.56,1.16-0.22,1.62,0.17l9.64,8.33
		c0.62,0.54,0.94,0.88,0.92,1.23c-0.02,0.56-0.97,1.83-1.34,2.26c-0.41,0.47-0.97,0.71-1.51,0.24c-0.45-0.39-0.41-0.9-0.42-1.44
		c-0.03-1.54-0.32-2.04-2.49-3.92c-2.12-1.84-2.6-1.49-2.96-1.08l-3.26,3.78l3.12,2.69c1.46,1.27,1.9,0.31,2.6,0.91
		c0.72,0.62-0.06,1.53-0.51,2.05c-0.48,0.56-1.4,1.82-2.22,1.11c-0.7-0.61,0.09-1.19-1.32-2.4l-3.12-2.69L258.05,86.66L258.05,86.66
		z"/>
	<path class="st4" d="M279.99,111.23c-1.61,1.03-2.21,1.45-1.09,3.2c2.46,3.83,6.74,3.74,10.3,1.46c3.63-2.33,5.69-6.34,3.15-10.29
		c-1.04-1.63-1.57-1.29-3.02-0.36L279.99,111.23L279.99,111.23L279.99,111.23z M294.45,105.3c1.55,2.41,2.71,4.78,2.41,7.75
		c-0.28,3.1-1.98,5.51-4.55,7.16c-2.27,1.46-5.03,2.22-7.69,1.66c-2.86-0.63-4.94-2.6-6.48-5.01l-4.76-7.42
		c-0.32-0.5-0.56-1.23,0.06-1.63c0.41-0.26,0.71-0.1,1.08,0.12c0.64,0.44,1.03,0.25,1.83-0.27l10.98-7.04
		c0.89-0.57,1.22-0.78,1.02-1.4c-0.19-0.65-0.07-0.93,0.34-1.19c0.62-0.4,1.18,0.12,1.5,0.63L294.45,105.3L294.45,105.3z"/>
	<path class="st4" d="M62.92,209.66c0.38,1.25-0.39,1.63-1.07,2.12c-3.21,2.3-5.86,4.38-8.52,6.69c3.53,0.56,7.32,0.85,11.3,1.13
		c0.99,0.07,1.31,0.09,1.66,1.27l1.34,4.47c0.17,0.57,0.2,1.33-0.5,1.55c-0.47,0.14-0.74-0.09-0.89-0.3
		c-0.78-1.07-1.16-1.02-2.07-0.74c-2.74,0.83-7.85,2.79-12.37,4.15c-0.81,0.24-1.23,0.37-1.35,1c-0.12,0.64-0.19,0.97-0.66,1.11
		c-0.71,0.21-1.1-0.44-1.27-1.01l-1.49-4.96c-0.17-0.58-0.2-1.34,0.5-1.55c0.47-0.14,0.71,0.1,1.01,0.41
		c0.49,0.59,0.93,0.52,1.84,0.24c4-1.2,7.58-2.54,11.22-3.8c-4.11-0.3-7.89-0.59-11.98-1.1c-1.37-0.19-1.66-0.21-2.01-1.39
		c-0.35-1.15-0.37-1.51,0.51-2.29c2.94-2.71,5.91-5.17,9.38-7.83c-3.98,0.97-7.95,1.97-11.22,2.95c-0.91,0.28-1.15,0.63-1.21,1.76
		c-0.05,0.5-0.17,0.76-0.66,0.91c-0.78,0.23-1.09-0.7-1.38-1.66l-0.69-2.27c-0.21-0.71-0.47-1.65,0.32-1.89
		c0.5-0.15,0.74,0,1.06,0.39c0.69,0.79,0.99,0.82,1.9,0.54c3.53-1.06,12.54-3.29,13.22-3.49c0.44-0.14,0.63-0.76,0.62-1.44
		c0.01-0.54-0.01-1.08,0.61-1.27c0.86-0.26,1.13,0.54,1.34,1.22L62.92,209.66L62.92,209.66z"/>
	<path class="st4" d="M63.41,241.82c1.92-2,3.67-3.97,5.05-5.99c-2.56,0.03-4.94,0.17-7.84,0.56L63.41,241.82L63.41,241.82
		L63.41,241.82z M58.28,236.72c-2.26,0.21-3.12,0.44-3.72,0.75c-1.07,0.55-0.18,1.69-1.08,2.14c-0.75,0.39-1.19-0.4-1.59-1.18
		l-1.02-1.99c-0.37-0.73-0.69-1.4,0.11-1.81c0.34-0.17,0.66-0.03,0.99,0.14c0.44,0.26,0.63,0.38,1.15,0.33
		c5.21-1.08,11.38-1.61,17.84-1.49c1.09,0.03,1.3,0.32,1.92,1.53c0.63,1.24,0.55,1.31-0.09,2.22c-3.55,5.04-7.46,9.35-11.57,13.6
		c-0.27,0.26-0.37,0.59-0.4,1.13c-0.02,0.38-0.1,0.64-0.47,0.82c-0.7,0.36-1.16-0.23-1.46-0.82L56.8,248
		c-0.29-0.56-0.74-1.49,0.02-1.88c0.78-0.4,1.21,0.7,1.77,0.41c0.36-0.19,1.07-0.73,3.18-3.01L58.28,236.72L58.28,236.72z"/>
	<path class="st4" d="M75.01,248.56c1.62-1.2,1.71-1.54,1.4-2.47c-0.18-0.51-0.38-1.01,0.15-1.4c0.72-0.53,1.25,0.13,1.67,0.7
		l2.23,3c0.6,0.81,0.69,0.98,0.5,2.01c-0.37,2.24-1.01,4.49-4.32,13.98l7.38-5.48c0.81-0.6,0.86-0.95,0.62-1.96
		c-0.12-0.49-0.1-0.77,0.32-1.08c0.66-0.49,1.15,0.13,1.78,0.99l1.42,1.9c0.55,0.74,1.08,1.5,0.43,1.99
		c-0.41,0.31-0.7,0.25-1.13-0.01c-0.97-0.57-1.15-0.64-2.05,0.03l-11.89,8.83c-1.36,1.01-1.6,1.09-2.58-0.23
		c-0.38-0.5-0.68-0.92-0.5-1.4c0.79-2.18,3.69-10.63,5.43-17.15l-9.17,6.82c-0.81,0.6-0.87,0.98-0.62,1.95
		c0.12,0.49,0.1,0.78-0.32,1.08c-0.66,0.49-1.21-0.22-1.78-0.98l-1.42-1.91c-0.55-0.74-1.08-1.5-0.43-1.99
		c0.42-0.31,0.7-0.25,1.13,0.01c0.88,0.54,1.2,0.61,2.05-0.03L75.01,248.56L75.01,248.56z"/>
	<path class="st4" d="M89.69,276.23c1.17-2.51,2.19-4.94,2.84-7.3c-2.42,0.85-4.62,1.76-7.24,3.06L89.69,276.23L89.69,276.23
		L89.69,276.23z M83.19,273.07c-2.07,0.92-2.81,1.42-3.28,1.91c-0.83,0.86,0.38,1.65-0.32,2.38c-0.59,0.61-1.25,0-1.88-0.6
		l-1.61-1.55c-0.59-0.57-1.1-1.1-0.48-1.75c0.27-0.27,0.61-0.24,0.98-0.19c0.5,0.11,0.72,0.16,1.19-0.06
		c4.58-2.71,10.25-5.2,16.4-7.18c1.04-0.33,1.33-0.12,2.31,0.83c1,0.97,0.95,1.06,0.64,2.13c-1.73,5.91-4.04,11.26-6.55,16.61
		c-0.17,0.33-0.16,0.68-0.02,1.2c0.11,0.36,0.11,0.63-0.18,0.93c-0.55,0.57-1.17,0.16-1.64-0.3l-3.32-3.2
		c-0.45-0.43-1.18-1.17-0.59-1.78c0.61-0.63,1.37,0.26,1.81-0.19c0.29-0.29,0.77-1.04,2.03-3.88L83.19,273.07L83.19,273.07z"/>
	<path class="st4" d="M112.66,291.67c1.96,1.34,1.99,1.73,1.64,2.24c-0.35,0.52-1,0.93-2.04,2.44c-0.94,1.37-1.27,2.53-1.51,2.87
		c-0.51,0.74-1.77,0.8-4.14,0.2c-2.06-0.52-3.47-1.06-5.23-2.26c-5.04-3.46-6.99-9.29-3.35-14.6c3.7-5.4,10.24-5.87,15.44-2.31
		c1.58,1.08,3.39,2.92,4.25,4.66c0.23,0.49,0.44,0.96,0.37,1.48c-0.07,0.54-0.85,1.63-1.17,2.1c-0.76,1.1-1.24,1.04-1.71,0.71
		c-0.52-0.36-0.48-0.89-0.39-1.36c0.48-2.29-0.19-4.3-2.11-5.61c-3.8-2.61-8.02,0.03-10.27,3.31c-1.98,2.88-2.92,7.59,0.43,9.89
		c0.77,0.53,1.96,1.01,2.95,0.8c1.08-0.22,1.89-1.35,2.49-2.23c1-1.46,1.17-1.94-0.39-3.01c-1.12-0.77-1.74-1.22-1.17-2.06
		c0.54-0.79,1.25-0.47,2.28,0.24L112.66,291.67L112.66,291.67z"/>
	<path class="st4" d="M120.28,301.88c-1.2,2.54-0.98,2.85,2.36,4.46c1.48,0.7,2.48,1.08,4.08,0.42c0.6-0.26,1.52-0.73,2.16-0.43
		c0.44,0.21,0.72,0.76,0.5,1.23c-0.31,0.67-1.09,1.47-1.6,1.99c-0.81,0.88-1.06,0.89-2.17,0.36l-12.06-5.7
		c-0.54-0.26-1.13-0.75-0.81-1.41c0.21-0.44,0.55-0.46,0.98-0.47c0.77,0.03,1-0.34,1.41-1.2l5.57-11.79
		c0.46-0.96,0.62-1.31,0.12-1.72c-0.51-0.45-0.55-0.75-0.34-1.19c0.31-0.67,1.06-0.53,1.6-0.27l11.52,5.44
		c0.74,0.35,1.14,0.6,1.22,0.94c0.13,0.55-0.44,2.02-0.69,2.54c-0.27,0.57-0.75,0.95-1.39,0.64c-0.54-0.26-0.64-0.76-0.78-1.28
		c-0.45-1.48-0.86-1.88-3.45-3.11c-2.54-1.2-2.91-0.74-3.14-0.25l-2.13,4.51l3.72,1.76c1.75,0.83,1.91-0.21,2.75,0.18
		c0.86,0.41,0.35,1.49,0.06,2.11c-0.31,0.67-0.85,2.13-1.84,1.67c-0.84-0.4-0.23-1.17-1.91-1.96l-3.72-1.76L120.28,301.88
		L120.28,301.88z"/>
	<path class="st4" d="M144,294.92c1.26,0.35,1.17,1.2,1.22,2.03c0.25,3.94,0.6,7.29,1.15,10.78c2.35-2.69,4.6-5.75,6.96-8.98
		c0.59-0.8,0.77-1.06,1.95-0.74l4.5,1.23c0.58,0.16,1.24,0.54,1.04,1.25c-0.13,0.47-0.47,0.58-0.73,0.59
		c-1.32,0.09-1.48,0.44-1.73,1.36c-0.76,2.76-1.8,8.13-3.05,12.68c-0.22,0.82-0.34,1.24,0.14,1.68c0.47,0.44,0.72,0.68,0.59,1.15
		c-0.2,0.71-0.96,0.7-1.53,0.54l-5-1.37c-0.58-0.16-1.24-0.54-1.04-1.25c0.13-0.47,0.46-0.55,0.88-0.64
		c0.76-0.1,0.93-0.51,1.19-1.43c1.1-4.02,1.87-7.77,2.73-11.52c-2.44,3.32-4.69,6.38-7.29,9.57c-0.88,1.06-1.06,1.29-2.24,0.97
		c-1.16-0.32-1.48-0.49-1.67-1.64c-0.73-3.93-1.24-7.75-1.66-12.11c-1.29,3.89-2.56,7.78-3.46,11.07c-0.25,0.92-0.08,1.31,0.85,1.96
		c0.4,0.31,0.56,0.55,0.42,1.05c-0.21,0.79-1.17,0.56-2.14,0.29l-2.29-0.63c-0.71-0.19-1.65-0.48-1.43-1.27
		c0.14-0.5,0.4-0.63,0.9-0.69c1.04-0.17,1.21-0.4,1.47-1.32c0.97-3.55,3.87-12.37,4.06-13.06c0.12-0.45-0.31-0.93-0.89-1.29
		c-0.46-0.3-0.92-0.56-0.75-1.2c0.24-0.87,1.06-0.67,1.75-0.48L144,294.92L144,294.92z"/>
	<path class="st4" d="M167.93,314.85c-0.26,2.8,0.05,3.02,3.74,3.39c1.63,0.15,2.69,0.17,3.98-1c0.48-0.45,1.18-1.2,1.89-1.14
		c0.49,0.05,0.94,0.47,0.89,0.99c-0.07,0.73-0.52,1.76-0.83,2.41c-0.46,1.11-0.69,1.19-1.91,1.08l-13.28-1.25
		c-0.6-0.06-1.31-0.32-1.25-1.05c0.05-0.49,0.36-0.62,0.76-0.78c0.74-0.23,0.83-0.66,0.92-1.61l1.22-12.98
		c0.1-1.06,0.14-1.44-0.48-1.66c-0.63-0.25-0.77-0.51-0.73-1c0.07-0.73,0.82-0.85,1.42-0.8l12.68,1.19
		c0.81,0.08,1.27,0.18,1.46,0.47c0.31,0.47,0.27,2.05,0.22,2.62c-0.06,0.62-0.38,1.14-1.09,1.07c-0.6-0.06-0.86-0.49-1.17-0.93
		c-0.93-1.24-1.45-1.48-4.3-1.75c-2.8-0.26-2.99,0.3-3.04,0.84l-0.47,4.97l4.1,0.39c1.93,0.18,1.72-0.85,2.65-0.77
		c0.95,0.09,0.84,1.28,0.77,1.96c-0.07,0.73-0.08,2.29-1.16,2.19c-0.93-0.09-0.62-1.02-2.47-1.19l-4.1-0.38L167.93,314.85
		L167.93,314.85z"/>
	<path class="st4" d="M182.93,305.36c-0.12-2.01-0.36-2.27-1.3-2.51c-0.53-0.13-1.05-0.24-1.09-0.89c-0.05-0.9,0.79-0.98,1.5-1.02
		l3.73-0.23c1.01-0.06,1.2-0.05,1.95,0.67c1.68,1.54,3.21,3.3,9.35,11.26l-0.56-9.17c-0.06-1.01-0.32-1.24-1.3-1.59
		c-0.47-0.16-0.7-0.34-0.74-0.86c-0.05-0.81,0.74-0.89,1.8-0.96l2.37-0.14c0.93-0.06,1.85-0.09,1.9,0.73
		c0.03,0.52-0.17,0.72-0.63,0.94c-1.01,0.5-1.16,0.62-1.1,1.74l0.91,14.78c0.1,1.69,0.04,1.94-1.59,2.04
		c-0.63,0.04-1.14,0.07-1.44-0.35c-1.4-1.85-6.89-8.9-11.4-13.92l0.7,11.41c0.06,1.01,0.35,1.26,1.3,1.59
		c0.47,0.16,0.71,0.34,0.74,0.86c0.05,0.82-0.85,0.9-1.8,0.96l-2.37,0.15c-0.92,0.06-1.85,0.09-1.9-0.73
		c-0.03-0.52,0.17-0.72,0.62-0.94c0.93-0.44,1.16-0.67,1.1-1.73L182.93,305.36L182.93,305.36z"/>
	<path class="st4" d="M208.96,301.71c-0.25-1.09-0.35-1.43-1.39-1.2c-3.03,0.68-2.72,2.93-3.95,3.21c-0.64,0.14-0.97-0.2-1.11-0.81
		c-0.06-0.29-0.05-0.6-0.1-1.57c-0.08-1.72,0.19-1.78,1.39-2.04l13.62-3.06c1.2-0.27,1.46-0.33,2.13,1.26
		c0.37,0.9,0.51,1.17,0.58,1.46c0.14,0.61-0.01,1.07-0.65,1.21c-1.22,0.28-1.9-1.89-4.94-1.21c-1.04,0.24-0.99,0.59-0.74,1.68
		l2.85,12.69c0.18,0.83,0.28,1.25,0.9,1.42c0.63,0.17,0.95,0.26,1.06,0.74c0.16,0.72-0.52,1.07-1.1,1.2l-5.05,1.13
		c-0.59,0.13-1.35,0.11-1.51-0.61c-0.11-0.48,0.15-0.7,0.48-0.97c0.62-0.45,0.58-0.89,0.37-1.82L208.96,301.71L208.96,301.71z"/>
	<path class="st4" d="M240.82,304.78c1.68-0.83,3.33-2.74,2.36-4.7c-2.13-4.3-11,4.1-14.55-3.08c-0.58-1.18-1.82-6.07,4.49-9.19
		c1.81-0.89,4.01-1.44,6.03-1.4c0.38,0.03,0.74,0.09,1.01,0.38c0.46,0.5,0.96,1.5,1.26,2.12c0.29,0.58,0.2,1.15-0.41,1.45
		c-1.32,0.65-2.84-2.92-6.85-0.93c-1.39,0.69-2.67,2.3-1.88,3.88c2.18,4.4,10.97-3.91,14.48,3.18c1.31,2.64,0.81,7.36-4.76,10.12
		c-6.01,2.97-9.19,0.5-9.71-0.55c-0.34-0.69-0.18-1.59,0.53-1.94c0.66-0.33,0.93-0.28,2.8,0.8
		C236.65,305.51,238.54,305.91,240.82,304.78L240.82,304.78z"/>
	<path class="st4" d="M254.38,289.73c-3.51-1.12-6.53-2.32-9.66-3.81c-0.91-0.43-1-0.42-1.96-0.31c-0.48,0.08-0.93,0.06-1.23-0.37
		c-0.51-0.71,0.24-1.27,1.17-1.93l4.09-2.9c0.58-0.41,1.23-0.77,1.75-0.04c0.47,0.67-0.59,1.29-0.21,1.82
		c0.49,0.69,1.83,1.41,7.93,3.5c0.32-5.31-0.07-7.88-0.51-8.5c-0.47-0.67-1.5,0.16-2.01-0.58c-0.49-0.69,0.13-1.23,0.64-1.59
		l1.94-1.37c0.8-0.57,1.44-0.99,1.94-0.28c0.15,0.2,0.21,0.72,0.07,0.99c-0.32,0.63-0.34,0.74-0.25,1.68
		c0.37,3.68,0.47,7.12,0.23,10.64l2.73,3.85c0.49,0.69,0.74,1.04,1.38,0.96c0.64-0.09,0.98-0.13,1.26,0.27
		c0.43,0.6-0.06,1.19-0.55,1.53l-4.23,3c-0.49,0.35-1.2,0.62-1.62,0.02c-0.29-0.4-0.13-0.71,0.07-1.08c0.41-0.65,0.2-1.04-0.35-1.82
		L254.38,289.73L254.38,289.73z"/>
	<path class="st4" d="M276.34,279.77c1.35-1.31,2.32-3.64,0.8-5.2c-3.35-3.43-9.19,7.3-14.79,1.56c-0.92-0.94-3.6-5.21,1.43-10.13
		c1.44-1.41,3.37-2.6,5.3-3.2c0.37-0.09,0.73-0.15,1.08,0.05c0.59,0.33,1.37,1.13,1.85,1.62c0.46,0.47,0.55,1.03,0.06,1.51
		c-1.05,1.03-3.6-1.89-6.8,1.23c-1.11,1.09-1.83,3-0.59,4.27c3.43,3.51,9.23-7.1,14.75-1.44c2.06,2.11,3.04,6.75-1.41,11.09
		c-4.8,4.69-8.58,3.31-9.4,2.47c-0.54-0.55-0.66-1.45-0.09-2.01c0.53-0.51,0.8-0.55,2.91-0.1
		C272.6,281.75,274.53,281.55,276.34,279.77L276.34,279.77z"/>
	<path class="st4" d="M277.25,256.87c-0.89-0.67-1.19-0.86-1.83-0.02c-1.87,2.48-0.18,4-0.94,5c-0.39,0.52-0.87,0.47-1.37,0.09
		c-0.24-0.18-0.43-0.43-1.09-1.13c-1.17-1.26-1-1.48-0.26-2.46l8.41-11.15c0.74-0.98,0.91-1.2,2.44-0.42
		c0.86,0.45,1.15,0.56,1.39,0.74c0.5,0.38,0.68,0.82,0.28,1.34c-0.75,1-2.68-0.21-4.55,2.27c-0.64,0.85-0.38,1.08,0.52,1.76
		l10.38,7.84c0.68,0.51,1.02,0.77,1.61,0.5c0.59-0.28,0.9-0.42,1.29-0.12c0.59,0.44,0.3,1.15-0.06,1.63l-3.12,4.13
		c-0.36,0.48-0.96,0.95-1.55,0.51c-0.39-0.29-0.34-0.63-0.26-1.05c0.19-0.75-0.13-1.05-0.89-1.63L277.25,256.87L277.25,256.87z"/>
	<path class="st4" d="M297.98,245c2.47,1.34,2.8,1.14,4.59-2.11c0.78-1.44,1.21-2.41,0.65-4.05c-0.23-0.62-0.64-1.56-0.31-2.18
		c0.23-0.43,0.8-0.68,1.26-0.43c0.65,0.35,1.41,1.17,1.89,1.71c0.84,0.86,0.83,1.1,0.25,2.18l-6.36,11.72
		c-0.29,0.53-0.8,1.08-1.45,0.73c-0.43-0.24-0.43-0.58-0.42-1c0.07-0.76-0.28-1.02-1.12-1.48l-11.46-6.22
		c-0.94-0.51-1.27-0.69-1.71-0.22c-0.48,0.48-0.77,0.51-1.21,0.28c-0.65-0.35-0.46-1.09-0.18-1.62l6.07-11.2
		c0.39-0.72,0.66-1.1,1-1.16c0.55-0.1,2,0.55,2.5,0.83c0.55,0.3,0.9,0.8,0.56,1.42c-0.29,0.53-0.79,0.6-1.32,0.71
		c-1.5,0.37-1.93,0.75-3.29,3.27c-1.34,2.47-0.9,2.86-0.42,3.12l4.39,2.38l1.96-3.62c0.92-1.7-0.11-1.92,0.34-2.73
		c0.45-0.84,1.51-0.27,2.11,0.06c0.65,0.35,2.08,0.97,1.56,1.93c-0.44,0.81-1.18,0.17-2.06,1.8l-1.96,3.62L297.98,245L297.98,245z"
		/>
	<path class="st4" d="M292.26,220.94c0.42-1.24,1.26-1.1,2.1-1.11c3.95-0.03,7.32-0.2,10.83-0.54c-2.56-2.5-5.49-4.92-8.58-7.45
		c-0.77-0.63-1.02-0.83-0.63-1.99l1.48-4.42c0.19-0.57,0.61-1.21,1.3-0.97c0.47,0.15,0.55,0.5,0.55,0.76
		c0.02,1.33,0.36,1.5,1.27,1.8c2.72,0.91,8.02,2.25,12.49,3.75c0.8,0.27,1.21,0.41,1.68-0.04c0.47-0.45,0.72-0.68,1.18-0.53
		c0.7,0.24,0.64,1,0.45,1.56l-1.65,4.91c-0.19,0.57-0.6,1.21-1.3,0.97c-0.46-0.16-0.52-0.49-0.58-0.92
		c-0.06-0.77-0.46-0.96-1.36-1.26c-3.96-1.33-7.66-2.31-11.35-3.37c3.18,2.62,6.11,5.04,9.15,7.81c1.01,0.94,1.23,1.13,0.84,2.3
		c-0.38,1.14-0.57,1.45-1.74,1.57c-3.97,0.51-7.81,0.81-12.18,0.98c3.81,1.51,7.63,2.99,10.86,4.07c0.91,0.3,1.3,0.15,2-0.74
		c0.33-0.38,0.58-0.52,1.07-0.36c0.78,0.26,0.49,1.2,0.17,2.16l-0.75,2.25c-0.23,0.7-0.57,1.62-1.35,1.36
		c-0.49-0.16-0.6-0.43-0.64-0.93c-0.11-1.04-0.33-1.24-1.24-1.54c-3.49-1.17-12.14-4.55-12.81-4.78c-0.44-0.15-0.95,0.26-1.34,0.82
		c-0.32,0.44-0.62,0.89-1.23,0.68c-0.85-0.29-0.61-1.1-0.39-1.77L292.26,220.94L292.26,220.94z"/>
</g>
</svg>
