<?xml version="1.0" encoding="utf-8"?>
<!-- Generator: Adobe Illustrator 23.0.0, SVG Export Plug-In . SVG Version: 6.00 Build 0)  -->
<svg version="1.1" id="Capa_2" xmlns="http://www.w3.org/2000/svg" xmlns:xlink="http://www.w3.org/1999/xlink" x="0px" y="0px"
	 viewBox="0 0 360 360" style="enable-background:new 0 0 360 360;" xml:space="preserve">
<style type="text/css">
	.st0{fill:#FFFFFF;}
	.st1{fill:#29265A;}
	.st2{fill:#D21129;}
	.st3{fill:#7F7D6A;}
</style>
<g>
	<rect x="80" y="17.5" class="st0" width="200" height="325"/>
	<g>
		<path class="st1" d="M279.87,157.08c-66.62-0.13-133.24-0.02-199.87-0.06V342.5c2.44-1.86,4.79-3.82,6.97-5.98
			c-0.11-46.85,0-93.7-0.06-140.55c5.58-0.05,11.17-0.01,16.76-0.05c-0.04,41.83-0.01,83.64-0.02,125.47
			c3.91-3.59,7.83-7.16,11.7-10.79c-0.07-38.22,0-76.44-0.04-114.67c4.56,0.02,9.12,0.02,13.68,0
			c-0.01,34.12,0.01,68.24-0.01,102.36c5.4-4.95,10.77-9.93,16.26-14.78c0.75-0.84,1.92-1.56,2-2.78
			c0.01-28.25-0.08-56.52-0.03-84.78c2.4,0,4.8,0,7.2,0.02c-0.35,15.23,0.21,30.45-0.2,45.68c0.18,11.17,0.36,22.35-0.01,33.51
			c6.54-5.82,13.01-11.72,19.43-17.68c-0.04-20.52,0-41.04-0.02-61.56c2.3,0.02,4.6,0.03,6.9,0.05c0.01,17.91-0.06,35.82-0.08,53.72
			c-0.07,1.11,0.33,2.01,1.19,2.7c32.8,29.89,65.57,59.82,98.39,89.7C279.9,280.41,279.94,218.75,279.87,157.08z"/>
		<g>
			<path class="st2" d="M131.04,175.94c-1.04-0.3-2.34-0.56-3.86-0.78l-0.35-0.04c-0.06-0.01-0.13-0.02-0.29-0.04
				c-1.26-0.17-2.25-0.33-2.96-0.49c-0.64-0.14-1.17-0.36-1.59-0.65c-0.35-0.25-0.52-0.57-0.52-1.03c0-0.69,0.36-1.19,1.13-1.57
				c0.85-0.42,2.08-0.63,3.66-0.63c0.88,0,1.78,0.11,2.66,0.34c0.89,0.23,1.8,0.58,2.7,1.03l0.42,0.21l2.77-2.67l-0.6-0.3
				c-0.84-0.41-1.7-0.76-2.56-1.03c-0.86-0.27-1.75-0.48-2.65-0.62c-0.89-0.14-1.81-0.21-2.73-0.21c-1.92,0-3.59,0.21-4.97,0.62
				c-1.42,0.42-2.53,1.06-3.28,1.88c-0.77,0.83-1.16,1.85-1.16,3.03c0,1.34,0.43,2.39,1.27,3.14c0.81,0.72,1.8,1.22,2.94,1.49
				c1.07,0.25,2.46,0.48,4.13,0.68l0.2,0.03c0.08,0.02,0.17,0.03,0.29,0.04c1.1,0.14,2,0.29,2.69,0.45
				c0.62,0.15,1.13,0.37,1.51,0.67c0.33,0.26,0.49,0.6,0.49,1.07c0,0.67-0.38,1.15-1.19,1.53c-0.9,0.42-2.21,0.63-3.91,0.63
				c-1.27,0-2.46-0.14-3.54-0.4c-1.07-0.27-2.07-0.67-2.96-1.2l-0.4-0.24l-3.01,2.55l0.57,0.33c0.84,0.49,1.76,0.91,2.72,1.23
				c0.96,0.33,2.01,0.58,3.12,0.74l1.71,0.24h1.8c1.98,0,3.71-0.21,5.12-0.61c1.46-0.42,2.6-1.04,3.39-1.85
				c0.8-0.83,1.21-1.84,1.21-3.02c0-1.24-0.39-2.25-1.16-2.98C133.08,176.78,132.14,176.25,131.04,175.94z"/>
			<path class="st2" d="M145.07,167.63l-9.69,18.14h5.05l1.87-3.76h9.26l1.87,3.76h5.05l-9.69-18.14H145.07z M143.93,178.74l3-6.03
				l3,6.03H143.93z"/>
			<path class="st2" d="M179.4,176.28c0.55-0.31,1.01-0.68,1.4-1.13c0.61-0.7,0.92-1.47,0.92-2.28v-0.41c0-1-0.33-1.89-0.98-2.65
				c-0.64-0.75-1.55-1.34-2.71-1.75c-1.13-0.4-2.45-0.6-3.92-0.6c-1.47,0-2.79,0.2-3.92,0.6c-1.16,0.41-2.07,1-2.71,1.75
				c-0.65,0.76-0.98,1.65-0.98,2.65v0.41c0,0.79,0.3,1.55,0.9,2.26c0.38,0.45,0.84,0.83,1.38,1.14c-0.7,0.38-1.29,0.86-1.76,1.44
				c-0.69,0.83-1.04,1.74-1.04,2.7v0.28c0,1.05,0.35,1.99,1.04,2.8c0.68,0.79,1.66,1.41,2.89,1.84c1.2,0.42,2.61,0.63,4.19,0.63
				c1.58,0,2.98-0.21,4.19-0.63c1.24-0.43,2.21-1.04,2.89-1.84c0.69-0.8,1.04-1.74,1.04-2.79v-0.28c0-0.96-0.36-1.86-1.06-2.7
				C180.7,177.15,180.1,176.66,179.4,176.28z M176.02,182.37c-1.08,0.38-2.74,0.38-3.82,0c-0.52-0.18-0.91-0.43-1.18-0.75
				c-0.27-0.31-0.4-0.66-0.4-1.08v-0.18c0-0.43,0.13-0.79,0.4-1.11c0.27-0.33,0.66-0.58,1.18-0.76c0.54-0.19,1.18-0.29,1.91-0.29
				c0.73,0,1.37,0.1,1.91,0.29c0.52,0.19,0.91,0.43,1.18,0.76c0.27,0.32,0.4,0.68,0.4,1.1v0.17c0,0.42-0.13,0.78-0.4,1.09
				C176.92,181.93,176.54,182.18,176.02,182.37z M177.06,172.86c0,0.41-0.12,0.76-0.35,1.07c-0.24,0.31-0.57,0.54-1,0.71
				c-0.91,0.35-2.29,0.35-3.2,0c-0.44-0.17-0.77-0.4-1-0.71c-0.24-0.3-0.35-0.65-0.35-1.05v-0.18c0-0.39,0.11-0.72,0.35-1.01
				c0.24-0.29,0.56-0.52,1-0.68c0.46-0.17,1-0.26,1.61-0.26c0.61,0,1.15,0.09,1.61,0.26c0.44,0.16,0.77,0.39,1,0.68
				c0.23,0.29,0.35,0.62,0.35,1V172.86z"/>
			<path class="st2" d="M193.62,167.42c-2.44,0-4.35,0.47-5.66,1.4c-1.34,0.95-2.02,2.28-2.02,3.97v7.8c0,1.68,0.68,3.01,2.01,3.96
				c1.31,0.93,3.21,1.4,5.67,1.4c2.45,0,4.35-0.47,5.66-1.4c1.34-0.95,2.02-2.28,2.02-3.97v-7.8c0-1.69-0.68-3.03-2.01-3.97
				C197.98,167.89,196.07,167.42,193.62,167.42z M190.59,172.79c0-0.7,0.22-1.21,0.68-1.56c0.47-0.36,1.26-0.54,2.34-0.54
				s1.88,0.18,2.34,0.54c0.46,0.35,0.68,0.86,0.68,1.56v7.8c0,0.7-0.22,1.2-0.69,1.56c-0.47,0.36-1.26,0.54-2.34,0.54
				c-1.08,0-1.86-0.18-2.34-0.54c-0.46-0.35-0.69-0.86-0.69-1.56V172.79z"/>
			<path class="st2" d="M212.94,167.42c-2.44,0-4.35,0.47-5.66,1.4c-1.34,0.95-2.02,2.28-2.02,3.97v7.8c0,1.68,0.68,3.01,2.01,3.96
				c1.31,0.93,3.21,1.4,5.67,1.4c2.45,0,4.35-0.47,5.66-1.4c1.34-0.95,2.02-2.28,2.02-3.97v-7.8c0-1.69-0.68-3.03-2.01-3.97
				C217.3,167.89,215.4,167.42,212.94,167.42z M209.92,172.79c0-0.7,0.22-1.21,0.68-1.56c0.47-0.36,1.26-0.54,2.34-0.54
				s1.88,0.18,2.34,0.54c0.46,0.35,0.68,0.86,0.68,1.56v7.8c0,0.7-0.23,1.2-0.69,1.56c-0.47,0.36-1.26,0.54-2.34,0.54
				s-1.86-0.18-2.34-0.54c-0.46-0.35-0.69-0.86-0.69-1.56V172.79z"/>
			<path class="st2" d="M237.93,168.81c-1.31-0.92-3.21-1.39-5.67-1.39c-2.44,0-4.35,0.47-5.66,1.4c-1.34,0.95-2.02,2.28-2.02,3.97
				v7.8c0,1.68,0.68,3.01,2.01,3.96c1.3,0.93,3.21,1.4,5.67,1.4c2.45,0,4.35-0.47,5.66-1.4c1.34-0.95,2.02-2.28,2.02-3.97v-7.8
				C239.94,171.09,239.27,169.76,237.93,168.81z M229.24,172.79c0-0.7,0.22-1.21,0.68-1.56c0.47-0.36,1.26-0.54,2.34-0.54
				c1.09,0,1.88,0.18,2.34,0.54c0.46,0.35,0.68,0.86,0.68,1.56v7.8c0,0.7-0.23,1.2-0.69,1.56c-0.47,0.36-1.26,0.54-2.34,0.54
				c-1.08,0-1.86-0.18-2.34-0.54c-0.46-0.35-0.69-0.86-0.69-1.56V172.79z"/>
		</g>
		<g>
			<path class="st3" d="M80,53.77v0.04v54.86c66.67,0.08,133.33,0,200,0.04v-0.04v-54.4v-0.5H80z"/>
			<rect x="80" y="44.5" class="st3" width="200" height="7.4"/>
			<rect x="80" y="34.84" class="st3" width="200" height="7.52"/>
			<rect x="80" y="25.54" class="st3" width="200" height="4.27"/>
			<rect x="80" y="17.5" class="st3" width="200" height="2.36"/>
		</g>
		<g>
			<path class="st0" d="M160.45,63.04l0.31,12.84h-1.17c-0.55-3.22-1.9-5.81-4.05-7.77c-2.15-1.96-4.48-2.94-6.99-2.94
				c-1.93,0-3.47,0.52-4.59,1.55c-1.13,1.03-1.69,2.22-1.69,3.57c0,0.85,0.2,1.61,0.6,2.27c0.55,0.89,1.43,1.77,2.65,2.64
				c0.89,0.63,2.95,1.73,6.17,3.32c4.51,2.22,7.56,4.31,9.13,6.28c1.56,1.97,2.33,4.22,2.33,6.76c0,3.22-1.26,5.99-3.77,8.31
				c-2.51,2.32-5.7,3.48-9.58,3.48c-1.21,0-2.36-0.12-3.44-0.37c-1.08-0.25-2.44-0.71-4.07-1.39c-0.91-0.38-1.66-0.57-2.25-0.57
				c-0.49,0-1.01,0.19-1.56,0.57c-0.55,0.38-1,0.96-1.34,1.73h-1.05V88.79h1.05c0.83,4.09,2.44,7.21,4.82,9.36
				c2.38,2.15,4.95,3.22,7.7,3.22c2.13,0,3.82-0.58,5.08-1.73c1.26-1.16,1.89-2.5,1.89-4.03c0-0.91-0.24-1.79-0.73-2.64
				c-0.48-0.85-1.22-1.66-2.21-2.43c-0.99-0.77-2.73-1.77-5.24-3c-3.51-1.72-6.03-3.19-7.57-4.4c-1.54-1.21-2.72-2.57-3.54-4.06
				c-0.83-1.5-1.24-3.14-1.24-4.94c0-3.07,1.13-5.68,3.39-7.84c2.26-2.16,5.1-3.24,8.54-3.24c1.25,0,2.47,0.15,3.64,0.46
				c0.89,0.23,1.98,0.65,3.26,1.26c1.28,0.62,2.18,0.92,2.69,0.92c0.49,0,0.88-0.15,1.17-0.45c0.29-0.3,0.55-1.03,0.8-2.19H160.45z"
				/>
			<path class="st0" d="M183.73,91.48H170.1l-1.62,3.75c-0.53,1.25-0.8,2.28-0.8,3.1c0,1.08,0.44,1.88,1.31,2.39
				c0.51,0.3,1.77,0.53,3.78,0.68v1.05h-12.83v-1.05c1.38-0.21,2.52-0.78,3.41-1.72s1.99-2.87,3.3-5.81l13.8-30.74H181l13.91,31.59
				c1.33,2.99,2.42,4.88,3.27,5.65c0.64,0.59,1.56,0.93,2.73,1.02v1.05h-18.67v-1.05h0.77c1.5,0,2.55-0.21,3.16-0.63
				c0.42-0.3,0.63-0.74,0.63-1.31c0-0.34-0.06-0.69-0.17-1.05c-0.04-0.17-0.32-0.88-0.85-2.13L183.73,91.48z M182.76,89.38
				l-5.75-13.27l-5.92,13.27H182.76z"/>
			<path class="st0" d="M223.91,101.4v1.05h-20.17v-1.05h1.28c1.12,0,2.02-0.2,2.7-0.6c0.49-0.27,0.87-0.72,1.14-1.36
				c0.21-0.45,0.31-1.65,0.31-3.58V70.52c0-1.97-0.1-3.2-0.31-3.69c-0.21-0.49-0.63-0.92-1.27-1.29c-0.64-0.37-1.49-0.55-2.58-0.55
				h-1.28v-1.05h20.17v1.05h-1.28c-1.12,0-2.02,0.2-2.7,0.6c-0.49,0.27-0.88,0.72-1.17,1.36c-0.21,0.45-0.31,1.65-0.31,3.58v25.34
				c0,1.97,0.11,3.2,0.33,3.69c0.22,0.49,0.64,0.92,1.28,1.29c0.63,0.37,1.49,0.55,2.58,0.55H223.91z"/>
		</g>
		<g>
			<g>
				<path class="st3" d="M158.55,111.06l0.08,3.31h-0.3c-0.14-0.83-0.49-1.5-1.04-2c-0.55-0.5-1.15-0.76-1.8-0.76
					c-0.5,0-0.89,0.13-1.18,0.4c-0.29,0.27-0.44,0.57-0.44,0.92c0,0.22,0.05,0.41,0.15,0.58c0.14,0.23,0.37,0.46,0.68,0.68
					c0.23,0.16,0.76,0.45,1.59,0.86c1.16,0.57,1.95,1.11,2.35,1.62c0.4,0.51,0.6,1.09,0.6,1.74c0,0.83-0.32,1.54-0.97,2.14
					c-0.65,0.6-1.47,0.9-2.46,0.9c-0.31,0-0.61-0.03-0.89-0.1c-0.28-0.06-0.63-0.18-1.05-0.36c-0.23-0.1-0.43-0.15-0.58-0.15
					c-0.13,0-0.26,0.05-0.4,0.15c-0.14,0.1-0.26,0.25-0.34,0.45h-0.27v-3.74h0.27c0.21,1.05,0.63,1.86,1.24,2.41
					c0.61,0.55,1.27,0.83,1.98,0.83c0.55,0,0.98-0.15,1.31-0.45c0.32-0.3,0.49-0.64,0.49-1.04c0-0.23-0.06-0.46-0.19-0.68
					c-0.12-0.22-0.31-0.43-0.57-0.63c-0.25-0.2-0.7-0.45-1.35-0.77c-0.9-0.44-1.55-0.82-1.95-1.13c-0.4-0.31-0.7-0.66-0.91-1.05
					c-0.21-0.39-0.32-0.81-0.32-1.27c0-0.79,0.29-1.46,0.87-2.02c0.58-0.56,1.31-0.83,2.2-0.83c0.32,0,0.63,0.04,0.94,0.12
					c0.23,0.06,0.51,0.17,0.84,0.33c0.33,0.16,0.56,0.24,0.69,0.24c0.13,0,0.23-0.04,0.3-0.12c0.07-0.08,0.14-0.27,0.21-0.56H158.55
					z"/>
				<path class="st3" d="M165.64,111.15c1.58-0.06,2.87,0.4,3.86,1.38c0.99,0.98,1.48,2.21,1.48,3.68c0,1.26-0.37,2.36-1.11,3.32
					c-0.98,1.27-2.36,1.9-4.14,1.9c-1.79,0-3.17-0.6-4.15-1.81c-0.77-0.96-1.16-2.09-1.16-3.4c0-1.47,0.5-2.7,1.5-3.68
					C162.94,111.55,164.17,111.09,165.64,111.15z M165.73,111.61c-0.91,0-1.6,0.46-2.07,1.39c-0.39,0.76-0.58,1.85-0.58,3.28
					c0,1.69,0.3,2.94,0.89,3.75c0.42,0.57,1,0.85,1.74,0.85c0.5,0,0.92-0.12,1.26-0.37c0.43-0.31,0.76-0.81,1-1.5
					c0.24-0.68,0.36-1.58,0.36-2.68c0-1.31-0.12-2.29-0.37-2.94c-0.24-0.65-0.56-1.11-0.93-1.38
					C166.66,111.75,166.22,111.61,165.73,111.61z"/>
				<path class="st3" d="M181.53,111.06v3.44h-0.29c-0.21-0.9-0.62-1.58-1.2-2.06c-0.59-0.48-1.25-0.72-1.99-0.72
					c-0.62,0-1.19,0.18-1.71,0.53c-0.52,0.36-0.9,0.82-1.14,1.4c-0.31,0.74-0.46,1.56-0.46,2.46c0,0.89,0.11,1.7,0.34,2.42
					c0.22,0.73,0.58,1.28,1.05,1.65c0.48,0.37,1.1,0.56,1.86,0.56c0.63,0,1.2-0.14,1.72-0.41c0.52-0.27,1.07-0.74,1.64-1.41v0.86
					c-0.56,0.58-1.14,1-1.74,1.26c-0.6,0.26-1.31,0.39-2.11,0.39c-1.06,0-2-0.21-2.82-0.64c-0.82-0.42-1.46-1.03-1.9-1.83
					c-0.45-0.79-0.67-1.64-0.67-2.54c0-0.95,0.25-1.84,0.74-2.69c0.5-0.85,1.16-1.51,2.01-1.97c0.84-0.47,1.74-0.7,2.68-0.7
					c0.7,0,1.44,0.15,2.21,0.45c0.45,0.18,0.73,0.26,0.86,0.26c0.16,0,0.29-0.06,0.41-0.17c0.11-0.11,0.19-0.3,0.22-0.54H181.53z"/>
				<path class="st3" d="M187.84,120.93v0.27h-5.19v-0.27h0.33c0.29,0,0.52-0.05,0.7-0.15c0.13-0.07,0.22-0.19,0.29-0.35
					c0.05-0.12,0.08-0.42,0.08-0.92v-6.52c0-0.51-0.03-0.82-0.08-0.95c-0.05-0.13-0.16-0.24-0.33-0.33
					c-0.16-0.1-0.38-0.14-0.66-0.14h-0.33v-0.27h5.19v0.27h-0.33c-0.29,0-0.52,0.05-0.7,0.15c-0.13,0.07-0.23,0.19-0.3,0.35
					c-0.05,0.12-0.08,0.42-0.08,0.92v6.52c0,0.51,0.03,0.82,0.08,0.95c0.06,0.13,0.17,0.24,0.33,0.33c0.16,0.1,0.38,0.14,0.66,0.14
					H187.84z"/>
				<path class="st3" d="M194.42,118.38h-3.51l-0.42,0.97c-0.14,0.32-0.21,0.59-0.21,0.8c0,0.28,0.11,0.48,0.34,0.61
					c0.13,0.08,0.46,0.14,0.97,0.18v0.27h-3.3v-0.27c0.36-0.05,0.65-0.2,0.88-0.44c0.23-0.24,0.51-0.74,0.85-1.5l3.55-7.91h0.14
					l3.58,8.13c0.34,0.77,0.62,1.26,0.84,1.46c0.17,0.15,0.4,0.24,0.7,0.26v0.27h-4.8v-0.27h0.2c0.39,0,0.66-0.05,0.81-0.16
					c0.11-0.08,0.16-0.19,0.16-0.34c0-0.09-0.01-0.18-0.04-0.27c-0.01-0.04-0.08-0.23-0.22-0.55L194.42,118.38z M194.17,117.84
					l-1.48-3.42l-1.52,3.42H194.17z"/>
				<path class="st3" d="M208.49,117.72l-0.37,3.48h-8.82v-0.27h0.33c0.29,0,0.52-0.05,0.7-0.15c0.13-0.07,0.22-0.19,0.29-0.35
					c0.05-0.12,0.08-0.42,0.08-0.92v-6.52c0-0.51-0.03-0.82-0.08-0.95c-0.05-0.13-0.16-0.24-0.33-0.33
					c-0.16-0.1-0.38-0.14-0.66-0.14h-0.33v-0.27h5.29v0.27h-0.43c-0.29,0-0.52,0.05-0.7,0.15c-0.13,0.07-0.23,0.19-0.3,0.35
					c-0.05,0.12-0.08,0.42-0.08,0.92v6.32c0,0.51,0.03,0.83,0.09,0.97c0.06,0.14,0.17,0.24,0.34,0.31c0.12,0.04,0.42,0.07,0.89,0.07
					h0.83c0.53,0,0.97-0.09,1.32-0.28c0.35-0.19,0.66-0.48,0.91-0.88c0.26-0.4,0.5-0.99,0.73-1.77H208.49z"/>
			</g>
			<g>
				<path class="st3" d="M117.28,135.31h-3.51l-0.42,0.97c-0.14,0.32-0.21,0.59-0.21,0.8c0,0.28,0.11,0.48,0.34,0.61
					c0.13,0.08,0.46,0.14,0.97,0.18v0.27h-3.3v-0.27c0.36-0.05,0.65-0.2,0.88-0.44c0.23-0.24,0.51-0.74,0.85-1.5l3.55-7.91h0.14
					l3.58,8.13c0.34,0.77,0.62,1.26,0.84,1.46c0.17,0.15,0.4,0.24,0.7,0.26v0.27h-4.8v-0.27h0.2c0.39,0,0.66-0.05,0.81-0.16
					c0.11-0.08,0.16-0.19,0.16-0.34c0-0.09-0.01-0.18-0.04-0.27c-0.01-0.04-0.08-0.23-0.22-0.55L117.28,135.31z M117.03,134.76
					l-1.48-3.42l-1.52,3.42H117.03z"/>
				<path class="st3" d="M131.89,127.98v3.44h-0.29c-0.21-0.9-0.62-1.58-1.2-2.06c-0.59-0.48-1.25-0.72-1.99-0.72
					c-0.62,0-1.19,0.18-1.71,0.53c-0.52,0.36-0.9,0.82-1.14,1.4c-0.31,0.74-0.46,1.56-0.46,2.46c0,0.89,0.11,1.7,0.34,2.42
					c0.22,0.73,0.58,1.28,1.05,1.65c0.48,0.37,1.1,0.56,1.86,0.56c0.63,0,1.2-0.14,1.72-0.41c0.52-0.27,1.07-0.74,1.64-1.41v0.86
					c-0.56,0.58-1.14,1-1.74,1.26c-0.6,0.26-1.31,0.39-2.11,0.39c-1.06,0-2-0.21-2.82-0.64c-0.82-0.42-1.46-1.03-1.9-1.83
					c-0.45-0.79-0.67-1.64-0.67-2.54c0-0.95,0.25-1.84,0.74-2.69c0.5-0.85,1.16-1.51,2.01-1.97c0.84-0.47,1.74-0.7,2.68-0.7
					c0.7,0,1.44,0.15,2.21,0.45c0.45,0.18,0.73,0.26,0.86,0.26c0.16,0,0.29-0.06,0.41-0.17c0.11-0.11,0.19-0.3,0.22-0.54H131.89z"/>
				<path class="st3" d="M142.72,127.98v3.44h-0.29c-0.21-0.9-0.62-1.58-1.2-2.06c-0.59-0.48-1.25-0.72-1.99-0.72
					c-0.62,0-1.19,0.18-1.71,0.53c-0.52,0.36-0.9,0.82-1.14,1.4c-0.31,0.74-0.46,1.56-0.46,2.46c0,0.89,0.11,1.7,0.34,2.42
					c0.22,0.73,0.58,1.28,1.05,1.65c0.48,0.37,1.1,0.56,1.86,0.56c0.63,0,1.2-0.14,1.72-0.41c0.52-0.27,1.07-0.74,1.64-1.41v0.86
					c-0.56,0.58-1.14,1-1.74,1.26c-0.6,0.26-1.31,0.39-2.11,0.39c-1.06,0-2-0.21-2.82-0.64c-0.82-0.42-1.46-1.03-1.9-1.83
					c-0.45-0.79-0.67-1.64-0.67-2.54c0-0.95,0.25-1.84,0.74-2.69c0.5-0.85,1.17-1.51,2.01-1.97c0.84-0.47,1.74-0.7,2.68-0.7
					c0.7,0,1.44,0.15,2.21,0.45c0.45,0.18,0.73,0.26,0.86,0.26c0.16,0,0.29-0.06,0.41-0.17c0.11-0.11,0.19-0.3,0.22-0.54H142.72z"/>
				<path class="st3" d="M149.33,128.07c1.58-0.06,2.87,0.4,3.86,1.38c0.99,0.98,1.48,2.21,1.48,3.68c0,1.26-0.37,2.36-1.11,3.32
					c-0.98,1.27-2.36,1.9-4.14,1.9c-1.79,0-3.17-0.6-4.15-1.81c-0.77-0.96-1.16-2.09-1.16-3.4c0-1.47,0.5-2.7,1.5-3.68
					C146.64,128.48,147.87,128.01,149.33,128.07z M149.42,128.54c-0.91,0-1.6,0.46-2.07,1.39c-0.39,0.76-0.58,1.85-0.58,3.28
					c0,1.69,0.3,2.94,0.89,3.75c0.42,0.57,1,0.85,1.74,0.85c0.5,0,0.92-0.12,1.26-0.37c0.43-0.31,0.76-0.81,1-1.5
					c0.24-0.68,0.36-1.58,0.36-2.68c0-1.31-0.12-2.29-0.37-2.94c-0.24-0.65-0.56-1.11-0.93-1.38
					C150.35,128.67,149.91,128.54,149.42,128.54z"/>
				<path class="st3" d="M155.56,128.21h5.13v0.27h-0.26c-0.39,0-0.65,0.04-0.79,0.12c-0.14,0.08-0.25,0.19-0.31,0.33
					c-0.06,0.14-0.09,0.49-0.09,1.06v4.86c0,0.89,0.07,1.48,0.2,1.76c0.13,0.29,0.35,0.53,0.66,0.72c0.31,0.19,0.7,0.29,1.16,0.29
					c0.54,0,0.99-0.12,1.37-0.36c0.38-0.24,0.66-0.57,0.85-1c0.19-0.42,0.28-1.16,0.28-2.22V130c0-0.44-0.05-0.76-0.14-0.95
					c-0.09-0.19-0.21-0.32-0.35-0.39c-0.22-0.11-0.53-0.17-0.93-0.17v-0.27h3.44v0.27h-0.21c-0.28,0-0.51,0.06-0.7,0.17
					c-0.19,0.11-0.32,0.28-0.4,0.5c-0.06,0.16-0.1,0.44-0.1,0.84v3.77c0,1.16-0.08,2.01-0.23,2.52c-0.15,0.52-0.53,0.99-1.12,1.43
					c-0.6,0.43-1.41,0.65-2.44,0.65c-0.86,0-1.52-0.11-1.99-0.34c-0.64-0.31-1.09-0.71-1.35-1.2c-0.26-0.49-0.4-1.14-0.4-1.97V130
					c0-0.57-0.03-0.93-0.1-1.06c-0.06-0.14-0.17-0.25-0.33-0.33c-0.16-0.08-0.44-0.12-0.86-0.12V128.21z"/>
				<path class="st3" d="M169.78,128.21l4.9,6.15v-4.26c0-0.59-0.09-1-0.26-1.21c-0.23-0.28-0.63-0.42-1.18-0.41v-0.27h3.28v0.27
					c-0.42,0.05-0.7,0.12-0.85,0.21c-0.14,0.09-0.26,0.22-0.34,0.42c-0.08,0.19-0.12,0.52-0.12,0.99v8.26h-0.25l-6.72-8.26v6.3
					c0,0.57,0.13,0.96,0.39,1.16c0.26,0.2,0.56,0.3,0.9,0.3h0.23v0.27h-3.52v-0.27c0.55,0,0.93-0.12,1.14-0.34
					c0.21-0.22,0.32-0.59,0.32-1.12v-7l-0.21-0.26c-0.21-0.26-0.4-0.44-0.56-0.52c-0.16-0.08-0.39-0.13-0.7-0.14v-0.27H169.78z"/>
				<path class="st3" d="M186.34,128.21v2.68h-0.26c-0.16-0.62-0.33-1.06-0.52-1.33c-0.19-0.27-0.45-0.49-0.78-0.65
					c-0.19-0.09-0.51-0.13-0.97-0.13h-0.74v7.65c0,0.51,0.03,0.82,0.08,0.95c0.06,0.13,0.17,0.24,0.33,0.33
					c0.16,0.1,0.39,0.14,0.67,0.14h0.33v0.27h-5.2v-0.27h0.33c0.29,0,0.52-0.05,0.7-0.15c0.13-0.07,0.23-0.19,0.3-0.35
					c0.05-0.12,0.08-0.42,0.08-0.92v-7.65h-0.72c-0.67,0-1.15,0.14-1.46,0.42c-0.42,0.4-0.69,0.96-0.81,1.69h-0.28v-2.68H186.34z"/>
				<path class="st3" d="M192,135.31h-3.51l-0.42,0.97c-0.14,0.32-0.21,0.59-0.21,0.8c0,0.28,0.11,0.48,0.34,0.61
					c0.13,0.08,0.46,0.14,0.97,0.18v0.27h-3.3v-0.27c0.36-0.05,0.65-0.2,0.88-0.44c0.23-0.24,0.51-0.74,0.85-1.5l3.55-7.91h0.14
					l3.58,8.13c0.34,0.77,0.62,1.26,0.84,1.46c0.17,0.15,0.4,0.24,0.7,0.26v0.27h-4.8v-0.27h0.2c0.38,0,0.66-0.05,0.81-0.16
					c0.11-0.08,0.16-0.19,0.16-0.34c0-0.09-0.01-0.18-0.04-0.27c-0.01-0.04-0.08-0.23-0.22-0.55L192,135.31z M191.76,134.76
					l-1.48-3.42l-1.52,3.42H191.76z"/>
				<path class="st3" d="M203.27,132.87c0.94,0.22,1.6,0.48,1.98,0.8c0.55,0.44,0.82,1.02,0.82,1.73c0,0.75-0.3,1.36-0.9,1.85
					c-0.74,0.59-1.81,0.88-3.21,0.88h-5.05v-0.27c0.46,0,0.77-0.04,0.93-0.13c0.16-0.09,0.28-0.2,0.34-0.33
					c0.07-0.14,0.1-0.47,0.1-1.01v-6.44c0-0.54-0.03-0.87-0.1-1.01c-0.06-0.14-0.18-0.25-0.35-0.33c-0.17-0.08-0.48-0.12-0.93-0.12
					v-0.27h4.76c1.14,0,1.94,0.1,2.42,0.3c0.47,0.2,0.85,0.5,1.12,0.91c0.27,0.4,0.41,0.83,0.41,1.28c0,0.48-0.17,0.9-0.52,1.28
					C204.75,132.35,204.14,132.65,203.27,132.87z M200.6,133.24v3.18l-0.01,0.37c0,0.26,0.07,0.46,0.2,0.6
					c0.13,0.13,0.33,0.2,0.6,0.2c0.39,0,0.75-0.09,1.08-0.26c0.33-0.17,0.58-0.42,0.76-0.75c0.18-0.33,0.26-0.7,0.26-1.1
					c0-0.46-0.11-0.88-0.32-1.25c-0.21-0.37-0.51-0.63-0.89-0.77C201.91,133.31,201.35,133.24,200.6,133.24z M200.6,132.67
					c0.69,0,1.21-0.08,1.54-0.23c0.33-0.16,0.58-0.38,0.76-0.66c0.18-0.28,0.26-0.64,0.26-1.08c0-0.44-0.09-0.8-0.26-1.08
					c-0.17-0.28-0.42-0.49-0.74-0.64c-0.32-0.15-0.84-0.22-1.55-0.21V132.67z"/>
				<path class="st3" d="M212.1,137.86v0.27h-5.19v-0.27h0.33c0.29,0,0.52-0.05,0.7-0.15c0.13-0.07,0.22-0.19,0.29-0.35
					c0.05-0.12,0.08-0.42,0.08-0.92v-6.52c0-0.51-0.03-0.82-0.08-0.95c-0.05-0.13-0.16-0.24-0.33-0.33
					c-0.16-0.1-0.38-0.14-0.66-0.14h-0.33v-0.27h5.19v0.27h-0.33c-0.29,0-0.52,0.05-0.7,0.15c-0.13,0.07-0.23,0.19-0.3,0.35
					c-0.05,0.12-0.08,0.42-0.08,0.92v6.52c0,0.51,0.03,0.82,0.08,0.95c0.06,0.13,0.17,0.24,0.33,0.33c0.16,0.1,0.38,0.14,0.66,0.14
					H212.1z"/>
				<path class="st3" d="M221.91,134.65l-0.37,3.48h-8.82v-0.27h0.33c0.29,0,0.52-0.05,0.7-0.15c0.13-0.07,0.22-0.19,0.29-0.35
					c0.05-0.12,0.08-0.42,0.08-0.92v-6.52c0-0.51-0.03-0.82-0.08-0.95c-0.05-0.13-0.16-0.24-0.33-0.33
					c-0.16-0.1-0.38-0.14-0.66-0.14h-0.33v-0.27h5.3v0.27h-0.43c-0.29,0-0.52,0.05-0.7,0.15c-0.13,0.07-0.23,0.19-0.3,0.35
					c-0.05,0.12-0.08,0.42-0.08,0.92v6.32c0,0.51,0.03,0.83,0.09,0.97c0.06,0.14,0.17,0.24,0.34,0.31c0.12,0.04,0.42,0.07,0.89,0.07
					h0.83c0.53,0,0.97-0.09,1.32-0.28c0.35-0.18,0.66-0.48,0.91-0.88c0.26-0.4,0.5-0.99,0.73-1.77H221.91z"/>
				<path class="st3" d="M227.94,137.86v0.27h-5.19v-0.27h0.33c0.29,0,0.52-0.05,0.7-0.15c0.13-0.07,0.22-0.19,0.29-0.35
					c0.05-0.12,0.08-0.42,0.08-0.92v-6.52c0-0.51-0.03-0.82-0.08-0.95c-0.05-0.13-0.16-0.24-0.33-0.33
					c-0.16-0.1-0.38-0.14-0.66-0.14h-0.33v-0.27h5.19v0.27h-0.33c-0.29,0-0.52,0.05-0.7,0.15c-0.13,0.07-0.23,0.19-0.3,0.35
					c-0.05,0.12-0.08,0.42-0.08,0.92v6.52c0,0.51,0.03,0.82,0.08,0.95c0.06,0.13,0.17,0.24,0.33,0.33c0.16,0.1,0.38,0.14,0.66,0.14
					H227.94z"/>
				<path class="st3" d="M237.74,128.21v2.68h-0.26c-0.16-0.62-0.33-1.06-0.52-1.33c-0.19-0.27-0.45-0.49-0.78-0.65
					c-0.19-0.09-0.51-0.13-0.97-0.13h-0.74v7.65c0,0.51,0.03,0.82,0.08,0.95c0.06,0.13,0.17,0.24,0.33,0.33
					c0.16,0.1,0.39,0.14,0.67,0.14h0.33v0.27h-5.2v-0.27h0.33c0.29,0,0.52-0.05,0.7-0.15c0.13-0.07,0.23-0.19,0.3-0.35
					c0.05-0.12,0.08-0.42,0.08-0.92v-7.65h-0.72c-0.67,0-1.15,0.14-1.46,0.42c-0.43,0.4-0.69,0.96-0.81,1.69h-0.28v-2.68H237.74z"/>
				<path class="st3" d="M248.95,128.21v0.27c-0.33,0.04-0.58,0.14-0.75,0.29c-0.24,0.21-0.63,0.76-1.16,1.67l-2.15,3.59v2.4
					c0,0.51,0.03,0.83,0.08,0.95c0.05,0.12,0.16,0.23,0.32,0.33c0.16,0.1,0.37,0.14,0.63,0.14h0.56v0.27h-5.57v-0.27h0.52
					c0.29,0,0.52-0.05,0.7-0.15c0.13-0.07,0.23-0.19,0.3-0.35c0.05-0.12,0.08-0.42,0.08-0.92v-1.99l-2.34-4.25
					c-0.46-0.84-0.79-1.33-0.98-1.48c-0.19-0.15-0.44-0.23-0.76-0.23v-0.27h4.76v0.27h-0.21c-0.29,0-0.49,0.04-0.6,0.12
					c-0.12,0.08-0.17,0.17-0.17,0.26c0,0.18,0.2,0.62,0.59,1.32l1.79,3.28l1.79-2.99c0.45-0.73,0.67-1.22,0.67-1.46
					c0-0.13-0.06-0.24-0.19-0.33c-0.17-0.12-0.47-0.19-0.92-0.22v-0.27H248.95z"/>
			</g>
			<g>
				<path class="st3" d="M122.13,154.89v0.27h-5.19v-0.27h0.33c0.29,0,0.52-0.05,0.7-0.15c0.13-0.07,0.22-0.19,0.29-0.35
					c0.05-0.12,0.08-0.42,0.08-0.92v-6.52c0-0.51-0.03-0.82-0.08-0.95s-0.16-0.24-0.33-0.33c-0.16-0.1-0.38-0.14-0.66-0.14h-0.33
					v-0.27h5.19v0.27h-0.33c-0.29,0-0.52,0.05-0.7,0.15c-0.13,0.07-0.23,0.19-0.3,0.35c-0.05,0.12-0.08,0.42-0.08,0.92v6.52
					c0,0.51,0.03,0.82,0.08,0.95c0.06,0.13,0.17,0.24,0.33,0.33c0.16,0.1,0.38,0.14,0.66,0.14H122.13z"/>
				<path class="st3" d="M126.21,145.25l4.9,6.15v-4.26c0-0.6-0.09-1-0.26-1.21c-0.23-0.28-0.63-0.42-1.18-0.41v-0.27h3.28v0.27
					c-0.42,0.05-0.7,0.12-0.85,0.21c-0.14,0.09-0.26,0.22-0.34,0.42c-0.08,0.19-0.12,0.52-0.12,0.99v8.26h-0.25l-6.72-8.26v6.3
					c0,0.57,0.13,0.96,0.39,1.16c0.26,0.2,0.56,0.3,0.9,0.3h0.23v0.27h-3.52v-0.27c0.55-0.01,0.93-0.12,1.14-0.34
					c0.21-0.22,0.32-0.59,0.32-1.12v-7l-0.21-0.26c-0.21-0.26-0.4-0.44-0.56-0.52c-0.16-0.08-0.39-0.13-0.7-0.14v-0.27H126.21z"/>
				<path class="st3" d="M142.77,145.25v2.68h-0.26c-0.16-0.62-0.33-1.06-0.52-1.33c-0.19-0.27-0.45-0.49-0.78-0.65
					c-0.19-0.09-0.51-0.13-0.97-0.13h-0.74v7.65c0,0.51,0.03,0.82,0.08,0.95c0.06,0.13,0.17,0.24,0.33,0.33
					c0.16,0.1,0.39,0.14,0.67,0.14h0.33v0.27h-5.2v-0.27h0.33c0.29,0,0.52-0.05,0.7-0.15c0.13-0.07,0.23-0.19,0.3-0.35
					c0.05-0.12,0.08-0.42,0.08-0.92v-7.65h-0.72c-0.67,0-1.15,0.14-1.46,0.42c-0.42,0.4-0.69,0.96-0.81,1.69h-0.28v-2.68H142.77z"/>
				<path class="st3" d="M147.4,145.82v4.04h0.2c0.63,0,1.09-0.2,1.37-0.59c0.28-0.39,0.46-0.98,0.54-1.75h0.28v5.19h-0.28
					c-0.06-0.57-0.18-1.03-0.37-1.39c-0.19-0.36-0.41-0.6-0.66-0.73c-0.25-0.13-0.61-0.19-1.08-0.19v2.79c0,0.55,0.02,0.88,0.07,1
					c0.05,0.12,0.13,0.22,0.26,0.3c0.13,0.08,0.33,0.12,0.62,0.12h0.59c0.93,0,1.67-0.21,2.23-0.64c0.56-0.43,0.96-1.08,1.21-1.96
					h0.27l-0.45,3.15h-8.58v-0.27h0.33c0.29,0,0.52-0.05,0.7-0.15c0.13-0.07,0.22-0.19,0.29-0.35c0.05-0.12,0.08-0.42,0.08-0.92
					v-6.52c0-0.45-0.01-0.72-0.04-0.83c-0.05-0.17-0.14-0.3-0.27-0.39c-0.19-0.14-0.44-0.2-0.76-0.2h-0.33v-0.27h8.31v2.93h-0.28
					c-0.14-0.72-0.34-1.23-0.6-1.54c-0.26-0.31-0.62-0.54-1.09-0.69c-0.27-0.09-0.79-0.13-1.54-0.13H147.4z"/>
				<path class="st3" d="M157.3,150.64v2.78c0,0.54,0.03,0.87,0.1,1.01c0.07,0.14,0.18,0.25,0.35,0.33
					c0.17,0.08,0.48,0.13,0.93,0.13v0.27h-5.08v-0.27c0.46,0,0.77-0.04,0.93-0.13c0.16-0.09,0.28-0.2,0.34-0.33
					c0.07-0.14,0.1-0.47,0.1-1.01v-6.44c0-0.54-0.03-0.87-0.1-1.01c-0.07-0.14-0.18-0.25-0.35-0.33c-0.17-0.08-0.48-0.12-0.93-0.12
					v-0.27h4.61c1.2,0,2.08,0.08,2.64,0.25c0.56,0.17,1.01,0.47,1.36,0.92c0.35,0.45,0.53,0.97,0.53,1.57
					c0,0.73-0.26,1.34-0.79,1.81c-0.34,0.3-0.81,0.53-1.41,0.68l2.39,3.36c0.31,0.43,0.53,0.7,0.67,0.81
					c0.2,0.15,0.43,0.23,0.7,0.25v0.27h-3.13l-3.2-4.52H157.3z M157.3,145.78v4.34h0.42c0.68,0,1.19-0.06,1.52-0.19
					c0.34-0.12,0.6-0.35,0.79-0.67c0.19-0.32,0.29-0.75,0.29-1.27c0-0.76-0.18-1.31-0.53-1.67s-0.92-0.54-1.71-0.54H157.3z"/>
				<path class="st3" d="M167.89,145.25l4.9,6.15v-4.26c0-0.6-0.09-1-0.26-1.21c-0.23-0.28-0.63-0.42-1.18-0.41v-0.27h3.28v0.27
					c-0.42,0.05-0.7,0.12-0.85,0.21c-0.14,0.09-0.26,0.22-0.34,0.42c-0.08,0.19-0.12,0.52-0.12,0.99v8.26h-0.25l-6.72-8.26v6.3
					c0,0.57,0.13,0.96,0.39,1.16c0.26,0.2,0.56,0.3,0.9,0.3h0.23v0.27h-3.52v-0.27c0.55-0.01,0.93-0.12,1.14-0.34
					c0.21-0.22,0.32-0.59,0.32-1.12v-7l-0.21-0.26c-0.21-0.26-0.4-0.44-0.56-0.52c-0.16-0.08-0.39-0.13-0.7-0.14v-0.27H167.89z"/>
				<path class="st3" d="M181.23,152.34h-3.51l-0.42,0.97c-0.14,0.32-0.21,0.59-0.21,0.8c0,0.28,0.11,0.48,0.34,0.61
					c0.13,0.08,0.46,0.14,0.97,0.18v0.27h-3.3v-0.27c0.36-0.05,0.65-0.2,0.88-0.44c0.23-0.24,0.51-0.74,0.85-1.5l3.55-7.91h0.14
					l3.58,8.13c0.34,0.77,0.62,1.26,0.84,1.46c0.17,0.15,0.4,0.24,0.7,0.26v0.27h-4.8v-0.27h0.2c0.38,0,0.66-0.05,0.81-0.16
					c0.11-0.08,0.16-0.19,0.16-0.34c0-0.09-0.01-0.18-0.04-0.27c-0.01-0.04-0.08-0.23-0.22-0.55L181.23,152.34z M180.98,151.8
					l-1.48-3.41l-1.52,3.41H180.98z"/>
				<path class="st3" d="M194.17,145.25v2.68h-0.26c-0.16-0.62-0.33-1.06-0.52-1.33c-0.19-0.27-0.45-0.49-0.78-0.65
					c-0.19-0.09-0.51-0.13-0.97-0.13h-0.74v7.65c0,0.51,0.03,0.82,0.08,0.95c0.06,0.13,0.17,0.24,0.33,0.33
					c0.16,0.1,0.39,0.14,0.67,0.14h0.33v0.27h-5.2v-0.27h0.33c0.29,0,0.52-0.05,0.7-0.15c0.13-0.07,0.23-0.19,0.3-0.35
					c0.05-0.12,0.08-0.42,0.08-0.92v-7.65h-0.72c-0.67,0-1.16,0.14-1.46,0.42c-0.42,0.4-0.69,0.96-0.8,1.69h-0.28v-2.68H194.17z"/>
				<path class="st3" d="M200.2,154.89v0.27h-5.19v-0.27h0.33c0.29,0,0.52-0.05,0.7-0.15c0.13-0.07,0.22-0.19,0.29-0.35
					c0.05-0.12,0.08-0.42,0.08-0.92v-6.52c0-0.51-0.03-0.82-0.08-0.95s-0.16-0.24-0.33-0.33c-0.16-0.1-0.38-0.14-0.66-0.14h-0.33
					v-0.27h5.19v0.27h-0.33c-0.29,0-0.52,0.05-0.7,0.15c-0.13,0.07-0.23,0.19-0.3,0.35c-0.05,0.12-0.08,0.42-0.08,0.92v6.52
					c0,0.51,0.03,0.82,0.08,0.95c0.06,0.13,0.17,0.24,0.33,0.33c0.16,0.1,0.38,0.14,0.66,0.14H200.2z"/>
				<path class="st3" d="M206.34,145.11c1.58-0.06,2.87,0.4,3.86,1.38c0.99,0.98,1.48,2.21,1.48,3.68c0,1.26-0.37,2.36-1.11,3.32
					c-0.98,1.27-2.36,1.9-4.14,1.9c-1.79,0-3.17-0.6-4.15-1.81c-0.77-0.96-1.16-2.09-1.16-3.4c0-1.47,0.5-2.7,1.51-3.68
					C203.64,145.51,204.88,145.05,206.34,145.11z M206.43,145.57c-0.91,0-1.6,0.46-2.07,1.39c-0.39,0.76-0.58,1.85-0.58,3.28
					c0,1.69,0.3,2.94,0.89,3.75c0.42,0.57,1,0.85,1.74,0.85c0.5,0,0.92-0.12,1.26-0.37c0.43-0.31,0.76-0.81,1-1.5
					c0.24-0.68,0.36-1.58,0.36-2.68c0-1.31-0.12-2.29-0.37-2.94c-0.24-0.65-0.56-1.11-0.93-1.38
					C207.36,145.71,206.92,145.57,206.43,145.57z"/>
				<path class="st3" d="M215.95,145.25l4.9,6.15v-4.26c0-0.6-0.09-1-0.26-1.21c-0.23-0.28-0.63-0.42-1.18-0.41v-0.27h3.28v0.27
					c-0.42,0.05-0.7,0.12-0.85,0.21c-0.14,0.09-0.26,0.22-0.34,0.42c-0.08,0.19-0.12,0.52-0.12,0.99v8.26h-0.25l-6.72-8.26v6.3
					c0,0.57,0.13,0.96,0.39,1.16c0.26,0.2,0.56,0.3,0.9,0.3h0.23v0.27h-3.52v-0.27c0.55-0.01,0.93-0.12,1.14-0.34
					c0.21-0.22,0.32-0.59,0.32-1.12v-7l-0.21-0.26c-0.21-0.26-0.4-0.44-0.56-0.52c-0.16-0.08-0.39-0.13-0.7-0.14v-0.27H215.95z"/>
				<path class="st3" d="M229.29,152.34h-3.51l-0.42,0.97c-0.14,0.32-0.21,0.59-0.21,0.8c0,0.28,0.11,0.48,0.34,0.61
					c0.13,0.08,0.46,0.14,0.97,0.18v0.27h-3.3v-0.27c0.36-0.05,0.65-0.2,0.88-0.44c0.23-0.24,0.51-0.74,0.85-1.5l3.55-7.91h0.14
					l3.58,8.13c0.34,0.77,0.62,1.26,0.84,1.46c0.17,0.15,0.4,0.24,0.7,0.26v0.27h-4.8v-0.27h0.2c0.39,0,0.66-0.05,0.81-0.16
					c0.11-0.08,0.16-0.19,0.16-0.34c0-0.09-0.01-0.18-0.04-0.27c-0.01-0.04-0.08-0.23-0.22-0.55L229.29,152.34z M229.04,151.8
					l-1.48-3.41l-1.52,3.41H229.04z"/>
				<path class="st3" d="M243.35,151.68l-0.37,3.48h-8.82v-0.27h0.33c0.29,0,0.52-0.05,0.7-0.15c0.13-0.07,0.22-0.19,0.29-0.35
					c0.05-0.12,0.08-0.42,0.08-0.92v-6.52c0-0.51-0.03-0.82-0.08-0.95c-0.05-0.13-0.16-0.24-0.33-0.33
					c-0.16-0.1-0.38-0.14-0.66-0.14h-0.33v-0.27h5.29v0.27h-0.43c-0.29,0-0.52,0.05-0.7,0.15c-0.13,0.07-0.23,0.19-0.3,0.35
					c-0.05,0.12-0.08,0.42-0.08,0.92v6.32c0,0.51,0.03,0.83,0.09,0.97c0.06,0.14,0.17,0.24,0.34,0.31c0.12,0.04,0.42,0.07,0.89,0.07
					h0.83c0.53,0,0.97-0.09,1.32-0.28c0.35-0.18,0.66-0.48,0.91-0.88c0.26-0.4,0.5-0.99,0.73-1.77H243.35z"/>
			</g>
		</g>
	</g>
</g>
</svg>
