<?xml version="1.0" encoding="utf-8"?>
<!-- Generator: Adobe Illustrator 17.0.0, SVG Export Plug-In . SVG Version: 6.00 Build 0)  -->
<!DOCTYPE svg PUBLIC "-//W3C//DTD SVG 1.1//EN" "http://www.w3.org/Graphics/SVG/1.1/DTD/svg11.dtd">
<svg version="1.1" id="Capa_1" xmlns="http://www.w3.org/2000/svg" xmlns:xlink="http://www.w3.org/1999/xlink" x="0px" y="0px"
	 width="1500px" height="1500px" viewBox="0 0 1500 1500" enable-background="new 0 0 1500 1500" xml:space="preserve">
<g>
	<g>
		<path fill="#2B4092" d="M727.3,392.4C645.9,357.65,532,353.95,458,407.95c-48.1,35.5-62.9,99.15-50.3,155.35
			c9.6,53.25,59.9,92.5,108,110.95c65.85,23.7,134.65,40.7,201.25,63.65c6.65,2.95,15.55,9.6,14.05,17.75
			c0,6.65-6.65,10.35-11.85,13.3c-69.55,19.25-145,4.45-195.3-48.85c-5.9-7.4-9.6-16.3-15.55-23.65l-99.9,0.75
			c-1.5,59.9-2.2,128.75,0,187.9l110.95-0.75l1.5-35.5c12.6,5.9,25.15,13.3,37.75,20c76.95,32.55,176.1,39.95,252.3,0
			c55.5-31.05,85.1-91,76.95-155.35c-8.15-62.9-67.3-119.85-127.25-135.4l-179.05-52.55l-13.3-6.65c-5.9-5.2-9.6-11.85-8.15-20
			c14.05-24.4,46.6-17,71-16.25c51.8,7.4,105.05,25.15,135.4,73.25c32.55,0,70.3,0.75,105.8-0.75c1.5-60.65-0.75-113.95-1.5-175.35
			c-33.3-0.75-74-0.75-107.3,0.75c-1.5,8.9,1.5,21.45-2.2,30.35L727.3,392.4z"/>
		<path fill="#2B4092" d="M1012.9,405.7c-54,28.1-89.5,83.6-100.6,140.55c-20,93.95-14.8,205.65,56.2,275.95
			c82.85,74,203.45,90.25,310.75,59.95c5.1-1,21.25-5.2,32.35-11.2l3.15-1.4c33.3-14.05,65.1-37,88.8-68.05
			c54.75-81.4,58.45-203.45,25.15-295.2c-13.3-35.5-40.7-67.3-74-90.25C1258.5,353.95,1112,349.5,1012.9,405.7z M1245.95,522.6
			c11.1,17,10.35,39.2,12.6,59.2c-0.75,42.15,2.95,92.45-4.45,135.4c-3.7,17.75-15.55,36.25-34.05,42.9
			c-29.6,13.3-69.55,9.6-96.9-5.9c-22.95-16.3-25.9-43.65-28.85-69.55c-2.2-51.05-5.9-105.05,8.15-151.65
			c11.1-28.85,41.45-36.25,68.8-38.45C1200.05,494.5,1228.15,498.95,1245.95,522.6z"/>
		<path fill="#2B4092" d="M1198.6,940.6c-31.05,45.15-70.3,88.8-113.2,122.8c-1.5,2.2-5.9,1.45-7.4-0.75
			c-18.5-11.85-38.45-21.45-56.2-33.3c23.7-28.85,46.6-57.7,64.35-89.5h-22.95c-18.5,27.4-37.75,56.25-62.15,80.65
			c-32.55-13.3-62.15-25.15-95.45-34.05l-3.7-2.95c5.2-14.8,14.8-28.85,17.75-43.65h-20l-20,39.95C836,970.2,787.9,965,743.5,962.05
			c-2.2-6.65,0.75-16.3-2.2-22.2h-19.25c-1.5,8.9,2.2,15.55-2.2,22.95C674,965,629.6,970.2,586.7,979.05l-19.95-39.2
			c-7.4,0-15.55-1.5-20.7,0.75l18.5,43.65l-2.2,2.2c-33.3,9.6-65.85,21.45-97.65,34.75l-2.95-1.5c-20.7-22.95-40.7-48.1-56.95-73.25
			c-3.7-12.6-18.5-5.2-26.65-6.65c17.75,32.55,41.45,61.4,65.1,91c-20,11.85-39.95,25.15-60.65,34.75
			c-44.4-34.05-85.8-78.45-116.9-125.05c-8.9-1.45-14.8-0.75-23.7,0c53.25,84.35,136.15,158.35,222.7,201.95c0,0,0-0.75,0.75-0.75
			s2.2,1.5,0.75,2.2c58.45,28.85,120.6,49.55,186.45,58.45c227.15,30.35,443.9-68.05,569.65-261.9
			C1215.6,939.85,1206,939.85,1198.6,940.6z M890.1,1007.2l2.2-1.5c31.8,7.4,62.15,17.75,90.25,31.8c-23.65,27.35-54,51.05-82.1,71
			c-17,10.35-34.05,21.45-51.8,30.35l-31.8-14.05l2.2-5.2C845.7,1083.4,869.35,1046.4,890.1,1007.2z M744.35,985
			c42.15,0.75,84.35,5.15,123.55,14.8l0.75,2.2c-20.7,39.95-46.6,78.45-74.7,114.65c-12.6,1.5-24.4-3.7-37-4.45l-12.6-1.45
			C742.85,1067.1,742.1,1028.65,744.35,985z M601.55,998.3C640,990.9,679.95,985,721.4,985l0.75,125.05
			c-15.55,3.7-32.55,3.7-47.35,7.4c-30.35-36.25-55.5-75.45-76.95-116.15L601.55,998.3z M482.45,1038.25
			c28.85-14.05,59.2-24.4,90.25-32.55l2.95,0.75c21.45,40.7,48.1,79.15,74.7,117.65c-10.35,5.9-22.95,9.6-33.3,15.55
			c-48.85-24.4-95.45-58.45-134.65-99.15v-2.25H482.45z M577.85,1164.75c-62.15-16.25-119.85-44.4-173.1-82.85v-2.2
			c17.75-11.1,35.5-22.95,54.75-31.05c42.15,42.15,85.8,74,133.15,104.3C588.95,1157.4,583.05,1161.8,577.85,1164.75z
			 M852.35,1174.4c-78.4,17-165.7,17.75-244.15-1.5c-1.5-3.7,3.7-4.45,5.9-6.65c68.8-45.15,176.1-45.15,243.4,3.7
			C859.75,1174.4,853.8,1172.9,852.35,1174.4z M923.35,1153.7l-34.75,11.1c-5.9-2.95-11.1-7.4-16.3-11.85l1.5-2.2
			c47.35-28.1,90.25-62.15,130.95-102.85c19.95,8.15,39.2,19.25,56.95,31.8C1020.3,1113,972.2,1135.2,923.35,1153.7z"/>
		<path fill="#2B4092" d="M377.35,885.1V763.05c-24.4-1.45-51.8,0.75-75.45-2.2l0.75-259.7l1.5-2.2l73.25-0.75
			c0.75-42.15,1.5-87.3-0.75-125.75l-278.9-0.75l-45.85,0.75c-0.75,39.2-0.75,85.1,0,125.05c25.15,0.75,48.85,0,73.25,2.2v251.55
			l-0.75,10.35l-73.25,1.45c-1.5,41.45-1.5,81.4,0,122.05H377.35z"/>
		<path fill="#2B4092" d="M264.2,315.45c17.75-25.15,37.75-49.55,59.95-73.25c19.25-18.5,37-36.25,57.7-49.55
			c19.25,12.6,40.7,22.95,59.2,34.75c-22.95,28.85-46.6,57.7-63.65,88.8c5.2,2.2,14.8,1.5,22.2,0c18.5-27.4,38.45-54.75,62.15-79.15
			c31.8,11.85,62.9,24.4,95.45,33.3l2.95,2.95l-18.5,42.9c8.15,1.5,13.3,0.75,21.45,0c6.65-12.6,11.85-26.65,19.25-39.2
			c42.9,9.6,88.05,14.8,133.9,16.3c5.9,5.2,1.5,16.25,3.7,22.95h20c2.2-7.4-0.75-15.55,2.2-22.2c42.9-2.2,88.05-6.65,129.45-17
			l3.7,0.75l19.95,38.45c6.65,0,15.55,1.5,20.7-1.5l-18.5-42.9l1.45-1.5c34.05-8.9,65.85-22.2,98.4-35.5
			c22.95,24.4,44.4,53.25,63.6,81.4c8.15,0,16.3,0.75,22.2-1.5c-8.9-16.3-20-32.55-31.8-46.6c-9.6-14.05-20-26.65-32.55-39.95v-3.7
			l51.8-30.35l7.4-2.95c45.15,34.75,85.1,76.95,116.9,123.55c8.9,0,16.3,2.95,23.7-0.75C1119.4,163.1,955.9,66.15,779.1,52.1
			l-0.75,1.5l-1.5-1.5c-19.95-2.2-44.4-2.95-65.85-0.75c-8.15-0.75-17.75,0-27.35,0.75C506.1,66.15,342.6,158.65,240.5,316.2
			C247.9,315.45,256.8,318.4,264.2,315.45z M571.2,250.35l-2.95,0.75c-30.35-8.15-59.95-17.75-88.05-30.35l1.5-4.45
			c40.7-39.2,83.6-71.75,130.95-96.9c11.1,4.45,22.2,8.15,33.3,13.3l-2.2,5.9C615.6,174.15,593.4,212.6,571.2,250.35z
			 M718.45,270.35c-20.7,2.95-39.2-0.75-59.95-2.2c-20-2.95-45.15-5.2-65.1-11.85c21.45-40.7,46.6-79.9,76.95-116.15l47.35,6.65
			C719.9,185.25,718.45,229.65,718.45,270.35z M741.35,271.05c-1.5-39.2-0.75-82.85,0-123.55c14.8-2.2,31.05-4.45,45.85-6.65
			c28.85,37,56.95,74.7,76.2,115.4C823.5,265.9,782.8,271.05,741.35,271.05z M977.35,219.3c-28.85,12.55-58.45,24.4-90.25,31.05
			c-22.95-39.2-48.1-78.4-76.2-116.15c10.35-5.9,22.95-10.35,34.05-16.3c48.1,24.4,94.7,59.2,133.9,99.15L977.35,219.3z
			 M882.7,92.75c62.15,16.3,120.6,44.4,173.85,82.85l-1.5,2.95L1004,207.4h-3.7c-39.2-39.95-85.1-74.7-131.7-102.1
			C870.1,100.15,877.5,96.45,882.7,92.75z M853.1,85.35v1.5c-64.35,47.35-168.7,51.8-236.75,8.15c-3.7-2.95-11.1-4.45-11.85-9.6
			C682.9,66.9,775.4,65.4,853.1,85.35z M401.8,177.1c46.6-34.75,98.4-60.65,153.15-78.4c2.2-2.2,3.7-4.45,6.65-4.45v1.5
			c5.9,1.5,10.35-5.2,15.55-0.75c4.45,3.7,9.6,6.65,13.3,10.35c-45.85,28.85-91,62.9-132.45,104.3c-20-7.4-38.45-18.5-56.25-31.05
			v-1.5H401.8z"/>
	</g>
</g>
<g>
	<path fill="#2B4092" d="M530.535,1408.787v21.112H412.287c-0.164-5.287,0.69-10.373,2.562-15.255
		c3.009-8.053,7.83-15.986,14.461-23.796c6.63-7.81,16.21-16.84,28.739-27.091c19.443-15.944,32.582-28.574,39.416-37.891
		c6.834-9.315,10.251-18.122,10.251-26.42c0-8.704-3.112-16.047-9.336-22.026c-6.223-5.98-14.338-8.969-24.345-8.969
		c-10.577,0-19.037,3.172-25.383,9.517c-6.346,6.346-9.561,15.132-9.64,26.359l-22.576-2.318c1.545-16.84,7.362-29.673,17.45-38.501
		c10.087-8.826,23.633-13.241,40.637-13.241c17.165,0,30.752,4.759,40.759,14.278c10.007,9.517,15.01,21.315,15.01,35.388
		c0,7.16-1.464,14.198-4.393,21.112c-2.929,6.916-7.791,14.198-14.584,21.843c-6.794,7.648-18.082,18.143-33.864,31.485
		c-13.179,11.064-21.641,18.569-25.383,22.514c-3.743,3.947-6.834,7.914-9.274,11.898H530.535z"/>
	<path fill="#2B4092" d="M668.064,1294.81l-21.843,1.707c-1.953-8.621-4.72-14.887-8.298-18.792
		c-5.94-6.264-13.262-9.397-21.966-9.397c-6.998,0-13.139,1.953-18.426,5.858c-6.916,5.045-12.368,12.407-16.353,22.088
		c-3.986,9.682-6.061,23.471-6.223,41.368c5.287-8.054,11.755-14.033,19.402-17.938c7.646-3.905,15.66-5.858,24.041-5.858
		c14.644,0,27.11,5.39,37.403,16.168c10.291,10.781,15.437,24.712,15.437,41.796c0,11.227-2.422,21.66-7.262,31.301
		c-4.841,9.64-11.492,17.023-19.952,22.148c-8.462,5.125-18.061,7.689-28.799,7.689c-18.305,0-33.235-6.731-44.786-20.197
		c-11.552-13.464-17.327-35.652-17.327-66.568c0-34.575,6.385-59.713,19.158-75.416c11.144-13.668,26.155-20.501,45.029-20.501
		c14.074,0,25.607,3.947,34.597,11.838C660.884,1269.997,666.274,1280.897,668.064,1294.81z M578.371,1371.934
		c0,7.565,1.606,14.808,4.82,21.721c3.213,6.916,7.707,12.184,13.485,15.804c5.775,3.621,11.837,5.431,18.182,5.431
		c9.274,0,17.247-3.741,23.918-11.227c6.67-7.485,10.008-17.653,10.008-30.509c0-12.365-3.295-22.106-9.885-29.226
		c-6.59-7.118-14.888-10.677-24.894-10.677c-9.926,0-18.347,3.56-25.26,10.677C581.828,1351.047,578.371,1360.383,578.371,1371.934z
		"/>
	<path fill="#2B4092" d="M693.082,1341.67c0-21.152,2.175-38.175,6.528-51.071c4.351-12.894,10.819-22.839,19.403-29.837
		c8.582-6.995,19.382-10.495,32.399-10.495c9.599,0,18.019,1.934,25.261,5.796c7.239,3.865,13.22,9.438,17.939,16.719
		c4.716,7.282,8.42,16.149,11.104,26.603c2.685,10.455,4.028,24.549,4.028,42.284c0,20.99-2.158,37.932-6.468,50.825
		c-4.313,12.895-10.76,22.862-19.342,29.898c-8.583,7.038-19.424,10.556-32.522,10.556c-17.248,0-30.793-6.182-40.636-18.549
		C698.979,1399.512,693.082,1375.271,693.082,1341.67z M715.658,1341.67c0,29.369,3.436,48.915,10.312,58.635
		c6.874,9.722,15.355,14.584,25.443,14.584c10.087,0,18.569-4.881,25.444-14.644c6.874-9.763,10.312-29.288,10.312-58.575
		c0-29.45-3.438-49.016-10.312-58.698c-6.875-9.68-15.436-14.521-25.687-14.521c-10.089,0-18.143,4.271-24.163,12.813
		C719.441,1292.167,715.658,1312.302,715.658,1341.67z"/>
	<path fill="#2B4092" d="M832.077,1341.67c0-21.152,2.175-38.175,6.528-51.071c4.351-12.894,10.819-22.839,19.403-29.837
		c8.582-6.995,19.382-10.495,32.399-10.495c9.599,0,18.019,1.934,25.261,5.796c7.239,3.865,13.22,9.438,17.939,16.719
		c4.716,7.282,8.42,16.149,11.104,26.603c2.685,10.455,4.028,24.549,4.028,42.284c0,20.99-2.158,37.932-6.468,50.825
		c-4.313,12.895-10.76,22.862-19.342,29.898c-8.583,7.038-19.424,10.556-32.522,10.556c-17.248,0-30.793-6.182-40.636-18.549
		C837.974,1399.512,832.077,1375.271,832.077,1341.67z M854.652,1341.67c0,29.369,3.436,48.915,10.312,58.635
		c6.874,9.722,15.355,14.584,25.443,14.584c10.087,0,18.569-4.881,25.444-14.644c6.874-9.763,10.312-29.288,10.312-58.575
		c0-29.45-3.438-49.016-10.312-58.698c-6.875-9.68-15.436-14.521-25.687-14.521c-10.089,0-18.143,4.271-24.163,12.813
		C858.436,1292.167,854.652,1312.302,854.652,1341.67z"/>
	<path fill="#2B4092" d="M971.071,1341.67c0-21.152,2.175-38.175,6.528-51.071c4.351-12.894,10.819-22.839,19.402-29.837
		c8.582-6.995,19.382-10.495,32.399-10.495c9.599,0,18.019,1.934,25.261,5.796c7.239,3.865,13.219,9.438,17.939,16.719
		c4.716,7.282,8.42,16.149,11.104,26.603c2.685,10.455,4.028,24.549,4.028,42.284c0,20.99-2.158,37.932-6.468,50.825
		c-4.313,12.895-10.76,22.862-19.342,29.898c-8.583,7.038-19.424,10.556-32.522,10.556c-17.248,0-30.793-6.182-40.636-18.549
		C976.967,1399.512,971.071,1375.271,971.071,1341.67z M993.646,1341.67c0,29.369,3.436,48.915,10.312,58.635
		c6.874,9.722,15.355,14.584,25.443,14.584c10.087,0,18.569-4.881,25.444-14.644c6.874-9.763,10.312-29.288,10.312-58.575
		c0-29.45-3.438-49.016-10.312-58.698c-6.875-9.68-15.436-14.521-25.687-14.521c-10.089,0-18.143,4.271-24.163,12.813
		C997.43,1292.167,993.646,1312.302,993.646,1341.67z"/>
</g>
</svg>
