<?xml version="1.0" encoding="utf-8"?>
<!-- Generator: Adobe Illustrator 23.0.0, SVG Export Plug-In . SVG Version: 6.00 Build 0)  -->
<svg version="1.1" id="Capa_1" xmlns="http://www.w3.org/2000/svg" xmlns:xlink="http://www.w3.org/1999/xlink" x="0px" y="0px"
	 viewBox="0 0 300 300" style="enable-background:new 0 0 300 300;" xml:space="preserve">
<style type="text/css">
	.st0{fill:#2B4092;}
</style>
<g>
	<g>
		<g>
			<path class="st0" d="M146.6,114.52c-12.21-5.22-29.3-5.77-40.39,2.33c-7.21,5.33-9.43,14.87-7.55,23.3
				c1.44,7.99,8.99,13.87,16.2,16.65c9.88,3.55,20.2,6.1,30.19,9.54c1,0.44,2.33,1.44,2.11,2.66c0,1-1,1.55-1.78,2
				c-10.43,2.88-21.75,0.67-29.3-7.32c-0.89-1.11-1.44-2.44-2.33-3.55l-14.98,0.11c-0.22,8.99-0.33,19.31,0,28.19l16.65-0.11
				l0.22-5.33c1.89,0.89,3.77,2,5.66,3c11.54,4.88,26.41,5.99,37.84,0c8.32-4.66,12.76-13.65,11.54-23.3
				c-1.22-9.43-10.1-17.98-19.09-20.31l-26.86-7.88l-2-1c-0.89-0.78-1.44-1.78-1.22-3c2.11-3.66,6.99-2.55,10.65-2.44
				c7.77,1.11,15.76,3.77,20.31,10.99c4.88,0,10.54,0.11,15.87-0.11c0.22-9.1-0.11-17.09-0.22-26.3c-4.99-0.11-11.1-0.11-16.09,0.11
				c-0.22,1.33,0.22,3.22-0.33,4.55L146.6,114.52z"/>
			<path class="st0" d="M189.43,116.51c-8.1,4.22-13.43,12.54-15.09,21.08c-3,14.09-2.22,30.85,8.43,41.39
				c12.43,11.1,30.52,13.54,46.61,8.99c0.76-0.15,3.19-0.78,4.86-1.68l0.47-0.21c4.99-2.11,9.77-5.55,13.32-10.21
				c8.21-12.21,8.77-30.52,3.77-44.28c-2-5.33-6.1-10.1-11.1-13.54C226.28,108.74,204.3,108.08,189.43,116.51z M224.39,134.05
				c1.66,2.55,1.55,5.88,1.89,8.88c-0.11,6.33,0.44,13.87-0.67,20.31c-0.55,2.66-2.33,5.44-5.1,6.44c-4.44,2-10.43,1.44-14.54-0.89
				c-3.44-2.44-3.88-6.55-4.33-10.43c-0.33-7.66-0.89-15.76,1.22-22.75c1.66-4.33,6.22-5.44,10.32-5.77
				C217.51,129.83,221.73,130.5,224.39,134.05z"/>
			<path class="st0" d="M217.29,196.75c-4.66,6.77-10.54,13.32-16.98,18.42c-0.22,0.33-0.89,0.22-1.11-0.11
				c-2.77-1.78-5.77-3.22-8.43-4.99c3.55-4.33,6.99-8.66,9.65-13.43h-3.44c-2.77,4.11-5.66,8.43-9.32,12.1
				c-4.88-2-9.32-3.77-14.32-5.1l-0.55-0.44c0.78-2.22,2.22-4.33,2.66-6.55h-3l-3,5.99c-6.55-1.44-13.76-2.22-20.42-2.66
				c-0.33-1,0.11-2.44-0.33-3.33h-2.88c-0.22,1.33,0.33,2.33-0.33,3.44c-6.88,0.33-13.54,1.11-19.98,2.44l-3-5.88
				c-1.11,0-2.33-0.22-3.11,0.11l2.77,6.55l-0.33,0.33c-4.99,1.44-9.88,3.22-14.65,5.22l-0.44-0.22c-3.11-3.44-6.1-7.21-8.55-10.99
				c-0.55-1.89-2.77-0.78-3.99-1c2.66,4.88,6.21,9.21,9.77,13.65c-3,1.78-5.99,3.77-9.1,5.22c-6.66-5.11-12.87-11.76-17.53-18.75
				c-1.33-0.22-2.22-0.11-3.55,0c7.99,12.65,20.42,23.75,33.4,30.3c0,0,0-0.11,0.11-0.11c0.11,0,0.33,0.22,0.11,0.33
				c8.77,4.33,18.09,7.43,27.97,8.77c34.07,4.55,66.58-10.21,85.45-39.29C219.84,196.64,218.4,196.64,217.29,196.75z M171.01,206.74
				l0.33-0.22c4.77,1.11,9.32,2.66,13.54,4.77c-3.55,4.11-8.1,7.66-12.32,10.65c-2.55,1.55-5.1,3.22-7.77,4.55l-4.77-2.11l0.33-0.78
				C164.35,218.16,167.9,212.62,171.01,206.74z M149.15,203.41c6.33,0.11,12.65,0.78,18.53,2.22l0.11,0.33
				c-3.11,5.99-6.99,11.76-11.21,17.2c-1.89,0.22-3.66-0.55-5.55-0.67l-1.89-0.22C148.93,215.72,148.82,209.95,149.15,203.41z
				 M127.73,205.4c5.77-1.11,11.76-2,17.98-2l0.11,18.75c-2.33,0.55-4.88,0.55-7.1,1.11c-4.55-5.44-8.32-11.32-11.54-17.42
				L127.73,205.4z M109.86,211.4c4.33-2.11,8.88-3.66,13.54-4.88l0.44,0.11c3.22,6.1,7.21,11.87,11.21,17.64
				c-1.55,0.89-3.44,1.44-4.99,2.33c-7.32-3.66-14.32-8.77-20.2-14.87V211.4z M124.18,230.37c-9.32-2.44-17.98-6.66-25.97-12.43
				v-0.33c2.66-1.66,5.33-3.44,8.21-4.66c6.33,6.32,12.87,11.1,19.98,15.65C125.84,229.26,124.96,229.93,124.18,230.37z
				 M165.35,231.82c-11.76,2.55-24.86,2.66-36.62-0.22c-0.22-0.55,0.55-0.67,0.89-1c10.32-6.77,26.41-6.77,36.51,0.55
				C166.46,231.82,165.57,231.59,165.35,231.82z M176.01,228.71l-5.22,1.66c-0.89-0.44-1.66-1.11-2.44-1.78l0.22-0.33
				c7.1-4.22,13.54-9.32,19.64-15.42c3,1.22,5.88,2.88,8.54,4.77C190.54,222.6,183.33,225.93,176.01,228.71z"/>
			<path class="st0" d="M94.11,188.42v-18.31c-3.66-0.22-7.77,0.11-11.32-0.33l0.11-38.95l0.22-0.33l10.99-0.11
				c0.11-6.33,0.22-13.09-0.11-18.87l-41.84-0.11l-6.88,0.11c-0.11,5.88-0.11,12.76,0,18.76c3.77,0.11,7.32,0,10.99,0.33v37.73
				l-0.11,1.55l-10.99,0.22c-0.22,6.22-0.22,12.21,0,18.31H94.11z"/>
			<path class="st0" d="M77.13,102.97c2.66-3.77,5.66-7.44,8.99-10.99c2.89-2.77,5.55-5.44,8.66-7.44c2.88,1.89,6.1,3.44,8.88,5.22
				c-3.44,4.33-6.99,8.66-9.54,13.32c0.78,0.33,2.22,0.22,3.33,0c2.77-4.11,5.77-8.21,9.32-11.87c4.77,1.78,9.43,3.66,14.32,4.99
				l0.44,0.44l-2.77,6.44c1.22,0.22,2,0.11,3.22,0c1-1.89,1.78-4,2.88-5.88c6.44,1.44,13.21,2.22,20.09,2.44
				c0.89,0.78,0.22,2.44,0.55,3.44h3c0.33-1.11-0.11-2.33,0.33-3.33c6.44-0.33,13.21-1,19.42-2.55l0.55,0.11l3,5.77
				c1,0,2.33,0.22,3.11-0.22l-2.77-6.44l0.22-0.22c5.11-1.33,9.88-3.33,14.76-5.33c3.44,3.66,6.66,7.99,9.54,12.21
				c1.22,0,2.44,0.11,3.33-0.22c-1.33-2.44-3-4.88-4.77-6.99c-1.44-2.11-3-4-4.88-5.99v-0.55l7.77-4.55l1.11-0.44
				c6.77,5.22,12.76,11.54,17.53,18.53c1.33,0,2.44,0.44,3.55-0.11c-14.87-22.64-39.4-37.18-65.92-39.28l-0.11,0.22l-0.22-0.22
				c-3-0.33-6.66-0.44-9.88-0.11c-1.22-0.11-2.66,0-4.11,0.11c-26.63,2.11-51.16,15.98-66.47,39.62
				C74.69,102.97,76.02,103.42,77.13,102.97z M123.18,93.21l-0.44,0.11c-4.55-1.22-8.99-2.66-13.21-4.55l0.22-0.67
				c6.1-5.88,12.54-10.76,19.64-14.54c1.66,0.67,3.33,1.22,4.99,2l-0.33,0.89C129.84,81.78,126.51,87.55,123.18,93.21z M145.27,96.2
				c-3.11,0.44-5.88-0.11-8.99-0.33c-3-0.44-6.77-0.78-9.77-1.78c3.22-6.1,6.99-11.99,11.54-17.42l7.1,1
				C145.49,83.44,145.27,90.1,145.27,96.2z M148.7,96.32c-0.22-5.88-0.11-12.43,0-18.53c2.22-0.33,4.66-0.67,6.88-1
				c4.33,5.55,8.55,11.21,11.43,17.31C161.02,95.54,154.92,96.32,148.7,96.32z M184.11,88.55c-4.33,1.89-8.77,3.66-13.54,4.66
				c-3.44-5.88-7.21-11.76-11.43-17.42c1.55-0.89,3.44-1.55,5.1-2.44c7.21,3.66,14.2,8.88,20.09,14.87L184.11,88.55z M169.9,69.57
				c9.32,2.44,18.09,6.66,26.08,12.43l-0.22,0.44l-7.66,4.33h-0.55c-5.88-5.99-12.76-11.21-19.75-15.31
				C168.01,70.68,169.12,70.13,169.9,69.57z M165.46,68.46v0.22c-9.66,7.1-25.3,7.77-35.51,1.22c-0.55-0.44-1.66-0.67-1.78-1.44
				C139.94,65.69,153.81,65.46,165.46,68.46z M97.77,82.22c6.99-5.22,14.76-9.1,22.97-11.76c0.33-0.33,0.55-0.67,1-0.67v0.22
				c0.89,0.22,1.55-0.78,2.33-0.11c0.67,0.55,1.44,1,2,1.55c-6.88,4.33-13.65,9.43-19.86,15.65c-3-1.11-5.77-2.77-8.43-4.66V82.22z"
				/>
		</g>
		<g>
			<path class="st0" d="M34.08,286.59v-8.57H18.55v-4.03l16.33-23.19h3.59v23.19h4.83v4.03h-4.83v8.57H34.08z M34.08,273.99v-16.14
				l-11.21,16.14H34.08z"/>
			<path class="st0" d="M47.8,277.21l4.61-0.39c0.34,2.25,1.14,3.93,2.38,5.07c1.25,1.13,2.75,1.7,4.5,1.7
				c2.12,0,3.91-0.8,5.37-2.39c1.46-1.59,2.2-3.71,2.2-6.35c0-2.51-0.7-4.48-2.11-5.93c-1.41-1.45-3.25-2.17-5.53-2.17
				c-1.42,0-2.69,0.32-3.83,0.96c-1.14,0.64-2.03,1.48-2.69,2.5l-4.13-0.54l3.47-18.38h17.8v4.2H55.57l-1.93,9.62
				c2.15-1.5,4.4-2.25,6.76-2.25c3.13,0,5.76,1.08,7.91,3.25c2.15,2.17,3.22,4.95,3.22,8.35c0,3.24-0.94,6.04-2.83,8.4
				c-2.29,2.9-5.43,4.35-9.4,4.35c-3.26,0-5.91-0.91-7.97-2.73C49.27,282.64,48.1,280.23,47.8,277.21z"/>
			<path class="st0" d="M75.61,268.94c0-4.23,0.44-7.64,1.31-10.22c0.87-2.58,2.16-4.57,3.88-5.97c1.72-1.4,3.88-2.1,6.48-2.1
				c1.92,0,3.6,0.39,5.05,1.16c1.45,0.77,2.64,1.89,3.59,3.34c0.94,1.46,1.68,3.23,2.22,5.32c0.54,2.09,0.81,4.91,0.81,8.46
				c0,4.2-0.43,7.59-1.29,10.17c-0.86,2.58-2.15,4.57-3.87,5.98c-1.72,1.41-3.89,2.11-6.51,2.11c-3.45,0-6.16-1.24-8.13-3.71
				C76.79,280.51,75.61,275.66,75.61,268.94z M80.13,268.94c0,5.88,0.69,9.79,2.06,11.73c1.38,1.94,3.07,2.92,5.09,2.92
				c2.02,0,3.71-0.98,5.09-2.93c1.38-1.95,2.06-5.86,2.06-11.72c0-5.89-0.69-9.81-2.06-11.74c-1.38-1.94-3.09-2.91-5.14-2.91
				c-2.02,0-3.63,0.85-4.83,2.56C80.88,259.04,80.13,263.06,80.13,268.94z"/>
			<path class="st0" d="M103.42,268.94c0-4.23,0.44-7.64,1.31-10.22c0.87-2.58,2.16-4.57,3.88-5.97c1.72-1.4,3.88-2.1,6.48-2.1
				c1.92,0,3.6,0.39,5.05,1.16c1.45,0.77,2.64,1.89,3.59,3.34c0.94,1.46,1.68,3.23,2.22,5.32c0.54,2.09,0.81,4.91,0.81,8.46
				c0,4.2-0.43,7.59-1.29,10.17c-0.86,2.58-2.15,4.57-3.87,5.98c-1.72,1.41-3.89,2.11-6.51,2.11c-3.45,0-6.16-1.24-8.13-3.71
				C104.6,280.51,103.42,275.66,103.42,268.94z M107.93,268.94c0,5.88,0.69,9.79,2.06,11.73c1.38,1.94,3.07,2.92,5.09,2.92
				c2.02,0,3.71-0.98,5.09-2.93c1.38-1.95,2.06-5.86,2.06-11.72c0-5.89-0.69-9.81-2.06-11.74c-1.38-1.94-3.09-2.91-5.14-2.91
				c-2.02,0-3.63,0.85-4.83,2.56C108.69,259.04,107.93,263.06,107.93,268.94z"/>
			<path class="st0" d="M147.78,286.59h-4.39v-28c-1.06,1.01-2.45,2.02-4.16,3.03c-1.72,1.01-3.26,1.77-4.63,2.27v-4.25
				c2.46-1.16,4.61-2.55,6.45-4.2c1.84-1.64,3.14-3.24,3.91-4.79h2.83V286.59z"/>
			<path class="st0" d="M161.47,265.67v-5h5v5H161.47z M161.47,286.59v-5h5v5H161.47z"/>
			<path class="st0" d="M196.02,282.37v4.22h-23.66c-0.03-1.06,0.14-2.08,0.51-3.05c0.6-1.61,1.57-3.2,2.89-4.76
				c1.33-1.56,3.24-3.37,5.75-5.42c3.89-3.19,6.52-5.72,7.89-7.58c1.37-1.86,2.05-3.63,2.05-5.29c0-1.74-0.62-3.21-1.87-4.41
				c-1.25-1.2-2.87-1.79-4.87-1.79c-2.12,0-3.81,0.63-5.08,1.9s-1.91,3.03-1.93,5.27l-4.52-0.46c0.31-3.37,1.47-5.94,3.49-7.7
				c2.02-1.77,4.73-2.65,8.13-2.65c3.43,0,6.15,0.95,8.15,2.86s3,4.26,3,7.08c0,1.43-0.29,2.84-0.88,4.22
				c-0.59,1.38-1.56,2.84-2.92,4.37c-1.36,1.53-3.62,3.63-6.78,6.3c-2.64,2.21-4.33,3.71-5.08,4.5c-0.75,0.79-1.37,1.58-1.86,2.38
				H196.02z"/>
			<path class="st0" d="M200.73,268.94c0-4.23,0.44-7.64,1.31-10.22c0.87-2.58,2.16-4.57,3.88-5.97c1.72-1.4,3.88-2.1,6.48-2.1
				c1.92,0,3.61,0.39,5.05,1.16c1.45,0.77,2.64,1.89,3.59,3.34c0.94,1.46,1.68,3.23,2.22,5.32c0.54,2.09,0.81,4.91,0.81,8.46
				c0,4.2-0.43,7.59-1.29,10.17c-0.86,2.58-2.15,4.57-3.87,5.98c-1.72,1.41-3.89,2.11-6.51,2.11c-3.45,0-6.16-1.24-8.13-3.71
				C201.91,280.51,200.73,275.66,200.73,268.94z M205.25,268.94c0,5.88,0.69,9.79,2.06,11.73c1.38,1.94,3.07,2.92,5.09,2.92
				c2.02,0,3.71-0.98,5.09-2.93s2.06-5.86,2.06-11.72c0-5.89-0.69-9.81-2.06-11.74c-1.38-1.94-3.09-2.91-5.14-2.91
				c-2.02,0-3.63,0.85-4.83,2.56C206.01,259.04,205.25,263.06,205.25,268.94z"/>
			<path class="st0" d="M245.09,286.59h-4.39v-28c-1.06,1.01-2.45,2.02-4.16,3.03c-1.72,1.01-3.26,1.77-4.63,2.27v-4.25
				c2.46-1.16,4.61-2.55,6.45-4.2c1.84-1.64,3.14-3.24,3.91-4.79h2.83V286.59z"/>
			<path class="st0" d="M279.15,259.56l-4.37,0.34c-0.39-1.72-0.94-2.98-1.66-3.76c-1.19-1.25-2.65-1.88-4.39-1.88
				c-1.4,0-2.63,0.39-3.69,1.17c-1.38,1.01-2.47,2.48-3.27,4.42c-0.8,1.94-1.21,4.7-1.25,8.28c1.06-1.61,2.35-2.81,3.88-3.59
				c1.53-0.78,3.13-1.17,4.81-1.17c2.93,0,5.42,1.08,7.48,3.24c2.06,2.16,3.09,4.94,3.09,8.36c0,2.25-0.48,4.33-1.45,6.26
				c-0.97,1.93-2.3,3.41-3.99,4.43s-3.61,1.54-5.76,1.54c-3.66,0-6.65-1.35-8.96-4.04c-2.31-2.69-3.47-7.13-3.47-13.32
				c0-6.92,1.28-11.95,3.83-15.09c2.23-2.73,5.23-4.1,9.01-4.1c2.82,0,5.12,0.79,6.92,2.37
				C277.71,254.6,278.79,256.78,279.15,259.56z M261.21,274.99c0,1.51,0.32,2.96,0.96,4.35c0.64,1.38,1.54,2.44,2.7,3.16
				c1.16,0.72,2.37,1.09,3.64,1.09c1.86,0,3.45-0.75,4.79-2.25c1.33-1.5,2-3.53,2-6.1c0-2.47-0.66-4.42-1.98-5.85
				c-1.32-1.42-2.98-2.14-4.98-2.14c-1.99,0-3.67,0.71-5.05,2.14C261.9,270.81,261.21,272.68,261.21,274.99z"/>
		</g>
	</g>
	<g>
		<path class="st0" d="M12.04,200.61l16.36-5.48l0.71,2.12l-16.36,5.48L12.04,200.61z"/>
		<path class="st0" d="M18.43,193.76c-1.25,0.31-2.24,0.6-3.22,0.9l-0.48-1.93l1.95-0.61l-0.01-0.06c-1.27-0.31-2.74-1.43-3.23-3.42
			c-0.41-1.65-0.05-4.48,4.07-5.5l7.17-1.77l0.54,2.17l-6.93,1.71c-1.94,0.48-3.39,1.61-2.88,3.66c0.35,1.43,1.65,2.3,2.97,2.39
			c0.29,0.02,0.69-0.01,1.05-0.1l7.24-1.79l0.54,2.17L18.43,193.76z"/>
		<path class="st0" d="M8,178l3.52-0.55l-0.5-3.2l1.69-0.26l0.5,3.2l6.59-1.03c1.52-0.24,2.32-0.81,2.12-2.05
			c-0.09-0.58-0.23-0.98-0.36-1.26l1.67-0.36c0.24,0.41,0.48,1.07,0.62,1.94c0.16,1.02-0.05,1.92-0.57,2.55
			c-0.58,0.72-1.62,1.14-3.06,1.36l-6.68,1.04l0.3,1.89l-1.68,0.26l-0.3-1.89l-2.95,0.46L8,178z"/>
		<path class="st0" d="M17.12,169.49c3.03-0.27,4.14-2.28,3.98-4.54c-0.12-1.61-0.48-2.57-0.88-3.37l1.57-0.51
			c0.42,0.76,0.94,2.1,1.09,4.06c0.28,3.79-2.08,6.26-5.79,6.53c-3.74,0.27-6.82-1.72-7.09-5.32c-0.29-4.03,3.16-5.34,5.44-5.51
			c0.47-0.03,0.81-0.03,1.06,0L17.12,169.49z M15.03,163.04c-1.42,0.08-3.59,0.85-3.41,3.36c0.17,2.29,2.31,3.12,3.89,3.18
			L15.03,163.04z"/>
		<path class="st0" d="M13.76,157.76c-1.46-0.02-2.71-0.01-3.86,0.04l0.03-1.97l2.43-0.05l0-0.08c-1.65-0.6-2.68-1.99-2.65-3.49
			c0-0.24,0.02-0.42,0.07-0.62l2.12,0.03c-0.05,0.23-0.07,0.46-0.08,0.76c-0.03,1.59,1.15,2.73,2.83,3.06
			c0.31,0.06,0.68,0.1,1.05,0.11l6.61,0.11l-0.04,2.24L13.76,157.76z"/>
		<path class="st0" d="M13.39,148.9c-1.29-0.12-2.31-0.18-3.34-0.22l0.19-1.98l2.04,0.07l0.01-0.06c-1.1-0.72-2.11-2.26-1.92-4.3
			c0.16-1.69,1.43-4.25,5.67-3.84l7.35,0.7l-0.21,2.23l-7.11-0.68c-1.99-0.19-3.73,0.4-3.93,2.5c-0.14,1.47,0.8,2.72,2.01,3.24
			c0.27,0.12,0.66,0.22,1.03,0.25l7.43,0.71l-0.21,2.23L13.39,148.9z"/>
		<path class="st0" d="M25.28,129.35l-1.57-0.11l-0.01,0.07c0.81,0.86,1.41,2.34,1.06,4.08c-0.49,2.45-2.49,3.36-4.23,3.01
			c-2.94-0.59-4.03-3.52-3.05-8.2l-0.26-0.05c-0.99-0.2-2.87-0.29-3.36,2.2c-0.23,1.13-0.13,2.38,0.27,3.34l-1.57,0.21
			c-0.45-1.14-0.57-2.69-0.26-4.22c0.75-3.71,3.47-4.1,5.9-3.61l4.54,0.91c1.04,0.21,2.08,0.37,2.94,0.4L25.28,129.35z
			 M19.01,128.45c-0.53,2.38-0.65,5.2,1.69,5.67c1.45,0.29,2.3-0.53,2.53-1.63c0.32-1.6-0.48-2.81-1.44-3.37
			c-0.22-0.12-0.46-0.2-0.67-0.24L19.01,128.45z"/>
		<path class="st0" d="M11.9,117.48l3.43,0.98l0.89-3.11l1.64,0.47l-0.89,3.11l6.41,1.84c1.48,0.43,2.44,0.24,2.79-0.97
			c0.16-0.56,0.21-0.99,0.2-1.3l1.67,0.37c0.04,0.47-0.02,1.18-0.26,2.02c-0.29,0.99-0.85,1.73-1.59,2.07
			c-0.83,0.41-1.95,0.35-3.35-0.05l-6.5-1.87l-0.53,1.84l-1.64-0.47l0.53-1.84l-2.87-0.82L11.9,117.48z"/>
		<path class="st0" d="M14.72,108.98c0.72,0.25,1.14,0.97,0.85,1.81c-0.27,0.77-1.05,1.08-1.77,0.82c-0.73-0.25-1.13-1-0.86-1.78
			C13.22,109.04,13.98,108.73,14.72,108.98z M28.88,116.59l-11.69-4.08l0.74-2.11l11.68,4.08L28.88,116.59z"/>
		<path class="st0" d="M29.46,98.45c4.2,1.85,4.75,5.57,3.55,8.29c-1.35,3.07-4.64,4.46-8.23,2.88c-3.79-1.67-4.91-5.14-3.54-8.27
			C22.68,98.09,26.01,96.93,29.46,98.45z M25.64,107.49c2.49,1.09,4.98,0.49,5.87-1.52c0.87-1.98-0.33-4.27-2.9-5.4
			c-1.92-0.84-4.77-0.94-5.84,1.51C21.7,104.5,23.49,106.54,25.64,107.49z"/>
		<path class="st0" d="M28.54,94.35c-1.12-0.65-2.03-1.12-2.95-1.59l1-1.72l1.82,0.91l0.03-0.05c-0.7-1.11-0.98-2.93,0.04-4.7
			c0.85-1.47,3.07-3.26,6.75-1.13l6.39,3.7l-1.12,1.94l-6.18-3.58c-1.73-1-3.56-1.19-4.62,0.63c-0.74,1.28-0.41,2.8,0.48,3.78
			c0.19,0.22,0.51,0.47,0.83,0.66l6.46,3.74l-1.12,1.94L28.54,94.35z"/>
		<path class="st0" d="M47.48,81.51l-1.38-0.76l-0.04,0.05c0.38,1.12,0.31,2.71-0.73,4.15c-1.47,2.02-3.66,2.02-5.1,0.97
			c-2.43-1.76-2.2-4.88,0.64-8.73l-0.21-0.15c-0.81-0.59-2.49-1.46-3.97,0.6c-0.68,0.93-1.11,2.11-1.15,3.15l-1.51-0.47
			c0.07-1.22,0.6-2.68,1.52-3.95c2.22-3.06,4.86-2.29,6.87-0.83l3.75,2.72c0.86,0.62,1.74,1.2,2.51,1.59L47.48,81.51z M42.15,78.08
			c-1.47,1.94-2.76,4.46-0.82,5.86c1.2,0.87,2.32,0.48,2.98-0.44c0.96-1.32,0.73-2.75,0.09-3.66c-0.15-0.2-0.34-0.38-0.51-0.5
			L42.15,78.08z"/>
		<path class="st0" d="M36.78,65.78l1.44-1.71l13.91,11.69l-1.44,1.71L36.78,65.78z"/>
		<path class="st0" d="M62.89,52.76c3.98,4.38,3.45,9.14,0.19,12.1c-3.38,3.08-8.12,2.6-11.63-1.25c-3.68-4.04-3.6-8.97-0.19-12.07
			C54.75,48.36,59.44,48.97,62.89,52.76z M53.17,61.98c2.48,2.73,6.19,3.82,8.79,1.46c2.62-2.38,1.9-6.12-0.74-9.02
			c-2.31-2.54-6.05-3.98-8.79-1.49C49.69,55.42,50.63,59.19,53.17,61.98z"/>
		<path class="st0" d="M65.79,51.09c-0.87-1.17-1.64-2.15-2.38-3.04L65,46.88l1.51,1.9l0.06-0.05c-0.52-1.68-0.05-3.33,1.15-4.23
			c0.2-0.15,0.35-0.24,0.54-0.32l1.26,1.7c-0.21,0.1-0.41,0.22-0.65,0.4c-1.27,0.95-1.46,2.57-0.71,4.11
			c0.14,0.29,0.34,0.6,0.55,0.9l3.94,5.31l-1.8,1.33L65.79,51.09z"/>
		<path class="st0" d="M79.76,37.15c0.41,0.78,0.9,1.66,1.69,2.94l3.77,6.12c1.5,2.44,1.9,4.21,1.46,5.75
			c-0.45,1.59-1.73,2.81-3.06,3.63c-1.28,0.78-2.85,1.34-4.05,1.3l-0.43-1.77c0.97,0.01,2.31-0.26,3.62-1.06
			c1.96-1.2,2.77-3.11,1.12-5.78l-0.72-1.18l-0.04,0.03c0.03,1.35-0.63,2.84-2.26,3.84c-2.63,1.62-5.87,0.53-7.67-2.39
			c-2.2-3.58-1.11-7.02,1.32-8.52c1.83-1.13,3.4-0.79,4.41-0.2l0.04-0.03l-0.89-1.63L79.76,37.15z M80.32,42.53
			c-0.19-0.31-0.4-0.58-0.63-0.79c-1.04-0.9-2.53-1.25-3.95-0.38c-1.83,1.12-2.19,3.48-0.68,5.93c1.27,2.06,3.4,3.14,5.46,1.88
			c1.19-0.73,1.79-2.14,1.45-3.62c-0.09-0.37-0.27-0.78-0.48-1.11L80.32,42.53z"/>
		<path class="st0" d="M95.26,43.25l-0.86-1.32l-0.06,0.03c-0.19,1.17-1.02,2.54-2.62,3.3c-2.25,1.08-4.18,0.04-4.95-1.57
			c-1.3-2.7,0.39-5.34,4.71-7.38l-0.11-0.24c-0.44-0.91-1.5-2.46-3.78-1.36c-1.04,0.5-1.98,1.33-2.51,2.23l-1.11-1.13
			c0.64-1.04,1.81-2.07,3.21-2.75c3.41-1.64,5.36,0.3,6.44,2.53l2,4.18c0.46,0.95,0.96,1.88,1.45,2.59L95.26,43.25z M92.21,37.7
			c-2.22,1.01-4.54,2.61-3.51,4.77c0.64,1.33,1.81,1.52,2.83,1.03c1.47-0.71,1.95-2.08,1.82-3.17c-0.03-0.25-0.12-0.49-0.21-0.69
			L92.21,37.7z"/>
		<path class="st0" d="M96.82,32.67c-0.44-1.22-0.82-2.17-1.22-3.11l1.87-0.67l0.8,1.87l0.06-0.02c0.18-1.3,1.15-2.87,3.07-3.56
			c1.6-0.57,4.45-0.51,5.88,3.5l2.49,6.95l-2.11,0.75l-2.4-6.72c-0.67-1.88-1.95-3.21-3.93-2.5c-1.39,0.5-2.12,1.87-2.08,3.2
			c0,0.29,0.08,0.69,0.21,1.04l2.51,7.02l-2.11,0.75L96.82,32.67z"/>
		<path class="st0" d="M111.28,20.8c0.2,0.74-0.15,1.49-1.02,1.73c-0.79,0.21-1.48-0.25-1.68-0.99c-0.2-0.75,0.19-1.5,0.98-1.72
			C110.38,19.59,111.07,20.04,111.28,20.8z M113.01,36.78l-3.24-11.95l2.16-0.59l3.24,11.95L113.01,36.78z"/>
		<path class="st0" d="M116.9,34.31l4.05-8.24c0.41-0.79,0.78-1.46,1.21-2.22l-0.01-0.05l-6.59,1.33l-0.35-1.76l9.27-1.86l0.26,1.38
			l-4.01,8.15c-0.39,0.76-0.76,1.48-1.18,2.2l0.01,0.05l7.09-1.43l0.35,1.76l-9.85,1.98L116.9,34.31z"/>
		<path class="st0" d="M135.75,32.61l-0.37-1.53l-0.07,0.01c-0.57,1.03-1.8,2.05-3.57,2.24c-2.49,0.27-3.95-1.36-4.14-3.13
			c-0.32-2.98,2.14-4.91,6.9-5.39l-0.03-0.26c-0.11-1-0.59-2.82-3.11-2.54c-1.15,0.12-2.31,0.6-3.11,1.26l-0.67-1.43
			c0.95-0.77,2.39-1.35,3.95-1.52c3.76-0.41,4.96,2.07,5.23,4.53l0.5,4.61c0.11,1.05,0.27,2.09,0.5,2.93L135.75,32.61z
			 M134.72,26.37c-2.43,0.21-5.15,0.95-4.9,3.33c0.16,1.47,1.2,2.04,2.32,1.92c1.62-0.18,2.53-1.31,2.78-2.39
			c0.05-0.25,0.05-0.5,0.03-0.72L134.72,26.37z"/>
		<path class="st0" d="M143.02,16.27l0.1,3.56l3.23-0.09l0.05,1.7l-3.23,0.09l0.19,6.67c0.04,1.54,0.51,2.4,1.77,2.36
			c0.58-0.02,1.01-0.1,1.3-0.2l0.15,1.71c-0.43,0.18-1.13,0.34-2,0.37c-1.03,0.03-1.9-0.29-2.46-0.88c-0.64-0.66-0.92-1.75-0.97-3.2
			l-0.19-6.76l-1.92,0.05l-0.05-1.7l1.92-0.05l-0.08-2.98L143.02,16.27z"/>
		<path class="st0" d="M149,32.17l0.33-12.37l2.24,0.06l-0.33,12.37L149,32.17z M151.94,16.37c-0.02,0.77-0.57,1.38-1.47,1.36
			c-0.81-0.02-1.34-0.67-1.32-1.43c0.02-0.77,0.61-1.38,1.44-1.36C151.42,14.96,151.95,15.59,151.94,16.37z"/>
		<path class="st0" d="M166.46,27.18c-0.47,4.56-3.85,6.23-6.81,5.92c-3.34-0.35-5.67-3.05-5.26-6.96c0.43-4.12,3.39-6.25,6.79-5.9
			C164.73,20.62,166.85,23.43,166.46,27.18z M156.68,26.31c-0.28,2.7,1.06,4.9,3.24,5.12c2.15,0.22,3.96-1.62,4.25-4.41
			c0.22-2.08-0.56-4.83-3.22-5.1C158.32,21.65,156.92,23.98,156.68,26.31z"/>
		<path class="st0" d="M170.08,25.05c0.27-1.26,0.45-2.27,0.61-3.29l1.94,0.42l-0.31,2.02l0.06,0.01c0.84-1.01,2.49-1.83,4.49-1.4
			c1.66,0.36,4.05,1.93,3.14,6.08l-1.57,7.22l-2.19-0.48l1.52-6.98c0.42-1.96,0.04-3.75-2.02-4.2c-1.44-0.31-2.79,0.47-3.46,1.61
			c-0.15,0.25-0.29,0.63-0.37,0.99l-1.58,7.29l-2.19-0.48L170.08,25.05z"/>
		<path class="st0" d="M186.84,38.75l3.57-10.06l-1.63-0.58l0.57-1.61l1.63,0.58l0.2-0.56c0.58-1.64,1.49-3,2.81-3.61
			c1.07-0.49,2.24-0.42,3.22-0.07c0.77,0.27,1.35,0.66,1.69,0.98l-0.86,1.53c-0.27-0.26-0.64-0.53-1.27-0.75
			c-1.79-0.64-2.83,0.79-3.46,2.59l-0.22,0.63l2.82,1l-0.57,1.61l-2.81-1l-3.57,10.06L186.84,38.75z"/>
		<path class="st0" d="M205.85,39.78c-1.88,4.18-5.6,4.71-8.32,3.49c-3.06-1.38-4.42-4.67-2.81-8.26c1.7-3.78,5.18-4.87,8.3-3.47
			C206.26,33,207.4,36.34,205.85,39.78z M196.84,35.89c-1.11,2.48-0.53,4.98,1.47,5.88c1.97,0.89,4.27-0.29,5.42-2.85
			c0.86-1.91,0.98-4.76-1.46-5.86C199.86,31.97,197.8,33.75,196.84,35.89z"/>
		<path class="st0" d="M209.56,39.36c0.71-1.28,1.29-2.38,1.79-3.41l1.72,0.96l-1.11,2.16l0.07,0.04c1.32-1.17,3.02-1.42,4.33-0.68
			c0.21,0.12,0.36,0.22,0.52,0.36l-1.03,1.85c-0.18-0.15-0.37-0.28-0.64-0.43c-1.38-0.77-2.95-0.28-4.04,1.04
			c-0.21,0.25-0.41,0.55-0.59,0.87l-3.23,5.77l-1.95-1.09L209.56,39.36z"/>
		<path class="st0" d="M218.2,51.31c0.43,1.09,1.31,2.35,2.55,3.26c1.84,1.35,3.62,1.18,4.66-0.22c0.95-1.29,0.75-2.6-0.61-4.68
			c-1.68-2.47-2.21-4.7-0.78-6.64c1.59-2.16,4.57-2.45,7.28-0.46c1.41,1.04,2.22,2.14,2.57,2.93l-1.58,1.1
			c-0.25-0.59-0.89-1.67-2.14-2.59c-1.91-1.4-3.46-0.8-4.16,0.15c-0.95,1.29-0.57,2.55,0.8,4.7c1.68,2.66,2.03,4.66,0.54,6.7
			c-1.57,2.13-4.52,2.85-7.81,0.43c-1.34-0.99-2.51-2.47-2.89-3.52L218.2,51.31z"/>
		<path class="st0" d="M238.97,50.76l-2.34,2.69l2.44,2.12l-1.12,1.29l-2.44-2.12l-4.37,5.04c-1.01,1.16-1.25,2.11-0.3,2.94
			c0.44,0.38,0.81,0.61,1.09,0.73l-1.04,1.36c-0.44-0.16-1.06-0.51-1.72-1.08c-0.78-0.68-1.21-1.5-1.21-2.31
			c-0.02-0.92,0.5-1.91,1.46-3.01l4.43-5.11l-1.45-1.26l1.12-1.29l1.45,1.26l1.95-2.25L238.97,50.76z"/>
		<path class="st0" d="M237.38,71.3l0.98-1.24l-0.05-0.05c-1.17,0.19-2.73-0.15-3.97-1.41c-1.75-1.79-1.38-3.94-0.11-5.19
			c2.14-2.1,5.18-1.36,8.5,2.08l0.19-0.18c0.72-0.7,1.85-2.21,0.06-4.01c-0.81-0.82-1.9-1.44-2.92-1.66l0.71-1.41
			c1.19,0.27,2.54,1.04,3.64,2.16c2.65,2.7,1.45,5.17-0.32,6.91l-3.31,3.24c-0.75,0.74-1.47,1.51-1.98,2.21L237.38,71.3z
			 M241.65,66.62c-1.67-1.78-3.93-3.46-5.64-1.78c-1.05,1.03-0.86,2.2-0.07,3.01c1.14,1.16,2.59,1.18,3.59,0.7
			c0.23-0.11,0.43-0.27,0.58-0.42L241.65,66.62z"/>
		<path class="st0" d="M247.89,69.35c1.01-0.81,1.79-1.48,2.55-2.16l1.24,1.56l-1.51,1.37l0.04,0.05c1.29-0.25,3.09,0.16,4.36,1.76
			c1.06,1.33,1.92,4.05-1.41,6.7l-5.78,4.6l-1.4-1.75l5.58-4.45c1.56-1.25,2.41-2.88,1.09-4.53c-0.92-1.16-2.46-1.4-3.7-0.93
			c-0.27,0.1-0.62,0.3-0.91,0.53l-5.83,4.65l-1.4-1.75L247.89,69.35z"/>
		<path class="st0" d="M270.33,85.18l-12.67,7.99c-0.93,0.59-1.96,1.28-2.65,1.79l-1.07-1.69l1.75-1.24l-0.03-0.05
			c-1.54,0.15-3.21-0.55-4.29-2.26c-1.6-2.54-0.69-5.85,2.49-7.85c3.49-2.22,6.99-1.39,8.59,1.16c1.01,1.61,0.94,3.17,0.4,4.16
			l0.03,0.04l6.25-3.94L270.33,85.18z M259.97,89.06c0.25-0.16,0.55-0.38,0.76-0.59c1.01-1.05,1.36-2.7,0.45-4.14
			c-1.24-1.97-3.72-2.06-6.02-0.61c-2.13,1.34-3.23,3.51-1.93,5.57c0.8,1.27,2.39,1.89,4.04,1.34c0.29-0.09,0.58-0.23,0.88-0.42
			L259.97,89.06z"/>
		<path class="st0" d="M259.56,103.95l1.31-0.87l-0.03-0.06c-1.17-0.18-2.55-0.99-3.33-2.58c-1.11-2.24-0.08-4.18,1.51-4.96
			c2.69-1.33,5.34,0.33,7.43,4.63l0.24-0.12c0.9-0.44,2.45-1.52,1.32-3.79c-0.51-1.03-1.35-1.96-2.25-2.48l1.12-1.12
			c1.05,0.63,2.09,1.78,2.78,3.19c1.67,3.39-0.24,5.36-2.46,6.46l-4.15,2.05c-0.95,0.47-1.87,0.98-2.57,1.48L259.56,103.95z
			 M265.07,100.84c-1.03-2.21-2.66-4.52-4.8-3.46c-1.33,0.65-1.5,1.82-1,2.84c0.72,1.46,2.1,1.93,3.19,1.79
			c0.25-0.04,0.49-0.12,0.68-0.22L265.07,100.84z"/>
		<path class="st0" d="M269.55,105.49c1.36-0.54,2.5-1.03,3.55-1.52l0.73,1.83l-2.23,0.97l0.03,0.07c1.76-0.07,3.23,0.81,3.79,2.21
			c0.09,0.23,0.14,0.4,0.17,0.61l-1.97,0.78c-0.04-0.23-0.11-0.45-0.22-0.74c-0.58-1.47-2.11-2.08-3.79-1.74
			c-0.32,0.06-0.67,0.17-1.01,0.3l-6.15,2.44l-0.82-2.08L269.55,105.49z"/>
		<path class="st0" d="M284.94,120.89l-14.36,4.28c-1.05,0.31-2.23,0.71-3.03,1.01l-0.57-1.92l2.02-0.72l-0.02-0.06
			c-1.52-0.26-2.94-1.4-3.52-3.33c-0.86-2.87,0.91-5.82,4.51-6.89c3.96-1.2,7.1,0.54,7.96,3.43c0.54,1.82,0.05,3.3-0.73,4.12
			l0.01,0.05l7.08-2.11L284.94,120.89z M273.92,121.84c0.28-0.08,0.63-0.22,0.89-0.37c1.26-0.74,2.04-2.24,1.55-3.86
			c-0.67-2.23-3.02-2.99-5.63-2.21c-2.41,0.72-4.05,2.51-3.36,4.84c0.43,1.44,1.8,2.46,3.53,2.38c0.31-0.01,0.62-0.07,0.96-0.17
			L273.92,121.84z"/>
		<path class="st0" d="M268.21,129.44l12.11-2.58l0.47,2.19l-12.11,2.58L268.21,129.44z M284.27,128.59
			c-0.75,0.16-1.48-0.23-1.67-1.11c-0.17-0.8,0.34-1.46,1.09-1.62c0.76-0.16,1.49,0.27,1.66,1.08
			C285.53,127.76,285.04,128.42,284.27,128.59z"/>
		<path class="st0" d="M270.47,133.44l8,4.5c0.76,0.45,1.42,0.86,2.15,1.33l0.05-0.01l-0.96-6.66l1.78-0.26l1.35,9.36l-1.39,0.19
			l-7.92-4.45c-0.74-0.43-1.44-0.84-2.13-1.3l-0.05,0.01l1.04,7.16l-1.78,0.26l-1.44-9.95L270.47,133.44z"/>
		<path class="st0" d="M271.13,152.35l1.55-0.28l0-0.07c-1-0.63-1.95-1.91-2.05-3.68c-0.13-2.5,1.57-3.87,3.34-3.97
			c2.99-0.16,4.78,2.4,5.01,7.18l0.26-0.01c1-0.05,2.85-0.44,2.7-2.97c-0.06-1.15-0.47-2.33-1.1-3.17l1.47-0.59
			c0.72,0.99,1.22,2.46,1.3,4.02c0.2,3.78-2.33,4.84-4.81,4.97l-4.62,0.25c-1.06,0.06-2.11,0.16-2.95,0.35L271.13,152.35z
			 M277.43,151.66c-0.08-2.44-0.67-5.2-3.06-5.07c-1.48,0.08-2.1,1.09-2.04,2.22c0.09,1.63,1.17,2.6,2.23,2.9
			c0.24,0.06,0.5,0.08,0.71,0.07L277.43,151.66z"/>
		<path class="st0" d="M287.07,160.51l-3.56-0.09l-0.08,3.23l-1.71-0.04l0.08-3.23l-6.67-0.17c-1.54-0.04-2.42,0.38-2.46,1.64
			c-0.01,0.58,0.05,1.01,0.13,1.31l-1.71,0.06c-0.16-0.44-0.28-1.14-0.26-2.02c0.03-1.03,0.39-1.89,1.01-2.41
			c0.7-0.6,1.8-0.83,3.25-0.79l6.76,0.17l0.05-1.92l1.71,0.04l-0.05,1.92l2.98,0.07L287.07,160.51z"/>
		<path class="st0" d="M270.86,165.63l12.34,1l-0.18,2.23l-12.34-1L270.86,165.63z M286.49,169.42c-0.76-0.06-1.35-0.65-1.28-1.54
			c0.07-0.81,0.74-1.31,1.5-1.24c0.77,0.06,1.35,0.69,1.28,1.51C287.93,168.98,287.27,169.48,286.49,169.42z"/>
		<path class="st0" d="M274.89,183.34c-4.53-0.72-6.01-4.18-5.54-7.12c0.53-3.32,3.35-5.49,7.24-4.87c4.09,0.65,6.05,3.72,5.51,7.11
			C281.54,181.97,278.61,183.94,274.89,183.34z M276.3,173.62c-2.68-0.43-4.95,0.79-5.29,2.96c-0.34,2.13,1.4,4.04,4.17,4.49
			c2.07,0.33,4.85-0.29,5.27-2.94C280.86,175.52,278.61,173.99,276.3,173.62z"/>
		<path class="st0" d="M276.82,187.07c1.25,0.34,2.25,0.57,3.25,0.79l-0.53,1.92l-2-0.42l-0.02,0.06c0.96,0.9,1.69,2.59,1.15,4.56
			c-0.45,1.64-2.15,3.93-6.25,2.81l-7.12-1.96l0.6-2.16l6.88,1.9c1.93,0.53,3.75,0.25,4.31-1.78c0.39-1.42-0.31-2.81-1.42-3.54
			c-0.24-0.16-0.61-0.33-0.97-0.43l-7.19-1.98l0.6-2.16L276.82,187.07z"/>
	</g>
</g>
</svg>
