<?xml version="1.0" encoding="utf-8"?>
<!-- Generator: Adobe Illustrator 23.0.0, SVG Export Plug-In . SVG Version: 6.00 Build 0)  -->
<svg version="1.1" id="Capa_1" xmlns="http://www.w3.org/2000/svg" xmlns:xlink="http://www.w3.org/1999/xlink" x="0px" y="0px"
	 viewBox="0 0 300 300" style="enable-background:new 0 0 300 300;" xml:space="preserve">
<style type="text/css">
	.st0{fill:#2B4092;}
</style>
<g>
	<g>
		<path class="st0" d="M145.46,78.48c-16.28-6.95-39.06-7.69-53.86,3.11c-9.62,7.1-12.58,19.83-10.06,31.07
			c1.92,10.65,11.98,18.5,21.6,22.19c13.17,4.74,26.93,8.14,40.25,12.73c1.33,0.59,3.11,1.92,2.81,3.55c0,1.33-1.33,2.07-2.37,2.66
			c-13.91,3.85-29,0.89-39.06-9.77c-1.18-1.48-1.92-3.26-3.11-4.73l-19.98,0.15c-0.3,11.98-0.44,25.75,0,37.58l22.19-0.15l0.3-7.1
			c2.52,1.18,5.03,2.66,7.55,4c15.39,6.51,35.22,7.99,50.46,0c11.1-6.21,17.02-18.2,15.39-31.07
			c-1.63-12.58-13.46-23.97-25.45-27.08l-35.81-10.51l-2.66-1.33c-1.18-1.04-1.92-2.37-1.63-4c2.81-4.88,9.32-3.4,14.2-3.25
			c10.36,1.48,21.01,5.03,27.08,14.65c6.51,0,14.06,0.15,21.16-0.15c0.3-12.13-0.15-22.79-0.3-35.07
			c-6.66-0.15-14.8-0.15-21.46,0.15c-0.3,1.78,0.3,4.29-0.44,6.07L145.46,78.48z"/>
		<path class="st0" d="M202.58,81.14c-10.8,5.62-17.9,16.72-20.12,28.11c-4,18.79-2.96,41.13,11.24,55.19
			c16.57,14.8,40.69,18.05,62.15,11.99c1.02-0.2,4.25-1.04,6.47-2.24l0.63-0.28c6.66-2.81,13.02-7.4,17.76-13.61
			c10.95-16.28,11.69-40.69,5.03-59.04c-2.66-7.1-8.14-13.46-14.8-18.05C251.7,70.79,222.4,69.9,202.58,81.14z M249.19,104.52
			c2.22,3.4,2.07,7.84,2.52,11.84c-0.15,8.43,0.59,18.49-0.89,27.08c-0.74,3.55-3.11,7.25-6.81,8.58
			c-5.92,2.66-13.91,1.92-19.38-1.18c-4.59-3.26-5.18-8.73-5.77-13.91c-0.44-10.21-1.18-21.01,1.63-30.33
			c2.22-5.77,8.29-7.25,13.76-7.69C240.01,98.9,245.63,99.79,249.19,104.52z"/>
		<path class="st0" d="M239.72,188.12c-6.21,9.03-14.06,17.76-22.64,24.56c-0.3,0.44-1.18,0.29-1.48-0.15
			c-3.7-2.37-7.69-4.29-11.24-6.66c4.74-5.77,9.32-11.54,12.87-17.9h-4.59c-3.7,5.48-7.55,11.25-12.43,16.13
			c-6.51-2.66-12.43-5.03-19.09-6.81l-0.74-0.59c1.04-2.96,2.96-5.77,3.55-8.73h-4l-4,7.99c-8.73-1.92-18.35-2.96-27.23-3.55
			c-0.44-1.33,0.15-3.26-0.44-4.44h-3.85c-0.3,1.78,0.44,3.11-0.44,4.59c-9.17,0.44-18.05,1.48-26.63,3.25l-3.99-7.84
			c-1.48,0-3.11-0.3-4.14,0.15l3.7,8.73l-0.44,0.44c-6.66,1.92-13.17,4.29-19.53,6.95l-0.59-0.3c-4.14-4.59-8.14-9.62-11.39-14.65
			c-0.74-2.52-3.7-1.04-5.33-1.33c3.55,6.51,8.29,12.28,13.02,18.2c-4,2.37-7.99,5.03-12.13,6.95
			c-8.88-6.81-17.16-15.69-23.38-25.01c-1.78-0.29-2.96-0.15-4.74,0c10.65,16.87,27.23,31.67,44.54,40.39c0,0,0-0.15,0.15-0.15
			c0.15,0,0.44,0.3,0.15,0.44c11.69,5.77,24.12,9.91,37.29,11.69c45.43,6.07,88.78-13.61,113.93-52.38
			C243.12,187.97,241.2,187.97,239.72,188.12z M178.02,201.44l0.44-0.3c6.36,1.48,12.43,3.55,18.05,6.36
			c-4.73,5.47-10.8,10.21-16.42,14.2c-3.4,2.07-6.81,4.29-10.36,6.07l-6.36-2.81l0.44-1.04
			C169.14,216.68,173.87,209.28,178.02,201.44z M148.87,197c8.43,0.15,16.87,1.03,24.71,2.96l0.15,0.44
			c-4.14,7.99-9.32,15.69-14.94,22.93c-2.52,0.3-4.88-0.74-7.4-0.89l-2.52-0.29C148.57,213.42,148.42,205.73,148.87,197z
			 M120.31,199.66c7.69-1.48,15.68-2.66,23.97-2.66l0.15,25.01c-3.11,0.74-6.51,0.74-9.47,1.48c-6.07-7.25-11.1-15.09-15.39-23.23
			L120.31,199.66z M96.49,207.65c5.77-2.81,11.84-4.88,18.05-6.51l0.59,0.15c4.29,8.14,9.62,15.83,14.94,23.53
			c-2.07,1.18-4.59,1.92-6.66,3.11c-9.77-4.88-19.09-11.69-26.93-19.83V207.65z M115.57,232.95c-12.43-3.25-23.97-8.88-34.62-16.57
			v-0.44c3.55-2.22,7.1-4.59,10.95-6.21c8.43,8.43,17.16,14.8,26.63,20.86C117.79,231.48,116.61,232.36,115.57,232.95z
			 M170.47,234.88c-15.68,3.4-33.14,3.55-48.83-0.3c-0.3-0.74,0.74-0.89,1.18-1.33c13.76-9.03,35.22-9.03,48.68,0.74
			C171.95,234.88,170.76,234.58,170.47,234.88z M184.67,230.74l-6.95,2.22c-1.18-0.59-2.22-1.48-3.26-2.37l0.3-0.44
			c9.47-5.62,18.05-12.43,26.19-20.57c3.99,1.63,7.84,3.85,11.39,6.36C204.06,222.6,194.44,227.04,184.67,230.74z"/>
		<path class="st0" d="M75.47,177.02v-24.41c-4.88-0.29-10.36,0.15-15.09-0.44l0.15-51.94l0.3-0.44l14.65-0.15
			c0.15-8.43,0.3-17.46-0.15-25.15l-55.78-0.15l-9.17,0.15c-0.15,7.84-0.15,17.02,0,25.01c5.03,0.15,9.77,0,14.65,0.44v50.31
			l-0.15,2.07l-14.65,0.29c-0.3,8.29-0.3,16.28,0,24.41H75.47z"/>
		<path class="st0" d="M52.84,63.09c3.55-5.03,7.55-9.91,11.99-14.65c3.85-3.7,7.4-7.25,11.54-9.91c3.85,2.52,8.14,4.59,11.84,6.95
			c-4.59,5.77-9.32,11.54-12.73,17.76c1.04,0.44,2.96,0.3,4.44,0c3.7-5.48,7.69-10.95,12.43-15.83c6.36,2.37,12.58,4.88,19.09,6.66
			l0.59,0.59l-3.7,8.58c1.63,0.3,2.66,0.15,4.29,0c1.33-2.52,2.37-5.33,3.85-7.84c8.58,1.92,17.61,2.96,26.78,3.26
			c1.18,1.04,0.3,3.25,0.74,4.59h4c0.44-1.48-0.15-3.11,0.44-4.44c8.58-0.44,17.61-1.33,25.89-3.4l0.74,0.15l3.99,7.69
			c1.33,0,3.11,0.3,4.14-0.3l-3.7-8.58l0.29-0.3c6.81-1.78,13.17-4.44,19.68-7.1c4.59,4.88,8.88,10.65,12.72,16.28
			c1.63,0,3.26,0.15,4.44-0.3c-1.78-3.26-4-6.51-6.36-9.32c-1.92-2.81-4-5.33-6.51-7.99v-0.74l10.36-6.07l1.48-0.59
			c9.03,6.95,17.02,15.39,23.38,24.71c1.78,0,3.26,0.59,4.74-0.15c-19.83-30.18-52.53-49.57-87.89-52.38l-0.15,0.3l-0.3-0.3
			c-3.99-0.44-8.88-0.59-13.17-0.15c-1.63-0.15-3.55,0-5.47,0.15c-35.51,2.81-68.21,21.31-88.63,52.82
			C49.58,63.09,51.36,63.68,52.84,63.09z M114.24,50.07l-0.59,0.15c-6.07-1.63-11.99-3.55-17.61-6.07l0.3-0.89
			c8.14-7.84,16.72-14.35,26.19-19.38c2.22,0.89,4.44,1.63,6.66,2.66l-0.44,1.18C123.12,34.83,118.68,42.52,114.24,50.07z
			 M143.69,54.07c-4.14,0.59-7.84-0.15-11.99-0.44c-4-0.59-9.03-1.04-13.02-2.37c4.29-8.14,9.32-15.98,15.39-23.23l9.47,1.33
			C143.98,37.05,143.69,45.93,143.69,54.07z M148.27,54.21c-0.3-7.84-0.15-16.57,0-24.71c2.96-0.44,6.21-0.89,9.17-1.33
			c5.77,7.4,11.39,14.94,15.24,23.08C164.7,53.18,156.56,54.21,148.27,54.21z M195.47,43.86c-5.77,2.51-11.69,4.88-18.05,6.21
			c-4.59-7.84-9.62-15.68-15.24-23.23c2.07-1.18,4.59-2.07,6.81-3.26c9.62,4.88,18.94,11.84,26.78,19.83L195.47,43.86z
			 M176.54,18.55c12.43,3.26,24.12,8.88,34.77,16.57l-0.3,0.59l-10.21,5.77h-0.74c-7.84-7.99-17.02-14.94-26.34-20.42
			C174.02,20.03,175.5,19.29,176.54,18.55z M170.62,17.07v0.3c-12.87,9.47-33.74,10.36-47.35,1.63c-0.74-0.59-2.22-0.89-2.37-1.92
			C136.58,13.38,155.08,13.08,170.62,17.07z M80.36,35.42c9.32-6.95,19.68-12.13,30.63-15.68c0.44-0.44,0.74-0.89,1.33-0.89v0.3
			c1.18,0.3,2.07-1.04,3.11-0.15c0.89,0.74,1.92,1.33,2.66,2.07c-9.17,5.77-18.2,12.58-26.49,20.86c-4-1.48-7.69-3.7-11.25-6.21
			V35.42z"/>
	</g>
	<g>
		<path class="st0" d="M35.13,286.59V250.8h4.74v35.79H35.13z"/>
		<path class="st0" d="M46.61,275.09l4.47-0.39c0.21,1.79,0.7,3.26,1.48,4.41c0.77,1.15,1.97,2.07,3.6,2.78
			c1.63,0.71,3.46,1.06,5.49,1.06c1.81,0,3.4-0.27,4.79-0.81c1.38-0.54,2.41-1.27,3.09-2.21c0.68-0.94,1.01-1.96,1.01-3.06
			c0-1.12-0.33-2.1-0.98-2.94c-0.65-0.84-1.73-1.54-3.22-2.11c-0.96-0.37-3.08-0.96-6.37-1.75c-3.29-0.79-5.59-1.53-6.91-2.23
			c-1.71-0.89-2.98-2.01-3.82-3.33c-0.84-1.33-1.26-2.81-1.26-4.46c0-1.81,0.51-3.5,1.54-5.07c1.03-1.57,2.52-2.76,4.49-3.58
			c1.97-0.81,4.16-1.22,6.57-1.22c2.65,0,4.99,0.43,7.02,1.28c2.03,0.85,3.58,2.11,4.68,3.77c1.09,1.66,1.68,3.54,1.76,5.64
			l-4.54,0.34c-0.24-2.26-1.07-3.97-2.48-5.13c-1.41-1.16-3.49-1.73-6.24-1.73c-2.86,0-4.95,0.53-6.26,1.57
			c-1.31,1.05-1.97,2.32-1.97,3.8c0,1.29,0.46,2.34,1.39,3.17c0.91,0.83,3.29,1.68,7.14,2.55c3.85,0.87,6.49,1.63,7.92,2.28
			c2.08,0.96,3.62,2.18,4.61,3.65c0.99,1.47,1.49,3.17,1.49,5.09c0,1.9-0.55,3.7-1.64,5.38c-1.09,1.69-2.66,3-4.7,3.93
			c-2.04,0.94-4.34,1.4-6.9,1.4c-3.24,0-5.95-0.47-8.14-1.42c-2.19-0.94-3.91-2.36-5.15-4.26
			C47.33,279.63,46.67,277.48,46.61,275.09z"/>
		<path class="st0" d="M80.13,269.16c0-5.94,1.59-10.59,4.79-13.95c3.19-3.36,7.31-5.04,12.35-5.04c3.3,0,6.28,0.79,8.94,2.37
			c2.65,1.58,4.68,3.78,6.07,6.6c1.39,2.82,2.09,6.03,2.09,9.61c0,3.63-0.73,6.88-2.2,9.74c-1.46,2.87-3.54,5.03-6.23,6.51
			c-2.69,1.47-5.58,2.21-8.69,2.21c-3.37,0-6.38-0.81-9.03-2.44c-2.65-1.63-4.66-3.85-6.03-6.67
			C80.81,275.28,80.13,272.3,80.13,269.16z M85.01,269.23c0,4.31,1.16,7.71,3.48,10.19c2.32,2.48,5.23,3.72,8.73,3.72
			c3.56,0,6.5-1.25,8.8-3.76c2.3-2.51,3.45-6.06,3.45-10.67c0-2.91-0.49-5.46-1.48-7.63c-0.98-2.17-2.43-3.86-4.32-5.05
			c-1.9-1.2-4.02-1.79-6.38-1.79c-3.35,0-6.24,1.15-8.65,3.45C86.22,260,85.01,263.84,85.01,269.23z"/>
		<path class="st0" d="M132.57,277.21l4.61-0.39c0.34,2.25,1.14,3.93,2.38,5.07c1.25,1.13,2.75,1.7,4.5,1.7
			c2.12,0,3.91-0.8,5.37-2.39c1.46-1.59,2.2-3.71,2.2-6.35c0-2.51-0.7-4.48-2.11-5.93c-1.41-1.45-3.25-2.17-5.53-2.17
			c-1.42,0-2.69,0.32-3.83,0.96c-1.14,0.64-2.03,1.48-2.69,2.5l-4.13-0.54l3.47-18.38h17.8v4.2h-14.28l-1.93,9.62
			c2.15-1.5,4.4-2.25,6.76-2.25c3.13,0,5.76,1.08,7.91,3.25c2.15,2.17,3.22,4.95,3.22,8.35c0,3.24-0.94,6.04-2.83,8.4
			c-2.29,2.9-5.43,4.35-9.4,4.35c-3.26,0-5.91-0.91-7.97-2.73C134.04,282.64,132.86,280.23,132.57,277.21z"/>
		<path class="st0" d="M160.38,268.94c0-4.23,0.43-7.64,1.31-10.22c0.87-2.58,2.17-4.57,3.88-5.97c1.72-1.4,3.88-2.1,6.48-2.1
			c1.92,0,3.6,0.39,5.05,1.16c1.45,0.77,2.64,1.89,3.59,3.34c0.94,1.46,1.68,3.23,2.22,5.32c0.54,2.09,0.81,4.91,0.81,8.46
			c0,4.2-0.43,7.59-1.29,10.17c-0.86,2.58-2.15,4.57-3.87,5.98c-1.72,1.41-3.89,2.11-6.51,2.11c-3.45,0-6.16-1.24-8.13-3.71
			C161.56,280.51,160.38,275.66,160.38,268.94z M164.89,268.94c0,5.88,0.69,9.79,2.06,11.73c1.38,1.94,3.07,2.92,5.09,2.92
			s3.71-0.98,5.09-2.93c1.38-1.95,2.06-5.86,2.06-11.72c0-5.89-0.69-9.81-2.06-11.74c-1.38-1.94-3.09-2.91-5.14-2.91
			c-2.02,0-3.63,0.85-4.83,2.56C165.65,259.04,164.89,263.06,164.89,268.94z"/>
		<path class="st0" d="M188.18,268.94c0-4.23,0.44-7.64,1.31-10.22c0.87-2.58,2.16-4.57,3.88-5.97c1.72-1.4,3.88-2.1,6.48-2.1
			c1.92,0,3.61,0.39,5.05,1.16c1.45,0.77,2.64,1.89,3.59,3.34c0.94,1.46,1.68,3.23,2.22,5.32c0.54,2.09,0.81,4.91,0.81,8.46
			c0,4.2-0.43,7.59-1.29,10.17c-0.86,2.58-2.15,4.57-3.87,5.98c-1.72,1.41-3.89,2.11-6.51,2.11c-3.45,0-6.16-1.24-8.13-3.71
			C189.36,280.51,188.18,275.66,188.18,268.94z M192.7,268.94c0,5.88,0.69,9.79,2.06,11.73c1.38,1.94,3.07,2.92,5.09,2.92
			c2.02,0,3.71-0.98,5.09-2.93s2.06-5.86,2.06-11.72c0-5.89-0.69-9.81-2.06-11.74c-1.38-1.94-3.09-2.91-5.14-2.91
			c-2.02,0-3.63,0.85-4.83,2.56C193.46,259.04,192.7,263.06,192.7,268.94z"/>
		<path class="st0" d="M215.99,268.94c0-4.23,0.43-7.64,1.31-10.22c0.87-2.58,2.17-4.57,3.88-5.97c1.72-1.4,3.88-2.1,6.48-2.1
			c1.92,0,3.6,0.39,5.05,1.16c1.45,0.77,2.64,1.89,3.59,3.34c0.94,1.46,1.68,3.23,2.22,5.32c0.54,2.09,0.81,4.91,0.81,8.46
			c0,4.2-0.43,7.59-1.29,10.17c-0.86,2.58-2.15,4.57-3.87,5.98c-1.72,1.41-3.89,2.11-6.51,2.11c-3.45,0-6.16-1.24-8.13-3.71
			C217.17,280.51,215.99,275.66,215.99,268.94z M220.51,268.94c0,5.88,0.69,9.79,2.06,11.73c1.38,1.94,3.07,2.92,5.09,2.92
			s3.71-0.98,5.09-2.93c1.38-1.95,2.06-5.86,2.06-11.72c0-5.89-0.69-9.81-2.06-11.74c-1.38-1.94-3.09-2.91-5.14-2.91
			c-2.02,0-3.63,0.85-4.83,2.56C221.26,259.04,220.51,263.06,220.51,268.94z"/>
		<path class="st0" d="M260.35,286.59h-4.39v-28c-1.06,1.01-2.45,2.02-4.16,3.03c-1.72,1.01-3.26,1.77-4.63,2.27v-4.25
			c2.46-1.16,4.61-2.55,6.45-4.2c1.84-1.64,3.14-3.24,3.91-4.79h2.83V286.59z"/>
	</g>
</g>
</svg>
