<?xml version="1.0" encoding="utf-8"?>
<!-- Generator: Adobe Illustrator 23.0.0, SVG Export Plug-In . SVG Version: 6.00 Build 0)  -->
<svg version="1.1" id="Capa_1" xmlns="http://www.w3.org/2000/svg" xmlns:xlink="http://www.w3.org/1999/xlink" x="0px" y="0px"
	 viewBox="0 0 300 300" style="enable-background:new 0 0 300 300;" xml:space="preserve">
<style type="text/css">
	.st0{fill:#2B4092;}
</style>
<g>
	<g>
		<path class="st0" d="M145.46,78.48c-16.28-6.95-39.06-7.69-53.86,3.11c-9.62,7.1-12.58,19.83-10.06,31.07
			c1.92,10.65,11.98,18.5,21.6,22.19c13.17,4.74,26.93,8.14,40.25,12.73c1.33,0.59,3.11,1.92,2.81,3.55c0,1.33-1.33,2.07-2.37,2.66
			c-13.91,3.85-29,0.89-39.06-9.77c-1.18-1.48-1.92-3.26-3.11-4.73l-19.98,0.15c-0.3,11.98-0.44,25.75,0,37.58l22.19-0.15l0.3-7.1
			c2.52,1.18,5.03,2.66,7.55,4c15.39,6.51,35.22,7.99,50.46,0c11.1-6.21,17.02-18.2,15.39-31.07
			c-1.63-12.58-13.46-23.97-25.45-27.08l-35.81-10.51l-2.66-1.33c-1.18-1.04-1.92-2.37-1.63-4c2.81-4.88,9.32-3.4,14.2-3.25
			c10.36,1.48,21.01,5.03,27.08,14.65c6.51,0,14.06,0.15,21.16-0.15c0.3-12.13-0.15-22.79-0.3-35.07
			c-6.66-0.15-14.8-0.15-21.46,0.15c-0.3,1.78,0.3,4.29-0.44,6.07L145.46,78.48z"/>
		<path class="st0" d="M202.58,81.14c-10.8,5.62-17.9,16.72-20.12,28.11c-4,18.79-2.96,41.13,11.24,55.19
			c16.57,14.8,40.69,18.05,62.15,11.99c1.02-0.2,4.25-1.04,6.47-2.24l0.63-0.28c6.66-2.81,13.02-7.4,17.76-13.61
			c10.95-16.28,11.69-40.69,5.03-59.04c-2.66-7.1-8.14-13.46-14.8-18.05C251.7,70.79,222.4,69.9,202.58,81.14z M249.19,104.52
			c2.22,3.4,2.07,7.84,2.52,11.84c-0.15,8.43,0.59,18.49-0.89,27.08c-0.74,3.55-3.11,7.25-6.81,8.58
			c-5.92,2.66-13.91,1.92-19.38-1.18c-4.59-3.26-5.18-8.73-5.77-13.91c-0.44-10.21-1.18-21.01,1.63-30.33
			c2.22-5.77,8.29-7.25,13.76-7.69C240.01,98.9,245.63,99.79,249.19,104.52z"/>
		<path class="st0" d="M239.72,188.12c-6.21,9.03-14.06,17.76-22.64,24.56c-0.3,0.44-1.18,0.29-1.48-0.15
			c-3.7-2.37-7.69-4.29-11.24-6.66c4.74-5.77,9.32-11.54,12.87-17.9h-4.59c-3.7,5.48-7.55,11.25-12.43,16.13
			c-6.51-2.66-12.43-5.03-19.09-6.81l-0.74-0.59c1.04-2.96,2.96-5.77,3.55-8.73h-4l-4,7.99c-8.73-1.92-18.35-2.96-27.23-3.55
			c-0.44-1.33,0.15-3.26-0.44-4.44h-3.85c-0.3,1.78,0.44,3.11-0.44,4.59c-9.17,0.44-18.05,1.48-26.63,3.25l-3.99-7.84
			c-1.48,0-3.11-0.3-4.14,0.15l3.7,8.73l-0.44,0.44c-6.66,1.92-13.17,4.29-19.53,6.95l-0.59-0.3c-4.14-4.59-8.14-9.62-11.39-14.65
			c-0.74-2.52-3.7-1.04-5.33-1.33c3.55,6.51,8.29,12.28,13.02,18.2c-4,2.37-7.99,5.03-12.13,6.95
			c-8.88-6.81-17.16-15.69-23.38-25.01c-1.78-0.29-2.96-0.15-4.74,0c10.65,16.87,27.23,31.67,44.54,40.39c0,0,0-0.15,0.15-0.15
			c0.15,0,0.44,0.3,0.15,0.44c11.69,5.77,24.12,9.91,37.29,11.69c45.43,6.07,88.78-13.61,113.93-52.38
			C243.12,187.97,241.2,187.97,239.72,188.12z M178.02,201.44l0.44-0.3c6.36,1.48,12.43,3.55,18.05,6.36
			c-4.73,5.47-10.8,10.21-16.42,14.2c-3.4,2.07-6.81,4.29-10.36,6.07l-6.36-2.81l0.44-1.04
			C169.14,216.68,173.87,209.28,178.02,201.44z M148.87,197c8.43,0.15,16.87,1.03,24.71,2.96l0.15,0.44
			c-4.14,7.99-9.32,15.69-14.94,22.93c-2.52,0.3-4.88-0.74-7.4-0.89l-2.52-0.29C148.57,213.42,148.42,205.73,148.87,197z
			 M120.31,199.66c7.69-1.48,15.68-2.66,23.97-2.66l0.15,25.01c-3.11,0.74-6.51,0.74-9.47,1.48c-6.07-7.25-11.1-15.09-15.39-23.23
			L120.31,199.66z M96.49,207.65c5.77-2.81,11.84-4.88,18.05-6.51l0.59,0.15c4.29,8.14,9.62,15.83,14.94,23.53
			c-2.07,1.18-4.59,1.92-6.66,3.11c-9.77-4.88-19.09-11.69-26.93-19.83V207.65z M115.57,232.95c-12.43-3.25-23.97-8.88-34.62-16.57
			v-0.44c3.55-2.22,7.1-4.59,10.95-6.21c8.43,8.43,17.16,14.8,26.63,20.86C117.79,231.48,116.61,232.36,115.57,232.95z
			 M170.47,234.88c-15.68,3.4-33.14,3.55-48.83-0.3c-0.3-0.74,0.74-0.89,1.18-1.33c13.76-9.03,35.22-9.03,48.68,0.74
			C171.95,234.88,170.76,234.58,170.47,234.88z M184.67,230.74l-6.95,2.22c-1.18-0.59-2.22-1.48-3.26-2.37l0.3-0.44
			c9.47-5.62,18.05-12.43,26.19-20.57c3.99,1.63,7.84,3.85,11.39,6.36C204.06,222.6,194.44,227.04,184.67,230.74z"/>
		<path class="st0" d="M75.47,177.02v-24.41c-4.88-0.29-10.36,0.15-15.09-0.44l0.15-51.94l0.3-0.44l14.65-0.15
			c0.15-8.43,0.3-17.46-0.15-25.15l-55.78-0.15l-9.17,0.15c-0.15,7.84-0.15,17.02,0,25.01c5.03,0.15,9.77,0,14.65,0.44v50.31
			l-0.15,2.07l-14.65,0.29c-0.3,8.29-0.3,16.28,0,24.41H75.47z"/>
		<path class="st0" d="M52.84,63.09c3.55-5.03,7.55-9.91,11.99-14.65c3.85-3.7,7.4-7.25,11.54-9.91c3.85,2.52,8.14,4.59,11.84,6.95
			c-4.59,5.77-9.32,11.54-12.73,17.76c1.04,0.44,2.96,0.3,4.44,0c3.7-5.48,7.69-10.95,12.43-15.83c6.36,2.37,12.58,4.88,19.09,6.66
			l0.59,0.59l-3.7,8.58c1.63,0.3,2.66,0.15,4.29,0c1.33-2.52,2.37-5.33,3.85-7.84c8.58,1.92,17.61,2.96,26.78,3.26
			c1.18,1.04,0.3,3.25,0.74,4.59h4c0.44-1.48-0.15-3.11,0.44-4.44c8.58-0.44,17.61-1.33,25.89-3.4l0.74,0.15l3.99,7.69
			c1.33,0,3.11,0.3,4.14-0.3l-3.7-8.58l0.29-0.3c6.81-1.78,13.17-4.44,19.68-7.1c4.59,4.88,8.88,10.65,12.72,16.28
			c1.63,0,3.26,0.15,4.44-0.3c-1.78-3.26-4-6.51-6.36-9.32c-1.92-2.81-4-5.33-6.51-7.99v-0.74l10.36-6.07l1.48-0.59
			c9.03,6.95,17.02,15.39,23.38,24.71c1.78,0,3.26,0.59,4.74-0.15c-19.83-30.18-52.53-49.57-87.89-52.38l-0.15,0.3l-0.3-0.3
			c-3.99-0.44-8.88-0.59-13.17-0.15c-1.63-0.15-3.55,0-5.47,0.15c-35.51,2.81-68.21,21.31-88.63,52.82
			C49.58,63.09,51.36,63.68,52.84,63.09z M114.24,50.07l-0.59,0.15c-6.07-1.63-11.99-3.55-17.61-6.07l0.3-0.89
			c8.14-7.84,16.72-14.35,26.19-19.38c2.22,0.89,4.44,1.63,6.66,2.66l-0.44,1.18C123.12,34.83,118.68,42.52,114.24,50.07z
			 M143.69,54.07c-4.14,0.59-7.84-0.15-11.99-0.44c-4-0.59-9.03-1.04-13.02-2.37c4.29-8.14,9.32-15.98,15.39-23.23l9.47,1.33
			C143.98,37.05,143.69,45.93,143.69,54.07z M148.27,54.21c-0.3-7.84-0.15-16.57,0-24.71c2.96-0.44,6.21-0.89,9.17-1.33
			c5.77,7.4,11.39,14.94,15.24,23.08C164.7,53.18,156.56,54.21,148.27,54.21z M195.47,43.86c-5.77,2.51-11.69,4.88-18.05,6.21
			c-4.59-7.84-9.62-15.68-15.24-23.23c2.07-1.18,4.59-2.07,6.81-3.26c9.62,4.88,18.94,11.84,26.78,19.83L195.47,43.86z
			 M176.54,18.55c12.43,3.26,24.12,8.88,34.77,16.57l-0.3,0.59l-10.21,5.77h-0.74c-7.84-7.99-17.02-14.94-26.34-20.42
			C174.02,20.03,175.5,19.29,176.54,18.55z M170.62,17.07v0.3c-12.87,9.47-33.74,10.36-47.35,1.63c-0.74-0.59-2.22-0.89-2.37-1.92
			C136.58,13.38,155.08,13.08,170.62,17.07z M80.36,35.42c9.32-6.95,19.68-12.13,30.63-15.68c0.44-0.44,0.74-0.89,1.33-0.89v0.3
			c1.18,0.3,2.07-1.04,3.11-0.15c0.89,0.74,1.92,1.33,2.66,2.07c-9.17,5.77-18.2,12.58-26.49,20.86c-4-1.48-7.69-3.7-11.25-6.21
			V35.42z"/>
	</g>
	<g>
		<path class="st0" d="M34.56,278.31l4.22-0.39c0.36,1.99,1.04,3.43,2.05,4.32c1.01,0.9,2.3,1.34,3.88,1.34
			c1.35,0,2.53-0.31,3.55-0.93c1.02-0.62,1.85-1.44,2.5-2.48c0.65-1.03,1.2-2.43,1.64-4.19s0.66-3.55,0.66-5.37
			c0-0.2-0.01-0.49-0.02-0.88c-0.88,1.4-2.08,2.54-3.6,3.41c-1.52,0.87-3.17,1.31-4.94,1.31c-2.96,0-5.47-1.07-7.52-3.22
			s-3.08-4.98-3.08-8.5c0-3.63,1.07-6.55,3.21-8.76c2.14-2.21,4.82-3.32,8.04-3.32c2.33,0,4.46,0.63,6.38,1.88
			c1.93,1.25,3.39,3.04,4.39,5.36c1,2.32,1.5,5.68,1.5,10.07c0,4.57-0.5,8.22-1.49,10.92c-0.99,2.71-2.47,4.77-4.43,6.19
			c-1.96,1.42-4.26,2.12-6.9,2.12c-2.8,0-5.09-0.78-6.86-2.33C35.98,283.31,34.92,281.13,34.56,278.31z M52.55,262.52
			c0-2.52-0.67-4.52-2.01-6.01c-1.34-1.48-2.96-2.22-4.85-2.22c-1.95,0-3.65,0.8-5.1,2.39c-1.45,1.6-2.17,3.66-2.17,6.2
			c0,2.28,0.69,4.13,2.06,5.55c1.38,1.42,3.07,2.14,5.09,2.14c2.03,0,3.71-0.71,5.02-2.14C51.9,267.01,52.55,265.04,52.55,262.52z"
			/>
		<path class="st0" d="M61.71,268.94c0-4.23,0.44-7.64,1.31-10.22c0.87-2.58,2.16-4.57,3.88-5.97c1.72-1.4,3.88-2.1,6.48-2.1
			c1.92,0,3.6,0.39,5.05,1.16c1.45,0.77,2.64,1.89,3.59,3.34c0.94,1.46,1.68,3.23,2.22,5.32c0.54,2.09,0.81,4.91,0.81,8.46
			c0,4.2-0.43,7.59-1.29,10.17c-0.86,2.58-2.15,4.57-3.87,5.98c-1.72,1.41-3.89,2.11-6.51,2.11c-3.45,0-6.16-1.24-8.13-3.71
			C62.89,280.51,61.71,275.66,61.71,268.94z M66.22,268.94c0,5.88,0.69,9.79,2.06,11.73c1.38,1.94,3.07,2.92,5.09,2.92
			c2.02,0,3.71-0.98,5.09-2.93c1.38-1.95,2.06-5.86,2.06-11.72c0-5.89-0.69-9.81-2.06-11.74c-1.38-1.94-3.09-2.91-5.14-2.91
			c-2.02,0-3.63,0.85-4.83,2.56C66.98,259.04,66.22,263.06,66.22,268.94z"/>
		<path class="st0" d="M89.51,268.94c0-4.23,0.44-7.64,1.31-10.22c0.87-2.58,2.16-4.57,3.88-5.97c1.72-1.4,3.88-2.1,6.48-2.1
			c1.92,0,3.6,0.39,5.05,1.16c1.45,0.77,2.64,1.89,3.59,3.34c0.94,1.46,1.68,3.23,2.22,5.32c0.54,2.09,0.81,4.91,0.81,8.46
			c0,4.2-0.43,7.59-1.29,10.17c-0.86,2.58-2.15,4.57-3.87,5.98c-1.72,1.41-3.89,2.11-6.51,2.11c-3.45,0-6.16-1.24-8.13-3.71
			C90.69,280.51,89.51,275.66,89.51,268.94z M94.03,268.94c0,5.88,0.69,9.79,2.06,11.73c1.38,1.94,3.07,2.92,5.09,2.92
			c2.02,0,3.71-0.98,5.09-2.93c1.38-1.95,2.06-5.86,2.06-11.72c0-5.89-0.69-9.81-2.06-11.74c-1.38-1.94-3.09-2.91-5.14-2.91
			c-2.02,0-3.63,0.85-4.83,2.56C94.79,259.04,94.03,263.06,94.03,268.94z"/>
		<path class="st0" d="M133.87,286.59h-4.39v-28c-1.06,1.01-2.45,2.02-4.16,3.03c-1.72,1.01-3.26,1.77-4.63,2.27v-4.25
			c2.46-1.16,4.61-2.55,6.45-4.2c1.84-1.64,3.14-3.24,3.91-4.79h2.83V286.59z"/>
		<path class="st0" d="M147.57,265.67v-5h5.01v5H147.57z M147.57,286.59v-5h5.01v5H147.57z"/>
		<path class="st0" d="M182.12,282.37v4.22h-23.66c-0.03-1.06,0.14-2.08,0.51-3.05c0.6-1.61,1.57-3.2,2.89-4.76s3.24-3.37,5.75-5.42
			c3.89-3.19,6.52-5.72,7.88-7.58c1.37-1.86,2.05-3.63,2.05-5.29c0-1.74-0.62-3.21-1.87-4.41c-1.25-1.2-2.87-1.79-4.87-1.79
			c-2.12,0-3.81,0.63-5.08,1.9s-1.91,3.03-1.93,5.27l-4.52-0.46c0.31-3.37,1.47-5.94,3.49-7.7c2.02-1.77,4.73-2.65,8.13-2.65
			c3.43,0,6.15,0.95,8.15,2.86s3,4.26,3,7.08c0,1.43-0.29,2.84-0.88,4.22c-0.59,1.38-1.56,2.84-2.92,4.37
			c-1.36,1.53-3.62,3.63-6.78,6.3c-2.64,2.21-4.33,3.71-5.08,4.5c-0.75,0.79-1.37,1.58-1.86,2.38H182.12z"/>
		<path class="st0" d="M186.83,268.94c0-4.23,0.44-7.64,1.31-10.22c0.87-2.58,2.16-4.57,3.88-5.97c1.72-1.4,3.88-2.1,6.48-2.1
			c1.92,0,3.61,0.39,5.05,1.16c1.45,0.77,2.64,1.89,3.59,3.34c0.94,1.46,1.69,3.23,2.22,5.32c0.54,2.09,0.8,4.91,0.8,8.46
			c0,4.2-0.43,7.59-1.29,10.17c-0.86,2.58-2.15,4.57-3.87,5.98c-1.72,1.41-3.89,2.11-6.51,2.11c-3.45,0-6.16-1.24-8.13-3.71
			C188.01,280.51,186.83,275.66,186.83,268.94z M191.35,268.94c0,5.88,0.69,9.79,2.06,11.73c1.38,1.94,3.07,2.92,5.09,2.92
			s3.71-0.98,5.09-2.93c1.38-1.95,2.06-5.86,2.06-11.72c0-5.89-0.69-9.81-2.06-11.74c-1.38-1.94-3.09-2.91-5.14-2.91
			c-2.02,0-3.63,0.85-4.83,2.56C192.1,259.04,191.35,263.06,191.35,268.94z"/>
		<path class="st0" d="M231.19,286.59h-4.39v-28c-1.06,1.01-2.45,2.02-4.16,3.03c-1.72,1.01-3.26,1.77-4.63,2.27v-4.25
			c2.46-1.16,4.61-2.55,6.45-4.2c1.84-1.64,3.14-3.24,3.91-4.79h2.83V286.59z"/>
		<path class="st0" d="M242.44,277.21l4.62-0.39c0.34,2.25,1.13,3.93,2.38,5.07c1.24,1.13,2.75,1.7,4.5,1.7
			c2.12,0,3.91-0.8,5.37-2.39c1.46-1.59,2.2-3.71,2.2-6.35c0-2.51-0.71-4.48-2.11-5.93c-1.41-1.45-3.25-2.17-5.53-2.17
			c-1.42,0-2.69,0.32-3.83,0.96c-1.14,0.64-2.04,1.48-2.69,2.5l-4.13-0.54l3.47-18.38h17.8v4.2h-14.28l-1.93,9.62
			c2.15-1.5,4.4-2.25,6.76-2.25c3.13,0,5.76,1.08,7.91,3.25c2.15,2.17,3.22,4.95,3.22,8.35c0,3.24-0.94,6.04-2.83,8.4
			c-2.29,2.9-5.43,4.35-9.4,4.35c-3.26,0-5.91-0.91-7.97-2.73C243.91,282.64,242.74,280.23,242.44,277.21z"/>
	</g>
</g>
</svg>
