<?xml version="1.0" encoding="utf-8"?>
<!-- Generator: Adobe Illustrator 17.0.0, SVG Export Plug-In . SVG Version: 6.00 Build 0)  -->
<!DOCTYPE svg PUBLIC "-//W3C//DTD SVG 1.1//EN" "http://www.w3.org/Graphics/SVG/1.1/DTD/svg11.dtd">
<svg version="1.1" id="Capa_1" xmlns="http://www.w3.org/2000/svg" xmlns:xlink="http://www.w3.org/1999/xlink" x="0px" y="0px"
	 width="792px" height="612px" viewBox="0 0 792 612" enable-background="new 0 0 792 612" xml:space="preserve">
<g>
	<g>
		<g>
			<g>
				<path fill="#FFFFFF" d="M389.064,233.621c-24.908-10.649-59.772-11.771-82.396,4.753
					c-14.708,10.873-19.237,30.335-15.402,47.532c2.938,16.3,18.34,28.295,33.048,33.966c20.155,7.242,41.208,12.444,61.588,19.462
					c2.04,0.898,4.753,2.938,4.304,5.426c0,2.04-2.04,3.162-3.631,4.08c-21.277,5.875-44.37,1.367-59.772-14.933
					c-1.816-2.264-2.938-4.978-4.753-7.242l-30.559,0.224c-0.449,18.34-0.673,39.392,0,57.508l33.966-0.224l0.449-10.873
					c3.856,1.816,7.691,4.08,11.546,6.12c23.542,9.955,53.876,12.22,77.194,0c16.973-9.506,26.03-27.846,23.542-47.532
					c-2.489-19.237-20.604-36.679-38.944-41.432l-54.794-16.075l-4.08-2.04c-1.816-1.591-2.938-3.631-2.489-6.12
					c4.304-7.466,14.26-5.202,21.726-4.978c15.851,2.264,32.15,7.691,41.432,22.42c9.955,0,21.502,0.224,32.375-0.224
					c0.449-18.564-0.224-34.864-0.449-53.652c-10.18-0.224-22.644-0.224-32.824,0.224c-0.449,2.713,0.449,6.569-0.673,9.282
					L389.064,233.621z"/>
				<path fill="#FFFFFF" d="M476.437,237.68c-16.524,8.609-27.397,25.582-30.784,43.003c-6.12,28.744-4.529,62.934,17.197,84.436
					c25.357,22.644,62.261,27.622,95.084,18.34c1.55-0.306,6.508-1.591,9.914-3.427l0.959-0.428
					c10.18-4.304,19.931-11.322,27.173-20.828c16.748-24.908,17.891-62.261,7.691-90.331c-4.08-10.873-12.444-20.604-22.644-27.622
					C551.611,221.83,506.772,220.483,476.437,237.68z M547.756,273.462c3.386,5.202,3.162,11.995,3.856,18.115
					c-0.224,12.913,0.898,28.295-1.367,41.432c-1.122,5.426-4.753,11.098-10.404,13.138c-9.058,4.08-21.277,2.938-29.662-1.816
					c-7.018-4.978-7.915-13.362-8.833-21.277c-0.673-15.626-1.816-32.15,2.489-46.41c3.386-8.833,12.689-11.098,21.053-11.771
					C533.72,264.853,542.329,266.22,547.756,273.462z"/>
				<path fill="#FFFFFF" d="M533.272,401.37c-9.506,13.811-21.502,27.173-34.639,37.577c-0.449,0.673-1.816,0.449-2.264-0.224
					c-5.651-3.631-11.771-6.569-17.197-10.18c7.242-8.833,14.26-17.666,19.686-27.397h-7.018
					c-5.651,8.384-11.546,17.197-19.013,24.684c-9.955-4.08-19.013-7.691-29.213-10.404l-1.122-0.898
					c1.591-4.529,4.529-8.833,5.426-13.362h-6.12l-6.12,12.22c-13.362-2.938-28.07-4.529-41.657-5.426
					c-0.673-2.04,0.224-4.978-0.673-6.793h-5.875c-0.449,2.713,0.673,4.753-0.673,7.018c-14.035,0.673-27.622,2.264-40.759,4.978
					l-6.12-11.995c-2.264,0-4.753-0.449-6.344,0.224l5.651,13.362l-0.673,0.673c-10.18,2.938-20.155,6.569-29.886,10.649
					l-0.898-0.449c-6.344-7.018-12.444-14.708-17.442-22.42c-1.122-3.856-5.651-1.591-8.14-2.04
					c5.426,9.955,12.668,18.788,19.931,27.846c-6.12,3.631-12.22,7.691-18.564,10.649c-13.586-10.424-26.255-23.99-35.761-38.25
					c-2.713-0.449-4.529-0.224-7.242,0c16.3,25.806,41.657,48.45,68.136,61.812c0,0,0-0.224,0.224-0.224s0.673,0.449,0.224,0.673
					c17.891,8.833,36.904,15.157,57.059,17.891c69.503,9.282,135.823-20.828,174.318-80.152
					C538.474,401.146,535.536,401.146,533.272,401.37z M438.86,421.75l0.673-0.449c9.731,2.264,19.013,5.426,27.622,9.731
					c-7.242,8.384-16.524,15.626-25.133,21.726c-5.202,3.162-10.404,6.569-15.851,9.282l-9.731-4.304l0.673-1.591
					C425.274,445.046,432.516,433.745,438.86,421.75z M394.266,414.956c12.913,0.224,25.806,1.591,37.801,4.529l0.224,0.673
					c-6.344,12.22-14.26,23.99-22.868,35.088c-3.856,0.449-7.466-1.122-11.322-1.367l-3.856-0.449
					C393.817,440.069,393.593,428.298,394.266,414.956z M350.569,419.016c11.771-2.264,23.99-4.08,36.679-4.08l0.224,38.25
					c-4.753,1.122-9.955,1.122-14.484,2.264c-9.282-11.098-16.973-23.093-23.542-35.537L350.569,419.016z M314.114,431.256
					c8.833-4.304,18.115-7.466,27.622-9.955l0.898,0.224c6.569,12.444,14.708,24.215,22.868,35.986
					c-3.162,1.816-7.018,2.938-10.18,4.753c-14.933-7.466-29.213-17.891-41.208-30.335V431.256z M343.327,469.955
					c-19.013-4.978-36.679-13.586-52.979-25.357v-0.673c5.426-3.386,10.873-7.018,16.748-9.506
					c12.913,12.893,26.255,22.644,40.759,31.926C346.714,467.69,344.918,469.057,343.327,469.955z M427.314,472.913
					c-23.99,5.202-50.714,5.426-74.705-0.449c-0.449-1.122,1.122-1.367,1.816-2.04c21.053-13.811,53.876-13.811,74.48,1.122
					C429.578,472.913,427.763,472.444,427.314,472.913z M449.06,466.568l-10.649,3.386c-1.816-0.898-3.386-2.264-4.978-3.631
					l0.449-0.673c14.484-8.609,27.622-19.013,40.066-31.457c6.12,2.489,11.995,5.875,17.422,9.731
					C478.702,454.104,463.993,460.897,449.06,466.568z"/>
				<path fill="#FFFFFF" d="M281.984,384.377v-37.352c-7.466-0.449-15.851,0.224-23.093-0.673l0.224-79.458l0.449-0.673l22.42-0.224
					c0.224-12.913,0.449-26.704-0.224-38.495l-85.354-0.224l-14.035,0.224c-0.224,11.995-0.224,26.03,0,38.27
					c7.691,0.224,14.933,0,22.42,0.673v76.969l-0.224,3.162l-22.42,0.449c-0.449,12.689-0.449,24.908,0,37.352H281.984z"/>
				<path fill="#FFFFFF" d="M247.345,210.059c5.426-7.691,11.546-15.178,18.34-22.42c5.896-5.651,11.322-11.098,17.666-15.178
					c5.875,3.856,12.444,7.018,18.115,10.649c-7.018,8.833-14.26,17.666-19.462,27.173c1.591,0.673,4.529,0.449,6.793,0
					c5.651-8.384,11.771-16.748,19.013-24.215c9.731,3.631,19.237,7.466,29.213,10.18l0.898,0.898l-5.651,13.138
					c2.489,0.449,4.08,0.224,6.569,0c2.04-3.856,3.631-8.16,5.875-11.995c13.138,2.938,26.948,4.529,40.984,4.978
					c1.816,1.591,0.449,4.978,1.122,7.018h6.12c0.673-2.264-0.224-4.753,0.673-6.793c13.138-0.673,26.948-2.04,39.617-5.202
					l1.122,0.224l6.12,11.771c2.04,0,4.753,0.449,6.344-0.449l-5.651-13.138l0.449-0.449c10.424-2.713,20.155-6.793,30.11-10.873
					c7.018,7.466,13.586,16.3,19.462,24.908c2.489,0,4.978,0.224,6.793-0.449c-2.713-4.978-6.12-9.955-9.731-14.26
					c-2.938-4.304-6.12-8.16-9.955-12.22v-1.122l15.851-9.282l2.264-0.898c13.811,10.649,26.03,23.542,35.761,37.801
					c2.713,0,4.978,0.898,7.242-0.224c-30.335-46.186-80.376-75.847-134.477-80.131l-0.224,0.449l-0.449-0.449
					c-6.12-0.673-13.586-0.898-20.155-0.224c-2.489-0.224-5.426,0-8.384,0.224c-54.325,4.304-104.366,32.599-135.599,80.825
					C242.368,210.059,245.081,210.977,247.345,210.059z M341.287,190.148l-0.898,0.224c-9.282-2.489-18.34-5.426-26.948-9.282
					l0.449-1.367c12.444-11.995,25.582-21.95,40.066-29.662c3.386,1.367,6.793,2.489,10.18,4.08l-0.673,1.816
					C354.874,166.831,348.08,178.602,341.287,190.148z M386.351,196.248c-6.344,0.898-11.995-0.224-18.34-0.673
					c-6.12-0.898-13.811-1.591-19.931-3.631c6.569-12.444,14.26-24.46,23.542-35.537l14.484,2.04
					C386.8,170.218,386.351,183.804,386.351,196.248z M393.348,196.493c-0.449-11.995-0.224-25.357,0-37.801
					c4.529-0.673,9.506-1.367,14.035-2.04c8.833,11.322,17.442,22.868,23.317,35.312
					C418.481,194.902,406.037,196.493,393.348,196.493z M465.584,180.642c-8.833,3.856-17.891,7.466-27.622,9.506
					c-7.018-11.995-14.708-23.99-23.317-35.537c3.162-1.816,7.018-3.162,10.404-4.978c14.708,7.466,28.968,18.115,40.984,30.335
					L465.584,180.642z M436.596,141.923c19.013,4.978,36.904,13.586,53.203,25.357l-0.449,0.898l-15.626,8.833h-1.122
					c-11.995-12.22-26.03-22.868-40.29-31.232C432.74,144.187,435.005,143.065,436.596,141.923z M427.538,139.658v0.449
					c-19.706,14.484-51.612,15.851-72.44,2.489c-1.122-0.898-3.386-1.367-3.631-2.938
					C375.478,134.008,403.772,133.538,427.538,139.658z M289.451,167.729c14.26-10.649,30.11-18.564,46.859-23.99
					c0.673-0.673,1.122-1.367,2.04-1.367v0.449c1.816,0.449,3.162-1.591,4.753-0.224c1.367,1.122,2.938,2.04,4.08,3.162
					c-14.035,8.833-27.846,19.237-40.514,31.926c-6.12-2.264-11.771-5.651-17.197-9.506v-0.449H289.451z"/>
			</g>
			<g>
				<path fill="#FFFFFF" d="M258.463,565.366l8.956-1.204c1.02,5.08,2.774,8.731,5.263,10.975c2.468,2.244,5.488,3.366,9.037,3.366
					c4.223,0,7.772-1.469,10.69-4.386c2.897-2.917,4.366-6.548,4.366-10.853c0-4.121-1.346-7.507-4.039-10.18
					c-2.693-2.672-6.12-3.998-10.261-3.998c-1.693,0-3.794,0.326-6.324,1l1-7.874c0.592,0.061,1.081,0.102,1.448,0.102
					c3.815,0,7.262-1,10.302-2.978c3.06-1.999,4.59-5.059,4.59-9.221c0-3.284-1.122-6.018-3.346-8.16
					c-2.224-2.162-5.1-3.244-8.609-3.244c-3.488,0-6.385,1.102-8.711,3.284s-3.815,5.488-4.488,9.853l-8.956-1.591
					c1.102-6.018,3.59-10.669,7.466-13.974c3.876-3.305,8.711-4.957,14.484-4.957c3.978,0,7.65,0.857,11.016,2.57
					c3.346,1.714,5.916,4.039,7.691,6.997c1.775,2.958,2.672,6.1,2.672,9.404c0,3.162-0.857,6.018-2.55,8.609
					c-1.693,2.591-4.202,4.651-7.528,6.181c4.325,1,7.67,3.06,10.057,6.202c2.387,3.142,3.59,7.058,3.59,11.771
					c0,6.385-2.326,11.771-6.977,16.218c-4.651,4.427-10.526,6.65-17.626,6.65c-6.406,0-11.73-1.918-15.953-5.732
					C261.482,576.402,259.055,571.445,258.463,565.366z"/>
				<path fill="#FFFFFF" d="M348.917,584.644h-8.956v-57.12c-2.162,2.06-4.998,4.121-8.486,6.181
					c-3.509,2.06-6.65,3.611-9.445,4.631v-8.67c5.018-2.366,9.404-5.202,13.158-8.568c3.754-3.346,6.406-6.61,7.976-9.772h5.773
					v73.318H348.917z"/>
				<path fill="#FFFFFF" d="M371.867,548.638c0-8.629,0.898-15.586,2.672-20.849c1.775-5.263,4.406-9.323,7.915-12.179
					c3.509-2.856,7.915-4.284,13.219-4.284c3.917,0,7.344,0.796,10.302,2.366c2.958,1.571,5.386,3.856,7.324,6.814
					c1.918,2.978,3.427,6.589,4.529,10.853c1.102,4.264,1.652,10.016,1.652,17.258c0,8.568-0.877,15.484-2.632,20.747
					c-1.754,5.263-4.386,9.323-7.895,12.199c-3.509,2.876-7.936,4.304-13.28,4.304c-7.038,0-12.566-2.53-16.585-7.568
					C374.274,572.24,371.867,562.346,371.867,548.638z M381.088,548.638c0,11.995,1.408,19.972,4.202,23.929
					c2.815,3.958,6.263,5.957,10.384,5.957c4.121,0,7.589-1.999,10.384-5.977c2.795-3.978,4.202-11.954,4.202-23.909
					c0-12.016-1.408-20.012-4.202-23.95c-2.815-3.958-6.304-5.936-10.486-5.936c-4.121,0-7.405,1.734-9.853,5.222
					C382.618,528.442,381.088,536.642,381.088,548.638z"/>
				<path fill="#FFFFFF" d="M428.599,548.638c0-8.629,0.898-15.586,2.672-20.849c1.775-5.263,4.406-9.323,7.915-12.179
					c3.509-2.856,7.915-4.284,13.219-4.284c3.917,0,7.364,0.796,10.302,2.366c2.958,1.571,5.386,3.856,7.324,6.814
					c1.918,2.978,3.448,6.589,4.529,10.853c1.102,4.264,1.632,10.016,1.632,17.258c0,8.568-0.877,15.484-2.632,20.747
					c-1.754,5.263-4.386,9.323-7.895,12.199c-3.509,2.876-7.936,4.304-13.28,4.304c-7.038,0-12.566-2.53-16.585-7.568
					C431.006,572.24,428.599,562.346,428.599,548.638z M437.82,548.638c0,11.995,1.408,19.972,4.202,23.929
					c2.815,3.958,6.263,5.957,10.384,5.957c4.121,0,7.568-1.999,10.384-5.977c2.815-3.978,4.202-11.954,4.202-23.909
					c0-12.016-1.408-20.012-4.202-23.95c-2.815-3.958-6.304-5.936-10.486-5.936c-4.121,0-7.405,1.734-9.853,5.222
					C439.35,528.442,437.82,536.642,437.82,548.638z"/>
				<path fill="#FFFFFF" d="M485.332,548.638c0-8.629,0.877-15.586,2.672-20.849c1.775-5.263,4.427-9.323,7.915-12.179
					c3.509-2.856,7.915-4.284,13.219-4.284c3.917,0,7.344,0.796,10.302,2.366s5.386,3.856,7.324,6.814
					c1.918,2.978,3.427,6.589,4.529,10.853c1.102,4.264,1.652,10.016,1.652,17.258c0,8.568-0.877,15.484-2.632,20.747
					c-1.754,5.263-4.386,9.323-7.895,12.199c-3.509,2.876-7.936,4.304-13.28,4.304c-7.038,0-12.566-2.53-16.585-7.568
					C487.739,572.24,485.332,562.346,485.332,548.638z M494.532,548.638c0,11.995,1.408,19.972,4.202,23.929
					c2.815,3.958,6.263,5.957,10.384,5.957c4.121,0,7.568-1.999,10.384-5.977s4.202-11.954,4.202-23.909
					c0-12.016-1.408-20.012-4.202-23.95c-2.815-3.958-6.304-5.936-10.486-5.936c-4.121,0-7.405,1.734-9.853,5.222
					C496.082,528.442,494.532,536.642,494.532,548.638z"/>
			</g>
		</g>
		<g>
			<path fill="#FFFFFF" d="M114.562,409.244l33.374-11.179l1.448,4.325l-33.374,11.179L114.562,409.244z"/>
			<path fill="#FFFFFF" d="M127.597,395.27c-2.55,0.632-4.57,1.224-6.569,1.836l-0.979-3.937l3.978-1.244l-0.02-0.122
				c-2.591-0.632-5.59-2.917-6.589-6.977c-0.836-3.366-0.102-9.139,8.303-11.22l14.627-3.611l1.102,4.427l-14.137,3.488
				c-3.958,0.979-6.916,3.284-5.875,7.466c0.714,2.917,3.366,4.692,6.059,4.876c0.592,0.041,1.408-0.02,2.142-0.204l14.77-3.652
				l1.102,4.427L127.597,395.27z"/>
			<path fill="#FFFFFF" d="M106.32,363.12l7.181-1.122l-1.02-6.528l3.448-0.53l1.02,6.528l13.444-2.101
				c3.101-0.49,4.733-1.652,4.325-4.182c-0.184-1.183-0.469-1.999-0.734-2.57l3.407-0.734c0.49,0.836,0.979,2.183,1.265,3.958
				c0.326,2.081-0.102,3.917-1.163,5.202c-1.183,1.469-3.305,2.326-6.242,2.774l-13.627,2.122l0.612,3.856l-3.427,0.53l-0.612-3.856
				l-6.018,0.938L106.32,363.12z"/>
			<path fill="#FFFFFF" d="M124.925,345.76c6.181-0.551,8.446-4.651,8.119-9.262c-0.245-3.284-0.979-5.243-1.795-6.875l3.203-1.04
				c0.857,1.55,1.918,4.284,2.224,8.282c0.571,7.732-4.243,12.77-11.812,13.321c-7.63,0.551-13.913-3.509-14.464-10.853
				c-0.592-8.221,6.446-10.894,11.098-11.24c0.959-0.061,1.652-0.061,2.162,0L124.925,345.76z M120.661,332.602
				c-2.897,0.163-7.324,1.734-6.956,6.854c0.347,4.672,4.712,6.365,7.936,6.487L120.661,332.602z"/>
			<path fill="#FFFFFF" d="M118.07,321.83c-2.978-0.041-5.528-0.02-7.874,0.082l0.061-4.019l4.957-0.102v-0.163
				c-3.366-1.224-5.467-4.06-5.406-7.12c0-0.49,0.041-0.857,0.143-1.265l4.325,0.061c-0.102,0.469-0.143,0.938-0.163,1.55
				c-0.061,3.244,2.346,5.569,5.773,6.242c0.632,0.122,1.387,0.204,2.142,0.224l13.484,0.224l-0.082,4.57L118.07,321.83z"/>
			<path fill="#FFFFFF" d="M117.316,303.756c-2.632-0.245-4.712-0.367-6.814-0.449l0.388-4.039l4.162,0.143l0.02-0.122
				c-2.244-1.469-4.304-4.61-3.917-8.772c0.326-3.448,2.917-8.67,11.567-7.834l14.994,1.428l-0.428,4.549l-14.504-1.387
				c-4.06-0.388-7.609,0.816-8.017,5.1c-0.286,2.999,1.632,5.549,4.1,6.61c0.551,0.245,1.346,0.449,2.101,0.51l15.157,1.448
				l-0.428,4.549L117.316,303.756z"/>
			<path fill="#FFFFFF" d="M141.571,263.874l-3.203-0.224l-0.02,0.143c1.652,1.754,2.876,4.774,2.162,8.323
				c-1,4.998-5.08,6.854-8.629,6.14c-5.998-1.204-8.221-7.181-6.222-16.728l-0.53-0.102c-2.02-0.408-5.855-0.592-6.854,4.488
				c-0.469,2.305-0.265,4.855,0.551,6.814l-3.203,0.428c-0.918-2.326-1.163-5.488-0.53-8.609c1.53-7.568,7.079-8.364,12.036-7.364
				l9.262,1.856c2.122,0.428,4.243,0.755,5.998,0.816L141.571,263.874z M128.78,262.038c-1.081,4.855-1.326,10.608,3.448,11.567
				c2.958,0.592,4.692-1.081,5.161-3.325c0.653-3.264-0.979-5.732-2.938-6.875c-0.449-0.245-0.938-0.408-1.367-0.49L128.78,262.038z
				"/>
			<path fill="#FFFFFF" d="M114.276,239.659l6.997,1.999l1.816-6.344l3.346,0.959l-1.816,6.344l13.076,3.754
				c3.019,0.877,4.978,0.49,5.692-1.979c0.326-1.142,0.428-2.02,0.408-2.652l3.407,0.755c0.082,0.959-0.041,2.407-0.53,4.121
				c-0.592,2.02-1.734,3.529-3.244,4.223c-1.693,0.836-3.978,0.714-6.834-0.102l-13.26-3.815l-1.081,3.754l-3.346-0.959l1.081-3.754
				l-5.855-1.673L114.276,239.659z"/>
			<path fill="#FFFFFF" d="M120.029,222.319c1.469,0.51,2.326,1.979,1.734,3.692c-0.551,1.571-2.142,2.203-3.611,1.673
				c-1.489-0.51-2.305-2.04-1.754-3.631C116.969,222.442,118.519,221.809,120.029,222.319z M148.915,237.844l-23.848-8.323
				l1.51-4.304l23.827,8.323L148.915,237.844z"/>
			<path fill="#FFFFFF" d="M150.098,200.838c8.568,3.774,9.69,11.363,7.242,16.912c-2.754,6.263-9.466,9.098-16.789,5.875
				c-7.732-3.407-10.016-10.486-7.222-16.871C136.267,200.104,143.06,197.737,150.098,200.838z M142.306,219.28
				c5.08,2.224,10.159,1,11.975-3.101c1.775-4.039-0.673-8.711-5.916-11.016c-3.917-1.714-9.731-1.918-11.914,3.08
				C134.268,213.18,137.92,217.342,142.306,219.28z"/>
			<path fill="#FFFFFF" d="M148.222,192.474c-2.285-1.326-4.141-2.285-6.018-3.244l2.04-3.509l3.713,1.856l0.061-0.102
				c-1.428-2.264-1.999-5.977,0.082-9.588c1.734-2.999,6.263-6.65,13.77-2.305l13.036,7.548l-2.285,3.958l-12.607-7.303
				c-3.529-2.04-7.262-2.428-9.425,1.285c-1.51,2.611-0.836,5.712,0.979,7.711c0.388,0.449,1.04,0.959,1.693,1.346l13.178,7.63
				l-2.285,3.958L148.222,192.474z"/>
			<path fill="#FFFFFF" d="M186.859,166.28l-2.815-1.55l-0.082,0.102c0.775,2.285,0.632,5.528-1.489,8.466
				c-2.999,4.121-7.466,4.121-10.404,1.979c-4.957-3.59-4.488-9.955,1.306-17.809l-0.428-0.306c-1.652-1.204-5.08-2.978-8.099,1.224
				c-1.387,1.897-2.264,4.304-2.346,6.426l-3.08-0.959c0.143-2.489,1.224-5.467,3.101-8.058c4.529-6.242,9.914-4.672,14.015-1.693
				l7.65,5.549c1.754,1.265,3.55,2.448,5.12,3.244L186.859,166.28z M175.986,159.283c-2.999,3.958-5.63,9.098-1.673,11.954
				c2.448,1.775,4.733,0.979,6.079-0.898c1.958-2.693,1.489-5.61,0.184-7.466c-0.306-0.408-0.694-0.775-1.04-1.02L175.986,159.283z"
				/>
			<path fill="#FFFFFF" d="M165.031,134.191l2.938-3.488l28.376,23.848l-2.938,3.488L165.031,134.191z"/>
			<path fill="#FFFFFF" d="M218.296,107.63c8.119,8.935,7.038,18.646,0.388,24.684c-6.895,6.283-16.565,5.304-23.725-2.55
				c-7.507-8.242-7.344-18.299-0.388-24.623C201.69,98.654,211.258,99.899,218.296,107.63z M198.467,126.439
				c5.059,5.569,12.628,7.793,17.932,2.978c5.345-4.855,3.876-12.485-1.51-18.401c-4.712-5.182-12.342-8.119-17.932-3.04
				C191.368,113.057,193.285,120.748,198.467,126.439z"/>
			<path fill="#FFFFFF" d="M224.212,104.224c-1.775-2.387-3.346-4.386-4.855-6.202l3.244-2.387l3.08,3.876l0.122-0.102
				c-1.061-3.427-0.102-6.793,2.346-8.629c0.408-0.306,0.714-0.49,1.102-0.653l2.57,3.468c-0.428,0.204-0.836,0.449-1.326,0.816
				c-2.591,1.938-2.978,5.243-1.448,8.384c0.286,0.592,0.694,1.224,1.122,1.836l8.038,10.832l-3.672,2.713L224.212,104.224z"/>
			<path fill="#FFFFFF" d="M252.71,75.786c0.836,1.591,1.836,3.386,3.448,5.998l7.691,12.485c3.06,4.978,3.876,8.588,2.978,11.73
				c-0.918,3.244-3.529,5.732-6.242,7.405c-2.611,1.591-5.814,2.734-8.262,2.652l-0.877-3.611c1.979,0.02,4.712-0.53,7.385-2.162
				c3.998-2.448,5.651-6.344,2.285-11.791l-1.469-2.407l-0.082,0.061c0.061,2.754-1.285,5.794-4.61,7.834
				c-5.365,3.305-11.975,1.081-15.647-4.876C234.82,91.8,237.043,84.782,242,81.722c3.733-2.305,6.936-1.612,8.996-0.408
				l0.082-0.061l-1.816-3.325L252.71,75.786z M253.853,86.761c-0.388-0.632-0.816-1.183-1.285-1.612
				c-2.122-1.836-5.161-2.55-8.058-0.775c-3.733,2.285-4.468,7.099-1.387,12.097c2.591,4.202,6.936,6.406,11.138,3.835
				c2.428-1.489,3.652-4.366,2.958-7.385c-0.184-0.755-0.551-1.591-0.979-2.264L253.853,86.761z"/>
			<path fill="#FFFFFF" d="M284.33,88.23l-1.754-2.693l-0.122,0.061c-0.388,2.387-2.081,5.182-5.345,6.732
				c-4.59,2.203-8.527,0.082-10.098-3.203c-2.652-5.508,0.796-10.894,9.608-15.055l-0.224-0.49c-0.898-1.856-3.06-5.018-7.711-2.774
				c-2.122,1.02-4.039,2.713-5.12,4.549l-2.264-2.305c1.306-2.122,3.692-4.223,6.548-5.61c6.956-3.346,10.934,0.612,13.138,5.161
				l4.08,8.527c0.938,1.938,1.958,3.835,2.958,5.284L284.33,88.23z M278.108,76.908c-4.529,2.06-9.262,5.324-7.16,9.731
				c1.306,2.713,3.692,3.101,5.773,2.101c2.999-1.448,3.978-4.243,3.713-6.467c-0.061-0.51-0.245-1-0.428-1.408L278.108,76.908z"/>
			<path fill="#FFFFFF" d="M287.513,66.647c-0.898-2.489-1.673-4.427-2.489-6.344l3.815-1.367l1.632,3.815l0.122-0.041
				c0.367-2.652,2.346-5.855,6.263-7.262c3.264-1.163,9.078-1.04,11.995,7.14l5.08,14.178l-4.304,1.53l-4.896-13.709
				c-1.367-3.835-3.978-6.548-8.017-5.1c-2.836,1.02-4.325,3.815-4.243,6.528c0,0.592,0.163,1.408,0.428,2.122l5.12,14.321
				l-4.304,1.53L287.513,66.647z"/>
			<path fill="#FFFFFF" d="M317.011,42.432c0.408,1.51-0.306,3.04-2.081,3.529c-1.612,0.428-3.019-0.51-3.427-2.02
				c-0.408-1.53,0.388-3.06,1.999-3.509C315.175,39.964,316.583,40.882,317.011,42.432z M320.54,75.031l-6.61-24.378l4.406-1.204
				l6.61,24.378L320.54,75.031z"/>
			<path fill="#FFFFFF" d="M328.476,69.992l8.262-16.81c0.836-1.612,1.591-2.978,2.468-4.529l-0.02-0.102l-13.444,2.713l-0.714-3.59
				l18.911-3.794l0.53,2.815l-8.18,16.626c-0.796,1.55-1.55,3.019-2.407,4.488l0.02,0.102l14.464-2.917l0.714,3.59l-20.094,4.039
				L328.476,69.992z"/>
			<path fill="#FFFFFF" d="M366.93,66.524l-0.755-3.121l-0.143,0.02c-1.163,2.101-3.672,4.182-7.283,4.57
				c-5.08,0.551-8.058-2.774-8.446-6.385c-0.653-6.079,4.366-10.016,14.076-10.996l-0.061-0.53c-0.224-2.04-1.204-5.753-6.344-5.182
				c-2.346,0.245-4.712,1.224-6.344,2.57l-1.367-2.917c1.938-1.571,4.876-2.754,8.058-3.101c7.67-0.836,10.118,4.223,10.669,9.241
				l1.02,9.404c0.224,2.142,0.551,4.264,1.02,5.977L366.93,66.524z M364.829,53.795c-4.957,0.428-10.506,1.938-9.996,6.793
				c0.326,2.999,2.448,4.162,4.733,3.917c3.305-0.367,5.161-2.672,5.671-4.876c0.102-0.51,0.102-1.02,0.061-1.469L364.829,53.795z"
				/>
			<path fill="#FFFFFF" d="M381.761,33.191l0.204,7.262l6.589-0.184l0.102,3.468l-6.589,0.184l0.388,13.607
				c0.082,3.142,1.04,4.896,3.611,4.814c1.183-0.041,2.06-0.204,2.652-0.408l0.306,3.488c-0.877,0.367-2.305,0.694-4.08,0.755
				c-2.101,0.061-3.876-0.592-5.018-1.795c-1.306-1.346-1.877-3.57-1.979-6.528l-0.388-13.79l-3.917,0.102l-0.102-3.468l3.917-0.102
				l-0.163-6.079L381.761,33.191z"/>
			<path fill="#FFFFFF" d="M393.96,65.627l0.673-25.235l4.57,0.122l-0.673,25.235L393.96,65.627z M399.958,33.395
				c-0.041,1.571-1.163,2.815-2.999,2.774c-1.652-0.041-2.734-1.367-2.693-2.917c0.041-1.571,1.244-2.815,2.938-2.774
				C398.897,30.518,399.978,31.804,399.958,33.395z"/>
			<path fill="#FFFFFF" d="M429.578,55.447c-0.959,9.302-7.854,12.709-13.892,12.077c-6.814-0.714-11.567-6.222-10.73-14.198
				c0.877-8.405,6.916-12.75,13.852-12.036C426.049,42.065,430.374,47.797,429.578,55.447z M409.627,53.672
				c-0.571,5.508,2.162,9.996,6.61,10.445c4.386,0.449,8.078-3.305,8.67-8.996c0.449-4.243-1.142-9.853-6.569-10.404
				C412.973,44.166,410.117,48.919,409.627,53.672z"/>
			<path fill="#FFFFFF" d="M436.963,51.102c0.551-2.57,0.918-4.631,1.244-6.712l3.958,0.857l-0.632,4.121l0.122,0.02
				c1.714-2.06,5.08-3.733,9.16-2.856c3.386,0.734,8.262,3.937,6.406,12.403l-3.203,14.729l-4.468-0.979l3.101-14.239
				c0.857-3.998,0.082-7.65-4.121-8.568c-2.938-0.632-5.692,0.959-7.058,3.284c-0.306,0.51-0.592,1.285-0.755,2.02l-3.223,14.872
				l-4.468-0.979L436.963,51.102z"/>
			<path fill="#FFFFFF" d="M471.154,79.05l7.283-20.522l-3.325-1.183l1.163-3.284l3.325,1.183l0.408-1.142
				c1.183-3.346,3.04-6.12,5.732-7.364c2.183-1,4.57-0.857,6.569-0.143c1.571,0.551,2.754,1.346,3.448,1.999l-1.754,3.121
				c-0.551-0.53-1.306-1.081-2.591-1.53c-3.652-1.306-5.773,1.612-7.058,5.284l-0.449,1.285l5.753,2.04l-1.163,3.284l-5.732-2.04
				l-7.283,20.522L471.154,79.05z"/>
			<path fill="#FFFFFF" d="M509.934,81.151c-3.835,8.527-11.424,9.608-16.973,7.12c-6.242-2.815-9.017-9.527-5.732-16.85
				c3.468-7.711,10.567-9.935,16.932-7.079C510.77,67.32,513.096,74.134,509.934,81.151z M491.554,73.216
				c-2.264,5.059-1.081,10.159,2.999,11.995c4.019,1.816,8.711-0.592,11.057-5.814c1.754-3.896,1.999-9.71-2.978-11.954
				C497.714,65.219,493.512,68.85,491.554,73.216z"/>
			<path fill="#FFFFFF" d="M517.502,80.294c1.448-2.611,2.632-4.855,3.652-6.956l3.509,1.958l-2.264,4.406l0.143,0.082
				c2.693-2.387,6.161-2.897,8.833-1.387c0.428,0.245,0.734,0.449,1.061,0.734l-2.101,3.774c-0.367-0.306-0.755-0.571-1.306-0.877
				c-2.815-1.571-6.018-0.571-8.242,2.122c-0.428,0.51-0.836,1.122-1.204,1.775l-6.589,11.771l-3.978-2.224L517.502,80.294z"/>
			<path fill="#FFFFFF" d="M535.128,104.672c0.877,2.224,2.672,4.794,5.202,6.65c3.754,2.754,7.385,2.407,9.506-0.449
				c1.938-2.632,1.53-5.304-1.244-9.547c-3.427-5.039-4.508-9.588-1.591-13.546c3.244-4.406,9.323-4.998,14.851-0.938
				c2.876,2.122,4.529,4.366,5.243,5.977l-3.223,2.244c-0.51-1.204-1.816-3.407-4.366-5.284c-3.896-2.856-7.058-1.632-8.486,0.306
				c-1.938,2.632-1.163,5.202,1.632,9.588c3.427,5.426,4.141,9.506,1.102,13.668c-3.203,4.345-9.221,5.814-15.932,0.877
				c-2.734-2.02-5.12-5.039-5.896-7.181L535.128,104.672z"/>
			<path fill="#FFFFFF" d="M577.499,103.55l-4.774,5.488l4.978,4.325l-2.285,2.632l-4.978-4.325l-8.915,10.282
				c-2.06,2.366-2.55,4.304-0.612,5.998c0.898,0.775,1.652,1.244,2.224,1.489l-2.122,2.774c-0.898-0.326-2.162-1.04-3.509-2.203
				c-1.591-1.387-2.468-3.06-2.468-4.712c-0.041-1.877,1.02-3.896,2.978-6.14l9.037-10.424l-2.958-2.57l2.285-2.632l2.958,2.57
				l3.978-4.59L577.499,103.55z"/>
			<path fill="#FFFFFF" d="M574.255,145.452l1.999-2.53l-0.102-0.102c-2.387,0.388-5.569-0.306-8.099-2.876
				c-3.57-3.652-2.815-8.038-0.224-10.588c4.366-4.284,10.567-2.774,17.34,4.243l0.388-0.367c1.469-1.428,3.774-4.508,0.122-8.18
				c-1.652-1.673-3.876-2.938-5.957-3.386l1.448-2.876c2.428,0.551,5.182,2.122,7.426,4.406c5.406,5.508,2.958,10.547-0.653,14.096
				l-6.752,6.61c-1.53,1.51-2.999,3.08-4.039,4.508L574.255,145.452z M582.966,135.905c-3.407-3.631-8.017-7.058-11.506-3.631
				c-2.142,2.101-1.754,4.488-0.143,6.14c2.326,2.366,5.284,2.407,7.324,1.428c0.469-0.224,0.877-0.551,1.183-0.857L582.966,135.905
				z"/>
			<path fill="#FFFFFF" d="M595.696,141.474c2.06-1.652,3.652-3.019,5.202-4.406l2.53,3.182l-3.08,2.795l0.082,0.102
				c2.632-0.51,6.304,0.326,8.894,3.59c2.162,2.713,3.917,8.262-2.876,13.668l-11.791,9.384l-2.856-3.57l11.383-9.078
				c3.182-2.55,4.916-5.875,2.224-9.241c-1.877-2.366-5.018-2.856-7.548-1.897c-0.551,0.204-1.265,0.612-1.856,1.081l-11.893,9.486
				l-2.856-3.57L595.696,141.474z"/>
			<path fill="#FFFFFF" d="M641.473,173.767l-25.847,16.3c-1.897,1.204-3.998,2.611-5.406,3.652l-2.183-3.448l3.57-2.53
				l-0.061-0.102c-3.142,0.306-6.548-1.122-8.752-4.61c-3.264-5.182-1.408-11.934,5.08-16.014c7.12-4.529,14.26-2.836,17.524,2.366
				c2.06,3.284,1.918,6.467,0.816,8.486l0.061,0.082l12.75-8.038L641.473,173.767z M620.339,181.682
				c0.51-0.326,1.122-0.775,1.55-1.204c2.06-2.142,2.774-5.508,0.918-8.446c-2.53-4.019-7.589-4.202-12.281-1.244
				c-4.345,2.734-6.589,7.16-3.937,11.363c1.632,2.591,4.876,3.856,8.242,2.734c0.592-0.184,1.183-0.469,1.795-0.857
				L620.339,181.682z"/>
			<path fill="#FFFFFF" d="M619.502,212.058l2.672-1.775l-0.061-0.122c-2.387-0.367-5.202-2.02-6.793-5.263
				c-2.264-4.57-0.163-8.527,3.08-10.118c5.488-2.713,10.894,0.673,15.157,9.445l0.49-0.245c1.836-0.898,4.998-3.101,2.693-7.732
				c-1.04-2.101-2.754-3.998-4.59-5.059l2.285-2.285c2.142,1.285,4.264,3.631,5.671,6.508c3.407,6.916-0.49,10.934-5.018,13.178
				l-8.466,4.182c-1.938,0.959-3.815,1.999-5.243,3.019L619.502,212.058z M630.743,205.714c-2.101-4.508-5.426-9.221-9.792-7.058
				c-2.713,1.326-3.06,3.713-2.04,5.794c1.469,2.978,4.284,3.937,6.508,3.652c0.51-0.082,1-0.245,1.387-0.449L630.743,205.714z"/>
			<path fill="#FFFFFF" d="M639.882,215.2c2.774-1.102,5.1-2.101,7.242-3.101l1.489,3.733l-4.549,1.979l0.061,0.143
				c3.59-0.143,6.589,1.652,7.732,4.508c0.184,0.469,0.286,0.816,0.347,1.244l-4.019,1.591c-0.082-0.469-0.224-0.918-0.449-1.51
				c-1.183-2.999-4.304-4.243-7.732-3.55c-0.653,0.122-1.367,0.347-2.06,0.612l-12.546,4.978l-1.673-4.243L639.882,215.2z"/>
			<path fill="#FFFFFF" d="M671.278,246.616l-29.294,8.731c-2.142,0.632-4.549,1.448-6.181,2.06l-1.163-3.917l4.121-1.469
				l-0.041-0.122c-3.101-0.53-5.998-2.856-7.181-6.793c-1.754-5.855,1.856-11.873,9.2-14.056c8.078-2.448,14.484,1.102,16.238,6.997
				c1.102,3.713,0.102,6.732-1.489,8.405l0.02,0.102l14.443-4.304L671.278,246.616z M648.797,248.554
				c0.571-0.163,1.285-0.449,1.816-0.755c2.57-1.51,4.162-4.57,3.162-7.874c-1.367-4.549-6.161-6.1-11.485-4.508
				c-4.916,1.469-8.262,5.12-6.854,9.874c0.877,2.938,3.672,5.018,7.201,4.855c0.632-0.02,1.265-0.143,1.958-0.347L648.797,248.554z
				"/>
			<path fill="#FFFFFF" d="M637.148,264.058l24.704-5.263l0.959,4.468l-24.704,5.263L637.148,264.058z M669.911,262.324
				c-1.53,0.326-3.019-0.469-3.407-2.264c-0.347-1.632,0.694-2.978,2.224-3.305c1.55-0.326,3.04,0.551,3.386,2.203
				C672.481,260.63,671.482,261.977,669.911,262.324z"/>
			<path fill="#FFFFFF" d="M641.759,272.218l16.32,9.18c1.55,0.918,2.897,1.754,4.386,2.713l0.102-0.02l-1.958-13.586l3.631-0.53
				l2.754,19.094l-2.836,0.388l-16.157-9.078c-1.51-0.877-2.938-1.714-4.345-2.652l-0.102,0.02l2.122,14.606l-3.631,0.53
				l-2.938-20.298L641.759,272.218z"/>
			<path fill="#FFFFFF" d="M643.105,310.794l3.162-0.571v-0.143c-2.04-1.285-3.978-3.896-4.182-7.507
				c-0.265-5.1,3.203-7.895,6.814-8.099c6.1-0.326,9.751,4.896,10.22,14.647l0.53-0.02c2.04-0.102,5.814-0.898,5.508-6.059
				c-0.122-2.346-0.959-4.753-2.244-6.467l2.999-1.204c1.469,2.02,2.489,5.018,2.652,8.201c0.408,7.711-4.753,9.874-9.812,10.139
				l-9.425,0.51c-2.162,0.122-4.304,0.326-6.018,0.714L643.105,310.794z M655.957,309.386c-0.163-4.978-1.367-10.608-6.242-10.343
				c-3.019,0.163-4.284,2.224-4.162,4.529c0.184,3.325,2.387,5.304,4.549,5.916c0.49,0.122,1.02,0.163,1.448,0.143L655.957,309.386z
				"/>
			<path fill="#FFFFFF" d="M675.623,327.44l-7.262-0.184l-0.163,6.589l-3.488-0.082l0.163-6.589l-13.607-0.347
				c-3.142-0.082-4.937,0.775-5.018,3.346c-0.02,1.183,0.102,2.06,0.265,2.672l-3.488,0.122c-0.326-0.898-0.571-2.326-0.53-4.121
				c0.061-2.101,0.796-3.856,2.06-4.916c1.428-1.224,3.672-1.693,6.63-1.612l13.79,0.347l0.102-3.917l3.488,0.082l-0.102,3.917
				l6.079,0.143L675.623,327.44z"/>
			<path fill="#FFFFFF" d="M642.554,337.885l25.174,2.04l-0.367,4.549l-25.174-2.04L642.554,337.885z M674.44,345.617
				c-1.55-0.122-2.754-1.326-2.611-3.142c0.143-1.652,1.51-2.672,3.06-2.53c1.571,0.122,2.754,1.408,2.611,3.08
				C677.377,344.719,676.031,345.739,674.44,345.617z"/>
			<path fill="#FFFFFF" d="M650.776,374.014c-9.241-1.469-12.26-8.527-11.302-14.525c1.081-6.773,6.834-11.2,14.77-9.935
				c8.344,1.326,12.342,7.589,11.24,14.504C664.342,371.219,658.364,375.238,650.776,374.014z M653.652,354.185
				c-5.467-0.877-10.098,1.612-10.792,6.038c-0.694,4.345,2.856,8.242,8.507,9.16c4.223,0.673,9.894-0.592,10.751-5.998
				C662.954,358.061,658.364,354.94,653.652,354.185z"/>
			<path fill="#FFFFFF" d="M654.713,381.623c2.55,0.694,4.59,1.163,6.63,1.612l-1.081,3.917l-4.08-0.857l-0.041,0.122
				c1.958,1.836,3.448,5.284,2.346,9.302c-0.918,3.346-4.386,8.017-12.75,5.732l-14.525-3.998l1.224-4.406l14.035,3.876
				c3.937,1.081,7.65,0.51,8.792-3.631c0.796-2.897-0.632-5.732-2.897-7.222c-0.49-0.326-1.244-0.673-1.979-0.877l-14.668-4.039
				l1.224-4.406L654.713,381.623z"/>
		</g>
	</g>
</g>
</svg>
