<?xml version="1.0" encoding="utf-8"?>
<!-- Generator: Adobe Illustrator 17.0.0, SVG Export Plug-In . SVG Version: 6.00 Build 0)  -->
<!DOCTYPE svg PUBLIC "-//W3C//DTD SVG 1.1//EN" "http://www.w3.org/Graphics/SVG/1.1/DTD/svg11.dtd">
<svg version="1.1" id="Capa_1" xmlns="http://www.w3.org/2000/svg" xmlns:xlink="http://www.w3.org/1999/xlink" x="0px" y="0px"
	 width="792px" height="612px" viewBox="0 0 792 612" enable-background="new 0 0 792 612" xml:space="preserve">
<g>
	<g>
		<path fill="#FFFFFF" d="M386.738,160.099c-33.211-14.178-79.682-15.688-109.874,6.344c-19.625,14.484-25.663,40.453-20.522,63.383
			c3.917,21.726,24.439,37.74,44.064,45.268c26.867,9.67,54.937,16.606,82.11,25.969c2.713,1.204,6.344,3.917,5.732,7.242
			c0,2.713-2.713,4.223-4.835,5.426c-28.376,7.854-59.16,1.816-79.682-19.931c-2.407-3.019-3.917-6.65-6.344-9.649l-40.759,0.306
			c-0.612,24.439-0.898,52.53,0,76.663l45.268-0.306l0.612-14.484c5.141,2.407,10.261,5.426,15.402,8.16
			c31.396,13.28,71.849,16.3,102.938,0c22.644-12.668,34.721-37.128,31.396-63.383c-3.325-25.663-27.458-48.899-51.918-55.243
			l-73.052-21.44l-5.426-2.713c-2.407-2.122-3.917-4.835-3.325-8.16c5.732-9.955,19.013-6.936,28.968-6.63
			c21.134,3.019,42.86,10.261,55.243,29.886c13.28,0,28.682,0.306,43.166-0.306c0.612-24.745-0.306-46.492-0.612-71.543
			c-13.586-0.306-30.192-0.306-43.778,0.306c-0.612,3.631,0.612,8.752-0.898,12.383L386.738,160.099z"/>
		<path fill="#FFFFFF" d="M503.263,165.526c-22.032,11.465-36.516,34.109-41.045,57.344c-8.16,38.332-6.038,83.905,22.93,112.588
			c33.803,30.192,83.008,36.822,126.786,24.46c2.081-0.408,8.67-2.122,13.199-4.57l1.285-0.571
			c13.586-5.732,26.561-15.096,36.23-27.764c22.338-33.211,23.848-83.008,10.261-120.442c-5.426-14.484-16.606-27.458-30.192-36.822
			C603.468,144.412,543.696,142.596,503.263,165.526z M598.348,213.221c4.529,6.936,4.223,15.994,5.141,24.154
			c-0.306,17.197,1.204,37.72-1.816,55.243c-1.51,7.242-6.344,14.79-13.892,17.503c-12.077,5.426-28.376,3.917-39.535-2.407
			c-9.364-6.65-10.567-17.809-11.771-28.376c-0.898-20.828-2.407-42.86,3.325-61.873c4.529-11.771,16.912-14.79,28.07-15.688
			C579.62,201.756,591.085,203.572,598.348,213.221z"/>
		<path fill="#FFFFFF" d="M579.029,383.765c-12.668,18.421-28.682,36.23-46.186,50.102c-0.612,0.898-2.407,0.592-3.019-0.306
			c-7.548-4.835-15.688-8.752-22.93-13.586c9.67-11.771,19.013-23.542,26.255-36.516h-9.364
			c-7.548,11.179-15.402,22.95-25.357,32.905c-13.28-5.426-25.357-10.261-38.944-13.892l-1.51-1.204
			c2.122-6.038,6.038-11.771,7.242-17.809h-8.16l-8.16,16.3c-17.809-3.917-37.434-6.038-55.549-7.242
			c-0.898-2.713,0.306-6.65-0.898-9.058h-7.854c-0.612,3.631,0.898,6.344-0.898,9.364c-18.707,0.898-36.822,3.019-54.325,6.63
			l-8.14-15.994c-3.019,0-6.344-0.612-8.446,0.306l7.548,17.809l-0.898,0.898c-13.586,3.917-26.867,8.752-39.841,14.178
			l-1.204-0.612c-8.446-9.364-16.606-19.625-23.236-29.886c-1.51-5.141-7.548-2.122-10.873-2.713
			c7.242,13.28,16.912,25.051,26.561,37.128c-8.16,4.835-16.3,10.261-24.745,14.178c-18.115-13.892-35.006-32.008-47.695-51.02
			c-3.631-0.592-6.038-0.306-9.67,0c21.726,34.415,55.549,64.607,90.862,82.396c0,0,0-0.306,0.306-0.306s0.898,0.612,0.306,0.898
			c23.848,11.771,49.205,20.216,76.072,23.848c92.677,12.383,181.111-27.764,232.417-106.855
			C585.965,383.459,582.048,383.459,579.029,383.765z M453.161,410.938l0.898-0.612c12.974,3.019,25.357,7.242,36.822,12.974
			c-9.649,11.159-22.032,20.828-33.497,28.968c-6.936,4.223-13.892,8.752-21.134,12.383l-12.974-5.732l0.898-2.122
			C435.046,442.027,444.695,426.931,453.161,410.938z M393.695,401.88c17.197,0.306,34.415,2.101,50.408,6.038l0.306,0.898
			c-8.446,16.3-19.013,32.008-30.478,46.777c-5.141,0.612-9.955-1.51-15.096-1.816l-5.141-0.592
			C393.083,435.377,392.777,419.689,393.695,401.88z M335.432,407.306c15.688-3.019,31.987-5.426,48.899-5.426l0.306,51.02
			c-6.344,1.51-13.28,1.51-19.319,3.019c-12.383-14.79-22.644-30.784-31.396-47.389L335.432,407.306z M286.84,423.606
			c11.771-5.732,24.154-9.955,36.822-13.28l1.204,0.306c8.752,16.606,19.625,32.293,30.478,48.001
			c-4.223,2.407-9.364,3.917-13.586,6.344c-19.931-9.955-38.944-23.848-54.937-40.453v-0.918H286.84z M325.763,475.218
			c-25.357-6.63-48.899-18.115-70.625-33.803v-0.898c7.242-4.529,14.484-9.364,22.338-12.668
			c17.197,17.197,35.006,30.192,54.325,42.554C330.292,472.219,327.884,474.014,325.763,475.218z M437.759,479.155
			c-31.987,6.936-67.606,7.242-99.613-0.612c-0.612-1.51,1.51-1.816,2.407-2.713c28.07-18.421,71.849-18.421,99.307,1.51
			C440.778,479.155,438.35,478.543,437.759,479.155z M466.727,470.71l-14.178,4.529c-2.407-1.204-4.529-3.019-6.65-4.835
			l0.612-0.898c19.319-11.465,36.822-25.357,53.428-41.963c8.14,3.325,15.994,7.854,23.236,12.974
			C506.282,454.104,486.658,463.162,466.727,470.71z"/>
		<path fill="#FFFFFF" d="M243.959,361.121v-49.796c-9.955-0.592-21.134,0.306-30.784-0.898l0.306-105.958l0.612-0.898l29.886-0.306
			c0.306-17.197,0.612-35.618-0.306-51.306l-113.791-0.306l-18.707,0.306c-0.306,15.994-0.306,34.721,0,51.02
			c10.261,0.306,19.931,0,29.886,0.898V306.51l-0.306,4.223l-29.886,0.592c-0.612,16.912-0.612,33.211,0,49.796H243.959z"/>
		<path fill="#FFFFFF" d="M197.794,128.704c7.242-10.261,15.402-20.216,24.46-29.886c7.854-7.548,15.096-14.79,23.542-20.216
			c7.854,5.141,16.606,9.364,24.154,14.178c-9.364,11.771-19.013,23.542-25.969,36.23c2.122,0.898,6.038,0.612,9.058,0
			c7.548-11.179,15.688-22.338,25.357-32.293c12.974,4.835,25.663,9.955,38.944,13.586l1.204,1.204l-7.548,17.503
			c3.325,0.612,5.426,0.306,8.752,0c2.713-5.141,4.835-10.873,7.854-15.994c17.503,3.917,35.924,6.038,54.631,6.65
			c2.407,2.122,0.612,6.63,1.51,9.364h8.16c0.898-3.019-0.306-6.344,0.898-9.058c17.503-0.898,35.924-2.713,52.816-6.936l1.51,0.306
			l8.14,15.688c2.713,0,6.344,0.612,8.446-0.612l-7.548-17.503l0.592-0.612c13.892-3.631,26.867-9.058,40.147-14.484
			c9.364,9.955,18.115,21.726,25.949,33.211c3.325,0,6.65,0.306,9.058-0.612c-3.631-6.65-8.16-13.28-12.974-19.013
			c-3.917-5.732-8.16-10.873-13.28-16.3v-1.51l21.134-12.383l3.019-1.204c18.421,14.178,34.721,31.396,47.695,50.408
			c3.631,0,6.65,1.204,9.67-0.306C546.715,66.545,480.007,26.989,407.873,21.257l-0.306,0.612l-0.612-0.612
			c-8.14-0.898-18.115-1.204-26.867-0.306c-3.325-0.306-7.242,0-11.159,0.306c-72.44,5.732-139.148,43.472-180.805,107.753
			C191.143,128.704,194.774,129.907,197.794,128.704z M323.05,102.143l-1.204,0.306c-12.383-3.325-24.46-7.242-35.924-12.383
			l0.612-1.816c16.606-15.994,34.109-29.274,53.428-39.535c4.529,1.816,9.058,3.325,13.586,5.426l-0.898,2.407
			C341.165,71.053,332.107,86.741,323.05,102.143z M383.128,110.303c-8.446,1.204-15.994-0.306-24.46-0.898
			c-8.16-1.204-18.421-2.122-26.561-4.835c8.752-16.606,19.013-32.599,31.396-47.389l19.319,2.713
			C383.719,75.582,383.128,93.697,383.128,110.303z M392.471,110.588c-0.612-15.994-0.306-33.803,0-50.408
			c6.038-0.898,12.668-1.816,18.707-2.713c11.771,15.096,23.236,30.478,31.09,47.083
			C425.988,108.487,409.382,110.588,392.471,110.588z M488.759,89.474c-11.771,5.12-23.848,9.955-36.822,12.668
			c-9.364-15.994-19.625-31.987-31.09-47.389c4.223-2.407,9.364-4.223,13.892-6.65c19.625,9.955,38.638,24.154,54.631,40.453
			L488.759,89.474z M450.142,37.842c25.357,6.65,49.205,18.115,70.931,33.803l-0.612,1.204l-20.828,11.771h-1.51
			c-15.994-16.3-34.721-30.478-53.734-41.657C445.001,40.861,448.02,39.352,450.142,37.842z M438.065,34.823v0.612
			c-26.255,19.319-68.83,21.134-96.594,3.325c-1.51-1.204-4.529-1.816-4.835-3.917C368.623,27.295,406.363,26.683,438.065,34.823z
			 M253.934,72.257c19.013-14.178,40.147-24.745,62.485-31.987c0.898-0.898,1.51-1.816,2.713-1.816v0.612
			c2.407,0.612,4.223-2.122,6.344-0.306c1.816,1.51,3.917,2.713,5.426,4.223c-18.707,11.771-37.128,25.663-54.04,42.554
			c-8.16-3.019-15.688-7.548-22.95-12.668v-0.612H253.934z"/>
	</g>
	<g>
		<path fill="#FFFFFF" d="M161.665,584.644v-73.012h9.67v73.012H161.665z"/>
		<path fill="#FFFFFF" d="M185.084,561.184l9.119-0.796c0.428,3.652,1.428,6.65,3.019,8.996c1.571,2.346,4.019,4.223,7.344,5.671
			c3.325,1.448,7.058,2.162,11.2,2.162c3.692,0,6.936-0.551,9.772-1.652c2.815-1.102,4.916-2.591,6.304-4.508s2.06-3.998,2.06-6.242
			c0-2.285-0.673-4.284-1.999-5.998c-1.326-1.714-3.529-3.142-6.569-4.304c-1.958-0.755-6.283-1.958-12.995-3.57
			s-11.404-3.121-14.096-4.549c-3.488-1.816-6.079-4.1-7.793-6.793c-1.714-2.713-2.57-5.732-2.57-9.098
			c0-3.692,1.04-7.14,3.142-10.343c2.101-3.203,5.141-5.63,9.16-7.303c4.019-1.652,8.486-2.489,13.403-2.489
			c5.406,0,10.18,0.877,14.321,2.611c4.141,1.734,7.303,4.304,9.547,7.691c2.224,3.386,3.427,7.222,3.59,11.506l-9.262,0.694
			c-0.49-4.61-2.183-8.099-5.059-10.465c-2.876-2.366-7.12-3.529-12.73-3.529c-5.834,0-10.098,1.081-12.77,3.203
			c-2.672,2.142-4.019,4.733-4.019,7.752c0,2.632,0.938,4.774,2.836,6.467c1.856,1.693,6.712,3.427,14.566,5.202
			c7.854,1.775,13.24,3.325,16.157,4.651c4.243,1.958,7.385,4.447,9.404,7.446s3.04,6.467,3.04,10.384
			c0,3.876-1.122,7.548-3.346,10.975c-2.224,3.448-5.426,6.12-9.588,8.017c-4.162,1.918-8.854,2.856-14.076,2.856
			c-6.61,0-12.138-0.959-16.606-2.897c-4.468-1.918-7.976-4.814-10.506-8.69C186.553,570.445,185.207,566.059,185.084,561.184z"/>
		<path fill="#FFFFFF" d="M253.465,549.086c0-12.118,3.244-21.604,9.772-28.458c6.508-6.854,14.912-10.282,25.194-10.282
			c6.732,0,12.811,1.612,18.238,4.835c5.406,3.223,9.547,7.711,12.383,13.464c2.836,5.753,4.264,12.301,4.264,19.604
			c0,7.405-1.489,14.035-4.488,19.87c-2.978,5.855-7.222,10.261-12.709,13.28c-5.488,2.999-11.383,4.508-17.728,4.508
			c-6.875,0-13.015-1.652-18.421-4.978c-5.406-3.325-9.506-7.854-12.301-13.607C254.852,561.571,253.465,555.492,253.465,549.086z
			 M263.42,549.229c0,8.792,2.366,15.728,7.099,20.788c4.733,5.059,10.669,7.589,17.809,7.589c7.262,0,13.26-2.55,17.952-7.67
			c4.692-5.12,7.038-12.362,7.038-21.767c0-5.936-1-11.138-3.019-15.565c-1.999-4.427-4.957-7.874-8.813-10.302
			c-3.876-2.448-8.201-3.652-13.015-3.652c-6.834,0-12.73,2.346-17.646,7.038C265.889,530.4,263.42,538.234,263.42,549.229z"/>
		<path fill="#FFFFFF" d="M360.443,565.508l9.404-0.796c0.694,4.59,2.326,8.017,4.855,10.343c2.55,2.305,5.61,3.468,9.18,3.468
			c4.325,0,7.976-1.632,10.955-4.876c2.978-3.244,4.488-7.568,4.488-12.954c0-5.12-1.428-9.139-4.304-12.097
			c-2.876-2.958-6.63-4.427-11.281-4.427c-2.897,0-5.488,0.653-7.813,1.958c-2.326,1.306-4.141,3.019-5.488,5.1l-8.425-1.102
			l7.079-37.495h36.312v8.568h-29.131l-3.937,19.625c4.386-3.06,8.976-4.59,13.79-4.59c6.385,0,11.75,2.203,16.136,6.63
			c4.386,4.427,6.569,10.098,6.569,17.034c0,6.61-1.918,12.322-5.773,17.136c-4.672,5.916-11.077,8.874-19.176,8.874
			c-6.65,0-12.056-1.856-16.259-5.569C363.442,576.586,361.034,571.669,360.443,565.508z"/>
		<path fill="#FFFFFF" d="M417.175,548.638c0-8.629,0.877-15.586,2.672-20.849c1.775-5.263,4.427-9.323,7.915-12.179
			c3.509-2.856,7.915-4.284,13.219-4.284c3.917,0,7.344,0.796,10.302,2.366c2.958,1.571,5.386,3.856,7.324,6.814
			c1.918,2.978,3.427,6.589,4.529,10.853c1.102,4.264,1.652,10.016,1.652,17.258c0,8.568-0.877,15.484-2.632,20.747
			c-1.754,5.263-4.386,9.323-7.895,12.199s-7.936,4.304-13.28,4.304c-7.038,0-12.566-2.53-16.585-7.568
			C419.582,572.24,417.175,562.346,417.175,548.638z M426.376,548.638c0,11.995,1.408,19.972,4.202,23.929
			c2.815,3.958,6.263,5.957,10.384,5.957s7.568-1.999,10.384-5.977c2.815-3.978,4.202-11.954,4.202-23.909
			c0-12.016-1.408-20.012-4.202-23.95c-2.815-3.958-6.304-5.936-10.486-5.936c-4.121,0-7.405,1.734-9.853,5.222
			C427.926,528.442,426.376,536.642,426.376,548.638z"/>
		<path fill="#FFFFFF" d="M473.887,548.638c0-8.629,0.898-15.586,2.672-20.849c1.775-5.263,4.406-9.323,7.915-12.179
			c3.509-2.856,7.915-4.284,13.219-4.284c3.917,0,7.364,0.796,10.302,2.366c2.958,1.571,5.386,3.856,7.324,6.814
			c1.918,2.978,3.427,6.589,4.529,10.853c1.102,4.264,1.652,10.016,1.652,17.258c0,8.568-0.877,15.484-2.632,20.747
			c-1.754,5.263-4.386,9.323-7.895,12.199s-7.936,4.304-13.28,4.304c-7.038,0-12.566-2.53-16.585-7.568
			C476.294,572.24,473.887,562.346,473.887,548.638z M483.108,548.638c0,11.995,1.408,19.972,4.202,23.929
			c2.815,3.958,6.263,5.957,10.384,5.957c4.121,0,7.568-1.999,10.384-5.977c2.815-3.978,4.202-11.954,4.202-23.909
			c0-12.016-1.408-20.012-4.202-23.95c-2.815-3.958-6.304-5.936-10.486-5.936c-4.121,0-7.405,1.734-9.853,5.222
			C484.658,528.442,483.108,536.642,483.108,548.638z"/>
		<path fill="#FFFFFF" d="M530.62,548.638c0-8.629,0.877-15.586,2.672-20.849c1.775-5.263,4.427-9.323,7.915-12.179
			c3.509-2.856,7.915-4.284,13.219-4.284c3.917,0,7.344,0.796,10.302,2.366s5.386,3.856,7.324,6.814
			c1.918,2.978,3.427,6.589,4.529,10.853c1.102,4.264,1.652,10.016,1.652,17.258c0,8.568-0.877,15.484-2.632,20.747
			c-1.754,5.263-4.386,9.323-7.895,12.199c-3.509,2.876-7.936,4.304-13.28,4.304c-7.038,0-12.566-2.53-16.585-7.568
			C533.027,572.24,530.62,562.346,530.62,548.638z M539.84,548.638c0,11.995,1.408,19.972,4.202,23.929
			c2.815,3.958,6.263,5.957,10.384,5.957c4.121,0,7.568-1.999,10.384-5.977c2.815-3.978,4.202-11.954,4.202-23.909
			c0-12.016-1.408-20.012-4.202-23.95c-2.815-3.958-6.304-5.936-10.486-5.936c-4.121,0-7.405,1.734-9.853,5.222
			C541.37,528.442,539.84,536.642,539.84,548.638z"/>
		<path fill="#FFFFFF" d="M621.114,584.644h-8.956v-57.12c-2.162,2.06-4.998,4.121-8.486,6.181c-3.509,2.06-6.65,3.611-9.445,4.631
			v-8.67c5.018-2.366,9.404-5.202,13.158-8.568c3.754-3.346,6.406-6.61,7.976-9.772h5.773v73.318H621.114z"/>
	</g>
</g>
</svg>
