<?xml version="1.0" encoding="utf-8"?>
<!-- Generator: Adobe Illustrator 23.0.0, SVG Export Plug-In . SVG Version: 6.00 Build 0)  -->
<svg version="1.1" id="Capa_1" xmlns="http://www.w3.org/2000/svg" xmlns:xlink="http://www.w3.org/1999/xlink" x="0px" y="0px"
	 viewBox="0 0 360 360" style="enable-background:new 0 0 360 360;" xml:space="preserve">
<style type="text/css">
	.st0{fill:#275069;}
	.st1{fill-rule:evenodd;clip-rule:evenodd;fill:#275069;}
</style>
<g>
	<g>
		<path class="st0" d="M228.41,46.89c-2.45,4.48-2.1,8.4,0.49,10.04c2.5,1.55,6.14-0.1,8.91-4.24c2.6-4,2.7-7.92-0.45-9.89
			C234.01,40.72,230.84,42.52,228.41,46.89 M224.81,45.61c3.03-5.37,8.33-7.04,13.63-3.76c4.97,3.02,5.74,7.92,2.77,12.45
			c-3.2,4.96-8.61,6.67-13.54,3.7C223.18,55.29,222.15,50.41,224.81,45.61 M70.39,135.55l15.54,0.03l0.99-3.09h0.78
			c-0.21,5.02,0,9.78,0,9.78h-0.8l-0.96-3.09H70.39l0.06,3.96l3.88,1.38v1.14h-5.3c0,0-0.58-8.43,0.03-16.56h5.26v1.15l-3.88,1.42
			L70.39,135.55z M289.61,138.57l-15.55-0.02l-0.99,3.08h-0.78c0.22-5.01,0-9.77,0-9.77h0.81l0.96,3.08h15.55l-0.08-3.96l-3.89-1.38
			v-1.12h5.31c0,0,0.58,8.42-0.03,16.57h-5.28v-1.17l3.89-1.42L289.61,138.57z M273.07,123.96l4.07,0.76l0.22,1.21l-4.56,0.61
			l-0.21-0.39c-1.11-2.41-1.63-3.76-1.95-5.39c-1.12-5.73,1.67-9.53,7.35-10.94c6-1.49,10.57,1.86,11.75,8.17
			c0.33,1.69,0.39,3.76,0.22,6.04l-4.62,0.84l-0.23-1.23l3.48-2.06c0.02-0.48,0-1.09-0.14-1.73c-1.03-5.34-4.72-7.63-9.64-6.37
			c-4.82,1.23-7.2,4.21-6.35,8.72c0.13,0.64,0.33,1.03,0.55,1.7L273.07,123.96z M272.39,96.08l1.77,4.47l5.21-4.41L272.39,96.08z
			 M270.94,96.14l-5.79-0.02l-0.1,2.37l-0.74,0.29c-1.26-2.77-2.76-5.72-2.76-5.72l0.73-0.33l1.72,1.64l19.16,0.4l0.55,1.57
			l-13.86,12.54l-0.11,2.35l-0.73,0.29c-1.26-3.93-2.51-7.56-2.51-7.56l0.74-0.28l1.7,1.6l4.19-3.79L270.94,96.14z M265.92,82.86
			c0.81,1.32,1.39,1.83,2.26,2.12c1.16,0.35,2.54,0.29,3.8-0.49c1.16-0.74,1.89-1.61,2.13-2.63c0.21-1,0.1-1.78-0.68-2.93l-1-1.48
			l-6.99,4.67L265.92,82.86z M264.42,82.76l-5.1,3.29l0.42,2.51l-0.63,0.41c-2.17-3.41-4.53-6.91-4.53-6.91l0.66-0.42l2.02,1.39
			l12.66-8.43l-0.37-2.44l0.69-0.42l4.43,6.75c1.47,2.35,1.89,3.75,1.79,5.34c-0.12,1.57-0.92,2.9-2.36,3.79
			c-2.97,1.83-6.37,0.52-8.67-3.18L264.42,82.76z M249.77,67.8l13.35-4.88l3.89,4.57l-0.57,0.55l-2.39-1L252.63,77.1l1.01,2.4
			l-0.59,0.55c-2.57-3.05-5.15-5.95-5.15-5.95l0.55-0.58l2.29,0.94l9.19-8.4l-14.7,5.31l-0.48-0.52l5.43-14.69l-8.53,9.13l0.91,2.32
			l-0.59,0.54l-5.08-4.27l0.56-0.55l2.36,0.96l10.63-11.01l-0.97-2.37l0.58-0.55l4.67,4.03L249.77,67.8z M215.75,49.92l2.66-3.12
			l1.2,0.42l-1.77,4.23l-0.45-0.03c-2.64-0.25-4.06-0.51-5.63-1.09c-5.37-1.93-7.46-6.41-5.76-11.9c1.77-5.76,6.11-8.21,13.06-6.02
			c1.65,0.51,3.29,1.45,5.18,2.73l-1.56,4.38l-1.19-0.39v-4.05c0,0-0.62-0.38-1.43-0.68c-5.88-2.06-9.09,0.68-10.47,5.18
			c-1.45,4.67,0.19,8.4,4.37,9.88C214.56,49.7,214.97,49.82,215.75,49.92 M184.48,42.84l1.32-15.23l-2.26-1.2l0.08-0.77
			c4.34,0.2,8.32,0.58,8.32,0.58l-0.07,0.77l-2.45,0.77l-1.37,15.66l4.39,0.45l2.06-3.29l1.16,0.11l-0.84,4.82
			c0,0-7.07-0.86-12.86-1.13l0.07-0.76L184.48,42.84z M166.4,36.79l4.79-0.5l-2.83-6.21L166.4,36.79z M166.04,38.18l-1.48,5.6
			l2.26,0.78l0.11,0.77l-6.28,1l-0.06-0.77l1.99-1.18l5.62-18.31l1.39-0.13l8.46,16.79l2.22,0.74l0.07,0.81l-8.14,0.47l-0.06-0.76
			l2.02-1.23l-2.38-5.22L166.04,38.18z M150.61,47.92l1.03-0.38c1.55-0.49,2.18-0.89,2.78-1.77c0.53-0.91,0.63-1.93,0.28-3.09
			c-0.74-2.38-2.58-3.28-5.18-2.48l-1.34,0.48L150.61,47.92z M147.81,39.46l1.19-0.42c2.15-0.68,3.25-2.57,2.58-4.76
			c-0.68-2.19-2.29-3.09-4.48-2.35l-1.64,0.64L147.81,39.46z M147.03,48.76l-4.95-14.57l-2.54-0.25l-0.23-0.75l8.78-2.89
			c2.07-0.65,3.35-0.65,4.67-0.08c1.16,0.52,1.93,1.39,2.28,2.58c0.78,2.44-0.7,4.66-3.86,6.09c3.79-1.04,6.25-0.08,7.11,2.72
			c0.44,1.48,0.16,3.09-0.77,4.21c-0.94,1.19-2.2,1.9-4.67,2.67l-7.56,2.64l-0.21-0.74L147.03,48.76z M125.97,50.31
			c2.64,4.38,6.2,6.05,8.9,4.64c2.62-1.39,3.03-5.38,0.81-9.86c-2.13-4.26-5.5-6.29-8.74-4.56
			C123.45,42.39,123.4,46.03,125.97,50.31 M123.05,52.75c-3.13-5.27-1.91-10.71,3.59-13.68c5.11-2.72,9.7-0.92,12.15,3.9
			c2.68,5.28,1.42,10.78-3.6,13.55C130.59,59.06,125.84,57.48,123.05,52.75 M116.57,67.38l-9.91-11.71l-2.44,0.78l-0.5-0.61
			l6.39-5.38l0.51,0.58l-1.16,2.28l10.07,11.97l3.68-3.06l-0.91-3.76l0.91-0.78l2.79,3.99c0,0-5.02,4.08-10.08,8.55l-0.5-0.61
			L116.57,67.38z M108.7,68.83l3.99,3.4c-1.2,2.51-2.08,4.03-3.23,5.45c-3.78,4.63-8.77,5.18-13.34,1.42
			c-4.63-3.81-5.83-8.86-1.12-14.35c1.02-1.24,2.5-2.49,4.43-4.02l0.39-0.3l3.53,3l-0.89,1.08l-3.67-1.31
			c-0.52,0.27-0.93,0.63-1.36,1.09c-3.98,4.27-3.14,8.46,1.07,11.9c3.76,3.09,7.87,2.83,10.73-0.68c0.52-0.66,0.63-1.13,0.63-1.13
			l-3.49-2.92l-2.29,1.2l-0.6-0.49l5.34-6.27l0.61,0.48L108.7,68.83z M87.11,96.92l6.91,2.86l2.48-5.07l-2.25-2.81l0.49-1.02
			l3.92,2.11c0,0-2.96,6.04-5.67,12.76l-0.73-0.31l0.07-2.54l-14.17-5.57L76.3,99.1l-0.71-0.32c2.96-7.39,5.92-13.96,5.92-13.96
			l4.09,1.84l-0.41,1.01l-3.55-0.04l-2.44,6.22l6.63,2.53l1.97-4.38l-1.9-1.96L86.33,89l5.73,2.58l-0.44,1.03l-2.55-0.03l-1.96,4.31
			V96.92z M80,120.01l7.11,1.22l1.46-2.08l0.75,0.17l-1.25,8.16l-0.78-0.16l-0.47-2.51l-15.09-2.45l-1.44,2.1l-0.77-0.17l1.4-8.33
			l0.77,0.16l0.49,2.51l6.44,1.1l1.64-8.14l-6.34-1.62l-1.45,2.1l-0.79-0.17l2.04-8.22l0.77,0.16l0.48,2.5l14.97,3.74l1.44-2.09
			l0.77,0.16l-2.15,8.17l-0.74-0.16l-0.48-2.52l-7.15-1.69L80,119.9V120.01z"/>
		<path class="st0" d="M90.81,211.19c7.21,5.69,16.64,5.03,24.73,8.19c-7.48-7.16-8.72-17.82-11.94-27.27
			c-2.19-5.8-5.45-11.08-9.06-16.2c3.96,9.38,2.11,21.59,7.4,30.29c1.44,2.87,3.84,5.41,5.94,7.63l-0.12,0.12
			c-1.88-1.03-3.6-2.53-5.27-4.26c-9.05-8.79-22.53-10-27.92-24.4C76.04,195.88,83.24,205.2,90.81,211.19"/>
		<path class="st0" d="M149.95,226.68c1.18,0,2.05-0.4,2.05-0.4c-7.03-1.56-12.94-2.85-18.95-7.84
			c-7.92-6.61-13.99-13.32-22.74-18.75c1.1,0.69,6.1,10.88,10.28,17.03c2.91,4.29,7.61,6.69,11.71,7.7
			c3.56,0.87,4.31,1.25,4.31,1.25s-0.61,0.34-1.9,0.04c0,0-11.63-2.43-17.92-2.43c-25.1,0-31.57-9.58-31.57-9.58
			c7.42,13.47,22.73,18.47,32.76,18.47C132.27,232.17,143.07,226.68,149.95,226.68"/>
		<path class="st0" d="M242,232.16c10.05,0,25.35-4.98,32.78-18.46c0,0-6.48,9.58-31.58,9.58c-6.3,0-17.92,2.43-17.92,2.43
			c-1.3,0.3-1.9-0.04-1.9-0.04s0.76-0.38,4.31-1.25c4.1-1.01,8.81-3.41,11.71-7.7c4.19-6.14,9.18-16.33,10.27-17.02
			c-8.75,5.42-14.81,12.14-22.73,18.74c-6.01,5-11.92,6.29-18.95,7.84c0,0,0.87,0.41,2.05,0.41
			C216.92,226.68,227.71,232.16,242,232.16"/>
		<path class="st0" d="M86.26,192.03c2.44,2.1,7.52,6.79,8.44,8.11c0,0-0.56-1.92-1.13-4.26c-0.58-2.35-1.38-8.12-3.73-13.1
			c-1.84-3.91-9.5-16.63-10.99-23.6C78.85,159.18,73.41,181.1,86.26,192.03"/>
		<path class="st0" d="M244.44,219.37c8.09-3.15,17.52-2.5,24.73-8.18c7.57-5.99,14.77-15.31,16.23-25.91
			c-5.38,14.41-18.86,15.61-27.91,24.41c-1.66,1.73-3.41,3.23-5.27,4.27l-0.11-0.14c2.08-2.21,4.49-4.75,5.95-7.62
			c5.28-8.7,3.41-20.92,7.38-30.29c-3.6,5.11-6.88,10.4-9.05,16.2C253.16,201.56,251.91,212.22,244.44,219.37"/>
		<path class="st0" d="M224.49,235.22c-12.47-5.08-25.46-11.54-40.52-8.47c-1.7,0.3-3.08,0.67-4.58,0.67
			c-1.48,0-2.87-0.37-4.56-0.67c-15.06-3.07-28.05,3.39-40.54,8.47c-9.31,3.43-21.51,2.86-29.7-2.42c4.06,4.75,9.47,7.71,15.07,9.68
			c10.4,3.89,22.77,1.24,31.39-4.39c7.38-3.88,13.74-11.53,23.48-8.64c-9.9,4.31-18.96,10.37-27.16,18.13l5.14,3.95
			c0,0,9.61-12.92,26.88-20.71c17.28,7.79,26.88,20.71,26.88,20.71l5.15-3.95c-8.2-7.76-17.26-13.82-27.15-18.13
			c9.71-2.89,16.07,4.76,23.45,8.64c8.63,5.63,21,8.28,31.42,4.39c5.6-1.97,11.01-4.93,15.07-9.68
			C246,238.09,233.83,238.65,224.49,235.22"/>
		<path class="st0" d="M273.73,192.03c12.83-10.93,7.38-32.85,7.38-32.85c-1.46,6.97-9.14,19.7-10.98,23.6
			c-2.34,4.98-3.14,10.75-3.71,13.1c-0.58,2.34-1.14,4.26-1.14,4.26C266.21,198.82,271.28,194.13,273.73,192.03"/>
	</g>
	<g>
		<path class="st1" d="M182.65,83.48c6.5-0.51,18.96-2.37,20.09-7.75c1.94-9.26-18.94-11.08-28.56-9.93
			c-20.12,2.42-34.77,9.94-46.72,23c-9.99,10.91-19.28,29.68-18.4,50.6c0.88,20.93,10.17,36.55,21.3,47.7
			c11.56,11.56,25.68,20.05,48.17,20.82c-0.18-3.37-0.15-6.96-0.72-9.93c-7.7-1.42-16.94-1.3-22.76-4.6
			c7.01,0.9,14.85,2.25,22.51,1.69c0.26-9.54,0.4-21.06-0.72-30.02c-12.73-1.15-24.49-3.28-34.14-7.5c-1.24,7.6,0.07,17.3,0,24.45
			c-2.47-6.97-2.58-16.3-2.91-25.42c-4.12-3.06-10.24-5.41-12.83-9.2c4.13,2.33,8.25,4.66,13.07,6.29
			c1.04-13.64,4.58-24.79,8.23-35.83c-6.35-3.42-12.99-6.53-16.46-12.83c4.89,4.32,10.72,7.68,17.68,9.93
			c3.79-7.98,8.07-15.96,12.83-22.75c1.66-2.37,3.53-4.52,4.6-7.02c-5.32-1.46-10.36-3.19-12.34-7.99
			C160.44,82.12,170.66,84.41,182.65,83.48z M205.65,79.84c8.51,4.72,15.27,11.19,21.79,17.92c7.01-14.89-10.01-21.97-19.85-26.15
			c-0.01-0.15-0.04-0.28-0.24-0.24C208.88,74.52,207.18,77.72,205.65,79.84z M218,108.41c1.57-1.11,5.74-3.08,5.81-5.57
			c0.04-1.48-2.85-4.78-4.11-6.29c-1.81-2.16-3.19-3.5-5.09-5.33c-1.93-1.86-8.7-9.02-11.87-8.96c-2.75,0.05-5.79,3.5-8.47,3.14
			c5.92,7.71,11.88,17.5,16.7,27.11C213.64,111.59,215.45,110.2,218,108.41z M152.39,115.92c6.99,2.07,16.36,4.27,24.93,3.14
			c0.78-10.12,0.73-21.06,0.73-31.96c-3.01-0.3-6.03-0.6-8.72-1.21C162.51,94.73,156.54,104.42,152.39,115.92z M194.75,117.85
			c2.5-0.5,10.52-1.48,11.14-3.63c0.35-1.25-2.24-6.31-2.91-7.75c-3.35-7.14-8.35-16.01-12.34-20.34
			c-2.96,0.84-7.11,0.48-10.18,1.21c0.83,10.23,0.14,21.98,1.21,31.96C186.58,119.58,190.37,118.73,194.75,117.85z M231.55,103.09
			c0.18,1.56,2.47,4.63,3.39,6.29c3.7,6.64,6.33,13.21,8.48,20.82c2.43-4.95,4.74-10.36,3.63-17.68
			c-1.16-7.7-9.55-18.58-13.32-22.27C235.68,95.55,231.07,98.81,231.55,103.09z M230.34,144.73c2.12-1.62,6.88-4.77,7.51-7.27
			c0.24-1,0.1-3.32,0-4.11c-0.55-4.3-2.63-9.37-4.36-13.56c-1.83-4.41-4.02-8.51-6.05-11.87c-0.24,0-0.49,0-0.72,0
			c-1.88,2.03-3.5,3.16-6.79,5.33c-1.53,1.01-6.46,3.17-6.78,4.6c-0.35,1.58,1.83,5.71,2.42,7.5c2.69,8,4.15,16.35,5.57,24.7
			C224.77,148.98,227.26,147.08,230.34,144.73z M142.95,154.89c9.59,3.18,21.84,6.22,34.13,5.08c0.27-11.37,0.6-25.19,0-35.83
			c-9.08-1.24-18.21-2.44-25.9-5.08C146.72,129.29,143.86,141.12,142.95,154.89z M210.25,125.84c-0.85-2.77-1.3-6.54-4.12-6.05
			c-3.55,0.62-7.15,2.21-11.38,2.91c-4.22,0.69-8.58,0.5-12.83,1.45c-0.96,10.91-0.49,24.53-0.24,35.83
			c12.57,0.13,24.4-2.55,33.42-6.78C215.15,142.94,212.81,134.24,210.25,125.84z M244.87,139.4c-0.34,3.85,0.65,8.26,0.48,12.35
			c-0.18,4.15-0.82,7.76-1.21,11.38c5.33-8.83,8.01-22.78,6.05-37.29C250.34,130.82,245.31,134.34,244.87,139.4z M221.63,157.07
			c0.05,10.79-1.11,20.36-3.63,28.57c7.8-4.44,19.34-9.37,21.79-18.88c1.38-5.34,0.84-15.63,0-22.28c-0.01-0.15-0.04-0.28-0.24-0.24
			C234.76,149.71,227.41,152.61,221.63,157.07z M216.54,166.03c0-3.67,0.84-7.92-2.42-6.78c-9.04,3.17-20.28,5.22-32.44,5.81
			c-0.36,9.64-0.94,20.36-0.48,30.02c12.81-0.59,23.48-3.32,32.69-7.5C215.75,182.74,216.54,173.88,216.54,166.03z M225.98,186.37
			c-2.98,1.72-6.95,2.65-9.44,4.6c-3.03,2.37-3.56,7.21-5.81,9.93c9.23-5.22,17.94-12.25,23.49-20.34
			C231.72,182.62,229.15,184.54,225.98,186.37z M180.95,197.99c-0.62,2.93-0.63,6.47-0.72,9.93c10.62-0.11,19.08-2.39,26.88-5.33
			c1.4-2.89,5.06-6.06,4.11-9.68C202.34,195.81,192.21,197.47,180.95,197.99z"/>
		<path class="st1" d="M154.57,77.18c1.98,4.79,7.02,6.53,12.34,7.99c-1.07,2.5-2.94,4.65-4.6,7.02
			c-4.76,6.79-9.03,14.77-12.83,22.75c-6.95-2.25-12.79-5.61-17.68-9.93c3.47,6.3,10.12,9.41,16.46,12.83
			c-3.65,11.04-7.19,22.19-8.23,35.83c-4.82-1.64-8.95-3.96-13.07-6.29c2.59,3.79,8.71,6.14,12.83,9.2
			c0.32,9.12,0.44,18.45,2.91,25.42c0.07-7.15-1.24-16.85,0-24.45c9.65,4.23,21.41,6.35,34.14,7.5c1.12,8.96,0.99,20.48,0.72,30.02
			c-7.66,0.56-15.51-0.79-22.51-1.69c5.82,3.3,15.06,3.18,22.76,4.6c0.58,2.97,0.55,6.55,0.72,9.93
			c-22.49-0.77-36.61-9.26-48.17-20.82c-11.14-11.14-20.42-26.77-21.3-47.7c-0.88-20.92,8.41-39.69,18.4-50.6
			c11.95-13.06,26.61-20.58,46.72-23c9.63-1.16,30.51,0.67,28.56,9.93c-1.12,5.38-13.58,7.24-20.09,7.75
			C170.66,84.41,160.44,82.12,154.57,77.18z"/>
		<path class="st1" d="M207.34,71.37c0.21-0.04,0.23,0.09,0.24,0.24c9.84,4.18,26.87,11.25,19.85,26.15
			c-6.51-6.73-13.28-13.19-21.79-17.92C207.18,77.72,208.88,74.52,207.34,71.37z"/>
		<path class="st1" d="M210.97,112.52c-4.82-9.61-10.78-19.4-16.7-27.11c2.68,0.35,5.71-3.09,8.47-3.14
			c3.16-0.06,9.93,7.09,11.87,8.96c1.89,1.83,3.28,3.17,5.09,5.33c1.26,1.51,4.15,4.81,4.11,6.29c-0.07,2.5-4.24,4.46-5.81,5.57
			C215.45,110.2,213.64,111.59,210.97,112.52z"/>
		<path class="st1" d="M169.33,85.9c2.7,0.61,5.71,0.9,8.72,1.21c0,10.9,0.05,21.84-0.73,31.96c-8.57,1.12-17.94-1.07-24.93-3.14
			C156.54,104.42,162.51,94.73,169.33,85.9z"/>
		<path class="st1" d="M181.68,119.31c-1.07-9.98-0.38-21.73-1.21-31.96c3.07-0.73,7.22-0.37,10.18-1.21
			c3.99,4.33,8.99,13.2,12.34,20.34c0.67,1.44,3.26,6.49,2.91,7.75c-0.63,2.14-8.64,3.13-11.14,3.63
			C190.37,118.73,186.58,119.58,181.68,119.31z"/>
		<path class="st1" d="M221.14,150.05c-1.42-8.34-2.88-16.7-5.57-24.7c-0.6-1.79-2.77-5.93-2.42-7.5c0.32-1.43,5.24-3.59,6.78-4.6
			c3.29-2.16,4.91-3.3,6.79-5.33c0.23,0,0.48,0,0.72,0c2.03,3.36,4.23,7.46,6.05,11.87c1.73,4.19,3.81,9.26,4.36,13.56
			c0.1,0.79,0.24,3.12,0,4.11c-0.63,2.5-5.39,5.64-7.51,7.27C227.26,147.08,224.77,148.98,221.14,150.05z"/>
		<path class="st1" d="M151.18,119.06c7.69,2.65,16.82,3.84,25.9,5.08c0.6,10.64,0.27,24.46,0,35.83
			c-12.29,1.13-24.54-1.9-34.13-5.08C143.86,141.12,146.72,129.29,151.18,119.06z"/>
		<path class="st1" d="M215.09,153.2c-9.01,4.22-20.85,6.91-33.42,6.78c-0.24-11.3-0.71-24.92,0.24-35.83
			c4.25-0.95,8.61-0.76,12.83-1.45c4.23-0.69,7.82-2.29,11.38-2.91c2.82-0.49,3.27,3.28,4.12,6.05
			C212.81,134.24,215.15,142.94,215.09,153.2z"/>
		<path class="st1" d="M239.54,144.24c0.21-0.04,0.23,0.09,0.24,0.24c0.84,6.65,1.38,16.93,0,22.28
			c-2.45,9.52-13.98,14.44-21.79,18.88c2.52-8.21,3.68-17.78,3.63-28.57C227.41,152.61,234.76,149.71,239.54,144.24z"/>
		<path class="st1" d="M213.88,187.58c-9.21,4.19-19.87,6.92-32.69,7.5c-0.46-9.66,0.12-20.38,0.48-30.02
			c12.16-0.59,23.4-2.64,32.44-5.81c3.26-1.14,2.42,3.11,2.42,6.78C216.54,173.88,215.75,182.74,213.88,187.58z"/>
		<path class="st1" d="M211.22,192.91c0.95,3.62-2.71,6.8-4.11,9.68c-7.79,2.94-16.26,5.21-26.88,5.33c0.1-3.45,0.11-6.99,0.72-9.93
			C192.21,197.47,202.34,195.81,211.22,192.91z"/>
		<path class="st1" d="M233.73,90.25c3.77,3.69,12.16,14.57,13.32,22.27c1.1,7.31-1.2,12.73-3.63,17.68
			c-2.15-7.61-4.78-14.18-8.48-20.82c-0.92-1.66-3.21-4.73-3.39-6.29C231.07,98.81,235.68,95.55,233.73,90.25z"/>
		<path class="st1" d="M250.19,125.84c1.95,14.51-0.72,28.45-6.05,37.29c0.39-3.62,1.04-7.23,1.21-11.38
			c0.18-4.09-0.82-8.5-0.48-12.35C245.31,134.34,250.34,130.82,250.19,125.84z"/>
		<path class="st1" d="M234.22,180.56c-5.55,8.09-14.26,15.12-23.49,20.34c2.25-2.71,2.78-7.55,5.81-9.93
			c2.49-1.95,6.46-2.88,9.44-4.6C229.15,184.54,231.72,182.62,234.22,180.56z"/>
	</g>
	<g>
		<path class="st0" d="M111.11,293.51h-4.85l-1.92-5.01h-8.82l-1.82,5.01h-4.73l8.59-22.07h4.72L111.11,293.51z M102.91,284.78
			l-3.04-8.19l-2.98,8.19H102.91z"/>
		<path class="st0" d="M113.47,293.51v-22.07h7.15c2.71,0,4.47,0.11,5.3,0.33c1.26,0.33,2.32,1.05,3.17,2.16
			c0.85,1.11,1.28,2.55,1.28,4.3c0,1.36-0.25,2.5-0.74,3.42c-0.49,0.93-1.11,1.65-1.87,2.18c-0.76,0.53-1.53,0.88-2.31,1.04
			c-1.06,0.21-2.6,0.32-4.62,0.32h-2.91v8.32H113.47z M117.93,275.17v6.27h2.44c1.76,0,2.93-0.12,3.53-0.35
			c0.59-0.22,1.05-0.59,1.39-1.08c0.34-0.49,0.5-1.06,0.5-1.71c0-0.81-0.23-1.46-0.71-1.99c-0.47-0.52-1.07-0.85-1.79-0.98
			c-0.53-0.1-1.6-0.16-3.2-0.16H117.93z"/>
		<path class="st0" d="M133.14,282.61c0-2.25,0.34-4.13,1.01-5.66c0.5-1.12,1.19-2.13,2.06-3.02c0.87-0.9,1.82-1.56,2.85-1.99
			c1.38-0.59,2.96-0.87,4.76-0.87c3.25,0,5.85,1.01,7.81,3.02c1.95,2.02,2.92,4.82,2.92,8.42c0,3.56-0.97,6.35-2.91,8.37
			c-1.94,2.01-4.53,3.02-7.77,3.02c-3.28,0-5.89-1.01-7.83-3.01C134.1,288.88,133.14,286.12,133.14,282.61 M137.73,282.46
			c0,2.49,0.58,4.38,1.73,5.68c1.15,1.29,2.62,1.93,4.39,1.93c1.78,0,3.23-0.64,4.38-1.92c1.14-1.28,1.71-3.2,1.71-5.76
			c0-2.53-0.56-4.41-1.67-5.65c-1.11-1.25-2.58-1.87-4.42-1.87c-1.84,0-3.32,0.63-4.44,1.88
			C138.29,278.02,137.73,279.92,137.73,282.46"/>
		<polygon class="st0" points="163.82,293.51 163.82,284.22 155.73,271.44 160.95,271.44 166.15,280.17 171.24,271.44 
			176.37,271.44 168.26,284.25 168.26,293.51 		"/>
		<path class="st0" d="M195.66,293.51h-4.85l-1.92-5.01h-8.83l-1.82,5.01h-4.73l8.59-22.07h4.72L195.66,293.51z M187.45,284.78
			l-3.04-8.19l-2.98,8.19H187.45z"/>
		<polygon class="st0" points="197.96,293.51 197.96,271.44 204.63,271.44 208.63,286.49 212.59,271.44 219.27,271.44 
			219.27,293.51 215.13,293.51 215.13,276.13 210.76,293.51 206.46,293.51 202.1,276.13 202.1,293.51 		"/>
		<path class="st0" d="M222.8,282.61c0-2.25,0.33-4.13,1.01-5.66c0.51-1.12,1.19-2.13,2.06-3.02c0.87-0.9,1.82-1.56,2.85-1.99
			c1.38-0.59,2.96-0.87,4.76-0.87c3.25,0,5.85,1.01,7.8,3.02c1.95,2.02,2.93,4.82,2.93,8.42c0,3.56-0.97,6.35-2.9,8.37
			c-1.94,2.01-4.53,3.02-7.77,3.02c-3.28,0-5.89-1.01-7.82-3.01C223.77,288.88,222.8,286.12,222.8,282.61 M227.39,282.46
			c0,2.49,0.58,4.38,1.73,5.68c1.16,1.29,2.63,1.93,4.4,1.93c1.77,0,3.23-0.64,4.37-1.92c1.14-1.28,1.71-3.2,1.71-5.76
			c0-2.53-0.55-4.41-1.66-5.65c-1.11-1.25-2.58-1.87-4.41-1.87c-1.85,0-3.32,0.63-4.44,1.88
			C227.96,278.02,227.39,279.92,227.39,282.46"/>
		<path class="st0" d="M246.56,286.33l4.33-0.42c0.26,1.46,0.79,2.52,1.59,3.2c0.8,0.68,1.88,1.03,3.23,1.03
			c1.44,0,2.51-0.3,3.24-0.92c0.72-0.61,1.09-1.31,1.09-2.13c0-0.52-0.16-0.97-0.46-1.33c-0.31-0.37-0.84-0.68-1.6-0.96
			c-0.53-0.18-1.72-0.5-3.57-0.97c-2.38-0.59-4.06-1.32-5.03-2.18c-1.35-1.22-2.03-2.7-2.03-4.44c0-1.12,0.32-2.18,0.96-3.15
			c0.63-0.98,1.55-1.72,2.75-2.24c1.2-0.51,2.65-0.76,4.35-0.76c2.77,0,4.85,0.61,6.25,1.82c1.41,1.21,2.14,2.83,2.21,4.86
			l-4.45,0.2c-0.2-1.13-0.6-1.95-1.23-2.44c-0.63-0.5-1.56-0.75-2.82-0.75c-1.29,0-2.3,0.27-3.04,0.8c-0.47,0.34-0.71,0.8-0.71,1.37
			c0,0.53,0.22,0.98,0.66,1.34c0.57,0.48,1.93,0.97,4.09,1.48c2.18,0.51,3.78,1.04,4.81,1.58c1.04,0.55,1.86,1.3,2.44,2.25
			c0.59,0.95,0.88,2.12,0.88,3.52c0,1.26-0.35,2.45-1.05,3.55c-0.7,1.1-1.7,1.92-2.98,2.46c-1.29,0.54-2.89,0.8-4.8,0.8
			c-2.79,0-4.93-0.64-6.43-1.93C247.74,290.67,246.84,288.8,246.56,286.33"/>
		<polygon class="st0" points="30.92,322.85 30.92,300.78 47.29,300.78 47.29,304.51 35.38,304.51 35.38,309.4 46.46,309.4 
			46.46,313.13 35.38,313.13 35.38,319.13 47.71,319.13 47.71,322.85 		"/>
		<polygon class="st0" points="51.61,322.85 51.61,300.97 56.07,300.97 56.07,319.13 67.15,319.13 67.15,322.85 		"/>
		<path class="st0" d="M78.33,322.85v-22.07h7.15c2.71,0,4.48,0.11,5.3,0.33c1.26,0.33,2.32,1.05,3.17,2.16
			c0.85,1.11,1.28,2.54,1.28,4.3c0,1.36-0.24,2.5-0.74,3.42c-0.49,0.93-1.12,1.65-1.88,2.18c-0.76,0.53-1.53,0.88-2.31,1.04
			c-1.06,0.21-2.6,0.32-4.62,0.32h-2.91v8.32H78.33z M82.79,304.51v6.27h2.44c1.75,0,2.93-0.12,3.52-0.35
			c0.59-0.22,1.06-0.59,1.39-1.08c0.34-0.49,0.51-1.06,0.51-1.72c0-0.8-0.24-1.46-0.71-1.98c-0.47-0.52-1.07-0.85-1.79-0.98
			c-0.53-0.1-1.6-0.16-3.21-0.16H82.79z"/>
		<path class="st0" d="M116.51,322.85h-4.85l-1.93-5.01h-8.82l-1.82,5.01h-4.73l8.6-22.07h4.71L116.51,322.85z M108.3,314.12
			l-3.04-8.19l-2.98,8.19H108.3z"/>
		<path class="st0" d="M132.99,314.74l4.32,1.37c-0.66,2.41-1.76,4.2-3.3,5.37c-1.54,1.17-3.5,1.76-5.87,1.76
			c-2.92,0-5.34-1.01-7.22-3.01c-1.89-2-2.83-4.74-2.83-8.21c0-3.67,0.95-6.52,2.85-8.55c1.89-2.03,4.39-3.06,7.48-3.06
			c2.7,0,4.89,0.8,6.58,2.4c1.01,0.94,1.76,2.29,2.26,4.06l-4.41,1.05c-0.26-1.14-0.81-2.05-1.64-2.71
			c-0.83-0.66-1.84-0.99-3.02-0.99c-1.64,0-2.96,0.59-3.98,1.76c-1.02,1.17-1.53,3.08-1.53,5.7c0,2.79,0.5,4.78,1.51,5.97
			c1,1.18,2.31,1.78,3.91,1.78c1.19,0,2.21-0.38,3.06-1.13C132.01,317.54,132.62,316.36,132.99,314.74"/>
		<polygon class="st0" points="146.11,322.85 146.11,304.51 139.56,304.51 139.56,300.78 157.1,300.78 157.1,304.51 150.56,304.51 
			150.56,322.85 		"/>
		<path class="st0" d="M158.51,311.95c0-2.25,0.34-4.13,1.01-5.66c0.5-1.12,1.19-2.13,2.06-3.03c0.87-0.89,1.82-1.55,2.85-1.98
			c1.38-0.59,2.96-0.88,4.76-0.88c3.26,0,5.85,1.02,7.81,3.03c1.95,2.02,2.93,4.82,2.93,8.42c0,3.56-0.97,6.35-2.91,8.36
			c-1.93,2.02-4.52,3.03-7.76,3.03c-3.29,0-5.89-1.01-7.83-3.01C159.48,318.22,158.51,315.47,158.51,311.95 M163.1,311.8
			c0,2.5,0.58,4.39,1.73,5.68c1.15,1.29,2.62,1.94,4.39,1.94c1.78,0,3.23-0.64,4.38-1.92c1.14-1.28,1.71-3.2,1.71-5.76
			c0-2.53-0.56-4.41-1.66-5.65c-1.11-1.25-2.58-1.87-4.42-1.87c-1.84,0-3.32,0.63-4.44,1.88C163.66,307.36,163.1,309.27,163.1,311.8
			"/>
		<polygon class="st0" points="191.9,322.85 191.9,300.78 198.57,300.78 202.58,315.84 206.53,300.78 213.22,300.78 213.22,322.85 
			209.08,322.85 209.08,305.48 204.69,322.85 200.41,322.85 196.04,305.48 196.04,322.85 		"/>
		<path class="st0" d="M217.61,300.78h4.45v11.95c0,1.89,0.06,3.13,0.17,3.69c0.19,0.9,0.64,1.63,1.37,2.18
			c0.71,0.54,1.69,0.82,2.94,0.82c1.26,0,2.22-0.26,2.86-0.78c0.64-0.52,1.03-1.15,1.16-1.9c0.13-0.75,0.2-2,0.2-3.75v-12.21h4.45
			v11.59c0,2.65-0.12,4.52-0.36,5.62c-0.24,1.09-0.68,2.02-1.34,2.77c-0.64,0.75-1.5,1.35-2.59,1.8c-1.09,0.45-2.5,0.67-4.25,0.67
			c-2.11,0-3.71-0.24-4.79-0.73c-1.09-0.49-1.95-1.12-2.59-1.9c-0.63-0.77-1.04-1.59-1.24-2.44c-0.29-1.26-0.44-3.13-0.44-5.6
			V300.78z"/>
		<polygon class="st0" points="239.96,322.85 239.96,300.78 244.28,300.78 253.32,315.52 253.32,300.78 257.46,300.78 
			257.46,322.85 252.99,322.85 244.1,308.46 244.1,322.85 		"/>
		<path class="st0" d="M262.16,300.78h8.14c1.84,0,3.24,0.14,4.2,0.42c1.3,0.38,2.41,1.06,3.33,2.03c0.93,0.98,1.63,2.17,2.11,3.57
			c0.48,1.42,0.72,3.15,0.72,5.22c0,1.82-0.22,3.38-0.67,4.7c-0.56,1.6-1.35,2.9-2.37,3.9c-0.77,0.75-1.82,1.34-3.13,1.76
			c-0.99,0.31-2.29,0.47-3.95,0.47h-8.39V300.78z M266.62,304.51v14.62h3.32c1.25,0,2.15-0.07,2.7-0.21
			c0.72-0.19,1.33-0.49,1.8-0.92c0.48-0.44,0.87-1.14,1.17-2.13c0.3-1,0.45-2.34,0.45-4.04c0-1.71-0.15-3.02-0.45-3.94
			c-0.3-0.91-0.72-1.62-1.27-2.14c-0.54-0.51-1.23-0.86-2.06-1.04c-0.63-0.14-1.84-0.21-3.65-0.21H266.62z"/>
		<rect x="284.3" y="300.78" class="st0" width="4.45" height="22.07"/>
		<path class="st0" d="M312.91,322.85h-4.85l-1.92-5.01h-8.82l-1.83,5.01h-4.73l8.59-22.07h4.72L312.91,322.85z M304.7,314.12
			l-3.05-8.19l-2.98,8.19H304.7z"/>
		<polygon class="st0" points="315.39,322.85 315.39,300.97 319.84,300.97 319.84,319.13 330.92,319.13 330.92,322.85 		"/>
	</g>
</g>
</svg>
