<?xml version="1.0" encoding="utf-8"?>
<!-- Generator: Adobe Illustrator 23.0.0, SVG Export Plug-In . SVG Version: 6.00 Build 0)  -->
<svg version="1.1" id="Capa_1" xmlns="http://www.w3.org/2000/svg" xmlns:xlink="http://www.w3.org/1999/xlink" x="0px" y="0px"
	 viewBox="0 0 360 360" style="enable-background:new 0 0 360 360;" xml:space="preserve">
<style type="text/css">
	.st0{fill:#2B477E;}
</style>
<g>
	<path class="st0" d="M88.11,125.02c1.74,0.02,3.49,0.93,4.97,1.32c6.36,1.68,11.22,3.67,16.63,6.52c-2.7,1.54-5.44,2.87-7.92,4.51
		c-1.27,0.85-2.57,1.89-3.8,2.88c-0.16,0.14-0.36,0.63-0.6,0.69c-0.28,0.08-0.52-0.02-0.73-0.12c-0.3-0.13-0.53-0.52-0.83-0.69
		c-1.53-0.91-3.13-1.89-4.71-2.66c-2.6-1.27-5.29-2.6-8.16-3.4c-0.02-0.08-0.02-0.4-0.08-0.46c1.57-1.06,3.45-1.87,4.96-3.07
		c0.52-0.41,0.66-1.14,1.15-1.62c-0.06-0.06-0.28-0.22-0.29-0.31c-1.66,0.75-3.22,1-5.07,1.67c-1.29,0.47-3.9,2.37-5.05,2.5
		c-1.08,0.11-2.58-0.59-3.68-0.7c-2.01-0.19-4.63-0.2-6.56-0.22c2.6-1.78,5.68-3.04,9.02-4.34c0.69-0.27,1.52-0.84,2.19-1.07
		C82.38,125.47,85.11,125,88.11,125.02 M66.39,133.6c0.68,0.02,1.78,0.72,2.4,0.91c1.76,0.56,3.79,0.83,5.55,1.22
		c-2.42,2.73-5.04,5.18-7.08,8.17c-0.38,0.56-1.15,1.03-1.39,1.66c-0.1,0.26,0.07,0.45,0,0.71c-0.33,1.3-2.02,3.63-2.91,4.63
		c-2.21-0.72-5.08-1-7.66-1.11c-2-0.08-4.2,0.14-6.19-0.04c3.14-5.5,8.26-9.66,13.4-13.74C63.36,135.36,64.85,133.58,66.39,133.6
		 M68.81,146.86c0.71-0.85,1.19-1.97,1.91-2.81c1.76-2.06,3.66-3.94,5.69-5.81c0.45-0.41,1.16-1.52,1.73-1.71
		c0.84-0.27,1.66,0.45,2.23,0.58c0.31,0.08,0.55-0.07,0.83-0.01c1.63,0.34,4.09,1.78,5.64,2.5c2.55,1.18,5.46,1.9,7.32,4.02
		c-1.81,1.56-3.43,3.4-5.12,5c-1.55,1.49-3.1,2.74-4.51,4.31c-0.86,0.97-1.49,2.14-2.33,3.12c-0.45,0.53-1.26,1-1.64,1.57
		c-0.09,0.14-0.52,0.01-0.6-0.02c-0.99-0.31-2.03-1.17-3.01-1.64c-3.55-1.7-7.06-3.33-11.06-4.47
		C66.52,149.78,67.66,148.22,68.81,146.86 M89.43,154.5c0.62-0.66,1.05-1.54,1.66-2.18c0.72-0.75,1.56-1.17,2.3-1.92
		c0.65-0.67,1.18-1.4,1.91-2.09c0.46-0.44,1.85-2.22,2.33-2.41c0.77-0.3,3.38,1.77,3.93,2.2c2.1,1.65,4.4,3.1,6.39,4.88
		c3.71,3.32,7.29,6.84,10.75,10.45c-0.9,1.86-2.24,3.42-3.57,4.98c-0.58,0.68-0.9,1.52-1.41,2.25c-1.42,2.03-3.3,3.76-5.01,5.58
		c-1.1,1.17-1.8,2.57-3.5,3.31c-4.1-4.94-8.32-9.59-13.06-13.64c-2.37-2.03-5.27-3.53-7.48-5.77
		C85.88,158.03,87.75,156.29,89.43,154.5 M82.19,163.88c0.63,0.03,5.98,4.28,6.75,4.95c1.66,1.43,3.43,2.77,4.98,4.28
		c1.03,1,1.84,2.11,2.88,3.09c0.81,0.74,1.63,0.97,2.63,1.46c1.13,0.57,2.93,2.81,3.63,4.03c-1.26,1.97-3.53,3.24-5.25,4.9
		c-0.77,0.75-1.54,1.77-2.31,2.52c-0.86,0.84-1.88,1.37-2.72,2.23c-0.29,0.3-0.45,0.8-0.77,1.08c-0.5,0.44-1.08,0.66-1.6,1.1
		c-1.55,1.32-2.73,2.76-4.84,3.77c-3.22-2.95-6.32-5.92-9.82-8.47c-1.42-1.03-2.91-2.06-4.41-2.95c-1.01-0.6-1.84-0.79-2.56-1.84
		c0.23-0.41,0.69-0.8,0.87-1.21c0.29-0.65,0.27-1.31,0.63-1.88c0.57-0.88,1.43-1.67,1.95-2.58c0.65-1.13,1.01-2.28,1.7-3.38
		c1.13-1.75,2.61-3.32,3.67-5.12c0.91-1.52,1.96-2.85,2.97-4.29c0.24-0.33,0.38-0.87,0.64-1.18
		C81.38,164.21,81.81,163.88,82.19,163.88 M120.09,161.07c-1.36-1.7-2.96-3.11-4.44-4.61c-2.85-2.88-5.47-5.75-8.51-8.34
		c-1.92-1.63-4.95-2.99-6.43-5.11c2.9-2.56,5.83-4.81,9.3-7c0.64-0.4,1.35-1.29,2.12-1.54c1.17-0.37,1.54,0.68,2.19,1.06
		c4.98,2.96,8.61,6.72,12.62,10.98c0.44,0.46,1.65,1.04,1.73,1.85c0.12,1.3-3.25,4.99-3.98,6.13
		C123.33,156.64,122.29,159.55,120.09,161.07 M71.24,125.68c-7.63,3.2-13.51,7.97-18.63,13.06c-0.55,0.54-0.94,1.25-1.48,1.79
		c-0.98,0.97-2.05,1.75-2.99,2.75c-0.83,0.9-1.33,2.05-2.12,2.97c-2.03,2.37-3.84,4.95-5.11,7.85c-0.18,0.42-0.1,0.81-0.27,1.23
		c-0.1,0.25-0.49,0.55-0.58,0.81c-0.17,0.54-0.04,1.04-0.22,1.58c-0.22,0.69-0.78,1.44-0.95,2.18c-0.11,0.49,0.08,0.79-0.02,1.31
		c-0.26,1.37-1.09,2.89-1.43,4.27c-0.3,1.23-0.1,2.08-0.11,3.59c-0.01,0.42-0.32,1.06-0.35,1.48c-0.08,0.94,0.18,1.63,0.21,2.7
		c0.01,0.28-0.26,0.69-0.04,1.19c0.18,0.41,0.98,0.52,0.62,0.14c1.68-4,2.92-8.19,4.5-12.26c1.12-2.86,2.84-5.51,4.22-8.18
		c0.46-0.88,0.92-3.25,2.43-3.26c0.1,0,0.57,0.18,0.75,0.23c1.32,0.39,3.03,0.84,4.34,1.07c1.12,0.21,2.07-0.01,3.02,0.33
		c0.34,0.12,0.55,0.57,0.83,0.7c1.25,0.59,3.58,0.14,3.25,2.43c-0.03,0.28-0.38,0.66-0.44,0.91c-0.11,0.43,0.07,0.74-0.05,1.19
		c-0.07,0.28-0.47,0.65-0.56,0.92c-0.33,1.01-0.49,1.97-0.46,2.93c1.37-2.17,2.43-4.57,3.88-6.7c1.49,0.2,2.31,0.77,3.52,1.2
		c0.73,0.26,1.36,0.23,2.09,0.49c0.31,0.11,0.61,0.47,0.93,0.56c0.5,0.15,1.12-0.02,1.58,0.22c0.16,0.08,0.3,0.54,0.45,0.64
		c0.27,0.16,0.58,0.07,0.87,0.22c0.4,0.2,0.71,0.66,1.1,0.89c0.74,0.44,1.6,0.71,2.33,1.16c0.19,0.11,0.84,0.52,0.94,0.67
		c0.12,0.18,0.3,0.57,0.27,0.91c-0.05,0.57-3.26,4.82-3.8,5.73c-0.74,1.28-1.64,2.44-2.36,3.72c-2.05,3.65-3.53,7.56-5.36,11.33
		c-2.56-0.33-4.41-1.86-6.63-2.7c-1.28-0.48-2.66-0.59-4.07-0.87c-3.3-0.67-7.05-1.52-10.92-1.41c0.07-0.02-0.34-0.08-0.48-0.04
		c-0.39,0.12-1.55,0.21-2.06,0.47c-0.16,0.07-0.58,0.66-0.81,0.84c0.02,0.01,0.05,0.33,0.06,0.35c2.03,0.25,3.84,0.38,5.81,0.7
		c1.89,0.3,3.85,0.8,5.9,1.17c0.64,0.11,1.19,0.62,1.79,0.77c1.57,0.4,3.04,0.6,4.47,1.17c0.78,0.3,1.69,0.43,2.51,0.77
		c0.96,0.39,1.93,1.09,2.86,1.55c-0.15,0.86-0.46,1.56-0.56,2.35c-0.07,0.68,0.09,1.06-0.08,1.68c-0.15,0.54-0.63,1.1-0.79,1.67
		c-0.19,0.68,0,1.26-0.14,2.04c-0.09,0.51-0.57,1.12-0.67,1.65c-0.26,1.31-0.35,2.48-0.43,3.87l0.36,0.06
		c1.67-3.97,3.37-7.82,5.2-11.66c1.08,0.44,1.8,1.05,2.75,1.56c1.88,1.01,3.5,2.18,5.1,3.56c0.26,0.22,0.71,0.31,0.92,0.55
		c0.18,0.21,0.17,0.55,0.36,0.78c0.32,0.36,0.98,0.53,1.34,0.85c0.36,0.33,0.46,0.75,0.79,1.17c0.21,0.26,0.75,0.52,0.96,0.79
		c0.31,0.36,0.59,1.4,0.39,0.89c-0.01,0.07-0.58-0.21-0.29,0.41c0.2,0.41,1.72,1.76,2.17,2.37c-1.83,1.65-3.95,3.14-6.26,4.48
		c-1,0.58-2.13,1.58-3.22,2.07c-1.46,0.65-2.46,1.19-3.97,1.84l0.07,0.46c0.91-0.15,1.57-0.04,2.45-0.29c2-0.54,3.97-1.82,5.61-2.7
		c1.14-0.62,2.19-0.94,3.3-1.62c0.8-0.48,2.99-2.45,4.24-2.36c0.34,0.02,3.42,2.52,4.04,2.89c0.71,0.44,1.61,0.45,2.39,0.8
		c-0.35-1.14-0.68-2.03-1.21-3.01c-0.41-0.76-1.82-1.83-1.7-3.04c0.01-0.09,0.23-0.34,0.29-0.41c1.49-1.61,3.35-2.76,5.13-4.17
		c0.6-0.47,1.15-1.25,1.74-1.72c1.22-0.97,2.38-1.74,3.59-2.73c2.53-2.08,4.52-4.67,7.19-6.77c1.43,1.45,2.46,2.8,4.29,3.69
		c-0.82-2.12-1.91-3.36-2.79-5.36c3.59-3.42,6.67-7.17,9.84-10.89c1.44-1.68,2.46-4.29,4.3-5.58c0.68,0.62,1.04,1.19,1.64,1.98
		c0.95,1.25,2.46,2.35,3.44,3.59c1.28,1.61,1.96,3.98,4.06,4.44c-0.6-2.89-2.67-5.73-4.14-7.75c-0.55-0.75-3.87-3.96-3.86-4.71
		l0.21-0.16c1.46-2.3,2.5-4.73,3.81-7.16c0.24-0.45,0.75-0.88,0.97-1.34c0.58-1.22,1.14-2.52,1.64-3.71
		c0.18-0.43,0.14-0.89,0.39-1.26c0.09-0.13,0.35-0.06,0.44-0.19c1.55,2.02,3.62,3.5,5.29,5.42c-0.45-0.94-1.06-1.5-1.56-2.23
		c-0.72-1.07-1.07-2.12-1.92-3.01c-0.26-0.27-0.91-0.39-1.07-0.77c-0.1-0.22-0.18-0.8-0.17-1.04c0.04-0.88,0.58-1.83,0.71-2.85
		c-0.46,0.82-1.06,1.43-1.79,2.08c-2.76-2.54-5.28-5.33-7.97-7.95c-2.03-1.98-4.48-3.57-6.6-5.44c0.03-0.02-0.05-0.3-0.06-0.35
		c0.5-0.34,1.12-0.54,1.5-0.96c0.23-0.24,0.33-0.79,0.55-1.04c-1.34-0.38-3.13,0.86-4.43,0.5c-0.21-0.07-0.5-0.48-0.69-0.6
		c-0.88-0.52-1.94-0.99-2.85-1.43c-1.58-0.78-3.25-1.17-4.93-1.8c-0.82-0.31-1.61-0.95-2.46-1.26c-2.18-0.77-4.29-0.91-6.67-1.51
		c-0.45-0.11-1.2-0.51-1.75-0.55c2.64-0.43,4.43,0.14,6.55,0.11c4.78-0.06,9.27,0.59,13.25,1.84c1.41,0.45,2.74,1.42,4.12,1.93
		c0.9,0.34,1.82,0.43,2.63,0.87c1.23,0.66,2.29,1.68,3.49,2.39c1.84,1.09,3.74,1.94,5.51,3.13c1.49,1,2.64,2.47,3.94,3.74
		c0.42,0.41,1.06,0.66,1.48,1.07c1.19,1.11,2,2.72,2.94,4.14c1.35,2.03,2.98,4.12,4.54,5.91c-1.81-4.69-4.44-8.24-7.25-11.51
		c-0.89-1.04-1.59-2.19-2.64-3.01c-0.31-0.25-0.72-0.26-1.04-0.54c-0.87-0.74-1.52-1.58-2.4-2.33c-0.95-0.81-2.14-1.27-3.17-1.97
		c-2.2-1.49-4.34-3.18-6.78-4.34c-1.27-0.6-2.64-0.86-4.03-1.35c-7.53-2.68-15.1-3.86-25.3-2.94
		C82.37,122.17,76.4,123.51,71.24,125.68"/>
	<path class="st0" d="M137.48,159.53c-0.51-0.92-0.99-2.28-1.65-3.24c-0.18-0.26-0.65-0.58-0.79-0.91
		c-0.54-1.28,0.02-1.12,0.49-0.46c1.99,2.74,3.66,5.6,5.13,8.97c0.31,0.69,1.15,1.86,1.19,2.75c0.02,0.44-0.55,0.23-0.55,0.23
		C139.76,164.81,138.84,161.99,137.48,159.53"/>
	<path class="st0" d="M150.04,182.78H98.43l15.16,15.36c-3.61,5.07-13.06,15.6-28.71,14.42c-30.91-2.34-40.01-28.24-38.31-43.41
		c2.54-22.64,12.72-31.98,31.4-41.28c12-5.98,30.13-4.78,30.13-4.78c-8.42-4.88-28.44-3.56-36.08-0.38
		c-22.65,9.44-41.21,28.18-41.99,57.08c-0.9,33.1,26.45,60.13,59.56,60.34c18.07,0.12,34.31-7.77,45.39-20.33l14.73,14.93
		L150.04,182.78"/>
	<path class="st0" d="M185.53,159.61c-1.9,0.65-5.49,1.53-9.08,1.53c-4.96,0-8.55-1.25-11.05-3.63c-2.46-2.38-3.83-5.93-3.83-9.92
		c0.04-9.03,6.61-14.2,15.53-14.2c3.51,0,6.21,0.69,7.54,1.29l-1.29,4.96c-1.49-0.68-3.31-1.17-6.29-1.17
		c-5.12,0-9.03,2.9-9.03,8.79c0,5.65,3.55,8.91,8.59,8.91c1.37,0,2.5-0.16,2.99-0.36v-5.73h-4.19v-4.8h10.12V159.61z"/>
	<rect x="188.72" y="132.19" class="st0" width="6.13" height="28.68"/>
	<path class="st0" d="M207.27,161.31c-5.77,0-10.21-3.79-10.21-10.16c0-6.37,4.2-10.45,10.57-10.45c6.01,0,10.04,4.16,10.04,10.13
		c0,7.18-5.12,10.48-10.36,10.48H207.27z M207.43,156.91c2.42,0,3.92-2.38,3.92-5.93c0-2.9-1.13-5.89-3.92-5.89
		c-2.9,0-4.03,2.99-4.03,5.93c0,3.35,1.41,5.89,3.99,5.89H207.43z"/>
	<path class="st0" d="M219.65,132.19h6.13v11.29h0.08c1.17-1.69,3.23-2.79,5.97-2.79c4.72,0,8.14,3.91,8.11,9.96
		c0,7.1-4.48,10.65-8.99,10.65c-2.3,0-4.56-0.85-5.93-3.19h-0.08l-0.24,2.74h-5.2c0.08-1.29,0.16-3.67,0.16-5.89V132.19z
		 M225.78,152.47c0,0.4,0.04,0.76,0.12,1.09c0.4,1.61,1.81,2.9,3.59,2.9c2.62,0,4.23-2.02,4.23-5.57c0-3.06-1.37-5.48-4.23-5.48
		c-1.65,0-3.19,1.25-3.59,3.02c-0.08,0.36-0.12,0.73-0.12,1.13V152.47z"/>
	<path class="st0" d="M258.97,156.1c0,1.85,0.08,3.67,0.32,4.76h-5.52l-0.37-1.97h-0.12c-1.29,1.57-3.31,2.42-5.64,2.42
		c-3.99,0-6.37-2.91-6.37-6.05c0-5.12,4.6-7.54,11.57-7.54v-0.24c0-1.05-0.56-2.54-3.59-2.54c-2.02,0-4.16,0.68-5.45,1.45
		l-1.13-3.91c1.37-0.77,4.08-1.77,7.67-1.77c6.57,0,8.63,3.87,8.63,8.51V156.1z M253.05,151.55c-3.23,0-5.72,0.77-5.72,3.11
		c0,1.57,1.05,2.34,2.42,2.34c1.49,0,2.79-1,3.19-2.25c0.08-0.32,0.12-0.69,0.12-1.05V151.55z"/>
	<rect x="261.84" y="132.19" class="st0" width="6.13" height="28.68"/>
	<path class="st0" d="M162.83,170.41c1.98-0.37,4.88-0.61,8.18-0.61c4.04,0,6.86,0.61,8.79,2.18c1.65,1.29,2.54,3.19,2.54,5.69
		c0,3.43-2.46,5.81-4.8,6.65v0.12c1.89,0.77,2.94,2.54,3.63,5.04c0.85,3.11,1.65,6.66,2.18,7.7h-6.29c-0.4-0.81-1.09-2.99-1.85-6.33
		c-0.77-3.43-1.93-4.32-4.48-4.35h-1.81v10.69h-6.09V170.41z M168.91,182.06h2.42c3.06,0,4.88-1.53,4.88-3.91
		c0-2.46-1.69-3.75-4.52-3.75c-1.49,0-2.34,0.08-2.78,0.2V182.06z"/>
	<path class="st0" d="M189.85,189.28c0.2,2.54,2.7,3.75,5.57,3.75c2.1,0,3.79-0.28,5.44-0.85l0.81,4.15
		c-2.02,0.85-4.48,1.25-7.14,1.25c-6.7,0-10.53-3.88-10.53-10.04c0-5,3.14-10.53,9.96-10.53c6.37,0,8.79,4.96,8.79,9.84
		c0,1.05-0.12,1.98-0.2,2.42H189.85z M197.06,185.09c0-1.49-0.64-3.99-3.43-3.99c-2.62,0-3.67,2.38-3.83,3.99H197.06z"/>
	<path class="st0" d="M205.21,184.08c0-2.58-0.08-4.76-0.16-6.61h5.33l0.28,2.74h0.08c1.45-2.06,3.71-3.19,6.57-3.19
		c4.31,0,8.19,3.75,8.19,10.04c0,7.18-4.56,10.57-8.95,10.57c-2.38,0-4.23-0.97-5.12-2.26h-0.08v9.8h-6.13V184.08z M211.34,188.71
		c0,0.48,0.04,0.89,0.12,1.29c0.4,1.65,1.81,2.9,3.59,2.9c2.66,0,4.23-2.22,4.23-5.57c0-3.14-1.41-5.53-4.16-5.53
		c-1.73,0-3.26,1.29-3.67,3.11c-0.08,0.32-0.12,0.73-0.12,1.09V188.71z"/>
	<path class="st0" d="M237.6,197.63c-5.77,0-10.21-3.79-10.21-10.16c0-6.37,4.2-10.44,10.57-10.44c6.01,0,10.04,4.15,10.04,10.12
		c0,7.18-5.12,10.48-10.37,10.48H237.6z M237.76,193.23c2.42,0,3.91-2.38,3.91-5.93c0-2.9-1.13-5.89-3.91-5.89
		c-2.9,0-4.03,2.99-4.03,5.93c0,3.35,1.41,5.89,3.99,5.89H237.76z"/>
	<path class="st0" d="M250.18,183.96c0-2.9-0.04-4.8-0.16-6.49h5.24l0.24,3.67h0.16c1.01-2.9,3.39-4.11,5.32-4.11
		c0.56,0,0.85,0.04,1.29,0.12v5.77c-0.49-0.08-0.97-0.16-1.65-0.16c-2.26,0-3.79,1.17-4.2,3.11c-0.08,0.4-0.12,0.85-0.12,1.37v9.96
		h-6.13V183.96z"/>
	<path class="st0" d="M273.57,172.1v5.37h4.4v4.52h-4.4v7.14c0,2.38,0.6,3.47,2.42,3.47c0.85,0,1.25-0.04,1.81-0.16l0.04,4.64
		c-0.76,0.28-2.26,0.53-3.95,0.53c-1.97,0-3.63-0.69-4.64-1.69c-1.13-1.17-1.69-3.07-1.69-5.85v-8.07h-2.62v-4.52h2.62v-3.71
		L273.57,172.1z"/>
	<path class="st0" d="M283.74,175.04c-1.94,0-3.19-1.37-3.19-3.07c0-1.73,1.29-3.06,3.27-3.06c1.98,0,3.19,1.33,3.23,3.06
		c0,1.69-1.25,3.07-3.27,3.07H283.74z M280.71,177.46h6.13v19.72h-6.13V177.46z"/>
	<path class="st0" d="M289.75,183.75c0-2.46-0.08-4.52-0.16-6.29h5.32l0.28,2.74h0.12c0.81-1.29,2.78-3.19,6.09-3.19
		c4.04,0,7.06,2.7,7.06,8.51v11.66h-6.13v-10.93c0-2.54-0.88-4.28-3.11-4.28c-1.69,0-2.7,1.17-3.15,2.3
		c-0.16,0.41-0.2,0.97-0.2,1.53v11.37h-6.13V183.75z"/>
	<path class="st0" d="M329.84,194.32c0,3.79-0.76,6.9-3.02,8.88c-2.14,1.86-5.08,2.42-7.99,2.42c-2.62,0-5.33-0.52-7.1-1.49
		l1.21-4.68c1.25,0.73,3.39,1.49,5.73,1.49c2.91,0,5.12-1.53,5.12-5.2v-1.25h-0.08c-1.17,1.62-3.07,2.54-5.33,2.54
		c-4.88,0-8.35-3.96-8.35-9.6c0-6.37,4.07-10.41,8.95-10.41c2.7,0,4.4,1.17,5.4,2.82h0.08l0.2-2.38H330
		c-0.08,1.29-0.16,2.94-0.16,5.89V194.32z M323.71,185.49c0-0.36-0.04-0.77-0.12-1.13c-0.45-1.61-1.61-2.7-3.31-2.7
		c-2.26,0-4.04,2.02-4.04,5.61c0,2.95,1.45,5.25,3.99,5.25c1.61,0,2.87-1.05,3.27-2.46c0.16-0.48,0.2-1.13,0.2-1.65V185.49z"/>
	<rect x="162.86" y="208.59" class="st0" width="6.13" height="27.18"/>
	<path class="st0" d="M172.1,222.34c0-2.46-0.08-4.52-0.16-6.29h5.32l0.28,2.74h0.12c0.81-1.29,2.78-3.19,6.09-3.19
		c4.04,0,7.06,2.7,7.06,8.51v11.66h-6.13v-10.93c0-2.54-0.88-4.28-3.11-4.28c-1.69,0-2.7,1.17-3.15,2.3c-0.16,0.4-0.2,0.97-0.2,1.53
		v11.37h-6.13V222.34z"/>
	<path class="st0" d="M196.74,213.63c-1.94,0-3.18-1.37-3.18-3.07c0-1.73,1.29-3.06,3.27-3.06c1.98,0,3.19,1.33,3.22,3.06
		c0,1.69-1.25,3.07-3.27,3.07H196.74z M193.72,216.05h6.13v19.72h-6.13V216.05z"/>
	<path class="st0" d="M211.14,210.69v5.36h4.39v4.52h-4.39v7.14c0,2.38,0.6,3.47,2.42,3.47c0.84,0,1.25-0.04,1.81-0.16l0.04,4.64
		c-0.77,0.28-2.26,0.53-3.95,0.53c-1.98,0-3.63-0.69-4.64-1.69c-1.13-1.17-1.69-3.07-1.69-5.85v-8.07h-2.62v-4.52h2.62v-3.71
		L211.14,210.69z"/>
	<path class="st0" d="M221.3,213.63c-1.94,0-3.19-1.37-3.19-3.07c0-1.73,1.29-3.06,3.27-3.06c1.98,0,3.18,1.33,3.23,3.06
		c0,1.69-1.25,3.07-3.27,3.07H221.3z M218.28,216.05h6.13v19.72h-6.13V216.05z"/>
	<path class="st0" d="M244.53,231.01c0,1.86,0.08,3.67,0.32,4.76h-5.52l-0.36-1.98h-0.12c-1.29,1.57-3.31,2.42-5.64,2.42
		c-3.99,0-6.37-2.91-6.37-6.05c0-5.12,4.6-7.54,11.57-7.54v-0.24c0-1.05-0.56-2.54-3.59-2.54c-2.02,0-4.16,0.68-5.45,1.45
		l-1.13-3.91c1.37-0.77,4.08-1.78,7.67-1.78c6.57,0,8.63,3.87,8.63,8.51V231.01z M238.61,226.46c-3.23,0-5.72,0.77-5.72,3.11
		c0,1.57,1.05,2.34,2.42,2.34c1.49,0,2.78-1,3.19-2.26c0.08-0.32,0.12-0.69,0.12-1.05V226.46z"/>
	<path class="st0" d="M255.14,210.69v5.36h4.39v4.52h-4.39v7.14c0,2.38,0.6,3.47,2.42,3.47c0.84,0,1.25-0.04,1.81-0.16l0.04,4.64
		c-0.76,0.28-2.26,0.53-3.95,0.53c-1.98,0-3.63-0.69-4.64-1.69c-1.13-1.17-1.69-3.07-1.69-5.85v-8.07h-2.62v-4.52h2.62v-3.71
		L255.14,210.69z"/>
	<path class="st0" d="M265.31,213.63c-1.93,0-3.19-1.37-3.19-3.07c0-1.73,1.29-3.06,3.27-3.06c1.98,0,3.19,1.33,3.23,3.06
		c0,1.69-1.25,3.07-3.27,3.07H265.31z M262.28,216.05h6.13v19.72h-6.13V216.05z"/>
	<path class="st0" d="M277.08,216.05l2.66,9.16c0.48,1.66,0.81,3.23,1.13,4.8h0.12c0.32-1.61,0.64-3.11,1.09-4.8l2.54-9.16h6.45
		l-7.34,19.72h-6.13l-7.18-19.72H277.08z"/>
	<path class="st0" d="M297.41,227.87c0.2,2.54,2.7,3.75,5.57,3.75c2.1,0,3.79-0.28,5.44-0.84l0.81,4.15
		c-2.02,0.84-4.48,1.25-7.14,1.25c-6.7,0-10.53-3.88-10.53-10.04c0-5,3.14-10.53,9.96-10.53c6.37,0,8.79,4.96,8.79,9.84
		c0,1.05-0.12,1.98-0.2,2.42H297.41z M304.63,223.67c0-1.49-0.64-3.99-3.43-3.99c-2.62,0-3.67,2.38-3.83,3.99H304.63z"/>
	<polygon class="st0" points="315.38,218.23 313.31,218.23 313.31,216.77 319.19,216.77 319.19,218.23 317.1,218.23 317.1,224.43 
		315.38,224.43 	"/>
	<path class="st0" d="M326.3,221.49c-0.03-0.92-0.07-2.02-0.07-3.14h-0.02c-0.25,0.98-0.57,2.07-0.86,2.96l-0.93,2.98h-1.35
		l-0.82-2.96c-0.25-0.9-0.5-1.98-0.69-2.99h-0.03c-0.03,1.04-0.08,2.21-0.12,3.17l-0.15,2.91h-1.6l0.49-7.65h2.3l0.75,2.55
		c0.25,0.88,0.48,1.84,0.65,2.73h0.04c0.21-0.88,0.46-1.89,0.72-2.75l0.81-2.54h2.27l0.41,7.65h-1.68L326.3,221.49z"/>
</g>
</svg>
