<svg width="612" height="792" viewBox="0 0 612 792" fill="none" xmlns="http://www.w3.org/2000/svg">
<g clip-path="url(#clip0)">
<path d="M582.356 518.509H537.18C542.451 513.227 545.725 505.947 545.725 497.943V496.176C545.725 480.146 532.61 467.032 516.579 467.032H505.12C493.011 463.161 484.239 451.824 484.239 438.432C484.239 421.849 497.682 408.404 514.266 408.404H554.642C570.67 408.404 583.786 395.288 583.786 379.26V377.493C583.786 361.463 570.671 348.348 554.642 348.348H542.864C526.281 348.348 512.836 334.903 512.836 318.318C512.836 301.735 526.281 288.291 542.864 288.291H548.038C564.067 288.291 577.184 275.176 577.184 259.146V257.38C577.184 241.35 564.068 228.234 548.038 228.234H537.18C523.777 225.346 513.766 213.949 513.766 200.319C513.766 184.507 527.235 171.689 543.851 171.689H567.648C583.395 171.689 596.278 158.807 596.278 143.06C596.278 127.313 583.395 114.431 567.648 114.431H77.63C61.883 114.431 49.001 127.313 49.001 143.06C49.001 158.807 61.883 171.689 77.63 171.689H118.35C134.966 171.689 148.437 184.507 148.437 200.319C148.437 213.949 138.424 225.346 125.02 228.234H60.104C44.073 228.234 30.958 241.349 30.958 257.38V259.146C30.958 275.176 44.073 288.291 60.104 288.291H118.183C134.766 288.291 148.211 301.736 148.211 318.318C148.211 334.903 134.766 348.348 118.183 348.348H66.706C50.677 348.348 37.561 361.462 37.561 377.493V379.26C37.561 395.288 50.677 408.404 66.706 408.404H89.584C106.167 408.404 119.612 421.849 119.612 438.432C119.612 451.824 110.84 463.161 98.731 467.032H28.646C12.614 467.032 -0.5 480.145 -0.5 496.176V497.943C-0.5 513.972 12.614 527.089 28.646 527.089H73.821C68.55 532.369 65.276 539.647 65.276 547.654V549.42C65.276 565.449 78.392 578.566 94.421 578.566H92.801C109.386 578.566 122.83 592.009 122.83 608.593V608.594C122.83 625.179 109.386 638.621 92.801 638.621H138.56H471.727H517.485C500.901 638.621 487.458 625.179 487.458 608.594V608.593C487.458 592.009 500.901 578.566 517.485 578.566H582.356C598.386 578.566 611.501 565.45 611.501 549.42V547.654C611.5 531.622 598.386 518.509 582.356 518.509Z" fill="#1D4E8A"/>
<path d="M476.922 406.474C476.922 406.474 478.529 382.358 484.961 377.533C491.392 372.71 526.763 374.318 526.763 374.318C526.763 374.318 538.017 346.984 542.84 348.593C547.665 350.202 546.058 355.025 546.058 355.025L531.585 388.788L489.784 404.867L476.922 406.474Z" fill="#D2D6DB"/>
<path d="M135.51 406.474C135.51 406.474 133.903 382.358 127.471 377.533C121.04 372.71 85.6678 374.318 85.6678 374.318C85.6678 374.318 74.4138 346.984 69.5878 348.593C64.7668 350.202 66.3738 355.025 66.3738 355.025L80.8438 388.788L122.646 404.867L135.51 406.474Z" fill="#D2D6DB"/>
<path d="M242.452 639.756L233.658 469.444H319.408L317.209 639.756H242.452Z" fill="#7C8088"/>
<path d="M110.529 402.216L132.516 498.577C132.516 498.577 136.912 514.264 156.702 514.264L246.85 523.229L245.751 469.445H161.099L134.715 395.494L110.529 402.216Z" fill="#7C8088"/>
<path d="M369.979 639.756L378.774 469.444H315.011L317.21 639.756H369.979Z" fill="#7C8088"/>
<path d="M501.903 402.216L479.916 498.577C479.916 498.577 475.519 514.264 455.728 514.264L365.582 523.229L366.683 469.445H451.333L477.717 395.494L501.903 402.216Z" fill="#7C8088"/>
<path d="M132.429 498.195L132.516 498.577C132.516 498.577 136.912 514.264 156.702 514.264L246.85 523.229L246.338 498.196H132.429V498.195Z" fill="#7C8088"/>
<path d="M366.093 498.195L365.581 523.228L455.728 514.263C475.517 514.263 479.915 498.576 479.915 498.576L480.003 498.194H366.093V498.195Z" fill="#7C8088"/>
<path d="M369.784 641.143H402.801L447.467 584.363C447.467 584.363 456.902 571.083 444.463 555.693L394.756 479.954L353.623 514.623L406.843 580.452L369.784 641.143Z" fill="#7C8088"/>
<path d="M232.933 641.143H199.913L155.246 584.363C155.246 584.363 145.813 571.083 158.254 555.693L207.959 479.954L249.094 514.623L195.872 580.452L232.933 641.143Z" fill="#7C8088"/>
<path d="M369.784 641.143H378.373C399.097 620.539 408.602 597.043 429.083 576.201L365.677 504.464L353.623 514.623L406.843 580.452L369.784 641.143Z" fill="#7C8088"/>
<path d="M239.962 506.929C217.866 528.828 201.278 554.852 179.307 576.878C189.344 590.406 192.559 598.31 200.504 609.334C208.159 619.957 215.82 630.577 223.556 641.143H232.933L195.872 580.452L249.092 514.623L239.962 506.929Z" fill="#7C8088"/>
<path d="M320.095 438.516H292.339V481.538H320.095V438.516Z" fill="#D2D6DB"/>
<path d="M320.095 481.539L292.339 445.457L320.095 438.516V481.539Z" fill="#7C8088"/>
<path d="M336.749 446.844H271.52C257.78 446.844 246.538 435.604 246.538 421.864V337.205C246.538 323.466 257.781 312.224 271.52 312.224H336.749C350.487 312.224 361.729 323.466 361.729 337.205V421.864C361.73 435.603 350.488 446.844 336.749 446.844Z" fill="#FCB8A5"/>
<path d="M336.749 446.844H271.52C257.78 446.844 246.538 435.604 246.538 421.864V337.205C246.538 323.466 257.781 312.224 271.52 312.224H336.749C350.487 312.224 361.729 323.466 361.729 337.205V421.864C361.73 435.603 350.488 446.844 336.749 446.844Z" fill="#D2D6DB"/>
<path d="M320.095 408.331C320.095 417.912 312.328 421.516 302.747 421.516C293.165 421.516 285.398 417.912 285.398 408.331" stroke="#626165" stroke-width="3" stroke-miterlimit="10" stroke-linecap="round" stroke-linejoin="round"/>
<path d="M325.647 481.539C325.647 489.206 316.946 495.42 306.217 495.42C295.485 495.42 286.786 489.206 286.786 481.539C286.786 473.875 295.485 467.661 306.217 467.661C316.946 467.661 325.647 473.875 325.647 481.539Z" fill="#FCB8A5"/>
<path d="M336.055 602.283H276.378V628.652H336.055V602.283Z" fill="#626165"/>
<path d="M367.739 639.294C366.135 630.972 355.635 624.488 342.995 624.488H269.438C256.797 624.488 246.297 630.971 244.693 639.294H367.739Z" fill="white"/>
<path d="M374.22 607.835H238.211C224.472 607.835 213.23 596.594 213.23 582.853V484.316C213.23 470.577 224.472 459.336 238.211 459.336H374.22C387.96 459.336 399.202 470.577 399.202 484.316V582.853C399.202 596.594 387.96 607.835 374.22 607.835Z" fill="white"/>
<path d="M389.282 464.456C374.47 478.251 358.541 491.034 343.478 504.497C324.554 521.41 305.765 538.471 286.874 555.419C268.344 572.045 249.479 588.295 231.127 605.115C230.679 605.525 230.233 605.932 229.788 606.341C232.421 607.3 235.255 607.836 238.211 607.836H374.22C387.96 607.836 399.202 596.594 399.202 582.857V484.319C399.202 476.229 395.288 469.029 389.282 464.456Z" fill="#626165"/>
<path d="M356.84 323.325C356.84 323.325 256.254 362.185 232.659 328.876C206.325 291.698 234.047 276.138 240.909 273.362C247.636 270.641 267.662 265.034 279.552 290.016C279.552 290.016 272.122 271.974 288.47 267.81C304.82 263.646 318.196 292.792 318.196 292.792C318.196 292.792 339.004 278.913 355.353 288.628C371.703 298.343 367.243 320.549 367.243 324.712C367.243 328.875 360.927 363.919 360.927 363.919L356.84 323.325Z" fill="#626165"/>
<path d="M229.884 288.629C229.884 288.629 227.109 303.896 234.048 316.386C240.987 328.876 254.865 338.592 275.684 335.816C275.683 335.816 235.435 341.367 229.884 288.629Z" fill="#FCFCFC"/>
<path d="M283.78 300.008C283.78 300.008 282.168 308.876 286.199 316.129C290.228 323.383 298.288 329.025 310.38 327.414C310.38 327.414 287.004 330.635 283.78 300.008Z" fill="#FCFCFC"/>
<path d="M318.378 301.514C318.378 301.514 317.265 307.637 320.047 312.647C322.831 317.657 328.398 321.555 336.749 320.442C336.749 320.442 320.603 322.668 318.378 301.514Z" fill="#FCFCFC"/>
<path d="M270.541 384.799C284.947 384.799 296.625 373.121 296.625 358.715C296.625 344.309 284.947 332.631 270.541 332.631C256.135 332.631 244.457 344.309 244.457 358.715C244.457 373.121 256.135 384.799 270.541 384.799Z" stroke="#7C8088" stroke-width="3" stroke-miterlimit="10" stroke-linecap="round" stroke-linejoin="round"/>
<path d="M337.81 384.798C352.215 384.798 363.893 373.12 363.893 358.715C363.893 344.31 352.215 332.632 337.81 332.632C323.405 332.632 311.727 344.31 311.727 358.715C311.727 373.12 323.405 384.798 337.81 384.798Z" stroke="#7C8088" stroke-width="3" stroke-miterlimit="10" stroke-linecap="round" stroke-linejoin="round"/>
<path d="M304.828 386.472C302.157 386.472 299.97 384.286 299.97 381.615V349.694C299.97 347.023 302.157 344.837 304.828 344.837C307.5 344.837 309.685 347.023 309.685 349.694V381.615C309.685 384.286 307.5 386.472 304.828 386.472Z" fill="#626165"/>
<path d="M296.501 361.491C296.501 357.66 299.917 354.552 304.134 354.552C308.35 354.552 311.766 357.66 311.766 361.491" fill="#7C8088"/>
<path d="M311.766 362.991C310.938 362.991 310.266 362.32 310.266 361.491C310.266 358.492 307.515 356.052 304.134 356.052C300.752 356.052 298.001 358.492 298.001 361.491C298.001 362.32 297.33 362.991 296.501 362.991C295.672 362.991 295.001 362.32 295.001 361.491C295.001 356.838 299.098 353.052 304.134 353.052C309.169 353.052 313.266 356.838 313.266 361.491C313.266 362.32 312.594 362.991 311.766 362.991Z" fill="#7C8088"/>
<path d="M277.071 373.288C277.071 376.353 274.586 378.84 271.519 378.84C268.454 378.84 265.968 376.354 265.968 373.288C265.968 370.222 268.454 367.737 271.519 367.737C274.586 367.737 277.071 370.222 277.071 373.288Z" fill="#7C8088"/>
<path d="M345.076 373.288C345.076 376.353 342.591 378.84 339.524 378.84C336.457 378.84 333.972 376.354 333.972 373.288C333.972 370.222 336.457 367.737 339.524 367.737C342.591 367.737 345.076 370.222 345.076 373.288Z" fill="#7C8088"/>
<path d="M245.151 358.022C245.151 359.554 243.905 360.798 242.375 360.798C240.842 360.798 239.599 359.554 239.599 358.022C239.599 356.489 240.842 355.246 242.375 355.246C243.906 355.246 245.151 356.489 245.151 358.022Z" fill="#7C8088"/>
<path d="M368.669 358.029C368.669 359.546 367.44 360.775 365.921 360.775C364.407 360.775 363.177 359.546 363.177 358.029C363.177 356.512 364.407 355.282 365.921 355.282C367.44 355.282 368.669 356.512 368.669 358.029Z" fill="#7C8088"/>
<path d="M182.697 234.987H23.0942V331.652H182.697V234.987Z" fill="#626165"/>
<path d="M182.697 234.986H23.0942V252.557H182.697V234.986Z" fill="#D2D6DB"/>
<path d="M34.1982 265.035L168.818 319.161" stroke="white" stroke-width="2" stroke-miterlimit="10"/>
<path d="M168.24 263.64L34.7749 320.558" stroke="white" stroke-width="2" stroke-miterlimit="10"/>
<path d="M175.757 242.83C175.757 244.362 174.514 245.605 172.982 245.605C171.45 245.605 170.207 244.362 170.207 242.83C170.207 241.298 171.45 240.054 172.982 240.054C174.514 240.054 175.757 241.298 175.757 242.83Z" fill="#E83666"/>
<path d="M167.43 242.83C167.43 244.362 166.187 245.605 164.654 245.605C163.123 245.605 161.879 244.362 161.879 242.83C161.879 241.298 163.123 240.054 164.654 240.054C166.187 240.054 167.43 241.298 167.43 242.83Z" fill="#7CB642"/>
<path d="M159.104 242.83C159.104 244.362 157.86 245.605 156.328 245.605C154.796 245.605 153.553 244.362 153.553 242.83C153.553 241.298 154.796 240.054 156.328 240.054C157.86 240.054 159.104 241.298 159.104 242.83Z" fill="#FEC448"/>
<path d="M525.498 313.611H449.164C443.82 313.611 439.449 309.239 439.449 303.896V255.32C439.449 249.977 443.82 245.605 449.164 245.605H525.498C530.84 245.605 535.211 249.977 535.211 255.32V303.895C535.211 309.239 530.84 313.611 525.498 313.611Z" fill="#626165"/>
<path d="M461.53 279.569L477.956 271.109V273.552L464.115 280.49V280.56L477.956 287.498V289.941L461.53 281.481V279.569Z" fill="#FCFCFC"/>
<path d="M480.252 291.358L490.129 265.692H492.535L482.623 291.358H480.252Z" fill="#FCFCFC"/>
<path d="M511.19 281.516L494.764 289.941V287.498L508.711 280.56V280.49L494.764 273.552V271.109L511.19 279.534V281.516Z" fill="#FCFCFC"/>
<path d="M354.791 195.643C354.791 220.17 326.207 240.054 290.949 240.054C255.689 240.054 227.108 220.17 227.108 195.643C227.108 171.115 255.69 151.232 290.949 151.232C326.207 151.232 354.791 171.115 354.791 195.643Z" fill="white"/>
<path d="M307.604 219.236L328.422 269.198L329.81 202.582L307.604 219.236Z" fill="white"/>
<path d="M253.89 204.502V184.473H257.934V192.356H265.858V184.473H269.902V204.502H265.858V195.745H257.934V204.502H253.89Z" fill="#626165"/>
<path d="M278.592 204.502V187.861H272.649V184.473H288.566V187.861H282.637V204.502H278.592Z" fill="#626165"/>
<path d="M291.12 204.502V184.473H297.173L300.807 198.135L304.4 184.473H310.466V204.502H306.708V188.736L302.733 204.502H298.839L294.877 188.736V204.502H291.12Z" fill="#626165"/>
<path d="M314.591 204.502V184.637H318.636V201.128H328.691V204.503H314.591V204.502Z" fill="#626165"/>
<path d="M412.225 373.316L408.44 373.999C408.313 373.243 408.024 372.674 407.573 372.291C407.122 371.909 406.537 371.717 405.817 371.717C404.861 371.717 404.098 372.047 403.529 372.707C402.96 373.368 402.675 374.472 402.675 376.02C402.675 377.741 402.964 378.958 403.543 379.668C404.121 380.378 404.897 380.733 405.872 380.733C406.601 380.733 407.197 380.526 407.662 380.111C408.126 379.696 408.454 378.984 408.645 377.973L412.416 378.615C412.024 380.345 411.273 381.653 410.162 382.536C409.051 383.42 407.561 383.862 405.694 383.862C403.572 383.862 401.881 383.192 400.619 381.853C399.357 380.514 398.726 378.661 398.726 376.292C398.726 373.897 399.359 372.032 400.625 370.697C401.891 369.363 403.604 368.696 405.762 368.696C407.529 368.696 408.934 369.076 409.977 369.837C411.02 370.599 411.769 371.759 412.225 373.316Z" fill="#626165"/>
<path d="M413.782 379.396L417.635 378.809C417.799 379.556 418.131 380.123 418.632 380.51C419.133 380.897 419.834 381.091 420.736 381.091C421.728 381.091 422.475 380.909 422.976 380.545C423.313 380.29 423.482 379.949 423.482 379.521C423.482 379.229 423.39 378.988 423.209 378.797C423.018 378.615 422.589 378.446 421.925 378.291C418.828 377.608 416.865 376.984 416.036 376.419C414.889 375.636 414.314 374.547 414.314 373.154C414.314 371.897 414.81 370.841 415.803 369.984C416.796 369.128 418.335 368.7 420.421 368.7C422.406 368.7 423.882 369.024 424.848 369.67C425.813 370.317 426.478 371.273 426.842 372.539L423.222 373.208C423.067 372.643 422.773 372.21 422.34 371.91C421.907 371.609 421.29 371.459 420.489 371.459C419.477 371.459 418.754 371.601 418.316 371.883C418.025 372.083 417.879 372.343 417.879 372.662C417.879 372.935 418.006 373.167 418.261 373.359C418.608 373.614 419.803 373.974 421.848 374.438C423.892 374.902 425.32 375.472 426.131 376.146C426.932 376.829 427.333 377.781 427.333 379.001C427.333 380.331 426.777 381.474 425.666 382.431C424.555 383.387 422.911 383.866 420.734 383.866C418.757 383.866 417.193 383.465 416.041 382.663C414.891 381.86 414.137 380.771 413.782 379.396Z" fill="#626165"/>
<path d="M429.344 379.396L433.197 378.809C433.361 379.556 433.693 380.123 434.194 380.51C434.695 380.897 435.396 381.091 436.298 381.091C437.29 381.091 438.037 380.909 438.538 380.545C438.875 380.29 439.044 379.949 439.044 379.521C439.044 379.229 438.952 378.988 438.771 378.797C438.58 378.615 438.151 378.446 437.487 378.291C434.39 377.608 432.427 376.984 431.598 376.419C430.451 375.636 429.876 374.547 429.876 373.154C429.876 371.897 430.372 370.841 431.365 369.984C432.358 369.128 433.897 368.7 435.983 368.7C437.968 368.7 439.444 369.024 440.41 369.67C441.375 370.317 442.04 371.273 442.404 372.539L438.784 373.208C438.629 372.643 438.335 372.21 437.902 371.91C437.469 371.609 436.852 371.459 436.051 371.459C435.039 371.459 434.316 371.601 433.878 371.883C433.587 372.083 433.441 372.343 433.441 372.662C433.441 372.935 433.568 373.167 433.823 373.359C434.17 373.614 435.365 373.974 437.41 374.438C439.454 374.902 440.882 375.472 441.693 376.146C442.494 376.829 442.895 377.781 442.895 379.001C442.895 380.331 442.339 381.474 441.228 382.431C440.117 383.387 438.473 383.866 436.296 383.866C434.319 383.866 432.755 383.465 431.603 382.663C430.452 381.86 429.698 380.771 429.344 379.396Z" fill="#626165"/>
<path d="M161.64 381.651C163.848 381.651 164.159 380.438 164.159 379.35C164.159 378.479 164.034 377.608 163.91 376.738C163.786 375.867 163.661 375.028 163.661 374.157C163.661 371.296 165.527 370.083 168.17 370.083H168.823V371.793H168.263C166.428 371.793 165.806 372.788 165.806 374.467C165.806 375.182 165.899 375.928 166.024 376.675C166.149 377.452 166.242 378.199 166.242 379.038C166.273 381.028 165.402 382.023 164.003 382.396V382.459C165.402 382.801 166.274 383.858 166.242 385.849C166.242 386.688 166.149 387.466 166.024 388.212C165.899 388.989 165.806 389.705 165.806 390.451C165.806 392.193 166.521 393.157 168.263 393.157H168.823V394.867H168.17C165.589 394.867 163.661 393.747 163.661 390.607C163.661 389.767 163.786 388.897 163.91 388.057C164.035 387.218 164.159 386.378 164.159 385.538C164.159 384.574 163.848 383.237 161.64 383.237V381.651Z" fill="white"/>
<path d="M202.533 383.237C200.325 383.237 200.014 384.574 200.014 385.538C200.014 386.377 200.139 387.217 200.263 388.057C200.388 388.897 200.512 389.767 200.512 390.607C200.512 393.748 198.553 394.867 196.003 394.867H195.35V393.157H195.879C197.62 393.126 198.367 392.193 198.367 390.451C198.367 389.705 198.242 388.99 198.149 388.212C198.024 387.465 197.9 386.688 197.9 385.849C197.9 383.859 198.771 382.801 200.139 382.459V382.396C198.771 382.023 197.9 381.028 197.9 379.038C197.9 378.199 198.024 377.452 198.149 376.675C198.242 375.928 198.367 375.182 198.367 374.467C198.367 372.788 197.714 371.824 195.91 371.793H195.35V370.083H195.972C198.615 370.083 200.512 371.296 200.512 374.157C200.512 375.028 200.388 375.867 200.263 376.738C200.138 377.609 200.014 378.48 200.014 379.35C200.014 380.438 200.325 381.651 202.533 381.651V383.237V383.237Z" fill="white"/>
<path d="M418.596 171.883L420.422 178.903C420.821 180.444 421.193 181.87 421.449 183.297H421.534C421.848 181.899 422.305 180.415 422.762 178.931L425.016 171.883H427.127L429.267 178.788C429.781 180.443 430.18 181.898 430.495 183.296H430.581C430.809 181.898 431.18 180.442 431.637 178.817L433.606 171.883H436.088L431.637 185.694H429.354L427.243 179.103C426.758 177.562 426.358 176.192 426.015 174.566H425.958C425.615 176.221 425.187 177.648 424.702 179.131L422.476 185.694H420.194L416.028 171.883H418.596Z" fill="white"/>
<path d="M439.221 171.883L441.047 178.903C441.446 180.444 441.818 181.87 442.074 183.297H442.159C442.473 181.899 442.93 180.415 443.387 178.931L445.641 171.883H447.752L449.892 178.788C450.406 180.443 450.805 181.898 451.12 183.296H451.206C451.434 181.898 451.805 180.442 452.262 178.817L454.231 171.883H456.713L452.262 185.694H449.979L447.868 179.103C447.383 177.562 446.983 176.192 446.64 174.566H446.583C446.24 176.221 445.812 177.648 445.327 179.131L443.101 185.694H440.819L436.653 171.883H439.221Z" fill="white"/>
<path d="M459.875 171.883L461.701 178.903C462.1 180.444 462.472 181.87 462.728 183.297H462.813C463.127 181.899 463.584 180.415 464.041 178.931L466.295 171.883H468.406L470.546 178.788C471.06 180.443 471.459 181.898 471.774 183.296H471.86C472.088 181.898 472.459 180.442 472.916 178.817L474.885 171.883H477.367L472.916 185.694H470.633L468.522 179.103C468.037 177.562 467.637 176.192 467.294 174.566H467.237C466.894 176.221 466.466 177.648 465.981 179.131L463.755 185.694H461.473L457.307 171.883H459.875Z" fill="white"/>
<path d="M379.772 220.624H431.123" stroke="white" stroke-width="2" stroke-miterlimit="10"/>
<path d="M395.038 228.951H446.389" stroke="white" stroke-width="2" stroke-miterlimit="10"/>
<path d="M127.182 147.068H178.533" stroke="white" stroke-width="2" stroke-miterlimit="10"/>
<path d="M142.448 155.395H193.8" stroke="white" stroke-width="2" stroke-miterlimit="10"/>
<path d="M467.207 545.382H518.559" stroke="white" stroke-width="2" stroke-miterlimit="10"/>
<path d="M482.473 553.708H533.824" stroke="white" stroke-width="2" stroke-miterlimit="10"/>
<path d="M41.1362 498.195H92.4862" stroke="white" stroke-width="2" stroke-miterlimit="10"/>
<path d="M56.4033 506.521H107.753" stroke="white" stroke-width="2" stroke-miterlimit="10"/>
<path d="M519.63 638.62H94.9473V654.349H519.63V638.62Z" fill="#626165"/>
</g>
<defs>
<clipPath id="clip0">
<rect width="612" height="792" fill="white"/>
</clipPath>
</defs>
</svg>
