<?xml version="1.0" encoding="utf-8"?>
<!-- Generator: Adobe Illustrator 23.0.0, SVG Export Plug-In . SVG Version: 6.00 Build 0)  -->
<svg version="1.1" id="Capa_1" xmlns="http://www.w3.org/2000/svg" xmlns:xlink="http://www.w3.org/1999/xlink" x="0px" y="0px"
	 viewBox="0 0 1280 775" style="enable-background:new 0 0 1280 775;" xml:space="preserve">
<style type="text/css">
	.st0{opacity:0.15;}
	.st1{fill:#A3A2A2;}
</style>
<g id="XMLID_518_" class="st0">
	<path class="st1" d="M16.97,775h1246.05c9.37,0,16.97-7.6,16.97-16.97V0c-0.06,0.23-0.09,0.47-0.15,0.71
		c-14.23,57.88-87.65,76.73-147.15,73.21c-59.51-3.52-124.52-17.16-174.82,14.82c-52.23,33.2-66.69,102.35-70.15,164.13
		c-2.19,39.09-3.37,82.22-29.99,110.93c-38.66,41.71-106.54,29.57-160.69,12.17c-54.15-17.4-118.9-35.17-163.32,0.34
		c-37.77,30.19-42.19,85.06-64.39,128.01c-29.37,56.81-95.12,92.57-158.79,86.36c-75.26-7.35-136.85-65.9-211.26-79.38
		c-33.3-6.04-67.92-1.67-99.29,10.9v235.83C0,767.4,7.6,775,16.97,775z"/>
	<g>
		<path class="st1" d="M16.97,775.5c7.44,0,14.88,0,22.32,0c20.54,0,41.08,0,61.62,0c31.33,0,62.67,0,94,0c39.39,0,78.77,0,118.16,0
			c45.29,0,90.59,0,135.88,0c48.55,0,97.1,0,145.66,0c49.11,0,98.21,0,147.32,0c47.6,0,95.2,0,142.79,0c43.21,0,86.42,0,129.62,0
			c36.71,0,73.41,0,110.12,0c27.51,0,55.03,0,82.54,0c15.78,0,31.57,0,47.35,0c2.77,0,5.57,0.1,8.34,0
			c10.83-0.39,17.67-8.41,17.79-18.9c0.19-15.89,0-31.8,0-47.69c0-33.72,0-67.44,0-101.15c0-44.78,0-89.56,0-134.34
			c0-48.9,0-97.79,0-146.69c0-46.72,0-93.44,0-140.16c0-37.47,0-74.94,0-112.41c0-21.83,0-43.67,0-65.5c0-2.88,0-5.76,0-8.64
			c0-0.55-0.86-0.7-0.98-0.13c-10.6,49.61-67.24,68.97-111.73,73.01c-56.46,5.12-113.2-13.44-169.38-1.02
			c-25.68,5.68-49.02,18.6-66.32,38.55c-15.97,18.42-26.2,41.13-32.86,64.41c-7.09,24.79-10.37,50.56-11.9,76.24
			c-1.7,28.53-2.07,58.28-12.97,85.16c-10.65,26.27-32.15,44.89-59.61,51.76c-26.64,6.67-55.1,3.34-81.55-2.56
			c-52.05-11.62-104.17-38.46-158.85-27.93c-24.22,4.66-45.09,18.03-59.31,38.2c-14.9,21.14-22.26,46.5-30.67,70.65
			c-9.09,26.12-20.09,50.73-39.08,71.26c-19.07,20.61-43.52,36.18-70.15,45.03c-26.98,8.96-55.53,10.49-83.33,4.66
			c-28.69-6.02-55.43-18.59-81.48-31.66c-25.23-12.65-50.21-26.09-76.87-35.55c-28.75-10.2-58.74-14.44-89.1-10.22
			c-15.28,2.12-30.15,6.22-44.5,11.87c-0.21,0.08-0.37,0.25-0.37,0.48c0,30.02,0,60.04,0,90.06c0,43.27,0,86.54,0,129.82
			c0,4.96-0.07,9.92,0,14.87C-0.35,767.22,6.52,774.97,16.97,775.5c0.64,0.03,0.64-0.97,0-1C1.23,773.7,0.5,760.45,0.5,748.79
			c0-11.42,0-22.85,0-34.27c0-34.91,0-69.83,0-104.74c0-26.87,0-53.73,0-80.6c0-1.61-0.67-5.02,0-6.53c0.66-1.5,6.29-2.5,8.27-3.19
			c8.34-2.89,16.87-5.2,25.53-6.91c32.74-6.45,65.6-3.06,96.99,7.82c54.88,19.01,102.83,55.83,160.25,67.87
			c51.83,10.87,106.24-4.92,145.16-40.69c19.18-17.62,32.69-39.24,42.18-63.36c9.92-25.22,16.42-51.99,29.5-75.88
			c13.84-25.28,35.87-43.52,64.39-49.5c28.95-6.06,59.28-0.63,87.46,6.75c50.09,13.11,102.02,36.54,154.76,23.38
			c23.59-5.88,43.72-20.53,55.4-42.02c12.93-23.78,15.34-51.72,16.93-78.24c3.2-53.22,7.9-111.87,43.2-154.88
			c18.59-22.66,44.49-36.65,73.14-42c30.58-5.71,62.06-2.94,92.81-0.25c48.7,4.26,100.54,7.03,144.16-19.42
			c17.73-10.76,32.13-26.6,38.39-46.63c0.19-0.62,1.24-7.57,0.46-4.57c-0.27,1.03,0,2.49,0,3.55c0,34.77,0,69.53,0,104.3
			c0,64.45,0,128.9,0,193.35c0,72.17,0,144.35,0,216.52c0,57.94,0,115.88,0,173.82c0,16.77,0,33.54,0,50.31
			c0,12.89,2.3,30.9-16.48,31.74c-16.02,0.72-32.24,0-48.27,0c-42.61,0-85.21,0-127.82,0c-60.72,0-121.44,0-182.16,0
			c-71,0-142.01,0-213.01,0c-72.72,0-145.45,0-218.17,0c-66.51,0-133.01,0-199.52,0c-52.16,0-104.31,0-156.47,0
			c-29.67,0-59.35,0-89.02,0c-3.87,0-7.74,0-11.61,0C16.33,774.5,16.33,775.5,16.97,775.5z"/>
	</g>
</g>
</svg>
