<svg xmlns="http://www.w3.org/2000/svg" viewBox="0 0 800 769.13"><defs><style>.cls-1{isolation:isolate;}.cls-2{fill:#b3b1b2;}.cls-3{fill:#f9f9f9;}.cls-4{fill:#3ed9c4;}.cls-5{fill:#dff7f2;}.cls-6{fill:#fff;}.cls-7{fill:#cba189;}.cls-19,.cls-8{fill:#d2d6db;}.cls-9{fill:#b0b1b2;}.cls-10{fill:#f2f2f2;}.cls-11{fill:#ccc;}.cls-12,.cls-13{fill:#5b5b5c;}.cls-13,.cls-19{fill-rule:evenodd;}.cls-14{fill:#9ce9db;}.cls-15{fill:#f1f1f1;}.cls-16{fill:#011e41;mix-blend-mode:soft-light;}.cls-17{fill:#193a45;}.cls-18{fill:#cac8c8;mix-blend-mode:darken;}.cls-20{fill:#d3d1c9;}.cls-21{fill:#e4e3e0;}.cls-22{fill:#cac9ca;}.cls-23{fill:#214751;}</style></defs><title>forta</title><g class="cls-1"><g id="Objects"><rect class="cls-2" x="64.56" y="468.37" width="128.82" height="206.58"/><rect class="cls-3" x="64.56" y="468.37" width="128.82" height="206.58"/><path class="cls-4" d="M660.68,759.81a5.36,5.36,0,1,0-5.36,5.35A5.37,5.37,0,0,0,660.68,759.81Z" transform="translate(-475 -282.55)"/><path class="cls-4" d="M656.12,759.17c-1.62,0-2.86-1-2.86-2.25V752h1.49v4.94c0,.36.58.76,1.37.76s1.36-.4,1.36-.76V752H659v4.94C659,758.19,657.72,759.17,656.12,759.17ZM653.26,752v-5c0-1.26,1.24-2.25,2.86-2.25s2.86,1,2.86,2.25v5h-1.5v-5c0-.36-.59-.75-1.36-.75h0c-.79,0-1.37.39-1.37.75v5Z" transform="translate(-475 -282.55)"/><path class="cls-4" d="M640.47,759.81a5.36,5.36,0,1,0-5.36,5.35A5.37,5.37,0,0,0,640.47,759.81Z" transform="translate(-475 -282.55)"/><path class="cls-4" d="M635.9,759.17c-1.6,0-2.86-1-2.86-2.25V752h1.49v4.94c0,.36.6.76,1.37.76s1.36-.4,1.36-.76V752h1.5v4.94C638.76,758.19,637.5,759.17,635.9,759.17ZM633,752v-5c0-1.26,1.26-2.25,2.86-2.25s2.86,1,2.86,2.25v5h-1.5v-5c0-.36-.58-.75-1.36-.75h0c-.77,0-1.37.39-1.37.75v5Z" transform="translate(-475 -282.55)"/><path class="cls-5" d="M620.26,759.81a5.36,5.36,0,1,0-5.37,5.35A5.38,5.38,0,0,0,620.26,759.81Z" transform="translate(-475 -282.55)"/><path class="cls-4" d="M615.68,759.17c-1.6,0-2.84-1-2.84-2.25V752h1.49v4.94c0,.36.58.76,1.35.76s1.37-.4,1.37-.76V752h1.49v4.94C618.54,758.19,617.3,759.17,615.68,759.17ZM612.84,752v-5c0-1.26,1.24-2.25,2.84-2.25s2.86,1,2.86,2.25v5h-1.49v-5c0-.36-.58-.75-1.37-.75h0c-.77,0-1.35.39-1.35.75v5Z" transform="translate(-475 -282.55)"/><path class="cls-5" d="M600,759.81a5.36,5.36,0,1,0-5.36,5.35A5.37,5.37,0,0,0,600,759.81Z" transform="translate(-475 -282.55)"/><path class="cls-4" d="M595.48,759.17c-1.61,0-2.87-1-2.87-2.25V752h1.5v4.94c0,.36.58.76,1.37.76s1.35-.4,1.35-.76V752h1.5v4.94C598.33,758.19,597.08,759.17,595.48,759.17ZM592.61,752v-5c0-1.26,1.26-2.25,2.87-2.25s2.85,1,2.85,2.25v5h-1.5v-5c0-.36-.58-.75-1.35-.75h0c-.79,0-1.37.39-1.37.75v5Z" transform="translate(-475 -282.55)"/><path class="cls-5" d="M579.83,759.81a5.36,5.36,0,1,0-5.36,5.35A5.37,5.37,0,0,0,579.83,759.81Z" transform="translate(-475 -282.55)"/><path class="cls-4" d="M575.26,759.17c-1.6,0-2.86-1-2.86-2.25V752h1.5v4.94c0,.36.59.76,1.36.76s1.37-.4,1.37-.76V752h1.49v4.94C578.12,758.19,576.87,759.17,575.26,759.17ZM572.4,752v-5c0-1.26,1.26-2.25,2.86-2.25s2.86,1,2.86,2.25v5h-1.49v-5c0-.36-.59-.75-1.37-.75h0c-.77,0-1.36.39-1.36.75v5Z" transform="translate(-475 -282.55)"/><path class="cls-5" d="M559.61,759.81a5.36,5.36,0,1,0-5.36,5.35A5.37,5.37,0,0,0,559.61,759.81Z" transform="translate(-475 -282.55)"/><path class="cls-4" d="M555.05,759.17c-1.61,0-2.86-1-2.86-2.25V752h1.5v4.94c0,.36.57.76,1.36.76s1.36-.4,1.36-.76V752h1.5v4.94C557.91,758.19,556.65,759.17,555.05,759.17ZM552.19,752v-5c0-1.26,1.25-2.25,2.86-2.25s2.86,1,2.86,2.25v5h-1.5v-5c0-.36-.58-.75-1.36-.75h0c-.79,0-1.36.39-1.36.75v5Z" transform="translate(-475 -282.55)"/><path class="cls-6" d="M693.73,901.56h-5.64v-3.08h5.64a21.61,21.61,0,0,0,4.75-.53l1.51-.34.68,3-1.5.34A24.26,24.26,0,0,1,693.73,901.56Zm-11.8,0H669.6v-3.08h12.33Zm-18.49,0H651.12v-3.08h12.32Zm-18.49,0H632.63v-3.08H645Zm-18.48,0H614.14v-3.08h12.33Zm-19-1.17-1.43-.58a24.54,24.54,0,0,1-8.18-5.36l-1.1-1.09,2.16-2.19,1.1,1.08a21.35,21.35,0,0,0,7.17,4.7l1.42.58Zm99.33-2.57-1.8-2.5,1.25-.9a21.87,21.87,0,0,0,5.84-6.28l.8-1.32,2.63,1.61-.81,1.32a24.76,24.76,0,0,1-6.66,7.17ZM593,887.76l-.6-1.42a24.55,24.55,0,0,1-1.88-9.42V875.2h3.09v1.72a21.32,21.32,0,0,0,1.64,8.23l.59,1.42Zm124.87-5.69-3-.45.22-1.53a21,21,0,0,0,.24-3.17v-7.37h3.08v7.37a24.34,24.34,0,0,1-.27,3.63ZM593.62,869h-3.09V856.71h3.09Zm124.76-5.65H715.3V851.06h3.08ZM593.62,850.55h-3.09V838.23h3.09Zm124.76-5.65H715.3V832.58h3.08ZM593.62,832.06h-3.09V819.74h3.09Zm124.76-5.65H715.3V814.09h3.08ZM593.62,813.58h-3.09V801.25h3.09Zm124.76-5.65H715.3V795.61h3.08ZM593.62,795.09h-3.09V782.77h3.09Zm124.76-5.65H715.3V777.12h3.08ZM593.62,776.61h-3.09V764.28h3.09ZM718.38,771H715.3V758.63h3.08ZM593.62,758.12h-3.09v-8.29a22.53,22.53,0,0,0-.12-2.32l-.17-1.53,3.07-.34.16,1.53a23.85,23.85,0,0,1,.15,2.66Zm124.76-5.65H715.3V740.15h3.08ZM588.55,740.7l-.76-1.35a21.61,21.61,0,0,0-5.58-6.5l-1.21-1,1.9-2.43,1.21.95a24.75,24.75,0,0,1,6.38,7.43l.74,1.34ZM718.38,734H715.3V721.66h3.08ZM576,729.41l-1.49-.4a21.37,21.37,0,0,0-5.58-.74h-4.73v-3.08H569a24.58,24.58,0,0,1,6.39.84l1.49.4Zm-18-1.14H545.76v-3.08h12.32Zm-18.49,0H527.27v-3.08h12.32Zm-18.48,0H508.79v-3.08h12.32Zm-18.49,0h-3a24.36,24.36,0,0,1-8.17-1.4l-1.45-.52,1-2.9,1.46.51a21.11,21.11,0,0,0,7.14,1.23h3Zm-18.4-5.4-1.14-1a24.82,24.82,0,0,1-5.8-7.88l-.65-1.4,2.8-1.3.65,1.4a21.53,21.53,0,0,0,5.08,6.9l1.14,1Zm234.16-7.37H715.3V703.18h3.08ZM475.07,706l-.06-1.54c0-.27,0-.53,0-.8v-10h3.08v10c0,.23,0,.47,0,.7l0,1.54Zm243.31-9H715.3V684.69h3.08Zm325.81-3.41h-11.35v-3.08h11.35Zm-17.51,0h-12.33v-3.08h12.33Zm-18.49,0H995.87v-3.08h12.32Zm-18.94-1L987.8,692a24.87,24.87,0,0,1-8.29-5.2l-1.12-1.06,2.12-2.24,1.12,1.06a21.4,21.4,0,0,0,7.26,4.55l1.44.55Zm-511.17-5.16H475V675.1h3.08Zm496.41-7.17-.62-1.41a24.29,24.29,0,0,1-2.08-9.57l0-1.54,3.08,0,0,1.54a21.29,21.29,0,0,0,1.81,8.36l.63,1.41Zm-256.11-1.72H715.3V666.2h3.08Zm-240.3-9.59H475V656.61h3.08Zm496.79-7.39h-3.08V649.22h3.08ZM718.38,660H715.3V647.72h3.08Zm-240.3-9.59H475V638.13h3.08Zm496.79-7.39h-3.08V630.74h3.08Zm-256.49-1.51H715.3V629.23h3.08ZM478.08,632H475V619.64h3.08Zm496.79-7.39h-3.08V612.25h3.08Zm-256.49-1.5H715.3V610.74h3.08Zm-240.3-9.59H475V601.15h3.08Zm496.79-7.39h-3.08V593.77h3.08Zm-256.49-1.51H715.3V592.26h3.08ZM478.08,595H475V582.67h3.08Zm496.79-7.39h-3.08V575.28h3.08Zm-256.49-1.5H715.3V573.77h3.08Zm-240.3-9.59H475V569.6a24.52,24.52,0,0,1,.35-4.11l.26-1.53,3,.52-.26,1.52a21.68,21.68,0,0,0-.3,3.6Zm496.79-7.4h-3.08V556.79h3.08Zm-256.49-1.5H715.3V555.29h3.08Zm-237.73-8.3-2.59-1.66.83-1.3a24.75,24.75,0,0,1,6.8-7l1.27-.88,1.75,2.53-1.27.88a21.89,21.89,0,0,0-6,6.17Zm490.69-8.21-.44-1.48a21.42,21.42,0,0,0-4-7.56l-1-1.18,2.37-2,1,1.18a24.49,24.49,0,0,1,4.61,8.64l.45,1.48Zm-252.16-1.37-2.89-1.07.53-1.44A24.6,24.6,0,0,1,722,538.9l1-1.12,2.25,2.11L724.23,541a21.61,21.61,0,0,0-4.52,7.28Zm-225.37-.94-.63-3,1.51-.31a25,25,0,0,1,5-.5h6.1V548h-6.1a21.56,21.56,0,0,0-4.33.44Zm48.91-.75H530.4V545h12.32Zm-18.48,0H511.91V545h12.33Zm437.34-10.68-1.36-.71a21.22,21.22,0,0,0-8.22-2.41l-1.53-.12.25-3.07,1.53.13a24.23,24.23,0,0,1,9.4,2.74l1.37.72Zm-231.77-.7-1.26-2.81,1.4-.63a24.47,24.47,0,0,1,9.56-2.13l1.55,0,.05,3.08-1.54,0a21.34,21.34,0,0,0-8.36,1.86Zm214.62-2.49H932.1v-3.08h12.33Zm-18.49,0H913.62v-3.08h12.32Zm-18.48,0H895.14v-3.08h12.32Zm-18.49,0H876.65v-3.08H889Zm-18.49,0H858.16v-3.08h12.32Zm-18.48,0H839.68v-3.08H852Zm-18.48,0H821.19v-3.08h12.33Zm-18.49,0H802.7v-3.08H815Zm-18.49,0H784.22v-3.08h12.32Zm-18.49,0H765.73v-3.08h12.32Zm-18.48,0H747.24v-3.08h12.33Z" transform="translate(-475 -282.55)"/><path class="cls-6" d="M550.48,546.49c-4.37-1.62-9.8-4.39-13.16-7.32l2.64,7.32-2.64,7.33C540.68,550.89,546.11,548.12,550.48,546.49Z" transform="translate(-475 -282.55)"/><path class="cls-7" d="M987.52,546.94s-6.62-6.18-9.27-5.51-5.29,2.42-3.76,6.17,3.32,6.84,2.66,7.06-.66-5.29-.45-7.29-1.33-5.51,2.44-2.42,6,4.86,4.85,6.4-3.32,4.19-1.33,6,4.64,6.62,4.64,6.62-4.2-7.29-3.09-8.83,2-6-.44-8.39a18.67,18.67,0,0,0-4.2-3.31S979.35,542.07,987.52,546.94Z" transform="translate(-475 -282.55)"/><path class="cls-8" d="M1038.09,507.7c6.15,12.93,9,72.18,9.3,88.95.22,12.48-30.38,16.08-36.05,15.46s-8,30.72-8,30.72L965.3,627.64,960.38,622,953,589.81l-7.82-48.27S930.46,510.3,941,497.8,1004.32,436.6,1038.09,507.7Z" transform="translate(-475 -282.55)"/><path class="cls-9" d="M1018.32,611.88s-20.22-10.82-26.53-15.47-16.6-26.89-16.6-26.89,2,24.56,6,30.21,25.66,20.43,25.66,20.43S1007.7,613.87,1018.32,611.88Z" transform="translate(-475 -282.55)"/><path class="cls-4" d="M1050,473.5s-10.94,10.61-15.32,9.51l6-9.31s-45.45-5.48-51.46-7.12-17,0-20.27-.54-30.66,22.45-36.14,29,0,32.31,2.74,40.52,13.69,47.08,13.69,47.08.55,10.4-1.1,12.05,15.89-14.23,14.24-25.74-9.85-9.86-9.85-23,11.89-17.23,17.91-6.27c0,0,4.6,9.64,5.08,16.12a201.75,201.75,0,0,0-.55-24.09c-1.09-12.59,24.09-24.09,24.09-24.09s1.11-8.21-.53-9.31a38.52,38.52,0,0,1-4.93-4.93s38.32,6.37,40.5,4.73S1051.14,477.87,1050,473.5Z" transform="translate(-475 -282.55)"/><path class="cls-10" d="M1025.37,746.81l-1.36-8-17.47-55.33s-5.47-17.09,12-10.55c0,0-6.18-15.65-4.73-17.83s-6.17-8-6.17-8l-4,7.29S972,627.48,969.41,626.74s-15.28,5.1-17.11,7.28-8.72,6.55-13.09,6.92c-2.86.23-13.45,53.95-20.36,105.87Z" transform="translate(-475 -282.55)"/><path class="cls-6" d="M1072.13,746.81c-6.27-16.72-14.46-38.5-15.85-50.8-2.15-19-12.07-26.34-16-28.13s-15.72-5.36-15.36-7.52,1.06-4.64-.36-6.07-24.68-22.89-24.68-22.89C955.9,606,956.25,615,955.2,619.62s-2.52,10.71-7.52,11.07-12.16,6.08-14.3,10.73-9.29,13.94-23.6,21.1c-4,2-7.14,5.94-9.62,10.6-4.75,6.6-3.93,7.92-9.36,11.86-6.29,4.57-6.45,23.67-7.59,35.71-.56,5.91-3.87,16.66-7.12,26.12Z" transform="translate(-475 -282.55)"/><path class="cls-11" d="M1020.69,664.34l-5.82-19.3-6.55-5.1s4,6.19,1.83,9.47-18.58,26.92-18.58,26.92-17.47-45.48-29.84-49.84c0,0-.72,8.72-5.09,10.9s-8.37,2.92-5.46,2.92,11.64,2.55,13.1-.73,16,12.37,26.21,44.77l20.74-30.94,9.82,14.56,5.83-3.28Z" transform="translate(-475 -282.55)"/><path class="cls-11" d="M964.54,736.34c-.63,1.28-2.55,5.53-4.76,10.47h9.81c3.19-3.88,5.87-7.19,5.87-7.19l-20.38-54.23S966.36,732.69,964.54,736.34Z" transform="translate(-475 -282.55)"/><path class="cls-11" d="M988.48,746.81c3.14-8.84,5.54-15.93,5.54-15.93s-3.2,7.29-7.72,15.93Z" transform="translate(-475 -282.55)"/><path class="cls-11" d="M947.15,746.81c-1.27-8.53-2.52-18.49-3-27.58,0,0-.87,14.2-.95,27.58Z" transform="translate(-475 -282.55)"/><path class="cls-4" d="M1018.88,746.81h18c-2.57-22.78-5.41-45.14-6.14-50.32-.81-5.63-6-20.76-7.13-21.15s3.55-18.94-3.16-21.71c0,0-7.11-3.55-10.66-1.57s-6.7,11.44-6.7,11.44l13.41,13Z" transform="translate(-475 -282.55)"/><path class="cls-4" d="M738.77,708.74A74.79,74.79,0,1,1,664,634,74.78,74.78,0,0,1,738.77,708.74Z" transform="translate(-475 -282.55)"/><path class="cls-6" d="M731.08,744.6l0,0h0l0,0Z" transform="translate(-475 -282.55)"/><path class="cls-6" d="M739.4,718.65h0a6,6,0,0,0-.11.84A8,8,0,0,0,739.4,718.65Z" transform="translate(-475 -282.55)"/><path class="cls-6" d="M687.53,701c.59.25,2.85.12,2.88-.24a.56.56,0,0,0,0-.28.59.59,0,0,0-.23-.35s0,0-.82-.29a.18.18,0,0,1-.12-.12s0,0,0-.07a.25.25,0,0,0-.11-.17.31.31,0,0,0-.24,0,3.33,3.33,0,0,0-1.1.87c-.32.36-.39.48-.34.55S687.45,700.91,687.53,701Z" transform="translate(-475 -282.55)"/><path class="cls-6" d="M725.06,753.92l0,0h0Z" transform="translate(-475 -282.55)"/><path class="cls-6" d="M609.2,657.54c-.67.91-1.2,1.63-.63,1.59a1.06,1.06,0,0,0,.37-.16c0,.45-.39.81-.3,1.28.41.21.65-.33,1-.22.35,1,.16,1.22-1.69,3.14a7.66,7.66,0,0,1-.73.78s-.13,0-.19,0-.36,0-1,.7c0,0-1.19,1.36-.88,1.7.47-.07.39-1,.93-.76s0,.73,0,1.09c0,0,.62,1.66,1.47,1.16,2.21-1.31,2.2-1.69,2.19-2.26,0-1.12,0-1.42.21-1.73a.94.94,0,0,1,.58-.3c.65-.18.65-.18,2.31-1.77.81-.77-1.14-1.3-.73-2.25s1.71-1.47,1.89-2.67c0-.25-.15-.4-.34-.55a13.61,13.61,0,0,0,3.51-3.3l-.35.18c.65-1.3,1.92-2.09,2.73-3.26l0-.08c-1.47.75-5.06,4.83-5.93,6.38-.82-.87,1.83-2.38.63-2.43-.63,0-1,.39-3,2.34,1.91-2.05,1.91-2.05,2-2.22C612.65,654.11,611.35,655.4,609.2,657.54Z" transform="translate(-475 -282.55)"/><path class="cls-6" d="M615.22,652.36c2-.69,2-.69,3.29-2-.27,0-.5.26-.79.13-.28.11-.54.24-.81.35l-.06-.12c1.23-1.2,3-1.39,4.38-2.35,0,0,2.26-1.52,4.45-2.83l1.58-1.06c2.52-1.55,5.37-2.46,8-3.85-.24,0-.24,0-1.29.35h0s0,0,4.64-1.79a5.31,5.31,0,0,0,.66-.33,1.21,1.21,0,0,0-.4.07c.2-.11.2-.11.88-.42-.25.07-.25.07-1.65.55.49-.22,1-.38,1.51-.58a4.57,4.57,0,0,0-.73.11,15.5,15.5,0,0,0-1.7.69,4.07,4.07,0,0,1,.75-.36,37.36,37.36,0,0,0-4.53,1.8l1-.46-1.42.61h0c-.8.39-1.61.75-2.43,1.12h0l-1.44.72h0c-.34.22-.74.35-1.08.58.24-.07.46-.18.69-.25-.53.31-1.12.51-1.66.81l.06-.07c-1.78,1-3.91,2.27-5.52,3.31l-.21.15a5.77,5.77,0,0,0-.48.33,4,4,0,0,1,.82-.35c-1.33.81-2.54,1.8-3.89,2.59a4.7,4.7,0,0,1,.51-.44l-1.42,1.07,0,0c-.88.83-1.85,1.57-2.74,2.38a6.73,6.73,0,0,1,1.13-.67Z" transform="translate(-475 -282.55)"/><path class="cls-6" d="M651.51,675.06a23.67,23.67,0,0,0,1.88,3.06c.76.85.76.85,1.55.75h.18c.87-.07,1,0,1.08.43-.4.64-1.38.3-1.74,1-.44.87-.48,2.47,0,2.34.69-.17.69-.17.74-.14,0,.36,0,.47-.79,1.1-1.31,1-.74,1.23-.29,1.25l1.56-.4a1.87,1.87,0,0,0,.65-.51c.22-.22.31-.24.39-.26a17.14,17.14,0,0,0,2.34-.42l1.31-.54,1.43-1.33c.21-.35-.07-.68-.06-1,0-.56-.84-.2-1-.66s-.77-.14-.91-.59c-.18-.61-.94-.81-1.07-1.45a3.53,3.53,0,0,0-.49-.81.15.15,0,0,0-.06-.05c-.28-.21-.57-.4-.84-.61a7.26,7.26,0,0,1-.71-.76c-.24-.23-.07-.39.25-.7s1.81-1.79-.45-1.52c-.87.1-1,.1-1.13,0,0-.63.76-.5,1-.93s-.09-.66.11-1a.26.26,0,0,1,.27-.14s1.66-.08.94-.9l-.7.05-.12.08-.3.29a3.31,3.31,0,0,0-1.33.32c-.15.29.17.54.07.83l-1.34.17c-.33.79-.33.79-.43.82-.35.11-.57-.21-.88-.25s-.51.11-.77.09c-3-.14-1.73,1.47-1,2.34Z" transform="translate(-475 -282.55)"/><path class="cls-6" d="M610.22,656.33c.77-.76,1.56-1.51,2.23-2.16C611.81,654.76,611.81,654.76,610.22,656.33Z" transform="translate(-475 -282.55)"/><path class="cls-6" d="M601.7,666.22h0l3.13-4.08h0c-.54.66-.63.79-.66.83h0s.06-.09.11-.12c-.17.23-.55.7-.59.75-1.12,1.43-1.12,1.43-2,2.62Z" transform="translate(-475 -282.55)"/><path class="cls-6" d="M648.88,683.09a.9.9,0,0,0,.5.47,9.37,9.37,0,0,0,1.27-.11c.06,0,.06,0,1-1.1.41-.22.85-.38,1.25-.61.11-.12.28-.19.34-.35s0-.37,0-.52l.22-.41-.12-.76-.42-.57-.46-.58-.28-1.09a2.77,2.77,0,0,0-1.22-.11c-.28.07-.51.45-.72.64l-.39.49c-.13.16-.18.22-.57.28-.2,0-.54.08-.61.21s-.1.26.05.73a1.56,1.56,0,0,1,.07.8c0,.15,0,.3,0,.44l-.37.08-.29,1.11.16.62Z" transform="translate(-475 -282.55)"/><path class="cls-6" d="M645.89,777.88a12.23,12.23,0,0,1-1.72-1.23c-1.1-.77-3-.41-3.33-2.27-.53-.37-1.08-.69-1.6-1.07,0-.07.1-.18.13-.25-.41-.53-1.09-.66-1.58-1.07l-.21-.17.14-.2.3.06a9.42,9.42,0,0,0-1.09-1.2c.06-.05.12-.13.17-.18l.53,0a1.57,1.57,0,0,0-.18-.45l.51-.11s-1-1.3-1.41-1.8c0-.06-.12-.13-.16-.19a1.73,1.73,0,0,1,.44-.37c-.24-.48-.24-.48-.06-.87-1.23-1.63-1.23-1.63-.57-2,0,0,0-.08.06-.11.32-2.29-2.8-3.64-1.72-6.13.86-.31,1.67-.6,1.8-1.83,0-.39.34-.7.32-1.1,0,0-.23-1.94-.27-2.06-.34-.89-1-1.57-1.4-2.44-.25-.63-.25-.63,0-1a6.77,6.77,0,0,0,.87-3.22,7.29,7.29,0,0,0-2.11-3.13,14.56,14.56,0,0,0-2.6-1.35l-.27-.06c-1-.17-1.86.48-2.85.31s-1.95-1.14-3.1-1.33a3.39,3.39,0,0,0-.45,0c-2.37,0-2.37,0-3.35-1.63l-.43-.75a10.28,10.28,0,0,0-1.72-1.89c-1.33,0-2.65.53-4,0L609.14,733c-2.31,1.8-2.31,1.8-4.15.82-.7.21-.73.46-.79,1.12-.63.31-1.22.6-1.86,2.56l-.15-.35-.33.05-.1.37v.26c-1.39-.37-1.39-.37-3.25-5.63-.69-.16-1-.14-1.49.79-1.11-.77-1.11-2.45-1.11-3.34-.65-2.48-.66-2.52-1.12-3.35a5.12,5.12,0,0,0-.13,1.85,3,3,0,0,0-.32.07L594,728c-.28,1.22.54,2.27.59,3.43-2.8.41-3.81-9.05-3.8-9.15l.31.13a9.18,9.18,0,0,1,.32-1.44l.34-.11c.5.53.5.53.91.5,0-1.64.14-1.75.49-2a9.53,9.53,0,0,1,2.19,2,6.53,6.53,0,0,0,1.24,2.47c.46-.14.46-.14-.93-5.29-.47-1.74.61-3.23.86-4.85.28-1.81.72-3.6.89-5.43.06-.65.06-.65,2.15-4.46l.33.09c.08-3.39.09-3.74,2.73-5.64.08.88-.69,1.42-.85,2.19a2.42,2.42,0,0,0,.25.31c.33,0,3.94-3.43,4-3.46.56-.78-.06-1.94-.07-2l-.18.2c-.08.25-.2.58-.3.83-.78-.06-.86-.07-1.3-.77l-.42-.07c-.27.25-.49.55-.75.81a14.09,14.09,0,0,1,.65-2.28c-.27-.42-.27-.42-.18-1.07-1.09.06-1.09.06-3.56,3.48-.93-2.54,2.33-3.1,2.7-5.07.71.38,1.1,1.12,1.75,1.57l.41-.14a7.86,7.86,0,0,0-.32-1.15l.06-.07c.54-.25.54-.25,3.32-2.9l.16.34.4.11c-.41,1.47-1.72,2.47-2.1,3.95,0,.09,0,.09.78,1.32.44-.17.74-.64,1.3-.54a2.23,2.23,0,0,1,.38,1.64l.34-.07a9.07,9.07,0,0,1,.59-1.06c.37,0,.37,0,.87.46l.24.08h0c2.13-2,.42-3.78-1.35-3.85-.14-.21-.14-.21.66-5.54a1.54,1.54,0,0,0-.67-.24l-.27-.32c.09-.35.21-.69.28-1-2.12-.91-2.12-.91-2.47-1.7-.63-1.47.22-3.21-.22-4.69a7.09,7.09,0,0,1,.27-1c.27-.89.28-1.19,0-1.1a1.85,1.85,0,0,0-.45.42,1.36,1.36,0,0,0-.14.35c-.08.28-.14.57-.22.86s-.16.36-.22.39-.15.14-.25.33c-.77,1.73-.77,1.73-1.39,2-.35-.13-.57-.45-.9-.59a3.41,3.41,0,0,1,.18-1h0a9.21,9.21,0,0,1,.2-.91,8.68,8.68,0,0,1,.51-1c.07-.16.15-.36.07-.48s-.06-.06-.08-.09c-.19-.15-.45-.07-.64-.22s0-.22,0-.32a10.82,10.82,0,0,0-.19-1.38,1.11,1.11,0,0,0-.07-.16c-.07-.2-.16-.29-.25-.28h0a.33.33,0,0,0-.13.18c-.3.72-.72,1.45-.93,1.12s0-.57-.35-.59c-.12,0-.47.25-.65.49L601,675a2.33,2.33,0,0,0-.08.36,5.37,5.37,0,0,1-.55,1.53c-.17.39-.21.44-.41.57a.52.52,0,0,0-.22.31s-.05.31.07.35a.32.32,0,0,0,.13,0h0c.08,0,.08,0,.12,0,.08.43-.46,1.08-.93,1.67a15.34,15.34,0,0,0-.5,1.76,3.16,3.16,0,0,1,.23,2c-.39,1.41-1.72,2.26-2.17,3.63-.51,1.54,0,3.21-.58,4.75a1,1,0,0,1-.5.46c-1.14-.53,0-4.38,0-4.42a2.61,2.61,0,0,0,.19-.87l-.35-.1c-.81.14-.81.14-1.22-.05-.09-1.44-.09-1.44-.44-1.84l-.33.1a9,9,0,0,1,.53-2.28,1.07,1.07,0,0,1-.42.19l0-.14.37-1.05a49.47,49.47,0,0,1,6.57-11c-.06,1.52-1.35,2.36-2,3.56a1.34,1.34,0,0,0,.35,0c0,.2,0,.2-.11.64,1-.39.89-1.56,1.62-2.14.09.21-.05.45.07.66.11,0,.4.09.73-.4.53-1-.55-3.84.72-3.05.55-.58.64-1.44,1.24-2l.13,0,3.53-5.14.1-.16a.88.88,0,0,0-.2-.73,3.6,3.6,0,0,0-1,.9l-.1.13c-.19.43-2.87,4-3,4.16-.05-.15-.12-.38.75-1.58.2-.26,1.27-1.82,1.38-2l0,0h0l0-.13c-.15,0-.15,0-1.93,2.35.24-.48.24-.48,3-4.33a1.92,1.92,0,0,0-.22.18c.49-.74,1.15-1.34,1.67-2.06a.53.53,0,0,0,.25-.45c-1,1-1.73,1.8-2.29,2.46-.45.51-.77.93-1,1.23-.8,1-1.57,2.06-2.31,3.13,0,0,0-.08,0-.11a17.07,17.07,0,0,0-1.45,2,.43.43,0,0,1,0-.12c-.14.09-.14.09-1.55,2.25-3.78,6.6-3.85,6.73-5.41,10.38l-1.16,2.9c-.82,2.47-1.89,5.76-2.56,8.27-1.56,7.62-1.59,7.77-1.91,11.81-.29,7.95-.3,8.11.07,12.26.36,2.76.85,6.43,1.38,9.15v0c.08.33.1.4,1.21,3.89.26.77.56,1.71.93,2.87l.11.27a12.16,12.16,0,0,0,.65,1.25l.08,0a8.53,8.53,0,0,0,.89,1.17h.25a1.11,1.11,0,0,0,.65,0c.07.06.16.16.23.23l.75-.06.33-.1c.28.22.28.22,1.49,2.26.22-.43.22-.43,0-1.23,1.27.72,1.75,2.13,2.81,3l.16-.3c.06,0,.06,0,.79.84l.09,0h0c.4.25.68.64,1,.92,0-.1,0-.24,0-.34a3.79,3.79,0,0,0,.66-.18,1.87,1.87,0,0,0-.28-1.15v-.06c0-.11,0-.25,0-.36,2.4,3.09,2.39,3.36,2.37,4.25.08,0,0,.19.06.27a15,15,0,0,1,.72,1.76c-.39.66-.48.81-.2,1.53l2.38,4.06c1.49,1.53,3.53,2.39,5,4a11.54,11.54,0,0,0,5.34,3.46,3.72,3.72,0,0,1,1.63.9c.33.3.33.3,4.06,4.92.86,1.06,4,4.13,4,4.15,4.78,4.48,4.78,4.48,11.35,8.56,11,5.74,13.29,4.35,13.31,4.32a2.25,2.25,0,0,1-.08-.24C646.44,778.14,646.44,778.14,645.89,777.88Z" transform="translate(-475 -282.55)"/><path class="cls-6" d="M627,643.82c.28-.15.54-.31.8-.46A5.51,5.51,0,0,0,627,643.82Z" transform="translate(-475 -282.55)"/><path class="cls-6" d="M639.61,639.19a4.44,4.44,0,0,0-1.35.63l.23-.07c.18-.07.31-.12.36-.08s-.06.1-.33.28h0a2,2,0,0,1-.45.34,2.43,2.43,0,0,0-.42.19l.32-.2a.08.08,0,0,1-.05,0h0a.73.73,0,0,0-.18.11c-.07.06-.11.14-.18.2l-.36.26-.15.1,0,0-.15.08a3.92,3.92,0,0,1,.37-.34h0l-.15,0,.82-.6-.18,0c-.06,0-.06,0-1.88,1.11,0-.08,0-.08.48-.44l-.12-.1a11.84,11.84,0,0,0-3.44,1.59c-1.69,1-3.67,1.45-5.12,2.87a.92.92,0,0,0,.33,0c-.17.12-.36.22-.53.35.09,0,.21-.08.3-.13-1.66,1.5-3.83,2.28-5.54,3.72a.59.59,0,0,0,.06.14,1.4,1.4,0,0,1-.09.17l.15.07.29-.11c-.36.43-.58.45-.88.32a5.54,5.54,0,0,0-1.66,2.16c.16.11.16.11.44,0l.06,0h.24c.24-.12.44-.27.67-.38l.14.08.29-.15c-.14.21-.29.4-.44.59a7.36,7.36,0,0,0,.63-.47l.3.1a9.61,9.61,0,0,1-1.79,3.08,15.2,15.2,0,0,0-1.28,2.65,2,2,0,0,1,.5,0c0,.13.06.31-.35.47,0,0-1.58,1-1.3,1.92l.15,0a.91.91,0,0,1,.92-.45l.07.09c-2.46,2.55-2.46,2.55-2.76,3.54-1.15,3.74-1.18,5.7-.11,5.83.09,0,.2-.07.28-.12.19.18.11.52.38.66.85-.05.72,1,1.17,1.36.18-.21.28-.32.45-1.13,0-.12,0-.27.09-.38.16-.46.77-.48.93-.92s-.35-.8-.12-1.24L621.5,664a11.06,11.06,0,0,1,.76-1c1-.75,2.54-.81,3.34-2,.6-.9.6-.9,3.49-2.34.48-.17.48-.17,1.21-.81a9.13,9.13,0,0,1,.79-.6l.37-.24c.3-.17.3-.17.39-.37-.19-.15-.41-.26-.62-.4a.71.71,0,0,0,0-.2,1.68,1.68,0,0,1,.29-.25l.18.11c1,.71,1.29-.32,1.61-1.31a1.4,1.4,0,0,0-.39-.14c-.06-.19-.06-.19.91-1.31-.09-.16-.19-.38-.28-.54,2.2-.87,2.7-1.74,2.8-2.17a1.87,1.87,0,0,0-.38-.24c.35-.26.85-.07,1.21-.37,0,0,.23-.24-.13-.56-.48.09-.47-.16-.47-.38a11.3,11.3,0,0,0,1.56-1.37l-.21,0a2.11,2.11,0,0,1,.51-.61l-.54-.12a1.71,1.71,0,0,1-.11-.14l2.54-2.59a1.43,1.43,0,0,0-.36.06c.19-.67,1-.8,1.3-1.38l-.12-.12c1.08-1,2.62-1.39,3.73-2.39a.85.85,0,0,0,.19-.3c-.2-.28-.4-.55-2.23.57,0-.11,0-.26,0-.37-.15.1-.29.22-.43.32h0c-.76.44-1.4,1-2.15,1.51,0-.18,0-.32,1.59-1.32a6.28,6.28,0,0,0,1-.79l-.14-.1c-.37.21-.73.44-1.11.64l-.16.07c0-.08.2-.23.37-.37l-.43.07-.3,0c-.17,0-.3,0-1.57.56.3-.46,2.2-.86,2.38-.88l.17,0h0a5.79,5.79,0,0,0,1.63-.69l.21-.12.1-.12a2.45,2.45,0,0,0,.08-.39l.53-.3-.17,0c.2-.1.42-.17.63-.26-.16-.08-.16-.08-.5,0a10.07,10.07,0,0,1,1.07-.45l0-.05-1.38.4-.14-.1a9.26,9.26,0,0,0-1.23.41l-.11,0,.13-.12,0-.06h0c-.36.15-.7.34-1.08.47a2,2,0,0,1,.55-.36l-.73.26c-.71.3-1.36.62-2,.95.61-.32,1.22-.64,1.83-.93l-.12,0c-.22.09-1.25.53-1.49.67S639.69,639.2,639.61,639.19Z" transform="translate(-475 -282.55)"/><path class="cls-6" d="M606.54,660.27c1.22-1.31,2.39-2.67,3.66-3.93l-.52.52c-.66.64-1.29,1.27-1.84,1.85l-1.52,1.68-.23.27c-.37.43-.51.59-.84,1,0-.07.14-.16.2-.23C605.82,661.05,606.18,660.66,606.54,660.27Z" transform="translate(-475 -282.55)"/><path class="cls-6" d="M610.22,656.33h0Z" transform="translate(-475 -282.55)"/><path class="cls-6" d="M644.42,637.66h.06l0,0a1.76,1.76,0,0,0,.55-.15l.31-.11h.06l.29-.14h0a.92.92,0,0,0-.18,0c-.17,0-.32.14-.5.19a1,1,0,0,1,.15-.1l-.17.06.11-.06,0,0h-.06l-.2.1h-.07l-.15.06v0h0a.27.27,0,0,1-.1.06c-.1.07-.12.08-.13.1Z" transform="translate(-475 -282.55)"/><path class="cls-6" d="M661.8,638.38c.14.32.21.46.35.55a2,2,0,0,0,.58.17,3.66,3.66,0,0,1,.51.21,1.24,1.24,0,0,0,.59,0l.34-.05c-.1-.15-.24-.28-.34-.42v-.63a.36.36,0,0,0,0-.2V638h-.1a.37.37,0,0,0-.33.16.26.26,0,0,1-.2.11c-.33,0-.53-.3-.86-.29l0,.06c0,.21-.08.27-.28.31s-.22-.16-.32-.26l-.2,0a1.75,1.75,0,0,0,.17.4S661.79,638.41,661.8,638.38Z" transform="translate(-475 -282.55)"/><path class="cls-6" d="M660.22,639.9c.41,0,.71.17.75.47,0,0,0,.26-.59.53,0,0,0,0,0,.06s0,0,.09,0h0l0,.06.89-.08c-.34.35-.4.54-.24.91a3.74,3.74,0,0,0,.58,0c0,.15-.12.3-.74.29a2.61,2.61,0,0,0,.78,1.05c.6-.16.74-.42.72-1.34,0-.68,0-.82.29-1a3.57,3.57,0,0,1,.73,1.05.7.7,0,0,0,.18.28.69.69,0,0,0,.24,0,.34.34,0,0,0,.37-.34,1.7,1.7,0,0,0-.06-.51,2,2,0,0,0-.31-.77c-.22-.28-.56-.38-1.16-.56a.3.3,0,0,1-.1,0c-.29-.24-.33-.67-.65-.9a1.21,1.21,0,0,0-.62-.21c-.25,0-.27-.06-.34-.26l-.1,0-.67.18c0,.11,0,.24.1.35l-.21-.14c-.17.19-.23.44-.42.62a.47.47,0,0,1-.32.1C659.43,639.93,659.43,639.93,660.22,639.9Z" transform="translate(-475 -282.55)"/><path class="cls-6" d="M657.3,670.21a1,1,0,0,0-.34.14l.69-.06A.47.47,0,0,0,657.3,670.21Z" transform="translate(-475 -282.55)"/><path class="cls-6" d="M640.2,666.42l1.7-.18a6.62,6.62,0,0,0,1.51-.8c.08-.06.1-.09.17-.35s.07-.28.66-.65a.89.89,0,0,1,.78-.12c.1,0,.14.07.23,0s.08-.05.37-.45l.11-.4.41-1.19c-.41-.9-.52-1-1.53-1.55-.12,0-.12,0-.46.4-.07.07-.07.07-.55.22a6.39,6.39,0,0,1-1.05.42c-.27,0-.45-.2-.71-.2-.47,0-.84.35-1.32.33-.07,0-.07,0-.65-.22s-.48-.18-.49-.2c-.13-.23-.19-.33-.34-.32h0c-.21.06-.31.15-.64.68-.08.14-.08.14-.77.63-.51.61-.37.88.44.82.3,0,.33.23.32.24s.31,0,.37.14-.1.14-.5.25c-1.9.52-.88.85-.8.84.31-.06.58-.32.93-.22l.07.76a9.15,9.15,0,0,1-.49,1.05c.1.16.1.16,1.59-.58.32-.16.36,0,.35.21S639.88,666.43,640.2,666.42Z" transform="translate(-475 -282.55)"/><path class="cls-6" d="M595.94,725.09c-.1.19-.43.77.27,2.28.08.19.24.54.94.35.45-.12.82-.43,1.26-.58s.78-.17,1.15-.31l.13-.06a.41.41,0,0,0,.26-.35C599.91,725.67,597.72,724,595.94,725.09Z" transform="translate(-475 -282.55)"/><path class="cls-6" d="M601.19,729.3c0,.16-.15.6.76.58a4.34,4.34,0,0,0,1.33-.27.33.33,0,0,0,.11-.09c.2-.2.15-.52.35-.72a2.35,2.35,0,0,1,.48-.31,2,2,0,0,0,.59-.43c.07-.16-.16-.4-.35-.5l-.15-.06-.16-.06c-.16,0-.34,0-.5-.08-.32-.1-.54-.48-.94-.36l-.09,0-.08.09c-.15.17-.22.39-.37.56s-.51.33-.67.6a1,1,0,0,0-.08.14c0,.06,0,.11,0,.16s0,.21,0,.3S601.22,729.17,601.19,729.3Z" transform="translate(-475 -282.55)"/><path class="cls-6" d="M709.49,724.75c-.2,0-.2,0-1,.48-1.78-1.15-1.78-1.15-3.94-4.49a2.35,2.35,0,0,0,.05-1c-2.39-1-1.44-3.91-3.05-5.38-.73-1-.56-2.21-1.12-3.22,0,0-2.69-5.21-3.11-5.8-.32-.42-1.07-.43-1.43-.43h-.26a1.25,1.25,0,0,0-.53.41c-1.51.07-1.51.07-8.33-1.8l-.5.51c-.3-.07-.3-.07-1.41.64-.17.79.3,1.68-.4,2.38-1.9-.78-1.9-.78-2-.75l-.18,0c-3-1.3-3-1.3-4.21-1.46l-.21,0h-.11l-.54-.18a4,4,0,0,0-2.26-2.51c-1.16-.69.17-2-.77-2.8-.26-.21-.26-.21-3.68,0-2.13.58-4.57.05-6.55,1.22a4.55,4.55,0,0,0-1,.73c-1.88,1.9-2,1.8-3.5.86-1.23-.79-1.23-.79-3.45.85a1,1,0,0,0-.21.82l-9.07,13.13a2.39,2.39,0,0,0-.69,2.06c0,1.28,1,2.25,1.19,3.47.24,1.57-1.1,3.1-.11,4.68.37.6.37.6,10,6.52a1.68,1.68,0,0,0,1.71-.16l0,0s2.67-1.4,4.09-.43a8.58,8.58,0,0,0,1.06-.41c1.58-.71,3-1.74,4.84-1.9.2,0,.2,0,2.18,1.63l.36,0a1.34,1.34,0,0,1-.27.07c1,.48,2.4-.3,3.25.83a2.73,2.73,0,0,1,.5,1.41c-.1.62-.81.86-1,1.45.15,1,.34,1.29,1.49,1.82,1.35.63,2.89,3.84,2.73,4.87s1.5,1.84.49,2.61c-1.57,1.19-1.83,4.3-1.83,4.32.16.57.94.49,1.14,1a1.46,1.46,0,0,1,.1.47v.2c0,.16.14.37.17.53.13.66.9,1.12.61,1.91a1.67,1.67,0,0,0-.16.91l1.4,3c0,.24-.1.47-.07.72l.21.12c-.16.39-.16.39.71,1.69-.51,1.4-.51,1.4.25,1.6a5.28,5.28,0,0,0,.28.79.88.88,0,0,0,.28,0c.7-.12,1.1-.81,1.79-.94.48-.09.77.49,1.27.37.14,0,1.49-.62,1.65-.71a9,9,0,0,0,3.85-3.58,22.62,22.62,0,0,0,1.47-2.09c.18-.95,1.16-.8,1.72-1.22,1.7-1.28,1.22-3.94,3.28-5,.31-.95,1.48-.62,2-1.28h0c.46-.32.95-.74.95-.74a2.25,2.25,0,0,0,.12-.21c.43-.77.27-1.69.71-2.46s1.32-.88,1.59-1.67c-1.52-1.21-2.45-1.94-.51-5.21a4.83,4.83,0,0,1,1.67-1.62,10.72,10.72,0,0,0,1.75-1.61c.73-.65.94-1.8,2.06-2.07a8.12,8.12,0,0,0,2.13-1.79h.19a2.63,2.63,0,0,1,.09-.3c.13-.14.2-.23.21-.23l-.13,0c.84-2.25,3.26-3.49,4.06-5.77a2.56,2.56,0,0,0,0-.39C713.21,723.94,713.21,723.94,709.49,724.75Z" transform="translate(-475 -282.55)"/><path class="cls-6" d="M725.15,753.81v0l0,0Z" transform="translate(-475 -282.55)"/><path class="cls-6" d="M724.88,754a7.8,7.8,0,0,0-.61.68l.08-.16-.13.11c-.76.81-1.47,1.65-2.19,2.49-1.07,1.26-2.12,2.53-3.23,3.76-.16.18-.32.35-.49.52l-.36.36-.09.08c-.55.53-1.11,1-1.67,1.56s-1.15,1.08-1.68,1.67l0,0s.44-.3,1-.79a3.57,3.57,0,0,1-.56.55l.2-.17.29-.25v0h0l2-1.93c.91-.87,1.82-1.77,2.56-2.55l0,0,.1-.11c.71-.82,1.53-1.77,2.34-2.73,0-.06.1-.11.15-.18l.09-.1c.83-1,1.64-1.95,2.32-2.82L725,754l.16-.2c-.23.3-.51.56-.75.85C724.53,754.43,724.72,754.22,724.88,754Zm-9.47,10.44,0,0Z" transform="translate(-475 -282.55)"/><path class="cls-6" d="M688,638.21c.48.16,1,.34,1.47.49Z" transform="translate(-475 -282.55)"/><path class="cls-6" d="M734.44,734.29s0,.06,0,.24c0,.37.14.29.17.23s.25-.73.26-.74a2.68,2.68,0,0,0-.37-.26C734.42,734.26,734.42,734.26,734.44,734.29Z" transform="translate(-475 -282.55)"/><path class="cls-6" d="M698.33,642.43h0Z" transform="translate(-475 -282.55)"/><path class="cls-6" d="M698.35,642.44h0Z" transform="translate(-475 -282.55)"/><path class="cls-6" d="M698.36,642.44l.38.21,1.23.65C699.44,643,699.37,643,698.36,642.44Z" transform="translate(-475 -282.55)"/><path class="cls-6" d="M730.21,746.15l-.28.49C730,746.46,730.12,746.29,730.21,746.15Z" transform="translate(-475 -282.55)"/><path class="cls-6" d="M732.7,740.38s0,0,.54-1.49c0,0,0,0,0-.06h-.07c-.17-.86.6-1.43.73-2.19-.07,0-.07,0-.25.14,0-.2.11-.38.14-.58l-.11.11c0-.33.12-.64.11-1l-.1,0c.12-.63.18-1.26.29-1.89,0-.18.11-.93.11-.94,0-.22-.13-.4-.11-.61.06-.62.29-1.2.33-1.82,0-.18,0-.21,0-.24h-.06a2.76,2.76,0,0,0-.47.65c-.18.46-.16,1-.37,1.43a5.94,5.94,0,0,0-.37.87c0,.08,0,.17-.07.24a27.36,27.36,0,0,0-.49,3.37c-.16.54-.41,1.05-.53,1.61a5.18,5.18,0,0,1-.12.88c-.25.72-.71,1.34-.95,2.06a.41.41,0,0,0,.13-.1s0,0,0,.07c.34-.43.44-1,.81-1.42,0,0-.39,2.08-.39,2.09s-.82,3-.84,3,0,0,.25-.28c0,.18-.06.33-.1.47a4.37,4.37,0,0,1-.52,1.31l.52-.94c.28-.61.62-1.19.91-1.79l-.1.13c.12-.38.31-.75.43-1.13,0-.12.06-.24.08-.37a2.39,2.39,0,0,0-.22.23c-.13-.27.34-1.41.44-1.54S732.62,740.56,732.7,740.38Z" transform="translate(-475 -282.55)"/><path class="cls-6" d="M730.7,745.28h0c.13-.22.26-.44.38-.68v0a0,0,0,0,1,0,0l-.35.61a.15.15,0,0,1,0,.07Z" transform="translate(-475 -282.55)"/><path class="cls-6" d="M687.94,638.18l-.05,0,.15.05Z" transform="translate(-475 -282.55)"/><path class="cls-6" d="M695.71,652.62s.67.24.76,0-.06-.26-.12-.35c-.28-.37-1-1-1.3-.94-.08,0-.09.08-.07.19a.23.23,0,0,1-.07-.1A6.64,6.64,0,0,0,695.71,652.62Z" transform="translate(-475 -282.55)"/><path class="cls-6" d="M690.09,641.08l.06.55c-.94.07-.94.07-1.07.17a13.37,13.37,0,0,0,.8,1.43l-.31.26c.2.46.88.39,1,.9a8.77,8.77,0,0,0,.39.9,3.74,3.74,0,0,0,.56.5,2.35,2.35,0,0,1,.9,1.1c-.13.15-.31.06-.47.1l0,0c.27.41.78.48,1.1.8a.11.11,0,0,1,0,.06,1.27,1.27,0,0,0-.18.06c-.27.86.31,1.18.7,1.39l.86.45c.41.19.88.21,1.28.42a12.45,12.45,0,0,0,1.56.85,3.28,3.28,0,0,0,1.42.1s0-.06,0-.08a2.17,2.17,0,0,0-.57-.47,20.83,20.83,0,0,1-3.65-3.2l-.17-.22c-.26-.44-.21-.54-.09-.77a.08.08,0,0,0,0-.08c-.27-.44-.8-.64-1.07-1.1a.41.41,0,0,1,0-.2c0-.34,0-.34-.62-1.26.3-.1.58.12.87.06l-1.27-1.1c-.11-.07-.11-.07-.12-.14.22,0,.43.09.65,0-.12-.1-.28-.15-.37-.29s.12-.12.15-.21c-.17-.21-.37-.39-.54-.6a5.87,5.87,0,0,0-2-.94c-.16.09-.32,0-.49,0C689.62,640.8,689.92,640.85,690.09,641.08Z" transform="translate(-475 -282.55)"/><path class="cls-6" d="M729.74,728.56v0c.13-.39.24-.8.32-1.09.23-.83.17-1,0-1a2.08,2.08,0,0,0-.87,1.14.84.84,0,0,0,0,.17,7.09,7.09,0,0,0-.29,1.83c0,.14,0,.27.06.31.28.14.58-.57.82-1.31C729.73,728.59,729.73,728.57,729.74,728.56Z" transform="translate(-475 -282.55)"/><path class="cls-6" d="M735.42,734.82c-.2.46-.2.46-.29.53l0,.07a4.77,4.77,0,0,0-.28.67,3,3,0,0,1-.33.54,2.46,2.46,0,0,0-.38.62c-.4.93-.73,1.91-1.06,2.87-.2.56-.4,1.13-.63,1.69a.83.83,0,0,0,.17-.21.43.43,0,0,0,0,.12l1.21-2.54c.51-1.14,1.12-2.69,1.59-3.86l.79-2.28c-.16.43-.34.88-.5,1.25S735.42,734.82,735.42,734.82Z" transform="translate(-475 -282.55)"/><path class="cls-6" d="M738.92,721.38h0a5.88,5.88,0,0,0,.37-1.89,17.52,17.52,0,0,0-.37,1.89Z" transform="translate(-475 -282.55)"/><path class="cls-6" d="M736.14,733v0c.36-1,.65-1.9.66-1.92l0-.09h0Z" transform="translate(-475 -282.55)"/><path class="cls-6" d="M739.83,702.79c-1.05-8.12-1.05-8.12-2.08-12.09-2.31-7.63-2.31-7.63-3.92-11.31-1.16-2.34-2.69-5.45-4-7.71L728.21,669c-4.48-6.34-4.48-6.34-7.14-9.3-5.27-5.44-5.38-5.55-8.49-8.09l-1.68-1.27a59.52,59.52,0,0,0-8-5.46l-4.14-2.24c-1.06-.55-1.89-1-3.37-1.62.91.42,1.29.62,1.54.74.91.51,1.88.92,2.75,1.5l-.71-.36c-.19-.08-.36-.17-.54-.26h0l-.59-.23a17.46,17.46,0,0,0,1.7,1.08c.39.23.39.23,2.55,1.64,1.21.85,1.21.85,1.37,1.17a1.2,1.2,0,0,1-.38,0l-.06.16c1.28,1.31,3.24,1.69,4.4,3.16a14.73,14.73,0,0,1-2.45-1.35c-.48-.32-.48-.32-.73-.32l-.06.19,1.11,1c-1.16-.58-1.74-2-3.17-2.19.7.72,1.79,1,2.28,2a1.09,1.09,0,0,1,0,.17l.7.79.93.6c2.41,2.67,2.85,3.15,3.28,3l.12.14a1.09,1.09,0,0,0,0-.17,1.36,1.36,0,0,1,1,.68c-.21,0-.21,0-.54-.11l-.06,0,0,.19c.57.71,1.48,1,2,1.84l-.39,0,.42.5c.18.25.41.46.59.71l-.16.11c0,.22,0,.22.08.62l-.41,0a1.88,1.88,0,0,0-.53,0l-.16-.08c1.93,2.57,3.31,3.44,4.79,5.62-1.48-2.18-2.89-3.06-4.9-5.69-.2,0-.81-.35-.57-.72.36,0,.65.43,1,.16a1.94,1.94,0,0,0-.38-.76c-.08-.34-.22-1-2.15-2.69l-.76-.74c-.53-.4-.88-1-1.4-1.4-.68-.52-1.23-1.16-1.89-1.69-.5-.34-.73-.91-1.18-1.3l-1-.86c-1-.54-1.8-1.47-3-1.68h-.14a.22.22,0,0,0,0,.14l0,.06a13.5,13.5,0,0,0,2.23,2.13,2.51,2.51,0,0,0,0,.27,2.51,2.51,0,0,1,.64.74l-.24.15s2,3.12,4.62,3.89a.94.94,0,0,1,.82,1h0c-.38-.2-.69-.49-1.06-.71h-.08l-1.15-.54-.21-.06c-1.91-.72-3.69-1.74-5.59-2.5l0,0h0c.92,1.25,2.47,1.7,3.53,2.73-.19,0-.19,0-1.92-1.06a3.19,3.19,0,0,0,.43.65c0,.08-.07.2-.1.28l-.12.06c-.19-.11-.19-.11-1.06-.68a6.82,6.82,0,0,0-.1,1.35l-.11.08c-.62-.32-.92-1.19-1.82-1-.57.91-.57.91-.7.95-.1.3-.35.53-.46.82.23.48.21.51,0,.85.18.32.18.32.63,1-2-.09-2.11-.89-2.19-1.42.22,0,.52-.08.74-.1a2.51,2.51,0,0,0,0-.27c-1.63-1.46-2.11-1.37-2.91-1.22a2.42,2.42,0,0,0,.27.5c0,.08,0,.19,0,.28l.23.22c-.14.47-.14.47.94,1.49.59.43.59.44.75.79-1.8.87-1.8.87-1.87,1.06-.31.89.73,1.26.78,2-.47.15-.47.15-1.55-.45l-.76-.4a3.89,3.89,0,0,0-.91-.28l-.22,0c-.1.44.14.84.14,1.27-.31-.08-.31-.08-1.28-.88-.68-.37-.55-.61-.32-1-.1-.24-.1-.24-2.57-1.68.06-.06.14-.13.19-.19.94.24,1.63,1.29,2.77.79,1.84.79,1.84.79,2.55.86.2-.23.34-.51.52-.75.31-.72.31-.72,0-1.58s-.43-.76-4-2.33c-1.29-.56-4.48-1.72-4.51-1.73-.8-.27-1.42.4-2.19.37-.16-.35-.16-.35.14-.82l.67-.15c0-.09,0-.2.08-.29a12,12,0,0,0-3.94-1l-.09,0h0c-1.62-.39-1.62-.39-3.12.94l-.19.1h0c-.6.25-2.19,1.13-2.19,1.13l0,0h0c-.94.45-1.59,1.33-2.63,1.63h0c-.15.42.1.83,0,1.24l0,0h0c-1.1.16-1.1.16-1.21.65a1,1,0,0,0-.11.54l.28.07.49,0c.64-.06.86-.88,1.56-.81a1.88,1.88,0,0,0,.34.77c-.41.47-1.06.48-1.56.77a4.51,4.51,0,0,1-1.88,3c0,.66.46,1.3.09,2-2.09.36-3.19,1.86-3.11,2.41-.37.42-1,.2-1.38.44a10.15,10.15,0,0,0-.28,2l.74,2.85a3,3,0,0,1,.35.64,14.16,14.16,0,0,0,1.39,1.4c.2.08,1.35.43,1.94,0a.37.37,0,0,0,.18-.24c.55-1.4,1.2-1.53,1.89-1.67s.85.86,1.31,1.25c-.1.25-.1.25-.09.32s.16.07.42.73c.13.17.1.42.26.58,1,1.05,1,1.05,1.11,1.49s.12.5,1.54,1h0a1.18,1.18,0,0,0,.23-.61c0-.31,0-.35.83-.56,1.45-.39,1.6-.44,1.66-.55a3.06,3.06,0,0,0,0-1.5c-.06-.18,0-.38-.12-.55s-.62-.29-.67-.68c-.09-.65.14-.63.52-.58s.52,0,.56-.29a3.93,3.93,0,0,1,.54-1c-3.11.15-6.32.34-9.61.57,3.29-.23,6.5-.42,9.62-.59.43-.58.43-.58.45-.83-.66-.57-.66-.57-2.27-1,0-.2-.09-.4-.14-.61s-.33-.54-.49-.81c.16-.28.45-.43.61-.7l-.17-.25.29-.24.1-.5.11-.4c0-.07,0-.18.06-.25l.29,0c.33-.43.33-.43.62-.54,0-.66.07-.69.61-.88.35-.88.35-.88.06-2.21,1.53-1.26,2.93-.79,2.7.46s-1.64,1.78-2.23,2.84c0,0,.8,2.82.91,3.79l.53.09a2.26,2.26,0,0,0,1.12.64h.18a4.75,4.75,0,0,1,1.53.47c1.49.22,3.66-2,4.47-.11a2.76,2.76,0,0,1-1.19.71l-2.33.09a5.74,5.74,0,0,0-1.71.08c-.39.18-.81.3-1.2.47-.13,1.81,3,.94,2.76,2.74a7.13,7.13,0,0,0-2-1c-.16.57-.16.57-1.21,1a8.5,8.5,0,0,1,.15.88l.25.46c.06.55.15,1.1.18,1.66l-1.09.31c0,.15,0,.34-.08.48l-.41.18a6.23,6.23,0,0,0-1.48-.69c-.71.61-1.66.84-2.38,1.44-2-.17-3-2.45-5.21-2.17l-.18,0c-1.89-.41-1.89-.41-2.17.28l.34.38a2.3,2.3,0,0,1-.53.78l.07.11.06.06a1.5,1.5,0,0,1,.28.75c-.6.32-.6.32-1.81,0a2.5,2.5,0,0,0-1.92.55,15.39,15.39,0,0,0,.2,1.94c-.6.68-.8,1.61-1.49,2.24h-.17l-.86.06c-.12.19-.29.43-.42.62a6.29,6.29,0,0,0,.65.46c-1.31,1-1.31,1-1.85,1.11-.05.11-.1.25-.15.36l-.4.1-.93-.66c-1.08-.23-1.05.35-1,1.21-1.13,0-1.13,0-1.42.53-1-.25-1-.25-1.37.12.05.28.05.28.93,1.47a4.15,4.15,0,0,0,.79-.07c2.18,1.54,2.18,1.54,2.72,4.29-.42.36-.61.89-1,1.27l-.41-.07s-5.18-1.63-6.75.78c.71,2.19.19,4.49.61,6.71a1.54,1.54,0,0,0,.61.63c.79.31,1.13-.78,1.89-.59s.83,1,1.3,1.39l.21.06h.05a20.69,20.69,0,0,0,2-.76h.17a4,4,0,0,0,3.31-2.23c-.22-2.35-.22-2.35.12-2.9h.39l.15.18h.09a.9.9,0,0,0,.64-.38l.34-.37c.82-.66,1.6-1.42,1.6-1.43l.15-.24c.14-.55,0-1.11.08-1.66,3.47.3,3.47.3,3.84-.06l.27-.18h.07l.25-.28c0-.11,0-.26,0-.37l.31-.22h.06c0-.1.08-.25.11-.35l.52-.18c1.85,1.22,1.85,1.22,1.89,1.41.43.23.43.23.65,1a1.18,1.18,0,0,0,.72,0,4.71,4.71,0,0,1,.74.74l.68.49.44.28.47.11.31.19.43.14c1.78.56,1.78.56,2.33,1.72a2.37,2.37,0,0,1-.93.65,20.28,20.28,0,0,0-3.28.57v.38c1.55.75,1.55.75,1.89.64a2.07,2.07,0,0,0,1.56.62,1.45,1.45,0,0,0,.3-.61c0-.13,0-.31-.05-.44,1.73-1.69,1.73-1.69,1.53-2.8l-.23-.29,0-.14.13-.12c.67.17,1.21.71,2,.61l0-.17-.07-.25-.21-.32,0-.21,0-.36-.1-.18-.18-.08-.38.15c-.85-.41-2-.89-2-.89l-1-.2-.71-.32c-.1-.47-.16-.72-1.32-1.59,0-.13,0-.3-.05-.43-.91,0-.91,0-1.16-.18,0-.46,0-.46.39-1.1a1.71,1.71,0,0,1,.74.14l.27.05c1,1.14,2.59,1.6,3.67,2.68,1.41.34,1.41.34,2.75,2.53a2.66,2.66,0,0,1,.13.67c.34.58.4.61.82.81l.29-.23c.79.84,1,2,1.57,2.93a12.77,12.77,0,0,1,2-.86c0-.11.09-.26.13-.37a9.26,9.26,0,0,0,1.29-.65,3.59,3.59,0,0,0-.73-.61c0-.11,0-.27,0-.39l-.87-.69.31-.21c.26.09.6.24.84.34,1-.87,2.75-2.49,2.89-.22a2.55,2.55,0,0,0,.08.74c-.68.1-.93.14-1.34,1.19,1,1.36,2.81,1.35,4.09,2.25.52-.2.81-.72,1.32-1,1,.51,1,.55,1.19,1.07-.19.2-.44.47-.62.68,0,.11,0,.26,0,.37,1.22.67,1.41.32,1.85-.54-.19-.32-.53-.5-.7-.84,1.11-1.59,1.77-1,2.16-.69-.32,5.62-1.29,5.83-2.75,6.15a3.88,3.88,0,0,1-.15.36s4,5.2,4.74,6.31c0,.13-.18.31-.13.43.56,1.3,1.84,2.24,1.93,3.77.09.13.09.13,1,.92-.09,1.35-.1,1.55.89,1.86a5.74,5.74,0,0,0,.36.84c.07.1.18.22.25.31a1,1,0,0,1,0,.81c-.54,1.53.82,1.88,2.55,2.33h0c.92-.27,1.75-.78,2.65-1.1h.06a4.58,4.58,0,0,0,.69-.37l.17,0h0c2.72-.61,6.57-9.19,6.57-9.27-.53-.12-.53-.12-1.86-1.26a4.86,4.86,0,0,0-.58.53c-.52,0-.52,0-1.06.46-.89-.06-.89-.06-1.95-2.1-1.28-.36-2.38-3.35-2.38-3.38.41-.09.84-.14,1.25-.24a4.05,4.05,0,0,1,.67,1.18c.18.33.46.76.67,1.06l.31.23.44.33c.05,0,5.73,2.78,5.85,2.7l4.07.71c.93.53.56,1.76,1.34,2.38a3.88,3.88,0,0,1-.07.83c0-.1.11.17.15.24.22.29.31.68.66.87.35-.12.35-.12.77-.7.46.92.36,5.48.34,5.7A22.26,22.26,0,0,0,728,724c.26,1.08-.29,2.31.61,3.27.87-.41.93-.56,1.12-1a4.43,4.43,0,0,0,.25-.71l.36-.47c.05-.23.11-.47.16-.7l.16-.3a3.58,3.58,0,0,0,.36-1.72c.44-1.36.44-1.36.71-1.7l.31-.31a2.71,2.71,0,0,1,.57-.44c0-.11,0-.22.05-.32a33,33,0,0,0,2.29-3.64l.36-.06a4.37,4.37,0,0,1,.14.79l.78-.21c.06.13.06.13,0,5.41.48-.24.48-.24.7-1.25.11.33.11.33-1,6.25a37.47,37.47,0,0,0-1.3,6.59.79.79,0,0,0,.31.56c.6-1.77.6-1.77.9-2.79l-.09-.22c-.13-1.17.23-2.38,1.29-6,.35.77-.16,3.08-.18,3.17v0a4.78,4.78,0,0,0-.24,1.15,10,10,0,0,0,.52-1c1.1-2.35,1.14-4.95,1.52-7.47a1.5,1.5,0,0,0,0-.2,14.79,14.79,0,0,1,.72-2.86,3.21,3.21,0,0,1,0,.76,3.44,3.44,0,0,1,.21-.76l0-.13C740.18,710.32,740.26,709.18,739.83,702.79Z" transform="translate(-475 -282.55)"/><path class="cls-6" d="M695.33,641h0l-.08,0Z" transform="translate(-475 -282.55)"/><path class="cls-6" d="M706.58,742.56c-.05,0-.1.05-.15.07a3.71,3.71,0,0,0-.43.45c-.21.22-.44.53-.91,1.15-1.2,1.6-1.72,2.27-2,2.53-.1.09-.13.08-.17.06s-.15-.5-.42-.43l-.06,0a.27.27,0,0,0-.07.08h0c-.1.06-.11.18-.17.28-.32.2-.76.15-1,.45a.49.49,0,0,0-.13.12,4.65,4.65,0,0,0-.75,2.29,3.28,3.28,0,0,1-.09.89,1,1,0,0,1-.32.39c-.19.14-.39.25-.56.4a1.52,1.52,0,0,0-.34.33l-1.1,3.62c.14.15.5.52,1.83-.47a14,14,0,0,0,1.64-1.45,21.15,21.15,0,0,0,2.31-3.84,16.23,16.23,0,0,1,.9-1.36c.09-.07.24-.16.32-.21a1.16,1.16,0,0,0,.38-.28c.15-.12.2-.26.32-.71a6.6,6.6,0,0,1,.27-.82.16.16,0,0,1,.1,0h.11a.41.41,0,0,1,.05-.09h0c.4-.66.57-1.43,1-2.08C707.34,743.61,706.83,742.54,706.58,742.56Z" transform="translate(-475 -282.55)"/><rect class="cls-9" x="353.17" y="475.96" width="291.3" height="120.74"/><rect class="cls-9" x="353.17" y="475.96" width="291.3" height="41.55"/><rect class="cls-9" x="322.72" y="462.01" width="352.22" height="40.63"/><rect class="cls-9" x="404.07" y="572.07" width="189.52" height="24.63"/><polygon class="cls-9" points="645.03 596.7 421.39 596.7 324.29 462.01 675.5 462.01 675.5 502.64 645.03 502.64 645.03 596.7"/><path class="cls-9" d="M650.3,675.16h0a17.5,17.5,0,0,0-15.15,26.26l15.15,26.26,15.16-26.26a17.5,17.5,0,0,0-15.16-26.26Zm0,21.88h0a4.38,4.38,0,0,1,0-8.75h0a4.38,4.38,0,1,1,0,8.75Z" transform="translate(-475 -282.55)"/><path class="cls-6" d="M655.57,692.21a5.27,5.27,0,1,1-5.27-5.27A5.27,5.27,0,0,1,655.57,692.21Z" transform="translate(-475 -282.55)"/><path class="cls-5" d="M210.14,500.61h381.8a19.54,19.54,0,0,1,19.54,19.54V727.92a19.54,19.54,0,0,1-19.54,19.54H210.14a19.53,19.53,0,0,1-19.53-19.53V520.15A19.54,19.54,0,0,1,210.14,500.61Z"/><path class="cls-12" d="M1067,783.16H685.17a19.58,19.58,0,0,0-19.53,19.53V1012a19.59,19.59,0,0,0,19.53,19.54H1067a19.59,19.59,0,0,0,19.53-19.54V802.69A19.58,19.58,0,0,0,1067,783.16Zm1.34,228.83a1.39,1.39,0,0,1-1.34,1.34H685.17a1.39,1.39,0,0,1-1.34-1.34V802.69a1.4,1.4,0,0,1,1.34-1.34H1067a1.4,1.4,0,0,1,1.34,1.34Z" transform="translate(-475 -282.55)"/><path class="cls-13" d="M625.23,1029.5a16.74,16.74,0,0,0-.8,5.13,17.05,17.05,0,0,0,17.05,17h469.16a17.05,17.05,0,0,0,17-17,16.74,16.74,0,0,0-.8-5.13Z" transform="translate(-475 -282.55)"/><path class="cls-6" d="M937.47,1040.59a2.24,2.24,0,0,1-2.24,2.24H824.39a2.24,2.24,0,0,1-2.25-2.24h0a2.25,2.25,0,0,1,2.25-2.25H935.23a2.25,2.25,0,0,1,2.24,2.25Z" transform="translate(-475 -282.55)"/><path class="cls-8" d="M822.44,667.76a50.35,50.35,0,1,0-83.69,38.42h-.37a44.65,44.65,0,0,1,10.76,28.19l47.21-.64a44.63,44.63,0,0,1,9.73-28.16A50.21,50.21,0,0,0,822.44,667.76Z" transform="translate(-475 -282.55)"/><path class="cls-6" d="M745.29,665.16a1.6,1.6,0,0,0-2.45-.32,2.2,2.2,0,0,0-.28,2.81,13.77,13.77,0,0,0,1,1.3l18.62,65.19a1.78,1.78,0,0,0,1.66,1.38,1.47,1.47,0,0,0,.54-.1,2.06,2.06,0,0,0,1.11-2.53l-17.19-60.23c4.17,2.33,9.39,3.4,13.65,1.85a10.44,10.44,0,0,0,2.52-1.33,12.23,12.23,0,0,0,7.33,2.49,12.59,12.59,0,0,0,8.51-3.27,18.12,18.12,0,0,0,4.41,1.91c4.89,1.42,9.2,1.08,12.8-.94l-17,59.52a2.09,2.09,0,0,0,1.11,2.53,1.58,1.58,0,0,0,.56.1,1.78,1.78,0,0,0,1.65-1.38l18.65-65.3c.16-.21.33-.39.48-.61a2.21,2.21,0,0,0-.29-2.81,1.6,1.6,0,0,0-2.45.33c-3.37,5-8.3,6.52-14.64,4.68a16.63,16.63,0,0,1-2.83-1.12,11.81,11.81,0,0,0,1.49-6.24c-.15-4.35-1.44-7.55-3.53-8.77a3.21,3.21,0,0,0-3.71.24c-1.84,1.41-2.73,4.6-2.46,8.77a10.84,10.84,0,0,0,2.78,6.62,9.56,9.56,0,0,1-10.22.37,14.61,14.61,0,0,0,2-7c.19-3.88-.86-7-2.79-8.42a3.44,3.44,0,0,0-4-.1c-2,1.29-3.06,4.36-3,8.45a12.57,12.57,0,0,0,2.4,7.15,8.38,8.38,0,0,1-.8.35C755.72,672.59,748.11,669.23,745.29,665.16ZM779,657.87s0,0,.07,0a.24.24,0,0,1,.12,0c.5.3,1.5,1.81,1.62,5.37a7.36,7.36,0,0,1-.93,3.88,6.66,6.66,0,0,1-1.79-4.12C777.86,659.91,778.5,658.24,779,657.87Zm-14.91.36a.34.34,0,0,1,.19-.07.48.48,0,0,1,.23.09c.49.36,1.29,1.76,1.14,4.79a10.28,10.28,0,0,1-1.21,4.74,8.22,8.22,0,0,1-1.59-4.66C762.78,659.93,763.59,658.55,764.07,658.23Z" transform="translate(-475 -282.55)"/><path class="cls-4" d="M795.05,732.48l-45,.61a2.28,2.28,0,0,0-2.25,2.32l.23,17.16a2.29,2.29,0,0,0,2.32,2.25l8.26-.11,4.37,7.34,19.95-.27,4.17-7.46,8.26-.12a2.29,2.29,0,0,0,2.26-2.31l-.24-17.15A2.29,2.29,0,0,0,795.05,732.48Z" transform="translate(-475 -282.55)"/><rect class="cls-14" x="272.7" y="454.57" width="49.99" height="3.87"/><rect class="cls-14" x="272.7" y="464.26" width="49.99" height="3.87"/><path class="cls-4" d="M570.63,629a76.44,76.44,0,1,1,76.44-76.44A76.53,76.53,0,0,1,570.63,629Z" transform="translate(-475 -282.55)"/><path class="cls-6" d="M570.63,613.7a61.13,61.13,0,1,1,61.13-61.13A61.2,61.2,0,0,1,570.63,613.7Z" transform="translate(-475 -282.55)"/><path class="cls-4" d="M570.63,598.39a45.82,45.82,0,1,1,45.82-45.82A45.87,45.87,0,0,1,570.63,598.39Z" transform="translate(-475 -282.55)"/><path class="cls-15" d="M570.63,583.08a30.51,30.51,0,1,1,30.51-30.51A30.55,30.55,0,0,1,570.63,583.08Z" transform="translate(-475 -282.55)"/><path class="cls-4" d="M585.83,552.57a15.21,15.21,0,1,1-15.2-15.2A15.21,15.21,0,0,1,585.83,552.57Z" transform="translate(-475 -282.55)"/><polygon class="cls-8" points="163.63 204.94 184.6 208.65 204.44 189.57 182.75 187.11 163.63 204.94"/><polygon class="cls-16" points="176.38 192.03 198.45 195.43 197.72 196.2 175.23 193.06 176.38 192.03"/><polygon class="cls-16" points="169.01 198.96 191.36 202.29 190.19 203.07 167.86 199.99 169.01 198.96"/><polygon class="cls-8" points="160.8 202.55 157.09 181.58 176.17 161.74 178.63 183.43 160.8 202.55"/><polygon class="cls-16" points="173.71 189.8 170.31 167.73 169.55 168.46 172.69 190.95 173.71 189.8"/><polygon class="cls-16" points="166.78 197.16 163.45 174.82 162.68 175.99 165.75 198.32 166.78 197.16"/><path class="cls-17" d="M572.88,554.8h0A3.28,3.28,0,1,1,568.4,550h0l85.08-84.74,4.34,4.33Z" transform="translate(-475 -282.55)"/><path class="cls-18" d="M519.69,496c-2.1,1.68-2.26,2.18-5.06,4.62l53.07,53.2,2.43-2.71,2.21-1.93Z" transform="translate(-475 -282.55)"/><path class="cls-8" d="M520.19,948c0,4.07,2.87,7.37,6.35,7.37s6.31-3.3,6.35-7.37Z" transform="translate(-475 -282.55)"/><rect class="cls-14" x="45.18" y="536.43" width="12.71" height="124.63"/><rect class="cls-5" x="49.91" y="536.43" width="3.26" height="124.63"/><rect class="cls-6" x="45.18" y="657.7" width="12.71" height="7.81"/><polygon class="cls-6" points="48.97 519.04 45.15 536.45 57.93 536.45 54.11 519.04 48.97 519.04"/><polygon class="cls-14" points="54.12 519.14 51.53 507.34 48.96 519.14 54.12 519.14"/><path class="cls-14" d="M709.45,997.48h-168a16.58,16.58,0,0,1-16.56-16.57v-.59a16.58,16.58,0,0,1,16.56-16.56h168v-7.1h-168a23.7,23.7,0,0,0-23.67,23.66v.59a23.7,23.7,0,0,0,23.67,23.67h168Z" transform="translate(-475 -282.55)"/><path class="cls-6" d="M709.45,961.1H540.85c-9.8,0-17.74,8.74-17.74,19.52s7.94,19.52,17.74,19.52h168.6Z" transform="translate(-475 -282.55)"/><path class="cls-8" d="M709.45,1044.58h-168A16.58,16.58,0,0,1,524.88,1028v-.59a16.58,16.58,0,0,1,16.56-16.57h168v-7.09h-168a23.69,23.69,0,0,0-23.67,23.66v.59a23.69,23.69,0,0,0,23.67,23.66h168Z" transform="translate(-475 -282.55)"/><path class="cls-6" d="M709.45,1008.2H540.85c-9.8,0-17.74,8.74-17.74,19.52s7.94,19.53,17.74,19.53h168.6Z" transform="translate(-475 -282.55)"/><polygon class="cls-19" points="800 769.13 559.02 769.13 559.02 587.32 680.44 587.32 800 587.32 800 769.13"/><rect class="cls-20" x="564.97" y="748.18" width="229.18" height="15.41"/><path class="cls-3" d="M1172.75,863.94c-8,1.63-14.61,5.52-18.49,10.66v156l.47,8.8c1.55-2.55,3.54-7.41,11.46-8.8h102.7l.51-166.78Z" transform="translate(-475 -282.55)"/><path class="cls-6" d="M1136.27,863.94c8,1.63,14.61,5.52,18.49,10.66v164.73a27.81,27.81,0,0,0-11.93-8.69H1040.14l-.51-166.78Z" transform="translate(-475 -282.55)"/><path class="cls-21" d="M1136.62,864v166.62s10-.93,18,8.9l.14-164.94C1150.94,869.54,1144.43,865.69,1136.62,864Z" transform="translate(-475 -282.55)"/><rect class="cls-22" x="601.59" y="605.71" width="40.6" height="2.02"/><rect class="cls-22" x="594.92" y="613.06" width="61.1" height="2.02"/><rect class="cls-22" x="587.75" y="616.59" width="68.26" height="2.02"/><rect class="cls-22" x="587.75" y="620.13" width="68.26" height="2.02"/><rect class="cls-22" x="587.75" y="623.67" width="68.26" height="2.02"/><rect class="cls-22" x="587.75" y="627.21" width="68.26" height="2.02"/><rect class="cls-22" x="587.75" y="630.74" width="68.26" height="2.02"/><rect class="cls-22" x="587.75" y="634.28" width="68.26" height="2.02"/><rect class="cls-22" x="587.75" y="637.82" width="68.26" height="2.02"/><rect class="cls-22" x="587.75" y="641.35" width="34.13" height="2.02"/><rect class="cls-22" x="594.92" y="645.11" width="61.1" height="2.02"/><rect class="cls-22" x="587.75" y="648.64" width="68.26" height="2.02"/><rect class="cls-22" x="587.75" y="652.18" width="68.26" height="2.02"/><rect class="cls-22" x="587.75" y="655.72" width="68.26" height="2.02"/><rect class="cls-22" x="587.75" y="659.25" width="68.26" height="2.02"/><rect class="cls-22" x="587.75" y="662.79" width="68.26" height="2.02"/><rect class="cls-22" x="587.75" y="666.33" width="68.26" height="2.02"/><rect class="cls-22" x="587.75" y="669.86" width="68.26" height="2.02"/><rect class="cls-22" x="587.75" y="673.4" width="56.47" height="2.02"/><rect class="cls-22" x="594.92" y="677.15" width="61.1" height="2.02"/><rect class="cls-22" x="587.75" y="680.69" width="68.26" height="2.02"/><rect class="cls-22" x="587.75" y="684.23" width="68.26" height="2.02"/><rect class="cls-22" x="587.75" y="687.76" width="68.26" height="2.02"/><rect class="cls-22" x="587.75" y="691.3" width="68.26" height="2.02"/><rect class="cls-22" x="587.75" y="694.84" width="68.26" height="2.02"/><rect class="cls-22" x="587.75" y="701.91" width="68.26" height="2.02"/><rect class="cls-22" x="587.75" y="698.17" width="68.26" height="2.02"/><rect class="cls-22" x="587.75" y="701.71" width="68.26" height="2.02"/><rect class="cls-22" x="587.75" y="705.25" width="68.26" height="2.02"/><rect class="cls-22" x="587.75" y="708.78" width="68.26" height="2.02"/><rect class="cls-22" x="587.75" y="712.32" width="68.26" height="2.02"/><rect class="cls-22" x="587.75" y="715.86" width="68.26" height="2.02"/><rect class="cls-22" x="587.75" y="719.4" width="68.26" height="2.02"/><rect class="cls-22" x="716.84" y="605.71" width="40.59" height="2.02"/><rect class="cls-22" x="710.17" y="613.06" width="61.1" height="2.02"/><rect class="cls-22" x="703" y="616.59" width="68.27" height="2.02"/><rect class="cls-22" x="703" y="620.13" width="68.27" height="2.02"/><rect class="cls-22" x="703" y="623.67" width="68.27" height="2.02"/><rect class="cls-22" x="703" y="627.21" width="68.27" height="2.02"/><rect class="cls-22" x="703" y="630.74" width="68.27" height="2.02"/><rect class="cls-22" x="703" y="634.28" width="68.27" height="2.02"/><rect class="cls-22" x="703" y="637.82" width="68.27" height="2.02"/><rect class="cls-22" x="703" y="641.35" width="34.13" height="2.02"/><rect class="cls-22" x="710.17" y="645.11" width="61.1" height="2.02"/><rect class="cls-22" x="703" y="648.64" width="68.27" height="2.02"/><rect class="cls-22" x="703" y="652.18" width="68.27" height="2.02"/><rect class="cls-22" x="703" y="655.72" width="68.27" height="2.02"/><rect class="cls-22" x="703" y="659.25" width="68.27" height="2.02"/><rect class="cls-22" x="703" y="662.79" width="68.27" height="2.02"/><rect class="cls-22" x="703" y="666.33" width="68.27" height="2.02"/><rect class="cls-22" x="703" y="669.86" width="68.27" height="2.02"/><rect class="cls-22" x="703" y="673.4" width="56.47" height="2.02"/><rect class="cls-22" x="710.17" y="677.15" width="61.1" height="2.02"/><rect class="cls-22" x="703" y="680.69" width="68.27" height="2.02"/><rect class="cls-22" x="703" y="684.23" width="68.27" height="2.02"/><rect class="cls-22" x="703" y="687.76" width="68.27" height="2.02"/><rect class="cls-22" x="703" y="691.3" width="68.27" height="2.02"/><rect class="cls-22" x="703" y="694.84" width="68.27" height="2.02"/><rect class="cls-22" x="703" y="701.91" width="68.27" height="2.02"/><rect class="cls-22" x="703" y="698.17" width="68.27" height="2.02"/><rect class="cls-22" x="703" y="701.71" width="68.27" height="2.02"/><rect class="cls-22" x="703" y="705.25" width="68.27" height="2.02"/><rect class="cls-22" x="703" y="708.78" width="68.27" height="2.02"/><rect class="cls-22" x="703" y="712.32" width="68.27" height="2.02"/><rect class="cls-22" x="703" y="715.86" width="68.27" height="2.02"/><rect class="cls-22" x="703" y="719.4" width="68.27" height="2.02"/><path class="cls-8" d="M669.53,866.34H579.25v86.09a4.18,4.18,0,0,0,4.18,4.18h81.92a4.18,4.18,0,0,0,4.18-4.18Z" transform="translate(-475 -282.55)"/><path class="cls-5" d="M669.53,830.34a4.2,4.2,0,0,0-4.18-4.18H583.43a4.2,4.2,0,0,0-4.18,4.18v36h90.28Z" transform="translate(-475 -282.55)"/><path class="cls-4" d="M589.26,859.12a2.46,2.46,0,0,1-2.47-2.47v-20.8a2.46,2.46,0,0,1,2.47-2.46h70.88a2.49,2.49,0,0,1,1.75.72,2.46,2.46,0,0,1,.71,1.74v20.8a2.44,2.44,0,0,1-2.46,2.47Z" transform="translate(-475 -282.55)"/><path class="cls-14" d="M589.26,835.13a.75.75,0,0,0-.52.21.73.73,0,0,0-.21.51v20.8a.73.73,0,0,0,.21.52.76.76,0,0,0,.52.22h70.88a.73.73,0,0,0,.72-.74v-20.8a.72.72,0,0,0-.72-.72Z" transform="translate(-475 -282.55)"/><rect class="cls-23" x="104.25" y="582.06" width="90.28" height="1.74"/><rect class="cls-6" x="114.93" y="602.82" width="10.47" height="8.54"/><rect class="cls-6" x="134.41" y="602.82" width="10.47" height="8.54"/><rect class="cls-9" x="153.89" y="602.82" width="10.46" height="8.54"/><rect class="cls-4" x="173.38" y="602.82" width="10.47" height="8.54"/><rect class="cls-6" x="114.93" y="618.17" width="10.47" height="8.53"/><rect class="cls-6" x="134.41" y="618.17" width="10.47" height="8.53"/><rect class="cls-6" x="153.89" y="618.17" width="10.46" height="8.53"/><rect class="cls-6" x="173.38" y="618.17" width="10.47" height="8.53"/><rect class="cls-6" x="114.93" y="633.51" width="10.47" height="8.54"/><rect class="cls-6" x="134.41" y="633.51" width="10.47" height="8.54"/><rect class="cls-6" x="153.89" y="633.51" width="10.46" height="8.54"/><rect class="cls-6" x="114.93" y="648.86" width="10.47" height="8.54"/><rect class="cls-6" x="134.41" y="648.86" width="10.47" height="8.54"/><rect class="cls-6" x="153.89" y="648.86" width="10.46" height="8.54"/><rect class="cls-6" x="173.38" y="633.51" width="10.47" height="23.88"/><g id="plane_paper" data-name="plane paper"><polygon class="cls-6" points="457.93 122.24 503.19 0 400.72 85.97 457.93 122.24"/><polygon class="cls-6" points="372.14 80.83 503.19 0 330.33 78.56 372.14 80.83"/><polygon class="cls-4" points="385.73 112.31 400.72 85.97 503.19 0 372.14 80.83 385.73 112.31"/></g></g></g></svg>