<svg width="800" height="770" viewBox="0 0 800 770" fill="none" xmlns="http://www.w3.org/2000/svg">
<g clip-path="url(#clip0)">
<path d="M193.38 468.37H64.5601V674.95H193.38V468.37Z" fill="#B3B1B2"/>
<path d="M193.38 468.37H64.5601V674.95H193.38V468.37Z" fill="#F9F9F9"/>
<path d="M185.68 477.26C185.682 476.2 185.369 475.162 184.782 474.279C184.194 473.397 183.357 472.708 182.378 472.301C181.399 471.894 180.321 471.786 179.28 471.992C178.24 472.197 177.284 472.707 176.533 473.456C175.783 474.206 175.271 475.161 175.064 476.201C174.856 477.241 174.962 478.319 175.367 479.299C175.772 480.279 176.459 481.117 177.341 481.706C178.223 482.295 179.259 482.61 180.32 482.61C181.739 482.607 183.099 482.043 184.104 481.041C185.108 480.038 185.675 478.679 185.68 477.26Z" fill="#8A7659"/>
<path d="M181.12 476.62C179.5 476.62 178.26 475.62 178.26 474.37V469.45H179.75V474.39C179.75 474.75 180.33 475.15 181.12 475.15C181.91 475.15 182.48 474.75 182.48 474.39V469.45H184V474.39C184 475.64 182.72 476.62 181.12 476.62ZM178.26 469.45V464.45C178.26 463.19 179.5 462.2 181.12 462.2C182.74 462.2 183.98 463.2 183.98 464.45V469.45H182.48V464.45C182.48 464.09 181.89 463.7 181.12 463.7C180.33 463.7 179.75 464.09 179.75 464.45V469.45H178.26Z" fill="#8A7659"/>
<path d="M165.47 477.26C165.472 476.2 165.159 475.162 164.572 474.279C163.984 473.397 163.147 472.708 162.168 472.301C161.189 471.894 160.111 471.786 159.07 471.992C158.03 472.197 157.074 472.707 156.323 473.456C155.573 474.206 155.061 475.161 154.854 476.201C154.646 477.241 154.752 478.319 155.157 479.299C155.562 480.279 156.249 481.117 157.131 481.706C158.013 482.295 159.049 482.61 160.11 482.61C161.529 482.607 162.889 482.043 163.894 481.041C164.898 480.038 165.465 478.679 165.47 477.26Z" fill="#8A7659"/>
<path d="M160.9 476.62C159.3 476.62 158.04 475.62 158.04 474.37V469.45H159.53V474.39C159.53 474.75 160.13 475.15 160.9 475.15C161.67 475.15 162.26 474.75 162.26 474.39V469.45H163.76V474.39C163.76 475.64 162.5 476.62 160.9 476.62ZM158 469.45V464.45C158 463.19 159.26 462.2 160.86 462.2C162.46 462.2 163.72 463.2 163.72 464.45V469.45H162.22V464.45C162.22 464.09 161.64 463.7 160.86 463.7C160.09 463.7 159.49 464.09 159.49 464.45V469.45H158Z" fill="#8A7659"/>
<path d="M145.26 477.26C145.262 476.2 144.95 475.163 144.362 474.28C143.775 473.398 142.939 472.709 141.96 472.302C140.982 471.894 139.904 471.786 138.864 471.991C137.824 472.196 136.868 472.705 136.117 473.453C135.366 474.201 134.854 475.155 134.645 476.194C134.436 477.234 134.54 478.312 134.944 479.292C135.348 480.272 136.034 481.11 136.914 481.701C137.794 482.292 138.83 482.608 139.89 482.61C141.31 482.607 142.671 482.043 143.677 481.041C144.683 480.039 145.252 478.68 145.26 477.26V477.26Z" fill="#B19A77"/>
<path d="M140.68 476.62C139.08 476.62 137.84 475.62 137.84 474.37V469.45H139.33V474.39C139.33 474.75 139.91 475.15 140.68 475.15C141.45 475.15 142.05 474.75 142.05 474.39V469.45H143.54V474.39C143.54 475.64 142.3 476.62 140.68 476.62ZM137.84 469.45V464.45C137.84 463.19 139.08 462.2 140.68 462.2C142.28 462.2 143.54 463.2 143.54 464.45V469.45H142.05V464.45C142.05 464.09 141.47 463.7 140.68 463.7C139.91 463.7 139.33 464.09 139.33 464.45V469.45H137.84Z" fill="#8A7659"/>
<path d="M125 477.26C125.002 476.2 124.689 475.162 124.102 474.279C123.514 473.397 122.677 472.708 121.698 472.301C120.719 471.894 119.641 471.786 118.6 471.992C117.56 472.197 116.604 472.707 115.853 473.456C115.103 474.206 114.591 475.161 114.384 476.201C114.176 477.241 114.282 478.319 114.687 479.299C115.092 480.279 115.779 481.117 116.661 481.706C117.543 482.295 118.58 482.61 119.64 482.61C121.059 482.607 122.419 482.043 123.424 481.041C124.428 480.038 124.995 478.679 125 477.26Z" fill="#B19A77"/>
<path d="M120.48 476.62C118.87 476.62 117.61 475.62 117.61 474.37V469.45H119.11V474.39C119.11 474.75 119.69 475.15 120.48 475.15C121.27 475.15 121.83 474.75 121.83 474.39V469.45H123.33V474.39C123.33 475.64 122.08 476.62 120.48 476.62ZM117.61 469.45V464.45C117.61 463.19 118.87 462.2 120.48 462.2C122.09 462.2 123.33 463.2 123.33 464.45V469.45H121.83V464.45C121.83 464.09 121.25 463.7 120.48 463.7C119.69 463.7 119.11 464.09 119.11 464.45V469.45H117.61Z" fill="#8A7659"/>
<path d="M104.83 477.26C104.832 476.2 104.519 475.162 103.931 474.279C103.344 473.397 102.507 472.708 101.528 472.301C100.549 471.894 99.4707 471.786 98.4303 471.992C97.3899 472.197 96.4339 472.707 95.6833 473.456C94.9327 474.206 94.4212 475.161 94.2136 476.201C94.006 477.241 94.1115 478.319 94.5169 479.299C94.9223 480.279 95.6093 481.117 96.4909 481.706C97.3726 482.295 98.4093 482.61 99.4698 482.61C100.889 482.607 102.249 482.043 103.254 481.041C104.258 480.038 104.825 478.679 104.83 477.26Z" fill="#B19A77"/>
<path d="M100.26 476.62C98.6599 476.62 97.3999 475.62 97.3999 474.37V469.45H98.8999V474.39C98.8999 474.75 99.4899 475.15 100.26 475.15C101.03 475.15 101.63 474.75 101.63 474.39V469.45H103.12V474.39C103.12 475.64 101.87 476.62 100.26 476.62ZM97.3999 469.45V464.45C97.3999 463.19 98.6599 462.2 100.26 462.2C101.86 462.2 103.12 463.2 103.12 464.45V469.45H101.63V464.45C101.63 464.09 101.04 463.7 100.26 463.7C99.4899 463.7 98.8999 464.09 98.8999 464.45V469.45H97.3999Z" fill="#8A7659"/>
<path d="M84.6101 477.26C84.6121 476.2 84.2995 475.162 83.7117 474.279C83.1239 473.397 82.2875 472.708 81.3083 472.301C80.329 471.894 79.251 471.786 78.2106 471.992C77.1702 472.197 76.2142 472.707 75.4636 473.456C74.713 474.206 74.2015 475.161 73.9939 476.201C73.7862 477.241 73.8918 478.319 74.2972 479.299C74.7026 480.279 75.3896 481.117 76.2713 481.706C77.1529 482.295 78.1896 482.61 79.2501 482.61C80.6692 482.607 82.0294 482.043 83.0338 481.041C84.0381 480.038 84.6048 478.679 84.6101 477.26Z" fill="#B19A77"/>
<path d="M80.0499 476.62C78.4399 476.62 77.1899 475.62 77.1899 474.37V469.45H78.6899V474.39C78.6899 474.75 79.2599 475.15 80.0499 475.15C80.8399 475.15 81.4099 474.75 81.4099 474.39V469.45H82.9099V474.39C82.9099 475.64 81.6499 476.62 80.0499 476.62ZM77.1899 469.45V464.45C77.1899 463.19 78.4399 462.2 80.0499 462.2C81.6599 462.2 82.9099 463.2 82.9099 464.45V469.45H81.4099V464.45C81.4099 464.09 80.8299 463.7 80.0499 463.7C79.2599 463.7 78.6899 464.09 78.6899 464.45V469.45H77.1899Z" fill="#8A7659"/>
<path d="M218.73 619.01H213.09V615.93H218.73C220.328 615.93 221.921 615.752 223.48 615.4L224.99 615.06L225.67 618.06L224.17 618.4C222.385 618.808 220.561 619.013 218.73 619.01V619.01ZM206.93 619.01H194.6V615.93H206.93V619.01ZM188.44 619.01H176.12V615.93H188.44V619.01ZM169.95 619.01H157.63V615.93H170L169.95 619.01ZM151.47 619.01H139.14V615.93H151.47V619.01ZM132.47 617.84L131.04 617.26C127.981 616.04 125.199 614.217 122.86 611.9L121.76 610.81L123.92 608.62L125.02 609.7C127.068 611.735 129.507 613.334 132.19 614.4L133.61 614.98L132.47 617.84ZM231.8 615.27L230 612.77L231.25 611.87C233.592 610.183 235.577 608.048 237.09 605.59L237.89 604.27L240.52 605.88L239.71 607.2C237.989 610.009 235.725 612.447 233.05 614.37L231.8 615.27ZM118 605.21L117.4 603.79C116.159 600.804 115.52 597.603 115.52 594.37V592.65H118.61V594.37C118.606 597.195 119.163 599.992 120.25 602.6L120.84 604.02L118 605.21ZM242.87 599.52L239.87 599.07L240.09 597.54C240.25 596.491 240.33 595.431 240.33 594.37V587H243.41V594.37C243.411 595.585 243.32 596.798 243.14 598L242.87 599.52ZM118.62 586.45H115.53V574.16H118.62V586.45ZM243.38 580.8H240.3V568.51H243.38V580.8ZM118.62 568H115.53V555.68H118.62V568ZM243.38 562.35H240.3V550.03H243.38V562.35ZM118.62 549.51H115.53V537.19H118.62V549.51ZM243.38 543.86H240.3V531.54H243.38V543.86ZM118.62 531.03H115.53V518.7H118.62V531.03ZM243.38 525.38H240.3V513.06H243.38V525.38ZM118.62 512.54H115.53V500.22H118.62V512.54ZM243.38 506.89H240.3V494.57H243.38V506.89ZM118.62 494.06H115.53V481.73H118.62V494.06ZM243.38 488.45H240.3V476.08H243.38V488.45ZM118.62 475.57H115.53V467.28C115.53 466.505 115.49 465.731 115.41 464.96L115.24 463.43L118.31 463.09L118.47 464.62C118.569 465.503 118.62 466.391 118.62 467.28V475.57ZM243.38 469.92H240.3V457.6H243.38V469.92ZM113.55 458.15L112.79 456.8C111.382 454.283 109.485 452.073 107.21 450.3L106 449.3L107.9 446.87L109.11 447.82C111.71 449.847 113.879 452.373 115.49 455.25L116.23 456.59L113.55 458.15ZM243.38 451.45H240.3V439.11H243.38V451.45ZM101 446.86L99.51 446.46C97.6908 445.968 95.8145 445.72 93.93 445.72H89.2V442.64H94C96.1576 442.638 98.3061 442.921 100.39 443.48L101.88 443.88L101 446.86ZM83 445.72H70.76V442.64H83.08L83 445.72ZM64.51 445.72H52.27V442.64H64.59L64.51 445.72ZM46.03 445.72H33.79V442.64H46.11L46.03 445.72ZM27.54 445.72H24.54C21.7567 445.724 18.9933 445.25 16.37 444.32L14.92 443.8L15.92 440.9L17.38 441.41C19.6713 442.228 22.0869 442.645 24.52 442.64H27.52L27.54 445.72ZM9.14001 440.32L8 439.32C5.56296 437.104 3.59133 434.425 2.20001 431.44L1.54999 430.04L4.35001 428.74L5 430.14C6.21394 432.757 7.94147 435.104 10.08 437.04L11.22 438.04L9.14001 440.32ZM243.3 432.95H240.3V420.63H243.38L243.3 432.95ZM0.0700073 423.45L0.0100098 421.91C0.0100098 421.64 0.0100098 421.38 0.0100098 421.11V411.11H3.09V421.11C3.09 421.34 3.09 421.58 3.09 421.81V423.35L0.0700073 423.45ZM243.38 414.45H240.3V402.14H243.38V414.45ZM569.19 411.04H557.84V407.96H569.19V411.04ZM551.68 411.04H539.35V407.96H551.68V411.04ZM533.19 411.04H520.87V407.96H533.19V411.04ZM514.25 410.04L512.8 409.45C509.72 408.283 506.902 406.515 504.51 404.25L503.39 403.19L505.51 400.95L506.63 402.01C508.719 404.001 511.188 405.548 513.89 406.56L515.33 407.11L514.25 410.04ZM3.07999 404.88H0V392.55H3.07999V404.88ZM499.49 397.71L498.87 396.3C497.534 393.284 496.826 390.028 496.79 386.73V385.19H499.87V386.73C499.902 389.61 500.517 392.455 501.68 395.09L502.31 396.5L499.49 397.71ZM243.38 395.99H240.3V383.65H243.38V395.99ZM3.07999 386.4H0V374.06H3.07999V386.4ZM499.87 379.01H496.79V366.67H499.87V379.01ZM243.38 377.45H240.3V365.17H243.38V377.45ZM3.07999 367.86H0V355.58H3.07999V367.86ZM499.87 360.47H496.79V348.19H499.87V360.47ZM243.38 358.96H240.3V346.68H243.38V358.96ZM3.07999 349.45H0V337.09H3.07999V349.45ZM499.87 342.06H496.79V329.7H499.87V342.06ZM243.38 340.56H240.3V328.19H243.38V340.56ZM3.07999 330.97H0V318.6H3.07999V330.97ZM499.87 323.58H496.79V311.22H499.87V323.58ZM243.38 322.07H240.3V309.71H243.38V322.07ZM3.07999 312.45H0V300.12H3.07999V312.45ZM499.87 305.06H496.79V292.73H499.87V305.06ZM243.38 303.56H240.3V291.22H243.38V303.56ZM3.07999 293.97H0V287.05C0.00102095 285.673 0.118108 284.298 0.350006 282.94L0.609985 281.41L3.60999 281.93L3.35001 283.45C3.15003 284.64 3.04966 285.844 3.04999 287.05L3.07999 293.97ZM499.87 286.57H496.79V274.24H499.87V286.57ZM243.38 285.07H240.3V272.74H243.38V285.07ZM5.64999 276.77L3.06 275.11L3.89001 273.81C5.66963 271.048 7.98122 268.669 10.69 266.81L11.96 265.93L13.71 268.46L12.44 269.34C10.0514 270.979 8.01201 273.077 6.44 275.51L5.64999 276.77ZM496.34 268.56L495.9 267.08C495.088 264.317 493.728 261.745 491.9 259.52L490.9 258.34L493.27 256.34L494.27 257.52C496.373 260.06 497.941 262.999 498.88 266.16L499.33 267.64L496.34 268.56ZM244.18 267.19L241.29 266.12L241.82 264.68C242.97 261.584 244.732 258.751 247 256.35L248 255.23L250.25 257.34L249.23 258.45C247.252 260.551 245.716 263.026 244.71 265.73L244.18 267.19ZM18.81 266.25L18.18 263.25L19.69 262.94C21.3356 262.606 23.0108 262.438 24.69 262.44H30.79V265.45H24.69C23.2355 265.45 21.7848 265.598 20.36 265.89L18.81 266.25ZM67.72 265.5H55.4V262.45H67.72V265.5ZM49.24 265.5H36.91V262.45H49.24V265.5ZM486.58 254.82L485.22 254.11C482.672 252.756 479.875 251.936 477 251.7L475.47 251.58L475.72 248.51L477.25 248.64C480.537 248.904 483.736 249.837 486.65 251.38L488.02 252.1L486.58 254.82ZM254.81 254.12L253.55 251.31L254.95 250.68C257.961 249.333 261.212 248.608 264.51 248.55H266.06L266.11 251.63H264.57C261.686 251.679 258.842 252.311 256.21 253.49L254.81 254.12ZM469.43 251.63H457.1V248.55H469.43V251.63ZM450.94 251.63H438.62V248.55H450.94V251.63ZM432.46 251.63H420.14V248.55H432.46V251.63ZM413.97 251.63H401.65V248.55H414L413.97 251.63ZM395.48 251.63H383.16V248.55H395.48V251.63ZM377 251.63H364.68V248.55H377V251.63ZM358.52 251.63H346.19V248.55H358.52V251.63ZM340.03 251.63H327.7V248.55H340L340.03 251.63ZM321.54 251.63H309.22V248.55H321.54V251.63ZM303.05 251.63H290.73V248.55H303.05V251.63ZM284.57 251.63H272.24V248.55H284.57V251.63Z" fill="white"/>
<path d="M75.48 263.94C71.11 262.32 65.6801 259.55 62.3201 256.62L64.9601 263.94L62.3201 271.27C65.6801 268.34 71.11 265.57 75.48 263.94Z" fill="white"/>
<path d="M512.52 264.39C512.52 264.39 505.9 258.21 503.25 258.88C500.6 259.55 497.96 261.3 499.49 265.05C501.02 268.8 502.81 271.89 502.15 272.11C501.49 272.33 501.49 266.82 501.7 264.82C501.91 262.82 500.37 259.31 504.14 262.4C507.91 265.49 510.14 267.26 508.99 268.8C507.84 270.34 505.67 272.99 507.66 274.8C509.65 276.61 512.3 281.42 512.3 281.42C512.3 281.42 508.1 274.13 509.21 272.59C510.32 271.05 511.21 266.59 508.77 264.2C507.536 262.901 506.122 261.786 504.57 260.89C504.57 260.89 504.35 259.52 512.52 264.39Z" fill="#CBA189"/>
<path d="M563.09 225.15C569.24 238.08 572.09 297.33 572.39 314.1C572.61 326.58 542.01 330.18 536.34 329.56C530.67 328.94 528.34 360.28 528.34 360.28L490.3 345.09L485.38 339.45L478 307.26L470.18 258.99C470.18 258.99 455.46 227.75 466 215.25C476.54 202.75 529.32 154.05 563.09 225.15Z" fill="#D4CCC3" fill-opacity="0.8"/>
<path d="M543.32 329.33C543.32 329.33 523.1 318.51 516.79 313.86C510.48 309.21 500.19 286.97 500.19 286.97C500.19 286.97 502.19 311.53 506.19 317.18C510.19 322.83 531.85 337.61 531.85 337.61C531.85 337.61 532.7 331.32 543.32 329.33Z" fill="#B0B1B2"/>
<path d="M575 190.95C575 190.95 564.06 201.56 559.68 200.46L565.68 191.15C565.68 191.15 520.23 185.67 514.22 184.03C508.21 182.39 497.22 184.03 493.95 183.49C490.68 182.95 463.29 205.94 457.81 212.49C452.33 219.04 457.81 244.8 460.55 253.01C463.29 261.22 474.24 300.09 474.24 300.09C474.24 300.09 474.79 310.49 473.14 312.14C471.49 313.79 489.03 297.91 487.38 286.4C485.73 274.89 477.53 276.54 477.53 263.4C477.53 250.26 489.42 246.17 495.44 257.13C495.44 257.13 500.04 266.77 500.52 273.25C500.817 265.216 500.633 257.172 499.97 249.16C498.88 236.57 524.06 225.07 524.06 225.07C524.06 225.07 525.17 216.86 523.53 215.76C521.741 214.269 520.091 212.619 518.6 210.83C518.6 210.83 556.92 217.2 559.1 215.56C561.28 213.92 576.14 195.32 575 190.95Z" fill="#8A7659"/>
<path d="M550.37 464.26L549.01 456.26L531.54 400.93C531.54 400.93 526.07 383.84 543.54 390.38C543.54 390.38 537.36 374.73 538.81 372.55C540.26 370.37 532.64 364.55 532.64 364.55L528.64 371.84C528.64 371.84 497 344.93 494.41 344.19C491.82 343.45 479.13 349.29 477.3 351.47C475.47 353.65 468.58 358.02 464.21 358.39C461.35 358.62 450.76 412.34 443.85 464.26H550.37Z" fill="#F2F2F2"/>
<path d="M597.13 464.26C590.86 447.54 582.67 425.76 581.28 413.46C579.13 394.46 569.21 387.12 565.28 385.33C561.35 383.54 549.56 379.97 549.92 377.81C550.28 375.65 550.98 373.17 549.56 371.74C548.14 370.31 524.88 348.85 524.88 348.85C480.9 323.45 481.25 332.45 480.2 337.07C479.15 341.69 477.68 347.78 472.68 348.14C467.68 348.5 460.52 354.22 458.38 358.87C456.24 363.52 449.09 372.81 434.78 379.97C430.78 381.97 427.64 385.91 425.16 390.57C420.41 397.17 421.23 398.49 415.8 402.43C409.51 407 409.35 426.1 408.21 438.14C407.65 444.05 404.34 454.8 401.09 464.26H597.13Z" fill="white"/>
<path d="M545.69 381.79L539.87 362.49L533.32 357.39C533.32 357.39 537.32 363.58 535.15 366.86C532.98 370.14 516.57 393.78 516.57 393.78C516.57 393.78 499.1 348.3 486.73 343.94C486.73 343.94 486.01 352.66 481.64 354.84C477.27 357.02 473.27 357.76 476.18 357.76C479.09 357.76 487.82 360.31 489.28 357.03C490.74 353.75 505.28 369.4 515.49 401.8L536.23 370.86L546.05 385.42L551.88 382.14L545.69 381.79Z" fill="#CCCCCC"/>
<path d="M489.54 453.79C488.91 455.07 486.99 459.32 484.78 464.26H494.59C497.78 460.38 500.46 457.07 500.46 457.07L480.08 402.84C480.08 402.84 491.36 450.14 489.54 453.79Z" fill="#CCCCCC"/>
<path d="M513.48 464.26C516.62 455.42 519.02 448.33 519.02 448.33C519.02 448.33 515.82 455.62 511.3 464.26H513.48Z" fill="#CCCCCC"/>
<path d="M472.15 464.26C470.88 455.73 469.63 445.77 469.15 436.68C469.15 436.68 468.28 450.88 468.2 464.26H472.15Z" fill="#CCCCCC"/>
<path d="M543.88 464.26H561.88C559.31 441.48 556.47 419.12 555.74 413.94C554.93 408.31 549.74 393.18 548.61 392.79C547.48 392.4 552.16 373.85 545.45 371.08C545.45 371.08 538.34 367.53 534.79 369.51C531.24 371.49 528.09 380.95 528.09 380.95L541.5 393.95L543.88 464.26Z" fill="#8A7659"/>
<path d="M263.77 426.19C263.78 440.985 259.401 455.451 251.189 467.757C242.976 480.063 231.297 489.657 217.631 495.324C203.965 500.992 188.924 502.479 174.412 499.598C159.901 496.716 146.57 489.595 136.106 479.135C125.642 468.675 118.516 455.347 115.628 440.837C112.741 426.326 114.222 411.285 119.884 397.617C125.546 383.948 135.135 372.266 147.438 364.048C159.741 355.83 174.205 351.446 189 351.45C208.824 351.453 227.836 359.327 241.857 373.342C255.877 387.357 263.759 406.366 263.77 426.19Z" fill="#8A7659"/>
<path d="M264.4 436.1C264.344 436.377 264.307 436.658 264.29 436.94C264.342 436.662 264.378 436.382 264.4 436.1V436.1Z" fill="white"/>
<path d="M212.53 418.45C213.12 418.7 215.38 418.57 215.41 418.21C215.434 418.118 215.434 418.022 215.41 417.93C215.379 417.789 215.297 417.665 215.18 417.58C215.18 417.58 215.18 417.58 214.36 417.29C214.332 417.281 214.306 417.266 214.285 417.245C214.264 417.224 214.249 417.198 214.24 417.17C214.24 417.17 214.24 417.17 214.24 417.1C214.235 417.066 214.222 417.033 214.203 417.003C214.184 416.974 214.159 416.949 214.13 416.93C214.092 416.914 214.051 416.906 214.01 416.906C213.969 416.906 213.928 416.914 213.89 416.93C213.466 417.139 213.091 417.435 212.79 417.8C212.47 418.16 212.4 418.28 212.45 418.35C212.5 418.42 212.45 418.36 212.53 418.45Z" fill="white"/>
<path d="M134.2 374.99C133.53 375.9 133 376.62 133.57 376.58C133.703 376.551 133.828 376.497 133.94 376.42C133.94 376.87 133.55 377.23 133.64 377.7C134.05 377.91 134.29 377.37 134.64 377.48C134.99 378.48 134.8 378.7 132.95 380.62C132.725 380.897 132.481 381.157 132.22 381.4C132.22 381.4 132.09 381.4 132.03 381.4C131.97 381.4 131.67 381.4 131.03 382.1C131.03 382.1 129.84 383.46 130.15 383.8C130.62 383.73 130.54 382.8 131.08 383.04C131.62 383.28 131.08 383.77 131.08 384.13C131.08 384.13 131.7 385.79 132.55 385.29C134.76 383.98 134.75 383.6 134.74 383.03C134.74 381.91 134.74 381.61 134.95 381.3C135.101 381.134 135.307 381.028 135.53 381C136.18 380.82 136.18 380.82 137.84 379.23C138.65 378.46 136.7 377.93 137.11 376.98C137.52 376.03 138.82 375.51 139 374.31C139 374.06 138.85 373.91 138.66 373.76C140.017 372.878 141.206 371.76 142.17 370.46L141.82 370.64C142.47 369.34 143.74 368.55 144.55 367.38V367.3C143.08 368.05 139.49 372.13 138.62 373.68C137.8 372.81 140.45 371.3 139.25 371.25C138.62 371.25 138.25 371.64 136.25 373.59C138.16 371.54 138.16 371.54 138.25 371.37C137.65 371.56 136.35 372.85 134.2 374.99Z" fill="white"/>
<path d="M140.22 369.81C142.22 369.12 142.22 369.12 143.51 367.81C143.24 367.81 143.01 368.07 142.72 367.94C142.44 368.05 142.18 368.18 141.91 368.29L141.85 368.17C143.08 366.97 144.85 366.78 146.23 365.82C146.23 365.82 148.49 364.3 150.68 362.99L152.26 361.93C154.78 360.38 157.63 359.47 160.26 358.08C160.02 358.08 160.02 358.08 158.97 358.43C158.97 358.43 158.97 358.43 163.61 356.64C163.837 356.545 164.058 356.435 164.27 356.31C164.134 356.311 163.998 356.334 163.87 356.38C164.07 356.27 164.07 356.27 164.75 355.96C164.5 356.03 164.5 356.03 163.1 356.51C163.59 356.29 164.1 356.13 164.61 355.93C164.364 355.947 164.12 355.984 163.88 356.04C163.3 356.236 162.732 356.467 162.18 356.73C162.417 356.585 162.668 356.464 162.93 356.37C161.382 356.871 159.869 357.472 158.4 358.17L159.4 357.71L157.98 358.32C157.18 358.71 156.37 359.07 155.55 359.44L154.11 360.16C153.77 360.38 153.37 360.51 153.03 360.74C153.27 360.67 153.49 360.56 153.72 360.49C153.19 360.8 152.6 361 152.06 361.3L152.12 361.23C150.34 362.23 148.21 363.5 146.6 364.54L146.39 364.69C146.224 364.792 146.064 364.902 145.91 365.02C146.169 364.873 146.444 364.756 146.73 364.67C145.4 365.48 144.19 366.47 142.84 367.26C142.999 367.101 143.17 366.954 143.35 366.82L141.93 367.89C141.05 368.72 140.08 369.46 139.19 370.27C139.544 370.01 139.922 369.786 140.32 369.6L140.22 369.81Z" fill="white"/>
<path d="M176.51 392.51C177.058 393.576 177.687 394.599 178.39 395.57C179.15 396.42 179.15 396.42 179.94 396.32H180.12C180.99 396.25 181.12 396.32 181.2 396.75C180.8 397.39 179.82 397.05 179.46 397.75C179.02 398.62 178.98 400.22 179.46 400.09C180.15 399.92 180.15 399.92 180.2 399.95C180.2 400.31 180.2 400.42 179.41 401.05C178.1 402.05 178.67 402.28 179.12 402.3L180.68 401.9C180.932 401.781 181.154 401.606 181.33 401.39C181.55 401.17 181.64 401.15 181.72 401.13C182.509 401.044 183.291 400.904 184.06 400.71L185.37 400.17L186.8 398.84C187.01 398.49 186.73 398.16 186.74 397.84C186.74 397.28 185.9 397.64 185.74 397.18C185.58 396.72 184.97 397.04 184.83 396.59C184.65 395.98 183.89 395.78 183.76 395.14C183.634 394.849 183.469 394.577 183.27 394.33C183.255 394.308 183.234 394.291 183.21 394.28C182.93 394.07 182.64 393.88 182.37 393.67C182.116 393.434 181.878 393.18 181.66 392.91C181.42 392.68 181.59 392.52 181.91 392.21C182.23 391.9 183.72 390.42 181.46 390.69C180.59 390.79 180.46 390.79 180.33 390.69C180.33 390.06 181.09 390.19 181.33 389.76C181.57 389.33 181.24 389.1 181.44 388.76C181.465 388.711 181.504 388.671 181.552 388.646C181.601 388.621 181.656 388.612 181.71 388.62C181.71 388.62 183.37 388.54 182.65 387.72L181.95 387.77L181.83 387.85L181.53 388.14C181.069 388.153 180.616 388.262 180.2 388.46C180.05 388.75 180.37 389 180.27 389.29L178.93 389.46C178.6 390.25 178.6 390.25 178.5 390.28C178.15 390.39 177.93 390.07 177.62 390.03C177.31 389.99 177.11 390.14 176.85 390.12C173.85 389.98 175.12 391.59 175.85 392.46L176.51 392.51Z" fill="white"/>
<path d="M135.22 373.78C135.99 373.02 136.78 372.27 137.45 371.62C136.81 372.21 136.81 372.21 135.22 373.78Z" fill="white"/>
<path d="M126.7 383.67L129.83 379.59C129.29 380.25 129.2 380.38 129.17 380.42C129.17 380.42 129.23 380.33 129.28 380.3C129.11 380.53 128.73 381 128.69 381.05C127.57 382.48 127.57 382.48 126.69 383.67H126.7Z" fill="white"/>
<path d="M173.88 400.54C173.978 400.757 174.158 400.926 174.38 401.01C174.805 401.002 175.23 400.965 175.65 400.9C175.71 400.9 175.71 400.9 176.65 399.8C177.06 399.58 177.5 399.42 177.9 399.19C178.01 399.07 178.18 399 178.24 398.84C178.3 398.68 178.24 398.47 178.24 398.32L178.46 397.91L178.34 397.15L177.92 396.58L177.46 396L177.18 394.91C176.787 394.783 176.37 394.745 175.96 394.8C175.68 394.87 175.45 395.25 175.24 395.44L174.85 395.93C174.72 396.09 174.67 396.15 174.28 396.21C174.08 396.21 173.74 396.29 173.67 396.42C173.6 396.55 173.57 396.68 173.72 397.15C173.813 397.406 173.837 397.682 173.79 397.95C173.79 398.1 173.79 398.25 173.79 398.39L173.42 398.47L173.13 399.58L173.29 400.2L173.88 400.54Z" fill="white"/>
<path d="M170.89 495.33C170.282 494.97 169.707 494.559 169.17 494.1C168.07 493.33 166.17 493.69 165.84 491.83C165.31 491.46 164.76 491.14 164.24 490.76C164.24 490.69 164.34 490.58 164.37 490.51C163.96 489.98 163.28 489.85 162.79 489.44L162.58 489.27L162.72 489.07L163.02 489.13C162.692 488.699 162.327 488.298 161.93 487.93C161.99 487.88 162.05 487.8 162.1 487.75H162.63C162.594 487.592 162.533 487.44 162.45 487.3L162.96 487.19C162.96 487.19 161.96 485.89 161.55 485.39C161.55 485.33 161.43 485.26 161.39 485.2C161.515 485.053 161.664 484.928 161.83 484.83C161.59 484.35 161.59 484.35 161.77 483.96C160.54 482.33 160.54 482.33 161.2 481.96C161.2 481.96 161.2 481.88 161.26 481.85C161.58 479.56 158.46 478.21 159.54 475.72C160.4 475.41 161.21 475.12 161.34 473.89C161.34 473.5 161.68 473.19 161.66 472.79C161.66 472.79 161.43 470.85 161.39 470.73C161.05 469.84 160.39 469.16 159.99 468.29C159.74 467.66 159.74 467.66 159.99 467.29C160.544 466.306 160.843 465.199 160.86 464.07C160.444 462.86 159.716 461.78 158.75 460.94C157.931 460.404 157.06 459.951 156.15 459.59L155.88 459.53C154.88 459.36 154.02 460.01 153.03 459.84C152.04 459.67 151.08 458.7 149.93 458.51C149.78 458.5 149.63 458.5 149.48 458.51C147.11 458.51 147.11 458.51 146.13 456.88L145.7 456.13C145.208 455.431 144.63 454.796 143.98 454.24C142.65 454.24 141.33 454.77 139.98 454.24L134.14 450.45C131.83 452.25 131.83 452.25 129.99 451.27C129.29 451.48 129.26 451.73 129.2 452.39C128.57 452.7 127.98 452.99 127.34 454.95L127.19 454.6L126.86 454.65L126.76 455.02V455.28C125.37 454.91 125.37 454.91 123.51 449.65C122.82 449.49 122.51 449.51 122.02 450.44C120.91 449.67 120.91 447.99 120.91 447.1C120.26 444.62 120.25 444.58 119.79 443.75C119.634 444.354 119.59 444.981 119.66 445.6C119.552 445.618 119.445 445.641 119.34 445.67L119 445.45C118.72 446.67 119.54 447.72 119.59 448.88C116.79 449.29 115.78 439.83 115.79 439.73L116.1 439.86C116.168 439.372 116.275 438.891 116.42 438.42L116.76 438.31C117.26 438.84 117.26 438.84 117.67 438.81C117.67 437.17 117.81 437.06 118.16 436.81C118.99 437.358 119.729 438.033 120.35 438.81C120.582 439.712 121.005 440.555 121.59 441.28C122.05 441.14 122.05 441.14 120.66 435.99C120.19 434.25 121.27 432.76 121.52 431.14C121.8 429.33 122.24 427.54 122.41 425.71C122.47 425.06 122.47 425.06 124.56 421.25L124.89 421.34C124.97 417.95 124.98 417.6 127.62 415.7C127.7 416.58 126.93 417.12 126.77 417.89C126.845 418 126.928 418.104 127.02 418.2C127.35 418.2 130.96 414.77 131.02 414.74C131.58 413.96 130.96 412.8 130.95 412.74L130.77 412.94C130.69 413.19 130.57 413.52 130.47 413.77C129.69 413.71 129.61 413.7 129.17 413L128.75 412.93C128.48 413.18 128.26 413.48 128 413.74C128.152 412.963 128.37 412.2 128.65 411.46C128.38 411.04 128.38 411.04 128.47 410.39C127.38 410.45 127.38 410.45 124.91 413.87C123.98 411.33 127.24 410.77 127.61 408.8C128.32 409.18 128.71 409.92 129.36 410.37L129.77 410.23C129.693 409.839 129.586 409.455 129.45 409.08L129.51 409.01C130.05 408.76 130.05 408.76 132.83 406.11L132.99 406.45L133.39 406.56C132.98 408.03 131.67 409.03 131.29 410.51C131.29 410.6 131.29 410.6 132.07 411.83C132.51 411.66 132.81 411.19 133.37 411.29C133.706 411.766 133.842 412.355 133.75 412.93L134.09 412.86C134.263 412.494 134.46 412.14 134.68 411.8C135.05 411.8 135.05 411.8 135.55 412.26L135.79 412.34C137.92 410.34 136.21 408.56 134.44 408.49C134.3 408.28 134.3 408.28 135.1 402.95C134.898 402.819 134.669 402.737 134.43 402.71L134.16 402.39C134.25 402.04 134.37 401.7 134.44 401.39C132.32 400.48 132.32 400.48 131.97 399.69C131.34 398.22 132.19 396.48 131.75 395C131.815 394.661 131.906 394.326 132.02 394C132.29 393.11 132.3 392.81 132.02 392.9C131.848 393.014 131.695 393.156 131.57 393.32C131.507 393.43 131.46 393.547 131.43 393.67C131.35 393.95 131.29 394.24 131.21 394.53C131.13 394.82 131.05 394.89 130.99 394.92C130.93 394.95 130.84 395.06 130.74 395.25C129.97 396.98 129.97 396.98 129.35 397.25C129 397.12 128.78 396.8 128.45 396.66C128.46 396.32 128.52 395.983 128.63 395.66C128.681 395.354 128.748 395.05 128.83 394.75C128.978 394.406 129.149 394.072 129.34 393.75C129.41 393.59 129.49 393.39 129.41 393.27C129.33 393.15 129.35 393.21 129.33 393.18C129.14 393.03 128.88 393.11 128.69 392.96C128.5 392.81 128.69 392.74 128.69 392.64C128.656 392.176 128.593 391.715 128.5 391.26C128.481 391.205 128.457 391.151 128.43 391.1C128.36 390.9 128.27 390.81 128.18 390.82C128.117 390.863 128.071 390.927 128.05 391C127.75 391.72 127.33 392.45 127.12 392.12C126.91 391.79 127.12 391.55 126.77 391.53C126.65 391.53 126.3 391.78 126.12 392.02L126 392.45C125.964 392.568 125.937 392.688 125.92 392.81C125.815 393.345 125.63 393.861 125.37 394.34C125.2 394.73 125.16 394.78 124.96 394.91C124.85 394.982 124.772 395.093 124.74 395.22C124.74 395.22 124.69 395.53 124.81 395.57C124.853 395.579 124.897 395.579 124.94 395.57C125.02 395.57 125.02 395.57 125.06 395.57C125.14 396 124.6 396.65 124.13 397.24C123.928 397.816 123.762 398.404 123.63 399C123.923 399.624 124.003 400.326 123.86 401C123.47 402.41 122.14 403.26 121.69 404.63C121.18 406.17 121.69 407.84 121.11 409.38C121.002 409.587 120.825 409.75 120.61 409.84C119.47 409.31 120.61 405.46 120.61 405.42C120.723 405.143 120.787 404.849 120.8 404.55L120.45 404.45C119.64 404.59 119.64 404.59 119.23 404.4C119.14 402.96 119.14 402.96 118.79 402.56L118.46 402.66C118.537 401.88 118.715 401.114 118.99 400.38C118.865 400.473 118.722 400.538 118.57 400.57V400.43L118.94 399.38C120.644 395.444 122.852 391.746 125.51 388.38C125.45 389.9 124.16 390.74 123.51 391.94C123.626 391.955 123.744 391.955 123.86 391.94C123.86 392.14 123.86 392.14 123.75 392.58C124.75 392.19 124.64 391.02 125.37 390.44C125.46 390.65 125.32 390.89 125.44 391.1C125.55 391.1 125.84 391.19 126.17 390.7C126.7 389.7 125.62 386.86 126.89 387.65C127.44 387.07 127.53 386.21 128.13 385.65H128.26L131.79 380.51L131.89 380.35C131.913 380.221 131.907 380.089 131.872 379.962C131.838 379.836 131.776 379.719 131.69 379.62C131.303 379.854 130.964 380.16 130.69 380.52L130.59 380.65C130.4 381.08 127.72 384.65 127.59 384.81C127.54 384.66 127.47 384.43 128.34 383.23C128.54 382.97 129.61 381.41 129.72 381.23V381.1C129.57 381.1 129.57 381.1 127.79 383.45C128.03 382.97 128.03 382.97 130.79 379.12C130.712 379.174 130.639 379.235 130.57 379.3C131.06 378.56 131.72 377.96 132.24 377.24C132.316 377.192 132.38 377.126 132.423 377.047C132.467 376.969 132.49 376.88 132.49 376.79C131.49 377.79 130.76 378.59 130.2 379.25C129.75 379.76 129.43 380.18 129.2 380.48C128.4 381.48 127.63 382.54 126.89 383.61C126.89 383.61 126.89 383.53 126.89 383.5C126.359 384.131 125.874 384.799 125.44 385.5C125.434 385.46 125.434 385.42 125.44 385.38C125.3 385.47 125.3 385.47 123.89 387.63C120.11 394.23 120.04 394.36 118.48 398.01L117.32 400.91C116.5 403.38 115.43 406.67 114.76 409.18C113.2 416.8 113.17 416.95 112.85 420.99C112.56 428.94 112.55 429.1 112.92 433.25C113.28 436.01 113.77 439.68 114.3 442.4C114.38 442.73 114.4 442.8 115.51 446.29C115.77 447.06 116.07 448 116.44 449.16L116.55 449.43C116.742 449.859 116.959 450.276 117.2 450.68H117.28C117.542 451.095 117.84 451.486 118.17 451.85H118.42C118.632 451.915 118.858 451.915 119.07 451.85C119.14 451.91 119.23 452.01 119.3 452.08L120.05 452.02L120.38 451.92C120.66 452.14 120.66 452.14 121.87 454.18C122.09 453.75 122.09 453.75 121.87 452.95C123.14 453.67 123.62 455.08 124.68 455.95L124.84 455.65C124.9 455.65 124.9 455.65 125.63 456.49H125.72C126.12 456.74 126.4 457.13 126.72 457.41C126.72 457.31 126.72 457.17 126.72 457.07C126.945 457.03 127.166 456.97 127.38 456.89C127.414 456.486 127.315 456.083 127.1 455.74V455.68C127.1 455.57 127.1 455.43 127.1 455.32C129.5 458.41 129.49 458.68 129.47 459.57C129.55 459.57 129.47 459.76 129.53 459.84C129.807 460.411 130.047 460.999 130.25 461.6C129.86 462.26 129.77 462.41 130.05 463.13L132.43 467.19C133.92 468.72 135.96 469.58 137.43 471.19C138.851 472.821 140.701 474.02 142.77 474.65C143.381 474.807 143.942 475.117 144.4 475.55C144.73 475.85 144.73 475.85 148.46 480.47C149.32 481.53 152.46 484.6 152.46 484.62C157.24 489.1 157.24 489.1 163.81 493.18C174.81 498.92 177.1 497.53 177.12 497.5C177.089 497.422 177.062 497.341 177.04 497.26C171.44 495.59 171.44 495.59 170.89 495.33Z" fill="white"/>
<path d="M152 361.27C152.28 361.12 152.54 360.96 152.8 360.81C152.521 360.941 152.253 361.095 152 361.27V361.27Z" fill="white"/>
<path d="M164.61 356.64C164.128 356.772 163.671 356.985 163.26 357.27L163.49 357.2C163.67 357.13 163.8 357.08 163.85 357.12C163.9 357.16 163.79 357.22 163.52 357.4C163.387 357.534 163.235 357.648 163.07 357.74C162.924 357.79 162.784 357.853 162.65 357.93L162.97 357.73C162.954 357.735 162.936 357.735 162.92 357.73V357.73C162.855 357.758 162.794 357.795 162.74 357.84C162.67 357.9 162.63 357.98 162.56 358.04L162.2 358.3L162.05 358.4L161.9 358.48C162.016 358.359 162.14 358.245 162.27 358.14V358.14H162.12L162.94 357.54H162.76C162.7 357.54 162.7 357.54 160.88 358.65C160.88 358.57 160.88 358.57 161.36 358.21L161.24 358.11C160.015 358.452 158.854 358.989 157.8 359.7C156.11 360.7 154.13 361.15 152.68 362.57C152.789 362.59 152.901 362.59 153.01 362.57C152.84 362.69 152.65 362.79 152.48 362.92C152.57 362.92 152.69 362.84 152.78 362.79C151.12 364.29 148.95 365.07 147.24 366.51C147.254 366.559 147.274 366.606 147.3 366.65C147.274 366.709 147.244 366.765 147.21 366.82L147.36 366.89L147.65 366.78C147.29 367.21 147.07 367.23 146.77 367.1C146.046 367.671 145.475 368.413 145.11 369.26C145.27 369.37 145.27 369.37 145.55 369.26H145.61H145.85C146.09 369.14 146.29 368.99 146.52 368.88L146.66 368.96L146.95 368.81C146.81 369.02 146.66 369.21 146.51 369.4C146.728 369.255 146.939 369.098 147.14 368.93L147.44 369.03C147.041 370.159 146.433 371.204 145.65 372.11C145.139 372.95 144.71 373.837 144.37 374.76C144.536 374.739 144.704 374.739 144.87 374.76C144.87 374.89 144.93 375.07 144.52 375.23C144.52 375.23 142.94 376.23 143.22 377.15H143.37C143.46 376.991 143.597 376.864 143.761 376.783C143.925 376.703 144.109 376.674 144.29 376.7L144.36 376.79C141.9 379.34 141.9 379.34 141.6 380.33C140.45 384.07 140.42 386.03 141.49 386.16C141.58 386.16 141.69 386.09 141.77 386.04C141.96 386.22 141.88 386.56 142.15 386.7C143 386.65 142.87 387.7 143.32 388.06C143.5 387.85 143.6 387.74 143.77 386.93C143.77 386.81 143.77 386.66 143.86 386.55C144.02 386.09 144.63 386.07 144.79 385.63C144.95 385.19 144.44 384.83 144.67 384.39L146.5 381.45C146.734 381.103 146.988 380.769 147.26 380.45C148.26 379.7 149.8 379.64 150.6 378.45C151.2 377.55 151.2 377.55 154.09 376.11C154.57 375.94 154.57 375.94 155.3 375.3C155.552 375.086 155.816 374.886 156.09 374.7L156.46 374.46C156.76 374.29 156.76 374.29 156.85 374.09C156.66 373.94 156.44 373.83 156.23 373.69C156.239 373.624 156.239 373.556 156.23 373.49C156.317 373.396 156.414 373.312 156.52 373.24L156.7 373.35C157.7 374.06 157.99 373.03 158.31 372.04C158.188 371.974 158.056 371.927 157.92 371.9C157.86 371.71 157.86 371.71 158.83 370.59C158.74 370.43 158.64 370.21 158.55 370.05C160.75 369.18 161.25 368.31 161.35 367.88C161.233 367.785 161.106 367.704 160.97 367.64C161.32 367.38 161.82 367.57 162.18 367.27C162.18 367.27 162.41 367.03 162.05 366.71C161.57 366.8 161.58 366.55 161.58 366.33C162.141 365.922 162.663 365.464 163.14 364.96H162.93C163.06 364.726 163.233 364.519 163.44 364.35L162.9 364.23C162.861 364.185 162.824 364.139 162.79 364.09L165.33 361.5C165.208 361.505 165.087 361.525 164.97 361.56C165.16 360.89 165.97 360.76 166.27 360.18L166.15 360.06C167.23 359.06 168.77 358.67 169.88 357.67C169.964 357.584 170.029 357.482 170.07 357.37C169.87 357.09 169.67 356.82 167.84 357.94C167.84 357.83 167.84 357.68 167.84 357.57C167.69 357.67 167.55 357.79 167.41 357.89C166.65 358.33 166.01 358.89 165.26 359.4C165.26 359.22 165.26 359.08 166.85 358.08C167.209 357.851 167.544 357.587 167.85 357.29L167.71 357.19C167.34 357.4 166.98 357.63 166.6 357.83L166.44 357.9C166.44 357.82 166.64 357.67 166.81 357.53L166.38 357.6H166.08C165.91 357.6 165.78 357.6 164.51 358.16C164.81 357.7 166.71 357.3 166.89 357.28H167.06C167.635 357.135 168.185 356.902 168.69 356.59L168.9 356.47L169 356.35C169.037 356.222 169.064 356.092 169.08 355.96L169.61 355.66H169.44C169.64 355.56 169.86 355.49 170.07 355.4C169.91 355.32 169.91 355.32 169.57 355.4C169.918 355.23 170.275 355.079 170.64 354.95V354.9L169.26 355.3L169.12 355.2C168.701 355.308 168.29 355.445 167.89 355.61H167.78L167.91 355.49V355.43C167.55 355.58 167.21 355.77 166.83 355.9C166.992 355.751 167.178 355.629 167.38 355.54L166.65 355.8C165.94 356.1 165.29 356.42 164.65 356.75C165.26 356.43 165.87 356.11 166.48 355.82H166.36C166.14 355.91 165.11 356.35 164.87 356.49C164.63 356.63 164.69 356.65 164.61 356.64Z" fill="white"/>
<path d="M131.54 377.72C132.76 376.41 133.93 375.05 135.2 373.79L134.68 374.31C134.02 374.95 133.39 375.58 132.84 376.16L131.32 377.84L131.09 378.11C130.72 378.54 130.58 378.7 130.25 379.11C130.25 379.04 130.39 378.95 130.45 378.88C130.82 378.5 131.18 378.11 131.54 377.72Z" fill="white"/>
<path d="M169.42 355.11H169.48C169.67 355.09 169.856 355.04 170.03 354.96L170.34 354.85H170.4L170.69 354.71C170.63 354.704 170.57 354.704 170.51 354.71C170.34 354.71 170.19 354.85 170.01 354.9C170.057 354.862 170.107 354.829 170.16 354.8L169.99 354.86L170.1 354.8H170.04L169.84 354.9H169.77L169.62 354.96C169.592 354.987 169.557 355.008 169.52 355.02C169.42 355.09 169.4 355.1 169.39 355.12L169.42 355.11Z" fill="white"/>
<path d="M186.8 355.83C186.94 356.15 187.01 356.29 187.15 356.38C187.334 356.466 187.529 356.523 187.73 356.55C187.905 356.607 188.076 356.677 188.24 356.76C188.434 356.807 188.636 356.807 188.83 356.76L189.17 356.71C189.07 356.56 188.93 356.43 188.83 356.29V355.66C188.849 355.595 188.849 355.525 188.83 355.46V355.45H188.73C188.666 355.446 188.602 355.458 188.544 355.486C188.486 355.514 188.436 355.557 188.4 355.61C188.377 355.642 188.347 355.669 188.313 355.688C188.278 355.707 188.24 355.718 188.2 355.72C187.87 355.72 187.67 355.42 187.34 355.43V355.49C187.34 355.7 187.26 355.76 187.06 355.8C186.86 355.84 186.84 355.64 186.74 355.54H186.54C186.58 355.68 186.637 355.814 186.71 355.94C186.71 355.94 186.79 355.86 186.8 355.83Z" fill="white"/>
<path d="M185.22 357.35C185.63 357.35 185.93 357.52 185.97 357.82C185.97 357.82 185.97 358.08 185.38 358.35C185.38 358.35 185.38 358.35 185.38 358.41C185.38 358.47 185.38 358.41 185.47 358.41V358.47L186.36 358.39C186.02 358.74 185.96 358.93 186.12 359.3C186.313 359.315 186.507 359.315 186.7 359.3C186.7 359.45 186.58 359.6 185.96 359.59C186.127 360.001 186.395 360.362 186.74 360.64C187.34 360.48 187.48 360.22 187.46 359.3C187.46 358.62 187.46 358.48 187.75 358.3C188.054 358.603 188.302 358.959 188.48 359.35C188.517 359.457 188.578 359.553 188.66 359.63C188.739 359.644 188.821 359.644 188.9 359.63C188.947 359.634 188.995 359.629 189.039 359.613C189.084 359.598 189.125 359.574 189.16 359.542C189.195 359.51 189.223 359.471 189.242 359.427C189.26 359.384 189.27 359.337 189.27 359.29C189.276 359.118 189.256 358.946 189.21 358.78C189.162 358.505 189.056 358.242 188.9 358.01C188.68 357.73 188.34 357.63 187.74 357.45C187.707 357.456 187.673 357.456 187.64 357.45C187.35 357.21 187.31 356.78 186.99 356.55C186.806 356.424 186.592 356.352 186.37 356.34C186.12 356.34 186.1 356.28 186.03 356.08H185.93L185.26 356.26C185.26 356.37 185.26 356.5 185.36 356.61L185.15 356.47C184.98 356.66 184.92 356.91 184.73 357.09C184.639 357.162 184.525 357.197 184.41 357.19C184.43 357.38 184.43 357.38 185.22 357.35Z" fill="white"/>
<path d="M182.3 387.66C182.179 387.685 182.064 387.733 181.96 387.8L182.65 387.74C182.548 387.668 182.423 387.639 182.3 387.66V387.66Z" fill="white"/>
<path d="M165.2 383.87L166.9 383.69C167.436 383.49 167.943 383.221 168.41 382.89C168.49 382.83 168.51 382.8 168.58 382.54C168.65 382.28 168.65 382.26 169.24 381.89C169.352 381.811 169.481 381.76 169.616 381.739C169.751 381.718 169.889 381.729 170.02 381.77C170.12 381.77 170.16 381.84 170.25 381.77C170.34 381.7 170.33 381.72 170.62 381.32L170.73 380.92L171.14 379.73C170.73 378.83 170.62 378.73 169.61 378.18C169.49 378.18 169.49 378.18 169.15 378.58C169.08 378.65 169.08 378.65 168.6 378.8C168.263 378.971 167.912 379.111 167.55 379.22C167.28 379.22 167.1 379.02 166.84 379.02C166.37 379.02 166 379.37 165.52 379.35C165.45 379.35 165.45 379.35 164.87 379.13C164.29 378.91 164.39 378.95 164.38 378.93C164.25 378.7 164.19 378.6 164.04 378.61C163.83 378.67 163.73 378.76 163.4 379.29C163.32 379.43 163.32 379.43 162.63 379.92C162.12 380.53 162.26 380.8 163.07 380.74C163.37 380.74 163.4 380.97 163.39 380.98C163.38 380.99 163.7 380.98 163.76 381.12C163.82 381.26 163.66 381.26 163.26 381.37C161.36 381.89 162.38 382.22 162.46 382.21C162.77 382.15 163.04 381.89 163.39 381.99L163.46 382.75C163.319 383.11 163.155 383.461 162.97 383.8C163.07 383.96 163.07 383.96 164.56 383.22C164.88 383.06 164.92 383.22 164.91 383.43C164.9 383.64 164.88 383.88 165.2 383.87Z" fill="white"/>
<path d="M120.94 442.54C120.84 442.73 120.51 443.31 121.21 444.82C121.29 445.01 121.45 445.36 122.15 445.17C122.6 445.05 122.97 444.74 123.41 444.59C123.85 444.44 124.19 444.42 124.56 444.28L124.69 444.22C124.762 444.192 124.824 444.144 124.87 444.083C124.916 444.021 124.944 443.947 124.95 443.87C124.91 443.12 122.72 441.45 120.94 442.54Z" fill="white"/>
<path d="M126.19 446.75C126.19 446.91 126.04 447.35 126.95 447.33C127.405 447.31 127.853 447.219 128.28 447.06C128.323 447.038 128.36 447.008 128.39 446.97C128.59 446.77 128.54 446.45 128.74 446.25C128.887 446.127 129.048 446.023 129.22 445.94C129.441 445.834 129.641 445.688 129.81 445.51C129.88 445.35 129.65 445.11 129.46 445.01L129.31 444.95L129.15 444.89C128.99 444.89 128.81 444.89 128.65 444.81C128.33 444.71 128.11 444.33 127.71 444.45H127.62L127.54 444.54C127.39 444.71 127.32 444.93 127.17 445.1C127.02 445.27 126.66 445.43 126.5 445.7C126.469 445.744 126.443 445.791 126.42 445.84C126.42 445.9 126.42 445.95 126.42 446C126.42 446.05 126.42 446.21 126.42 446.3C126.42 446.39 126.22 446.62 126.19 446.75Z" fill="white"/>
<path d="M234.49 442.2C234.29 442.2 234.29 442.2 233.49 442.68C231.71 441.53 231.71 441.53 229.55 438.19C229.638 437.864 229.655 437.523 229.6 437.19C227.21 436.19 228.16 433.28 226.55 431.81C225.82 430.81 225.99 429.6 225.43 428.59C225.43 428.59 222.74 423.38 222.32 422.79C222 422.37 221.25 422.36 220.89 422.36H220.63C220.419 422.446 220.236 422.588 220.1 422.77C218.59 422.84 218.59 422.84 211.77 420.97L211.27 421.48C210.97 421.41 210.97 421.41 209.86 422.12C209.69 422.91 210.16 423.8 209.46 424.5C207.56 423.72 207.56 423.72 207.46 423.75H207.28C204.28 422.45 204.28 422.45 203.07 422.29H202.86H202.75L202.21 422.11C202.039 421.552 201.748 421.038 201.358 420.605C200.967 420.171 200.487 419.828 199.95 419.6C198.79 418.91 200.12 417.6 199.18 416.8C198.92 416.59 198.92 416.59 195.5 416.8C193.37 417.38 190.93 416.85 188.95 418.02C188.585 418.217 188.249 418.462 187.95 418.75C186.07 420.65 185.95 420.55 184.45 419.61C183.22 418.82 183.22 418.82 181 420.46C180.907 420.573 180.84 420.705 180.804 420.847C180.768 420.988 180.763 421.136 180.79 421.28L171.72 434.41C171.45 434.675 171.247 434.999 171.127 435.357C171.007 435.715 170.974 436.097 171.03 436.47C171.03 437.75 172.03 438.72 172.22 439.94C172.46 441.51 171.12 443.04 172.11 444.62C172.48 445.22 172.48 445.22 182.11 451.14C182.383 451.27 182.686 451.323 182.987 451.295C183.288 451.267 183.576 451.158 183.82 450.98C183.82 450.98 186.49 449.58 187.91 450.55C188.272 450.437 188.626 450.3 188.97 450.14C190.55 449.43 191.97 448.4 193.81 448.24C194.01 448.24 194.01 448.24 195.99 449.87H196.35C196.263 449.903 196.172 449.926 196.08 449.94C197.08 450.42 198.48 449.64 199.33 450.77C199.625 451.184 199.798 451.673 199.83 452.18C199.73 452.8 199.02 453.04 198.83 453.63C198.98 454.63 199.17 454.92 200.32 455.45C201.67 456.08 203.21 459.29 203.05 460.32C202.89 461.35 204.55 462.16 203.54 462.93C201.97 464.12 201.71 467.23 201.71 467.25C201.87 467.82 202.65 467.74 202.85 468.25C202.909 468.4 202.943 468.559 202.95 468.72V468.92C202.95 469.08 203.09 469.29 203.12 469.45C203.25 470.11 204.02 470.57 203.73 471.36C203.592 471.642 203.537 471.958 203.57 472.27L204.97 475.27C204.97 475.51 204.87 475.74 204.9 475.99L205.11 476.11C204.95 476.5 204.95 476.5 205.82 477.8C205.31 479.2 205.31 479.2 206.07 479.4C206.142 479.67 206.236 479.935 206.35 480.19C206.443 480.205 206.537 480.205 206.63 480.19C207.33 480.07 207.73 479.38 208.42 479.25C208.9 479.16 209.19 479.74 209.69 479.62C209.83 479.62 211.18 479 211.34 478.91C212.951 478.127 214.292 476.88 215.19 475.33C215.719 474.662 216.21 473.964 216.66 473.24C216.84 472.29 217.82 472.44 218.38 472.02C220.08 470.74 219.6 468.08 221.66 467.02C221.97 466.07 223.14 466.4 223.66 465.74C224.12 465.42 224.61 465 224.61 465C224.654 464.932 224.694 464.862 224.73 464.79C225.16 464.02 225 463.1 225.44 462.33C225.88 461.56 226.76 461.45 227.03 460.66C225.51 459.45 224.58 458.72 226.52 455.45C226.936 454.782 227.51 454.226 228.19 453.83C228.831 453.36 229.418 452.82 229.94 452.22C230.67 451.57 230.88 450.42 232 450.15C232.808 449.68 233.528 449.075 234.13 448.36H234.32C234.344 448.258 234.374 448.158 234.41 448.06C234.54 447.92 234.61 447.83 234.62 447.83H234.49C235.33 445.58 237.75 444.34 238.55 442.06C238.56 441.93 238.56 441.8 238.55 441.67C238.21 441.39 238.21 441.39 234.49 442.2Z" fill="white"/>
<path d="M249.88 471.45C249.664 471.665 249.46 471.892 249.27 472.13L249.35 471.97L249.22 472.08C248.46 472.89 247.75 473.73 247.03 474.57C245.96 475.83 244.91 477.1 243.8 478.33C243.64 478.51 243.48 478.68 243.31 478.85L242.95 479.21L242.86 479.29C242.31 479.82 241.75 480.29 241.19 480.85C240.63 481.41 240.04 481.93 239.51 482.52C239.51 482.52 239.95 482.22 240.51 481.73C240.344 481.933 240.156 482.118 239.95 482.28L240.15 482.11L240.44 481.86L242.44 479.93C243.35 479.06 244.26 478.16 245 477.38L245.1 477.27C245.81 476.45 246.63 475.5 247.44 474.54C247.44 474.48 247.54 474.43 247.59 474.36L247.68 474.26C248.51 473.26 249.32 472.31 250 471.44V471.45L250.16 471.25C249.93 471.55 249.65 471.81 249.41 472.1C249.53 471.88 249.72 471.67 249.88 471.45Z" fill="white"/>
<path d="M213 355.66C213.48 355.82 214 356 214.47 356.15L213 355.66Z" fill="white"/>
<path d="M259.44 451.74C259.44 451.74 259.44 451.8 259.44 451.98C259.44 452.35 259.58 452.27 259.61 452.21C259.64 452.15 259.86 451.48 259.87 451.47C259.754 451.373 259.631 451.286 259.5 451.21C259.42 451.71 259.42 451.71 259.44 451.74Z" fill="white"/>
<path d="M223.36 359.89L223.74 360.1L224.97 360.75C224.44 360.45 224.37 360.45 223.36 359.89Z" fill="white"/>
<path d="M255.21 463.6L254.93 464.09C255 463.91 255.12 463.74 255.21 463.6Z" fill="white"/>
<path d="M257.7 457.83C257.7 457.83 257.7 457.83 258.24 456.34C258.24 456.34 258.24 456.34 258.24 456.28H258.17C258 455.42 258.77 454.85 258.9 454.09C258.83 454.09 258.83 454.09 258.65 454.23C258.65 454.03 258.76 453.85 258.79 453.65L258.68 453.76C258.68 453.43 258.8 453.12 258.79 452.76H258.69C258.81 452.13 258.87 451.5 258.98 450.87C258.98 450.69 259.09 449.94 259.09 449.93C259.09 449.71 258.96 449.53 258.98 449.32C259.04 448.7 259.27 448.12 259.31 447.5C259.31 447.32 259.31 447.29 259.31 447.26H259.25C259.063 447.453 258.904 447.672 258.78 447.91C258.6 448.37 258.62 448.91 258.41 449.34C258.264 449.62 258.14 449.911 258.04 450.21C258.04 450.29 258.04 450.38 257.97 450.45C257.737 451.562 257.573 452.688 257.48 453.82C257.32 454.36 257.07 454.87 256.95 455.43C256.935 455.726 256.895 456.021 256.83 456.31C256.58 457.03 256.12 457.65 255.88 458.37C255.93 458.346 255.974 458.312 256.01 458.27C256.01 458.27 256.01 458.27 256.01 458.34C256.35 457.91 256.45 457.34 256.82 456.92C256.82 456.92 256.43 459 256.43 459.01C256.43 459.02 255.61 462.01 255.59 462.01C255.57 462.01 255.59 462.01 255.84 461.73C255.84 461.91 255.78 462.06 255.74 462.2C255.639 462.662 255.463 463.104 255.22 463.51L255.74 462.57C256.02 461.96 256.36 461.38 256.65 460.78L256.55 460.91C256.67 460.53 256.86 460.16 256.98 459.78C256.98 459.66 257.04 459.54 257.06 459.41C256.982 459.482 256.908 459.559 256.84 459.64C256.71 459.37 257.18 458.23 257.28 458.1C257.38 457.97 257.62 458.01 257.7 457.83Z" fill="white"/>
<path d="M255.7 462.73C255.83 462.51 255.96 462.29 256.08 462.05L255.73 462.66C255.735 462.683 255.735 462.707 255.73 462.73H255.7Z" fill="white"/>
<path d="M212.94 355.63H212.89L213.04 355.68L212.94 355.63Z" fill="white"/>
<path d="M220.71 370.07C220.71 370.07 221.38 370.31 221.47 370.07C221.56 369.83 221.41 369.81 221.35 369.72C221.07 369.35 220.35 368.72 220.05 368.78C219.97 368.78 219.96 368.86 219.98 368.97C219.948 368.944 219.924 368.909 219.91 368.87C220.132 369.298 220.401 369.7 220.71 370.07V370.07Z" fill="white"/>
<path d="M215.09 358.53L215.15 359.08C214.21 359.15 214.21 359.15 214.08 359.25C214.317 359.743 214.584 360.22 214.88 360.68L214.57 360.94C214.77 361.4 215.45 361.33 215.57 361.84C215.683 362.147 215.813 362.447 215.96 362.74C216.13 362.925 216.317 363.092 216.52 363.24C216.926 363.505 217.241 363.889 217.42 364.34C217.29 364.49 217.11 364.4 216.95 364.44C217.22 364.85 217.73 364.92 218.05 365.24C218.056 365.26 218.056 365.28 218.05 365.3C217.989 365.315 217.928 365.335 217.87 365.36C217.6 366.22 218.18 366.54 218.57 366.75L219.43 367.2C219.84 367.39 220.31 367.41 220.71 367.62C221.209 367.94 221.731 368.224 222.27 368.47C222.73 368.607 223.215 368.641 223.69 368.57C223.69 368.57 223.69 368.51 223.69 368.49C223.528 368.302 223.336 368.143 223.12 368.02C221.783 367.099 220.558 366.025 219.47 364.82L219.3 364.6C219.04 364.16 219.09 364.06 219.21 363.83C219.217 363.818 219.221 363.804 219.221 363.79C219.221 363.776 219.217 363.762 219.21 363.75C218.94 363.31 218.41 363.11 218.14 362.65C218.124 362.584 218.124 362.516 218.14 362.45C218.14 362.11 218.14 362.11 217.52 361.19C217.82 361.09 218.1 361.31 218.39 361.25L217.12 360.15C217.01 360.08 217.01 360.08 217 360.01C217.22 360.01 217.43 360.1 217.65 360.01C217.53 359.91 217.37 359.86 217.28 359.72C217.19 359.58 217.4 359.6 217.43 359.51C217.26 359.3 217.06 359.12 216.89 358.91C216.289 358.473 215.61 358.154 214.89 357.97C214.73 358.06 214.57 357.97 214.4 357.97C214.62 358.25 214.92 358.3 215.09 358.53Z" fill="white"/>
<path d="M254.74 446.01C254.87 445.62 254.98 445.21 255.06 444.92C255.29 444.09 255.23 443.92 255.06 443.92C254.644 444.185 254.336 444.589 254.19 445.06C254.184 445.116 254.184 445.173 254.19 445.23C254.014 445.825 253.916 446.44 253.9 447.06C253.9 447.2 253.9 447.33 253.96 447.37C254.24 447.51 254.54 446.8 254.78 446.06C254.73 446.04 254.73 446.02 254.74 446.01Z" fill="white"/>
<path d="M260.42 452.27C260.22 452.73 260.22 452.73 260.13 452.8V452.87C260.02 453.086 259.926 453.31 259.85 453.54C259.759 453.731 259.649 453.912 259.52 454.08C259.363 454.267 259.235 454.476 259.14 454.7C258.74 455.63 258.41 456.61 258.08 457.57C257.88 458.13 257.68 458.7 257.45 459.26C257.518 459.2 257.575 459.129 257.62 459.05C257.614 459.09 257.614 459.13 257.62 459.17L258.83 456.63C259.34 455.49 259.95 453.94 260.42 452.77L261.21 450.49C261.05 450.92 260.87 451.37 260.71 451.74C260.55 452.11 260.42 452.27 260.42 452.27Z" fill="white"/>
<path d="M263.92 438.83C264.146 438.225 264.271 437.586 264.29 436.94C264.132 437.563 264.009 438.194 263.92 438.83V438.83Z" fill="white"/>
<path d="M261.14 450.45C261.5 449.45 261.79 448.55 261.8 448.53V448.44L261.14 450.45Z" fill="white"/>
<path d="M264.83 420.24C263.78 412.12 263.78 412.12 262.75 408.15C260.44 400.52 260.44 400.52 258.83 396.84C257.67 394.5 256.14 391.39 254.83 389.13L253.21 386.45C248.73 380.11 248.73 380.11 246.07 377.15C240.8 371.71 240.69 371.6 237.58 369.06L235.9 367.79C233.386 365.756 230.71 363.93 227.9 362.33L223.76 360.09C222.7 359.54 221.87 359.09 220.39 358.47C221.3 358.89 221.68 359.09 221.93 359.21C222.84 359.72 223.81 360.13 224.68 360.71L223.97 360.35C223.78 360.27 223.61 360.18 223.43 360.09L222.84 359.86C223.385 360.252 223.953 360.613 224.54 360.94C224.93 361.17 224.93 361.17 227.09 362.58C228.3 363.43 228.3 363.43 228.46 363.75C228.334 363.77 228.206 363.77 228.08 363.75L228.02 363.91C229.3 365.22 231.26 365.6 232.42 367.07C231.562 366.699 230.742 366.247 229.97 365.72C229.49 365.4 229.49 365.4 229.24 365.4L229.18 365.59L230.29 366.59C229.13 366.01 228.55 364.59 227.12 364.4C227.82 365.12 228.91 365.4 229.4 366.4C229.404 366.457 229.404 366.513 229.4 366.57L230.1 367.36L231.03 367.96C233.44 370.63 233.88 371.11 234.31 370.96L234.43 371.1C234.434 371.043 234.434 370.987 234.43 370.93C234.638 370.958 234.836 371.035 235.01 371.153C235.183 371.271 235.327 371.427 235.43 371.61C235.22 371.61 235.22 371.61 234.89 371.5H234.83V371.69C235.4 372.4 236.31 372.69 236.83 373.53H236.44L236.86 374.03C237.04 374.28 237.27 374.49 237.45 374.74L237.29 374.85C237.29 375.07 237.29 375.07 237.37 375.47H236.96C236.784 375.445 236.606 375.445 236.43 375.47L236.27 375.39C238.2 377.96 239.58 378.83 241.06 381.01C239.58 378.83 238.17 377.95 236.16 375.32C235.96 375.32 235.35 374.97 235.59 374.6C235.95 374.6 236.24 375.03 236.59 374.76C236.521 374.482 236.391 374.222 236.21 374C236.13 373.66 235.99 373 234.06 371.31L233.3 370.57C232.77 370.17 232.42 369.57 231.9 369.17C231.22 368.65 230.67 368.01 230.01 367.48C229.51 367.14 229.28 366.57 228.83 366.18L227.83 365.32C226.83 364.78 226.03 363.85 224.83 363.64H224.69C224.675 363.685 224.675 363.735 224.69 363.78V363.84C225.349 364.633 226.098 365.347 226.92 365.97C226.915 366.06 226.915 366.15 226.92 366.24C227.18 366.442 227.397 366.694 227.56 366.98L227.32 367.13C227.32 367.13 229.32 370.25 231.94 371.02C232.179 371.05 232.397 371.17 232.549 371.357C232.702 371.543 232.777 371.78 232.76 372.02V372.02C232.38 371.82 232.07 371.53 231.7 371.31H231.62L230.47 370.77L230.26 370.71C228.35 369.99 226.57 368.97 224.67 368.21C225.59 369.46 227.14 369.91 228.2 370.94C228.01 370.94 228.01 370.94 226.28 369.88C226.396 370.113 226.541 370.332 226.71 370.53C226.71 370.61 226.64 370.73 226.61 370.81L226.49 370.87C226.3 370.76 226.3 370.76 225.43 370.19C225.352 370.636 225.318 371.088 225.33 371.54L225.22 371.62C224.6 371.3 224.3 370.43 223.4 370.62C222.83 371.53 222.83 371.53 222.7 371.57C222.6 371.87 222.35 372.1 222.24 372.39C222.47 372.87 222.45 372.9 222.24 373.24C222.42 373.56 222.42 373.56 222.87 374.24C220.87 374.15 220.76 373.35 220.68 372.82C220.9 372.82 221.2 372.74 221.42 372.72C221.425 372.63 221.425 372.54 221.42 372.45C219.79 370.99 219.31 371.08 218.51 371.23C218.58 371.407 218.671 371.574 218.78 371.73C218.78 371.81 218.78 371.92 218.78 372.01L219.01 372.23C218.87 372.7 218.87 372.7 219.95 373.72C220.54 374.15 220.54 374.16 220.7 374.51C218.9 375.38 218.9 375.38 218.83 375.57C218.52 376.46 219.56 376.83 219.61 377.57C219.14 377.72 219.14 377.72 218.06 377.12L217.3 376.72C217.009 376.59 216.704 376.496 216.39 376.44H216.17C216.07 376.88 216.31 377.28 216.31 377.71C216 377.63 216 377.63 215.03 376.83C214.35 376.46 214.48 376.22 214.71 375.83C214.61 375.59 214.61 375.59 212.14 374.15C212.2 374.09 212.28 374.02 212.33 373.96C213.27 374.2 213.96 375.25 215.1 374.75C216.94 375.54 216.94 375.54 217.65 375.61C217.85 375.38 217.99 375.1 218.17 374.86C218.48 374.14 218.48 374.14 218.17 373.28C217.86 372.42 217.74 372.52 214.17 370.95C212.88 370.39 209.69 369.23 209.66 369.22C208.86 368.95 208.24 369.62 207.47 369.59C207.31 369.24 207.31 369.24 207.61 368.77L208.28 368.62C208.28 368.53 208.28 368.42 208.36 368.33C207.113 367.775 205.781 367.437 204.42 367.33H204.33C202.71 366.94 202.71 366.94 201.21 368.27L201.02 368.37C200.42 368.62 198.83 369.5 198.83 369.5C197.89 369.95 197.24 370.83 196.2 371.13C196.05 371.55 196.3 371.96 196.2 372.37C195.1 372.53 195.1 372.53 194.99 373.02C194.903 373.186 194.865 373.373 194.88 373.56L195.16 373.63H195.65C196.29 373.57 196.51 372.75 197.21 372.82C197.264 373.099 197.38 373.362 197.55 373.59C197.14 374.06 196.49 374.07 195.99 374.36C195.895 374.961 195.68 375.537 195.357 376.052C195.033 376.568 194.609 377.013 194.11 377.36C194.11 378.02 194.57 378.66 194.2 379.36C192.11 379.72 191.01 381.22 191.09 381.77C190.72 382.19 190.09 381.97 189.71 382.21C189.55 382.866 189.456 383.536 189.43 384.21L190.17 387.06C190.312 387.258 190.43 387.473 190.52 387.7C190.95 388.198 191.415 388.666 191.91 389.1C192.11 389.18 193.26 389.53 193.85 389.1C193.895 389.075 193.934 389.04 193.965 388.999C193.996 388.958 194.018 388.91 194.03 388.86C194.58 387.46 195.23 387.33 195.92 387.19C196.61 387.05 196.77 388.05 197.23 388.44C197.13 388.69 197.13 388.69 197.14 388.76C197.15 388.83 197.3 388.83 197.56 389.49C197.69 389.66 197.66 389.91 197.82 390.07C198.82 391.12 198.82 391.12 198.93 391.56C199.04 392 199.05 392.06 200.47 392.56C200.602 392.382 200.682 392.171 200.7 391.95C200.7 391.64 200.7 391.6 201.53 391.39C202.98 391 203.13 390.95 203.19 390.84C203.314 390.348 203.314 389.832 203.19 389.34C203.13 389.16 203.19 388.96 203.07 388.79C202.95 388.62 202.45 388.5 202.4 388.11C202.31 387.46 202.54 387.48 202.92 387.53C203.3 387.58 203.44 387.53 203.48 387.24C203.61 386.882 203.792 386.545 204.02 386.24C200.91 386.39 197.7 386.58 194.41 386.81C197.7 386.58 200.91 386.39 204.03 386.22C204.46 385.64 204.46 385.64 204.48 385.39C203.82 384.82 203.82 384.82 202.21 384.39C202.21 384.19 202.12 383.99 202.07 383.78C202.02 383.57 201.74 383.24 201.58 382.97C201.74 382.69 202.03 382.54 202.19 382.27L202.02 382.02L202.31 381.78L202.41 381.28L202.52 380.88C202.52 380.81 202.52 380.7 202.58 380.63H202.87C203.2 380.2 203.2 380.2 203.49 380.09C203.49 379.43 203.56 379.4 204.1 379.21C204.45 378.33 204.45 378.33 204.16 377C205.69 375.74 207.09 376.21 206.86 377.46C206.63 378.71 205.22 379.24 204.63 380.3C204.63 380.3 205.43 383.12 205.54 384.09L206.07 384.18C206.373 384.498 206.762 384.72 207.19 384.82H207.37C207.903 384.889 208.42 385.048 208.9 385.29C210.39 385.51 212.56 383.29 213.37 385.18C213.04 385.514 212.63 385.758 212.18 385.89L209.85 385.98C209.279 385.921 208.703 385.948 208.14 386.06C207.75 386.24 207.33 386.36 206.94 386.53C206.81 388.34 209.94 387.47 209.7 389.27C209.09 388.834 208.415 388.496 207.7 388.27C207.54 388.84 207.54 388.84 206.49 389.27C206.555 389.56 206.605 389.854 206.64 390.15L206.89 390.61C206.95 391.16 207.04 391.71 207.07 392.27L205.98 392.58C205.98 392.73 205.98 392.92 205.9 393.06L205.49 393.24C205.029 392.946 204.531 392.714 204.01 392.55C203.3 393.16 202.35 393.39 201.63 393.99C199.63 393.82 198.63 391.54 196.42 391.82H196.24C194.35 391.41 194.35 391.41 194.07 392.1L194.41 392.48C194.289 392.774 194.109 393.039 193.88 393.26L193.95 393.37L194.01 393.43C194.169 393.65 194.266 393.909 194.29 394.18C193.69 394.5 193.69 394.5 192.48 394.18C192.139 394.135 191.793 394.16 191.463 394.255C191.132 394.35 190.825 394.511 190.56 394.73C190.585 395.38 190.652 396.028 190.76 396.67C190.16 397.35 189.96 398.28 189.27 398.91H189.1L188.24 398.97C188.12 399.16 187.95 399.4 187.82 399.59C188.027 399.757 188.244 399.91 188.47 400.05C187.16 401.05 187.16 401.05 186.62 401.16C186.57 401.27 186.52 401.41 186.47 401.52L186.07 401.62L185.14 400.96C184.06 400.73 184.09 401.31 184.14 402.17C183.01 402.17 183.01 402.17 182.72 402.7C181.72 402.45 181.72 402.45 181.35 402.82C181.4 403.1 181.4 403.1 182.28 404.29C182.545 404.292 182.809 404.268 183.07 404.22C185.25 405.76 185.25 405.76 185.79 408.51C185.37 408.87 185.18 409.4 184.79 409.78L184.38 409.71C184.38 409.71 179.2 408.08 177.63 410.49C178.34 412.68 177.82 414.98 178.24 417.2C178.378 417.465 178.59 417.684 178.85 417.83C179.64 418.14 179.98 417.05 180.74 417.24C181.5 417.43 181.57 418.24 182.04 418.63L182.25 418.69H182.3C182.979 418.471 183.647 418.218 184.3 417.93H184.47C185.169 417.881 185.842 417.649 186.423 417.257C187.004 416.866 187.472 416.329 187.78 415.7C187.56 413.35 187.56 413.35 187.9 412.8H188.29L188.44 412.98H188.53C188.658 412.966 188.781 412.925 188.891 412.859C189.001 412.794 189.096 412.705 189.17 412.6L189.51 412.23C190.33 411.57 191.11 410.81 191.11 410.8L191.26 410.56C191.4 410.01 191.26 409.45 191.34 408.9C194.81 409.2 194.81 409.2 195.18 408.84L195.45 408.66H195.52L195.77 408.38C195.77 408.27 195.77 408.12 195.77 408.01L196.08 407.79H196.14C196.14 407.69 196.22 407.54 196.25 407.44L196.77 407.26C198.62 408.48 198.62 408.48 198.66 408.67C199.09 408.9 199.09 408.9 199.31 409.67C199.544 409.745 199.796 409.745 200.03 409.67C200.303 409.888 200.551 410.137 200.77 410.41L201.45 410.9L201.89 411.18L202.36 411.29L202.67 411.48L203.1 411.62C204.88 412.18 204.88 412.18 205.43 413.34C205.177 413.629 204.858 413.852 204.5 413.99C203.393 414.09 202.296 414.28 201.22 414.56V414.94C202.77 415.69 202.77 415.69 203.11 415.58C203.312 415.787 203.556 415.948 203.824 416.055C204.093 416.162 204.381 416.211 204.67 416.2C204.817 416.023 204.92 415.814 204.97 415.59C204.97 415.46 204.97 415.28 204.92 415.15C206.65 413.46 206.65 413.46 206.45 412.35L206.22 412.06V411.92L206.35 411.8C207.02 411.97 207.56 412.51 208.35 412.41V412.24L208.28 411.99L208.07 411.67V411.46V411.1L207.97 410.92L207.79 410.84L207.41 410.99C206.56 410.58 205.41 410.1 205.41 410.1L204.41 409.9L203.7 409.58C203.6 409.11 203.54 408.86 202.38 407.99C202.38 407.86 202.38 407.69 202.33 407.56C201.42 407.56 201.42 407.56 201.17 407.38C201.17 406.92 201.17 406.92 201.56 406.28C201.814 406.271 202.067 406.319 202.3 406.42L202.57 406.47C203.57 407.61 205.16 408.07 206.24 409.15C207.65 409.49 207.65 409.49 208.99 411.68C209.062 411.897 209.105 412.122 209.12 412.35C209.46 412.93 209.52 412.96 209.94 413.16L210.23 412.93C211.02 413.77 211.23 414.93 211.8 415.86C212.441 415.517 213.11 415.229 213.8 415C213.8 414.89 213.89 414.74 213.93 414.63C214.376 414.447 214.807 414.23 215.22 413.98C215.005 413.745 214.759 413.54 214.49 413.37C214.49 413.26 214.49 413.1 214.49 412.98L213.62 412.29L213.93 412.08C214.19 412.17 214.53 412.32 214.77 412.42C215.77 411.55 217.52 409.93 217.66 412.2C217.65 412.449 217.677 412.699 217.74 412.94C217.06 413.04 216.81 413.08 216.4 414.13C217.4 415.49 219.21 415.48 220.49 416.38C221.01 416.18 221.3 415.66 221.81 415.38C222.81 415.89 222.81 415.93 223 416.45C222.81 416.65 222.56 416.92 222.38 417.13C222.38 417.24 222.38 417.39 222.38 417.5C223.6 418.17 223.79 417.82 224.23 416.96C224.04 416.64 223.7 416.46 223.53 416.12C224.64 414.53 225.3 415.12 225.69 415.43C225.37 421.05 224.4 421.26 222.94 421.58C222.896 421.702 222.846 421.823 222.79 421.94C222.79 421.94 226.79 427.14 227.53 428.25C227.53 428.38 227.35 428.56 227.4 428.68C227.96 429.98 229.24 430.92 229.33 432.45C229.42 432.58 229.42 432.58 230.33 433.37C230.24 434.72 230.23 434.92 231.22 435.23C231.317 435.519 231.438 435.8 231.58 436.07C231.65 436.17 231.76 436.29 231.83 436.38C231.886 436.507 231.916 436.645 231.916 436.785C231.916 436.924 231.886 437.062 231.83 437.19C231.29 438.72 232.65 439.07 234.38 439.52C235.3 439.25 236.13 438.74 237.03 438.42H237.09C237.33 438.317 237.561 438.193 237.78 438.05H237.95C240.67 437.44 244.52 428.86 244.52 428.78C243.99 428.66 243.99 428.66 242.66 427.52C242.453 427.681 242.259 427.858 242.08 428.05C241.56 428.05 241.56 428.05 241.02 428.51C240.13 428.45 240.13 428.45 239.07 426.41C237.79 426.05 236.69 423.06 236.69 423.03C237.1 422.94 237.53 422.89 237.94 422.79C238.228 423.143 238.454 423.542 238.61 423.97C238.79 424.3 239.07 424.73 239.28 425.03L239.59 425.26L240.03 425.59C240.08 425.59 245.76 428.37 245.88 428.29L249.95 429C250.88 429.53 250.51 430.76 251.29 431.38C251.296 431.658 251.273 431.937 251.22 432.21C251.22 432.11 251.33 432.38 251.37 432.45C251.59 432.74 251.68 433.13 252.03 433.32C252.38 433.2 252.38 433.2 252.8 432.62C253.26 433.54 253.16 438.1 253.14 438.32C253.02 439.359 252.973 440.405 253 441.45C253.26 442.53 252.71 443.76 253.61 444.72C254.48 444.31 254.54 444.16 254.73 443.72C254.833 443.491 254.917 443.253 254.98 443.01L255.34 442.54C255.39 442.31 255.45 442.07 255.5 441.84L255.66 441.54C255.921 441.005 256.045 440.414 256.02 439.82C256.46 438.46 256.46 438.46 256.73 438.12L257.04 437.81C257.209 437.639 257.401 437.491 257.61 437.37C257.61 437.26 257.61 437.15 257.66 437.05C258.502 435.888 259.267 434.672 259.95 433.41L260.31 433.35C260.381 433.608 260.428 433.873 260.45 434.14L261.23 433.93C261.29 434.06 261.29 434.06 261.23 439.34C261.71 439.1 261.71 439.1 261.93 438.09C262.04 438.42 262.04 438.42 260.93 444.34C260.3 446.493 259.865 448.699 259.63 450.93C259.64 451.04 259.672 451.146 259.726 451.243C259.779 451.339 259.852 451.423 259.94 451.49C260.54 449.72 260.54 449.72 260.84 448.7L260.75 448.48C260.62 447.31 260.98 446.1 262.04 442.48C262.39 443.25 261.88 445.56 261.86 445.65C261.733 446.022 261.652 446.408 261.62 446.8C261.812 446.477 261.985 446.143 262.14 445.8C263.24 443.45 263.28 440.85 263.66 438.33C263.664 438.263 263.664 438.197 263.66 438.13C263.804 437.155 264.045 436.197 264.38 435.27C264.41 435.522 264.41 435.778 264.38 436.03C264.421 435.769 264.491 435.514 264.59 435.27V435.14C265.18 427.77 265.26 426.63 264.83 420.24Z" fill="white"/>
<path d="M231.58 460.01C231.53 460.01 231.48 460.06 231.43 460.08C231.274 460.218 231.13 460.368 231 460.53C230.79 460.75 230.56 461.06 230.09 461.68C228.89 463.28 228.37 463.95 228.09 464.21C227.99 464.3 227.96 464.29 227.92 464.27C227.88 464.25 227.77 463.77 227.5 463.84H227.44C227.412 463.862 227.388 463.889 227.37 463.92C227.27 463.98 227.26 464.1 227.2 464.2C226.88 464.4 226.44 464.35 226.2 464.65C226.15 464.682 226.106 464.722 226.07 464.77C225.623 465.454 225.364 466.244 225.32 467.06C225.331 467.359 225.3 467.659 225.23 467.95C225.158 468.105 225.048 468.24 224.91 468.34C224.72 468.48 224.52 468.59 224.35 468.74C224.22 468.832 224.105 468.943 224.01 469.07L222.91 472.69C223.05 472.84 223.41 473.21 224.74 472.22C225.324 471.78 225.872 471.295 226.38 470.77C227.284 469.575 228.058 468.288 228.69 466.93C228.967 466.462 229.267 466.008 229.59 465.57C229.68 465.5 229.83 465.41 229.91 465.36C230.054 465.294 230.184 465.198 230.29 465.08C230.44 464.96 230.49 464.82 230.61 464.37C230.682 464.091 230.772 463.817 230.88 463.55C230.912 463.539 230.947 463.539 230.98 463.55H231.09C231.103 463.518 231.12 463.488 231.14 463.46V463.46C231.54 462.8 231.71 462.03 232.14 461.38C232.34 461.06 231.83 459.99 231.58 460.01Z" fill="white"/>
<path d="M644.47 475.96H353.17V596.7H644.47V475.96Z" fill="#B0B1B2"/>
<path d="M644.47 475.96H353.17V517.51H644.47V475.96Z" fill="#B0B1B2"/>
<path d="M674.94 462.01H322.72V502.64H674.94V462.01Z" fill="#B0B1B2"/>
<path d="M593.59 572.07H404.07V596.7H593.59V572.07Z" fill="#B0B1B2"/>
<path d="M645.03 596.7H421.39L324.29 462.01H675.5V502.64H645.03V596.7Z" fill="#B0B1B2"/>
<path d="M175.3 392.61C172.227 392.61 169.208 393.419 166.547 394.956C163.887 396.493 161.677 398.703 160.142 401.365C158.606 404.027 157.798 407.046 157.8 410.119C157.801 413.191 158.612 416.21 160.15 418.87L175.3 445.13L190.46 418.87C191.999 416.209 192.809 413.19 192.81 410.116C192.812 407.042 192.003 404.023 190.466 401.361C188.929 398.699 186.719 396.488 184.056 394.952C181.394 393.416 178.374 392.608 175.3 392.61V392.61ZM175.3 414.49C174.176 414.436 173.116 413.952 172.339 413.137C171.563 412.323 171.129 411.24 171.129 410.115C171.129 408.99 171.563 407.907 172.339 407.093C173.116 406.278 174.176 405.794 175.3 405.74V405.74C175.892 405.712 176.484 405.804 177.039 406.011C177.595 406.218 178.103 406.536 178.532 406.945C178.961 407.354 179.302 407.846 179.536 408.391C179.769 408.936 179.889 409.522 179.889 410.115C179.889 410.708 179.769 411.294 179.536 411.839C179.302 412.384 178.961 412.876 178.532 413.285C178.103 413.694 177.595 414.012 177.039 414.219C176.484 414.426 175.892 414.518 175.3 414.49V414.49Z" fill="#B0B1B2"/>
<path d="M180.57 409.66C180.57 410.702 180.261 411.721 179.682 412.588C179.103 413.455 178.28 414.13 177.317 414.529C176.354 414.928 175.294 415.032 174.272 414.829C173.25 414.625 172.311 414.123 171.574 413.386C170.837 412.649 170.335 411.71 170.131 410.688C169.928 409.666 170.032 408.606 170.431 407.643C170.83 406.68 171.505 405.857 172.372 405.278C173.239 404.699 174.258 404.39 175.3 404.39C176.698 404.39 178.038 404.945 179.026 405.934C180.015 406.922 180.57 408.262 180.57 409.66V409.66Z" fill="white"/>
<path d="M210.14 500.61H591.94C597.122 500.61 602.093 502.669 605.757 506.333C609.421 509.998 611.48 514.968 611.48 520.15V727.92C611.48 733.102 609.421 738.072 605.757 741.737C602.093 745.401 597.122 747.46 591.94 747.46H210.14C204.96 747.46 199.993 745.402 196.33 741.74C192.668 738.077 190.61 733.11 190.61 727.93V520.15C190.61 514.969 192.667 510.001 196.33 506.337C199.992 502.672 204.96 500.613 210.14 500.61Z" fill="#B19A77"/>
<path d="M592 500.61H210.17C204.994 500.623 200.035 502.685 196.375 506.345C192.715 510.005 190.653 514.964 190.64 520.14V729.45C190.653 734.627 192.715 739.588 196.374 743.249C200.034 746.91 204.994 748.974 210.17 748.99H592C597.177 748.974 602.136 746.91 605.796 743.249C609.455 739.588 611.517 734.627 611.53 729.45V520.14C611.517 514.964 609.455 510.005 605.795 506.345C602.136 502.685 597.176 500.623 592 500.61V500.61ZM593.34 729.44C593.328 729.791 593.182 730.125 592.934 730.374C592.685 730.622 592.352 730.768 592 730.78H210.17C209.819 730.768 209.485 730.622 209.236 730.374C208.988 730.125 208.843 729.791 208.83 729.44V520.14C208.845 519.789 208.991 519.457 209.239 519.209C209.487 518.961 209.819 518.815 210.17 518.8H592C592.351 518.815 592.683 518.961 592.931 519.209C593.179 519.457 593.325 519.789 593.34 520.14V729.44Z" fill="#5B5B5C"/>
<path fill-rule="evenodd" clip-rule="evenodd" d="M150.23 746.95C149.698 748.608 149.428 750.339 149.43 752.08C149.443 756.593 151.245 760.917 154.441 764.104C157.637 767.29 161.967 769.08 166.48 769.08H635.64C640.145 769.067 644.461 767.271 647.646 764.086C650.831 760.901 652.627 756.585 652.64 752.08C652.642 750.339 652.372 748.608 651.84 746.95H150.23Z" fill="#5B5B5C"/>
<path d="M462.47 758.04C462.47 758.634 462.234 759.204 461.814 759.624C461.394 760.044 460.824 760.28 460.23 760.28H349.39C349.095 760.281 348.803 760.224 348.53 760.112C348.257 760 348.009 759.836 347.8 759.628C347.591 759.419 347.425 759.172 347.312 758.9C347.198 758.627 347.14 758.335 347.14 758.04V758.04C347.14 757.443 347.377 756.871 347.799 756.449C348.221 756.027 348.793 755.79 349.39 755.79H460.23C460.825 755.793 461.395 756.031 461.815 756.453C462.234 756.874 462.47 757.445 462.47 758.04V758.04Z" fill="white"/>
<path d="M347.44 385.21C347.325 376.829 345.118 368.609 341.022 361.297C336.926 353.984 331.068 347.81 323.981 343.334C316.895 338.858 308.803 336.222 300.439 335.665C292.076 335.108 283.706 336.648 276.088 340.145C268.471 343.642 261.847 348.986 256.817 355.691C251.787 362.396 248.511 370.251 247.286 378.543C246.06 386.835 246.924 395.301 249.8 403.174C252.675 411.048 257.47 418.079 263.75 423.63H263.38C270.129 431.493 273.933 441.459 274.14 451.82L321.35 451.18C321.272 440.956 324.707 431.015 331.08 423.02C336.326 418.233 340.496 412.388 343.317 405.87C346.137 399.352 347.542 392.311 347.44 385.21Z" fill="#D4CCC3" fill-opacity="0.8"/>
<path d="M270.29 382.61C270.165 382.41 269.997 382.24 269.798 382.112C269.599 381.984 269.375 381.902 269.14 381.872C268.906 381.841 268.668 381.863 268.443 381.935C268.218 382.007 268.012 382.129 267.84 382.29C267.471 382.651 267.241 383.13 267.19 383.644C267.138 384.158 267.269 384.673 267.56 385.1C267.867 385.553 268.201 385.987 268.56 386.4L287.18 451.59C287.267 451.97 287.477 452.311 287.777 452.56C288.077 452.81 288.45 452.954 288.84 452.97C289.025 452.971 289.208 452.937 289.38 452.87C289.846 452.661 290.217 452.286 290.422 451.819C290.627 451.351 290.651 450.824 290.49 450.34L273.3 390.11C277.47 392.44 282.69 393.51 286.95 391.96C287.847 391.634 288.695 391.186 289.47 390.63C291.579 392.232 294.151 393.106 296.8 393.12C299.945 393.131 302.981 391.965 305.31 389.85C306.689 390.68 308.172 391.322 309.72 391.76C314.61 393.18 318.92 392.84 322.52 390.82L305.52 450.34C305.365 450.825 305.393 451.349 305.597 451.814C305.802 452.28 306.169 452.655 306.63 452.87C306.809 452.937 306.999 452.971 307.19 452.97C307.578 452.951 307.949 452.807 308.247 452.557C308.545 452.308 308.753 451.968 308.84 451.59L327.49 386.29C327.65 386.08 327.82 385.9 327.97 385.68C328.257 385.251 328.385 384.736 328.333 384.223C328.28 383.709 328.049 383.231 327.68 382.87C327.507 382.709 327.3 382.588 327.075 382.517C326.85 382.445 326.611 382.425 326.377 382.456C326.143 382.488 325.918 382.571 325.72 382.699C325.522 382.828 325.354 382.999 325.23 383.2C321.86 388.2 316.93 389.72 310.59 387.88C309.614 387.594 308.667 387.219 307.76 386.76C308.823 384.857 309.339 382.698 309.25 380.52C309.1 376.17 307.81 372.97 305.72 371.75C305.153 371.4 304.491 371.235 303.827 371.278C303.162 371.321 302.527 371.57 302.01 371.99C300.17 373.4 299.28 376.59 299.55 380.76C299.698 383.218 300.678 385.553 302.33 387.38C300.836 388.403 299.083 388.981 297.274 389.046C295.464 389.112 293.674 388.662 292.11 387.75C293.357 385.623 294.045 383.215 294.11 380.75C294.3 376.87 293.25 373.75 291.32 372.33C290.747 371.898 290.053 371.656 289.336 371.639C288.619 371.621 287.914 371.827 287.32 372.23C285.32 373.52 284.26 376.59 284.32 380.68C284.369 383.253 285.207 385.748 286.72 387.83C286.459 387.96 286.192 388.077 285.92 388.18C280.72 390.04 273.11 386.68 270.29 382.61ZM304 375.32C304 375.32 304 375.32 304.07 375.32C304.109 375.31 304.151 375.31 304.19 375.32C304.69 375.62 305.69 377.13 305.81 380.69C305.863 382.044 305.541 383.387 304.88 384.57C303.824 383.445 303.191 381.989 303.09 380.45C302.86 377.36 303.5 375.69 304 375.32ZM289.09 375.68C289.145 375.638 289.211 375.613 289.28 375.61C289.363 375.619 289.442 375.65 289.51 375.7C290 376.06 290.8 377.46 290.65 380.49C290.634 382.144 290.219 383.77 289.44 385.23C288.446 383.876 287.891 382.249 287.85 380.57C287.78 377.38 288.59 376 289.07 375.68H289.09Z" fill="white"/>
<path d="M320.05 449.93L275.05 450.54C274.75 450.544 274.453 450.607 274.177 450.726C273.902 450.845 273.652 451.017 273.443 451.233C273.234 451.448 273.069 451.703 272.959 451.982C272.849 452.261 272.795 452.56 272.8 452.86L273.03 470.02C273.04 470.626 273.29 471.202 273.725 471.624C274.16 472.046 274.744 472.278 275.35 472.27L283.61 472.16L287.98 479.5L307.93 479.23L312.1 471.77L320.36 471.65C320.966 471.642 321.543 471.395 321.967 470.962C322.39 470.529 322.625 469.946 322.62 469.34L322.38 452.19C322.376 451.888 322.313 451.591 322.193 451.314C322.074 451.037 321.901 450.786 321.684 450.576C321.468 450.366 321.212 450.201 320.932 450.09C320.651 449.979 320.351 449.925 320.05 449.93V449.93Z" fill="#8A7659"/>
<path d="M322.69 454.57H272.7V458.44H322.69V454.57Z" fill="#B19A77"/>
<path d="M322.69 464.26H272.7V468.13H322.69V464.26Z" fill="#B19A77"/>
<path d="M95.63 346.45C80.5116 346.45 65.7327 341.967 53.1622 333.568C40.5917 325.168 30.7942 313.23 25.0086 299.262C19.223 285.295 17.7093 269.925 20.6588 255.097C23.6082 240.269 30.8884 226.649 41.5787 215.959C52.269 205.268 65.8894 197.988 80.7173 195.039C95.5452 192.089 110.915 193.603 124.882 199.389C138.85 205.174 150.788 214.972 159.188 227.542C167.587 240.113 172.07 254.892 172.07 270.01C172.046 290.276 163.985 309.705 149.655 324.035C135.325 338.365 115.896 346.426 95.63 346.45Z" fill="#8A7659"/>
<path d="M95.63 331.15C83.5397 331.15 71.7208 327.565 61.668 320.848C51.6152 314.131 43.7801 304.584 39.1533 293.413C34.5265 282.243 33.3159 269.952 35.6746 258.094C38.0333 246.236 43.8554 235.344 52.4046 226.795C60.9538 218.245 71.8461 212.423 83.7041 210.065C95.5622 207.706 107.853 208.916 119.023 213.543C130.194 218.17 139.741 226.005 146.458 236.058C153.175 246.111 156.76 257.93 156.76 270.02C156.742 286.227 150.295 301.765 138.835 313.225C127.375 324.685 111.837 331.132 95.63 331.15V331.15Z" fill="white"/>
<path d="M95.6301 315.84C86.5677 315.84 77.7089 313.153 70.1738 308.118C62.6388 303.083 56.7659 295.927 53.2979 287.555C49.8299 279.182 48.9225 269.969 50.6905 261.081C52.4585 252.193 56.8224 244.028 63.2304 237.62C69.6385 231.212 77.8028 226.848 86.691 225.08C95.5793 223.312 104.792 224.22 113.165 227.688C121.537 231.156 128.693 237.029 133.728 244.564C138.763 252.099 141.45 260.958 141.45 270.02C141.437 282.168 136.605 293.815 128.015 302.405C119.425 310.995 107.778 315.827 95.6301 315.84V315.84Z" fill="#8A7659"/>
<path d="M95.6301 300.53C89.5958 300.53 83.697 298.741 78.6797 295.388C73.6624 292.036 69.7518 287.271 67.4426 281.696C65.1333 276.121 64.5291 269.986 65.7064 264.068C66.8836 258.149 69.7894 252.713 74.0563 248.446C78.3232 244.179 83.7596 241.273 89.6779 240.096C95.5963 238.919 101.731 239.523 107.306 241.832C112.881 244.142 117.646 248.052 120.998 253.07C124.351 258.087 126.14 263.986 126.14 270.02C126.13 278.109 122.912 285.863 117.192 291.582C111.473 297.302 103.719 300.519 95.6301 300.53Z" fill="#F1F1F1"/>
<path d="M110.83 270.02C110.832 273.029 109.941 275.971 108.271 278.474C106.6 280.977 104.225 282.928 101.445 284.08C98.6655 285.233 95.6064 285.535 92.6551 284.948C89.7037 284.362 86.9926 282.913 84.8648 280.785C82.7371 278.657 81.2883 275.946 80.7017 272.995C80.1151 270.043 80.4172 266.984 81.5696 264.205C82.7221 261.425 84.6731 259.05 87.1759 257.379C89.6787 255.709 92.6208 254.818 95.6299 254.82C99.6604 254.823 103.525 256.425 106.375 259.275C109.225 262.125 110.827 265.989 110.83 270.02V270.02Z" fill="#8A7659"/>
<path d="M163.63 204.94L184.6 208.65L204.44 189.57L182.75 187.11L163.63 204.94Z" fill="#D4CCC3" fill-opacity="0.8"/>
<g style="mix-blend-mode:soft-light">
<path d="M176.38 192.03L198.45 195.43L197.72 196.2L175.23 193.06L176.38 192.03Z" fill="#011E41"/>
</g>
<g style="mix-blend-mode:soft-light">
<path d="M169.01 198.96L191.36 202.29L190.19 203.07L167.86 199.99L169.01 198.96Z" fill="#011E41"/>
</g>
<path d="M160.8 202.55L157.09 181.58L176.17 161.74L178.63 183.43L160.8 202.55Z" fill="#D4CCC3" fill-opacity="0.8"/>
<g style="mix-blend-mode:soft-light">
<path d="M173.71 189.8L170.31 167.73L169.55 168.46L172.69 190.95L173.71 189.8Z" fill="#011E41"/>
</g>
<g style="mix-blend-mode:soft-light">
<path d="M166.78 197.16L163.45 174.82L162.68 175.99L165.75 198.32L166.78 197.16Z" fill="#011E41"/>
</g>
<path d="M97.8799 272.25C97.2434 272.844 96.3969 273.161 95.5267 273.131C94.6566 273.101 93.834 272.726 93.2399 272.09C92.6458 271.453 92.3289 270.607 92.3589 269.737C92.3889 268.867 92.7634 268.044 93.3999 267.45V267.45L178.48 182.71L182.82 187.04L97.8799 272.25Z" fill="#8A7659"/>
<g style="mix-blend-mode:darken">
<path d="M44.6899 213.45C42.5899 215.13 42.4299 215.63 39.6299 218.07L92.6999 271.27L95.1299 268.56L97.3399 266.63L44.6899 213.45Z" fill="#CAC8C8"/>
</g>
<path d="M45.1899 665.45C45.1899 669.52 48.0599 672.82 51.5399 672.82C55.0199 672.82 57.85 669.52 57.89 665.45H45.1899Z" fill="#D4CCC3" fill-opacity="0.8"/>
<path d="M57.8902 536.43H45.1802V661.06H57.8902V536.43Z" fill="#B19A77"/>
<path d="M53.1702 536.43H49.9102V661.06H53.1702V536.43Z" fill="#B19A77"/>
<path d="M57.8902 657.7H45.1802V665.51H57.8902V657.7Z" fill="white"/>
<path d="M48.9699 519.04L45.1499 536.45H57.9299L54.1099 519.04H48.9699Z" fill="white"/>
<path d="M54.12 519.14L51.53 507.34L48.96 519.14H54.12Z" fill="#B19A77"/>
<path d="M234.45 714.93H66.4503C62.0582 714.925 57.8476 713.177 54.7429 710.07C51.6381 706.964 49.8929 702.752 49.8903 698.36V697.77C49.8956 693.38 51.6419 689.171 54.7464 686.066C57.8509 682.962 62.0599 681.215 66.4503 681.21H234.45V674.11H66.4503C60.1767 674.118 54.1623 676.613 49.7253 681.048C45.2884 685.483 42.7909 691.497 42.7803 697.77V698.36C42.7882 704.635 45.2845 710.651 49.7218 715.088C54.1591 719.526 60.175 722.022 66.4503 722.03H234.45V714.93Z" fill="#B19A77"/>
<path d="M234.45 678.55H65.8499C56.0499 678.55 48.1099 687.29 48.1099 698.07C48.1099 708.85 56.0499 717.59 65.8499 717.59H234.45V678.55Z" fill="white"/>
<path d="M234.45 762.03H66.45C62.0545 762.027 57.8398 760.279 54.7326 757.17C51.6254 754.061 49.88 749.846 49.88 745.45V744.86C49.8827 740.468 51.6279 736.256 54.7326 733.15C57.8373 730.043 62.0479 728.295 66.44 728.29H234.44V721.2H66.44C60.1657 721.205 54.1497 723.699 49.7122 728.135C45.2746 732.571 42.778 738.586 42.77 744.86V745.45C42.778 751.724 45.2746 757.739 49.7122 762.175C54.1497 766.61 60.1657 769.105 66.44 769.11H234.44L234.45 762.03Z" fill="#D4CCC3" fill-opacity="0.8"/>
<path d="M234.45 725.65H65.8499C56.0499 725.65 48.1099 734.39 48.1099 745.17C48.1099 755.95 56.0499 764.7 65.8499 764.7H234.45V725.65Z" fill="white"/>
<path fill-rule="evenodd" clip-rule="evenodd" d="M800 769.13H559.02V587.32H680.44H800V769.13Z" fill="#D4CCC3" fill-opacity="0.8"/>
<path d="M794.15 748.18H564.97V763.59H794.15V748.18Z" fill="#D3D1C9"/>
<path d="M697.75 581.39C689.75 583.02 683.14 586.91 679.26 592.05V748.05L679.73 756.85C681.28 754.3 683.27 749.44 691.19 748.05H793.89L794.4 581.27L697.75 581.39Z" fill="#F9F9F9"/>
<path d="M661.27 581.39C669.27 583.02 675.88 586.91 679.76 592.05V756.78C676.639 752.862 672.517 749.859 667.83 748.09H565.14L564.63 581.31L661.27 581.39Z" fill="white"/>
<path d="M661.62 581.45V748.07C661.62 748.07 671.62 747.14 679.62 756.97L679.76 592.03C675.94 586.99 669.43 583.14 661.62 581.45Z" fill="#E4E3E0"/>
<path d="M642.19 605.71H601.59V607.73H642.19V605.71Z" fill="#CAC9CA"/>
<path d="M656.02 613.06H594.92V615.08H656.02V613.06Z" fill="#CAC9CA"/>
<path d="M656.01 616.59H587.75V618.61H656.01V616.59Z" fill="#CAC9CA"/>
<path d="M656.01 620.13H587.75V622.15H656.01V620.13Z" fill="#CAC9CA"/>
<path d="M656.01 623.67H587.75V625.69H656.01V623.67Z" fill="#CAC9CA"/>
<path d="M656.01 627.21H587.75V629.23H656.01V627.21Z" fill="#CAC9CA"/>
<path d="M656.01 630.74H587.75V632.76H656.01V630.74Z" fill="#CAC9CA"/>
<path d="M656.01 634.28H587.75V636.3H656.01V634.28Z" fill="#CAC9CA"/>
<path d="M656.01 637.82H587.75V639.84H656.01V637.82Z" fill="#CAC9CA"/>
<path d="M621.88 641.35H587.75V643.37H621.88V641.35Z" fill="#CAC9CA"/>
<path d="M656.02 645.11H594.92V647.13H656.02V645.11Z" fill="#CAC9CA"/>
<path d="M656.01 648.64H587.75V650.66H656.01V648.64Z" fill="#CAC9CA"/>
<path d="M656.01 652.18H587.75V654.2H656.01V652.18Z" fill="#CAC9CA"/>
<path d="M656.01 655.72H587.75V657.74H656.01V655.72Z" fill="#CAC9CA"/>
<path d="M656.01 659.25H587.75V661.27H656.01V659.25Z" fill="#CAC9CA"/>
<path d="M656.01 662.79H587.75V664.81H656.01V662.79Z" fill="#CAC9CA"/>
<path d="M656.01 666.33H587.75V668.35H656.01V666.33Z" fill="#CAC9CA"/>
<path d="M656.01 669.86H587.75V671.88H656.01V669.86Z" fill="#CAC9CA"/>
<path d="M644.22 673.4H587.75V675.42H644.22V673.4Z" fill="#CAC9CA"/>
<path d="M656.02 677.15H594.92V679.17H656.02V677.15Z" fill="#CAC9CA"/>
<path d="M656.01 680.69H587.75V682.71H656.01V680.69Z" fill="#CAC9CA"/>
<path d="M656.01 684.23H587.75V686.25H656.01V684.23Z" fill="#CAC9CA"/>
<path d="M656.01 687.76H587.75V689.78H656.01V687.76Z" fill="#CAC9CA"/>
<path d="M656.01 691.3H587.75V693.32H656.01V691.3Z" fill="#CAC9CA"/>
<path d="M656.01 694.84H587.75V696.86H656.01V694.84Z" fill="#CAC9CA"/>
<path d="M656.01 701.91H587.75V703.93H656.01V701.91Z" fill="#CAC9CA"/>
<path d="M656.01 698.17H587.75V700.19H656.01V698.17Z" fill="#CAC9CA"/>
<path d="M656.01 701.71H587.75V703.73H656.01V701.71Z" fill="#CAC9CA"/>
<path d="M656.01 705.25H587.75V707.27H656.01V705.25Z" fill="#CAC9CA"/>
<path d="M656.01 708.78H587.75V710.8H656.01V708.78Z" fill="#CAC9CA"/>
<path d="M656.01 712.32H587.75V714.34H656.01V712.32Z" fill="#CAC9CA"/>
<path d="M656.01 715.86H587.75V717.88H656.01V715.86Z" fill="#CAC9CA"/>
<path d="M656.01 719.4H587.75V721.42H656.01V719.4Z" fill="#CAC9CA"/>
<path d="M757.43 605.71H716.84V607.73H757.43V605.71Z" fill="#CAC9CA"/>
<path d="M771.27 613.06H710.17V615.08H771.27V613.06Z" fill="#CAC9CA"/>
<path d="M771.27 616.59H703V618.61H771.27V616.59Z" fill="#CAC9CA"/>
<path d="M771.27 620.13H703V622.15H771.27V620.13Z" fill="#CAC9CA"/>
<path d="M771.27 623.67H703V625.69H771.27V623.67Z" fill="#CAC9CA"/>
<path d="M771.27 627.21H703V629.23H771.27V627.21Z" fill="#CAC9CA"/>
<path d="M771.27 630.74H703V632.76H771.27V630.74Z" fill="#CAC9CA"/>
<path d="M771.27 634.28H703V636.3H771.27V634.28Z" fill="#CAC9CA"/>
<path d="M771.27 637.82H703V639.84H771.27V637.82Z" fill="#CAC9CA"/>
<path d="M737.13 641.35H703V643.37H737.13V641.35Z" fill="#CAC9CA"/>
<path d="M771.27 645.11H710.17V647.13H771.27V645.11Z" fill="#CAC9CA"/>
<path d="M771.27 648.64H703V650.66H771.27V648.64Z" fill="#CAC9CA"/>
<path d="M771.27 652.18H703V654.2H771.27V652.18Z" fill="#CAC9CA"/>
<path d="M771.27 655.72H703V657.74H771.27V655.72Z" fill="#CAC9CA"/>
<path d="M771.27 659.25H703V661.27H771.27V659.25Z" fill="#CAC9CA"/>
<path d="M771.27 662.79H703V664.81H771.27V662.79Z" fill="#CAC9CA"/>
<path d="M771.27 666.33H703V668.35H771.27V666.33Z" fill="#CAC9CA"/>
<path d="M771.27 669.86H703V671.88H771.27V669.86Z" fill="#CAC9CA"/>
<path d="M759.47 673.4H703V675.42H759.47V673.4Z" fill="#CAC9CA"/>
<path d="M771.27 677.15H710.17V679.17H771.27V677.15Z" fill="#CAC9CA"/>
<path d="M771.27 680.69H703V682.71H771.27V680.69Z" fill="#CAC9CA"/>
<path d="M771.27 684.23H703V686.25H771.27V684.23Z" fill="#CAC9CA"/>
<path d="M771.27 687.76H703V689.78H771.27V687.76Z" fill="#CAC9CA"/>
<path d="M771.27 691.3H703V693.32H771.27V691.3Z" fill="#CAC9CA"/>
<path d="M771.27 694.84H703V696.86H771.27V694.84Z" fill="#CAC9CA"/>
<path d="M771.27 701.91H703V703.93H771.27V701.91Z" fill="#CAC9CA"/>
<path d="M771.27 698.17H703V700.19H771.27V698.17Z" fill="#CAC9CA"/>
<path d="M771.27 701.71H703V703.73H771.27V701.71Z" fill="#CAC9CA"/>
<path d="M771.27 705.25H703V707.27H771.27V705.25Z" fill="#CAC9CA"/>
<path d="M771.27 708.78H703V710.8H771.27V708.78Z" fill="#CAC9CA"/>
<path d="M771.27 712.32H703V714.34H771.27V712.32Z" fill="#CAC9CA"/>
<path d="M771.27 715.86H703V717.88H771.27V715.86Z" fill="#CAC9CA"/>
<path d="M771.27 719.4H703V721.42H771.27V719.4Z" fill="#CAC9CA"/>
<path d="M194.53 583.79H104.25V669.88C104.25 670.989 104.69 672.052 105.474 672.836C106.258 673.62 107.321 674.06 108.43 674.06H190.35C191.459 674.06 192.522 673.62 193.306 672.836C194.09 672.052 194.53 670.989 194.53 669.88V583.79Z" fill="#D4CCC3" fill-opacity="0.8"/>
<path d="M194.53 547.79C194.525 546.683 194.083 545.623 193.3 544.84C192.517 544.057 191.457 543.615 190.35 543.61H108.43C107.323 543.615 106.263 544.057 105.48 544.84C104.697 545.623 104.255 546.683 104.25 547.79V583.79H194.53V547.79Z" fill="#B19A77"/>
<path d="M114.26 576.57C113.935 576.571 113.614 576.508 113.313 576.385C113.013 576.261 112.74 576.079 112.511 575.85C112.281 575.62 112.099 575.347 111.975 575.047C111.852 574.747 111.789 574.425 111.79 574.1V553.3C111.79 552.976 111.854 552.656 111.978 552.356C112.103 552.057 112.285 551.786 112.514 551.557C112.744 551.329 113.016 551.148 113.316 551.024C113.615 550.901 113.936 550.839 114.26 550.84H185.14C185.795 550.84 186.424 551.099 186.89 551.56C187.348 552.023 187.603 552.649 187.6 553.3V574.1C187.604 574.425 187.543 574.747 187.421 575.048C187.299 575.349 187.118 575.622 186.889 575.852C186.66 576.082 186.387 576.264 186.087 576.387C185.787 576.511 185.465 576.573 185.14 576.57H114.26Z" fill="#8A7659"/>
<path d="M114.26 552.58C114.066 552.58 113.88 552.655 113.74 552.79C113.606 552.926 113.531 553.109 113.53 553.3V574.1C113.529 574.196 113.547 574.292 113.583 574.381C113.619 574.47 113.672 574.552 113.74 574.62C113.879 574.757 114.065 574.836 114.26 574.84H185.14C185.236 574.839 185.331 574.819 185.419 574.781C185.507 574.743 185.586 574.688 185.653 574.619C185.72 574.55 185.773 574.469 185.808 574.38C185.844 574.291 185.861 574.196 185.86 574.1V553.3C185.86 553.109 185.784 552.926 185.649 552.791C185.514 552.656 185.331 552.58 185.14 552.58H114.26Z" fill="#B19A77"/>
<path d="M194.53 582.06H104.25V583.8H194.53V582.06Z" fill="#8A7659"/>
<path d="M125.4 602.82H114.93V611.36H125.4V602.82Z" fill="white"/>
<path d="M144.88 602.82H134.41V611.36H144.88V602.82Z" fill="white"/>
<path d="M164.35 602.82H153.89V611.36H164.35V602.82Z" fill="#B0B1B2"/>
<path d="M183.85 602.82H173.38V611.36H183.85V602.82Z" fill="#8A7659"/>
<path d="M125.4 618.17H114.93V626.7H125.4V618.17Z" fill="white"/>
<path d="M144.88 618.17H134.41V626.7H144.88V618.17Z" fill="white"/>
<path d="M164.35 618.17H153.89V626.7H164.35V618.17Z" fill="white"/>
<path d="M183.85 618.17H173.38V626.7H183.85V618.17Z" fill="white"/>
<path d="M125.4 633.51H114.93V642.05H125.4V633.51Z" fill="white"/>
<path d="M144.88 633.51H134.41V642.05H144.88V633.51Z" fill="white"/>
<path d="M164.35 633.51H153.89V642.05H164.35V633.51Z" fill="white"/>
<path d="M125.4 648.86H114.93V657.4H125.4V648.86Z" fill="white"/>
<path d="M144.88 648.86H134.41V657.4H144.88V648.86Z" fill="white"/>
<path d="M164.35 648.86H153.89V657.4H164.35V648.86Z" fill="white"/>
<path d="M183.85 633.51H173.38V657.39H183.85V633.51Z" fill="white"/>
<path d="M457.93 122.24L503.19 0L400.72 85.97L457.93 122.24Z" fill="white"/>
<path d="M372.14 80.83L503.19 0L330.33 78.56L372.14 80.83Z" fill="white"/>
<path d="M385.73 112.31L400.72 85.97L503.19 0L372.14 80.83L385.73 112.31Z" fill="#8A7659"/>
</g>
<defs>
<clipPath id="clip0">
<rect width="800" height="769.13" fill="white"/>
</clipPath>
</defs>
</svg>
