<svg width="300" height="300" viewBox="0 0 300 300" fill="none" xmlns="http://www.w3.org/2000/svg">
<g clip-path="url(#clip0)">
<path d="M174.734 134.165C180.07 135.51 186.465 135.779 193.399 135.779C216.071 135.779 236.059 129.061 248.323 115.896C257.387 106.489 262.19 93.5927 262.19 77.2003C262.19 61.0767 256.321 47.9111 246.456 39.3115C235.795 29.6416 218.997 24.2636 196.066 24.2636C183.591 24.2289 171.128 25.0428 158.763 26.6996V134.165H174.734ZM174.734 44.6896C178.736 43.6351 186.465 42.8073 196.599 42.8073C222.192 42.8073 238.991 54.3595 238.991 78.2759C238.991 103.268 221.928 116.971 193.931 116.971C186.202 116.971 179.801 116.444 174.734 115.089V44.6896Z" fill="#7A8387" stroke="#7A8387" stroke-miterlimit="10"/>
<path d="M172.292 185.831L157.202 196.476L51.5453 44.4049L66.6354 33.7543L172.292 185.831Z" fill="#7A8387" stroke="#7A8387" stroke-miterlimit="10"/>
<path d="M38 203.616H80.3704V197.146C80.3714 195.315 79.8342 193.523 78.8255 191.995V191.995C77.404 189.847 75.7854 187.836 73.9906 185.989L72.9993 184.966L70.2365 64.2245L71.291 62.1154C72.3945 59.8865 72.6747 57.3392 72.0819 54.9236V54.9236L71.7392 53.2101C71.5558 52.2863 71.5626 51.3348 71.7593 50.4137C71.9561 49.4927 72.3385 48.6214 72.8833 47.8531V47.8531C73.7696 46.6035 74.3302 45.1525 74.5143 43.6316C74.6984 42.1107 74.5003 40.5679 73.9378 39.1428V39.1428C76.3648 36.6972 78.1897 33.7206 79.2684 30.4484L79.453 29.8631L80.3757 24.29H38L38.9227 29.8631L39.1178 30.4484C40.1984 33.7197 42.0231 36.6959 44.4484 39.1428V39.1428C43.8859 40.5679 43.6878 42.1107 43.8719 43.6316C44.056 45.1525 44.6166 46.6035 45.5029 47.8531V47.8531C46.0477 48.6214 46.4301 49.4927 46.6269 50.4137C46.8236 51.3348 46.8304 52.2863 46.647 53.2101L46.3043 54.9236C45.7116 57.3392 45.9917 59.8865 47.0952 62.1154L48.1497 64.2245L45.3869 184.966L44.3956 185.989C42.601 187.835 40.9839 189.846 39.566 191.995V191.995C38.5534 193.522 38.0141 195.314 38.0158 197.146L38 203.616Z" fill="#1D4E8A" stroke="#1D4E8B" stroke-width="0.5" stroke-miterlimit="10"/>
<path d="M143.051 203.615H185.432V197.146C185.424 195.311 184.874 193.518 183.85 191.995C182.432 189.846 180.815 187.835 179.02 185.989L178.05 184.966L175.287 64.2245L176.342 62.1154C177.445 59.8865 177.725 57.3392 177.133 54.9236V54.9236L176.79 53.2101C176.607 52.2863 176.613 51.3348 176.81 50.4137C177.007 49.4927 177.389 48.6214 177.934 47.8531V47.8531C178.82 46.6035 179.381 45.1525 179.565 43.6316C179.749 42.1107 179.551 40.5679 178.989 39.1428V39.1428C181.414 36.6959 183.239 33.7197 184.319 30.4484L184.514 29.8631L185.432 24.2636H143.051L143.973 29.8631L144.169 30.4484C145.247 33.7206 147.072 36.6972 149.499 39.1428V39.1428C148.937 40.5679 148.739 42.1107 148.923 43.6316C149.107 45.1525 149.667 46.6035 150.554 47.8531V47.8531C151.093 48.6189 151.472 49.4861 151.667 50.4023C151.861 51.3185 151.868 52.2647 151.687 53.1837L151.345 54.8973C150.752 57.3128 151.032 59.8601 152.135 62.0891L153.19 64.1981L150.427 184.94L149.436 185.963C147.641 187.809 146.024 189.82 144.606 191.968C143.594 193.495 143.054 195.287 143.056 197.12L143.051 203.615Z" fill="#1D4E8A" stroke="#1D4E8B" stroke-width="0.5" stroke-miterlimit="10"/>
<path d="M31.0302 248.612H29.8966C29.9652 247.515 30.0021 246.634 30.0021 245.975C30.0021 243.989 29.5908 242.606 28.7683 241.826C28.3513 241.435 27.8615 241.131 27.3268 240.93C26.7921 240.729 26.223 240.636 25.6522 240.655C23.9825 240.655 22.2444 241.334 20.4376 242.691C18.6309 244.047 17.0843 246.165 15.7978 249.044C14.5208 251.83 13.8573 254.858 13.8522 257.923C13.8522 260.865 14.455 263.12 15.6607 264.688C16.1673 265.418 16.8438 266.014 17.6319 266.424C18.4199 266.835 19.296 267.048 20.1845 267.045C22.6451 267.045 24.9052 265.566 26.9651 262.61C27.0304 262.489 27.1239 262.386 27.2377 262.309C27.3515 262.232 27.4823 262.183 27.6189 262.167C27.7042 262.165 27.7891 262.18 27.8687 262.211C27.9484 262.242 28.0211 262.288 28.0829 262.347C28.1414 262.398 28.1886 262.461 28.2213 262.532C28.254 262.603 28.2715 262.68 28.2727 262.758C28.2727 263.138 27.8052 263.883 26.8702 264.994C25.8849 266.143 24.6827 267.087 23.3323 267.772C22.0372 268.479 20.5893 268.859 19.1142 268.879C17.4566 268.884 15.832 268.415 14.4312 267.529C13.0304 266.643 11.9113 265.376 11.2053 263.876C10.3706 262.09 9.95917 260.136 10.0032 258.166C10.0392 254.944 10.8705 251.782 12.4233 248.96C13.8311 246.144 15.9076 243.716 18.471 241.889C20.8893 240.226 23.2532 239.397 25.5626 239.4C26.3945 239.4 27.2239 239.491 28.0354 239.675C28.3887 239.759 29.8333 240.244 32.3853 241.13C31.5815 243.547 31.1252 246.066 31.0302 248.612V248.612Z" fill="#303435"/>
<path d="M55.4633 246.988C56.1252 246.978 56.7802 247.122 57.3774 247.407C57.9747 247.692 58.4979 248.112 58.9063 248.633C59.8238 249.729 60.2772 251.269 60.2772 253.215C60.2857 256.341 59.1102 259.355 56.9871 261.651C54.7902 264.132 52.4668 265.373 50.0168 265.373C49.3401 265.401 48.6654 265.284 48.0379 265.029C47.4104 264.774 46.8446 264.388 46.3787 263.897C45.4108 262.783 44.9152 261.336 44.9973 259.863C44.9879 256.94 45.8708 254.083 47.5281 251.675C49.6547 248.55 52.2998 246.988 55.4633 246.988ZM53.6707 248.569C52.4738 248.569 51.3191 249.424 50.196 251.137C49.073 252.851 48.5194 255.208 48.5194 258.218C48.4488 259.732 48.8148 261.235 49.5739 262.547C49.7797 262.902 50.0759 263.197 50.4324 263.401C50.789 263.604 51.1932 263.71 51.6038 263.707C52.7849 263.707 53.8605 262.976 54.8306 261.514C56.1316 259.389 56.7789 256.928 56.6918 254.438C56.6918 252.329 56.4071 250.821 55.8324 249.925C55.6275 249.525 55.3184 249.188 54.9379 248.95C54.5574 248.711 54.1196 248.58 53.6707 248.569V248.569Z" fill="#303435"/>
<path d="M75.8893 251.949L75.1722 251.211C76.4577 249.888 77.9051 248.733 79.4799 247.773C80.3158 247.278 81.2571 246.987 82.2269 246.924C82.4733 246.911 82.7176 246.977 82.9229 247.114C82.9985 247.162 83.0615 247.227 83.1064 247.304C83.1514 247.381 83.1771 247.468 83.1813 247.557C83.1659 247.785 83.1288 248.011 83.0705 248.232L82.1215 252.482C83.7113 250.76 85.5255 249.259 87.5153 248.021C88.3547 247.425 89.337 247.061 90.3625 246.967C90.6026 246.953 90.8427 246.994 91.0653 247.085C91.2878 247.176 91.4872 247.316 91.649 247.494C91.9829 247.927 92.1479 248.467 92.113 249.012C92.1054 249.512 92.0417 250.009 91.9232 250.494C91.6982 251.404 91.1094 253.396 90.1569 256.468C89.2535 259.336 88.8036 261.243 88.8071 262.189C88.7928 262.412 88.8364 262.635 88.9336 262.837C88.9677 262.903 89.0191 262.958 89.0824 262.996C89.1457 263.034 89.2183 263.054 89.2922 263.053C89.7034 263.053 90.3467 262.658 91.2166 261.872C91.8335 261.308 92.4557 260.786 93.0726 260.29L93.5999 261.055C92.4224 262.385 91.0648 263.544 89.5663 264.498C88.9236 264.969 88.166 265.258 87.373 265.336C87.134 265.348 86.8956 265.302 86.6787 265.201C86.4618 265.1 86.2729 264.947 86.1286 264.756C85.7871 264.189 85.6322 263.529 85.6857 262.869C85.6857 261.614 86.4661 258.496 88.0267 253.515C88.3412 252.501 88.5808 251.464 88.7438 250.415C88.7438 249.977 88.4855 249.756 87.9635 249.756C87.1707 249.845 86.4185 250.154 85.7912 250.647C84.516 251.476 83.394 252.519 82.4747 253.731C81.7717 254.841 81.2917 256.076 81.0617 257.369L79.3534 264.751H76.1898C76.7803 262.642 77.2935 260.619 77.7294 258.682L79.6117 250.652C79.6671 250.424 79.7024 250.191 79.7172 249.956C79.7172 249.577 79.5748 249.381 79.2954 249.381C78.9355 249.439 78.5983 249.594 78.3199 249.83C77.427 250.435 76.6109 251.147 75.8893 251.949V251.949Z" fill="#303435"/>
<path d="M117.379 246.988C118.399 246.926 119.414 247.18 120.284 247.715C120.581 247.888 120.829 248.132 121.008 248.424C121.186 248.717 121.289 249.05 121.307 249.392C121.307 249.579 121.268 249.764 121.194 249.935C121.12 250.106 121.011 250.261 120.875 250.388C120.736 250.526 120.572 250.634 120.39 250.707C120.209 250.779 120.015 250.814 119.82 250.81C119.575 250.814 119.333 250.753 119.119 250.631C118.794 250.375 118.51 250.071 118.275 249.729C117.572 248.815 116.891 248.359 116.23 248.359C115.943 248.36 115.66 248.419 115.397 248.533C115.134 248.647 114.897 248.814 114.701 249.023C114.483 249.239 114.312 249.497 114.198 249.782C114.083 250.067 114.028 250.372 114.036 250.678C114.037 251.264 114.182 251.839 114.458 252.355C115.056 253.313 115.764 254.198 116.567 254.991C118.128 256.654 118.908 258.236 118.908 259.737C118.901 260.488 118.727 261.228 118.399 261.904C118.071 262.58 117.596 263.174 117.01 263.644C115.645 264.797 113.897 265.395 112.112 265.32C110.435 265.32 109.191 264.983 108.374 264.298C107.99 264 107.68 263.617 107.468 263.18C107.256 262.743 107.147 262.263 107.15 261.777C107.137 261.323 107.304 260.881 107.614 260.549C107.76 260.392 107.938 260.268 108.135 260.185C108.332 260.101 108.544 260.06 108.759 260.064C109.135 260.058 109.498 260.2 109.771 260.459C109.903 260.573 110.009 260.713 110.082 260.872C110.155 261.03 110.192 261.202 110.193 261.377C110.193 261.514 110.193 261.698 110.166 261.904C110.14 262.109 110.166 262.241 110.166 262.368C110.166 262.597 110.219 262.823 110.322 263.028C110.424 263.233 110.573 263.412 110.757 263.549C111.2 263.893 111.752 264.066 112.312 264.034C112.999 264.05 113.681 263.917 114.311 263.644C114.87 263.398 115.339 262.986 115.655 262.463C115.962 261.991 116.13 261.443 116.14 260.881C116.13 260.343 115.973 259.818 115.687 259.362C115.076 258.472 114.393 257.633 113.646 256.853C112.187 255.225 111.456 253.659 111.453 252.155C111.455 251.468 111.605 250.789 111.892 250.165C112.18 249.541 112.598 248.986 113.119 248.538C114.281 247.483 115.811 246.926 117.379 246.988V246.988Z" fill="#303435"/>
<path d="M149.173 247.536H152.178L150.196 254.918C149.025 259.202 148.442 261.642 148.445 262.236C148.43 262.456 148.498 262.675 148.635 262.848C148.684 262.913 148.748 262.966 148.821 263.003C148.894 263.039 148.975 263.059 149.057 263.059C149.362 263.034 149.654 262.925 149.9 262.742C150.837 261.99 151.719 261.17 152.537 260.29L153.233 261.076C150.421 264.015 148.338 265.484 146.985 265.484C146.766 265.486 146.55 265.439 146.351 265.348C146.153 265.257 145.977 265.123 145.835 264.957C145.498 264.545 145.328 264.022 145.361 263.491C145.4 262.497 145.553 261.512 145.819 260.554C144.488 262.057 142.921 263.334 141.18 264.334C140.225 264.956 139.126 265.319 137.99 265.389C137.772 265.4 137.555 265.362 137.355 265.278C137.154 265.194 136.974 265.066 136.83 264.904C136.512 264.457 136.362 263.911 136.408 263.364C136.413 262.767 136.476 262.172 136.598 261.587C136.784 260.698 137.25 258.914 137.995 256.236C138.933 252.84 139.404 250.805 139.408 250.13C139.408 249.735 139.266 249.534 138.986 249.534C138.606 249.573 138.243 249.709 137.932 249.93C137.128 250.488 136.378 251.12 135.691 251.817L134.763 251.079C136.079 249.819 137.527 248.703 139.081 247.752C139.807 247.307 140.627 247.036 141.475 246.961C141.631 246.958 141.785 246.99 141.928 247.054C142.07 247.117 142.196 247.212 142.297 247.33C142.535 247.666 142.647 248.075 142.614 248.485C142.614 249.455 142.108 251.844 141.095 255.651C140.194 259.072 139.745 261.029 139.745 261.503C139.739 261.785 139.841 262.059 140.03 262.268C140.105 262.362 140.199 262.44 140.306 262.495C140.414 262.549 140.532 262.58 140.652 262.584C141.436 262.584 142.554 261.932 144.006 260.628C145.372 259.461 146.363 257.917 146.853 256.188L149.173 247.536Z" fill="#303435"/>
<path d="M176.548 259.652L177.265 260.412C176.114 261.7 174.807 262.839 173.374 263.802C171.871 264.825 170.637 265.331 169.683 265.331C169.481 265.333 169.282 265.29 169.099 265.204C168.917 265.118 168.756 264.992 168.629 264.835C168.326 264.449 168.176 263.965 168.207 263.475C168.207 262.352 168.639 260.011 169.514 256.468L171.729 247.199C172.562 243.852 173.265 241.608 173.838 240.466C174.651 238.838 175.9 237.467 177.445 236.506C178.99 235.544 180.771 235.03 182.59 235.019C183.101 234.989 183.606 235.142 184.014 235.451C184.176 235.576 184.307 235.735 184.399 235.918C184.49 236.101 184.539 236.302 184.541 236.506C184.544 236.72 184.498 236.932 184.407 237.126C184.315 237.319 184.181 237.49 184.014 237.624C183.591 237.94 183.069 238.093 182.543 238.056C181.942 238.037 181.344 237.966 180.755 237.845C180.137 237.738 179.511 237.682 178.884 237.676C178.42 237.644 177.959 237.77 177.576 238.035C177.028 238.627 176.647 239.355 176.474 240.144C176.142 241.198 175.609 243.35 174.861 246.529L172.752 255.376C171.697 259.805 171.17 262.125 171.17 262.32C171.17 262.769 171.328 262.995 171.655 262.995C172.142 262.933 172.605 262.752 173.005 262.468C174.285 261.661 175.473 260.717 176.548 259.652V259.652Z" fill="#303435"/>
<path d="M197.037 243.735L200.385 242.453L198.872 248.359H203.243L202.906 249.861H198.529L196.689 256.932C196.23 258.372 195.934 259.859 195.809 261.366C195.782 261.662 195.871 261.956 196.057 262.189C196.143 262.275 196.247 262.343 196.361 262.386C196.476 262.43 196.599 262.449 196.721 262.442C197.44 262.339 198.126 262.072 198.724 261.661C199.911 260.969 201.041 260.184 202.104 259.315L202.906 260.285C199.823 262.612 197.761 264.034 196.721 264.551C195.95 264.992 195.091 265.258 194.206 265.331C193.97 265.341 193.735 265.294 193.52 265.195C193.306 265.096 193.118 264.948 192.972 264.762C192.621 264.21 192.461 263.557 192.519 262.906C192.608 261.332 192.876 259.773 193.32 258.26L195.455 249.861H192.028L192.408 248.359H195.83L197.037 243.735Z" fill="#303435"/>
<path d="M218.576 251.886L217.648 251.169C218.752 249.874 220.05 248.759 221.497 247.863C222.385 247.295 223.402 246.957 224.455 246.882C224.83 246.852 225.204 246.957 225.509 247.177C225.627 247.274 225.72 247.397 225.783 247.536C225.845 247.675 225.874 247.827 225.868 247.979C225.868 248.39 225.411 250.121 224.497 253.172C223.01 258.171 222.266 261.183 222.266 262.21C222.26 262.387 222.311 262.561 222.414 262.705C222.448 262.761 222.494 262.808 222.548 262.843C222.603 262.878 222.666 262.899 222.73 262.906C223.177 262.906 224.332 262.027 226.195 260.269L227.017 261.076C225.73 262.373 224.317 263.539 222.799 264.556C222.148 264.983 221.402 265.244 220.627 265.315C220.409 265.326 220.191 265.291 219.988 265.211C219.786 265.131 219.602 265.008 219.451 264.851C219.147 264.494 218.992 264.033 219.019 263.565C219.019 261.807 220.073 257.508 222.182 250.668C222.274 250.389 222.324 250.097 222.33 249.803C222.33 249.519 222.203 249.376 221.95 249.376C221.605 249.399 221.274 249.516 220.99 249.714C220.133 250.377 219.325 251.103 218.576 251.886ZM226.875 237.908C227.071 237.905 227.265 237.942 227.446 238.016C227.628 238.09 227.792 238.201 227.929 238.341C228.07 238.489 228.18 238.663 228.252 238.854C228.325 239.045 228.358 239.249 228.351 239.453C228.354 240.06 228.123 240.645 227.708 241.088C227.532 241.302 227.312 241.476 227.062 241.598C226.813 241.72 226.54 241.787 226.263 241.794C226.066 241.798 225.871 241.76 225.689 241.684C225.507 241.608 225.344 241.495 225.209 241.351C224.92 241.036 224.769 240.619 224.787 240.191C224.775 239.592 224.996 239.012 225.404 238.573C225.585 238.361 225.811 238.192 226.065 238.077C226.32 237.963 226.596 237.905 226.875 237.908Z" fill="#303435"/>
<path d="M241.854 251.949L241.137 251.211C242.423 249.887 243.872 248.732 245.45 247.773C246.284 247.278 247.224 246.987 248.192 246.924C248.44 246.91 248.686 246.976 248.893 247.114C248.969 247.161 249.032 247.226 249.077 247.303C249.121 247.38 249.145 247.468 249.146 247.557C249.131 247.785 249.095 248.011 249.041 248.232L248.086 252.482C249.677 250.759 251.493 249.258 253.485 248.021C254.322 247.424 255.303 247.06 256.327 246.967C256.567 246.953 256.807 246.994 257.03 247.085C257.253 247.176 257.452 247.316 257.614 247.494C257.95 247.926 258.115 248.466 258.078 249.012C258.07 249.512 258.006 250.009 257.888 250.494C257.666 251.404 257.078 253.396 256.122 256.468C255.225 259.336 254.777 261.243 254.777 262.188C254.763 262.412 254.806 262.635 254.904 262.837C254.937 262.903 254.989 262.958 255.052 262.996C255.115 263.035 255.188 263.054 255.262 263.053C255.668 263.053 256.317 262.658 257.181 261.872C257.798 261.308 258.421 260.786 259.037 260.29L259.565 261.055C258.396 262.38 257.049 263.537 255.563 264.493C254.918 264.964 254.159 265.253 253.364 265.331C253.125 265.343 252.887 265.297 252.67 265.196C252.453 265.095 252.264 264.942 252.12 264.751C251.778 264.184 251.623 263.523 251.677 262.863C251.677 261.609 252.457 258.491 254.018 253.51C254.333 252.495 254.574 251.459 254.74 250.41C254.74 249.972 254.477 249.751 253.955 249.751C253.162 249.841 252.41 250.149 251.782 250.642C250.508 251.472 249.387 252.516 248.466 253.726C247.765 254.836 247.285 256.072 247.053 257.364L245.345 264.746H242.181C242.771 262.637 243.285 260.614 243.721 258.677L245.603 250.647C245.658 250.418 245.694 250.185 245.708 249.951C245.708 249.571 245.566 249.376 245.287 249.376C244.928 249.434 244.593 249.589 244.316 249.824C243.411 250.428 242.584 251.142 241.854 251.949V251.949Z" fill="#303435"/>
<path d="M288.305 246.84L290.003 246.46C288.98 249.751 288.04 253.051 287.182 256.362C286.655 258.309 286.227 260.282 285.901 262.273C285.76 263.265 285.69 264.266 285.69 265.268C285.717 266.925 285.49 268.577 285.015 270.166C284.427 271.898 283.259 273.375 281.709 274.347C279.996 275.431 278 275.981 275.973 275.929C274.075 275.929 272.577 275.486 271.491 274.59C270.999 274.24 270.594 273.781 270.31 273.248C270.025 272.716 269.868 272.125 269.851 271.521C269.873 270.331 270.342 269.192 271.164 268.331C271.813 267.582 273.168 266.686 275.224 265.626C276.279 265.099 277.249 264.519 278.172 263.939C277.426 264.382 276.593 264.655 275.73 264.74C275.458 264.733 275.191 264.664 274.95 264.538C274.709 264.412 274.5 264.232 274.338 264.013C273.916 263.461 273.703 262.777 273.737 262.083C273.78 259.346 274.58 256.675 276.047 254.364C277.393 252.012 279.307 250.034 281.615 248.612C283.154 247.776 284.889 247.368 286.639 247.431C287.035 247.431 287.52 247.431 288.1 247.473L288.305 246.84ZM283.086 261.471C281.314 262.942 279.464 264.314 277.544 265.584C275.133 267.219 273.653 268.394 273.105 269.111C272.581 269.774 272.291 270.592 272.282 271.437C272.29 271.852 272.389 272.26 272.571 272.634C272.753 273.007 273.014 273.336 273.337 273.598C274.046 274.236 274.972 274.579 275.925 274.558C276.901 274.553 277.86 274.311 278.72 273.851C279.649 273.354 280.454 272.655 281.077 271.806C281.749 270.905 282.222 269.872 282.463 268.774C282.752 267.3 282.886 265.8 282.864 264.298C282.891 263.892 282.98 262.948 283.086 261.471ZM285.949 249.967C285.358 249.847 284.758 249.782 284.156 249.772C282.926 249.738 281.718 250.109 280.718 250.826C279.595 251.762 278.749 252.987 278.272 254.369C277.333 256.721 276.862 258.698 276.859 260.301C276.841 260.907 277.039 261.499 277.418 261.972C277.562 262.173 277.75 262.338 277.967 262.455C278.184 262.572 278.426 262.638 278.672 262.647C279.438 262.581 280.169 262.3 280.781 261.835C281.597 261.307 282.291 260.611 282.817 259.795C283.547 258.47 284.09 257.051 284.43 255.577L285.949 249.967Z" fill="#303435"/>
</g>
<defs>
<clipPath id="clip0">
<rect width="280" height="251.929" fill="white" transform="translate(10 24)"/>
</clipPath>
</defs>
</svg>
