<svg width="226" height="180" viewBox="0 0 226 180" fill="none" xmlns="http://www.w3.org/2000/svg">
<path d="M137.734 110.165C143.07 111.51 149.465 111.779 156.399 111.779C179.071 111.779 199.059 105.061 211.323 91.8957C220.387 82.4894 225.19 69.5927 225.19 53.2003C225.19 37.0767 219.321 23.9111 209.456 15.3115C198.795 5.64165 181.997 0.263624 159.066 0.263624C146.591 0.228903 134.128 1.04276 121.763 2.69955V110.165H137.734ZM137.734 20.6896C141.736 19.6351 149.465 18.8073 159.599 18.8073C185.192 18.8073 201.991 30.3595 201.991 54.2759C201.991 79.2679 184.928 92.9713 156.931 92.9713C149.202 92.9713 142.801 92.444 137.734 91.089V20.6896Z" fill="#7A8387" stroke="#7A8387" stroke-miterlimit="10"/>
<path d="M135.292 161.831L120.202 172.476L14.5453 20.4049L29.6354 9.75426L135.292 161.831Z" fill="#7A8387" stroke="#7A8387" stroke-miterlimit="10"/>
<path d="M1 179.616H43.3704V173.146C43.3714 171.315 42.8342 169.523 41.8255 167.995V167.995C40.404 165.847 38.7854 163.836 36.9906 161.989L35.9993 160.966L33.2365 40.2245L34.291 38.1154C35.3945 35.8865 35.6747 33.3392 35.0819 30.9236V30.9236L34.7392 29.2101C34.5558 28.2863 34.5626 27.3348 34.7593 26.4137C34.9561 25.4927 35.3385 24.6214 35.8833 23.8531V23.8531C36.7696 22.6035 37.3302 21.1525 37.5143 19.6316C37.6984 18.1107 37.5003 16.5679 36.9378 15.1428V15.1428C39.3648 12.6972 41.1897 9.72063 42.2684 6.44836L42.453 5.8631L43.3757 0.289993H1L1.9227 5.8631L2.11778 6.44836C3.1984 9.71973 5.02307 12.6959 7.44835 15.1428V15.1428C6.88591 16.5679 6.68778 18.1107 6.87191 19.6316C7.05604 21.1525 7.61661 22.6035 8.50287 23.8531V23.8531C9.04768 24.6214 9.43013 25.4927 9.62685 26.4137C9.82357 27.3348 9.83043 28.2863 9.64701 29.2101L9.3043 30.9236C8.71155 33.3392 8.99168 35.8865 10.0952 38.1154L11.1497 40.2245L8.38687 160.966L7.39562 161.989C5.60096 163.835 3.98395 165.846 2.56595 167.995V167.995C1.55339 169.522 1.01415 171.314 1.01582 173.146L1 179.616Z" fill="#1D4E8A" stroke="#1D4E8B" stroke-width="0.5" stroke-miterlimit="10"/>
<path d="M106.051 179.615H148.432V173.146C148.424 171.311 147.874 169.518 146.85 167.995C145.432 165.846 143.815 163.835 142.02 161.989L141.05 160.966L138.287 40.2245L139.342 38.1154C140.445 35.8865 140.725 33.3392 140.133 30.9236V30.9236L139.79 29.2101C139.607 28.2863 139.613 27.3348 139.81 26.4137C140.007 25.4927 140.389 24.6214 140.934 23.8531V23.8531C141.82 22.6035 142.381 21.1525 142.565 19.6316C142.749 18.1107 142.551 16.5679 141.989 15.1428V15.1428C144.414 12.6959 146.239 9.71973 147.319 6.44836L147.514 5.8631L148.432 0.263626H106.051L106.973 5.8631L107.169 6.44836C108.247 9.72062 110.072 12.6972 112.499 15.1428V15.1428C111.937 16.5679 111.739 18.1107 111.923 19.6316C112.107 21.1525 112.667 22.6035 113.554 23.8531V23.8531C114.093 24.6189 114.472 25.4861 114.667 26.4023C114.861 27.3185 114.868 28.2647 114.687 29.1837L114.345 30.8973C113.752 33.3128 114.032 35.8601 115.135 38.0891L116.19 40.1981L113.427 160.94L112.436 161.963C110.641 163.809 109.024 165.82 107.606 167.968C106.594 169.495 106.054 171.287 106.056 173.12L106.051 179.615Z" fill="#1D4E8A" stroke="#1D4E8B" stroke-width="0.5" stroke-miterlimit="10"/>
</svg>
