<?xml version="1.0" encoding="utf-8"?>
<!-- Generator: Adobe Illustrator 23.0.0, SVG Export Plug-In . SVG Version: 6.00 Build 0)  -->
<svg version="1.1" id="Capa_1" xmlns="http://www.w3.org/2000/svg" xmlns:xlink="http://www.w3.org/1999/xlink" x="0px" y="0px"
	 viewBox="0 0 360 360" style="enable-background:new 0 0 360 360;" xml:space="preserve">
<style type="text/css">
	.st0{opacity:0.8;}
	.st1{fill:#FFFFFF;}
	.st2{clip-path:url(#SVGID_2_);}
	.st3{fill:#A1D683;}
	.st4{fill:#96DAEA;}
	.st5{opacity:0.7;fill:#83BC39;}
	.st6{fill:#2ED9C3;}
	.st7{fill:none;}
	.st8{fill:#636569;}
</style>
<g>
	<g class="st0">
		<path class="st1" d="M164.76,233.86c12.8,1.84,25.45,1.44,38.06-1.46c0.08-0.01,0.17-0.01,0.25-0.04
			c35.88-9.53,64.28-37.83,71.76-74.59c7.54-37.08-7.68-75.72-38.27-97.89c-30.6-22.19-72.7-24.15-105.29-5.04
			c-32.27,18.92-51.4,55.99-47.43,93.29C88.4,191.1,122.21,226.73,164.76,233.86z M195.34,100.72c4.31,0.53,6.73,4.97,10.01,7.76
			c2.62,2.23,7.46,4.21,9.05,7.11c0.91,1.65,0.9,4.58,1.44,6.46c0.62,2.17,1.39,4.29,2.27,6.36c0.66,1.56,1.55,3.03,2.2,4.59
			c1.07,2.57,0.41,3.64-0.41,6.32c-1.33,4.35-2.13,8.87-2.36,13.42c-0.24,4.74-3.72,6.25-6.78,9.6c-1.2,1.32-2.35,2.71-3.42,4.14
			c-1.26,1.68-2.47,4.6-4.18,5.72c-1.41,0.92-3.81,0.94-5.48,1.36c-2.1,0.53-4.17,1.18-6.19,1.96c-1.66,0.64-3.3,1.35-4.89,2.14
			c-2.97,1.47-3.65,1.63-6.88,0.59c-3.78-1.23-7.7-2.05-11.66-2.44c-2.08-0.21-4.69,0.24-6.47-0.95c-1.78-1.2-3.43-3.88-5.03-5.38
			c-1.5-1.4-3.07-2.72-4.71-3.94c-1.64-1.22-4.61-2.5-5.7-4.14c-1.16-1.75-1.21-4.98-1.8-7.03c-0.62-2.15-1.38-4.26-2.26-6.32
			c-0.74-1.74-2.68-4.17-2.97-5.96c-0.36-2.26,1.33-5.26,1.88-7.44c1.17-4.68,1.66-9.43,1.63-14.24c3.19-2.61,6.13-5.44,8.72-8.67
			c2.49-3.1,3.76-7,7.66-8.08c3.86-1.06,7.65-1.93,11.35-3.54c1.7-0.74,3.94-2.56,5.72-2.89c2.1-0.39,4.64,1.14,6.63,1.67
			C186.93,99.99,191.05,100.2,195.34,100.72z"/>
		<path class="st1" d="M357.95,310.35c-0.35,0-0.7,0-1.05,0c0-1.46,0-2.92,0-4.37c0-0.59-0.21-1.03-0.54-1.35
			c-0.02-0.02-0.04-0.05-0.06-0.07c-0.01-0.01-0.03-0.03-0.04-0.04c-0.32-0.33-0.77-0.54-1.36-0.54c-1.31,0-2.62,0-3.94,0
			c-0.19,0-0.37,0.04-0.54,0.09c-0.18-0.05-0.36-0.09-0.56-0.09c-1.09,0-2.18,0-3.26,0c-0.2,0-0.39,0.03-0.57,0.09
			c-0.18-0.05-0.36-0.09-0.55-0.09c-1.31,0-2.62,0-3.94,0c-0.13,0-0.25,0.02-0.37,0.04c-2.02-0.17-3.69,0.14-5.22,1.15
			c-2.04-1.46-4.46-1.53-6.85-0.47c-2.68-1.12-5.94-1.18-7.88,1.35c-1.19-1.02-2.75-1.73-4.45-2.01c-0.21-0.07-0.45-0.11-0.72-0.1
			c-0.25-0.02-0.46,0-0.66,0.05c-0.96,0.06-1.92,0.17-2.87,0.31c-0.3-0.19-0.65-0.31-1.04-0.31c-1.09,0-2.18,0-3.26,0
			c-0.78,0-1.42,0.45-1.77,1.1c-1.7-1.01-3.79-1.23-5.96-1.03c-0.16-0.04-0.32-0.07-0.5-0.07c-1.31,0-2.62,0-3.94,0
			c-0.22,0-0.43,0.05-0.63,0.12c-0.2-0.07-0.41-0.12-0.63-0.12c-2.22,0-4.44,0-6.66,0c-0.37,0-0.71,0.11-1.01,0.3
			c-1.6-0.36-3.16-0.28-4.89,0.08c-0.32-0.23-0.7-0.37-1.13-0.37c-1.09,0-2.18,0-3.26,0c-0.53,0-1,0.21-1.35,0.55
			c-1.44-0.54-2.84-0.69-4.31-0.33c-0.27-0.14-0.56-0.22-0.88-0.22c-1.29,0-2.58,0-3.87,0c-0.34,0-0.66,0.1-0.95,0.26
			c-0.87-0.28-1.93-0.26-3.55-0.26c-0.37,0-0.72,0.11-1.02,0.3c-1.85-0.61-3.74-0.34-5.47,0.64c-1.5-0.9-3.19-0.9-5.13-0.88
			c-1.63,0.02-3.3-0.21-4.92,0.1c-0.23-0.1-0.49-0.16-0.75-0.16c-2.29,0-4.58,0-6.87,0c-0.32,0-0.62,0.09-0.9,0.23
			c-1.22-0.26-2.42-0.27-3.68-0.1c-0.21-0.07-0.42-0.13-0.66-0.13c-1.52,0-3.04,0-4.56,0c-0.28,0-0.56,0.08-0.83,0.2
			c-0.27-0.12-0.55-0.2-0.83-0.2c-1.51,0-3.01,0-4.52,0c-0.26,0-0.5,0.06-0.72,0.15c-0.23-0.09-0.49-0.15-0.78-0.15
			c-1.31,0-2.62,0-3.94,0c-0.19,0-0.37,0.04-0.54,0.09c-0.18-0.05-0.36-0.09-0.56-0.09c-1.09,0-2.18,0-3.26,0
			c-0.2,0-0.39,0.03-0.57,0.09c-0.18-0.05-0.36-0.09-0.55-0.09c-1.31,0-2.62,0-3.94,0c-0.32,0-0.63,0.09-0.9,0.24
			c-1.66-0.35-3.26-0.21-4.99,0.12c-0.31-0.22-0.69-0.35-1.1-0.35c-1.09,0-2.18,0-3.26,0c-0.53,0-0.99,0.21-1.34,0.54
			c-1.38-0.53-2.76-0.72-4.22-0.4c-0.23-0.09-0.47-0.15-0.72-0.15c-2.29,0-4.58,0-6.87,0c-0.32,0-0.63,0.09-0.9,0.24
			c-1.76-0.37-3.45-0.19-5.3,0.18c-1.34-0.38-2.66-0.47-4.08-0.31c-0.18-0.06-0.38-0.1-0.59-0.1c-1.21,0-2.42,0-3.64,0
			c-0.35,0-0.67,0.09-0.95,0.25c-0.28-0.16-0.59-0.25-0.94-0.25c-3.16,0-6.31,0-9.47,0c-0.21,0-0.42,0.04-0.61,0.11
			c-0.2-0.07-0.4-0.11-0.61-0.11c-1.29,0-2.58,0-3.87,0c-0.1,0-0.19,0.02-0.28,0.03c-0.19-0.89-0.94-1.68-1.95-1.68
			c-1.72,0-3.85-0.37-5.52,0c-1.22,0.27-1.85,0.97-2.56,1.73c-0.16-0.04-0.32-0.07-0.49-0.07c-1.31,0-2.62,0-3.94,0
			c-0.14,0-0.27,0.01-0.4,0.04c-1.97-0.16-3.67,0.18-5.09,1.1c-0.35-0.67-0.99-1.14-1.79-1.14c-1.09,0-2.18,0-3.26,0
			c-0.12,0-0.24,0.01-0.36,0.03c-0.11-0.02-0.22-0.03-0.33-0.03c-4.4,0-8.79,0-13.19,0c-0.35,0-0.67,0.09-0.95,0.25
			c-0.28-0.16-0.59-0.25-0.94-0.25c-4.35,0-8.7,0-13.05,0c-0.19,0-0.38,0.04-0.55,0.09c-1.67-0.2-3.3,0.01-4.99,0.33
			c-0.03,0.01-0.07,0.02-0.1,0.03c-2.21-0.85-4.51-0.48-6.28,0.75c-0.32-0.7-1.02-1.2-1.83-1.2c-1.29,0-2.58,0-3.87,0
			c-0.2,0-0.4,0.04-0.59,0.1c-0.88-0.28-2.03-0.1-2.93-0.1c-2.13,0-4.26,0-6.4,0c-0.5,0-0.97,0.21-1.33,0.53
			c-0.02-0.01-0.04-0.01-0.06-0.02c-0.01,0-0.02-0.01-0.03-0.02c-1.46-0.54-2.85-0.68-4.28-0.35c-0.22-0.09-0.45-0.14-0.7-0.14
			c-2.29,0-4.58,0-6.87,0c-0.32,0-0.63,0.09-0.9,0.24c-1.83-0.38-3.58-0.18-5.51,0.22c-0.01,0-0.01,0.01-0.02,0.01
			c-1.28-0.53-2.62-0.63-4.01-0.34c-0.2-0.07-0.41-0.12-0.63-0.12c-4.82,0-9.65,0-14.47,0c-0.07,0-0.13,0.01-0.2,0.02
			c-0.07-0.01-0.13-0.02-0.2-0.02c-1.31,0-2.62,0-3.94,0c-0.16,0-0.32,0.03-0.47,0.07c-1.02-0.16-1.95-0.11-2.89,0.14
			c-0.26-0.13-0.55-0.2-0.85-0.2c-1.29,0-2.58,0-3.87,0c-0.34,0-0.66,0.1-0.95,0.26c-0.87-0.28-1.93-0.26-3.55-0.26
			c-0.37,0-0.72,0.11-1.03,0.3c-1.56-0.5-3.14-0.37-4.77,0.24c-4.79-1.62-10.21,0.91-10.25,6.6c-0.04,5.63,5.45,8.22,10.19,6.48
			c1.64,0.61,3.24,0.72,4.8,0.21c0.31,0.2,0.67,0.32,1.06,0.32c1.29,0,2.58,0,3.87,0c0.36,0,0.7-0.11,0.99-0.28
			c0.85,0.29,1.9,0.28,3.5,0.28c0.21,0,0.42-0.04,0.61-0.11c1.67,0.18,3.11,0.04,4.48-0.79c1.62,0.97,3.43,1.21,5.19,0.62
			c0.29,0.17,0.62,0.27,0.98,0.27c3.19,0,6.38,0,9.57,0c0.56,0,1.07-0.25,1.44-0.64c1.51,0.74,3.21,0.89,4.9,0.32
			c0.31,0.19,0.66,0.31,1.04,0.31c1.31,0,2.62,0,3.93,0c0.07,0,0.15-0.01,0.22-0.02c0.06,0.01,0.11,0.02,0.17,0.02
			c2.87,0,5.74,0,8.6,0c0.12,0,0.24-0.02,0.35-0.04c1.51,0.14,3.05-0.1,4.29-0.78c0.37,0.49,0.95,0.82,1.59,0.82
			c3.1,0,6.19,0,9.29,0c0.21,0,0.42-0.04,0.61-0.11c0.03,0.01,0.05,0.03,0.08,0.04c1.11,0.37,2.65,0.07,3.8,0.07
			c0.79,0,1.48-0.49,1.81-1.17c1.66,1.13,3.79,1.5,5.85,0.84c0.31,0.21,0.69,0.33,1.08,0.33c1.31,0,2.62,0,3.92,0
			c0.67,0,1.27-0.35,1.63-0.87c0.37,0.52,0.97,0.87,1.63,0.87c1.31,0,2.62,0,3.94,0c0.03,0,0.05-0.01,0.08-0.01
			c0.03,0,0.05,0.01,0.08,0.01c7.75,0,15.49,0,23.24,0c0.34,0,0.66-0.09,0.94-0.24c0.28,0.16,0.59,0.24,0.94,0.24
			c1.39,0,2.77,0,4.16,0c0.2,0,0.4-0.05,0.59-0.11c0.9,0.16,1.76,0.15,2.76,0.05c0.15,0.04,0.3,0.06,0.46,0.06c1.31,0,2.62,0,3.94,0
			c0.37,0,0.72-0.11,1.02-0.3c1.39,0.46,2.84,0.45,4.23-0.01c0.31,0.2,0.67,0.31,1.05,0.31c1.29,0,2.58,0,3.87,0
			c0.36,0,0.7-0.11,0.99-0.28c0.85,0.29,1.9,0.28,3.5,0.28c0.21,0,0.42-0.04,0.61-0.11c0.2,0.07,0.4,0.11,0.61,0.11
			c6.02,0,12.04,0,18.06,0c0.34,0,0.67-0.1,0.95-0.26c0.29,0.16,0.61,0.26,0.95,0.26c1.31,0,2.62,0,3.92,0
			c0.07,0,0.15-0.01,0.22-0.02c0.06,0.01,0.11,0.02,0.17,0.02c2.87,0,5.74,0,8.61,0c0.11,0,0.21-0.02,0.32-0.03
			c0.89,0.1,1.34,0.09,2.06,0c0.1,0.02,0.2,0.04,0.3,0.04c1.38,0,2.76,0,4.14,0c0.34,0,0.66-0.09,0.94-0.24
			c0.28,0.15,0.59,0.24,0.94,0.24c1.91,0,3.82,0,5.73,0c0.07,0,0.15-0.01,0.22-0.02c0.06,0.01,0.11,0.02,0.17,0.02
			c2.44,0,4.87,0,7.31,0c0.34,0,0.66-0.09,0.94-0.24c0.28,0.15,0.59,0.24,0.94,0.24c2.93,0,5.85,0,8.78,0
			c0.31,0,0.61-0.08,0.88-0.22c0.27,0.14,0.57,0.22,0.88,0.22c1.31,0,2.62,0,3.94,0c0.55,0,1.05-0.24,1.42-0.61
			c0.37,0.37,0.87,0.61,1.42,0.61c1.31,0,2.62,0,3.93,0c0.07,0,0.15-0.01,0.22-0.02c0.06,0.01,0.11,0.02,0.17,0.02
			c2.87,0,5.74,0,8.6,0c0.12,0,0.23-0.02,0.35-0.04c0.99,0.1,1.82,0.05,2.65-0.15c0.25,0.12,0.52,0.18,0.81,0.18
			c1.31,0,2.62,0,3.92,0c0.97,0,1.81-0.75,1.97-1.69c1.74,1.59,4.05,2.19,6.4,1.38c0.31,0.19,0.66,0.31,1.04,0.31
			c1.29,0,2.58,0,3.87,0c0.36,0,0.7-0.11,0.99-0.28c0.85,0.29,1.9,0.28,3.5,0.28c0.2,0,0.39-0.04,0.57-0.1
			c0.77,0.1,1.36,0.12,2.14,0.05c0.12,0.03,0.25,0.05,0.37,0.05c1.38,0,2.76,0,4.14,0c0.34,0,0.66-0.09,0.94-0.24
			c0.28,0.16,0.59,0.24,0.94,0.24c2.28,0,4.59,0.23,6.78-0.26c0.29,0.16,0.61,0.26,0.95,0.26c3.95,0,7.91,0,11.86,0
			c0.09,0,0.18-0.02,0.27-0.03c1.25,0.14,2.45,0.07,3.64-0.19c0.27,0.13,0.56,0.21,0.87,0.21c1.38,0,2.76,0,4.14,0
			c0.34,0,0.66-0.09,0.94-0.24c0.28,0.15,0.59,0.24,0.94,0.24c3.31,0,7.26,0.5,9.95-1.45c2.55,1.66,5.45,2.02,7.91,0.51
			c2.35,1.32,4.87,1.26,7.12-0.24c1.55,1.04,3.25,1.31,5.3,1.12c0.15,0.04,0.31,0.06,0.47,0.06c1.91,0,3.82,0,5.74,0
			c0.34,0,0.66-0.09,0.94-0.24c0.28,0.15,0.59,0.24,0.94,0.24c2.93,0,5.85,0,8.78,0c1.08,0,2-0.92,2-2c0-1.26,0-2.52,0-3.78
			C359.95,311.27,359.03,310.35,357.95,310.35z M7.3,310.44C7.18,310.43,7.09,310.4,7.3,310.44L7.3,310.44z"/>
		<path class="st1" d="M10.41,295.76c0.1,0.05,0.2,0.08,0.3,0.11c0.06,0.03,0.12,0.07,0.18,0.09c8.01,3.11,16.6,1.81,24.44-1.15
			c0,0.2,0,0.4,0,0.6c0,1.08,0.92,2,2,2c3.97,0,7.93,0,11.9,0c1.08,0,2-0.92,2-2c0-2.52,0-5.05,0-7.57c1.78,2.51,3.06,6.69,3.9,8.58
			c0.28,0.62,1.08,0.99,1.73,0.99c4.29,0,8.59,0,12.88,0c1.62,0,2.35-1.67,1.73-3.01c-0.22-0.47-0.43-0.96-0.65-1.45
			c3.33,2.94,7.95,4.55,13.16,4.81c0.15,0.03,0.31,0.04,0.48,0.03c0.17,0.01,0.33-0.01,0.47-0.04c7.87-0.46,14.23-3.85,17.03-10.16
			c0,2.6,0,5.21,0,7.81c0,1.08,0.92,2,2,2c3.97,0,7.93,0,11.9,0c1.08,0,2-0.92,2-2c0-3.03,0-6.05,0-9.08
			c4.34-0.08,8.46-0.53,11.78-2.96c3.48,13.12,19.81,18.96,31.8,11.14c12.48-8.15,9.38-26.61-3.43-32.41
			c-0.13-0.08-0.28-0.15-0.45-0.21c-0.16-0.07-0.31-0.11-0.46-0.13c-8.56-2.67-18.59-1.04-24.18,5.91
			c-4.97-9.14-19.8-6.75-28.97-6.75c-0.46,0-0.88,0.17-1.23,0.44c-0.34-0.27-0.77-0.44-1.23-0.44c-3.97,0-7.93,0-11.9,0
			c-1.08,0-2,0.92-2,2c0,3.08,1.87,20.42-3.16,20.47c-5.11,0.05-3.22-17.41-3.22-20.47c0-1.08-0.92-2-2-2c-3.96,0-7.92,0-11.88,0
			c-1.08,0-2,0.92-2,2c0,1.25-0.01,2.5-0.02,3.76c-2.13-2.95-5.43-5.16-9.27-5.62c-6.13-0.73-12.58-0.14-18.74-0.14
			c-1.08,0-2,0.92-2,2c0,0.15,0,0.29,0,0.44c-0.16-0.1-0.33-0.19-0.51-0.25c-9.93-3.14-23.36-5.04-30.87,4.17
			C-3.51,276.43,0.13,290.76,10.41,295.76z M118.43,274.08c-0.01,0.07-0.02,0.11-0.04,0.11
			C118.37,274.18,118.39,274.14,118.43,274.08z M152.45,276.19c1.75,1.84,1.22,5.2-0.8,6.52c-1.9,0.92-4.84,0.77-6.03-1.19
			c-1.01-1.66-0.77-4.4,0.79-5.63C147.95,274.67,151.06,274.72,152.45,276.19z M51.78,273.48c0-0.1,0.01-0.09,0.01,0.02
			C51.79,273.49,51.79,273.49,51.78,273.48z M51.8,273.5C51.8,273.5,51.8,273.5,51.8,273.5C51.78,273.49,51.78,273.48,51.8,273.5
			C51.79,273.49,51.79,273.49,51.8,273.5z M65.38,280.82c0.02,0.4,0.05,0.79,0.09,1.18c-0.17-0.24-0.32-0.5-0.49-0.73
			C65.12,281.12,65.25,280.97,65.38,280.82z M18.14,275.72c-0.03,0.14-0.05,0.28-0.05,0.43c0,2.28,0,4.56,0,6.84
			c-0.51-0.34-0.96-0.79-1.31-1.38C15.33,279.13,16.33,277.08,18.14,275.72z M25.76,274.14c-1.41,0-2.82,0-4.22,0
			c0.75-0.18,1.49-0.27,2.17-0.25C24.42,273.92,25.1,274.01,25.76,274.14z"/>
		<path class="st1" d="M356.99,279.77c-0.77,0.48-1.53,0.97-2.3,1.45c-1.68,1-3.02,1.8-5.03,2.29c-2.39,0.59-5.99,0.72-7.81-1.43
			c-1.96-2.31-0.83-5.25,1.53-6.64c4.68-2.75,9.49,0.57,13.49,3.06c1.3,0.81,3.01-0.24,3.01-1.73c0-3.86,0-7.73,0-11.59
			c0-0.93-0.63-1.64-1.47-1.93c-7.62-2.67-16.01-4.14-23.62-0.59c-2.41,1.13-4.41,2.71-5.98,4.61c0-1.45,0-2.9,0-4.36
			c0-1.08-0.92-2-2-2c-8.29,0-16.59,0-24.88,0c-1.08,0-2,0.92-2,2c0,0.29,0,0.57,0,0.86c-2.48-2.36-7.73-3.02-10.47-3.21
			c-5.77-0.39-12.18,1.41-14.78,7.05c-0.05,0.11-0.09,0.22-0.13,0.33c-2.04-3.57-5.71-6.37-10.08-6.89
			c-6.13-0.73-12.58-0.14-18.74-0.14c-1.08,0-2,0.92-2,2c0,1.97,0,3.94,0,5.91c-0.26-0.41-0.54-0.8-0.83-1.19
			c-7.68-9.97-23.51-9.22-31.69-0.8c0-0.55,0-1.1,0-1.65c0-0.93-0.63-1.64-1.47-1.93c-0.33-0.12-0.67-0.23-1-0.35
			c-8.04-2.66-17.28-3.86-24.82,0.95c-6.24,3.98-8.69,11.32-7.65,18.45c2.38,16.26,21.88,18.42,34.07,12.04
			c0.62-0.32,0.99-1.05,0.99-1.73c0-0.26,0-0.53,0-0.79c3.18,3.27,7.45,5.11,12.47,5.89c0.22,0.03,0.43,0.03,0.64,0.01
			c7.06,0.4,14.33-1.51,18.72-7.43c0.2-0.27,0.38-0.56,0.56-0.84c0,1.99,0,3.98,0,5.97c0,1.08,0.92,2,2,2c3.97,0,7.93,0,11.9,0
			c1.08,0,2-0.92,2-2c0-2.52,0-5.05,0-7.57c1.78,2.51,3.06,6.69,3.9,8.58c0.28,0.62,1.08,0.99,1.73,0.99c4.29,0,8.59,0,12.88,0
			c0.77,0,1.34-0.38,1.65-0.93c6.92,1.97,15.66,2.11,20.15-3.74c0,0.89,0,1.78,0,2.67c0,1.08,0.92,2,2,2c8.41,0,16.83,0,25.24,0
			c1.08,0,2-0.92,2-2c0-1.33,0-2.66,0-3.99c6.92,7.55,20.36,7.88,29.85,2.91c0.62-0.32,0.99-1.05,0.99-1.73c0-3.7,0-7.4,0-11.1
			C360,280.02,358.29,278.95,356.99,279.77z M193.15,276.39c3.6-4.09,9.27-1.35,13.2,1c-0.09,1.21-0.09,2.4,0,3.6
			c-0.12,0.08-0.25,0.16-0.37,0.23c-2.49,1.51-5.19,2.73-8.17,2.69C194.08,283.86,189.85,280.13,193.15,276.39z M260.17,273.5
			C260.17,273.5,260.17,273.5,260.17,273.5C260.16,273.49,260.15,273.48,260.17,273.5C260.17,273.49,260.17,273.49,260.17,273.5z
			 M260.16,273.48c0.01-0.1,0.01-0.09,0.01,0.02C260.17,273.49,260.17,273.49,260.16,273.48z M273.86,282.02c0,0.01,0,0.03,0,0.04
			c-0.17-0.26-0.35-0.52-0.53-0.77c0.88-0.91,1.55-1.89,2.02-2.93c0.39,0.64,0.83,1.26,1.33,1.84
			C275.41,279.61,273.86,280.6,273.86,282.02z M299.92,278.33c-0.03-0.04-0.07-0.08-0.1-0.12c0.03-0.01,0.07-0.03,0.1-0.05
			C299.92,278.21,299.92,278.27,299.92,278.33z"/>
	</g>
	<g>
		<g>
			<g>
				<defs>
					<circle id="SVGID_1_" cx="180" cy="138.43" r="93.24"/>
				</defs>
				<clipPath id="SVGID_2_">
					<use xlink:href="#SVGID_1_"  style="overflow:visible;"/>
				</clipPath>
				<g class="st2">
					<path class="st3" d="M160.42,179.16c5.99,8,8.47,15.64,9.02,17.53c4.32-5.79,9.11-10.07,14.03-13.22
						C177.16,180.76,169.34,178.73,160.42,179.16z"/>
					<path class="st3" d="M124.37,211.73c-3.87-2.16-7.35-4.75-10.47-7.59c-0.03,0.03-0.05,0.05-0.08,0.08
						c0,0,18.16,19.11,41.76,24.23c1.1-4.68,2.4-8.96,3.85-12.87C143.05,221.95,124.37,211.73,124.37,211.73z"/>
					<path class="st3" d="M236.52,194.32c-2.39,17.65-20.93,28.92-20.93,28.92c-3.67,2.3-7.6,4.03-11.61,5.3
						c0.01,0.03,0.02,0.05,0.02,0.08c0,0,25.59-5.97,41.99-24.24C242.38,200.98,239.24,197.62,236.52,194.32z"/>
					<path class="st3" d="M205.62,175.71c10.98-1.28,19.39,0.94,19.91,1.08c-2.93-6.7-4.28-13.05-4.57-18.93
						C215.44,161.97,209.73,167.75,205.62,175.71z"/>
					<path class="st3" d="M269.9,113.27c0.12,0.46,0.18,0.71,0.18,0.71c-4.68,1.41-9.1,2.44-13.28,3.15
						c14.16,10.88,14.65,32.64,14.65,32.64c0.06,4.35-0.43,8.58-1.3,12.63c0.02,0,0.03,0.01,0.05,0.01
						C270.2,162.41,277.84,136.95,269.9,113.27z"/>
					<path class="st3" d="M225.28,134.7c4.37-10.14,10.49-16.33,10.91-16.76c-7.31-0.79-13.52-2.77-18.78-5.45
						C218.23,119.34,220.41,127.17,225.28,134.7z"/>
					<path class="st3" d="M154.15,100.93c-9.72,1.2-17.49-0.36-19.7-0.88c2.91,6.64,4.26,12.93,4.57,18.76
						C144.5,114.67,150.11,108.88,154.15,100.93z"/>
					<path class="st3" d="M113.98,72.47c3.38,3.18,6.34,6.32,8.94,9.42c2.66-17.37,20.86-28.44,20.86-28.44
						c3.11-1.85,6.33-3.34,9.6-4.52c-6.72,1.98-27.11,9.01-40.72,24.86C113.49,72.93,113.98,72.47,113.98,72.47z"/>
					<path class="st3" d="M124.22,158.47c7.16,0.84,13.25,2.84,18.42,5.5c-0.82-6.81-2.99-14.58-7.83-22.07
						C130.99,150.9,125.77,156.83,124.22,158.47z"/>
					<path class="st3" d="M88.53,127.09c-0.07-4.46,0.45-8.79,1.37-12.93c-0.01,0-0.02-0.01-0.03-0.01c0,0-7.44,24.79,0,48.2
						c4.5-1.35,8.75-2.35,12.77-3.05C89.01,148.29,88.53,127.09,88.53,127.09z"/>
					<path class="st3" d="M199.48,97.24c-6.31-8.41-8.74-16.44-9.12-17.81c-4.34,5.96-9.17,10.35-14.12,13.58
						C182.59,95.72,190.48,97.73,199.48,97.24z"/>
					<path class="st3" d="M200,60.96c16.48-6.74,35.49,3.67,35.49,3.67c3.16,1.76,6.06,3.82,8.72,6.06
						c-4.92-4.71-21.35-19.11-42.12-22.97c1.11,0.28,1.72,0.46,1.72,0.46C202.72,52.82,201.44,57.07,200,60.96z"/>
					<path class="st4" d="M123.52,195.04c-17.34-2.69-28.38-20.85-28.38-20.85c-2.28-3.82-4-7.81-5.28-11.84
						c-0.03,0.01-0.05,0.02-0.08,0.02c0,0,5.96,25.21,24.12,41.76C117.15,200.69,120.36,197.67,123.52,195.04z"/>
					<path class="st5" d="M159.42,215.57c2.82-7.61,6.24-13.82,10.02-18.89c-0.55-1.89-3.03-9.53-9.02-17.53
						c-5.81,0.28-12.08,1.59-18.7,4.45c-5.83,2.51-11.92,6.21-18.2,11.43c-3.16,2.63-6.37,5.65-9.62,9.09
						c3.12,2.84,6.6,5.43,10.47,7.59C124.37,211.73,143.05,221.95,159.42,215.57z"/>
					<path class="st5" d="M123.52,195.04c6.28-5.22,12.37-8.92,18.2-11.43c0.5-2.06,2.1-9.85,0.92-19.63
						c-5.17-2.66-11.26-4.67-18.42-5.5c-6.33-0.74-13.49-0.57-21.58,0.83c-4.02,0.7-8.28,1.7-12.77,3.05
						c1.28,4.03,3,8.02,5.28,11.84C95.14,174.19,106.18,192.35,123.52,195.04z"/>
					<path class="st4" d="M168.45,229.66c-4.41,0.15-8.73-0.32-12.87-1.22c-0.01,0.03-0.01,0.05-0.02,0.07c0,0,25.7,7.25,48.42,0.03
						c-1.4-4.67-2.43-9.07-3.13-13.23C189.89,229.18,168.45,229.66,168.45,229.66z"/>
					<path class="st5" d="M168.45,229.66c0,0,21.45-0.49,32.4-14.35c-1.33-7.89-1.47-14.88-0.75-21.08
						c-1.13-1.1-7.17-6.7-16.63-10.76c-4.91,3.14-9.7,7.42-14.03,13.22c-3.78,5.06-7.19,11.27-10.02,18.89
						c-1.45,3.91-2.74,8.19-3.85,12.87C159.72,229.34,164.04,229.81,168.45,229.66z"/>
					<path class="st5" d="M236.52,194.32c-4.97-6.04-8.53-11.9-10.99-17.52c-0.52-0.14-8.93-2.36-19.91-1.08
						c-2.68,5.19-4.69,11.32-5.53,18.52c-0.72,6.2-0.57,13.19,0.75,21.08c0.7,4.16,1.73,8.56,3.13,13.23c4.02-1.28,7.94-3,11.61-5.3
						C215.59,223.24,234.13,211.97,236.52,194.32z"/>
					<path class="st4" d="M253.35,194.04c-2.08,3.82-4.59,7.26-7.36,10.34c0,0,0.01,0.01,0.01,0.01c0,0,18.96-17.88,24.15-42
						c-4.8-1.13-9.18-2.46-13.17-3.96C263.81,174.94,253.35,194.04,253.35,194.04z"/>
					<path class="st5" d="M256.98,158.44c-7.24-2.71-13.21-5.96-18.12-9.55c-0.03-0.02-0.07-0.03-0.1-0.05c0,0-8.65,2.21-17.81,9.02
						c0.29,5.88,1.64,12.23,4.57,18.93c2.46,5.62,6.02,11.48,10.99,17.52c2.72,3.31,5.86,6.67,9.48,10.07
						c2.77-3.09,5.28-6.52,7.36-10.34C253.35,194.04,263.81,174.94,256.98,158.44z"/>
					<path class="st5" d="M256.8,117.13c-7.69,1.3-14.53,1.47-20.61,0.82c-0.43,0.42-6.54,6.61-10.91,16.76
						c3.22,4.98,7.62,9.83,13.58,14.19c4.91,3.59,10.88,6.84,18.12,9.55c3.99,1.49,8.37,2.83,13.17,3.96
						c0.87-4.05,1.37-8.28,1.3-12.63C271.46,149.77,270.96,128.01,256.8,117.13z"/>
					<path class="st4" d="M245.74,72.2c-3.3,3.51-6.56,6.57-9.78,9.24c17.68,2.37,28.97,20.93,28.97,20.93
						c2.1,3.52,3.72,7.18,4.97,10.9c-1.15-4.34-8.03-27.69-25.69-42.58C245.2,71.64,245.74,72.2,245.74,72.2z"/>
					<path class="st5" d="M235.96,81.44c-6.03,5-11.89,8.6-17.5,11.1c-0.28,1.09-2.3,9.33-1.04,19.95
						c5.26,2.68,11.47,4.67,18.78,5.45c6.08,0.65,12.92,0.48,20.61-0.82c4.17-0.7,8.59-1.74,13.28-3.15c0,0-0.06-0.25-0.18-0.71
						c-1.25-3.71-2.87-7.38-4.97-10.9C264.93,102.38,253.64,83.81,235.96,81.44z"/>
					<path class="st5" d="M200,60.96c-2.73,7.4-6.02,13.48-9.65,18.47c0.38,1.37,2.81,9.4,9.12,17.81c5.9-0.32,12.26-1.72,18.98-4.7
						c5.61-2.49,11.47-6.09,17.5-11.1c3.21-2.67,6.48-5.73,9.78-9.24c0,0-0.54-0.57-1.53-1.51c-2.66-2.24-5.55-4.29-8.72-6.06
						C235.5,64.63,216.48,54.22,200,60.96z"/>
					<path class="st4" d="M106.27,82.9c1.85-3.32,4.02-6.35,6.39-9.11c-4.36,4.51-18.33,20.24-22.76,40.37
						c4.53,1.07,8.68,2.31,12.49,3.7C96.08,101.51,106.27,82.9,106.27,82.9z"/>
					<path class="st5" d="M102.38,117.87c7.72,2.82,14.02,6.25,19.14,10.05c2.23-0.67,9.71-3.22,17.49-9.1
						c-0.31-5.83-1.66-12.12-4.57-18.76c-2.55-5.82-6.28-11.9-11.53-18.16c-2.6-3.1-5.56-6.24-8.94-9.42c0,0-0.49,0.47-1.32,1.32
						c-2.37,2.76-4.54,5.79-6.39,9.11C106.27,82.9,96.08,101.51,102.38,117.87z"/>
					<path class="st5" d="M102.64,159.3c8.09-1.4,15.25-1.57,21.58-0.83c1.55-1.65,6.77-7.58,10.59-16.57
						c-3.17-4.9-7.47-9.69-13.29-14c-5.12-3.8-11.42-7.22-19.14-10.05c-3.81-1.39-7.96-2.64-12.49-3.7
						c-0.91,4.15-1.43,8.47-1.37,12.93C88.53,127.09,89.01,148.29,102.64,159.3z"/>
					<path class="st4" d="M158.69,61.13c10.95-13.89,32.42-14.38,32.42-14.38c3.76-0.06,7.44,0.3,10.98,0.96
						c-6.22-1.56-28.32-6.15-48.72,1.22c1.43-0.42,2.24-0.61,2.24-0.61C156.98,52.83,157.98,57.1,158.69,61.13z"/>
					<path class="st5" d="M122.92,81.89c5.25,6.26,8.98,12.35,11.53,18.16c2.21,0.52,9.98,2.08,19.7,0.88
						c2.66-5.23,4.63-11.39,5.42-18.64c0.68-6.22,0.49-13.25-0.89-21.16c-0.7-4.04-1.71-8.3-3.07-12.81c0,0-0.82,0.19-2.24,0.61
						c-3.27,1.18-6.49,2.66-9.6,4.52C143.78,53.45,125.58,64.51,122.92,81.89z"/>
					<path class="st5" d="M158.69,61.13c1.37,7.91,1.57,14.93,0.89,21.16c1.39,1.33,7.39,6.76,16.66,10.72
						c4.96-3.23,9.79-7.63,14.12-13.58c3.63-4.99,6.92-11.07,9.65-18.47c1.43-3.89,2.72-8.14,3.81-12.79c0,0-0.61-0.18-1.72-0.46
						c-3.55-0.66-7.22-1.01-10.98-0.96C191.11,46.76,169.63,47.24,158.69,61.13z"/>
					<path class="st6" d="M271.46,149.77c0,0-0.49-21.76-14.65-32.64c4.17-0.7,8.59-1.74,13.28-3.15c0,0-0.06-0.25-0.18-0.71
						c-1.25-3.71-2.87-7.38-4.97-10.9c0,0-11.29-18.57-28.97-20.93c3.21-2.67,6.48-5.73,9.78-9.24c0,0-0.54-0.57-1.53-1.51
						c-2.66-2.24-5.55-4.29-8.72-6.06c0,0-19.01-10.41-35.49-3.67c1.43-3.89,2.72-8.14,3.81-12.79c0,0-0.61-0.18-1.72-0.46
						c-3.55-0.66-7.22-1.01-10.98-0.96c0,0-21.48,0.49-32.42,14.38c-0.7-4.04-1.71-8.3-3.07-12.81c0,0-0.82,0.19-2.24,0.61
						c-3.27,1.18-6.49,2.66-9.6,4.52c0,0-18.2,11.06-20.86,28.44c-2.6-3.1-5.56-6.24-8.94-9.42c0,0-0.49,0.47-1.32,1.32
						c-2.37,2.76-4.54,5.79-6.39,9.11c0,0-10.19,18.61-3.88,34.96c-3.81-1.39-7.96-2.64-12.49-3.7c-0.91,4.15-1.43,8.47-1.37,12.93
						c0,0,0.48,21.2,14.1,32.21c-4.02,0.7-8.28,1.7-12.77,3.05c1.28,4.03,3,8.02,5.28,11.84c0,0,11.04,18.16,28.38,20.85
						c-3.16,2.63-6.37,5.65-9.62,9.09c3.12,2.84,6.6,5.43,10.47,7.59c0,0,18.68,10.23,35.06,3.85c-1.45,3.91-2.74,8.19-3.85,12.87
						c4.15,0.9,8.46,1.37,12.87,1.22c0,0,21.45-0.49,32.4-14.35c0.7,4.16,1.73,8.56,3.13,13.23c4.02-1.28,7.94-3,11.61-5.3
						c0,0,18.54-11.27,20.93-28.92c2.72,3.31,5.86,6.67,9.48,10.07c2.77-3.09,5.28-6.52,7.36-10.34c0,0,10.46-19.1,3.63-35.6
						c3.99,1.49,8.37,2.83,13.17,3.96C271.02,158.34,271.52,154.12,271.46,149.77z M238.76,148.84c0,0-8.65,2.21-17.81,9.02
						c0.29,5.88,1.64,12.23,4.57,18.93c-0.52-0.14-8.93-2.36-19.91-1.08c-2.68,5.19-4.69,11.32-5.53,18.52
						c-1.13-1.1-7.17-6.7-16.63-10.76c-4.91,3.14-9.7,7.42-14.03,13.22c-0.55-1.89-3.03-9.53-9.02-17.53
						c-5.81,0.28-12.08,1.59-18.7,4.45c0.5-2.06,2.1-9.85,0.92-19.63c-5.17-2.66-11.26-4.67-18.42-5.5
						c1.55-1.65,6.77-7.58,10.59-16.57c-3.17-4.9-7.47-9.69-13.29-14c2.23-0.67,9.71-3.22,17.49-9.1
						c-0.31-5.83-1.66-12.12-4.57-18.76c2.21,0.52,9.98,2.08,19.7,0.88c2.66-5.23,4.63-11.39,5.42-18.64
						c1.39,1.33,7.39,6.76,16.66,10.72c4.96-3.23,9.79-7.63,14.12-13.58c0.38,1.37,2.81,9.4,9.12,17.81
						c5.9-0.32,12.26-1.72,18.98-4.7c-0.28,1.09-2.3,9.33-1.04,19.95c5.26,2.68,11.47,4.67,18.78,5.45
						c-0.43,0.42-6.54,6.61-10.91,16.76c3.22,4.98,7.62,9.83,13.58,14.19C238.83,148.87,238.8,148.86,238.76,148.84z"/>
					<path class="st7" d="M199.48,97.24c-8.99,0.49-16.89-1.52-23.24-4.23c-7.48,4.87-15.26,7.08-22.08,7.92
						c-4.04,7.95-9.65,13.74-15.13,17.88c0.47,8.93-1.52,16.77-4.21,23.1c4.84,7.49,7.01,15.26,7.83,22.07
						c7.91,4.07,13.67,9.71,17.78,15.18c8.92-0.43,16.74,1.6,23.05,4.31c7.53-4.82,15.34-6.96,22.16-7.76
						c4.11-7.97,9.82-13.74,15.33-17.85c-0.44-8.97,1.6-16.84,4.33-23.16c-4.88-7.54-7.05-15.37-7.87-22.21
						C209.42,108.42,203.61,102.75,199.48,97.24z"/>
					<path class="st4" d="M142.64,163.98c1.18,9.78-0.43,17.57-0.92,19.63c6.62-2.85,12.89-4.17,18.7-4.45
						C156.32,173.68,150.55,168.05,142.64,163.98z"/>
					<path class="st4" d="M200.1,194.23c0.84-7.2,2.84-13.32,5.53-18.52c-6.82,0.79-14.62,2.93-22.16,7.76
						C192.93,187.54,198.96,193.13,200.1,194.23z"/>
					<path class="st4" d="M220.96,157.87c9.16-6.81,17.81-9.02,17.81-9.02c0.03,0.02,0.07,0.03,0.1,0.05
						c-5.96-4.36-10.36-9.21-13.58-14.19C222.56,141.03,220.51,148.9,220.96,157.87z"/>
					<path class="st4" d="M217.42,112.5c-1.26-10.62,0.76-18.87,1.04-19.95c-6.72,2.98-13.08,4.38-18.98,4.7
						C203.61,102.75,209.42,108.42,217.42,112.5z"/>
					<path class="st4" d="M139.02,118.81c-7.78,5.88-15.27,8.43-17.49,9.1c5.82,4.31,10.12,9.09,13.29,14
						C137.5,135.58,139.49,127.74,139.02,118.81z"/>
					<path class="st4" d="M159.57,82.29c-0.79,7.25-2.77,13.4-5.42,18.64c6.82-0.84,14.6-3.04,22.08-7.92
						C166.97,89.06,160.96,83.62,159.57,82.29z"/>
				</g>
			</g>
		</g>
		<g>
			<g>
				<path class="st8" d="M9.03,314.47c-0.33,0.17-1.02,0.34-1.89,0.34c-2.02,0-3.52-1.27-3.52-3.62c0-2.24,1.52-3.74,3.73-3.74
					c0.88,0,1.45,0.19,1.7,0.31l-0.23,0.76c-0.34-0.17-0.84-0.3-1.43-0.3c-1.68,0-2.79,1.07-2.79,2.94c0,1.75,1.01,2.86,2.74,2.86
					c0.57,0,1.15-0.12,1.52-0.3L9.03,314.47z"/>
				<path class="st8" d="M12.95,314.82c-1.9,0-3.21-1.46-3.21-3.63c0-2.27,1.4-3.75,3.31-3.75c1.96,0,3.22,1.5,3.22,3.62
					c0,2.45-1.5,3.77-3.31,3.77H12.95z M13,314.06c1.46,0,2.29-1.35,2.29-2.97c0-1.42-0.74-2.91-2.28-2.91
					c-1.54,0-2.3,1.43-2.3,2.98c0,1.51,0.83,2.9,2.28,2.9H13z"/>
				<path class="st8" d="M17.66,314.7v-7.15h1.02l2.28,3.62c0.52,0.84,0.94,1.59,1.27,2.32l0.03-0.01
					c-0.08-0.95-0.11-1.82-0.11-2.93v-3h0.87v7.15h-0.93l-2.27-3.63c-0.5-0.8-0.98-1.61-1.33-2.39l-0.03,0.01
					c0.05,0.9,0.06,1.76,0.06,2.95v3.05H17.66z"/>
				<path class="st8" d="M24.71,313.57c0.41,0.25,1.01,0.46,1.64,0.46c0.94,0,1.5-0.49,1.5-1.21c0-0.67-0.38-1.06-1.35-1.42
					c-1.17-0.4-1.89-1.02-1.89-2.02c0-1.11,0.92-1.94,2.31-1.94c0.72,0,1.26,0.17,1.57,0.34l-0.25,0.76
					c-0.22-0.14-0.7-0.34-1.35-0.34c-0.98,0-1.35,0.58-1.35,1.07c0,0.66,0.44,0.99,1.42,1.37c1.21,0.48,1.81,1.05,1.81,2.1
					c0,1.09-0.81,2.06-2.49,2.06c-0.69,0-1.44-0.21-1.82-0.47L24.71,313.57z"/>
				<path class="st8" d="M31.17,307.55v4.24c0,1.59,0.71,2.27,1.67,2.27c1.05,0,1.74-0.7,1.74-2.27v-4.24h0.93v4.18
					c0,2.2-1.16,3.09-2.7,3.09c-1.46,0-2.57-0.83-2.57-3.05v-4.21H31.17z"/>
				<path class="st8" d="M37.29,307.55h0.93v6.37h3.05v0.77h-3.99V307.55z"/>
				<path class="st8" d="M42.92,308.34h-2.17v-0.78h5.29v0.78h-2.19v6.36h-0.93V308.34z"/>
				<path class="st8" d="M49.53,314.82c-1.9,0-3.21-1.46-3.21-3.63c0-2.27,1.4-3.75,3.31-3.75c1.96,0,3.22,1.5,3.22,3.62
					c0,2.45-1.5,3.77-3.31,3.77H49.53z M49.59,314.06c1.46,0,2.29-1.35,2.29-2.97c0-1.42-0.74-2.91-2.28-2.91
					c-1.54,0-2.3,1.43-2.3,2.98c0,1.51,0.83,2.9,2.28,2.9H49.59z"/>
				<path class="st8" d="M54.24,307.66c0.47-0.1,1.15-0.16,1.77-0.16c0.99,0,1.63,0.19,2.08,0.59c0.35,0.31,0.56,0.8,0.56,1.36
					c0,0.93-0.6,1.56-1.35,1.81v0.03c0.54,0.19,0.87,0.7,1.05,1.44c0.23,1,0.4,1.69,0.54,1.96h-0.95c-0.12-0.21-0.28-0.82-0.47-1.71
					c-0.21-0.99-0.6-1.36-1.44-1.39h-0.87v3.1h-0.92V307.66z M55.16,310.9h0.94c0.99,0,1.61-0.54,1.61-1.36
					c0-0.92-0.67-1.33-1.64-1.33c-0.45,0-0.75,0.04-0.91,0.08V310.9z"/>
				<path class="st8" d="M63.83,311.35h-2.77v2.58h3.1v0.77h-4.03v-7.15H64v0.77h-2.94v2.26h2.77V311.35z"/>
				<path class="st8" d="M65.43,313.57c0.41,0.25,1.01,0.46,1.64,0.46c0.94,0,1.5-0.49,1.5-1.21c0-0.67-0.38-1.06-1.35-1.42
					c-1.17-0.4-1.89-1.02-1.89-2.02c0-1.11,0.92-1.94,2.31-1.94c0.72,0,1.26,0.17,1.57,0.34l-0.25,0.76
					c-0.22-0.14-0.7-0.34-1.35-0.34c-0.98,0-1.35,0.58-1.35,1.07c0,0.66,0.44,0.99,1.42,1.37c1.21,0.48,1.81,1.05,1.81,2.1
					c0,1.09-0.81,2.06-2.49,2.06c-0.69,0-1.44-0.21-1.82-0.47L65.43,313.57z"/>
				<path class="st8" d="M77.1,311.35h-2.77v2.58h3.1v0.77H73.4v-7.15h3.87v0.77h-2.94v2.26h2.77V311.35z"/>
				<path class="st8" d="M78.82,314.7v-7.15h1.02l2.28,3.62c0.52,0.84,0.94,1.59,1.27,2.32l0.03-0.01
					c-0.08-0.95-0.11-1.82-0.11-2.93v-3h0.87v7.15h-0.93l-2.27-3.63c-0.5-0.8-0.98-1.61-1.33-2.39l-0.03,0.01
					c0.05,0.9,0.06,1.76,0.06,2.95v3.05H78.82z"/>
				<path class="st8" d="M91.21,314.82c-1.9,0-3.21-1.46-3.21-3.63c0-2.27,1.4-3.75,3.31-3.75c1.96,0,3.22,1.5,3.22,3.62
					c0,2.45-1.5,3.77-3.31,3.77H91.21z M91.27,314.06c1.46,0,2.29-1.35,2.29-2.97c0-1.42-0.74-2.91-2.28-2.91
					c-1.54,0-2.3,1.43-2.3,2.98c0,1.51,0.83,2.9,2.28,2.9H91.27z"/>
				<path class="st8" d="M95.92,307.65c0.45-0.08,1.03-0.15,1.77-0.15c0.91,0,1.58,0.21,2,0.59c0.39,0.34,0.64,0.86,0.64,1.48
					c0,0.65-0.19,1.16-0.56,1.53c-0.49,0.52-1.28,0.79-2.19,0.79c-0.28,0-0.53-0.01-0.74-0.06v2.87h-0.92V307.65z M96.85,311.07
					c0.2,0.05,0.46,0.07,0.76,0.07c1.11,0,1.79-0.54,1.79-1.52c0-0.94-0.67-1.4-1.69-1.4c-0.4,0-0.71,0.03-0.87,0.07V311.07z"/>
				<path class="st8" d="M103.11,308.34h-2.17v-0.78h5.29v0.78h-2.19v6.36h-0.93V308.34z"/>
				<path class="st8" d="M108.14,307.55v7.15h-0.93v-7.15H108.14z"/>
				<path class="st8" d="M115.97,311.56c-0.05-0.99-0.12-2.21-0.12-3.09h-0.02c-0.25,0.83-0.54,1.74-0.9,2.72l-1.26,3.47h-0.7
					l-1.17-3.4c-0.34-1.01-0.62-1.93-0.82-2.78h-0.02c-0.02,0.89-0.07,2.09-0.14,3.16l-0.19,3.07h-0.88l0.5-7.15h1.18l1.22,3.46
					c0.3,0.88,0.53,1.68,0.72,2.42h0.02c0.19-0.72,0.45-1.52,0.76-2.42l1.27-3.46h1.18l0.45,7.15h-0.91L115.97,311.56z"/>
				<path class="st8" d="M119.59,307.55v7.15h-0.93v-7.15H119.59z"/>
				<path class="st8" d="M120.9,314.16l3.97-5.8v-0.03h-3.63v-0.77h4.83v0.56l-3.95,5.78v0.03h4v0.77h-5.22V314.16z"/>
				<path class="st8" d="M128.6,312.45l-0.74,2.25h-0.95l2.43-7.15h1.11l2.44,7.15h-0.99l-0.76-2.25H128.6z M130.95,311.73
					l-0.71-2.06c-0.15-0.47-0.25-0.89-0.36-1.3h-0.03c-0.1,0.41-0.21,0.86-0.35,1.29l-0.7,2.07H130.95z"/>
				<path class="st8" d="M138.95,314.47c-0.33,0.17-1.02,0.34-1.89,0.34c-2.01,0-3.52-1.27-3.52-3.62c0-2.24,1.52-3.74,3.73-3.74
					c0.88,0,1.45,0.19,1.7,0.31l-0.23,0.76c-0.34-0.17-0.84-0.3-1.43-0.3c-1.68,0-2.79,1.07-2.79,2.94c0,1.75,1.01,2.86,2.74,2.86
					c0.57,0,1.15-0.12,1.52-0.3L138.95,314.47z"/>
				<path class="st8" d="M141.23,307.55v7.15h-0.93v-7.15H141.23z"/>
				<path class="st8" d="M145.83,314.82c-1.9,0-3.21-1.46-3.21-3.63c0-2.27,1.4-3.75,3.31-3.75c1.96,0,3.22,1.5,3.22,3.62
					c0,2.45-1.5,3.77-3.31,3.77H145.83z M145.88,314.06c1.46,0,2.29-1.35,2.29-2.97c0-1.42-0.74-2.91-2.28-2.91
					c-1.54,0-2.3,1.43-2.3,2.98c0,1.51,0.83,2.9,2.28,2.9H145.88z M147.44,305.9l-1.36,1.24h-0.75l0.99-1.24H147.44z"/>
				<path class="st8" d="M150.54,314.7v-7.15h1.02l2.28,3.62c0.52,0.84,0.94,1.59,1.27,2.32l0.03-0.01
					c-0.08-0.95-0.11-1.82-0.11-2.93v-3h0.87v7.15h-0.93l-2.27-3.63c-0.5-0.8-0.98-1.61-1.33-2.39l-0.03,0.01
					c0.05,0.9,0.06,1.76,0.06,2.95v3.05H150.54z"/>
				<path class="st8" d="M163.84,311.35h-2.77v2.58h3.1v0.77h-4.03v-7.15h3.87v0.77h-2.94v2.26h2.77V311.35z"/>
				<path class="st8" d="M171.58,311.56c-0.05-0.99-0.12-2.21-0.12-3.09h-0.02c-0.25,0.83-0.54,1.74-0.9,2.72l-1.26,3.47h-0.7
					l-1.17-3.4c-0.34-1.01-0.62-1.93-0.82-2.78h-0.02c-0.02,0.89-0.07,2.09-0.14,3.16l-0.19,3.07h-0.88l0.5-7.15h1.18l1.22,3.46
					c0.3,0.88,0.53,1.68,0.72,2.42H169c0.19-0.72,0.45-1.52,0.76-2.42l1.27-3.46h1.18l0.45,7.15h-0.91L171.58,311.56z"/>
				<path class="st8" d="M174.27,307.65c0.45-0.08,1.03-0.15,1.77-0.15c0.91,0,1.58,0.21,2,0.59c0.39,0.34,0.64,0.86,0.64,1.48
					c0,0.65-0.19,1.16-0.56,1.53c-0.49,0.52-1.28,0.79-2.19,0.79c-0.28,0-0.53-0.01-0.74-0.06v2.87h-0.92V307.65z M175.2,311.07
					c0.2,0.05,0.46,0.07,0.76,0.07c1.11,0,1.79-0.54,1.79-1.52c0-0.94-0.67-1.4-1.69-1.4c-0.4,0-0.71,0.03-0.87,0.07V311.07z"/>
				<path class="st8" d="M180.11,307.66c0.47-0.1,1.15-0.16,1.77-0.16c0.99,0,1.63,0.19,2.08,0.59c0.35,0.31,0.56,0.8,0.56,1.36
					c0,0.93-0.6,1.56-1.35,1.81v0.03c0.54,0.19,0.87,0.7,1.05,1.44c0.23,1,0.4,1.69,0.54,1.96h-0.95c-0.12-0.21-0.28-0.82-0.47-1.71
					c-0.21-0.99-0.6-1.36-1.44-1.39h-0.87v3.1h-0.92V307.66z M181.03,310.9h0.94c0.99,0,1.61-0.54,1.61-1.36
					c0-0.92-0.67-1.33-1.64-1.33c-0.45,0-0.75,0.04-0.91,0.08V310.9z"/>
				<path class="st8" d="M189.69,311.35h-2.77v2.58h3.1v0.77h-4.03v-7.15h3.87v0.77h-2.94v2.26h2.77V311.35z"/>
				<path class="st8" d="M191.3,313.57c0.41,0.25,1.01,0.46,1.64,0.46c0.94,0,1.5-0.49,1.5-1.21c0-0.67-0.38-1.06-1.35-1.42
					c-1.17-0.4-1.89-1.02-1.89-2.02c0-1.11,0.92-1.94,2.31-1.94c0.72,0,1.26,0.17,1.57,0.34l-0.25,0.76
					c-0.22-0.14-0.7-0.34-1.35-0.34c-0.98,0-1.35,0.58-1.35,1.07c0,0.66,0.43,0.99,1.42,1.37c1.21,0.48,1.81,1.05,1.81,2.1
					c0,1.09-0.81,2.06-2.49,2.06c-0.69,0-1.44-0.21-1.82-0.47L191.3,313.57z"/>
				<path class="st8" d="M197.99,312.45l-0.74,2.25h-0.95l2.43-7.15h1.11l2.44,7.15h-0.99l-0.76-2.25H197.99z M200.33,311.73
					l-0.71-2.06c-0.15-0.47-0.25-0.89-0.36-1.3h-0.03c-0.1,0.41-0.21,0.86-0.35,1.29l-0.7,2.07H200.33z"/>
				<path class="st8" d="M203.51,307.66c0.47-0.1,1.15-0.16,1.77-0.16c0.99,0,1.63,0.19,2.08,0.59c0.35,0.31,0.56,0.8,0.56,1.36
					c0,0.93-0.6,1.56-1.35,1.81v0.03c0.54,0.19,0.87,0.7,1.05,1.44c0.23,1,0.4,1.69,0.54,1.96h-0.95c-0.12-0.21-0.28-0.82-0.47-1.71
					c-0.21-0.99-0.6-1.36-1.44-1.39h-0.87v3.1h-0.92V307.66z M204.44,310.9h0.94c0.99,0,1.61-0.54,1.61-1.36
					c0-0.92-0.67-1.33-1.64-1.33c-0.45,0-0.75,0.04-0.91,0.08V310.9z"/>
				<path class="st8" d="M210.33,307.55v7.15h-0.93v-7.15H210.33z"/>
				<path class="st8" d="M213.29,312.45l-0.74,2.25h-0.95l2.43-7.15h1.11l2.44,7.15h-0.99l-0.76-2.25H213.29z M215.64,311.73
					l-0.71-2.06c-0.15-0.47-0.25-0.89-0.36-1.3h-0.03c-0.1,0.41-0.21,0.86-0.35,1.29l-0.7,2.07H215.64z"/>
				<path class="st8" d="M218.81,307.55h0.93v6.37h3.05v0.77h-3.99V307.55z"/>
				<path class="st8" d="M227.56,314.7v-3.03l-2.27-4.12h1.06l1.01,1.97c0.27,0.54,0.49,0.98,0.71,1.47h0.02
					c0.19-0.47,0.45-0.93,0.72-1.47l1.03-1.97h1.04l-2.39,4.1v3.04H227.56z"/>
				<path class="st8" d="M234.34,307.66c0.47-0.1,1.15-0.16,1.77-0.16c0.99,0,1.63,0.19,2.08,0.59c0.35,0.31,0.56,0.8,0.56,1.36
					c0,0.93-0.6,1.56-1.35,1.81v0.03c0.54,0.19,0.87,0.7,1.05,1.44c0.23,1,0.4,1.69,0.54,1.96h-0.95c-0.12-0.21-0.28-0.82-0.47-1.71
					c-0.21-0.99-0.6-1.36-1.44-1.39h-0.87v3.1h-0.92V307.66z M235.26,310.9h0.94c0.99,0,1.61-0.54,1.61-1.36
					c0-0.92-0.67-1.33-1.64-1.33c-0.45,0-0.75,0.04-0.91,0.08V310.9z"/>
				<path class="st8" d="M243.92,311.35h-2.77v2.58h3.1v0.77h-4.03v-7.15h3.87v0.77h-2.94v2.26h2.77V311.35z"/>
				<path class="st8" d="M245.53,313.57c0.41,0.25,1.01,0.46,1.64,0.46c0.94,0,1.5-0.49,1.5-1.21c0-0.67-0.38-1.06-1.35-1.42
					c-1.17-0.4-1.89-1.02-1.89-2.02c0-1.11,0.92-1.94,2.31-1.94c0.72,0,1.26,0.17,1.57,0.34l-0.25,0.76
					c-0.22-0.14-0.7-0.34-1.35-0.34c-0.98,0-1.35,0.58-1.35,1.07c0,0.66,0.44,0.99,1.42,1.37c1.21,0.48,1.81,1.05,1.81,2.1
					c0,1.09-0.81,2.06-2.49,2.06c-0.69,0-1.44-0.21-1.82-0.47L245.53,313.57z"/>
				<path class="st8" d="M251.06,307.65c0.45-0.08,1.03-0.15,1.77-0.15c0.91,0,1.58,0.21,2,0.59c0.39,0.34,0.64,0.86,0.64,1.48
					c0,0.65-0.19,1.16-0.56,1.53c-0.49,0.52-1.28,0.79-2.19,0.79c-0.28,0-0.53-0.01-0.74-0.06v2.87h-0.92V307.65z M251.98,311.07
					c0.2,0.05,0.46,0.07,0.76,0.07c1.11,0,1.79-0.54,1.79-1.52c0-0.94-0.67-1.4-1.69-1.4c-0.4,0-0.71,0.03-0.87,0.07V311.07z"/>
				<path class="st8" d="M259.68,314.82c-1.9,0-3.21-1.46-3.21-3.63c0-2.27,1.4-3.75,3.31-3.75c1.96,0,3.22,1.5,3.22,3.62
					c0,2.45-1.5,3.77-3.31,3.77H259.68z M259.74,314.06c1.46,0,2.29-1.35,2.29-2.97c0-1.42-0.74-2.91-2.28-2.91
					c-1.54,0-2.3,1.43-2.3,2.98c0,1.51,0.83,2.9,2.28,2.9H259.74z"/>
				<path class="st8" d="M264.39,314.7v-7.15h1.02l2.28,3.62c0.52,0.84,0.94,1.59,1.27,2.32l0.03-0.01
					c-0.08-0.95-0.11-1.82-0.11-2.93v-3h0.87v7.15h-0.93l-2.27-3.63c-0.5-0.8-0.98-1.61-1.33-2.39l-0.03,0.01
					c0.05,0.9,0.06,1.76,0.06,2.95v3.05H264.39z"/>
				<path class="st8" d="M271.45,313.57c0.41,0.25,1.01,0.46,1.64,0.46c0.94,0,1.5-0.49,1.5-1.21c0-0.67-0.38-1.06-1.35-1.42
					c-1.17-0.4-1.89-1.02-1.89-2.02c0-1.11,0.92-1.94,2.31-1.94c0.72,0,1.26,0.17,1.57,0.34l-0.25,0.76
					c-0.22-0.14-0.7-0.34-1.35-0.34c-0.98,0-1.35,0.58-1.35,1.07c0,0.66,0.43,0.99,1.42,1.37c1.21,0.48,1.81,1.05,1.81,2.1
					c0,1.09-0.81,2.06-2.49,2.06c-0.69,0-1.44-0.21-1.82-0.47L271.45,313.57z"/>
				<path class="st8" d="M278.14,312.45l-0.74,2.25h-0.95l2.43-7.15h1.11l2.44,7.15h-0.99l-0.76-2.25H278.14z M280.48,311.73
					l-0.71-2.06c-0.15-0.47-0.25-0.89-0.36-1.3h-0.03c-0.1,0.41-0.21,0.86-0.35,1.29l-0.7,2.07H280.48z"/>
				<path class="st8" d="M283.67,307.66c0.4-0.1,1.05-0.16,1.69-0.16c0.92,0,1.52,0.16,1.95,0.52c0.37,0.28,0.6,0.7,0.6,1.26
					c0,0.7-0.47,1.3-1.21,1.57v0.03c0.68,0.16,1.47,0.72,1.47,1.78c0,0.62-0.24,1.08-0.62,1.43c-0.49,0.46-1.29,0.67-2.46,0.67
					c-0.64,0-1.12-0.04-1.43-0.08V307.66z M284.59,310.58h0.84c0.96,0,1.54-0.52,1.54-1.21c0-0.83-0.63-1.17-1.56-1.17
					c-0.42,0-0.67,0.03-0.82,0.06V310.58z M284.59,314c0.19,0.03,0.45,0.04,0.77,0.04c0.95,0,1.84-0.35,1.84-1.39
					c0-0.97-0.84-1.38-1.85-1.38h-0.76V314z"/>
				<path class="st8" d="M290.53,307.55v7.15h-0.93v-7.15H290.53z"/>
				<path class="st8" d="M292.32,307.55h0.93v6.37h3.05v0.77h-3.99V307.55z"/>
				<path class="st8" d="M298.45,307.55v7.15h-0.93v-7.15H298.45z"/>
				<path class="st8" d="M300.24,307.65c0.57-0.08,1.24-0.15,1.97-0.15c1.33,0,2.27,0.31,2.9,0.89c0.65,0.58,1.02,1.41,1.02,2.57
					c0,1.17-0.37,2.12-1.03,2.78c-0.68,0.67-1.78,1.03-3.17,1.03c-0.67,0-1.21-0.02-1.69-0.08V307.65z M301.18,313.98
					c0.23,0.04,0.57,0.04,0.93,0.04c1.97,0.01,3.04-1.1,3.04-3.03c0.01-1.69-0.94-2.76-2.9-2.76c-0.48,0-0.84,0.04-1.08,0.1V313.98z
					"/>
				<path class="st8" d="M308.52,312.45l-0.74,2.25h-0.95l2.43-7.15h1.11l2.44,7.15h-0.99l-0.76-2.25H308.52z M310.86,311.73
					l-0.71-2.06c-0.15-0.47-0.25-0.89-0.36-1.3h-0.03c-0.1,0.41-0.21,0.86-0.35,1.29l-0.7,2.07H310.86z"/>
				<path class="st8" d="M314.03,307.65c0.57-0.08,1.24-0.15,1.97-0.15c1.33,0,2.27,0.31,2.9,0.89c0.65,0.58,1.02,1.41,1.02,2.57
					c0,1.17-0.37,2.12-1.03,2.78c-0.68,0.67-1.78,1.03-3.17,1.03c-0.67,0-1.21-0.02-1.69-0.08V307.65z M314.96,313.98
					c0.23,0.04,0.57,0.04,0.93,0.04c1.97,0.01,3.04-1.1,3.04-3.03c0.01-1.69-0.94-2.76-2.9-2.76c-0.48,0-0.84,0.04-1.08,0.1V313.98z
					"/>
				<path class="st8" d="M323.62,313.57c0.41,0.25,1.01,0.46,1.64,0.46c0.94,0,1.5-0.49,1.5-1.21c0-0.67-0.38-1.06-1.35-1.42
					c-1.17-0.4-1.89-1.02-1.89-2.02c0-1.11,0.92-1.94,2.31-1.94c0.72,0,1.26,0.17,1.57,0.34l-0.25,0.76
					c-0.22-0.14-0.7-0.34-1.35-0.34c-0.98,0-1.35,0.58-1.35,1.07c0,0.66,0.43,0.99,1.42,1.37c1.21,0.48,1.81,1.05,1.81,2.1
					c0,1.09-0.81,2.06-2.49,2.06c-0.69,0-1.44-0.21-1.82-0.47L323.62,313.57z"/>
				<path class="st8" d="M331.95,314.82c-1.9,0-3.21-1.46-3.21-3.63c0-2.27,1.4-3.75,3.31-3.75c1.96,0,3.22,1.5,3.22,3.62
					c0,2.45-1.5,3.77-3.31,3.77H331.95z M332,314.06c1.46,0,2.29-1.35,2.29-2.97c0-1.42-0.74-2.91-2.28-2.91
					c-1.54,0-2.3,1.43-2.3,2.98c0,1.51,0.83,2.9,2.28,2.9H332z"/>
				<path class="st8" d="M341.64,314.47c-0.33,0.17-1.02,0.34-1.89,0.34c-2.02,0-3.52-1.27-3.52-3.62c0-2.24,1.52-3.74,3.73-3.74
					c0.88,0,1.45,0.19,1.7,0.31l-0.23,0.76c-0.34-0.17-0.84-0.3-1.43-0.3c-1.68,0-2.79,1.07-2.79,2.94c0,1.75,1.01,2.86,2.74,2.86
					c0.57,0,1.15-0.12,1.52-0.3L341.64,314.47z"/>
				<path class="st8" d="M343.92,307.55v7.15h-0.93v-7.15H343.92z"/>
				<path class="st8" d="M346.88,312.45l-0.74,2.25h-0.95l2.43-7.15h1.11l2.44,7.15h-0.99l-0.76-2.25H346.88z M349.22,311.73
					l-0.71-2.06c-0.15-0.47-0.25-0.89-0.36-1.3h-0.03c-0.1,0.41-0.21,0.86-0.35,1.29l-0.7,2.07H349.22z"/>
				<path class="st8" d="M352.39,307.55h0.93v6.37h3.05v0.77h-3.99V307.55z"/>
			</g>
			<g>
				<path class="st8" d="M33.29,291.89c-0.64,0.24-1.18,0.44-1.64,0.6c-0.45,0.16-0.89,0.3-1.31,0.43
					c-0.42,0.13-1.03,0.29-1.82,0.49c-1.35,0.31-2.69,0.55-4.03,0.71c-1.34,0.16-2.76,0.24-4.25,0.24c-2.99,0-5.76-0.55-8.3-1.64
					c-2.54-1.09-4.57-2.79-6.1-5.09c-1.53-2.3-2.29-5.12-2.29-8.47c0-2.16,0.39-4.27,1.18-6.35c0.79-2.08,1.99-3.74,3.61-4.99
					c1.33-1.04,2.68-1.83,4.05-2.37c1.37-0.55,2.71-0.91,4.01-1.1c1.3-0.18,2.75-0.28,4.32-0.28c2.6,0,4.74,0.2,6.43,0.59
					c1.69,0.39,3.54,0.9,5.55,1.54v6.98c-1.33-0.78-2.74-1.43-4.23-1.96c-1.49-0.52-3.35-0.79-5.58-0.79
					c-2.57,0-4.62,0.49-6.16,1.46c-1.54,0.97-2.61,2.13-3.21,3.48c-0.6,1.35-0.9,2.65-0.9,3.92c0,1.49,0.35,2.86,1.04,4.12
					c0.69,1.26,1.75,2.26,3.15,3.02c1.4,0.76,3.1,1.14,5.09,1.14c1.13,0,2.34-0.15,3.62-0.45v-3.47h-4v-5.94h11.77V291.89z"/>
				<path class="st8" d="M67.33,293.98h-9.55l-2.32-5.23c-0.85-1.92-1.62-3.32-2.3-4.2c-0.68-0.89-1.34-1.45-1.99-1.7
					c-0.65-0.25-1.48-0.37-2.5-0.37h-1v11.51h-8.9v-29.49H53.9c2.44,0,4.44,0.5,6,1.49c1.56,0.99,2.68,2.2,3.37,3.62
					c0.69,1.42,1.03,2.77,1.03,4.04c0,1.49-0.29,2.75-0.86,3.78c-0.57,1.03-1.18,1.78-1.82,2.25c-0.64,0.47-1.36,0.91-2.15,1.34
					c0.95,0.55,1.73,1.21,2.35,1.97c0.62,0.76,1.46,2.29,2.52,4.61L67.33,293.98z M55.24,273.8c0-1.36-0.45-2.31-1.34-2.85
					c-0.89-0.54-2.35-0.81-4.36-0.81h-1.87v7.11h1.91c2.17,0,3.66-0.24,4.46-0.71C54.84,276.06,55.24,275.15,55.24,273.8z"/>
				<path class="st8" d="M99.95,280.76c0,2.53-0.47,4.68-1.42,6.46c-0.94,1.78-2.19,3.19-3.75,4.22c-1.55,1.04-3.23,1.78-5.02,2.23
					c-1.79,0.45-3.59,0.68-5.37,0.68c-2.5,0-4.93-0.43-7.29-1.28c-2.36-0.85-4.34-2.3-5.93-4.34c-1.59-2.04-2.38-4.7-2.38-7.98
					v-16.28h8.87v13.98c0,1.94,0.28,3.55,0.84,4.82c0.56,1.27,1.34,2.2,2.34,2.79c1,0.59,2.18,0.88,3.54,0.88
					c1.31,0,2.46-0.29,3.47-0.87c1.01-0.58,1.79-1.5,2.35-2.77c0.56-1.26,0.84-2.87,0.84-4.81v-14.02h8.89V280.76z"/>
				<path class="st8" d="M130.94,273.76c0,1.09-0.19,2.16-0.56,3.2c-0.38,1.04-0.98,2.01-1.82,2.92c-0.84,0.9-1.97,1.63-3.39,2.19
					c-1.43,0.56-3.1,0.84-5.03,0.84h-5.83v11.07h-8.9v-29.49h14.73c1.93,0,3.61,0.28,5.03,0.85c1.43,0.57,2.56,1.31,3.39,2.21
					c0.84,0.91,1.44,1.89,1.82,2.96C130.76,271.57,130.94,272.65,130.94,273.76z M121.88,273.8c0-1.4-0.42-2.37-1.25-2.88
					c-0.83-0.52-2.32-0.78-4.46-0.78h-1.87v7.11h1.91c1.48,0,2.61-0.09,3.4-0.28c0.79-0.18,1.37-0.52,1.72-1.02
					C121.7,275.46,121.88,274.74,121.88,273.8z"/>
				<path class="st8" d="M165.91,279.21c0,2.75-0.63,5.28-1.9,7.6c-1.27,2.31-3.16,4.15-5.67,5.51c-2.51,1.36-5.57,2.04-9.17,2.04
					c-3.65,0-6.73-0.71-9.26-2.13c-2.53-1.42-4.4-3.28-5.63-5.6c-1.23-2.31-1.84-4.79-1.84-7.43c0-2.65,0.61-5.13,1.83-7.44
					c1.22-2.31,3.1-4.16,5.63-5.58c2.53-1.41,5.62-2.12,9.27-2.12c2.72,0,5.15,0.4,7.29,1.21c2.14,0.81,3.89,1.9,5.27,3.29
					c1.38,1.38,2.42,2.99,3.13,4.83C165.56,275.25,165.91,277.18,165.91,279.21z M156.85,279.21c0-1.11-0.16-2.12-0.49-3.03
					c-0.33-0.92-0.82-1.71-1.48-2.38c-0.66-0.67-1.47-1.2-2.42-1.57c-0.95-0.38-2.05-0.56-3.3-0.56c-2.38,0-4.26,0.7-5.62,2.09
					c-1.36,1.39-2.04,3.21-2.04,5.47s0.68,4.08,2.05,5.48c1.37,1.4,3.24,2.1,5.61,2.1c1.63,0,3.02-0.32,4.17-0.97
					c1.15-0.65,2.02-1.54,2.62-2.68C156.55,281.99,156.85,280.68,156.85,279.21z"/>
				<path class="st8" d="M207.74,291.76c-1.22,0.64-2.47,1.15-3.75,1.53s-2.56,0.66-3.86,0.82c-1.3,0.16-2.64,0.24-4.03,0.24
					c-2.57,0-4.87-0.35-6.91-1.06c-2.04-0.71-3.8-1.76-5.3-3.14c-1.5-1.38-2.62-3-3.36-4.85c-0.74-1.85-1.12-3.88-1.12-6.1
					c0-2.54,0.44-4.76,1.32-6.67c0.88-1.91,2.11-3.49,3.69-4.76c1.58-1.26,3.38-2.2,5.41-2.8c2.02-0.6,4.15-0.9,6.39-0.9
					c3.35,0,7.14,0.74,11.38,2.23v7.83c-1.46-0.91-2.9-1.66-4.33-2.27c-1.43-0.6-3.1-0.9-5.03-0.9c-1.72,0-3.32,0.34-4.81,1.02
					c-1.49,0.68-2.69,1.65-3.6,2.92c-0.91,1.26-1.36,2.74-1.36,4.43c0,1.49,0.4,2.86,1.19,4.1c0.79,1.24,1.9,2.23,3.31,2.96
					c1.41,0.73,3,1.1,4.78,1.1c1.43,0,2.79-0.17,4.06-0.52c1.28-0.35,2.35-0.73,3.22-1.16c0.87-0.43,1.77-0.93,2.69-1.51V291.76z"/>
				<path class="st8" d="M275.7,293.98h-9.55l-2.32-5.23c-0.85-1.92-1.62-3.32-2.3-4.2c-0.68-0.89-1.34-1.45-1.99-1.7
					c-0.65-0.25-1.48-0.37-2.5-0.37h-1v11.51h-8.89v-29.49h15.13c2.44,0,4.44,0.5,6,1.49c1.56,0.99,2.68,2.2,3.37,3.62
					c0.69,1.42,1.03,2.77,1.03,4.04c0,1.49-0.29,2.75-0.86,3.78c-0.57,1.03-1.18,1.78-1.82,2.25c-0.64,0.47-1.35,0.91-2.15,1.34
					c0.95,0.55,1.73,1.21,2.35,1.97c0.62,0.76,1.46,2.29,2.52,4.61L275.7,293.98z M263.61,273.8c0-1.36-0.45-2.31-1.34-2.85
					c-0.89-0.54-2.35-0.81-4.36-0.81h-1.87v7.11h1.92c2.17,0,3.66-0.24,4.46-0.71C263.21,276.06,263.61,275.15,263.61,273.8z"/>
				<path class="st8" d="M298.84,285.4c0,1.84-0.47,3.44-1.42,4.79c-0.94,1.35-2.26,2.38-3.95,3.1c-1.69,0.72-3.62,1.07-5.81,1.07
					c-0.61,0-1.36-0.04-2.25-0.12c-0.89-0.08-2.06-0.29-3.53-0.65c-1.47-0.35-3-0.88-4.59-1.57v-7.24c1.49,0.92,2.95,1.69,4.39,2.3
					c1.44,0.61,2.98,0.92,4.63,0.92c1.52,0,2.5-0.25,2.95-0.76c0.45-0.5,0.67-0.98,0.67-1.42c0-0.79-0.38-1.46-1.15-2.01
					c-0.77-0.55-1.88-1.11-3.34-1.69c-1.62-0.68-3.04-1.42-4.26-2.22c-1.22-0.8-2.22-1.81-2.99-3.01c-0.77-1.21-1.16-2.63-1.16-4.28
					c0-1.59,0.39-3.03,1.17-4.31c0.78-1.28,1.97-2.31,3.57-3.08c1.6-0.77,3.56-1.15,5.87-1.15c1.65,0,3.17,0.16,4.56,0.48
					c1.4,0.32,2.55,0.68,3.46,1.07c0.91,0.4,1.53,0.71,1.87,0.94v6.92c-1.21-0.87-2.55-1.64-4.03-2.32
					c-1.48-0.68-3.07-1.02-4.76-1.02c-1.11,0-1.91,0.21-2.4,0.64c-0.5,0.43-0.74,0.95-0.74,1.57c0,0.58,0.25,1.09,0.74,1.51
					c0.5,0.43,1.38,0.94,2.66,1.55c2.27,1.06,4.09,2.02,5.45,2.87c1.36,0.85,2.43,1.83,3.2,2.95
					C298.45,282.35,298.84,283.74,298.84,285.4z"/>
				<path class="st8" d="M325.59,293.98h-22.24v-29.49h21.88v5.92h-12.98v5.41h12.38v5.94h-12.38v6.3h13.34V293.98z"/>
				<path class="st8" d="M356.44,291.76c-1.22,0.64-2.47,1.15-3.75,1.53s-2.56,0.66-3.86,0.82c-1.3,0.16-2.64,0.24-4.03,0.24
					c-2.57,0-4.87-0.35-6.91-1.06s-3.8-1.76-5.3-3.14c-1.5-1.38-2.62-3-3.36-4.85c-0.74-1.85-1.12-3.88-1.12-6.1
					c0-2.54,0.44-4.76,1.32-6.67c0.88-1.91,2.11-3.49,3.69-4.76c1.58-1.26,3.38-2.2,5.41-2.8c2.02-0.6,4.15-0.9,6.39-0.9
					c3.35,0,7.14,0.74,11.38,2.23v7.83c-1.46-0.91-2.9-1.66-4.33-2.27c-1.43-0.6-3.1-0.9-5.03-0.9c-1.72,0-3.32,0.34-4.81,1.02
					s-2.69,1.65-3.6,2.92c-0.91,1.26-1.36,2.74-1.36,4.43c0,1.49,0.4,2.86,1.19,4.1c0.79,1.24,1.9,2.23,3.31,2.96
					c1.41,0.73,3,1.1,4.78,1.1c1.43,0,2.79-0.17,4.06-0.52c1.28-0.35,2.35-0.73,3.22-1.16c0.87-0.43,1.77-0.93,2.69-1.51V291.76z"/>
				<path class="st3" d="M242.07,273.41c-0.71-1.84-1.75-3.45-3.13-4.83c-1.38-1.38-3.13-2.48-5.27-3.29s-4.56-1.21-7.29-1.21
					c-3.65,0-6.74,0.71-9.27,2.12c-2.53,1.41-4.41,3.27-5.63,5.58c-1.22,2.31-1.83,4.78-1.83,7.44c0,2.64,0.61,5.11,1.84,7.43
					c1.23,2.31,3.1,4.18,5.63,5.6c1.63,0.92,3.51,1.53,5.61,1.86v-11.44c0,0-0.43-6.92,6.92-9.13c0,0,1.78,8.63-5.78,11.63v9.09
					c0.8,0.08,1.64,0.12,2.5,0.12c3.6,0,6.66-0.68,9.17-2.04c2.51-1.36,4.4-3.2,5.67-5.51c1.27-2.31,1.9-4.84,1.9-7.6
					C243.14,277.18,242.78,275.25,242.07,273.41z"/>
			</g>
		</g>
	</g>
</g>
</svg>
