<svg width="825" height="240" viewBox="0 0 825 240" fill="none" xmlns="http://www.w3.org/2000/svg">
<path d="M52.4677 97.711C49.2604 98.223 46.0995 98.4781 42.9348 98.2993C33.6298 97.7738 25.2079 94.7945 17.7578 89.119C13.7613 86.0741 10.3753 82.4707 7.58053 78.3177C4.46891 73.6923 2.35038 68.6293 1.08873 63.1934C-0.0019278 58.4907 -0.229913 53.7088 0.212534 48.9559C1.11095 39.3003 4.72974 30.7296 11.1607 23.3973C16.7212 17.0572 23.5308 12.6453 31.5644 10.1277C35.0441 9.03709 38.6108 8.43042 42.2614 8.18794C44.3771 8.04786 46.485 8.06042 48.5948 8.05946C87.2065 8.04786 125.817 8.03241 164.429 8.07105C170.31 8.07684 175.997 9.2786 181.416 11.6222C185.982 13.5978 190.079 16.2863 193.764 19.6413C199.133 24.5305 203.06 30.3837 205.72 37.1151C207.195 40.844 208.1 44.7062 208.61 48.6863C208.824 50.3615 208.919 52.053 208.907 53.7049C208.858 60.3068 207.535 66.6479 204.614 72.6335C202.146 77.6937 198.863 82.1365 194.818 86.019C192.01 88.7143 188.87 90.9719 185.462 92.8634C181.002 95.3394 176.236 96.9295 171.231 97.7989C167.632 98.424 163.992 98.5032 160.351 98.3013C159.264 98.2404 158.185 98.0202 157.1 97.91C156.331 97.8327 156.301 97.8608 156.297 98.6413C156.284 101.385 156.268 104.129 156.307 106.873C156.317 107.568 156.076 107.921 155.464 108.223C148.128 111.846 140.713 115.298 133.221 118.585C133.049 118.661 132.879 118.787 132.611 118.69C132.463 118.27 132.536 117.803 132.536 117.348C132.531 107 132.524 96.6503 132.551 86.3021C132.553 85.536 132.336 84.9438 131.853 84.3961C128.436 80.5309 125.939 76.1354 124.338 71.2376C124.122 70.5768 123.852 70.2899 123.121 70.3073C121.123 70.3566 119.123 70.3392 117.124 70.316C116.537 70.3092 116.237 70.4783 116.3 71.1101C116.331 71.4202 116.304 71.7371 116.304 72.05C116.304 89.3374 116.304 106.624 116.305 123.911C116.305 124.185 116.307 124.46 116.305 124.734C116.297 125.721 116.299 125.727 115.4 126.071C111.747 127.468 108.098 128.88 104.434 130.25C100.734 131.634 97.0176 132.974 93.3071 134.33C93.1312 134.395 92.9564 134.521 92.6849 134.395C92.5333 133.988 92.6115 133.519 92.6115 133.064C92.6067 112.681 92.6096 92.2973 92.6048 71.9138C92.6048 70.1296 92.8163 70.3373 91.0629 70.3266C89.3772 70.316 87.6915 70.3228 86.0067 70.3247C84.8001 70.3257 84.7953 70.3266 84.4359 71.4018C82.8265 76.2195 80.2674 80.4962 76.981 84.3381C76.4931 84.9081 76.3714 85.4519 76.3714 86.1359C76.381 95.8968 76.3782 105.657 76.3782 115.418C76.3782 123.14 76.381 130.862 76.3752 138.584C76.3743 140.01 76.5501 139.854 75.0711 140.309C68.0431 142.469 60.9543 144.407 53.8105 146.144C53.7341 146.162 53.6617 146.191 53.5854 146.208C52.6792 146.419 52.6338 146.397 52.6232 145.504C52.6087 144.25 52.6193 142.995 52.6193 141.741C52.6193 127.552 52.6203 113.362 52.6145 99.1726C52.6116 98.7138 52.714 98.2365 52.4677 97.711ZM103.742 22.1038C84.063 22.1038 64.3838 22.1038 44.7045 22.1038C43.5704 22.1038 42.4459 22.1743 41.3147 22.3163C34.338 23.1935 28.4036 26.2259 23.3898 31.0609C20.4637 33.8818 18.1915 37.204 16.5734 40.957C14.2404 46.3698 13.4251 52.0047 14.3158 57.8212C15.4799 65.4211 18.9904 71.8221 24.835 76.8097C32.1103 83.0175 40.5602 85.4626 50.0497 84.029C56.0314 83.1248 61.2161 80.5966 65.4764 76.2243C70.4061 71.1642 72.656 65.0327 72.7516 58.0734C72.7777 56.1365 72.4802 54.1831 71.9952 52.28C70.5317 46.5417 67.4683 41.8342 62.8352 38.1671C58.2861 34.5667 53.0608 32.8394 47.281 32.7544C45.2407 32.7244 43.2362 33.0374 41.2374 33.4238C36.4652 34.3454 32.5479 36.7258 29.5068 40.4692C26.1411 44.6125 24.6138 49.3693 25.0166 54.7463C25.2494 57.856 26.1073 60.7483 27.6974 63.402C31.2621 69.3509 36.5627 72.6567 43.4332 73.36C46.711 73.6952 49.9134 73.1088 52.9739 71.9003C56.5405 70.4909 58.9826 67.9135 60.5254 64.4261C61.42 62.4041 61.6441 60.2924 61.562 58.1149C61.4412 54.8941 60.2984 52.0994 58.1335 49.719C55.7136 47.0586 52.6609 45.5583 49.1503 45.0415C46.5023 44.6512 43.9163 44.9497 41.5485 46.3611C38.5257 48.1637 37.0178 51.8337 38.035 55.1791C39.1392 58.8114 42.1078 60.759 45.5276 60.9135C46.9351 60.9773 48.2528 60.6595 49.3889 59.7929C50.2892 59.107 50.8206 58.1593 50.6331 57.0378C50.4264 55.8051 49.6536 54.9579 48.4122 54.5415C47.592 54.2662 46.8907 54.5299 46.1382 54.7637C45.0214 55.1105 44.0814 54.5628 43.7742 53.4615C43.5009 52.4838 43.9771 51.6637 45.0784 51.3236C46.398 50.916 47.7341 50.8165 49.1155 51.0628C52.4029 51.6492 55.2064 54.5647 55.615 57.9352C56.1038 61.9723 53.8568 64.9158 50.9722 66.2847C48.2296 67.586 45.26 67.8613 42.2605 67.1967C36.443 65.908 31.946 61.2777 31.1143 55.5559C30.5211 51.4724 31.3104 47.7435 33.9052 44.5208C35.9657 41.9608 38.5856 40.2113 41.8634 39.4404C47.0636 38.2173 52.0339 38.5825 56.7376 41.243C60.3554 43.2891 63.0748 46.1949 64.8455 49.9557C67.0597 54.6584 67.2906 59.5359 65.8763 64.485C64.2669 70.117 60.6365 74.014 55.2885 76.3093C51.5644 77.9072 47.68 78.4897 43.6139 78.1864C40.6114 77.9622 37.7326 77.3488 34.9707 76.206C30.2545 74.2526 26.3826 71.2405 23.6332 66.8837C21.051 62.7915 20.0405 58.2511 19.9468 53.4837C19.9188 52.0491 20.0937 50.6049 20.3255 49.1752C21.3466 42.8775 24.3336 37.6966 29.2508 33.6731C33.8752 29.8881 39.2918 28.0758 45.2146 28.0691C84.8078 28.0256 124.401 28.043 163.994 28.0546C166.069 28.0555 168.118 28.3657 170.125 28.9173C175.298 30.3383 179.62 33.0954 183.069 37.2059C187.028 41.924 188.907 47.4237 188.944 53.5301C188.953 54.869 188.811 56.2475 188.615 57.6077C187.741 63.6571 185.008 68.6728 180.298 72.5292C175.561 76.4088 170.029 78.2627 163.922 78.3805C159.413 78.4675 155.147 77.5381 151.229 75.2167C148.18 73.4112 145.772 70.9565 144.27 67.7705C141.681 62.2795 141.355 56.6098 143.638 50.9266C145.494 46.306 148.744 42.8824 153.2 40.6817C157.157 38.7274 161.369 38.3536 165.679 39.136C167.252 39.422 168.835 39.7765 170.263 40.5397C174.47 42.7915 177.032 46.2693 177.771 50.9961C178.601 56.3026 176.941 60.7918 172.824 64.1874C168.838 67.4749 164.238 68.3115 159.254 66.8064C157.183 66.1813 155.514 64.9883 154.399 63.1412C151.553 58.4269 154.184 52.337 159.559 51.1275C161.117 50.7768 162.662 50.774 164.138 51.4782C164.964 51.8723 165.341 52.6085 165.174 53.3765C164.976 54.2836 164.258 54.8564 163.322 54.8613C162.962 54.8632 162.636 54.755 162.3 54.6314C160.715 54.0498 158.99 54.8825 158.426 56.4823C157.955 57.8174 158.47 59.2065 159.818 59.9813C161.291 60.8285 162.879 61.014 164.567 60.7551C167.618 60.2875 170.115 58.0695 170.9 55.0381C171.903 51.1642 169.986 47.3822 166.285 45.8278C163.331 44.5874 160.336 44.657 157.334 45.6153C152.942 47.018 149.759 49.7586 148.092 54.1242C147.342 56.091 147.223 58.141 147.352 60.2247C147.546 63.347 148.642 66.0905 150.766 68.3917C153.746 71.6202 157.595 73.0316 161.847 73.3581C166.07 73.6827 170.098 72.8074 173.849 70.7923C177.402 68.8853 180.185 66.1765 181.942 62.5481C183.959 58.3825 184.547 53.9532 183.585 49.4167C181.987 41.8844 177.515 36.7248 170.271 34.1339C166.026 32.6153 161.579 32.5525 157.173 33.2847C151.851 34.1696 147.258 36.5596 143.477 40.4624C138.732 45.3583 136.436 51.2724 136.137 58.0144C136.068 59.5775 136.302 61.1309 136.537 62.6756C137.325 67.8246 139.502 72.3234 143.137 76.0292C148.429 81.4226 155.029 83.9758 162.484 84.425C165.586 84.6125 168.659 84.2183 171.655 83.402C179.69 81.212 185.901 76.5257 190.293 69.4775C194.253 63.1219 195.673 56.1567 194.583 48.7791C193.466 41.215 189.894 34.8893 184.139 29.8543C178.24 24.6937 171.281 22.154 163.488 22.1279C143.571 22.0593 123.657 22.1038 103.742 22.1038ZM125.548 42.1694C111.401 42.1694 97.435 42.1694 83.3172 42.1694C84.0495 44.0551 84.7025 45.8452 85.2184 47.6797C85.2937 47.9463 85.4937 48.0362 85.7526 48.0352C86.027 48.0343 86.3013 48.0391 86.5757 48.0391C98.485 48.0391 110.394 48.0391 122.304 48.0391C122.578 48.0391 122.852 48.0275 123.127 48.0372C123.451 48.0478 123.647 47.8884 123.727 47.5918C124.215 45.7872 124.88 44.0387 125.548 42.1694Z" fill="#BC9B75"/>
<path d="M132.595 155.524C128.304 157.2 124.21 159.024 119.983 160.481C119.761 159.997 119.836 159.599 119.836 159.212C119.831 151.646 119.849 144.08 119.811 136.514C119.806 135.601 120.045 135.122 120.918 134.759C127.24 132.124 133.478 129.301 139.666 126.362C145.08 123.79 150.451 121.131 155.762 118.357C165.065 113.5 174.179 108.305 183.056 102.704C190.08 98.2723 196.934 93.5899 203.548 88.5684C207.911 85.2559 212.14 81.7791 216.244 78.1439C219.531 75.2322 222.685 72.1834 225.704 69.0042C230.077 64.399 234.072 59.478 237.423 54.0653C240.324 49.38 242.658 44.4474 243.902 39.0414C244.572 36.1259 244.955 33.1688 244.715 30.1973C244.305 25.1265 243.197 20.2306 240.448 15.8323C238.41 12.5709 235.652 10.0785 232.362 8.14353C228.587 5.92357 224.488 4.50735 220.3 3.31139C216.129 2.12123 211.898 1.17161 207.675 0.0123591C209.107 0.0123591 210.538 -0.0195203 211.969 0.0191214C215.093 0.104133 218.208 0.349507 221.309 0.734958C229.557 1.75896 237.542 3.67656 244.881 7.75035C247.663 9.29505 250.227 11.1344 252.579 13.2945C257.543 17.8561 260.949 23.3819 262.934 29.7954C263.723 32.3467 264.03 34.9705 264.115 37.6513C264.317 44.0822 262.812 50.1432 260.376 56.0177C257.524 62.8997 253.615 69.1665 249.119 75.0815C246.205 78.9167 243.084 82.5732 239.8 86.0992C237.315 88.7665 234.758 91.3603 232.119 93.8652C227.151 98.5795 221.954 103.036 216.573 107.275C209.463 112.876 202.101 118.124 194.508 123.048C188.298 127.075 181.969 130.903 175.516 134.533C169.543 137.893 163.502 141.123 157.345 144.132C156.539 144.526 156.337 145.013 156.338 145.855C156.36 163.81 156.354 181.763 156.354 199.718C156.354 202.619 156.359 205.52 156.351 208.421C156.348 209.383 156.334 209.4 155.377 209.4C148.125 209.405 140.872 209.405 133.62 209.401C132.599 209.4 132.596 209.385 132.596 208.112C132.595 191.412 132.595 174.712 132.595 158.012C132.595 157.235 132.595 156.454 132.595 155.524Z" fill="#BC9B75"/>
<path d="M116.365 136.862C116.365 137.361 116.365 137.788 116.365 138.216C116.365 161.422 116.367 184.627 116.362 207.832C116.362 209.607 116.563 209.401 114.804 209.403C107.944 209.411 101.084 209.406 94.225 209.406C93.9507 209.406 93.6753 209.392 93.402 209.405C92.9518 209.426 92.7605 209.216 92.7808 208.775C92.7934 208.502 92.7808 208.226 92.7808 207.952C92.7808 187.648 92.7808 167.342 92.7808 147.038C92.7808 146.882 92.8011 146.721 92.7769 146.569C92.6736 145.895 93.0097 145.621 93.6213 145.406C96.388 144.43 99.1412 143.414 101.891 142.389C106.399 140.706 110.888 138.97 115.328 137.11C115.613 136.988 115.893 136.847 116.365 136.862Z" fill="#BC9B75"/>
<path d="M76.5503 180.328C76.5503 189.497 76.5503 198.664 76.5503 207.833C76.5503 208.146 76.5368 208.46 76.5503 208.773C76.5696 209.216 76.3755 209.426 75.9272 209.406C75.6925 209.395 75.4568 209.406 75.222 209.406C68.2086 209.406 61.1951 209.406 54.1816 209.406C54.1034 209.406 54.0251 209.407 53.9469 209.406C52.8012 209.397 52.7934 209.397 52.7925 208.25C52.7905 191.755 52.7905 175.26 52.7925 158.765C52.7925 157.715 52.7954 157.691 53.7083 157.468C61.0038 155.695 68.2201 153.636 75.4056 151.466C75.6297 151.399 75.8499 151.311 76.0789 151.27C76.3561 151.221 76.5281 151.351 76.5349 151.647C76.5436 152 76.5484 152.352 76.5484 152.705C76.5503 161.912 76.5503 171.12 76.5503 180.328Z" fill="#BC9B75"/>
<path d="M110.111 239.995C82.7548 239.995 55.3985 239.995 28.0431 239.995C27.8866 239.995 27.7291 239.995 27.5726 239.995C26.3283 239.988 26.2472 239.897 26.6268 238.758C28.9154 231.901 31.2088 225.045 33.507 218.191C33.8731 217.097 33.8857 217.098 35.0411 217.098C85.0897 217.097 135.137 217.098 185.186 217.098C185.382 217.098 185.581 217.121 185.774 217.094C186.265 217.029 186.412 217.287 186.556 217.72C187.964 221.987 189.402 226.245 190.83 230.505C191.698 233.099 192.566 235.693 193.429 238.288C193.54 238.621 193.635 238.961 193.722 239.302C193.853 239.814 193.644 240.031 193.121 239.996C192.809 239.975 192.494 239.994 192.181 239.994C164.823 239.994 137.467 239.995 110.111 239.995Z" fill="#977858"/>
<path d="M577.004 99.5218C576.018 101.795 575.846 104.165 575.396 106.464C574.402 111.559 573.444 116.663 572.447 121.757C572.191 123.066 572.102 124.383 572.144 125.706C572.217 128.054 573.239 129.354 575.504 129.992C576.878 130.379 578.294 130.46 579.718 130.463C580.209 130.463 580.677 130.579 580.631 131.231C580.591 131.772 580.284 132.093 579.736 132.121C579.077 132.156 578.415 132.166 577.754 132.166C570.572 132.168 563.39 132.182 556.208 132.163C550.971 132.149 545.734 132.17 540.498 132.168C535.3 132.166 530.103 132.168 524.906 132.168C524.529 132.168 524.133 132.24 523.776 132.152C523.07 131.977 521.854 132.711 521.787 131.35C521.724 130.104 522.938 130.37 523.692 130.181C524.424 129.999 525.197 129.983 525.917 129.773C528.647 128.983 530.106 127.206 530.003 124.383C529.821 119.346 528.242 114.547 527.229 109.655C526.965 108.386 525.847 108.584 524.922 108.584C519.064 108.574 513.205 108.579 507.346 108.579C505.361 108.579 503.374 108.64 501.394 108.558C500.101 108.505 499.295 108.994 498.638 110.091C496.306 113.979 493.902 117.823 491.528 121.685C491.379 121.927 491.244 122.177 491.109 122.424C489.024 126.267 488.661 129.459 494.953 130.106C495.235 130.134 495.514 130.188 495.791 130.241C496.397 130.358 496.879 130.593 496.747 131.343C496.649 131.895 496.271 132.114 495.747 132.135C495.37 132.149 494.992 132.163 494.615 132.163C488.568 132.166 482.52 132.163 476.473 132.163C476.188 132.163 475.907 132.159 475.622 132.149C475.128 132.133 474.663 132.065 474.637 131.427C474.616 130.915 474.793 130.479 475.315 130.318C475.853 130.151 476.41 130.041 476.962 129.925C479.364 129.421 481.299 128.198 482.89 126.318C484.915 123.931 486.653 121.35 488.3 118.701C499.924 100.013 511.537 81.3188 523.187 62.6476C523.834 61.6086 524.112 59.8847 525.866 60.1619C527.667 60.4461 527.219 62.2049 527.48 63.3557C531.801 82.3135 536.064 101.285 540.346 120.252C540.805 122.281 541.408 124.266 542.317 126.148C543.139 127.854 544.441 129 546.205 129.664C549.671 130.968 553.194 130.763 556.646 129.799C559.052 129.126 560.625 127.385 561.405 124.944C562.3 122.146 562.801 119.265 563.355 116.392C566.19 101.749 569.011 87.1054 571.858 72.4642C572.149 70.9687 572.277 69.4684 572.259 67.9566C572.226 65.4383 571.21 64.1944 568.748 63.5374C567.453 63.1927 566.132 63.195 564.809 63.1811C564.338 63.1764 563.798 63.1578 563.772 62.5195C563.744 61.8509 564.147 61.4805 564.809 61.4432C565.375 61.4106 565.941 61.4153 566.509 61.4153C574.635 61.4153 582.762 61.3896 590.888 61.4316C594.958 61.4525 599.009 61.767 602.934 62.9504C611.225 65.4524 615.586 72.6482 613.983 81.1464C612.045 91.429 604.015 98.9953 593.632 100.53C589.169 101.19 584.787 100.952 580.393 100.125C579.291 99.9155 578.18 99.7291 577.004 99.5218ZM584.857 97.113C587.342 97.3134 589.711 96.7846 591.952 95.6525C599.367 91.9089 603.679 82.7212 601.837 74.6097C600.607 69.1912 597.038 66.1582 591.487 65.8367C589.306 65.7109 587.165 65.9858 585.006 66.3189C583.526 66.5472 582.939 67.1995 582.686 68.6112C581.933 72.7904 581.05 76.944 580.244 81.1138C579.403 85.4677 578.562 89.824 577.784 94.1895C577.435 96.1533 577.498 96.1859 579.487 96.5191C581.253 96.8126 583.016 97.1829 584.857 97.113ZM519.427 76.7879C513.759 85.8894 507.996 94.9746 502.198 104.537C510.491 104.456 518.241 104.656 526.176 104.407C524.119 95.2867 522.15 86.558 520.172 77.8315C520.096 77.5007 520.1 77.0954 519.427 76.7879Z" fill="#977858"/>
<path d="M782.534 133.482C770.919 133.54 762.558 129.55 757.051 120.308C754.419 115.891 753.299 111.004 753.324 105.937C753.443 83.688 766.675 68.949 782.476 62.6336C789.015 60.0199 795.852 59.321 802.792 60.6744C813.897 62.8409 822.667 72.4433 823.991 83.7066C826.523 105.257 811.418 127.192 790.441 132.461C787.487 133.207 784.498 133.538 782.534 133.482ZM812.65 85.9383C812.585 80.6898 812.068 76.2148 809.978 72.0519C808.047 68.2035 805.047 65.627 800.861 64.5694C792.964 62.5707 785.882 64.248 779.701 69.5454C776.06 72.6669 773.323 76.5107 771.285 80.8296C766.856 90.22 764.776 100.13 765.102 110.503C765.228 114.498 766.118 118.372 768.051 121.93C770.367 126.186 773.887 128.746 778.718 129.503C785.132 130.507 790.893 128.881 796.16 125.268C801.052 121.911 804.502 117.347 806.871 111.969C810.617 103.468 812.21 94.4877 812.65 85.9383Z" fill="#977858"/>
<path d="M686.476 87.7996C686.308 108.856 671.667 127.819 652.395 132.515C646.801 133.878 641.141 133.924 635.543 132.62C625.255 130.22 617.258 121.445 615.926 110.801C612.841 86.1945 629.435 66.0184 649.711 61.0821C654.722 59.8615 659.791 59.7636 664.893 60.6348C675.9 62.5148 684.95 72.597 686.189 84.2097C686.338 85.6121 686.415 87.0285 686.476 87.7996ZM627.208 105.893C627.14 112.577 627.827 117.313 630.101 121.701C632.382 126.107 635.962 128.73 640.91 129.505C647.218 130.493 652.9 128.918 658.114 125.41C663.122 122.039 666.665 117.422 669.041 111.938C672.962 102.888 674.795 93.3788 674.74 83.5319C674.716 79.6392 673.982 75.8374 672.259 72.2755C670.181 67.9799 666.796 65.2963 662.176 64.3248C654.454 62.7012 647.561 64.5042 641.627 69.748C638.108 72.8603 635.464 76.6388 633.425 80.8506C629.325 89.3278 627.587 98.357 627.208 105.893Z" fill="#977858"/>
<path d="M747.701 209.772C746.347 210.443 745.905 211.307 745.287 211.983C741.623 215.982 737.129 218.324 731.713 218.876C722.53 219.81 714.884 214.196 713.58 204.789C711.933 192.92 715.11 182.237 723.501 173.517C728.873 167.936 735.794 166.37 743.323 167.544C746.727 168.075 749.497 169.827 751.444 172.746C752.068 173.68 752.681 174.624 753.524 175.905C754.44 173.995 754.48 172.133 754.754 170.386C754.983 168.942 755.57 168.457 756.963 168.539C758.47 168.628 759.987 168.532 761.498 168.567C763.42 168.611 763.532 168.746 763.192 170.757C762.687 173.736 762.134 176.706 761.601 179.681C759.535 191.205 757.482 202.732 755.395 214.249C754.855 217.224 754.035 220.134 753.07 223.001C750.012 232.1 743.438 237.225 734.322 239.273C729.372 240.387 724.368 240.193 719.441 238.882C716.953 238.22 714.603 237.232 712.615 235.562C710.002 233.365 708.646 230.589 708.839 227.106C708.902 225.962 709.298 225.366 710.533 225.403C712.327 225.454 714.125 225.454 715.919 225.403C717.049 225.37 717.4 225.857 717.333 226.936C717.181 229.359 718.644 230.761 720.58 231.807C729.71 236.741 741.76 232.098 745.08 222.323C746.41 218.382 747.186 214.314 747.701 209.772ZM721.941 199.033C721.868 200.652 722.085 202.233 722.446 203.806C723.618 208.891 727.527 212.078 732.752 212.236C736.652 212.355 739.929 210.909 742.755 208.327C747.335 204.139 749.669 198.769 750.836 192.801C751.458 189.626 751.645 186.455 750.857 183.266C749.338 177.123 744.386 173.527 738.343 174.291C736.067 174.579 733.97 175.416 732.065 176.709C728.852 178.887 726.532 181.82 724.943 185.321C722.968 189.67 722.106 194.283 721.941 199.033Z" fill="#977858"/>
<path d="M340.908 113.725C341.732 109.571 342.575 105.425 343.377 101.267C345.238 91.627 347.069 81.9827 348.94 72.3454C349.231 70.8499 349.352 69.3496 349.312 67.8378C349.25 65.4477 348.26 64.213 345.967 63.5747C344.586 63.1903 343.165 63.209 341.748 63.1601C341.348 63.1461 340.968 62.9853 340.933 62.5567C340.891 62.0559 341.138 61.6039 341.658 61.4921C342.112 61.3919 342.596 61.4175 343.067 61.4175C349.965 61.4129 356.863 61.4153 363.76 61.4153C364.138 61.4153 364.517 61.4246 364.892 61.4549C365.328 61.4898 365.566 61.732 365.552 62.1816C365.538 62.5846 365.4 62.9691 364.986 63.0506C364.438 63.1577 363.867 63.1717 363.306 63.1973C357.603 63.4675 355.469 64.9934 354.153 70.5749C352.704 76.7249 351.588 82.9564 350.379 89.1623C347.672 103.06 345.01 116.968 342.284 130.861C342.119 131.7 342.343 132.916 341.14 133.226C339.619 133.615 339.261 132.259 338.692 131.35C327.965 114.219 317.253 97.0781 306.535 79.942C305.99 79.0708 305.415 78.2228 304.874 77.3935C304.024 77.5845 304.059 78.2135 303.961 78.7144C301.194 93.0806 298.442 107.452 295.668 121.818C295.414 123.127 295.309 124.439 295.351 125.762C295.426 128.156 296.399 129.366 298.727 130.004C300.108 130.381 301.531 130.379 302.945 130.451C303.344 130.472 303.709 130.607 303.747 131.059C303.791 131.581 303.558 132.01 303.013 132.091C302.456 132.175 301.883 132.166 301.317 132.166C294.608 132.17 287.899 132.168 281.19 132.168C280.812 132.168 280.433 132.173 280.055 132.152C279.573 132.124 279.079 132.077 279.138 131.397C279.182 130.875 279.447 130.498 279.99 130.444C280.552 130.388 281.122 130.414 281.688 130.384C286.937 130.106 289.283 128.42 290.473 123.26C292.083 116.273 293.38 109.213 294.762 102.173C296.56 93.0037 298.317 83.8254 300.075 74.647C300.355 73.1911 301.191 71.6606 300.334 70.2512C299.162 68.3177 297.788 66.4937 295.687 65.4011C293.9 64.4716 292.006 63.9568 290 63.8123C289.273 63.7611 288.402 63.8775 288.551 62.6545C288.668 61.7018 289.199 61.4106 290.089 61.4129C295.57 61.4269 301.049 61.4595 306.531 61.3896C307.844 61.3733 308.327 62.1584 308.881 63.0576C312.748 69.3287 316.627 75.5905 320.505 81.8546C326.821 92.0533 333.139 102.25 339.456 112.446C339.747 112.917 340.057 113.378 340.358 113.841C340.544 113.802 340.726 113.762 340.908 113.725Z" fill="#977858"/>
<path d="M413.24 132.166C409.084 132.163 404.926 132.17 400.77 132.159C400.236 132.156 399.53 132.284 399.486 131.467C399.453 130.847 399.803 130.411 400.485 130.318C401.422 130.19 402.368 130.104 403.286 129.887C406.316 129.177 407.747 127.362 407.733 124.243C407.728 123.209 407.688 122.153 407.488 121.142C406.787 117.625 406.02 114.121 405.249 110.62C405.002 109.497 404.741 108.53 403.127 108.546C395.004 108.626 386.879 108.593 378.753 108.57C377.798 108.567 377.123 108.908 376.647 109.709C373.994 114.172 371.007 118.435 368.58 123.034C368.317 123.532 368.117 124.068 367.923 124.599C366.933 127.32 367.73 128.923 370.553 129.715C371.636 130.018 372.78 130.113 373.894 130.311C374.292 130.381 374.623 130.591 374.637 131.02C374.651 131.523 374.434 131.972 373.903 132.082C373.446 132.177 372.964 132.166 372.494 132.166C366.353 132.17 360.212 132.168 354.072 132.168C353.788 132.168 353.503 132.17 353.221 132.149C352.849 132.124 352.439 132.103 352.364 131.623C352.287 131.12 352.462 130.633 352.907 130.418C353.408 130.181 353.979 130.069 354.531 129.964C357.261 129.447 359.371 127.989 361.091 125.839C362.922 123.546 364.569 121.131 366.113 118.643C377.728 99.9551 389.336 81.2629 400.982 62.5963C401.625 61.5667 401.918 59.8265 403.691 60.1667C405.443 60.5021 405.021 62.2586 405.28 63.4C409.531 82.0783 413.696 100.775 417.92 119.46C418.355 121.387 418.994 123.274 419.639 125.144C420.58 127.868 422.49 129.531 425.358 130.036C425.731 130.102 426.103 130.165 426.469 130.253C426.933 130.365 427.422 130.495 427.378 131.117C427.331 131.779 426.928 132.128 426.271 132.154C425.705 132.177 425.137 132.168 424.571 132.17C420.797 132.168 417.018 132.168 413.24 132.166ZM397.664 76.4594C394.205 80.9344 381.127 102.322 380.559 104.353C388.262 104.353 395.947 104.353 403.898 104.353C401.823 95.0631 399.796 85.9965 397.664 76.4594Z" fill="#977858"/>
<path d="M457.878 117.229C460.564 112.786 462.908 108.924 465.237 105.054C470.889 95.6641 476.538 86.2738 482.178 76.8764C483.587 74.5283 485.024 72.1894 485.986 69.6083C486.979 66.9456 486.273 65.252 483.669 64.1618C482.893 63.838 482.04 63.6959 481.225 63.4723C480.673 63.3209 480.079 63.1951 480.144 62.4287C480.216 61.5691 480.796 61.3687 481.542 61.4176C481.635 61.4246 481.73 61.4176 481.826 61.4176C487.969 61.4176 494.114 61.4083 500.257 61.4316C500.842 61.4339 501.692 61.1357 501.813 62.1514C501.913 62.997 501.317 63.3255 500.623 63.4583C495.365 64.4623 492.458 68.3154 489.898 72.469C485.038 80.3498 480.295 88.3028 475.506 96.2256C468.468 107.869 461.433 119.514 454.398 131.157C454.104 131.642 453.811 132.126 453.538 132.625C453.105 133.417 452.404 133.507 451.6 133.447C450.692 133.379 450.622 132.648 450.473 132.04C449.455 127.914 448.465 123.784 447.472 119.651C443.635 103.678 439.803 87.7017 435.967 71.7281C435.769 70.9011 435.54 70.0835 435.335 69.2588C434.515 65.9602 432.405 64.0803 429.071 63.5329C428.698 63.4723 428.323 63.4187 427.955 63.3348C427.478 63.2253 427.04 63.039 427.077 62.438C427.11 61.9138 427.387 61.5434 427.925 61.4759C428.391 61.4176 428.866 61.4153 429.339 61.4153C437.467 61.413 445.597 61.3989 453.725 61.4362C454.472 61.4385 455.688 60.9494 455.856 62.1165C456.057 63.5165 454.696 63.3255 453.843 63.4746C447.687 64.5392 446.345 66.2864 447.295 72.5482C448.131 78.0622 449.739 83.4131 451.004 88.8363C452.956 97.2017 455.004 105.546 457.014 113.9C457.228 114.808 457.48 115.707 457.878 117.229Z" fill="#977858"/>
<path d="M385.495 200.365C385.6 193.754 386.969 187.439 390.159 181.601C395.696 171.458 407.502 165.664 418.812 167.493C427.396 168.881 433.611 175.46 434.182 184.275C434.713 192.47 433.153 200.381 428.612 207.296C422.246 216.989 413.014 221.333 401.445 220.026C392.29 218.992 385.893 211.801 385.502 202.632C385.467 201.877 385.495 201.12 385.495 200.365ZM394.389 198.907C394.452 199.855 394.464 201.183 394.636 202.487C395.663 210.275 401.767 214.543 409.426 212.961C414.169 211.98 417.603 209.173 420.233 205.322C424.272 199.405 425.696 192.762 425.174 185.682C425.034 183.795 424.449 181.987 423.571 180.292C421.57 176.432 418.39 174.402 414.06 174.221C408.308 173.981 403.859 176.511 400.367 180.883C396.255 186.032 394.669 192.065 394.389 198.907Z" fill="#977858"/>
<path d="M710.006 132.166C701.688 132.166 693.371 132.18 685.052 132.14C684.321 132.138 683.077 132.643 682.981 131.425C682.884 130.165 684.128 130.516 684.908 130.423C686.033 130.288 687.175 130.255 688.281 130.029C690.981 129.477 692.856 127.898 693.832 125.293C694.664 123.071 695.111 120.753 695.559 118.435C698.575 102.767 701.59 87.0961 704.583 71.4229C704.777 70.4096 704.865 69.3613 704.87 68.327C704.886 65.3987 703.759 64.0173 700.826 63.4699C699.628 63.2463 698.387 63.2625 697.164 63.174C696.749 63.1437 696.414 62.9737 696.386 62.5358C696.353 62.0326 696.544 61.5713 697.103 61.4898C697.66 61.4082 698.233 61.4175 698.799 61.4175C707.968 61.4129 717.135 61.4153 726.304 61.4153C726.492 61.4153 726.684 61.3966 726.87 61.4199C727.464 61.4898 728.326 61.1683 728.265 62.2702C728.214 63.2043 727.499 63.1741 726.821 63.2113C725.878 63.2603 724.936 63.3418 723.995 63.4233C718.234 63.9312 715.788 66.5169 714.845 71.4089C713.934 76.1379 712.928 80.8459 712.01 85.5726C709.738 97.2505 707.472 108.931 705.247 120.618C704.199 126.123 705.016 127.164 710.603 127.437C716.177 127.707 721.75 127.672 727.317 127.169C731.324 126.808 734.767 125.214 737.758 122.561C739.969 120.599 741.746 118.279 743.403 115.854C743.936 115.074 744.449 114.279 744.959 113.485C745.334 112.898 745.741 112.32 746.527 112.812C747.209 113.238 746.808 113.795 746.559 114.286C743.736 119.845 740.875 125.384 738.101 130.968C737.504 132.17 736.593 132.182 735.526 132.18C729.004 132.168 722.483 132.173 715.961 132.173C713.976 132.166 711.991 132.166 710.006 132.166Z" fill="#977858"/>
<path d="M437.639 218.953C437.451 216.607 438.105 214.613 438.45 212.602C440.842 198.742 443.312 184.895 445.76 171.043C446.196 168.572 446.205 168.532 448.837 168.567C450.701 168.593 452.59 168.332 454.533 168.809C454.347 170.107 454.207 171.321 453.988 172.518C453.79 173.603 453.459 174.67 453.664 176.012C454.959 175.372 455.621 174.305 456.487 173.499C461.449 168.888 467.159 166.508 474.048 167.351C481.018 168.206 485.043 172.709 484.999 179.753C484.966 184.89 483.722 189.861 482.883 194.884C481.688 202.054 480.358 209.201 479.1 216.36C478.651 218.92 478.667 218.932 476.128 218.946C474.257 218.957 472.389 218.948 470.372 218.948C470.653 215.181 471.508 211.803 472.053 208.381C473.3 200.552 475.063 192.808 475.948 184.918C475.99 184.543 476.044 184.168 476.07 183.791C476.477 177.841 472.431 174.007 466.521 174.98C459.714 176.101 455.176 180.231 452.376 186.383C450.393 190.74 449.955 195.487 449.103 200.121C448.076 205.691 447.155 211.281 446.168 216.858C445.804 218.908 445.779 218.92 443.612 218.943C441.646 218.969 439.68 218.953 437.639 218.953Z" fill="#977858"/>
<path d="M677.197 175.705C678.441 175.001 679.168 174.004 680.049 173.2C684.906 168.774 690.501 166.557 697.161 167.349C704.192 168.183 708.229 172.623 708.241 179.658C708.248 183.751 707.33 187.72 706.629 191.718C705.161 200.09 703.679 208.458 702.179 216.823C701.804 218.915 701.758 218.918 699.717 218.948C698.298 218.969 696.879 218.978 695.463 218.943C693.483 218.897 693.399 218.801 693.753 216.786C694.715 211.298 695.712 205.816 696.674 200.328C697.473 195.769 698.258 191.21 699.004 186.642C699.186 185.528 699.249 184.385 699.272 183.255C699.386 177.696 695.603 174.274 690.04 174.929C686.348 175.362 683.207 176.998 680.473 179.479C676.582 183.006 674.618 187.539 673.691 192.575C672.291 200.19 671.068 207.841 669.596 215.442C668.818 219.46 669.833 218.913 665.433 218.943C660.527 218.976 660.511 218.948 661.338 214.277C663.889 199.862 666.47 185.454 668.995 171.036C669.41 168.669 669.081 168.483 672.037 168.567C673.817 168.616 676.086 167.808 677.248 168.914C678.539 170.144 676.901 172.243 676.946 173.999C676.955 174.463 676.759 174.931 677.197 175.705ZM677.018 176.189C676.955 176.108 676.904 176.04 676.85 175.975C676.792 176.035 676.689 176.094 676.687 176.159C676.685 176.222 676.778 176.292 676.831 176.359C676.892 176.301 676.955 176.245 677.018 176.189Z" fill="#977858"/>
<path d="M582.317 168.798C581.523 173.438 580.768 177.978 579.967 182.512C577.964 193.847 575.941 205.18 573.924 216.513C573.495 218.925 573.491 218.927 571.145 218.95C569.917 218.962 568.69 218.969 567.462 218.948C565.193 218.908 565.1 218.806 565.482 216.483C565.74 214.915 566.225 213.376 566.09 211.715C564.89 211.701 564.473 212.698 563.851 213.32C561.482 215.686 558.824 217.65 555.716 218.876C550.449 220.956 545.201 220.907 540.12 218.214C537.371 216.758 535.771 214.475 535.161 211.368C534.487 207.943 534.841 204.575 535.41 201.232C537.117 191.184 538.927 181.158 540.726 171.127C541.187 168.558 541.234 168.562 543.959 168.553C545.187 168.548 546.417 168.525 547.642 168.56C549.534 168.616 549.601 168.686 549.282 170.512C548.504 174.973 547.68 179.427 546.904 183.888C545.951 189.374 545.043 194.865 544.092 200.351C543.768 202.226 543.729 204.113 543.799 206C543.934 209.653 545.532 211.5 549.147 212.246C552.954 213.028 556.467 212.218 559.712 210.177C563.884 207.554 566.595 203.785 568.128 199.147C569.645 194.553 570.167 189.749 571.042 185.021C571.937 180.196 572.799 175.365 573.589 170.524C573.826 169.068 574.39 168.385 575.951 168.527C577.998 168.721 580.081 168.341 582.317 168.798Z" fill="#977858"/>
<path d="M514.978 167.141C517.957 167.251 520.506 167.353 522.979 168.073C527.282 169.324 530.15 172.69 530.578 176.977C530.818 179.378 530.467 179.784 528.086 179.812C526.951 179.826 525.81 179.728 524.687 179.835C522.986 179.998 521.85 179.781 521.67 177.648C521.551 176.234 520.179 175.488 518.903 175.069C514.595 173.655 510.335 173.787 506.263 175.882C504.278 176.904 502.785 178.474 502.116 180.688C501.443 182.917 501.988 184.538 503.903 185.866C505.235 186.791 506.757 187.322 508.292 187.8C511.986 188.948 515.688 190.071 519.378 191.229C520.275 191.511 521.172 191.832 522.02 192.237C526.308 194.28 528.179 197.64 527.52 202.35C526.341 210.771 521.463 216.236 513.575 218.948C508.287 220.765 502.787 220.739 497.352 219.514C493.823 218.72 490.93 216.83 488.947 213.706C487.68 211.71 487.326 209.516 487.449 207.195C487.51 206.066 487.936 205.481 489.18 205.534C490.878 205.609 492.581 205.586 494.28 205.539C495.388 205.511 495.922 205.76 496.034 207.077C496.334 210.594 497.788 212.111 501.166 212.826C505.159 213.671 509.063 213.478 512.776 211.656C515.12 210.506 517.074 208.882 518.15 206.434C519.499 203.368 518.64 200.847 515.709 199.249C514.805 198.755 513.81 198.408 512.83 198.078C509.431 196.931 506.02 195.825 502.617 194.7C501.902 194.462 501.173 194.248 500.483 193.947C493.76 191.024 491.454 185.279 494.599 178.628C497.769 171.926 503.39 168.478 510.6 167.467C512.187 167.248 513.801 167.225 514.978 167.141Z" fill="#977858"/>
<path d="M378.46 205.949C378.276 208.311 377.339 209.937 376.216 211.463C373.861 214.659 370.816 217.012 367.131 218.454C361.312 220.73 355.323 220.972 349.359 219.225C342.247 217.14 338.757 211.831 338.014 204.819C337.075 195.953 338.82 187.499 343.454 179.802C350.251 168.513 361.957 165.485 373.097 167.987C375.923 168.621 378.343 170.079 380.321 172.22C381.907 173.934 382.876 175.956 383.156 178.272C383.501 181.123 383.1 181.547 380.246 181.561C379.303 181.566 378.357 181.582 377.414 181.557C376.573 181.533 375.62 181.689 374.926 181.345C374.183 180.974 374.795 179.97 374.618 179.255C374.01 176.793 372.391 175.413 370.029 174.743C363.106 172.776 355.476 175.786 351.346 182.178C348.728 186.234 347.612 190.807 346.967 195.513C346.594 198.229 346.447 200.955 346.904 203.694C347.707 208.53 350.822 211.84 355.639 212.945C358.586 213.62 361.47 213.331 364.284 212.402C366.81 211.568 368.792 209.995 369.715 207.407C370.083 206.373 370.586 205.884 371.739 205.926C373.898 206.005 376.063 205.949 378.46 205.949Z" fill="#977858"/>
<path d="M625.735 168.614C630.788 168.614 635.387 168.614 640.23 168.614C639.876 170.638 639.496 172.373 639.289 174.13C639.142 175.386 638.476 175.632 637.381 175.623C633.698 175.588 630.015 175.653 626.332 175.591C624.974 175.567 624.279 175.977 624.053 177.401C622.621 186.437 620.606 195.375 619.55 204.474C618.656 212.185 623.718 213.713 628.766 213.164C630.723 212.949 632.64 212.383 634.772 211.938C634.942 214.077 634.194 216.022 633.949 218.018C633.868 218.68 633.379 218.915 632.78 219.053C628.244 220.103 623.697 220.9 619.073 219.612C613.584 218.084 610.773 214.347 610.666 208.658C610.572 203.603 611.882 198.744 612.657 193.812C613.494 188.501 614.512 183.22 615.432 177.922C615.825 175.665 615.805 175.651 613.407 175.616C611.802 175.593 610.197 175.588 608.592 175.609C607.588 175.621 607.241 175.157 607.416 174.202C607.672 172.811 607.94 171.421 608.147 170.021C608.32 168.856 608.963 168.481 610.093 168.541C611.504 168.616 612.925 168.562 614.342 168.558C617.123 168.546 617.123 168.544 617.573 165.935C617.973 163.61 618.372 161.285 618.784 158.965C619.189 156.682 619.196 156.67 621.421 156.642C623.026 156.623 624.631 156.668 626.236 156.635C627.371 156.612 627.722 157.033 627.478 158.18C627.007 160.393 626.644 162.629 626.262 164.861C626.075 165.963 625.947 167.081 625.735 168.614Z" fill="#977858"/>
<path d="M588.2 218.955C584.018 218.955 583.967 218.946 584.701 214.771C587.999 196.014 591.328 177.261 594.645 158.508C595.27 154.981 595.952 151.461 596.483 147.918C596.677 146.637 597.161 146.092 598.463 146.145C600.066 146.21 601.674 146.127 603.276 146.169C605.128 146.215 605.231 146.329 604.919 148.142C604.15 152.6 603.341 157.054 602.554 161.511C599.419 179.243 596.32 196.983 593.131 214.708C592.195 219.919 593.236 218.806 588.2 218.955Z" fill="#977858"/>
<path d="M654.442 168.555C658.521 168.555 658.552 168.56 657.853 172.576C655.344 186.982 652.814 201.385 650.289 215.787C650.175 216.437 649.972 217.075 649.902 217.729C649.799 218.701 649.236 218.969 648.36 218.955C646.755 218.932 645.15 218.971 643.545 218.948C641.271 218.913 641.264 218.899 641.641 216.751C642.31 212.942 642.988 209.134 643.661 205.325C645.665 193.992 647.656 182.654 649.676 171.323C650.168 168.558 650.207 168.565 653.028 168.555C653.499 168.553 653.969 168.555 654.442 168.555Z" fill="#977858"/>
<path d="M656.208 157.46C652.136 157.46 652.017 157.434 652.812 153.509C653.867 148.295 652.418 148.955 658.041 148.959C661.829 148.962 662.388 148.037 661.335 152.826C661.314 152.917 661.305 153.01 661.289 153.104C660.55 157.46 660.55 157.46 656.208 157.46Z" fill="#977858"/>
</svg>
