<svg width="360" height="360" viewBox="0 0 360 360" fill="none" xmlns="http://www.w3.org/2000/svg">
<path d="M215.516 75.525L215.519 75.52L213.726 74.633L215.516 75.525Z" fill="white"/>
<path d="M332.014 327.554H332.013V327.555H332.014V327.554Z" fill="white"/>
<path d="M225.94 285.516V285.511L223.94 285.537L225.94 285.516Z" fill="white"/>
<path d="M75.0505 305.873C75.0495 302.601 74.2195 299.709 72.4265 297.536L72.4285 297.534C72.4215 297.525 72.4135 297.518 72.4075 297.51C72.4005 297.501 72.3945 297.491 72.3865 297.483L72.3845 297.485C71.4715 296.334 70.2995 295.393 68.9715 294.757L68.9705 294.756C67.6605 294.131 66.2165 293.807 64.7085 293.807C64.7075 293.807 64.7065 293.807 64.7065 293.807H64.7045C59.2315 293.807 54.7205 296.519 51.3625 301.457C51.3615 301.459 51.3605 301.461 51.3595 301.462C51.3595 301.464 51.3585 301.465 51.3575 301.466C48.8535 305.113 47.5215 309.379 47.5015 313.807C47.5015 313.821 47.5005 313.834 47.5005 313.848C47.5005 313.866 47.4985 313.883 47.4985 313.901H47.5005C47.3875 316.801 48.3655 319.604 50.2665 321.801L50.2655 321.802C50.2975 321.84 50.3525 321.899 50.4085 321.957L50.4075 321.958C50.4135 321.964 50.4205 321.969 50.4255 321.976C50.4345 321.985 50.4385 321.991 50.4475 321.999L50.4485 321.997C51.4435 323.039 52.6635 323.87 53.9945 324.413L53.9985 324.415L54.6535 322.797L54.6785 322.735L53.9985 324.415C55.2275 324.913 56.5265 325.167 57.8535 325.167C57.9585 325.167 58.0575 325.164 58.1525 325.162C58.1525 325.162 58.1535 325.162 58.1545 325.162C58.1705 325.161 58.1895 325.161 58.2055 325.161V325.158C62.5785 325.122 66.5155 322.961 69.8615 319.188L69.8625 319.189C69.8665 319.185 69.8695 319.18 69.8735 319.176C69.8795 319.169 69.8865 319.163 69.8925 319.156L69.8915 319.155C73.2305 315.525 75.0655 310.806 75.0535 305.878C75.0535 305.877 75.0535 305.876 75.0535 305.875C75.0535 305.874 75.0505 305.874 75.0505 305.873ZM62.5275 303.221L62.8355 303.063L62.8655 303.047L62.5275 303.221ZM61.6785 306.559C61.6895 306.83 61.6975 307.124 61.6975 307.455C61.6975 307.478 61.6975 307.501 61.6985 307.525C61.7585 309.21 61.4275 310.859 60.7725 312.338C60.7725 312.284 60.7665 312.231 60.7685 312.177C60.7725 312.106 60.7745 312.033 60.7745 311.962C60.7735 309.531 61.1275 307.771 61.6785 306.559ZM61.4505 314.975L59.9975 315.815V315.814L61.4505 314.975ZM59.9975 315.814L59.8655 315.89L59.8355 315.908L59.9975 315.814ZM62.9845 303.268L63.0475 303.227V303.228L62.9845 303.268Z" fill="white"/>
<path d="M244.632 295.502L245.039 293.909V293.908C245.455 292.277 244.928 290.552 243.674 289.434L242.342 290.926C242.342 290.925 242.342 290.925 242.342 290.925L242.437 290.82L243.674 289.434L243.671 289.43C242.417 288.316 240.64 287.988 239.068 288.591H239.067C239.066 288.592 239.066 288.592 239.065 288.592L235.004 290.149C233.648 290.668 232.627 291.811 232.26 293.214L231.671 295.473H230.993C228.93 295.473 227.135 296.873 226.63 298.871L226.169 300.697L228.107 301.186L227.578 301.053L226.169 300.697V300.699C225.831 302.043 226.129 303.468 226.981 304.562C227.504 305.234 228.201 305.733 228.98 306.019L227.763 310.816C227.147 312.939 226.769 315.132 226.647 317.263H226.645C226.644 317.27 226.645 317.277 226.645 317.283C226.644 317.298 226.642 317.313 226.641 317.328H226.645C226.504 319.079 226.939 320.849 227.882 322.332L227.89 322.343L229.505 321.299L229.568 321.258L227.889 322.343C227.959 322.452 228.036 322.561 228.118 322.669L229.702 321.448L229.684 321.462L228.118 322.669L228.123 322.675C228.738 323.467 229.54 324.104 230.452 324.529L230.456 324.53L231.177 322.97L231.254 322.804L230.456 324.53C231.279 324.911 232.188 325.11 233.096 325.11C233.2 325.11 233.4 325.104 233.542 325.092C233.543 325.092 233.544 325.092 233.544 325.092C233.548 325.091 233.553 325.091 233.556 325.091V325.09C235.219 324.954 236.853 324.453 238.31 323.651L238.311 323.653C239.403 323.1 241.359 321.914 246.454 318.065L246.453 318.064C247.433 317.325 248.065 316.216 248.211 315.002L248.212 314.997C248.354 313.779 247.994 312.557 247.212 311.609L246.238 310.429C244.976 308.901 242.928 308.442 241.176 309.106L241.905 306.298H243.74C245.845 306.298 247.671 304.837 248.131 302.782L248.54 300.956C248.839 299.622 248.515 298.226 247.662 297.16C246.911 296.224 245.817 295.63 244.632 295.502ZM228.57 299.362C228.57 299.363 228.57 299.363 228.57 299.362ZM241.185 311.359L241.137 311.3L240.736 310.808L241.185 311.359Z" fill="white"/>
<path d="M347.732 327.844C347.741 327.821 347.748 327.796 347.755 327.772L345.838 327.203L347.732 327.844Z" fill="white"/>
<path d="M147.155 301.094H147.158L149.153 301.012C149.152 301.004 149.152 300.996 149.152 300.987C149.09 299.833 148.74 298.708 148.139 297.716L146.429 298.752L146.502 298.708L148.14 297.716L148.137 297.711C147.549 296.746 146.72 295.925 145.773 295.36L145.774 295.359C145.769 295.356 145.764 295.353 145.759 295.35C145.752 295.346 145.746 295.341 145.739 295.337L145.738 295.339C143.99 294.272 141.967 293.735 139.906 293.805V293.804C139.892 293.804 139.878 293.805 139.864 293.805C139.832 293.806 139.801 293.804 139.769 293.806V293.808C136.798 293.779 133.947 294.831 131.777 296.784L131.776 296.783C131.771 296.787 131.767 296.792 131.762 296.797C131.754 296.804 131.745 296.81 131.738 296.817L131.739 296.819C130.632 297.784 129.754 298.952 129.139 300.29C128.516 301.644 128.197 303.089 128.192 304.589V304.601C128.196 306.362 128.669 308.069 129.515 309.72C129.472 309.719 129.43 309.708 129.387 309.708C128.534 309.708 127.696 309.877 126.921 310.208V310.207C126.919 310.208 126.917 310.209 126.915 310.21C126.911 310.212 126.908 310.212 126.904 310.214V310.215C126.08 310.564 125.351 311.077 124.743 311.726C123.581 312.968 122.94 314.609 122.97 316.265H122.968C122.968 316.277 122.97 316.287 122.97 316.299C122.97 316.312 122.969 316.323 122.969 316.336H122.972C122.976 317.585 123.259 318.831 123.803 319.96L123.806 319.965C124.344 321.073 125.141 322.07 126.06 322.798L126.058 322.801C126.07 322.812 126.084 322.82 126.096 322.829C126.105 322.837 126.113 322.846 126.122 322.852L126.123 322.85C128.034 324.424 130.498 325.079 133.369 325.098C133.374 325.098 133.38 325.098 133.386 325.098C133.403 325.098 133.419 325.1 133.436 325.1V325.099C133.571 325.104 133.709 325.108 133.851 325.108C136.938 325.108 139.937 324.016 142.259 322.066C142.262 322.063 142.266 322.06 142.269 322.057C142.279 322.049 142.289 322.042 142.299 322.035L142.297 322.033C143.505 321.053 144.499 319.804 145.176 318.41C145.862 316.996 146.228 315.426 146.245 313.831C146.245 313.824 146.245 313.817 146.245 313.81C146.245 311.562 145.462 309.404 144.075 307.343C144.464 307.268 144.845 307.155 145.215 307.008H145.217L144.666 305.633L144.474 305.152L145.217 307.008C145.953 306.713 146.649 306.272 147.196 305.735L147.198 305.738C147.205 305.731 147.211 305.722 147.218 305.716C147.23 305.703 147.245 305.693 147.258 305.68L147.254 305.675C147.847 305.108 148.321 304.439 148.653 303.674L148.655 303.669C148.985 302.9 149.154 302.085 149.159 301.253V301.242C149.159 301.165 149.158 301.09 149.154 301.013L147.155 301.094Z" fill="white"/>
<path d="M352.809 294.617C352.808 294.616 352.808 294.616 352.807 294.615C351.718 293.435 350.079 292.924 348.516 293.275L346.454 293.736C345.932 293.852 345.451 294.067 345.016 294.346C342.283 294.333 339.579 295.021 337.188 296.315L337.187 296.314C337.178 296.319 337.171 296.323 337.163 296.328C337.162 296.328 337.162 296.329 337.161 296.329C337.073 296.377 336.996 296.423 336.964 296.443L337.985 298.13L337.939 298.057L336.964 296.444C336.959 296.447 336.953 296.45 336.948 296.453C333.557 298.547 330.718 301.471 328.719 304.92L328.718 304.919C328.709 304.933 328.702 304.947 328.694 304.961C328.688 304.971 328.682 304.98 328.676 304.989H328.677C326.514 308.448 325.328 312.427 325.253 316.438H325.251C325.251 316.445 325.252 316.451 325.251 316.458C325.251 316.475 325.249 316.49 325.249 316.507H325.253C325.214 317.442 325.354 318.364 325.627 319.242C324.703 319.884 323.922 320.531 323.317 321.208L323.315 321.206C323.307 321.214 323.3 321.224 323.294 321.231C323.288 321.238 323.278 321.246 323.273 321.252L323.275 321.253C321.553 323.105 320.579 325.514 320.528 328.047C320.528 328.061 320.527 328.074 320.527 328.087C320.527 328.123 320.527 328.188 320.529 328.258V328.268L322.525 328.209H322.528L320.529 328.268C320.571 329.692 320.946 331.108 321.617 332.358L321.618 332.357C322.254 333.548 323.157 334.593 324.239 335.403L324.237 335.405C324.249 335.414 324.26 335.422 324.272 335.43C324.286 335.441 324.298 335.453 324.312 335.463L324.314 335.461C326.487 337.186 329.256 337.983 332.335 337.993C332.351 337.993 332.363 337.994 332.378 337.995C332.382 337.995 332.387 337.995 332.391 337.995C332.391 337.995 332.391 337.995 332.392 337.995C332.393 337.995 332.393 337.995 332.393 337.995C332.394 337.995 332.395 337.995 332.395 337.995C332.396 337.995 332.396 337.995 332.396 337.995C332.532 337.998 332.666 338 332.786 338C335.991 338 339.12 337.092 341.819 335.383C341.82 335.382 341.821 335.381 341.822 335.381C341.824 335.38 341.825 335.379 341.827 335.378C344.582 333.648 346.662 331.001 347.732 327.844L345.838 327.202L347.755 327.771C348.459 325.406 348.798 322.958 348.761 320.529H348.762C348.762 319.53 348.833 318.524 348.966 317.585C349.331 315.343 349.82 313.087 350.424 310.854C350.426 310.848 350.428 310.84 350.43 310.833L348.515 310.338L348.494 310.332L350.431 310.833C351.448 306.904 352.58 302.923 353.799 299H353.8L352.526 298.604L351.889 298.407L353.799 299C354.274 297.468 353.896 295.796 352.809 294.617ZM332.03 327.537L332.014 327.555L332.037 327.575L332.013 327.555L332.03 327.537ZM331.795 327.808L331.607 328.027H331.606L331.795 327.808ZM331.874 327.444L330.969 326.728L330.986 326.741L331.874 327.444ZM330.931 328.805L331.567 328.072L330.943 328.794L330.931 328.805C330.932 328.805 330.932 328.805 330.931 328.805ZM338.196 308.302L337.617 308.098L337.641 308.107L338.196 308.302ZM333.674 327.003C333.646 327.018 333.611 327.024 333.582 327.038C333.868 326.809 334.231 326.531 334.684 326.198C334.386 326.514 334.054 326.799 333.674 327.003ZM339.797 308.073L340.282 308.184L340.294 308.187L339.797 308.073Z" fill="white"/>
<path d="M315.602 311.928L313.955 313.063L314.042 313.002L315.602 311.928L315.6 311.926C314.975 311.021 314.034 310.4 312.972 310.136C313.95 306.971 314.597 304.765 314.874 303.631L314.876 303.624L312.962 303.164L312.931 303.156C312.931 303.156 312.931 303.156 312.931 303.155L314.876 303.624C315.086 302.752 315.201 301.86 315.224 300.973H315.227C315.228 300.958 315.227 300.944 315.227 300.929C315.228 300.921 315.229 300.914 315.229 300.908H315.228C315.302 299.196 314.772 297.517 313.722 296.162L312.141 297.389C312.141 297.388 312.141 297.388 312.141 297.388L312.183 297.356L313.722 296.163L313.715 296.154C313.653 296.076 313.578 295.987 313.495 295.896C313.495 295.896 313.495 295.896 313.494 295.895C313.488 295.888 313.484 295.882 313.477 295.875L313.475 295.877C312.838 295.181 312.049 294.629 311.163 294.26L310.392 296.106L310.409 296.063L311.163 294.26C311.155 294.256 311.145 294.252 311.138 294.249C310.365 293.938 309.545 293.778 308.709 293.778C308.573 293.778 308.445 293.783 308.237 293.798C308.223 293.799 308.21 293.8 308.195 293.801C306.365 293.968 304.609 294.591 303.062 295.575C302.766 295.243 302.432 294.95 302.068 294.719L302.07 294.716C302.061 294.71 302.052 294.707 302.044 294.701C302.032 294.693 302.022 294.683 302.009 294.676L302.006 294.68C301.053 294.063 299.948 293.73 298.81 293.73C298.706 293.73 298.528 293.738 298.454 293.742L298.569 295.738C298.569 295.738 298.569 295.738 298.568 295.738L298.564 295.664L298.454 293.742L298.442 293.743C296.563 293.861 294.718 294.433 293.076 295.409L294.097 297.129C294.096 297.129 294.096 297.129 294.096 297.129L294.088 297.116L293.075 295.409C293.068 295.413 293.062 295.417 293.056 295.421C290.811 296.787 288.75 298.434 286.928 300.313L288.365 301.706L286.927 300.315C285.237 302.061 285.239 304.835 286.93 306.58H286.931L288.365 305.186L286.93 306.58L287.801 307.477L287.802 307.476C288.315 308.006 288.935 308.362 289.597 308.583L288.91 311.518L290.856 311.974L290.779 311.957L288.91 311.518C288.909 311.524 288.908 311.53 288.907 311.535C288.398 313.785 287.788 316.194 287.091 318.694C286.713 320.048 286.99 321.503 287.842 322.624C288.693 323.746 290.018 324.403 291.425 324.403H295.266C297.075 324.403 298.672 323.323 299.379 321.715C299.467 321.886 299.537 322.063 299.637 322.228C299.723 322.371 299.809 322.496 299.885 322.598L301.498 321.416L301.493 321.42L299.885 322.598C299.891 322.607 299.897 322.615 299.904 322.621C300.519 323.436 301.333 324.096 302.258 324.528H302.261L302.893 323.169L303.105 322.716L302.261 324.528C303.089 324.915 304.002 325.117 304.914 325.117C304.985 325.117 305.15 325.113 305.227 325.109H305.234C305.306 325.105 305.375 325.099 305.442 325.093C305.443 325.093 305.443 325.093 305.444 325.093C305.447 325.092 305.45 325.092 305.453 325.092V325.091C307.151 324.923 308.777 324.316 310.174 323.335L310.176 323.338C310.195 323.326 310.212 323.312 310.231 323.3C310.239 323.294 310.247 323.29 310.254 323.285L310.253 323.284C312.351 321.914 314.255 320.269 315.911 318.389L314.41 317.067L314.506 317.151L315.911 318.389H315.912C317.276 316.839 317.41 314.561 316.241 312.862L315.602 311.928Z" fill="white"/>
<path d="M225.292 282.842C224.877 282.004 224.271 281.273 223.529 280.702L222.311 282.289L222.365 282.219L223.529 280.702L223.522 280.697C222.235 279.718 220.618 279.195 218.98 279.259V279.256C218.959 279.256 218.937 279.259 218.916 279.259C218.91 279.259 218.903 279.259 218.897 279.259V279.26C215.907 279.304 212.988 280.159 210.445 281.744V281.745C207.864 283.352 205.78 285.641 204.421 288.361C203.523 290.155 202.579 293.202 201.511 297.501C201.51 297.507 201.509 297.514 201.507 297.52L203.394 297.969L203.453 297.984L201.508 297.52L198.821 308.774C197.389 314.587 197.129 316.891 197.109 318.194H197.108C197.108 318.197 197.109 318.2 197.108 318.202C197.108 318.223 197.107 318.248 197.107 318.268H197.111C197.057 319.904 197.573 321.5 198.597 322.809L200.172 321.578L198.617 322.835C199.195 323.552 199.939 324.14 200.77 324.528V324.527C201.588 324.914 202.468 325.112 203.373 325.112H203.397C205.674 325.112 207.998 324.118 210.39 322.486L210.391 322.487C212.444 321.106 214.319 319.47 215.963 317.625C217.516 315.882 217.478 313.243 215.878 311.545L215.008 310.622L213.553 311.994L213.709 311.846L215.008 310.622L215.006 310.62C214.174 309.74 213.022 309.231 211.811 309.209L211.776 311.209V311.138L211.811 309.209C211.802 309.209 211.793 309.209 211.785 309.209C211.716 309.209 211.648 309.225 211.579 309.228L214.064 298.79L214.065 298.785C214.694 296.112 215.431 293.045 215.86 291.598C215.907 291.605 215.963 291.609 216.006 291.617V291.614C216.921 291.799 217.855 291.909 218.708 291.94V291.941C218.681 291.939 218.665 291.937 218.684 291.939C218.692 291.941 218.76 291.95 218.829 291.956C219.006 291.972 219.221 291.977 219.477 291.939V291.936C220.939 291.878 222.36 291.385 223.569 290.472C223.585 290.46 223.6 290.449 223.616 290.437C224.349 289.848 224.948 289.089 225.34 288.252L225.341 288.253C225.343 288.249 225.344 288.245 225.346 288.241C225.347 288.239 225.347 288.238 225.348 288.237C225.748 287.389 225.952 286.451 225.94 285.516L223.94 285.537L225.94 285.511C225.928 284.591 225.709 283.669 225.294 282.841L225.292 282.842ZM214.163 290.543L214.527 290.625L214.087 290.525L214.163 290.543Z" fill="white"/>
<path d="M198.597 322.809C198.604 322.819 198.61 322.827 198.618 322.834L200.173 321.577L198.597 322.809Z" fill="white"/>
<path d="M114.719 312.861L114.081 311.931L112.557 312.976L112.701 312.876L114.081 311.931L114.078 311.927C113.452 311.019 112.509 310.398 111.447 310.134C112.438 306.913 113.07 304.762 113.346 303.638L113.348 303.632L111.604 303.207L111.543 303.192L113.348 303.632C113.561 302.756 113.677 301.859 113.7 300.96H113.703C113.703 300.946 113.703 300.933 113.703 300.919C113.703 300.911 113.705 300.904 113.705 300.897C113.777 299.197 113.249 297.523 112.206 296.17L112.205 296.171C112.122 296.061 112.041 295.968 111.98 295.9L111.973 295.892C111.333 295.187 110.537 294.629 109.641 294.256C109.636 294.254 109.63 294.252 109.625 294.249C108.847 293.935 108.025 293.774 107.187 293.774C107.051 293.774 106.924 293.779 106.716 293.794L106.855 295.789L106.851 295.744L106.716 293.794C106.702 293.795 106.688 293.796 106.674 293.797C104.841 293.964 103.083 294.588 101.531 295.573C101.238 295.245 100.909 294.953 100.552 294.722L100.554 294.719C100.545 294.713 100.534 294.709 100.525 294.702C100.515 294.696 100.506 294.687 100.496 294.681L100.494 294.684C99.5355 294.058 98.4225 293.722 97.2775 293.722C97.1805 293.722 97.0125 293.728 96.9285 293.732C96.9215 293.732 96.9155 293.734 96.9095 293.734C95.0285 293.857 93.1835 294.429 91.5415 295.404C91.5345 295.409 91.5275 295.413 91.5205 295.417L92.5465 297.096L92.5635 297.124L91.5205 295.417C89.2845 296.783 87.2275 298.428 85.4055 300.307C83.7145 302.051 83.7135 304.826 85.4055 306.572L86.2755 307.467C86.7855 307.993 87.4025 308.343 88.0465 308.563L87.3545 311.518L89.3015 311.974L89.2405 311.96L87.3545 311.518C87.3535 311.524 87.3525 311.531 87.3505 311.536C86.8415 313.8 86.2325 316.206 85.5375 318.69L85.5385 318.692C85.1605 320.044 85.4345 321.501 86.2885 322.624C87.1395 323.744 88.4645 324.402 89.8715 324.402H93.7125C95.5215 324.402 97.1175 323.322 97.8255 321.714C97.9125 321.884 97.9825 322.06 98.0825 322.225C98.1685 322.368 98.2545 322.493 98.3305 322.596C98.3355 322.604 98.3415 322.612 98.3475 322.619C98.9655 323.437 99.7795 324.097 100.703 324.525C100.703 324.525 100.704 324.525 100.705 324.526C100.706 324.526 100.707 324.527 100.709 324.528V324.527C101.538 324.914 102.45 325.114 103.36 325.114C103.43 325.114 103.595 325.11 103.673 325.107H103.675C103.748 325.103 103.821 325.097 103.895 325.089C105.587 324.922 107.206 324.314 108.597 323.34L108.599 323.343C108.621 323.328 108.643 323.312 108.665 323.297C108.671 323.292 108.679 323.289 108.686 323.284V323.283C110.799 321.919 112.716 320.271 114.384 318.384C115.751 316.842 115.886 314.563 114.719 312.861Z" fill="white"/>
<path d="M279.135 289.218C279.153 288.402 279.017 287.597 278.728 286.827C278.423 286.015 277.963 285.293 277.359 284.663C277.355 284.658 277.351 284.654 277.347 284.65C276.748 284.037 276.042 283.564 275.247 283.234L274.482 285.083C274.482 285.083 274.482 285.083 274.481 285.083L274.508 285.018L275.246 283.235L275.234 283.231C274.47 282.92 273.672 282.768 272.817 282.768H272.816C271.843 282.768 270.897 282.973 270.013 283.371L270.833 285.194L270.817 285.159L270.012 283.371L270.01 283.372C269.137 283.765 268.35 284.35 267.714 285.066L267.713 285.065C267.71 285.068 267.708 285.071 267.706 285.074C267.699 285.081 267.691 285.088 267.685 285.095L267.687 285.097C266.476 286.438 265.811 288.166 265.808 289.976H265.806C265.806 289.989 265.807 290 265.807 290.013C265.807 290.021 265.806 290.028 265.806 290.035H265.808C265.787 291.527 266.276 292.953 267.196 294.127C266.044 294.447 264.938 294.914 263.939 295.55C263.936 295.552 263.933 295.553 263.93 295.555C263.925 295.559 263.919 295.561 263.914 295.564L263.915 295.565C261.769 296.901 259.849 298.552 258.212 300.476C257.416 301.412 257.035 302.632 257.163 303.859C257.29 305.086 257.916 306.202 258.885 306.952L260.012 307.822V307.823C260.27 308.022 260.543 308.185 260.826 308.32C259.164 314.328 258.823 316.847 258.804 318.318C258.804 318.324 258.804 318.33 258.804 318.335C258.804 318.352 258.803 318.369 258.803 318.385C258.753 320.053 259.318 321.669 260.398 322.942L261.415 322.079L261.923 321.647L260.4 322.942C260.458 323.009 260.516 323.076 260.578 323.139C260.582 323.145 260.586 323.149 260.59 323.153C261.226 323.811 261.986 324.323 262.839 324.655C263.581 324.946 264.366 325.094 265.166 325.094C265.234 325.094 265.399 325.09 265.477 325.087L265.485 325.086C265.511 325.084 265.586 325.08 265.671 325.071V325.073C265.679 325.072 265.687 325.07 265.694 325.069C265.699 325.069 265.703 325.069 265.708 325.068V325.067C267.371 324.907 268.979 324.342 270.387 323.416C270.392 323.413 270.397 323.41 270.402 323.406C272.488 322.008 274.443 320.392 276.215 318.605C277.057 317.756 277.527 316.607 277.519 315.41V315.407C277.51 314.214 277.029 313.068 276.172 312.226L275.173 311.247C274.652 310.735 274.033 310.386 273.38 310.179C273.637 309.276 273.929 308.267 274.27 307.118H274.271C276.01 301.301 276.126 300.363 276.123 299.597H276.12C276.139 298.753 275.974 297.905 275.629 297.137C275.628 297.136 275.627 297.134 275.627 297.133C275.626 297.131 275.626 297.13 275.625 297.128H275.624C275.423 296.681 275.159 296.266 274.851 295.885C274.918 295.855 274.989 295.83 275.055 295.798L275.061 295.795L274.234 294.112L274.178 294L275.061 295.795C275.889 295.388 276.613 294.825 277.214 294.131L277.216 294.133C277.224 294.124 277.231 294.115 277.238 294.107C277.245 294.099 277.253 294.091 277.259 294.084L277.257 294.083C278.446 292.752 279.122 291.036 279.134 289.291H279.136C279.136 289.279 279.135 289.268 279.135 289.256C279.135 289.244 279.137 289.233 279.137 289.221H279.135V289.218ZM272.692 296.461L272.698 296.453L272.679 296.479L272.692 296.461Z" fill="white"/>
<path d="M38.1575 286.934C33.7815 285.413 32.9175 285.151 32.4145 285.032L31.9655 286.925L31.9675 286.913L32.4145 285.032C32.4085 285.031 32.4025 285.028 32.3975 285.028C31.0935 284.731 29.7525 284.582 28.3805 284.582C24.5865 284.582 20.8295 285.925 17.1985 288.425C17.1885 288.431 17.1795 288.439 17.1705 288.445C13.4985 291.067 10.4865 294.583 8.49846 298.54L8.49746 298.539C8.48646 298.559 8.47746 298.579 8.46746 298.599C8.46546 298.603 8.46346 298.606 8.46146 298.61C6.25646 302.655 5.05946 307.219 5.00446 311.799C5.00446 311.807 5.00346 311.815 5.00346 311.822C4.93846 314.888 5.58846 317.97 6.88946 320.753L6.89146 320.757C8.11446 323.358 10.0445 325.547 12.4735 327.086L12.4745 327.087L13.1875 325.96L13.2935 325.793L12.4745 327.087C14.8915 328.616 17.6815 329.426 20.5405 329.426C20.5415 329.426 20.5425 329.426 20.5425 329.426C20.5435 329.426 20.5445 329.426 20.5445 329.426C20.5445 329.426 20.5455 329.426 20.5465 329.426H20.5475C20.5475 329.426 20.5485 329.426 20.5495 329.426C20.5495 329.426 20.5505 329.426 20.5515 329.426H20.5545C20.5555 329.426 20.5565 329.426 20.5565 329.426C20.5575 329.426 20.5585 329.426 20.5585 329.426H20.5595C20.5605 329.426 20.5615 329.426 20.5615 329.426H20.5635C20.5635 329.426 20.5645 329.426 20.5655 329.426C20.5655 329.426 20.5655 329.426 20.5665 329.426H20.5705C20.5715 329.426 20.5725 329.426 20.5725 329.426H20.5735C20.5745 329.426 20.5755 329.426 20.5755 329.426C20.5755 329.426 20.5765 329.426 20.5775 329.426C20.5775 329.426 20.5775 329.426 20.5785 329.426C20.5785 329.426 20.5795 329.426 20.5805 329.426C20.5815 329.426 20.5825 329.426 20.5825 329.426H20.5895C20.5905 329.426 20.5915 329.426 20.5915 329.426C20.5925 329.426 20.5925 329.426 20.5925 329.426H20.5945C20.5945 329.426 20.5955 329.426 20.5965 329.426C20.5975 329.426 20.5985 329.426 20.5985 329.426C20.5985 329.426 20.5985 329.426 20.5995 329.426C20.5995 329.426 20.6005 329.426 20.6015 329.426C20.6015 329.426 20.6025 329.426 20.6035 329.426C20.6135 329.426 20.6245 329.426 20.6335 329.426C23.1225 329.389 25.5935 328.746 27.7255 327.593C27.7265 327.593 27.7265 327.592 27.7275 327.592C27.7455 327.582 27.7635 327.574 27.7815 327.565L27.7805 327.562C29.9365 326.46 31.8305 324.967 33.4195 323.112C33.4235 323.108 33.4265 323.104 33.4305 323.098C35.1155 321.095 36.1905 319.432 36.1895 317.431C36.1895 317.418 36.1895 317.405 36.1885 317.393C36.1735 316.682 36.0165 315.986 35.7215 315.344C35.7215 315.343 35.7215 315.341 35.7205 315.34C35.7205 315.339 35.7205 315.339 35.7205 315.338C35.4425 314.73 35.0385 314.167 34.5525 313.72L34.5555 313.716C34.5485 313.709 34.5395 313.705 34.5335 313.698C34.5275 313.692 34.5225 313.684 34.5155 313.678L34.5125 313.682C34.0175 313.22 33.4465 312.86 32.8245 312.619L32.8205 312.618L32.1335 314.406L32.1035 314.485L32.8205 312.618C32.1985 312.379 31.5385 312.258 30.8085 312.264C30.7955 312.264 30.7845 312.264 30.7715 312.264C30.6275 312.268 30.4955 312.28 30.3725 312.294C30.3715 312.294 30.3715 312.294 30.3705 312.294C30.3685 312.295 30.3655 312.295 30.3635 312.295C29.4795 312.399 28.6315 312.719 27.8925 313.221L27.8845 313.227L28.9725 314.81L29.0165 314.875L27.8845 313.227C27.2755 313.645 26.7655 314.189 26.3675 314.806L26.3595 314.8C24.5145 317.426 22.9755 318.192 21.8435 318.192C21.4965 318.192 21.1525 318.108 20.8545 317.952C20.5415 317.788 20.2705 317.548 20.0755 317.266L20.0725 317.26L18.4995 318.358L18.4325 318.405C18.4325 318.405 18.4325 318.405 18.4325 318.404L20.0735 317.26C20.0305 317.2 19.9895 317.145 19.9535 317.096L19.9455 317.086L18.3965 318.275L18.3595 318.303L19.9455 317.085C19.2225 316.144 18.6815 314.415 18.6805 311.608C18.6855 308.503 19.3425 305.501 20.6445 302.655C20.6475 302.649 20.6505 302.643 20.6525 302.637C21.9515 299.724 23.4085 297.785 24.8815 296.676C26.4395 295.505 27.6465 295.104 28.5085 295.104C28.5445 295.104 28.6235 295.103 28.6885 295.102C28.7785 295.102 28.8685 295.118 28.9595 295.15C29.0115 295.171 29.0445 295.202 29.0855 295.228C29.1585 295.441 29.2915 295.976 29.2915 297.073C29.2915 297.733 29.2545 298.682 29.1725 299.999C29.1725 299.999 29.1725 299.999 29.1725 300C29.0955 301.24 29.5345 302.455 30.3835 303.36C31.2345 304.266 32.4225 304.779 33.6635 304.779H35.0405C37.4615 304.779 39.4475 302.865 39.5375 300.446C39.6365 297.776 40.1145 295.135 40.9565 292.598L39.0595 291.968L39.1855 292.009L40.9565 292.598L40.9575 292.596C41.7265 290.264 40.4815 287.74 38.1575 286.934Z" fill="white"/>
<path d="M320.226 91.863C320.227 71.713 312.968 54.109 299.648 42.467C299.646 42.466 299.645 42.464 299.643 42.463C299.635 42.456 299.627 42.448 299.62 42.442L299.619 42.443C285.265 29.423 263.553 23.003 235.445 23.003L234.596 23H234.593C231.118 23 227.463 23.062 223.712 23.182C223.326 23.076 222.93 23.002 222.523 23.002H171.06C169.74 23.002 168.485 23.584 167.63 24.589L169.154 25.883L168.844 25.621L167.63 24.589L167.629 24.59C166.775 25.597 166.406 26.929 166.62 28.232L168.593 27.908L168.098 27.99L166.62 28.232L167.74 35.035L167.741 35.041C167.779 35.278 167.837 35.51 167.911 35.733L168.144 36.435C169.384 40.202 171.359 43.727 173.899 46.774C173.599 48.358 173.527 49.984 173.722 51.591C174.035 54.175 174.993 56.659 176.492 58.775C176.798 59.21 177.009 59.693 177.12 60.217C177.23 60.738 177.233 61.265 177.132 61.789L176.727 63.818H176.729C175.803 67.738 176.271 71.875 178.06 75.495L178.064 75.502L178.846 77.069L176.656 172.946L92.3205 51.395C92.4875 49.852 92.4175 48.293 92.1285 46.772C94.6715 43.722 96.6465 40.19 97.8965 36.395C97.8995 36.387 97.9025 36.378 97.9045 36.371L98.1295 35.66L96.2225 35.059L96.2825 35.078L98.1295 35.66L98.1305 35.656C98.1905 35.465 98.2415 35.26 98.2775 35.04L99.3975 28.268C99.6135 26.963 99.2445 25.63 98.3895 24.622C97.5345 23.614 96.2805 23.033 94.9565 23.033H43.4995C42.1785 23.033 40.9225 23.614 40.0675 24.622C39.2125 25.63 38.8425 26.962 39.0585 28.268L40.1785 35.043C40.2175 35.28 40.2745 35.51 40.3495 35.731L40.5815 36.429C41.8235 40.198 43.7995 43.723 46.3385 46.771C46.0375 48.355 45.9655 49.982 46.1605 51.59C46.4735 54.173 47.4315 56.658 48.9345 58.782L48.9355 58.783C49.2465 59.221 49.4585 59.705 49.5715 60.233C49.6835 60.76 49.6875 61.291 49.5835 61.816L49.1775 63.846H49.1795C48.2535 67.767 48.7205 71.905 50.5115 75.527L50.5155 75.534L51.2975 77.098L48.0095 221.032C45.6565 223.459 43.5135 226.125 41.6465 228.956V228.957C41.6465 228.958 41.6455 228.958 41.6455 228.959C39.9265 231.557 39.0165 234.583 39.0185 237.693L38.9975 245.558V245.56L40.3305 245.561L40.9975 245.563L38.9975 245.56C38.9955 246.751 39.4655 247.899 40.3115 248.747C40.3115 248.748 40.3115 248.748 40.3115 248.748C41.1565 249.593 42.3025 250.068 43.4965 250.068H94.9455C97.4305 250.068 99.4455 248.054 99.4455 245.568V237.704C99.4455 234.587 98.5415 231.562 96.8245 228.959L96.8225 228.957L95.3725 229.916L95.1545 230.061L96.8225 228.957C94.9515 226.128 92.8075 223.462 90.4555 221.033L87.6895 99.865L173.393 223.382C171.879 225.141 170.469 226.994 169.194 228.93C167.474 231.529 166.564 234.554 166.566 237.669L166.559 245.57C166.559 246.761 167.033 247.907 167.875 248.752C168.72 249.6 169.866 250.072 171.059 250.072H222.522C225.008 250.072 227.022 248.058 227.022 245.572V237.685C227.009 234.565 226.084 231.54 224.358 228.963H224.359C224.356 228.959 224.353 228.954 224.35 228.95C222.485 226.122 220.347 223.461 218.018 221.061L216.78 166.925C222.001 167.492 227.417 167.585 232.194 167.585C261.752 167.585 286.684 158.615 302.131 142.03L302.132 142.031C314.197 129.492 320.226 112.544 320.226 91.863ZM215.519 75.52C217.306 71.908 217.775 67.77 216.847 63.849H216.849L216.443 61.819C216.339 61.293 216.343 60.764 216.457 60.238V60.236C216.569 59.709 216.783 59.222 217.093 58.784C217.846 57.72 218.46 56.56 218.927 55.341C222.842 54.927 228.492 54.547 236.084 54.547C251.605 54.547 263.328 58.096 271.138 64.575C278.889 71.004 283.059 80.545 283.059 93.172C283.059 106.852 278.481 117.389 270.098 124.541C261.669 131.733 249.137 135.72 232.845 135.72C226.107 135.72 220.584 135.37 216.047 134.674L214.732 77.1L215.516 75.525L213.726 74.633L215.519 75.52ZM41.0185 237.697C41.0185 237.698 41.0185 237.698 41.0185 237.697Z" fill="white"/>
<path d="M186.794 312.455L185.951 311.502L185.95 311.5C185.373 310.85 184.62 310.401 183.796 310.169C183.887 309.835 183.981 309.488 184.08 309.122L182.15 308.596L182.2 308.61L184.08 309.122L184.082 309.115L186.49 300.139C186.851 298.788 186.565 297.346 185.713 296.236L185.714 296.235C184.862 295.126 183.543 294.473 182.143 294.473H178.495C176.706 294.473 175.115 295.53 174.396 297.121C174.232 296.775 174.042 296.441 173.819 296.126L172.394 297.133L173.819 296.125L173.815 296.12L172.212 297.262L172.186 297.28L173.815 296.121C173.746 296.022 173.67 295.926 173.589 295.828L172.115 297.059L172.216 296.975L173.589 295.828L173.583 295.821C173.038 295.176 172.339 294.644 171.587 294.307L171.588 294.305C171.58 294.301 171.571 294.299 171.562 294.295C171.556 294.292 171.55 294.288 171.544 294.285L171.543 294.287C170.799 293.949 170.019 293.788 169.172 293.779V293.775C168.967 293.769 168.759 293.791 168.754 293.791L168.922 295.775L168.913 295.681L168.754 293.791H168.744C167.029 293.944 165.351 294.499 163.89 295.396V295.395C161.731 296.717 159.711 298.277 157.882 300.032C156.944 300.93 156.442 302.192 156.502 303.487L158.499 303.395L158.115 303.413L156.502 303.487V303.489C156.563 304.783 157.177 305.991 158.193 306.801L159.319 307.697C159.705 308.004 160.13 308.23 160.571 308.392C159.654 311.696 159.071 313.923 158.82 315.135C158.626 316.067 158.522 317.022 158.503 317.979H158.499C158.499 317.989 158.5 317.999 158.499 318.008C158.499 318.032 158.495 318.057 158.495 318.081H158.501C158.418 319.72 158.881 321.345 159.834 322.687C159.835 322.688 159.835 322.689 159.836 322.69V322.691C159.936 322.832 160.038 322.957 160.131 323.064C160.136 323.07 160.141 323.075 160.146 323.081L161.617 321.769L161.638 321.749L160.146 323.08C160.764 323.772 161.539 324.327 162.396 324.688L162.399 324.69L163.158 322.883L163.174 322.846L162.4 324.69C163.173 325.014 163.994 325.178 164.833 325.178C164.927 325.178 165.098 325.173 165.186 325.168L165.195 325.167L165.083 323.369L165.077 323.275L165.195 325.167C167.29 325.037 169.324 324.372 171.096 323.253L171.097 323.256C171.113 323.247 171.127 323.236 171.142 323.228C171.148 323.224 171.155 323.221 171.161 323.217C171.728 323.841 172.416 324.355 173.181 324.709C174.013 325.094 174.905 325.29 175.819 325.29H175.84C177.59 325.29 179.306 324.612 181.026 323.489C182.748 322.367 184.605 320.711 186.679 318.541C188.295 316.852 188.347 314.205 186.8 312.452L186.794 312.455ZM164.935 297.104C164.934 297.104 164.934 297.104 164.935 297.104Z" fill="white"/>
<path d="M286.93 300.311L286.929 300.313L288.366 301.703L286.93 300.311Z" fill="white"/>
<path d="M297.123 45.2977C284.178 33.5401 263.78 27.0012 235.936 27.0012C231.618 26.9889 227.3 27.071 222.987 27.2258L221.91 33.8091L221.673 34.5206C220.361 38.4984 218.145 42.1165 215.2 45.092C215.883 46.8247 216.124 48.7007 215.9 50.5495C215.893 50.6127 215.875 50.674 215.865 50.7363C221.043 50.0229 228.123 49.5463 236.582 49.5463C267.659 49.5463 288.057 63.5924 288.057 92.6717C288.057 123.059 267.339 139.72 233.343 139.72C224.99 139.72 217.923 139.208 212.13 137.935L212.662 161.204C218.572 162.338 225.386 162.588 232.697 162.588C260.227 162.588 284.498 154.42 299.39 138.413C310.395 126.976 316.228 111.295 316.228 91.3637C316.228 71.7611 309.103 55.754 297.123 45.2977Z" fill="#7A8387"/>
<path d="M181.341 186.37L88.0764 51.9528C87.7393 53.2881 87.1594 54.5536 86.3594 55.6842C85.6983 56.6184 85.2337 57.6773 84.9947 58.7974C84.7558 59.9176 84.7473 61.0746 84.9702 62.1976L85.3867 64.2813C86.1063 67.2181 85.7663 70.3154 84.4262 73.0257L83.1455 75.5897L83.3495 84.4964L179.641 223.271L180.519 222.364L181.341 186.37Z" fill="#7A8387"/>
<path d="M84.425 73.0248C85.7652 70.3144 86.1052 67.2172 85.3855 64.2804L84.969 62.1967C84.7461 61.0737 84.7546 59.9167 84.9936 58.7965C85.2325 57.6763 85.6972 56.6175 86.3583 55.6832C87.1582 54.5536 87.7381 53.2872 88.0753 51.9518C88.1915 51.4913 88.2812 51.0242 88.3388 50.5495C88.5626 48.7008 88.3218 46.8247 87.639 45.0921C90.5856 42.1184 92.8022 38.4993 94.1122 34.5207L94.336 33.8091L95.4561 27.0333H44L45.1201 33.8091L45.3572 34.5207C46.669 38.4984 48.8847 42.1166 51.8304 45.0921C51.1475 46.8247 50.9067 48.7008 51.1305 50.5495C51.3544 52.3992 52.0353 54.1629 53.111 55.6823C53.7731 56.6166 54.2368 57.6754 54.4758 58.7956C54.7147 59.9158 54.7232 61.0727 54.5003 62.1958L54.0838 64.2795C53.3642 67.2163 53.7042 70.3135 55.0443 73.0238L56.325 75.5879L52.9703 222.396L51.7671 223.64C49.5883 225.884 47.6248 228.329 45.9021 230.941C44.6724 232.799 44.0179 234.977 44.0198 237.205L44 245.071H95.4495V237.205C95.4504 234.979 94.7988 232.801 93.5738 230.941C91.8474 228.33 89.882 225.886 87.7032 223.64L86.5 222.396L83.3484 84.4955L83.1443 75.5888L84.425 73.0248Z" fill="#1D4E8A"/>
<path d="M210.705 75.5888L211.986 73.0248C213.326 70.3145 213.666 67.2172 212.947 64.2804L212.53 62.1967C212.307 61.0737 212.316 59.9167 212.555 58.7965C212.794 57.6764 213.258 56.6175 213.919 55.6833C214.958 54.2158 215.619 52.5181 215.865 50.7373C215.873 50.6741 215.892 50.6137 215.9 50.5505C216.124 48.7008 215.883 46.8256 215.2 45.093C218.145 42.1175 220.36 38.4993 221.672 34.5216L221.909 33.8101L222.987 27.2268L223.024 27.0022H171.561L172.682 33.8101L172.919 34.5216C174.228 38.5003 176.445 42.1194 179.391 45.093C178.709 46.8256 178.468 48.7017 178.692 50.5505C178.915 52.3992 179.595 54.1639 180.672 55.6833C181.328 56.6147 181.787 57.6688 182.024 58.7824C182.26 59.896 182.268 61.0463 182.048 62.1646L181.633 64.2483C180.913 67.1851 181.253 70.2824 182.593 72.9927L183.873 75.5567L181.341 186.37L180.518 222.364L179.641 223.271L179.315 223.608C177.135 225.852 175.172 228.297 173.45 230.909C172.22 232.767 171.566 234.946 171.568 237.173L171.561 245.072H223.024V237.205C223.014 234.973 222.346 232.794 221.103 230.941C219.381 228.329 217.418 225.884 215.238 223.64L214.06 222.396L212.661 161.205L212.13 137.937L210.705 75.5888Z" fill="#1D4E8A"/>
<path d="M28.8975 288.582C26.0935 288.578 23.2233 289.586 20.2861 291.607C17.1732 293.83 14.6525 296.781 12.943 300.204C11.0579 303.637 10.0483 307.481 10.0039 311.398C9.9501 313.794 10.4497 316.17 11.464 318.341C12.3216 320.165 13.6797 321.705 15.3806 322.783C17.0816 323.86 19.0545 324.43 21.0671 324.425C22.8588 324.399 24.6164 323.938 26.1889 323.078C27.8284 322.246 29.2885 321.098 30.4851 319.7C31.6204 318.349 32.188 317.443 32.188 316.982C32.1861 316.887 32.1653 316.794 32.1256 316.707C32.086 316.621 32.0284 316.545 31.9575 316.481C31.8829 316.41 31.7941 316.354 31.6978 316.316C31.6015 316.279 31.4976 316.261 31.3946 316.263C31.2284 316.283 31.0697 316.342 30.9319 316.435C30.794 316.53 30.6797 316.655 30.6004 316.802C28.0995 320.397 25.3549 322.194 22.3667 322.194C21.2881 322.197 20.2238 321.939 19.267 321.44C18.3103 320.94 17.4886 320.216 16.8738 319.328C15.4099 317.422 14.678 314.68 14.678 311.103C14.6846 307.377 15.4902 303.695 17.04 300.307C18.6021 296.807 20.4806 294.232 22.6746 292.582C24.8685 290.933 26.9794 290.108 29.0061 290.108C29.6994 290.084 30.3907 290.197 31.0395 290.442C31.6884 290.686 32.2834 291.056 32.7896 291.531C33.7879 292.479 34.2875 294.161 34.2875 296.576C34.2875 297.377 34.2421 298.448 34.159 299.782H35.536C35.6512 296.686 36.2056 293.624 37.1812 290.684C34.0825 289.608 32.3287 289.018 31.899 288.915C30.9149 288.692 29.9071 288.581 28.8975 288.582Z" fill="#303435"/>
<path d="M67.5301 298.317C66.8048 297.97 66.0095 297.795 65.2058 297.807C61.3648 297.807 58.1527 299.706 55.5706 303.506C53.558 306.434 52.4861 309.908 52.4974 313.462C52.3982 315.253 52.9998 317.012 54.1747 318.366C54.7404 318.964 55.428 319.433 56.1892 319.743C56.9514 320.053 57.7702 320.195 58.5919 320.161C61.5669 320.161 64.3879 318.652 67.056 315.635C69.6343 312.845 71.0614 309.179 71.051 305.378C71.051 303.012 70.5004 301.141 69.3859 299.807C68.8901 299.174 68.2554 298.664 67.5301 298.317ZM64.437 315.468C63.2593 317.246 61.9532 318.135 60.5185 318.135C60.0199 318.139 59.5288 318.01 59.0962 317.763C58.6637 317.515 58.3038 317.157 58.0535 316.725C57.1318 315.129 56.6869 313.303 56.7729 311.462C56.7729 307.801 57.4453 304.935 58.8091 302.852C60.1729 300.769 61.5744 299.73 63.0279 299.73C63.5729 299.742 64.1046 299.903 64.5664 300.192C65.0283 300.482 65.4041 300.892 65.6525 301.378C66.3505 302.468 66.6961 304.301 66.6961 306.865C66.8029 309.893 66.0171 312.885 64.437 315.468Z" fill="#303435"/>
<path d="M108.619 315.904C107.563 316.859 106.782 317.34 106.282 317.34C106.192 317.34 106.105 317.317 106.027 317.27C105.951 317.223 105.888 317.157 105.847 317.077C105.729 316.831 105.676 316.561 105.693 316.289C105.689 315.138 106.235 312.821 107.332 309.333C108.489 305.598 109.204 303.176 109.477 302.069C109.621 301.479 109.698 300.875 109.708 300.268C109.75 299.604 109.55 298.948 109.144 298.422C108.947 298.206 108.706 298.036 108.435 297.924C108.165 297.814 107.874 297.765 107.582 297.781C106.337 297.895 105.144 298.338 104.124 299.062C101.708 300.569 99.5048 302.393 97.5743 304.486L98.7266 299.319C98.7974 299.05 98.8418 298.776 98.8607 298.498C98.856 298.391 98.8248 298.285 98.77 298.19C98.7152 298.097 98.6387 298.018 98.5471 297.96C98.2978 297.793 98.0012 297.712 97.7018 297.729C96.5241 297.805 95.3813 298.158 94.3661 298.761C92.4536 299.929 90.696 301.333 89.1357 302.941L90.0065 303.839C90.883 302.864 91.8737 301.998 92.9579 301.261C93.296 300.975 93.7059 300.787 94.1422 300.717C94.4813 300.717 94.6541 300.954 94.6541 301.415C94.6362 301.701 94.5937 301.984 94.5266 302.262L92.2411 312.025C91.7122 314.381 91.0888 316.84 90.372 319.404H94.2131L96.2871 310.429C96.5666 308.857 97.1493 307.355 98.0031 306.005C99.1195 304.532 100.482 303.264 102.03 302.255C102.792 301.656 103.706 301.281 104.668 301.172C105.302 301.172 105.615 301.442 105.615 301.973C105.417 303.25 105.126 304.51 104.745 305.743C102.849 311.799 101.902 315.59 101.902 317.116C101.837 317.918 102.025 318.721 102.44 319.411C102.615 319.643 102.844 319.829 103.108 319.951C103.371 320.074 103.66 320.131 103.951 320.116C104.914 320.021 105.834 319.669 106.615 319.096C108.434 317.937 110.083 316.528 111.512 314.91L110.872 313.981C110.123 314.584 109.368 315.218 108.619 315.904Z" fill="#303435"/>
<path d="M143.917 298.692C142.86 298.041 141.628 297.732 140.389 297.807C138.485 297.733 136.627 298.41 135.216 299.692C134.584 300.237 134.076 300.911 133.727 301.67C133.377 302.43 133.196 303.255 133.193 304.09C133.197 305.919 134.085 307.823 135.857 309.802C136.763 310.75 137.593 311.771 138.334 312.853C138.682 313.407 138.872 314.046 138.885 314.7C138.872 315.383 138.668 316.049 138.296 316.623C137.913 317.258 137.342 317.76 136.663 318.058C135.898 318.391 135.07 318.553 134.237 318.533C133.557 318.572 132.885 318.362 132.348 317.943C132.125 317.776 131.944 317.56 131.819 317.311C131.695 317.061 131.63 316.786 131.631 316.507C131.631 316.353 131.599 316.194 131.631 315.944C131.663 315.693 131.663 315.469 131.663 315.302C131.662 315.09 131.617 314.881 131.528 314.688C131.44 314.496 131.311 314.325 131.15 314.186C130.82 313.872 130.378 313.699 129.922 313.706C129.662 313.701 129.403 313.751 129.164 313.853C128.925 313.954 128.71 314.105 128.532 314.296C128.155 314.7 127.953 315.237 127.969 315.79C127.965 316.38 128.097 316.964 128.354 317.495C128.612 318.026 128.989 318.492 129.454 318.854C130.447 319.687 131.957 320.098 133.993 320.098C136.161 320.188 138.284 319.461 139.941 318.058C140.653 317.487 141.23 316.766 141.628 315.944C142.027 315.122 142.237 314.222 142.246 313.309C142.246 311.484 141.299 309.56 139.403 307.539C138.428 306.574 137.569 305.498 136.843 304.333C136.507 303.707 136.332 303.006 136.331 302.295C136.32 301.922 136.387 301.551 136.526 301.205C136.665 300.858 136.873 300.544 137.137 300.282C137.375 300.028 137.663 299.825 137.983 299.686C138.302 299.548 138.646 299.475 138.994 299.474C139.796 299.474 140.624 300.03 141.478 301.141C141.762 301.556 142.107 301.926 142.502 302.237C142.761 302.384 143.055 302.46 143.354 302.455C143.591 302.46 143.826 302.417 144.046 302.329C144.266 302.241 144.466 302.109 144.634 301.942C144.8 301.787 144.931 301.599 145.022 301.391C145.112 301.182 145.158 300.958 145.159 300.73C145.137 300.314 145.012 299.91 144.796 299.554C144.579 299.198 144.276 298.902 143.917 298.692Z" fill="#303435"/>
<path d="M179.878 316.963C179.58 317.184 179.225 317.318 178.854 317.348C178.754 317.348 178.656 317.324 178.567 317.28C178.479 317.235 178.401 317.17 178.342 317.091C178.175 316.881 178.093 316.615 178.111 316.347C178.107 315.625 178.816 312.658 180.237 307.449L182.645 298.474H178.995L176.178 308.994C175.582 311.096 174.38 312.974 172.72 314.392C170.958 315.977 169.601 316.77 168.649 316.77C168.503 316.765 168.359 316.728 168.229 316.662C168.098 316.596 167.984 316.501 167.893 316.386C167.664 316.131 167.54 315.799 167.548 315.457C167.548 314.879 168.092 312.501 169.186 308.34C170.416 303.711 171.031 300.807 171.031 299.628C171.07 299.13 170.934 298.632 170.646 298.224C170.524 298.08 170.37 297.965 170.197 297.888C170.024 297.809 169.837 297.772 169.647 297.775C168.618 297.867 167.622 298.195 166.741 298.737C164.853 299.893 163.096 301.249 161.498 302.782L162.624 303.679C163.458 302.832 164.369 302.063 165.345 301.384C165.723 301.116 166.164 300.95 166.626 300.904C166.965 300.904 167.138 301.147 167.138 301.628C167.133 302.449 166.562 304.923 165.422 309.052C164.517 312.308 163.951 314.477 163.726 315.558C163.577 316.269 163.501 316.993 163.495 317.72C163.439 318.384 163.621 319.047 164.007 319.591C164.183 319.788 164.401 319.944 164.644 320.046C164.888 320.149 165.152 320.194 165.415 320.181C166.796 320.096 168.13 319.654 169.289 318.898C171.403 317.682 173.306 316.129 174.923 314.302C174.6 315.467 174.413 316.665 174.366 317.873C174.327 318.519 174.533 319.155 174.943 319.655C175.114 319.858 175.328 320.02 175.569 320.131C175.81 320.242 176.072 320.299 176.338 320.296C177.981 320.296 180.51 318.509 183.924 314.937L183.08 313.982C182.086 315.052 181.016 316.048 179.878 316.963Z" fill="#303435"/>
<path d="M221.301 283.78C220.806 283.404 220.194 283.218 219.573 283.255C217.363 283.268 215.2 283.894 213.325 285.062C211.449 286.231 209.933 287.898 208.945 289.877C208.249 291.266 207.395 293.995 206.384 298.063L203.695 309.334C202.633 313.642 202.107 316.488 202.107 317.854C202.07 318.449 202.252 319.037 202.619 319.507C202.774 319.698 202.969 319.852 203.191 319.955C203.413 320.06 203.655 320.113 203.9 320.11C205.059 320.11 206.557 319.495 208.381 318.251C210.122 317.08 211.71 315.695 213.106 314.129L212.236 313.206C210.93 314.5 209.487 315.648 207.934 316.629C207.448 316.975 206.885 317.195 206.294 317.271C205.897 317.271 205.706 316.994 205.706 316.449C205.706 316.213 206.346 313.392 207.626 308.006L210.187 297.249C211.097 293.383 211.743 290.768 212.146 289.486C212.357 288.527 212.818 287.642 213.484 286.921C213.949 286.599 214.509 286.446 215.072 286.486C215.834 286.493 216.594 286.56 217.345 286.691C218.06 286.838 218.786 286.924 219.515 286.947C220.155 286.992 220.789 286.806 221.301 286.422C221.504 286.259 221.668 286.052 221.778 285.816C221.89 285.58 221.945 285.322 221.942 285.062C221.939 284.814 221.879 284.569 221.769 284.348C221.658 284.126 221.498 283.931 221.301 283.78Z" fill="#303435"/>
<path d="M241.18 292.294L237.115 293.851L235.649 299.474H231.494L231.033 301.301H235.194L232.602 311.514C232.063 313.353 231.736 315.248 231.628 317.161C231.558 317.954 231.752 318.747 232.179 319.418C232.355 319.644 232.584 319.825 232.845 319.946C233.105 320.066 233.391 320.122 233.677 320.11C234.752 320.022 235.795 319.698 236.731 319.162C237.995 318.533 240.497 316.804 244.241 313.975L243.268 312.795C241.976 313.852 240.604 314.806 239.164 315.648C238.437 316.148 237.605 316.473 236.731 316.598C236.583 316.606 236.434 316.583 236.295 316.531C236.156 316.477 236.029 316.395 235.924 316.29C235.7 316.007 235.591 315.649 235.623 315.29C235.776 313.458 236.135 311.649 236.692 309.898L238.927 301.301H244.241L244.651 299.474H239.343L241.18 292.294Z" fill="#303435"/>
<path d="M268.314 317.161C268.236 317.153 268.16 317.127 268.094 317.086C268.027 317.043 267.971 316.985 267.931 316.918C267.806 316.742 267.743 316.531 267.751 316.315C267.751 315.067 268.654 311.404 270.459 305.327C271.569 301.617 272.124 299.512 272.124 299.013C272.131 298.828 272.097 298.643 272.021 298.474C271.945 298.305 271.831 298.156 271.689 298.038C271.318 297.77 270.864 297.642 270.408 297.679C269.13 297.771 267.896 298.18 266.816 298.871C265.06 299.961 263.483 301.317 262.143 302.891L263.27 303.762C264.18 302.81 265.16 301.928 266.201 301.122C266.546 300.881 266.948 300.74 267.367 300.711C267.675 300.711 267.828 300.884 267.828 301.23C267.82 301.588 267.76 301.942 267.648 302.282C265.088 310.598 263.807 315.826 263.807 317.962C263.775 318.532 263.963 319.093 264.332 319.527C264.516 319.718 264.738 319.867 264.985 319.964C265.231 320.061 265.496 320.104 265.76 320.091C266.702 320.004 267.608 319.687 268.398 319.168C270.241 317.931 271.957 316.514 273.52 314.937L272.521 313.956C270.259 316.093 268.856 317.161 268.314 317.161Z" fill="#303435"/>
<path d="M274.628 287.294C274.461 287.123 274.261 286.989 274.041 286.898C273.821 286.809 273.585 286.763 273.347 286.768C273.008 286.763 272.673 286.833 272.364 286.973C272.056 287.112 271.781 287.318 271.56 287.576C271.065 288.109 270.797 288.815 270.811 289.543C270.79 290.063 270.974 290.57 271.324 290.954C271.488 291.128 271.687 291.266 271.907 291.358C272.128 291.452 272.365 291.497 272.604 291.492C272.941 291.484 273.272 291.403 273.575 291.254C273.877 291.105 274.144 290.894 274.359 290.633C274.863 290.096 275.142 289.384 275.14 288.646C275.148 288.398 275.108 288.151 275.02 287.917C274.932 287.685 274.799 287.473 274.628 287.294Z" fill="#303435"/>
<path d="M310.143 315.904C309.094 316.859 308.306 317.34 307.813 317.34C307.723 317.341 307.635 317.318 307.557 317.271C307.481 317.225 307.418 317.157 307.378 317.077C307.26 316.832 307.207 316.561 307.224 316.289C307.224 315.139 307.768 312.821 308.857 309.333C310.018 305.598 310.732 303.176 311.002 302.07C311.145 301.479 311.223 300.875 311.232 300.269C311.277 299.604 311.076 298.947 310.668 298.422C310.472 298.206 310.23 298.036 309.96 297.924C309.689 297.814 309.398 297.765 309.106 297.781C307.862 297.894 306.671 298.337 305.655 299.063C303.236 300.567 301.031 302.391 299.1 304.487L300.259 299.319C300.325 299.05 300.367 298.776 300.386 298.499C300.385 298.391 300.356 298.284 300.302 298.19C300.248 298.096 300.172 298.017 300.079 297.96C299.828 297.793 299.529 297.712 299.227 297.73C298.051 297.805 296.911 298.159 295.898 298.761C293.983 299.927 292.222 301.331 290.661 302.941L291.532 303.839C292.419 302.858 293.423 301.99 294.522 301.256C294.857 300.97 295.264 300.781 295.7 300.71C296.039 300.71 296.212 300.948 296.212 301.41C296.194 301.694 296.151 301.978 296.084 302.256L293.799 312.02C293.269 314.374 292.645 316.833 291.929 319.398H295.77L297.845 310.423C298.127 308.852 298.71 307.349 299.561 306C300.678 304.527 302.041 303.259 303.588 302.249C304.35 301.651 305.263 301.275 306.226 301.166C306.859 301.166 307.179 301.435 307.179 301.967C306.977 303.243 306.685 304.503 306.302 305.736C304.407 311.793 303.459 315.584 303.459 317.109C303.394 317.912 303.582 318.714 303.997 319.404C304.172 319.636 304.402 319.822 304.665 319.945C304.929 320.068 305.218 320.124 305.508 320.11C306.473 320.016 307.395 319.664 308.178 319.091C309.983 317.928 311.617 316.521 313.037 314.91L312.397 313.981C311.648 314.584 310.892 315.218 310.143 315.904Z" fill="#303435"/>
<path d="M347.938 297.627L347.689 298.396C346.984 298.346 346.395 298.346 345.915 298.346C343.789 298.269 341.682 298.765 339.813 299.782C337.012 301.511 334.688 303.915 333.053 306.776C331.271 309.585 330.301 312.833 330.248 316.161C330.206 317.005 330.465 317.837 330.978 318.508C331.174 318.774 331.428 318.992 331.721 319.146C332.014 319.299 332.338 319.384 332.668 319.392C333.716 319.288 334.728 318.956 335.633 318.417C334.512 319.123 333.334 319.828 332.054 320.469C329.556 321.758 327.911 322.848 327.124 323.758C326.125 324.804 325.557 326.189 325.529 327.636C325.55 328.37 325.741 329.09 326.087 329.737C326.432 330.384 326.923 330.942 327.521 331.368C328.84 332.458 330.658 332.996 332.963 332.996C335.423 333.06 337.848 332.39 339.928 331.072C341.811 329.89 343.228 328.095 343.943 325.988C344.518 324.057 344.795 322.049 344.763 320.033C344.762 318.814 344.848 317.598 345.019 316.392C345.414 313.971 345.933 311.572 346.574 309.206C347.616 305.179 348.758 301.166 350 297.166L347.938 297.627ZM341.331 318.853C341.357 320.68 341.194 322.503 340.844 324.296C340.551 325.631 339.976 326.888 339.16 327.983C338.404 329.016 337.426 329.865 336.299 330.47C335.254 331.029 334.089 331.323 332.905 331.329C331.748 331.354 330.623 330.937 329.761 330.163C329.37 329.844 329.053 329.443 328.832 328.99C328.611 328.536 328.491 328.038 328.481 327.533C328.492 326.507 328.843 325.512 329.48 324.707C330.146 323.835 331.943 322.405 334.871 320.418C337.203 318.874 339.448 317.205 341.6 315.417C341.471 317.212 341.363 318.36 341.331 318.853ZM343.232 308.25C342.819 310.042 342.16 311.768 341.273 313.379C340.634 314.372 339.792 315.217 338.802 315.86C338.058 316.425 337.171 316.767 336.241 316.847C335.941 316.836 335.648 316.755 335.385 316.613C335.12 316.47 334.893 316.27 334.717 316.027C334.258 315.451 334.017 314.731 334.039 313.994C334.043 312.045 334.615 309.642 335.754 306.782C336.334 305.102 337.361 303.612 338.725 302.474C339.94 301.601 341.405 301.151 342.9 301.192C343.63 301.204 344.36 301.284 345.076 301.429L343.232 308.25Z" fill="#303435"/>
</svg>
