<svg width="1280" height="640" viewBox="0 0 1280 640" fill="none" xmlns="http://www.w3.org/2000/svg">
<path d="M1242.17 251.369C1242.17 256.891 1237.7 261.369 1232.17 261.369H47.8259C42.3029 261.369 37.8259 256.891 37.8259 251.369V38.761C37.8259 33.238 42.3029 28.761 47.8259 28.761H1232.17C1237.7 28.761 1242.17 33.238 1242.17 38.761V251.369Z" fill="#1D4E8A"/>
<path d="M166.58 474.875L85.348 334.18C81.265 327.108 87.123 318.438 95.209 319.589L173.679 330.765C174.594 330.896 175.523 330.896 176.44 330.765L254.905 319.589C262.993 318.438 268.851 327.108 264.769 334.18L183.537 474.875C179.77 481.403 170.349 481.403 166.58 474.875Z" fill="#1D4E8A"/>
<path d="M173.677 330.765L95.2091 319.589C87.1231 318.438 81.2651 327.108 85.3501 334.18L166.578 474.875C168.462 478.139 171.762 479.771 175.059 479.771V330.861C174.599 330.861 174.138 330.83 173.677 330.765Z" fill="#0F315C"/>
<path d="M174.869 344.317C167.832 344.317 162.129 338.614 162.129 331.577C162.129 324.54 167.833 318.837 174.869 318.837C181.906 318.837 187.609 324.54 187.609 331.577C187.609 338.614 181.906 344.317 174.869 344.317Z" fill="#303435"/>
<path d="M58.9829 562.938V562.838C58.9829 552.387 67.1329 544.587 77.5839 544.587C85.2839 544.587 90.4849 548.337 93.4349 553.688L83.7839 559.338C82.4839 556.838 80.6339 555.087 77.4339 555.087C73.4839 555.087 70.8829 558.537 70.8829 562.737V562.838C70.8829 567.388 73.5829 570.588 77.4339 570.588C80.7339 570.588 82.5839 568.788 84.0339 566.189L93.6849 571.639C90.7349 576.839 85.8339 581.089 77.1339 581.089C67.4339 581.089 58.9829 573.788 58.9829 562.938Z" fill="#0F315C"/>
<path d="M107.534 545.087H119.135L133.885 580.339H121.184L119.334 575.639H107.084L105.284 580.339H92.7839L107.534 545.087ZM116.435 567.338L113.235 558.838L110.035 567.338H116.435Z" fill="#0F315C"/>
<path d="M135.333 545.337H147.034V570.338H163.485V580.339H135.333V545.337V545.337Z" fill="#0F315C"/>
<path d="M166.132 545.337H177.833V580.339H166.132V545.337Z" fill="#0F315C"/>
<path d="M181.932 545.337H195.333C209.234 545.337 216.185 552.188 216.185 562.538V562.638C216.185 572.989 209.084 580.339 194.934 580.339H181.933V545.337H181.932ZM195.583 570.139C200.934 570.139 204.384 567.939 204.384 562.888V562.788C204.384 557.737 200.934 555.537 195.583 555.537H193.633V570.139H195.583Z" fill="#0F315C"/>
<path d="M229.083 545.087H240.684L255.434 580.339H242.733L240.883 575.639H228.633L226.833 580.339H214.333L229.083 545.087ZM237.984 567.338L234.784 558.838L231.584 567.338H237.984Z" fill="#0F315C"/>
<path d="M256.882 545.337H270.283C284.183 545.337 291.135 552.188 291.135 562.538V562.638C291.135 572.989 284.034 580.339 269.883 580.339H256.882V545.337ZM270.533 570.139C275.884 570.139 279.334 567.939 279.334 562.888V562.788C279.334 557.737 275.884 555.537 270.533 555.537H268.583V570.139H270.533Z" fill="#0F315C"/>
<path d="M621.565 475.036L540.334 334.341C536.251 327.269 542.109 318.599 550.195 319.751L628.666 330.927C629.581 331.057 630.51 331.057 631.426 330.927L709.893 319.751C717.981 318.599 723.838 327.269 719.756 334.341L638.524 475.036C634.756 481.565 625.335 481.565 621.565 475.036Z" fill="#1D4E8A"/>
<path d="M628.663 330.927L550.195 319.751C542.109 318.599 536.251 327.269 540.336 334.341L621.564 475.036C623.449 478.3 626.749 479.932 630.045 479.932V331.022C629.585 331.022 629.124 330.991 628.663 330.927Z" fill="#0F315C"/>
<path d="M629.854 344.479C622.818 344.479 617.114 338.776 617.114 331.739C617.114 324.702 622.818 318.999 629.854 318.999C636.89 318.999 642.593 324.702 642.593 331.739C642.593 338.776 636.891 344.479 629.854 344.479Z" fill="#303435"/>
<path d="M481.87 545.289L488.12 537.838C491.921 540.738 496.271 541.939 500.371 541.939C502.472 541.939 503.371 541.389 503.371 540.439V540.339C503.371 539.338 502.271 538.788 498.521 538.038C490.67 536.438 483.77 534.188 483.77 526.788V526.687C483.77 520.037 488.97 514.886 498.621 514.886C505.372 514.886 510.372 516.487 514.422 519.687L508.722 527.587C505.422 525.187 501.472 524.137 498.222 524.137C496.471 524.137 495.671 524.737 495.671 525.587V525.687C495.671 526.637 496.621 527.237 500.321 527.937C509.271 529.587 515.272 532.187 515.272 539.238V539.338C515.272 546.689 509.221 551.19 499.821 551.19C492.721 551.189 486.32 549.189 481.87 545.289Z" fill="#0F315C"/>
<path d="M517.97 515.537H547.822V525.138H529.471V528.688H546.572V537.139H529.471V540.939H548.072V550.54H517.97V515.537Z" fill="#0F315C"/>
<path d="M549.92 533.138V533.038C549.92 522.587 558.17 514.787 569.221 514.787C575.221 514.787 580.072 516.787 583.872 520.087L577.321 527.987C575.021 526.037 572.47 524.937 569.57 524.937C565.02 524.937 561.72 528.437 561.72 533.188V533.288C561.72 538.238 565.17 541.639 570.07 541.639C572.071 541.639 573.171 541.339 574.071 540.839V537.338H568.07V529.838H585.021V546.039C581.221 549.139 575.92 551.289 569.57 551.289C558.67 551.289 549.92 543.988 549.92 533.138Z" fill="#0F315C"/>
<path d="M588.119 534.838V515.537H600.02V534.688C600.02 539.038 602.27 540.888 605.419 540.888C608.569 540.888 610.819 539.188 610.819 534.938V515.537H622.72V534.588C622.72 546.539 615.769 551.239 605.319 551.239C594.869 551.239 588.119 546.438 588.119 534.838Z" fill="#0F315C"/>
<path d="M626.419 515.537H643.521C649.721 515.537 653.671 517.087 656.122 519.537C658.223 521.638 659.322 524.237 659.322 527.838V527.938C659.322 533.039 656.672 536.588 652.422 538.639L660.572 550.539H647.221L640.62 540.538H638.12V550.539H626.419V515.537ZM643.17 532.188C645.971 532.188 647.671 530.938 647.671 528.789V528.688C647.671 526.438 645.921 525.338 643.221 525.338H638.12V532.188H643.17Z" fill="#0F315C"/>
<path d="M662.269 515.537H673.97V550.539H662.269V515.537Z" fill="#0F315C"/>
<path d="M678.068 515.537H691.469C705.369 515.537 712.321 522.388 712.321 532.738V532.838C712.321 543.189 705.22 550.539 691.069 550.539H678.068V515.537ZM691.72 540.339C697.071 540.339 700.521 538.139 700.521 533.088V532.988C700.521 527.937 697.071 525.737 691.72 525.737H689.77V540.339H691.72Z" fill="#0F315C"/>
<path d="M725.22 515.287H736.821L751.572 550.539H738.87L737.02 545.839H724.77L722.97 550.539H710.469L725.22 515.287ZM734.12 537.538L730.92 529.038L727.72 537.538H734.12Z" fill="#0F315C"/>
<path d="M753.019 515.537H766.419C780.32 515.537 787.271 522.388 787.271 532.738V532.838C787.271 543.189 780.17 550.539 766.02 550.539H753.019V515.537ZM766.669 540.339C772.02 540.339 775.47 538.139 775.47 533.088V532.988C775.47 527.937 772.02 525.737 766.669 525.737H764.719V540.339H766.669Z" fill="#0F315C"/>
<path d="M472.245 575.537H483.946V610.539H472.245V575.537Z" fill="#0F315C"/>
<path d="M488.045 575.537H498.995L511.446 590.988V575.537H523.047V610.539H512.647L499.646 594.388V610.539H488.045V575.537V575.537Z" fill="#0F315C"/>
<path d="M527.045 575.537H540.445C554.346 575.537 561.297 582.388 561.297 592.738V592.838C561.297 603.189 554.196 610.539 540.046 610.539H527.045V575.537ZM540.695 600.339C546.046 600.339 549.496 598.139 549.496 593.088V592.988C549.496 587.937 546.046 585.737 540.695 585.737H538.745V600.339H540.695Z" fill="#0F315C"/>
<path d="M564.194 594.838V575.537H576.095V594.688C576.095 599.038 578.345 600.888 581.494 600.888C584.644 600.888 586.894 599.188 586.894 594.938V575.537H598.795V594.588C598.795 606.539 591.844 611.239 581.394 611.239C570.944 611.239 564.194 606.438 564.194 594.838Z" fill="#0F315C"/>
<path d="M599.595 605.289L605.845 597.838C609.645 600.738 613.995 601.939 618.096 601.939C620.196 601.939 621.096 601.389 621.096 600.439V600.339C621.096 599.338 619.995 598.788 616.245 598.038C608.394 596.438 601.494 594.188 601.494 586.788V586.687C601.494 580.037 606.694 574.886 616.346 574.886C623.096 574.886 628.096 576.487 632.147 579.687L626.447 587.587C623.146 585.187 619.196 584.137 615.946 584.137C614.196 584.137 613.396 584.737 613.396 585.587V585.687C613.396 586.637 614.346 587.237 618.046 587.937C626.996 589.587 632.996 592.187 632.996 599.238V599.338C632.996 606.689 626.946 611.19 617.546 611.19C610.445 611.189 604.045 609.189 599.595 605.289Z" fill="#0F315C"/>
<path d="M643.395 585.438H633.094V575.538H665.397V585.438H655.096V610.54H643.395V585.438V585.438Z" fill="#0F315C"/>
<path d="M668.044 575.537H685.145C691.346 575.537 695.296 577.087 697.747 579.537C699.847 581.638 700.947 584.237 700.947 587.838V587.938C700.947 593.039 698.297 596.588 694.047 598.639L702.197 610.539H688.845L682.245 600.538H679.744V610.539H668.044V575.537ZM684.795 592.188C687.595 592.188 689.295 590.938 689.295 588.789V588.688C689.295 586.438 687.545 585.338 684.845 585.338H679.744V592.188H684.795Z" fill="#0F315C"/>
<path d="M703.894 575.537H715.595V610.539H703.894V575.537Z" fill="#0F315C"/>
<path d="M731.894 575.287H743.496L758.246 610.539H745.546L743.695 605.839H731.445L729.644 610.539H717.144L731.894 575.287ZM740.795 597.538L737.595 589.038L734.395 597.538H740.795Z" fill="#0F315C"/>
<path d="M759.692 575.537H771.393V600.538H787.844V610.539H759.692V575.537Z" fill="#0F315C"/>
<path d="M1075.94 475.198L994.706 334.503C990.624 327.431 996.481 318.761 1004.57 319.912L1083.04 331.089C1083.95 331.218 1084.88 331.218 1085.8 331.089L1164.26 319.912C1172.35 318.761 1178.21 327.431 1174.13 334.503L1092.9 475.198C1089.13 481.727 1079.71 481.727 1075.94 475.198Z" fill="#1D4E8A"/>
<path d="M1083.03 331.089L1004.57 319.912C996.48 318.761 990.623 327.431 994.707 334.503L1075.94 475.198C1077.82 478.462 1081.12 480.094 1084.42 480.094V331.185C1083.96 331.185 1083.5 331.153 1083.03 331.089Z" fill="#0F315C"/>
<path d="M1084.23 344.641C1077.19 344.641 1071.49 338.938 1071.49 331.901C1071.49 324.865 1077.19 319.162 1084.23 319.162C1091.26 319.162 1096.97 324.865 1096.97 331.901C1096.97 338.938 1091.26 344.641 1084.23 344.641Z" fill="#303435"/>
<path d="M1001.97 515.537H1014.17L1021.67 527.838L1029.17 515.537H1041.37V550.539H1029.72V533.188L1021.67 545.638H1021.47L1013.42 533.188V550.539H1001.97V515.537Z" fill="#0F315C"/>
<path d="M1045.37 515.537H1075.22V525.138H1056.87V528.688H1073.97V537.139H1056.87V540.939H1075.47V550.54H1045.37V515.537V515.537Z" fill="#0F315C"/>
<path d="M1078.61 515.537H1092.02C1105.92 515.537 1112.87 522.388 1112.87 532.738V532.838C1112.87 543.189 1105.77 550.539 1091.62 550.539H1078.61V515.537V515.537ZM1092.27 540.339C1097.62 540.339 1101.07 538.139 1101.07 533.088V532.988C1101.07 527.937 1097.62 525.737 1092.27 525.737H1090.32V540.339H1092.27Z" fill="#0F315C"/>
<path d="M1116.17 515.537H1127.87V550.539H1116.17V515.537Z" fill="#0F315C"/>
<path d="M1131.17 533.138V533.038C1131.17 522.888 1139.52 514.787 1150.31 514.787C1161.12 514.787 1169.37 522.787 1169.37 532.937V533.038C1169.37 543.188 1161.02 551.289 1150.22 551.289C1139.42 551.289 1131.17 543.289 1131.17 533.138ZM1157.57 533.138V533.038C1157.57 528.888 1154.71 525.138 1150.21 525.138C1145.76 525.138 1142.96 528.838 1142.96 532.938V533.039C1142.96 537.189 1145.81 540.939 1150.31 540.939C1154.77 540.938 1157.57 537.238 1157.57 533.138Z" fill="#0F315C"/>
<path d="M962.567 575.287H974.168L988.919 610.539H976.218L974.368 605.839H962.117L960.317 610.539H947.816L962.567 575.287ZM971.468 597.538L968.268 589.038L965.068 597.538H971.468Z" fill="#0F315C"/>
<path d="M990.366 575.537H1002.57L1010.07 587.838L1017.57 575.537H1029.77V610.539H1018.12V593.188L1010.07 605.638H1009.87L1001.82 593.188V610.539H990.366V575.537V575.537Z" fill="#0F315C"/>
<path d="M1033.77 575.537H1053.37C1058.22 575.537 1061.27 576.637 1063.32 578.687C1064.57 579.937 1065.47 581.737 1065.47 584.137V584.237C1065.47 588.387 1062.97 590.937 1059.22 592.238C1063.72 593.538 1066.62 595.938 1066.62 600.738V600.839C1066.62 606.439 1062.02 610.539 1053.17 610.539H1033.77V575.537V575.537ZM1050.27 589.288C1052.77 589.288 1053.97 588.437 1053.97 586.888V586.788C1053.97 585.237 1052.72 584.388 1050.22 584.388H1045.17V589.288H1050.27ZM1051.02 601.688C1053.57 601.688 1054.87 600.638 1054.87 599.138V599.037C1054.87 597.537 1053.62 596.487 1051.07 596.487H1045.17V601.687H1051.02V601.688Z" fill="#0F315C"/>
<path d="M1069.27 575.537H1080.97V610.539H1069.27V575.537Z" fill="#0F315C"/>
<path d="M1085.06 575.537H1114.92V585.138H1096.57V588.688H1113.67V597.139H1096.57V600.939H1115.17V610.54H1085.06V575.537V575.537Z" fill="#0F315C"/>
<path d="M1118.31 575.537H1129.27L1141.71 590.988V575.537H1153.32V610.539H1142.92L1129.92 594.388V610.539H1118.31V575.537Z" fill="#0F315C"/>
<path d="M1166.27 585.438H1155.96V575.538H1188.27V585.438H1177.97V610.54H1166.27V585.438Z" fill="#0F315C"/>
<path d="M1190.91 575.537H1220.77V585.138H1202.42V588.688H1219.52V597.139H1202.42V600.939H1221.02V610.54H1190.91V575.537Z" fill="#0F315C"/>
<path d="M181.282 187.204L202.782 161.576C215.854 171.553 230.817 175.68 244.922 175.68C252.146 175.68 255.241 173.787 255.241 170.52V170.176C255.241 166.736 251.457 164.844 238.557 162.264C211.553 156.76 187.818 149.02 187.818 123.565V123.221C187.818 100.345 205.706 82.629 238.901 82.629C262.121 82.629 279.321 88.133 293.253 99.141L273.646 126.317C262.293 118.061 248.706 114.449 237.526 114.449C231.506 114.449 228.755 116.513 228.755 119.437V119.781C228.755 123.049 232.023 125.113 244.751 127.521C275.538 133.197 296.178 142.14 296.178 166.392V166.736C296.178 192.02 275.366 207.5 243.031 207.5C218.606 207.5 196.591 200.62 181.282 187.204Z" fill="white"/>
<path d="M344.852 84.006H384.755L435.494 205.264H391.806L385.442 189.096H343.303L337.111 205.264H294.112L344.852 84.006ZM375.467 160.545L364.459 131.305L353.451 160.545H375.467Z" fill="white"/>
<path d="M428.787 187.204L450.287 161.576C463.358 171.553 478.322 175.68 492.426 175.68C499.65 175.68 502.745 173.787 502.745 170.52V170.176C502.745 166.736 498.962 164.844 486.062 162.264C459.058 156.76 435.323 149.02 435.323 123.565V123.221C435.323 100.345 453.211 82.629 486.406 82.629C509.626 82.629 526.825 88.133 540.757 99.141L521.15 126.317C509.798 118.061 496.211 114.449 485.031 114.449C479.01 114.449 476.259 116.513 476.259 119.437V119.781C476.259 123.049 479.528 125.113 492.255 127.521C523.042 133.197 543.682 142.14 543.682 166.392V166.736C543.682 192.02 522.87 207.5 490.536 207.5C466.11 207.5 444.095 200.62 428.787 187.204Z" fill="white"/>
<path d="M553.313 84.866H593.56V205.263H553.313V84.866Z" fill="white"/>
<path d="M597.688 187.204L619.187 161.576C632.259 171.553 647.223 175.68 661.327 175.68C668.551 175.68 671.646 173.787 671.646 170.52V170.176C671.646 166.736 667.863 164.844 654.962 162.264C627.959 156.76 604.224 149.02 604.224 123.565V123.221C604.224 100.345 622.111 82.629 655.307 82.629C678.527 82.629 695.726 88.133 709.658 99.141L690.051 126.317C678.699 118.061 665.112 114.449 653.932 114.449C647.911 114.449 645.16 116.513 645.16 119.437V119.781C645.16 123.049 648.429 125.113 661.156 127.521C691.943 133.197 712.583 142.14 712.583 166.392V166.736C712.583 192.02 691.771 207.5 659.437 207.5C635.011 207.5 612.995 200.62 597.688 187.204Z" fill="white"/>
<path d="M719.117 145.409V145.064C719.117 110.149 747.841 82.286 784.992 82.286C822.143 82.286 850.522 109.806 850.522 144.721V145.065C850.522 179.981 821.799 207.844 784.648 207.844C747.497 207.844 719.117 180.324 719.117 145.409ZM809.932 145.409V145.064C809.932 130.789 800.128 117.889 784.649 117.889C769.341 117.889 759.709 130.617 759.709 144.72V145.064C759.709 159.34 769.514 172.24 784.993 172.24C800.3 172.24 809.932 159.513 809.932 145.409Z" fill="white"/>
<path d="M861.532 84.866H915.711C947.703 84.866 969.546 99.141 969.546 127.693V128.037C969.546 157.104 947.358 172.584 914.852 172.584H901.78V205.264H861.533V84.866H861.532ZM912.615 143.861C922.935 143.861 929.815 139.216 929.815 130.617V130.273C929.815 121.501 923.451 117.029 912.787 117.029H901.779V143.861H912.615Z" fill="white"/>
<path d="M1008.07 84.006H1047.98L1098.72 205.264H1055.03L1048.67 189.096H1006.53L1000.33 205.264H957.336L1008.07 84.006ZM1038.69 160.545L1027.68 131.305L1016.67 160.545H1038.69Z" fill="white"/>
</svg>
