<?xml version="1.0" encoding="utf-8"?>
<!-- Generator: Adobe Illustrator 15.0.0, SVG Export Plug-In . SVG Version: 6.00 Build 0)  -->
<!DOCTYPE svg PUBLIC "-//W3C//DTD SVG 1.1//EN" "http://www.w3.org/Graphics/SVG/1.1/DTD/svg11.dtd">
<svg version="1.1" id="Objects" xmlns="http://www.w3.org/2000/svg" xmlns:xlink="http://www.w3.org/1999/xlink" x="0px" y="0px"
	 width="1800px" height="1122px" viewBox="0 0 1800 1122" enable-background="new 0 0 1800 1122" xml:space="preserve">
<g opacity="0.3">
	<g>
		<path fill="#59595B" d="M373.227,784.139h-3.66v-1.404h3.66V784.139z M373.227,779.073h-3.66v-7.321h3.66V779.073z
			 M373.227,768.092h-3.66v-7.32h3.66V768.092z M373.227,757.11h-3.66v-7.321h3.66V757.11z M373.227,746.129h-3.66v-7.32h3.66
			V746.129z M373.227,735.147h-3.66v-7.321h3.66V735.147z M373.227,724.166h-3.66v-7.321h3.66V724.166z M370.91,715.501h-7.321
			v-3.66h7.321V715.501z M359.929,715.501h-7.321v-3.66h7.321V715.501z M348.947,715.501h-7.321v-3.66h7.321V715.501z"/>
	</g>
	<g>
		<path fill="#59595B" d="M1718.393,356.698h-4.097v-3.66h4.097V356.698z M1710.636,356.698h-7.321v-3.66h7.321V356.698z
			 M1699.654,356.698h-7.321v-3.66h7.321V356.698z M1688.673,356.698h-7.321v-3.66h7.321V356.698z M1677.691,356.698h-7.321v-3.66
			h7.321V356.698z M1666.71,356.698h-7.321v-3.66h7.321V356.698z M1655.729,356.698h-7.321v-3.66h7.321V356.698z M1644.746,356.698
			h-7.32v-3.66h7.32V356.698z M1633.766,356.698h-7.321v-3.66h7.321V356.698z M1622.783,356.698h-7.32v-3.66h7.32V356.698z
			 M1611.802,356.698h-7.32v-3.66h7.32V356.698z M1600.82,356.698h-7.32v-3.66h7.32V356.698z M1589.839,356.698h-7.321v-3.66h7.321
			V356.698z M1578.857,356.698h-7.32v-3.66h7.32V356.698z M1567.876,356.698h-7.321v-3.66h7.321V356.698z M1556.895,356.698h-7.32
			v-3.66h7.32V356.698z M1545.913,356.698h-7.321v-3.66h7.321V356.698z M1534.932,356.698h-7.321v-3.66h7.321V356.698z
			 M1523.95,356.698h-7.321v-3.66h7.321V356.698z M1512.969,356.698h-7.321v-3.66h7.321V356.698z"/>
	</g>
	<g>
		
			<rect x="498.369" y="941.189" transform="matrix(0.895 0.446 -0.446 0.895 475.4045 -134.0554)" fill="#41DAC5" width="48.296" height="3.662"/>
	</g>
	<g>
		
			<rect x="731.258" y="928.248" transform="matrix(0.7003 0.7139 -0.7139 0.7003 891.8536 -264.0101)" fill="#41DAC5" width="58.142" height="3.661"/>
	</g>
	<g>
		
			<rect x="710.329" y="898.205" transform="matrix(0.7626 0.6469 -0.6469 0.7626 769.3728 -240.3545)" fill="#41DAC5" width="3.661" height="59.716"/>
	</g>
	<g>
		
			<rect x="520.645" y="736.342" transform="matrix(0.9993 0.0374 -0.0374 0.9993 28.418 -18.9914)" fill="#41DAC5" width="3.66" height="29.419"/>
	</g>
	<g>
		
			<rect x="458.844" y="774.391" transform="matrix(0.8958 0.4444 -0.4444 0.8958 394.7861 -131.8157)" fill="#41DAC5" width="39.458" height="3.66"/>
	</g>
	<g>
		
			<rect x="773.689" y="856.308" transform="matrix(0.5767 0.817 -0.817 0.5767 1045.3657 -262.0107)" fill="#41DAC5" width="3.66" height="42.894"/>
	</g>
	<g>
		<path fill="#41DAC5" d="M724.47,909.332l-6.407-3.543l1.772-3.203l6.406,3.543L724.47,909.332z M714.86,904.018l-6.407-3.543
			l1.772-3.203l6.407,3.543L714.86,904.018z M705.25,898.703l-6.406-3.544l1.771-3.202l6.406,3.543L705.25,898.703z
			 M695.641,893.388l-6.406-3.543l1.771-3.202l6.406,3.543L695.641,893.388z M686.03,888.073l-6.406-3.543l1.771-3.203l6.407,3.543
			L686.03,888.073z M676.421,882.759l-6.406-3.543l1.771-3.203l6.406,3.543L676.421,882.759z M666.812,877.444l-6.407-3.544
			l1.772-3.202l6.407,3.543L666.812,877.444z M657.201,872.129l-6.406-3.543l1.771-3.202l6.407,3.542L657.201,872.129z
			 M647.592,866.814l-6.406-3.543l1.771-3.203l6.406,3.543L647.592,866.814z"/>
	</g>
	<g>
		<path fill="#41DAC5" d="M518.27,921.376l-2.063-3.025l6.05-4.123l2.062,3.024L518.27,921.376z M527.343,915.191l-2.062-3.025
			l6.05-4.123l2.062,3.024L527.343,915.191z M536.417,909.006l-2.062-3.024l6.05-4.124l2.062,3.025L536.417,909.006z
			 M545.491,902.821l-2.062-3.025l6.05-4.123l2.062,3.024L545.491,902.821z M554.565,896.636l-2.062-3.024l6.049-4.124l2.062,3.025
			L554.565,896.636z M563.64,890.451l-2.062-3.025l6.049-4.123l2.062,3.025L563.64,890.451z M572.714,884.266l-2.062-3.024
			l6.049-4.124l2.062,3.025L572.714,884.266z M581.788,878.081l-2.062-3.024l6.049-4.124l2.062,3.025L581.788,878.081z
			 M590.862,871.896l-2.062-3.025l6.049-4.123l2.062,3.024L590.862,871.896z"/>
	</g>
	<g>
		<path fill="#41DAC5" d="M589.697,851.938l-6.56-3.252l1.626-3.279l6.559,3.252L589.697,851.938z M579.858,847.061l-6.56-3.252
			l1.626-3.279l6.56,3.251L579.858,847.061z M570.02,842.183l-6.56-3.252l1.626-3.279l6.559,3.252L570.02,842.183z M560.181,837.305
			l-6.56-3.252l1.626-3.279l6.559,3.252L560.181,837.305z M550.342,832.427l-6.559-3.252l1.625-3.279l6.56,3.252L550.342,832.427z
			 M540.503,827.55l-6.559-3.252l1.626-3.28l6.559,3.252L540.503,827.55z M530.664,822.672l-3.625-1.798l1.626-3.279l3.625,1.798
			L530.664,822.672z"/>
	</g>
	<g>
		
			<rect x="1334.27" y="572.993" transform="matrix(0.8464 0.5326 -0.5326 0.8464 524.859 -619.4001)" fill="#59595B" width="3.66" height="54.198"/>
	</g>
	<g>
		
			<rect x="1402.79" y="484.22" transform="matrix(0.6919 0.722 -0.722 0.6919 791.2843 -861.181)" fill="#59595B" width="3.66" height="24.549"/>
	</g>
	<g>
		<path fill="#59595B" d="M1362.718,492.83l-3.293-1.599l0.88-1.812l3.293,1.599L1362.718,492.83z M1365.196,487.725l-3.293-1.599
			l3.198-6.585l3.293,1.599L1365.196,487.725z M1369.993,477.847l-3.293-1.599l3.198-6.585l3.293,1.599L1369.993,477.847z
			 M1374.79,467.968l-3.293-1.599l3.197-6.585l3.293,1.599L1374.79,467.968z M1379.587,458.09l-3.294-1.599l3.198-6.585l3.293,1.599
			L1379.587,458.09z"/>
	</g>
	<g>
		
			<rect x="1274.239" y="475.593" transform="matrix(0.7016 0.7125 -0.7125 0.7016 728.7267 -785.4814)" fill="#59595B" width="56.117" height="3.66"/>
	</g>
	<g>
		
			<rect x="1276.482" y="513.266" transform="matrix(0.0032 1 -1 0.0032 1823.8363 -730.4456)" fill="#59595B" width="3.661" height="72.706"/>
	</g>
	<g>
		
			<rect x="1406.75" y="540.941" transform="matrix(0.9968 0.0796 -0.0796 0.9968 47.8032 -113.2407)" fill="#59595B" width="74.089" height="3.661"/>
	</g>
	<g>
		<path fill="#59595B" d="M515.747,138.55l-2.029-3.047l6.093-4.058l2.029,3.046L515.747,138.55z M524.888,132.463l-2.029-3.047
			l6.093-4.058l2.029,3.046L524.888,132.463z M534.027,126.375l-2.029-3.046l6.094-4.059l2.029,3.047L534.027,126.375z
			 M543.167,120.289l-2.029-3.047l6.093-4.058l2.029,3.047L543.167,120.289z M552.307,114.201l-2.029-3.047l0.733-0.488l2.029,3.047
			L552.307,114.201z"/>
	</g>
	<g>
		<path fill="#59595B" d="M554.439,173.034l-2.446-1.394l1.812-3.18l2.446,1.394L554.439,173.034z M548.813,169.828l-6.361-3.624
			l1.812-3.181l6.361,3.624L548.813,169.828z M539.271,164.392l-6.361-3.624l1.812-3.18l6.361,3.624L539.271,164.392z
			 M529.729,158.956l-6.361-3.625l1.813-3.18l6.361,3.624L529.729,158.956z M520.188,153.52l-6.36-3.624l1.812-3.18l6.361,3.624
			L520.188,153.52z"/>
	</g>
	<g>
		<g>
			<rect x="161.927" y="332.19" fill="#59595B" width="3.661" height="3.661"/>
		</g>
		<g>
			<path fill="#59595B" d="M165.587,328.602h-3.661v-7.177h3.661V328.602z M165.587,317.836h-3.661v-7.176h3.661V317.836z
				 M165.587,307.072h-3.661v-7.177h3.661V307.072z M165.587,296.307h-3.661v-7.177h3.661V296.307z"/>
		</g>
		<g>
			<polygon fill="#59595B" points="165.587,285.542 161.927,285.542 161.927,280.051 167.418,280.051 167.418,283.711 
				165.587,283.711 			"/>
		</g>
		<g>
			<path fill="#59595B" d="M342.74,283.711h-7.305v-3.661h7.305V283.711z M331.782,283.711h-7.305v-3.661h7.305V283.711z
				 M320.824,283.711h-7.305v-3.661h7.305V283.711z M309.867,283.711h-7.305v-3.661h7.305V283.711z M298.909,283.711h-7.305v-3.661
				h7.305V283.711z M287.952,283.711h-7.305v-3.661h7.305V283.711z M276.994,283.711h-7.305v-3.661h7.305V283.711z M266.036,283.711
				h-7.305v-3.661h7.305V283.711z M255.079,283.711h-7.305v-3.661h7.305V283.711z M244.121,283.711h-7.305v-3.661h7.305V283.711z
				 M233.164,283.711h-7.305v-3.661h7.305V283.711z M222.206,283.711h-7.305v-3.661h7.305V283.711z M211.248,283.711h-7.305v-3.661
				h7.305V283.711z M200.291,283.711h-7.305v-3.661h7.305V283.711z M189.333,283.711h-7.305v-3.661h7.305V283.711z M178.375,283.711
				h-7.305v-3.661h7.305V283.711z"/>
		</g>
		<g>
			<rect x="346.393" y="280.051" fill="#59595B" width="3.66" height="3.661"/>
		</g>
	</g>
	<g>
		<g>
			<rect x="65.405" y="449.488" fill="#59595B" width="3.66" height="3.661"/>
		</g>
		<g>
			<path fill="#59595B" d="M69.065,445.517h-3.66v-7.942h3.66V445.517z M69.065,433.604h-3.66v-7.943h3.66V433.604z"/>
		</g>
		<g>
			<polygon fill="#59595B" points="69.065,421.689 65.405,421.689 65.405,416.199 70.896,416.199 70.896,419.859 69.065,419.859 			
				"/>
		</g>
		<g>
			<path fill="#59595B" d="M250.775,419.859h-7.495v-3.661h7.495V419.859z M239.533,419.859h-7.495v-3.661h7.495V419.859z
				 M228.291,419.859h-7.495v-3.661h7.495V419.859z M217.048,419.859h-7.495v-3.661h7.495V419.859z M205.806,419.859h-7.495v-3.661
				h7.495V419.859z M194.563,419.859h-7.495v-3.661h7.495V419.859z M183.321,419.859h-7.495v-3.661h7.495V419.859z M172.078,419.859
				h-7.495v-3.661h7.495V419.859z M160.836,419.859h-7.495v-3.661h7.495V419.859z M149.593,419.859h-7.495v-3.661h7.495V419.859z
				 M138.351,419.859h-7.495v-3.661h7.495V419.859z M127.108,419.859h-7.495v-3.661h7.495V419.859z M115.866,419.859h-7.495v-3.661
				h7.495V419.859z M104.623,419.859h-7.495v-3.661h7.495V419.859z M93.381,419.859h-7.495v-3.661h7.495V419.859z M82.138,419.859
				h-7.495v-3.661h7.495V419.859z"/>
		</g>
		<g>
			<polygon fill="#59595B" points="260.014,421.689 256.354,421.689 256.354,419.859 254.523,419.859 254.523,416.199 
				260.014,416.199 			"/>
		</g>
		<g>
			<path fill="#59595B" d="M260.014,442.993h-3.66v-7.102h3.66V442.993z M260.014,432.341h-3.66v-7.101h3.66V432.341z"/>
		</g>
		<g>
			<rect x="256.354" y="446.544" fill="#59595B" width="3.66" height="3.661"/>
		</g>
	</g>
	<g>
		<path fill="#59595B" d="M133.939,456.02h-3.661v-5.046h3.661V456.02z M133.939,447.313h-3.661v-7.321h3.661V447.313z
			 M133.939,436.332h-3.661v-7.321h3.661V436.332z M133.939,425.35h-3.661v-7.321h3.661V425.35z"/>
	</g>
	<g>
		<path fill="#59595B" d="M197.236,456.02h-3.661v-5.046h3.661V456.02z M197.236,447.313h-3.661v-7.321h3.661V447.313z
			 M197.236,436.332h-3.661v-7.321h3.661V436.332z M197.236,425.35h-3.661v-7.321h3.661V425.35z"/>
	</g>
	<g>
		<path fill="#59595B" d="M165.587,418.603h-3.661v-5.045h3.661V418.603z M165.587,409.897h-3.661v-7.321h3.661V409.897z
			 M165.587,398.916h-3.661v-7.321h3.661V398.916z M165.587,387.934h-3.661v-7.321h3.661V387.934z"/>
	</g>
	<g>
		<rect x="1519.143" y="892.752" fill="#A5A6A9" width="83.714" height="3.66"/>
	</g>
	<g>
		<polygon fill="#A5A6A9" points="1602.856,988.266 1555.499,988.266 1555.499,803.534 1602.856,803.534 1602.856,807.195 
			1559.159,807.195 1559.159,984.605 1602.856,984.605 		"/>
	</g>
	<g>
		<path fill="#59595B" d="M1699.278,649.521h-7.321v-3.661h6.875l-2.543-4.405l3.17-1.83l3.66,6.341l-3.17,1.83l-0.671-1.162
			V649.521z M1688.297,649.521h-7.32v-3.661h7.32V649.521z M1677.315,649.521h-7.321v-3.661h7.321V649.521z M1666.334,649.521h-7.32
			v-3.661h7.32V649.521z M1655.353,649.521h-7.321v-3.661h7.321V649.521z M1644.371,649.521h-7.321v-3.661h7.321V649.521z
			 M1633.39,649.521h-7.321v-3.661h7.321V649.521z M1622.408,649.521h-7.321v-3.661h7.321V649.521z M1611.427,649.521h-7.321v-3.661
			h7.321V649.521z M1600.445,649.521h-7.321v-3.661h7.321V649.521z M1589.463,649.521h-6.895l-1.585-2.745l3.661-6.341l3.17,1.831
			l-2.076,3.594h3.725V649.521z M1589.645,639.095l-3.17-1.83l3.66-6.34l3.17,1.83L1589.645,639.095z M1694.459,638.284
			l-3.661-6.341l3.17-1.83l3.661,6.341L1694.459,638.284z M1595.135,629.585l-3.17-1.831l3.66-6.34l3.17,1.83L1595.135,629.585z
			 M1688.968,628.773l-3.66-6.34l3.17-1.83l3.661,6.34L1688.968,628.773z M1600.626,620.074l-3.17-1.83l3.66-6.34l3.17,1.83
			L1600.626,620.074z M1683.477,619.264l-3.66-6.34l3.17-1.83l3.661,6.34L1683.477,619.264z M1606.116,610.564l-3.17-1.83
			l3.661-6.341l3.17,1.83L1606.116,610.564z M1677.986,609.754l-3.66-6.341l3.17-1.83l3.66,6.341L1677.986,609.754z
			 M1611.607,601.054l-3.17-1.83l3.66-6.34l3.17,1.83L1611.607,601.054z M1672.496,600.243l-3.661-6.34l3.17-1.831l3.661,6.341
			L1672.496,600.243z M1617.098,591.544l-3.17-1.831l3.66-6.34l3.171,1.83L1617.098,591.544z M1667.005,590.732l-3.661-6.34
			l3.171-1.83l3.66,6.34L1667.005,590.732z M1622.589,582.033l-3.17-1.83l3.66-6.34l3.17,1.83L1622.589,582.033z M1661.514,581.223
			l-3.66-6.34l3.17-1.83l3.66,6.34L1661.514,581.223z M1628.08,572.523l-3.171-1.831l3.66-6.34l3.17,1.83L1628.08,572.523z
			 M1656.023,571.712l-3.66-6.34l3.17-1.83l3.66,6.34L1656.023,571.712z M1633.57,563.013l-3.17-1.83l3.66-6.34l3.17,1.83
			L1633.57,563.013z M1650.533,562.202l-3.661-6.34l3.17-1.831l3.661,6.34L1650.533,562.202z M1639.061,553.502l-3.17-1.83
			l3.66-6.34l1.863,1.075l-0.033-0.056l3.171-1.83l3.66,6.34l-3.17,1.83l-2.757-4.774L1639.061,553.502z"/>
	</g>
	<g>
		<g>
			<polygon fill="#59595B" points="295.078,165.588 273.245,155.754 273.245,155.57 238.333,155.57 238.333,194.378 
				273.245,194.378 295.078,184.544 			"/>
		</g>
		<g>
			<path fill="#A5A6A9" d="M214.86,160.329v13.905v15.571h23.473v-15.571v-13.905H214.86z M232.319,185.112h-6.57v-6.57h6.57
				V185.112z M225.75,164.836h6.57v6.57h-6.57V164.836z"/>
		</g>
		<g>
			<rect x="293.918" y="173.144" fill="#59595B" width="58.299" height="3.661"/>
		</g>
	</g>
	<g>
		<g>
			<path fill="#E5E5E6" d="M915.321,1033.329h-77.712v-77.712h77.712V1033.329z"/>
		</g>
	</g>
	<g>
		<g>
			<path fill="#E5E5E6" d="M1161.348,197.449h-100.926V96.524h100.926V197.449z M1066.644,191.228h88.482v-88.482h-88.482V191.228z"
				/>
		</g>
	</g>
	<g>
		<g>
			<path fill="#E5E5E6" d="M1269.578,839.37c-40.719,0-73.728,33.009-73.728,73.728s33.009,73.727,73.728,73.727
				s73.727-33.008,73.727-73.727S1310.297,839.37,1269.578,839.37z M1269.578,980.436c-37.19,0-67.339-30.148-67.339-67.338
				s30.148-67.338,67.339-67.338c37.189,0,67.338,30.148,67.338,67.338S1306.768,980.436,1269.578,980.436z"/>
		</g>
	</g>
	<g>
		<g>
			<path fill="#E5E5E6" d="M720.291,81.991c-36.106,0-65.377,29.27-65.377,65.376s29.271,65.376,65.377,65.376
				s65.376-29.27,65.376-65.376S756.397,81.991,720.291,81.991z M720.291,207.079c-32.978,0-59.711-26.733-59.711-59.711
				s26.734-59.711,59.711-59.711s59.711,26.733,59.711,59.711S753.269,207.079,720.291,207.079z"/>
		</g>
	</g>
	<g>
		<g>
			<path fill="#E5E5E6" d="M1314.663,822.237c-18.759,0-33.967,15.208-33.967,33.967c0,18.76,15.208,33.967,33.967,33.967
				c18.76,0,33.968-15.207,33.968-33.967C1348.631,837.445,1333.423,822.237,1314.663,822.237z M1314.663,885.66
				c-16.268,0-29.455-13.188-29.455-29.456c0-16.268,13.188-29.455,29.455-29.455c16.269,0,29.456,13.188,29.456,29.455
				C1344.119,872.473,1330.932,885.66,1314.663,885.66z"/>
		</g>
	</g>
	<g>
		<g>
			<path fill="#E5E5E6" d="M1541.356,419.804c-18.76,0-33.967,15.208-33.967,33.967s15.207,33.967,33.967,33.967
				c18.759,0,33.967-15.208,33.967-33.967S1560.115,419.804,1541.356,419.804z M1541.356,483.226
				c-16.269,0-29.456-13.188-29.456-29.456c0-16.268,13.188-29.456,29.456-29.456c16.268,0,29.456,13.188,29.456,29.456
				C1570.813,470.038,1557.624,483.226,1541.356,483.226z"/>
		</g>
	</g>
	<g>
		<g>
			<path fill="#E5E5E6" d="M355.436,363.297c-40.719,0-73.728,33.009-73.728,73.727c0,40.719,33.009,73.728,73.728,73.728
				s73.728-33.009,73.728-73.728C429.163,396.306,396.154,363.297,355.436,363.297z M355.436,504.362
				c-37.19,0-67.338-30.148-67.338-67.338s30.148-67.338,67.338-67.338c37.19,0,67.339,30.148,67.339,67.338
				S392.626,504.362,355.436,504.362z"/>
		</g>
	</g>
	<g>
		<path fill="#41DAC5" d="M1744.039,340.989c0-8.115-6.578-14.694-14.693-14.694c-4.353,0-8.262,1.893-10.953,4.899
			c-2.689-3.006-6.6-4.899-10.951-4.899c-8.116,0-14.694,6.579-14.694,14.694c0,0.259,0.007,0.516,0.02,0.771
			c-0.279,5.608,2.111,18.729,25.576,34.347l0.002,0.013c0.003-0.002,0.005-0.004,0.009-0.006c0.003,0.002,0.006,0.004,0.009,0.006
			v-0.012c22.456-14.947,25.612-27.605,25.598-33.582C1744.012,342.021,1744.039,341.508,1744.039,340.989z"/>
	</g>
	<g>
		<g>
			<path fill="#E5E5E6" d="M181.136,839.668H50V708.532h131.136V839.668z M58.083,831.584h114.969V716.616H58.083V831.584z"/>
		</g>
	</g>
	<g>
		<g>
			<g>
				<g>
					<path fill="#59595B" d="M1487.837,740.762c-1.663,0-3.362-0.139-5.053-0.413h-87.407c-0.151,0-0.297-0.009-0.439-0.026
						c-16.407-0.587-29.738-14.39-29.738-30.818c0-8.065,3.104-15.698,8.739-21.494c5.285-5.435,12.245-8.69,19.73-9.261
						c2.25-9.131,10.439-15.613,20.003-15.613c3.493,0,6.893,0.878,9.93,2.552c7.989-10.898,20.672-17.352,34.271-17.352
						c9.377,0,18.667,3.229,26.156,9.09c7.215,5.646,12.459,13.497,14.845,22.193c5.836,2.182,10.853,6.03,14.555,11.179
						c3.907,5.435,5.974,11.797,5.974,18.399C1519.402,726.602,1505.242,740.762,1487.837,740.762z M1482.934,736.688h0.151
						l0.149,0.024c1.542,0.258,3.09,0.388,4.603,0.388c15.387,0,27.904-12.518,27.904-27.903c0-11.791-7.805-22.665-18.979-26.444
						l-0.947-0.321l-0.242-0.971c-2.06-8.289-6.961-15.801-13.799-21.152c-6.849-5.36-15.337-8.313-23.9-8.313
						c-12.964,0-25.016,6.417-32.238,17.165l-1.02,1.516l-1.518-1.016c-2.801-1.874-6.061-2.864-9.426-2.864
						c-8.273,0-15.296,5.895-16.697,14.017l-0.254,1.474l-1.496,0.044c-7.076,0.21-13.704,3.133-18.662,8.231
						c-4.968,5.107-7.703,11.835-7.703,18.941c0,14.509,11.797,26.693,26.298,27.163l0.245,0.024L1482.934,736.688z"/>
				</g>
			</g>
		</g>
	</g>
	<g>
		<g>
			<rect x="1125.521" y="141.229" fill="#59595B" width="92.382" height="152.506"/>
		</g>
		<g>
			<rect x="1139.107" y="156.536" fill="#DBDBDB" width="65.208" height="111.752"/>
		</g>
		<g>
			<circle fill="#DBDBDB" cx="1171.711" cy="283.321" r="5.999"/>
		</g>
		<g>
			<rect x="1147.421" y="165.16" fill="#41DAC5" width="11.999" height="11.998"/>
		</g>
		<g>
			<rect x="1165.712" y="165.16" fill="#41DAC5" width="11.999" height="11.998"/>
		</g>
		<g>
			<rect x="1184.004" y="165.16" fill="#41DAC5" width="11.998" height="11.998"/>
		</g>
		<g>
			<rect x="1147.421" y="182.079" fill="#41DAC5" width="11.999" height="11.998"/>
		</g>
		<g>
			<rect x="1165.712" y="182.079" fill="#41DAC5" width="11.999" height="11.998"/>
		</g>
		<g>
			<rect x="1184.004" y="182.079" fill="#41DAC5" width="11.998" height="11.998"/>
		</g>
		<g>
			<rect x="1147.421" y="198.998" fill="#41DAC5" width="11.999" height="11.999"/>
		</g>
		<g>
			<rect x="1165.712" y="198.998" fill="#41DAC5" width="11.999" height="11.999"/>
		</g>
		<g>
			<rect x="1184.004" y="198.998" fill="#41DAC5" width="11.998" height="11.999"/>
		</g>
		<g>
			<rect x="1147.421" y="215.917" fill="#41DAC5" width="11.999" height="11.999"/>
		</g>
		<g>
			<rect x="1165.712" y="215.917" fill="#41DAC5" width="11.999" height="11.999"/>
		</g>
		<g>
			<rect x="1147.421" y="232.984" fill="#41DAC5" width="11.999" height="11.999"/>
		</g>
		<g>
			<rect x="1165.712" y="232.984" fill="#41DAC5" width="11.999" height="11.999"/>
		</g>
		<g>
			<rect x="1184.004" y="215.917" fill="#41DAC5" width="11.998" height="11.999"/>
		</g>
		<g>
			<rect x="1147.421" y="250.454" fill="#A5A6A9" width="48.581" height="10.309"/>
		</g>
		<g>
			<path fill="#E5E5E6" d="M1212.528,274.255h-79.79l-0.848-124.074h79.791L1212.528,274.255z M1134.557,272.425h76.129
				l-0.822-120.414h-76.129L1134.557,272.425z"/>
		</g>
	</g>
	<g>
		<g>
			<path fill="#A5A6A9" d="M1241.571,138.165c0,4.868,3.946,8.821,8.824,8.821s8.825-3.954,8.825-8.821
				c0-4.877-3.947-8.828-8.825-8.828S1241.571,133.288,1241.571,138.165z"/>
		</g>
		<g>
			<path fill="#A5A6A9" d="M1225.904,121.573l9.044,8.034c3.653-4.844,9.169-7.937,15.328-7.937c6.392,0,12.084,3.331,15.724,8.491
				l9.136-7.905c-5.774-8.131-14.766-13.375-24.859-13.375C1240.465,108.882,1231.69,113.832,1225.904,121.573z"/>
		</g>
		<g>
			<path fill="#A5A6A9" d="M1211.607,108.876l9.047,8.036c6.975-9.517,17.659-15.625,29.622-15.625
				c12.276,0,23.202,6.428,30.159,16.374l9.136-7.914c-9.092-12.908-23.318-21.247-39.295-21.247
				C1234.662,88.501,1220.714,96.465,1211.607,108.876z"/>
		</g>
	</g>
	<g>
		<polygon fill="#DBDBDB" points="1456.487,752.023 1456.487,710.934 1427.279,710.934 1427.279,752.023 1413.572,752.023 
			1441.883,780.333 1470.194,752.023 		"/>
	</g>
	<g>
		<g>
			<path fill="#E5E5E6" d="M861.639,142.546c-12.489,0-22.614,10.125-22.614,22.614c0,12.489,10.125,22.614,22.614,22.614
				s22.614-10.125,22.614-22.614C884.253,152.67,874.128,142.546,861.639,142.546z M861.639,184.771
				c-10.831,0-19.611-8.78-19.611-19.61c0-10.831,8.78-19.611,19.611-19.611c10.831,0,19.611,8.78,19.611,19.611
				C881.25,175.99,872.469,184.771,861.639,184.771z"/>
		</g>
	</g>
	<g>
		<g>
			<circle fill="#E5E5E6" cx="101.073" cy="585.747" r="12.754"/>
		</g>
		<g opacity="0.5">
			<path fill="#E5E5E6" d="M101.073,598.501c-7.044,0-12.754-5.71-12.754-12.754s5.71-12.754,12.754-12.754V598.501z"/>
		</g>
	</g>
	<g>
		<g>
			<circle fill="#E5E5E6" cx="814.065" cy="135.601" r="12.754"/>
		</g>
		<g opacity="0.5">
			<path fill="#E5E5E6" d="M814.065,148.354c-7.043,0-12.753-5.71-12.753-12.754c0-7.043,5.71-12.754,12.753-12.754V148.354z"/>
		</g>
	</g>
	<g>
		<g>
			<path fill="#59595B" d="M373.689,783.1c-0.072-0.052-0.139-0.108-0.211-0.158l-0.106,0.148c-0.648-0.02-1.292-0.049-1.944-0.049
				c-0.863,0-1.717,0.029-2.571,0.064l-0.115-0.164c-0.081,0.055-0.154,0.117-0.233,0.174c-31.389,1.527-56.455,27.54-56.455,59.299
				c0,31.76,25.066,57.772,56.455,59.301c0.079,0.054,0.153,0.116,0.233,0.174l0.115-0.167c0.854,0.037,1.708,0.064,2.571,0.064
				c0.653,0,1.296-0.027,1.944-0.048l0.106,0.15c0.072-0.051,0.139-0.107,0.211-0.159c31.693-1.193,57.112-27.336,57.112-59.315
				C430.802,810.436,405.383,784.295,373.689,783.1z M364.156,786.465c-9.37,7.719-16.465,17.39-20.91,28.27
				c-5.139-2.361-10.047-5.38-14.604-9.058C337.506,795.369,350.015,788.293,364.156,786.465z M314.995,842.414
				c0-12.969,4.407-24.92,11.789-34.461c4.8,3.875,9.973,7.055,15.391,9.527c-2.826,7.831-4.327,16.227-4.327,24.934
				c0,0.172,0.014,0.34,0.015,0.513l-22.855,0.011C315.005,842.763,314.995,842.59,314.995,842.414z M315.111,845.878l22.838-0.012
				c0.392,8.632,2.257,16.912,5.445,24.594c-5.215,2.233-10.201,5.095-14.835,8.593C320.815,870.009,315.88,858.5,315.111,845.878z
				 M330.534,881.243c4.392-3.289,9.11-5.982,14.039-8.092c4.477,9.639,11.099,18.224,19.584,25.211
				C350.995,896.662,339.245,890.414,330.534,881.243z M369.957,898.811c-0.145-0.007-0.293-0.008-0.438-0.011
				c-9.783-7.105-17.317-16.279-22.211-26.75c7.272-2.753,14.94-4.259,22.649-4.514V898.811z M369.957,864.603
				c-8.113,0.259-16.185,1.843-23.833,4.754c-3.051-7.338-4.844-15.248-5.234-23.491l29.067-0.015V864.603z M369.957,842.908
				l-29.155,0.019c-0.001-0.173-0.014-0.343-0.014-0.513c0-8.296,1.423-16.291,4.098-23.759c8.03,3.277,16.528,5.05,25.071,5.326
				V842.908z M369.957,821.038c-8.185-0.274-16.319-1.985-24.012-5.132c4.799-11.772,12.829-22.073,23.573-29.877
				c0.146-0.005,0.293-0.006,0.438-0.01V821.038z M372.897,786.178c10.887,7.963,18.974,18.496,23.704,30.529
				c-7.644,2.847-15.669,4.299-23.704,4.366V786.178z M372.897,824.021c8.377-0.069,16.744-1.591,24.713-4.558
				c2.49,7.239,3.822,14.952,3.822,22.951c0,0.16-0.014,0.319-0.014,0.479l-28.521,0.016V824.021z M372.897,845.848l28.434-0.015
				c-0.375,7.972-2.061,15.633-4.925,22.767c-7.588-2.629-15.542-3.97-23.509-4.033V845.848z M372.897,898.651v-31.152
				c7.578,0.063,15.146,1.332,22.37,3.813C390.417,882.021,382.813,891.398,372.897,898.651z M377.951,898.457
				c8.782-7.203,15.595-16.107,20.093-26.125c5.257,2.062,10.3,4.78,14.992,8.16C404.097,890.253,391.777,896.858,377.951,898.457z
				 M414.975,878.271c-4.942-3.593-10.259-6.474-15.806-8.65c2.983-7.454,4.729-15.458,5.104-23.789l23.475-0.013
				C427.014,858.098,422.345,869.334,414.975,878.271z M427.861,842.414c0,0.155-0.011,0.309-0.013,0.466l-23.489,0.013
				c0-0.16,0.013-0.318,0.013-0.479c0-8.376-1.4-16.46-4.021-24.035c5.754-2.413,11.264-5.603,16.381-9.571
				C423.72,818.202,427.861,829.833,427.861,842.414z M399.336,815.618c-4.435-11.286-11.702-21.307-21.385-29.248
				c14.822,1.716,27.916,9.184,36.968,20.122C410.048,810.269,404.809,813.31,399.336,815.618z"/>
		</g>
	</g>
	<g>
		<g>
			<polygon fill="#A5A6A9" points="198.578,827.044 198.578,815.942 143.391,815.942 143.391,852.545 198.578,852.545 
				198.578,839.099 215.54,848.182 215.54,817.58 			"/>
		</g>
		<g>
			<circle fill="#A5A6A9" cx="158.141" cy="805.157" r="10.784"/>
		</g>
		<g>
			<circle fill="#A5A6A9" cx="183.829" cy="805.157" r="10.784"/>
		</g>
	</g>
	<g>
		<g>
			<g>
				<polygon fill="#DBDBDB" points="1026.756,336.496 1153.032,555.212 1124.273,605.023 1205.997,623.214 1245.258,555.212 
					1072.869,256.626 1070.104,256.626 1026.756,336.496 				"/>
			</g>
			<g>
				<polygon fill="#DBDBDB" points="774.204,336.496 997.79,336.496 1038.538,256.626 728.091,256.626 687.736,326.522 
					748.632,380.789 				"/>
			</g>
			<g>
				<polygon fill="#DBDBDB" points="1026.756,773.929 923.44,773.929 933.83,853.799 1072.869,853.799 1192.939,645.832 
					1114.708,621.592 				"/>
			</g>
			<g>
				<polygon fill="#DBDBDB" points="866.506,773.929 859.313,853.799 879.73,853.799 883.813,773.929 				"/>
			</g>
			<g>
				<polygon fill="#DBDBDB" points="647.928,555.212 715.12,438.833 644.579,401.272 555.702,555.212 555.702,555.212 
					647.928,555.212 				"/>
			</g>
			<g>
				<polygon fill="#DBDBDB" points="894.989,773.929 894.989,853.799 919.426,853.799 912.889,773.929 				"/>
			</g>
			<g>
				<polygon fill="#DBDBDB" points="774.204,773.929 659.052,574.479 570.888,581.515 728.091,853.799 845.867,853.799 
					856.657,773.929 				"/>
			</g>
			<g>
				<polygon fill="#DBDBDB" points="740.183,395.423 676.299,346.333 652.953,386.77 721.259,428.199 				"/>
			</g>
		</g>
	</g>
	<g>
		<g>
			<g>
				<path fill="#41DAC5" d="M758.853,848.148c-22.887-10.743-44.589-24.101-64.502-39.699
					c-20.017-15.68-38.238-33.634-54.157-53.364c-16.207-20.088-30.063-42.064-41.183-65.32
					c-11.443-23.933-20.048-49.352-25.574-75.552c-9.321-44.193-9.708-88.892-1.149-132.854
					c8.266-42.46,24.485-82.449,48.208-118.854c23.722-36.405,53.754-67.394,89.259-92.104c36.76-25.584,77.808-43.283,122-52.604
					l1.134,5.373c-43.471,9.168-83.844,26.576-119.998,51.739c-34.922,24.305-64.46,54.785-87.795,90.595
					s-39.289,75.143-47.419,116.906c-8.417,43.236-8.036,87.2,1.133,130.671c5.436,25.773,13.9,50.776,25.155,74.316
					c10.936,22.87,24.563,44.484,40.503,64.24c15.657,19.407,33.58,37.067,53.269,52.49c19.588,15.344,40.937,28.482,63.45,39.052
					L758.853,848.148z"/>
			</g>
			<g>
				<polygon fill="#41DAC5" points="818.259,239.601 844.274,218.791 812.071,210.261 				"/>
			</g>
		</g>
		<g>
			<g>
				<g>
					<path fill="#41DAC5" d="M827.545,868.795c-2.395-0.513-4.817-1.058-7.201-1.621l1.264-5.344
						c2.345,0.555,4.729,1.091,7.085,1.595L827.545,868.795z"/>
				</g>
				<g>
					<path fill="#41DAC5" d="M900.263,876.22l-0.044-5.49c4.777-0.038,9.621-0.184,14.396-0.432l0.285,5.483
						C910.045,876.033,905.12,876.182,900.263,876.22z M892.938,876.197c-4.854-0.068-9.778-0.246-14.638-0.529l0.318-5.48
						c4.78,0.277,9.624,0.452,14.396,0.52L892.938,876.197z M922.233,875.318l-0.407-5.477c4.775-0.354,9.609-0.821,14.365-1.387
						l0.648,5.452C932.004,874.482,927.09,874.957,922.233,875.318z M870.994,875.163c-4.845-0.389-9.748-0.891-14.571-1.491
						l0.678-5.448c4.745,0.591,9.567,1.084,14.333,1.467L870.994,875.163z M944.12,872.959l-0.769-5.436
						c4.738-0.671,9.527-1.456,14.235-2.335l1.009,5.397C953.808,871.479,948.938,872.278,944.12,872.959z M849.165,872.688
						c-4.805-0.705-9.664-1.526-14.442-2.44l1.032-5.393c4.701,0.898,9.48,1.707,14.207,2.4L849.165,872.688z M965.794,869.16
						l-1.126-5.375c4.685-0.982,9.41-2.082,14.046-3.269l1.361,5.319C975.363,867.042,970.559,868.16,965.794,869.16z
						 M987.16,863.938l-1.479-5.288c4.609-1.289,9.252-2.696,13.797-4.186l1.709,5.219
						C996.566,861.196,991.847,862.629,987.16,863.938z M1008.129,857.325l-1.822-5.18c4.514-1.587,9.052-3.297,13.488-5.08
						l2.048,5.095C1017.332,853.973,1012.718,855.711,1008.129,857.325z M1028.612,849.354l-2.158-5.05
						c4.396-1.879,8.813-3.882,13.124-5.951l2.377,4.95C1037.571,845.407,1033.082,847.442,1028.612,849.354z M1048.523,840.061
						l-2.483-4.897c4.266-2.162,8.54-4.448,12.705-6.794l2.694,4.784C1057.205,835.538,1052.859,837.862,1048.523,840.061z
						 M1067.781,829.491l-2.798-4.725c4.112-2.436,8.229-4.995,12.231-7.607l3.001,4.599
						C1076.146,824.414,1071.962,827.016,1067.781,829.491z M1086.303,817.691l-3.1-4.531c3.944-2.698,7.883-5.52,11.707-8.387
						l3.293,4.393C1094.316,812.081,1090.313,814.949,1086.303,817.691z M1104.01,804.713l-3.389-4.32
						c3.762-2.949,7.507-6.021,11.132-9.13l3.573,4.168C1111.641,798.591,1107.834,801.714,1104.01,804.713z M1120.827,790.61
						l-3.664-4.089c3.562-3.19,7.097-6.5,10.508-9.836l3.84,3.926C1128.042,784.003,1124.447,787.367,1120.827,790.61z
						 M1136.682,775.443l-3.924-3.842c3.342-3.412,6.651-6.944,9.838-10.498l4.088,3.666
						C1143.443,768.382,1140.078,771.974,1136.682,775.443z M1151.502,759.275l-4.167-3.575c3.108-3.623,6.178-7.364,9.122-11.118
						l4.321,3.389C1157.783,751.788,1154.662,755.592,1151.502,759.275z M1165.223,742.176l-4.394-3.293
						c2.862-3.819,5.678-7.752,8.368-11.689l4.533,3.097C1170.996,734.294,1168.133,738.293,1165.223,742.176z M1177.781,724.218
						l-4.601-2.997c2.602-3.994,5.15-8.102,7.575-12.209l4.729,2.791C1183.019,715.979,1180.427,720.156,1177.781,724.218z
						 M1189.137,705.456l-4.789-2.687c2.336-4.164,4.613-8.441,6.768-12.713l4.902,2.473
						C1193.827,696.873,1191.512,701.222,1189.137,705.456z M1199.243,685.955l-4.956-2.364c2.059-4.314,4.048-8.732,5.913-13.131
						l5.056,2.144C1203.359,677.076,1201.336,681.568,1199.243,685.955z M1208.04,665.831l-5.101-2.032
						c1.769-4.438,3.464-8.978,5.037-13.492l5.185,1.807C1211.562,656.703,1209.839,661.318,1208.04,665.831z M1215.496,645.174
						l-5.223-1.694c1.473-4.537,2.867-9.178,4.146-13.793l5.291,1.466C1218.41,635.845,1216.992,640.562,1215.496,645.174z
						 M1221.587,624.088l-5.321-1.352c0.455-1.792,0.901-3.612,1.326-5.411c0.678-2.86,1.323-5.764,1.922-8.628l5.375,1.123
						c-0.608,2.911-1.266,5.861-1.953,8.769C1222.503,620.418,1222.049,622.268,1221.587,624.088z M1226.308,602.634l-5.397-1.006
						c0.877-4.702,1.661-9.485,2.332-14.218l5.438,0.771C1227.996,592.992,1227.199,597.854,1226.308,602.634z M1229.629,580.918
						l-5.452-0.651c0.568-4.753,1.038-9.577,1.397-14.338l5.476,0.413C1230.685,571.183,1230.206,576.087,1229.629,580.918z
						 M1231.52,559.031l-5.482-0.292c0.255-4.773,0.406-9.617,0.451-14.398l5.49,0.051
						C1231.934,549.253,1231.779,554.179,1231.52,559.031z M1226.476,537.129c-0.062-4.787-0.23-9.63-0.503-14.397l5.482-0.312
						c0.276,4.847,0.448,9.772,0.511,14.639L1226.476,537.129z M1225.484,515.538c-0.377-4.765-0.866-9.587-1.453-14.332
						l5.449-0.674c0.597,4.825,1.094,9.728,1.478,14.573L1225.484,515.538z M1223.067,494.062
						c-0.692-4.732-1.499-9.512-2.398-14.205l5.393-1.033c0.915,4.772,1.734,9.632,2.438,14.443L1223.067,494.062z
						 M1219.235,472.792c-1.003-4.676-2.123-9.392-3.329-14.016l5.313-1.386c1.227,4.702,2.366,9.496,3.385,14.251L1219.235,472.792
						z M1214.01,451.823c-1.307-4.593-2.734-9.225-4.244-13.768l5.211-1.732c1.535,4.618,2.986,9.328,4.314,13.997L1214.01,451.823z
						 M1207.418,431.243c-1.607-4.502-3.336-9.03-5.139-13.459l5.086-2.07c1.832,4.502,3.59,9.106,5.224,13.683L1207.418,431.243z
						 M1199.49,411.14c-1.899-4.391-3.92-8.796-6.008-13.094l4.94-2.398c2.121,4.37,4.177,8.848,6.107,13.312L1199.49,411.14z
						 M1190.267,391.599c-2.182-4.256-4.486-8.52-6.851-12.674l4.773-2.715c2.402,4.223,4.745,8.558,6.963,12.884L1190.267,391.599z
						 M1179.787,372.703c-2.455-4.105-5.033-8.209-7.662-12.2l4.585-3.021c2.673,4.057,5.293,8.23,7.789,12.402L1179.787,372.703z
						 M1168.098,354.531c-2.719-3.938-5.559-7.866-8.441-11.674l4.379-3.313c2.93,3.872,5.817,7.865,8.581,11.868L1168.098,354.531z
						"/>
				</g>
				<g>
					<path fill="#41DAC5" d="M1155.197,337.097c-1.496-1.89-3.033-3.788-4.57-5.642l4.229-3.503
						c1.563,1.885,3.125,3.815,4.646,5.736L1155.197,337.097z"/>
				</g>
			</g>
			<g>
				<path fill="#A5A6A9" d="M964.382,846.595l-0.906-4.299c40.113-8.46,77.369-24.523,110.731-47.743
					c32.226-22.429,59.483-50.556,81.017-83.6c21.532-33.045,36.255-69.341,43.758-107.879c7.767-39.898,7.415-80.468-1.046-120.582
					c-8.461-40.114-24.523-77.369-47.743-110.731c-22.429-32.226-50.556-59.483-83.601-81.017
					c-33.044-21.533-69.34-36.255-107.878-43.758c-39.898-7.767-80.468-7.416-120.582,1.045
					c-24.556,5.18-48.337,13.331-70.68,24.228c-21.696,10.582-42.122,23.788-60.709,39.253
					c-36.476,30.348-65.755,69.45-84.672,113.077l-4.03-1.748c19.189-44.255,48.891-83.919,85.893-114.706
					c18.857-15.689,39.58-29.088,61.593-39.824c22.667-11.055,46.791-19.324,71.7-24.578c40.692-8.583,81.849-8.939,122.327-1.059
					c39.097,7.611,75.917,22.546,109.438,44.389c33.521,21.843,62.055,49.495,84.808,82.188
					c23.557,33.848,39.854,71.643,48.437,112.334c8.582,40.692,8.938,81.849,1.059,122.327
					c-7.611,39.097-22.546,75.917-44.39,109.438c-21.843,33.521-49.495,62.054-82.187,84.808
					C1042.868,821.715,1005.074,838.012,964.382,846.595z"/>
			</g>
		</g>
	</g>
	<g>
		<path fill="#FFFFFF" d="M1041.582,799.609H759.377L618.275,555.212l141.102-244.396h282.205l141.104,244.396L1041.582,799.609z
			 M761.491,795.948h277.978l138.99-240.736l-138.99-240.736H761.491L622.502,555.212L761.491,795.948z"/>
	</g>
	<g>
		<g>
			<path fill="#59595B" d="M896.663,735.348c-24.838,0-48.934-4.865-71.619-14.46c-21.91-9.268-41.587-22.534-58.484-39.431
				c-16.897-16.897-30.163-36.574-39.431-58.484c-9.595-22.686-14.46-46.782-14.46-71.62h5.125c0,24.148,4.729,47.573,14.056,69.624
				c9.009,21.299,21.906,40.429,38.334,56.856c16.428,16.428,35.557,29.325,56.857,38.334c22.05,9.327,45.475,14.056,69.623,14.056
				c24.148,0,47.573-4.729,69.624-14.056c21.299-9.009,40.429-21.906,56.856-38.334s29.325-35.558,38.335-56.856
				c9.326-22.051,14.055-45.476,14.055-69.624s-4.729-47.573-14.055-69.624c-9.01-21.299-21.907-40.429-38.335-56.856
				c-16.428-16.428-35.558-29.326-56.856-38.334c-22.051-9.327-45.476-14.056-69.624-14.056v-5.125
				c24.839,0,48.935,4.865,71.62,14.46c21.91,9.267,41.587,22.533,58.484,39.43c16.896,16.897,30.163,36.574,39.43,58.484
				c9.596,22.686,14.461,46.782,14.461,71.62s-4.865,48.935-14.461,71.62c-9.267,21.91-22.533,41.587-39.43,58.484
				c-16.897,16.896-36.574,30.163-58.484,39.431C945.598,730.482,921.502,735.348,896.663,735.348z"/>
		</g>
		<g>
			<g>
				<g>
					<g>
						<path fill="#DBDBDB" d="M887.382,714.845c1.515,0.083,3.033,0.147,4.555,0.19v-47.912
							c-10.906-0.039-21.953,0.996-33.007,3.082C866.782,685.529,876.276,700.43,887.382,714.845z"/>
					</g>
					<g>
						<path fill="#DBDBDB" d="M827.455,678.939c10.685,11.311,22.968,22.332,36.839,33.044c3.437,0.672,6.904,1.23,10.396,1.688
							c-9.77-13.417-18.218-27.23-25.317-41.397C842.146,674.034,834.83,676.26,827.455,678.939z"/>
					</g>
					<g>
						<path fill="#DBDBDB" d="M836.427,607.258c3.922,18.519,9.997,36.603,18.192,54.157c12.484-2.532,24.98-3.788,37.317-3.745
							v-58.246c-10.147,0.112-20.237,0.923-30.237,2.439C853.215,603.15,844.787,604.954,836.427,607.258z"/>
					</g>
					<g>
						<path fill="#DBDBDB" d="M817.961,682.627c-4.107,1.697-8.229,3.529-12.357,5.5c11.42,7.464,23.656,13.457,36.478,17.88
							C833.297,698.362,825.256,690.566,817.961,682.627z"/>
					</g>
					<g>
						<path fill="#DBDBDB" d="M856.927,436.772c-6.238,14.426-12.283,31.086-16.94,49.419c-0.417,1.64-0.813,3.278-1.201,4.917
							c7.586,2,15.226,3.591,22.913,4.757c10,1.517,20.09,2.327,30.237,2.439v-58.25c-0.203,0.001-0.405,0.006-0.609,0.006
							C879.949,440.061,868.438,438.96,856.927,436.772z"/>
					</g>
					<g>
						<path fill="#DBDBDB" d="M860.915,427.892c10.391,1.842,20.768,2.752,31.021,2.714v-49.221
							c-1.592,0.044-3.179,0.115-4.762,0.203C883.199,387.24,872.153,403.773,860.915,427.892z"/>
					</g>
					<g>
						<path fill="#DBDBDB" d="M834.011,594.117c0.198,1.277,0.409,2.553,0.627,3.826c8.561-2.328,17.192-4.154,25.885-5.464
							c10.393-1.564,20.875-2.397,31.414-2.51v-37.033h-60.858C830.941,566.857,831.914,580.604,834.011,594.117z"/>
					</g>
					<g>
						<path fill="#DBDBDB" d="M836.749,500.348c-2.954,14.504-4.757,28.902-5.408,43.135h60.596v-35.73
							c-10.539-0.111-21.021-0.939-31.414-2.504C852.544,504.047,844.617,502.408,836.749,500.348z"/>
					</g>
					<g>
						<path fill="#DBDBDB" d="M827.627,497.761c-12.288-3.758-24.418-8.569-36.355-14.416c-1.356,3.053-2.642,6.103-3.836,9.149
							c-6.739,17.177-10.899,34.257-12.438,50.988h46.877C822.541,528.393,824.459,513.129,827.627,497.761z"/>
					</g>
					<g>
						<path fill="#DBDBDB" d="M983.488,430.127c9.317,13.015,17.312,26.224,23.902,39.46c12.682-6.598,21.877-12.678,26.726-16.101
							c-5.709-8.248-12.195-16.045-19.438-23.29c-7.165-7.165-14.871-13.589-23.02-19.253c-5.406,3.103-10.773,5.95-16.11,8.547
							C978.173,422.867,980.83,426.414,983.488,430.127z"/>
					</g>
					<g>
						<path fill="#DBDBDB" d="M774.361,561.738c0.452,18.923,4.378,37.355,11.744,55.241c12.916-6.681,26.068-12.139,39.408-16.354
							c-0.309-1.753-0.605-3.509-0.877-5.27c-2.15-13.928-3.15-28.088-3.014-42.419h-47.219
							C774.308,555.884,774.292,558.818,774.361,561.738z"/>
					</g>
					<g>
						<path fill="#DBDBDB" d="M851.329,425.925c8.949-19.584,17.893-34.439,23.634-43.213c-3.539,0.457-7.052,1.021-10.535,1.699
							c-3.583,3.16-17.669,15.974-33.591,35.577C837.731,422.369,844.57,424.353,851.329,425.925z"/>
					</g>
					<g>
						<path fill="#DBDBDB" d="M845.201,663.563c-7.959-17.388-13.924-35.282-17.861-53.601
							c-12.643,4.063-25.116,9.295-37.379,15.671c7.522,15.708,17.745,30.979,30.647,45.77
							C828.873,668.247,837.085,665.625,845.201,663.563z"/>
					</g>
					<g>
						<path fill="#DBDBDB" d="M824.661,427.831c-1.968,2.578-3.946,5.249-5.92,8.011c-9.191,12.861-17.044,25.897-23.465,38.937
							c11.31,5.548,22.791,10.127,34.413,13.723c0.395-1.658,0.799-3.316,1.222-4.976c4.619-18.099,10.474-34.51,16.543-48.808
							C839.93,432.898,832.321,430.598,824.661,427.831z"/>
					</g>
					<g>
						<path fill="#DBDBDB" d="M811.205,430.127c1.424-1.989,2.848-3.929,4.266-5.823c-6.56-2.674-13.149-5.69-19.747-9.028
							c-5.968,4.551-11.677,9.523-17.074,14.92c-7.224,7.224-13.694,14.999-19.393,23.221c9.065,6.343,18.272,12.028,27.606,17.043
							C793.537,456.932,801.683,443.428,811.205,430.127z"/>
					</g>
					<g>
						<path fill="#DBDBDB" d="M778.701,488.874c1.289-3.278,2.675-6.559,4.142-9.841c-9.726-5.202-19.314-11.105-28.748-17.692
							c-15.045,24.589-23.443,52.717-24.256,82.142h35.666C767.064,525.533,771.479,507.236,778.701,488.874z"/>
					</g>
					<g>
						<path fill="#DBDBDB" d="M845.654,389.225c-14.559,4.654-28.41,11.303-41.208,19.822c5.698,2.753,11.379,5.244,17.034,7.477
							C830.5,405.183,839.006,395.958,845.654,389.225z"/>
					</g>
					<g>
						<path fill="#DBDBDB" d="M764.909,561.911c-0.07-2.979-0.059-5.97,0.035-8.974h-35.105c0.822,29.792,9.422,58.253,24.82,83.059
							c7.592-5.276,15.285-10.106,23.067-14.487C769.68,602.27,765.391,582.383,764.909,561.911z"/>
					</g>
					<g>
						<path fill="#DBDBDB" d="M781.619,630.167c-7.334,4.158-14.588,8.734-21.753,13.721c5.548,7.896,11.819,15.37,18.784,22.335
							c5.708,5.709,11.761,10.946,18.105,15.706c4.872-2.44,9.738-4.699,14.592-6.778
							C798.983,660.612,789.063,645.606,781.619,630.167z"/>
					</g>
					<g>
						<path fill="#DBDBDB" d="M904.319,667.633c-0.975-0.077-1.951-0.144-2.929-0.204v47.606c2.003-0.056,3.998-0.152,5.988-0.277
							c10.448-13.572,19.475-27.572,27.041-41.952C924.371,670.148,914.361,668.428,904.319,667.633z"/>
					</g>
					<g>
						<path fill="#DBDBDB" d="M953.526,705.208c9.728-3.517,19.106-7.945,28.034-13.238c-3.063-1.667-6.113-3.249-9.151-4.745
							C966.558,693.307,960.264,699.302,953.526,705.208z"/>
					</g>
					<g>
						<path fill="#DBDBDB" d="M963.325,682.996c-6.592-2.896-13.138-5.393-19.656-7.486c-6.71,12.965-14.555,25.628-23.517,37.956
							c3.609-0.505,7.189-1.128,10.738-1.863C942.901,702.295,953.716,692.756,963.325,682.996z"/>
					</g>
					<g>
						<path fill="#DBDBDB" d="M938.759,664.18c8.679-18.042,15.108-36.651,19.249-55.727c-2.035-0.577-4.096-1.137-6.188-1.673
							c-16.841-4.308-33.699-6.728-50.429-7.258v58.438c1.227,0.071,2.453,0.151,3.676,0.248
							C916.322,659.1,927.522,661.083,938.759,664.18z"/>
					</g>
					<g>
						<path fill="#DBDBDB" d="M1029.784,561.911c-0.487,20.747-4.882,40.892-13.14,60.371c9.997,5.46,17.495,10.391,22.085,13.614
							c15.359-24.782,23.938-53.207,24.759-82.959h-33.738C1029.843,555.94,1029.854,558.932,1029.784,561.911z"/>
					</g>
					<g>
						<path fill="#DBDBDB" d="M1011.479,478.195c1.607,3.561,3.114,7.122,4.514,10.679c7.221,18.362,11.636,36.659,13.196,54.609
							h34.299c-0.812-29.387-9.189-57.48-24.196-82.046C1034.045,465.153,1024.535,471.432,1011.479,478.195z"/>
					</g>
					<g>
						<path fill="#DBDBDB" d="M979.11,680.004c3.819,1.934,7.655,3.994,11.51,6.186c8.531-5.836,16.589-12.498,24.058-19.967
							c6.985-6.985,13.271-14.483,18.832-22.406c-4.235-2.961-11.331-7.629-20.829-12.848
							C1004.439,647.85,993.24,664.21,979.11,680.004z"/>
					</g>
					<g>
						<path fill="#DBDBDB" d="M959.842,599.145c0.295-1.673,0.58-3.348,0.841-5.027c2.097-13.513,3.069-27.26,2.933-41.181h-62.225
							v37.124c17.64,0.536,35.407,3.092,53.146,7.657C956.328,598.18,958.095,598.656,959.842,599.145z"/>
					</g>
					<g>
						<path fill="#DBDBDB" d="M1003.004,482.4c-10.403,4.938-22.557,9.907-36.198,14.132c3.32,15.783,5.329,31.458,6.014,46.951
							h46.877c-1.54-16.73-5.699-33.811-12.438-50.988C1005.939,489.134,1004.518,485.768,1003.004,482.4z"/>
					</g>
					<g>
						<path fill="#DBDBDB" d="M1020.332,561.738c0.069-2.92,0.054-5.854-0.043-8.802H973.07c0.137,14.331-0.863,28.491-3.014,42.419
							c-0.336,2.179-0.709,4.35-1.102,6.518c15.09,4.813,28.3,10.506,39.26,15.997
							C1015.818,599.705,1019.873,580.975,1020.332,561.738z"/>
					</g>
					<g>
						<path fill="#DBDBDB" d="M970.226,675.727c14.476-15.847,25.843-32.254,34.067-49.171
							c-10.424-5.251-22.967-10.713-37.209-15.341c-4.199,19.072-10.604,37.682-19.171,55.734
							C955.315,669.386,962.744,672.309,970.226,675.727z"/>
					</g>
					<g>
						<path fill="#DBDBDB" d="M975.953,435.842c-3.085-4.316-6.181-8.413-9.23-12.274c-6.998,3.06-13.954,5.687-20.889,7.885
							c6.566,15.045,12.975,32.581,17.949,52.073c0.318,1.249,0.629,2.497,0.931,3.746c12.828-4.03,24.331-8.765,34.214-13.471
							C992.597,461.088,984.914,448.382,975.953,435.842z"/>
					</g>
					<g>
						<path fill="#DBDBDB" d="M982.707,405.131c-10.438-6.302-21.503-11.411-33.029-15.258c5.609,5.714,12.468,13.133,19.809,22.043
							C973.867,409.833,978.272,407.572,982.707,405.131z"/>
					</g>
					<g>
						<path fill="#DBDBDB" d="M932.604,425.396c-10.771-22.648-21.141-38.191-25.023-43.721c-2.057-0.132-4.119-0.233-6.189-0.29
							V430.3c0.978-0.06,1.954-0.127,2.929-0.204C913.756,429.348,923.164,427.786,932.604,425.396z"/>
					</g>
					<g>
						<path fill="#DBDBDB" d="M960.519,415.943c-13.985-16.682-26.007-27.756-29.849-31.172c-3.57-0.735-7.175-1.354-10.807-1.856
							c5.432,8.316,13.658,21.971,22.043,39.857C948.082,420.854,954.281,418.58,960.519,415.943z"/>
					</g>
					<g>
						<path fill="#DBDBDB" d="M955.631,489.938c-0.3-1.248-0.607-2.497-0.925-3.746c-4.944-19.465-11.453-37.045-18.097-52.065
							c-10.516,2.766-21.004,4.56-31.543,5.394c-1.223,0.097-2.449,0.179-3.676,0.249v58.437c16.729-0.53,33.588-2.95,50.429-7.258
							C953.102,490.62,954.37,490.281,955.631,489.938z"/>
					</g>
					<g>
						<path fill="#DBDBDB" d="M957.701,499.173c-1.048,0.284-2.101,0.564-3.164,0.838c-17.738,4.566-35.507,7.119-53.146,7.655
							v35.817h61.962C962.684,528.866,960.799,514.074,957.701,499.173z"/>
					</g>
				</g>
			</g>
			<g>
				<g>
					<circle fill="#41DAC5" cx="851.363" cy="430.3" r="25.221"/>
				</g>
				<g opacity="0.5">
					<path fill="#41DAC5" d="M851.363,455.521c-13.929,0-25.221-11.292-25.221-25.221c0-13.93,11.292-25.221,25.221-25.221V455.521z
						"/>
				</g>
			</g>
			<g>
				<g>
					<circle fill="#41DAC5" cx="796.424" cy="694.57" r="17.263"/>
				</g>
				<g opacity="0.5">
					<path fill="#41DAC5" d="M796.424,711.833c-9.534,0-17.263-7.729-17.263-17.263s7.729-17.262,17.263-17.262V711.833z"/>
				</g>
			</g>
			<g>
				<g>
					<circle fill="#41DAC5" cx="1043.583" cy="458.369" r="16.838"/>
				</g>
				<g opacity="0.5">
					<path fill="#41DAC5" d="M1043.584,475.207c-9.3,0-16.839-7.539-16.839-16.838c0-9.3,7.539-16.839,16.839-16.839V475.207z"/>
				</g>
			</g>
			<g>
				<g>
					<path fill="#41DAC5" d="M1047.121,605.285c-21.089,0-38.185,17.096-38.185,38.186c0,21.089,17.096,38.186,38.185,38.186
						c21.09,0,38.187-17.097,38.187-38.186C1085.308,622.381,1068.211,605.285,1047.121,605.285z M1047.121,662.827
						c-10.689,0-19.355-8.667-19.355-19.356s8.666-19.356,19.355-19.356c10.69,0,19.357,8.667,19.357,19.356
						S1057.812,662.827,1047.121,662.827z"/>
				</g>
				<g opacity="0.5">
					<path fill="#41DAC5" d="M1047.121,669.021c-14.111,0-25.551-11.439-25.551-25.551s11.439-25.551,25.551-25.551v-12.635
						c-21.089,0-38.185,17.096-38.185,38.186c0,21.089,17.096,38.186,38.185,38.186V669.021z"/>
				</g>
			</g>
			<g>
				<path fill="#59595B" d="M744.951,524.728l-2.429-2.738l9.857-8.746l2.429,2.738L744.951,524.728z M760.285,511.124l-2.43-2.738
					l9.857-8.746l2.43,2.738L760.285,511.124z M775.619,497.52l-2.43-2.738l9.857-8.746l2.429,2.738L775.619,497.52z
					 M790.953,483.915l-2.429-2.738l9.857-8.746l2.429,2.738L790.953,483.915z M806.286,470.311l-2.429-2.738l9.857-8.745
					l2.429,2.738L806.286,470.311z M821.62,456.707l-2.43-2.738l9.857-8.746l2.43,2.738L821.62,456.707z"/>
			</g>
			<g>
				<path fill="#59595B" d="M1051.319,650.563l-5.298-1.966l0.846-2.279l-1.513-1.523l2.599-2.579l5.302,5.343L1051.319,650.563z
					 M1039.157,646.051l-12.354-4.583l1.273-3.432l12.354,4.583L1039.157,646.051z M1040.197,639.598l-9.283-9.354l2.599-2.578
					l9.282,9.353L1040.197,639.598z M1019.938,638.922l-12.355-4.583l1.273-3.432l12.355,4.583L1019.938,638.922z M1000.72,631.793
					l-12.355-4.583l1.273-3.432l12.354,4.583L1000.72,631.793z M1025.757,625.049l-9.282-9.354l2.598-2.579l9.283,9.354
					L1025.757,625.049z M981.5,624.664l-12.355-4.584l1.273-3.432l12.355,4.584L981.5,624.664z M962.281,617.534l-12.355-4.583
					l1.273-3.432l12.355,4.583L962.281,617.534z M1011.316,610.499l-9.283-9.353l2.599-2.579l9.283,9.353L1011.316,610.499z
					 M943.063,610.405l-12.355-4.583l1.273-3.432l12.354,4.583L943.063,610.405z M923.843,603.276l-0.481-0.179l1.273-3.433
					l0.48,0.179L923.843,603.276z M996.876,595.95l-9.283-9.354l2.599-2.578l9.283,9.353L996.876,595.95z M982.436,581.4
					l-9.282-9.353l2.598-2.579l9.283,9.354L982.436,581.4z M967.996,566.852l-9.283-9.353l2.598-2.579l9.283,9.354L967.996,566.852z
					 M953.556,552.303l-9.283-9.354l2.598-2.579l9.283,9.353L953.556,552.303z M939.115,537.753l-9.283-9.353l2.598-2.579
					l9.283,9.353L939.115,537.753z M924.675,523.204l-9.283-9.353l2.599-2.579l9.283,9.353L924.675,523.204z M910.234,508.655
					l-9.283-9.353l2.598-2.579l9.283,9.353L910.234,508.655z M895.794,494.106l-9.283-9.353l2.598-2.579l9.283,9.354
					L895.794,494.106z M881.354,479.557l-9.283-9.353l2.598-2.579l9.283,9.353L881.354,479.557z M866.913,465.007l-9.283-9.353
					l2.598-2.579l9.283,9.354L866.913,465.007z"/>
			</g>
			<g>
				<g>
					
						<rect x="813.541" y="674.235" transform="matrix(0.6928 0.7211 -0.7211 0.6928 739.0302 -379.8484)" fill="#59595B" width="3.661" height="6.589"/>
				</g>
				<g>
					<path fill="#59595B" d="M824.061,671.717l-2.537-2.639l9.083-8.729l2.536,2.64L824.061,671.717z M838.188,658.14l-2.536-2.64
						l9.083-8.729l2.536,2.64L838.188,658.14z M852.316,644.562l-2.537-2.64l9.083-8.729l2.537,2.64L852.316,644.562z
						 M866.444,630.983l-2.537-2.64l9.083-8.728l2.537,2.64L866.444,630.983z M880.572,617.406l-2.537-2.64l9.083-8.729l2.537,2.64
						L880.572,617.406z"/>
				</g>
				<g>
					
						<rect x="893.976" y="596.931" transform="matrix(0.6928 0.7211 -0.7211 0.6928 707.9939 -461.5967)" fill="#59595B" width="3.661" height="6.589"/>
				</g>
			</g>
			<g>
				<path fill="#59595B" d="M885.734,592.249l-4.54-1.299l1.006-3.52l4.54,1.298L885.734,592.249z M874.156,588.938l-12.67-3.623
					l1.006-3.52l12.67,3.623L874.156,588.938z M854.447,583.302l-12.67-3.623l1.006-3.52l12.67,3.623L854.447,583.302z
					 M834.738,577.666l-12.67-3.623l1.007-3.52l12.67,3.622L834.738,577.666z M815.03,572.029l-12.67-3.623l1.006-3.52l12.67,3.623
					L815.03,572.029z M795.321,566.394l-12.67-3.623l1.006-3.52l12.67,3.623L795.321,566.394z M775.612,560.758l-12.67-3.623
					l1.006-3.52l12.67,3.623L775.612,560.758z M755.903,555.122l-12.67-3.623l1.006-3.519l12.67,3.623L755.903,555.122z"/>
			</g>
			<g>
				<g>
					<circle fill="#41DAC5" cx="905.051" cy="594.679" r="22.607"/>
				</g>
				<g opacity="0.5">
					<path fill="#41DAC5" d="M905.051,617.286c-12.485,0-22.607-10.122-22.607-22.607c0-12.486,10.122-22.607,22.607-22.607V617.286
						z"/>
				</g>
			</g>
			<g>
				<path fill="#59595B" d="M1019.018,463.648l-2.717-0.6l0.79-3.575l2.716,0.6L1019.018,463.648z M1009.152,461.468l-12.867-2.843
					l0.79-3.574l12.867,2.843L1009.152,461.468z M989.137,457.045l-12.868-2.843l0.79-3.575l12.867,2.844L989.137,457.045z
					 M969.12,452.622l-12.867-2.844l0.79-3.574l12.867,2.844L969.12,452.622z M949.104,448.199l-12.867-2.843l0.79-3.575
					l12.867,2.844L949.104,448.199z M929.088,443.776l-12.867-2.844l0.791-3.574l12.867,2.843L929.088,443.776z M909.072,439.353
					l-12.867-2.843l0.79-3.574l12.867,2.843L909.072,439.353z M889.057,434.93l-12.867-2.843l0.79-3.574l12.868,2.843
					L889.057,434.93z"/>
			</g>
			<g>
				<path fill="#59595B" d="M744.255,551.494l-1.037-3.511l12.638-3.732l1.037,3.511L744.255,551.494z M763.915,545.688l-1.037-3.51
					l12.638-3.732l1.037,3.51L763.915,545.688z M783.574,539.883l-1.037-3.511l12.639-3.732l1.036,3.511L783.574,539.883z
					 M803.233,534.078l-1.037-3.51l12.638-3.732l1.037,3.511L803.233,534.078z M822.893,528.272l-1.037-3.511l12.638-3.732
					l1.037,3.511L822.893,528.272z M842.553,522.467l-1.037-3.511l12.638-3.732l1.037,3.511L842.553,522.467z M862.212,516.661
					l-1.036-3.51l12.638-3.732l1.037,3.511L862.212,516.661z M881.872,510.856l-1.037-3.511l12.638-3.732l1.037,3.511
					L881.872,510.856z M901.531,505.05l-1.037-3.511l12.638-3.732l1.037,3.511L901.531,505.05z M921.191,499.245l-1.037-3.511
					l12.639-3.732l1.036,3.511L921.191,499.245z M940.851,493.439l-1.037-3.511l12.639-3.732l1.036,3.511L940.851,493.439z
					 M960.51,487.634l-1.037-3.511l12.639-3.732l1.037,3.511L960.51,487.634z M980.17,481.829l-1.037-3.511l12.639-3.732
					l1.036,3.511L980.17,481.829z M999.829,476.023l-1.037-3.511l12.639-3.732l1.036,3.511L999.829,476.023z M1019.488,470.218
					l-1.036-3.511l7.774-2.296l1.037,3.511L1019.488,470.218z"/>
			</g>
			<g>
				<g>
					<circle fill="#41DAC5" cx="722.517" cy="548.011" r="28.297"/>
				</g>
				<g opacity="0.5">
					<path fill="#41DAC5" d="M722.518,576.309c-15.628,0-28.297-12.669-28.297-28.297c0-15.628,12.669-28.297,28.297-28.297V576.309
						z"/>
				</g>
			</g>
		</g>
		<g>
			<path fill="#59595B" d="M891.076,380.759c-5.977,0-10.839-4.862-10.839-10.839c0-5.976,4.862-10.838,10.839-10.838
				c5.976,0,10.838,4.862,10.838,10.838C901.914,375.896,897.052,380.759,891.076,380.759z M891.076,364.207
				c-3.15,0-5.714,2.563-5.714,5.713c0,3.151,2.563,5.714,5.714,5.714s5.713-2.563,5.713-5.714
				C896.79,366.77,894.227,364.207,891.076,364.207z"/>
		</g>
	</g>
	<g>
		<g>
			<g>
				<rect x="350.053" y="232.893" fill="#A5A6A9" width="246.271" height="161.489"/>
			</g>
			<g>
				<rect x="371.396" y="254.963" fill="#DBDBDB" width="203.584" height="117.349"/>
			</g>
			<g>
				<path fill="#E5E5E6" d="M584.104,382.163H362.272v-137.05h221.832V382.163z M364.103,380.333h218.172v-133.39H364.103V380.333z"
					/>
			</g>
		</g>
		<g>
			<polygon fill="#59595B" points="612.194,426.513 334.183,426.513 350.053,394.382 596.324,394.382 			"/>
		</g>
		<g>
			<polygon fill="#A5A6A9" points="595.958,419.774 350.419,419.774 359.879,399.852 586.498,399.852 			"/>
		</g>
		<g>
			<rect x="352.185" y="412.914" fill="#E5E5E6" width="242.343" height="1.83"/>
		</g>
		<g>
			<rect x="356.892" y="405.296" fill="#E5E5E6" width="232.928" height="1.831"/>
		</g>
	</g>
	<g>
		<path fill="#41DAC5" d="M424.193,280.999v65.277h97.992v-65.277H424.193z M517.39,289.85l-44.202,27.056l-44.201-27.056v-4.057
			h88.403V289.85z M460.104,313.462l13.085,8.014l13.265-8.124l28.431,28.13h-83.101L460.104,313.462z M489.877,311.255
			l27.513-16.849v44.071L489.877,311.255z M456.68,311.366l-27.693,27.4v-44.359L456.68,311.366z"/>
	</g>
	<g>
		<g>
			<g>
				<g>
					<path fill="#E5E5E6" d="M621.286,901.354c-15.871,0-28.737,6.672-28.737,14.901c0,8.23,12.866,14.902,28.737,14.902
						c15.871,0,28.737-6.672,28.737-14.902C650.023,908.026,637.157,901.354,621.286,901.354z M621.286,929.18
						c-13.763,0-24.92-5.786-24.92-12.924c0-7.137,11.158-12.923,24.92-12.923s24.92,5.786,24.92,12.923
						C646.207,923.394,635.049,929.18,621.286,929.18z"/>
				</g>
			</g>
			<g>
				<g>
					<path fill="#E5E5E6" d="M621.286,896.993c-24.414,0-44.205,10.263-44.205,22.923c0,12.661,19.791,22.925,44.205,22.925
						s44.205-10.264,44.205-22.925C665.491,907.256,645.7,896.993,621.286,896.993z M621.286,941.241
						c-22.711,0-41.122-9.547-41.122-21.325c0-11.776,18.411-21.324,41.122-21.324s41.122,9.548,41.122,21.324
						C662.408,931.694,643.997,941.241,621.286,941.241z"/>
				</g>
			</g>
			<g>
				<g>
					<path fill="#E5E5E6" d="M621.286,892.966c-32.601,0-59.029,13.706-59.029,30.611c0,16.906,26.428,30.611,59.029,30.611
						s59.029-13.705,59.029-30.611C680.315,906.672,653.887,892.966,621.286,892.966z M621.286,952.338
						c-30.63,0-55.461-12.877-55.461-28.761s24.831-28.761,55.461-28.761c30.63,0,55.461,12.877,55.461,28.761
						S651.916,952.338,621.286,952.338z"/>
				</g>
			</g>
		</g>
		<g>
			<g>
				<rect x="674.106" y="943.342" fill="#59595B" width="24.708" height="24.708"/>
			</g>
			<g>
				<rect x="511.622" y="716.286" fill="#59595B" width="24.708" height="24.708"/>
			</g>
			<g>
				<rect x="450.786" y="753.397" fill="#59595B" width="24.708" height="24.707"/>
			</g>
			<g>
				
					<rect x="542.834" y="946.945" transform="matrix(0.8951 0.446 -0.446 0.8951 486.0794 -146.9163)" fill="#59595B" width="24.707" height="24.707"/>
			</g>
			<g>
				<rect x="775.333" y="943.342" fill="#59595B" width="24.708" height="24.708"/>
			</g>
			<g>
				<rect x="780.687" y="848.746" fill="#59595B" width="24.708" height="24.707"/>
			</g>
			<g>
				<path fill="#41DAC5" d="M590.51,850.298L590.51,850.298L590.51,850.298c0,2.563,0.294,5.057,0.841,7.453
					c0.621,2.716,1.57,5.307,2.806,7.728c0,0,0.647,1.145,1.063,1.932c0.466,0.688,0.689,1.122,1.059,1.668l24.997,43.034
					l0.205-0.344v-0.002l25.393-42.704c0.132-0.194,0.255-0.394,0.383-0.592l0.693-1.063l0.491-0.895
					c2.668-4.805,4.192-10.331,4.192-16.215c0-18.464-12.599-31.063-31.063-31.063c-17.312,0-29.466,11.076-30.916,27.677
					c-0.003,0.033-0.005,0.067-0.007,0.101c-0.021,0.243-0.041,0.487-0.056,0.733c0,0.007-0.001,0.014-0.001,0.021
					c-0.018,0.272-0.032,0.547-0.044,0.821c0,0.015,0,0.029-0.001,0.043C590.521,849.181,590.51,849.736,590.51,850.298z
					 M604.708,848.795c0-0.292,0.008-0.582,0.022-0.87c0.005-0.108,0.017-0.216,0.024-0.325c0.013-0.177,0.022-0.355,0.04-0.531
					c0.016-0.149,0.038-0.298,0.057-0.447c0.017-0.132,0.03-0.266,0.05-0.396c0.027-0.177,0.061-0.351,0.094-0.525
					c0.018-0.102,0.033-0.203,0.054-0.304c0.041-0.199,0.089-0.396,0.136-0.593c0.018-0.074,0.032-0.148,0.051-0.222
					c0.056-0.22,0.12-0.436,0.184-0.652c0.015-0.048,0.026-0.098,0.042-0.146c0.075-0.241,0.156-0.479,0.241-0.716
					c0.008-0.021,0.015-0.044,0.022-0.065c2.366-6.502,8.601-11.146,15.921-11.146c9.353,0,16.936,7.584,16.936,16.939
					c0,9.354-7.583,16.938-16.936,16.938c-6.74,0-12.56-3.938-15.287-9.636c0-0.002-0.001-0.003-0.001-0.005
					c-0.117-0.243-0.228-0.489-0.333-0.739c-0.011-0.025-0.02-0.052-0.031-0.077c-0.094-0.227-0.185-0.455-0.269-0.686
					c-0.018-0.049-0.033-0.1-0.051-0.149c-0.074-0.209-0.146-0.419-0.212-0.632c-0.023-0.074-0.043-0.151-0.064-0.226
					c-0.056-0.19-0.113-0.38-0.162-0.573c-0.025-0.098-0.045-0.197-0.068-0.295c-0.041-0.173-0.083-0.345-0.12-0.52
					c-0.024-0.12-0.042-0.243-0.064-0.363c-0.028-0.156-0.06-0.311-0.083-0.467c-0.022-0.146-0.038-0.295-0.056-0.442
					c-0.018-0.134-0.038-0.268-0.052-0.402c-0.019-0.186-0.03-0.374-0.042-0.562c-0.006-0.1-0.017-0.196-0.022-0.295
					C604.716,849.376,604.708,849.086,604.708,848.795z"/>
			</g>
			<g>
				<path fill="#A5A6A9" d="M708.928,884.375L708.928,884.375L708.928,884.375c0,2.188,0.25,4.315,0.718,6.361
					c0.53,2.317,1.339,4.529,2.395,6.595c0,0,0.552,0.977,0.908,1.648c0.397,0.588,0.588,0.958,0.903,1.424l21.333,36.727
					l0.175-0.293v-0.001l21.671-36.445c0.113-0.166,0.218-0.337,0.327-0.505l0.592-0.909l0.419-0.763
					c2.277-4.101,3.579-8.817,3.579-13.839c0-15.757-10.753-26.51-26.51-26.51c-14.774,0-25.148,9.452-26.385,23.62
					c-0.002,0.028-0.004,0.057-0.006,0.085c-0.018,0.208-0.034,0.416-0.048,0.627c0,0.005-0.001,0.011-0.001,0.017
					c-0.015,0.232-0.028,0.467-0.038,0.702c0,0.012,0,0.024-0.001,0.036C708.938,883.422,708.928,883.896,708.928,884.375z
					 M721.046,883.093c0-0.249,0.006-0.496,0.019-0.742c0.005-0.093,0.015-0.185,0.021-0.277c0.011-0.151,0.02-0.304,0.035-0.454
					c0.013-0.128,0.032-0.254,0.048-0.382c0.015-0.112,0.026-0.226,0.043-0.338c0.023-0.15,0.052-0.3,0.08-0.449
					c0.016-0.086,0.029-0.173,0.046-0.259c0.035-0.17,0.076-0.338,0.116-0.506c0.015-0.063,0.028-0.127,0.043-0.189
					c0.048-0.188,0.102-0.372,0.158-0.556c0.012-0.042,0.022-0.084,0.035-0.125c0.063-0.206,0.133-0.409,0.205-0.611
					c0.007-0.018,0.013-0.037,0.019-0.056c2.02-5.549,7.341-9.513,13.588-9.513c7.982,0,14.454,6.473,14.454,14.457
					c0,7.982-6.472,14.455-14.454,14.455c-5.752,0-10.719-3.359-13.046-8.224c-0.001-0.002-0.001-0.003-0.001-0.004
					c-0.099-0.208-0.194-0.418-0.284-0.631c-0.009-0.021-0.017-0.044-0.026-0.066c-0.081-0.193-0.158-0.387-0.229-0.585
					c-0.015-0.042-0.028-0.085-0.043-0.127c-0.063-0.179-0.125-0.357-0.181-0.54c-0.021-0.063-0.036-0.129-0.056-0.192
					c-0.047-0.162-0.095-0.324-0.138-0.488c-0.021-0.084-0.038-0.168-0.058-0.252c-0.035-0.148-0.072-0.295-0.102-0.444
					c-0.021-0.103-0.037-0.207-0.056-0.31c-0.024-0.133-0.05-0.265-0.07-0.398c-0.019-0.125-0.032-0.252-0.048-0.377
					c-0.015-0.115-0.031-0.229-0.043-0.344c-0.016-0.159-0.025-0.319-0.037-0.479c-0.005-0.084-0.015-0.167-0.019-0.252
					C721.052,883.588,721.046,883.342,721.046,883.093z"/>
			</g>
			<g>
				<path fill="#A5A6A9" d="M476.777,906.995L476.777,906.995L476.777,906.995c0,2.187,0.25,4.314,0.718,6.36
					c0.53,2.317,1.34,4.529,2.395,6.595c0,0,0.553,0.978,0.908,1.649c0.397,0.588,0.588,0.957,0.903,1.423l21.333,36.727
					l0.175-0.292v-0.002l21.672-36.445c0.112-0.166,0.218-0.337,0.327-0.505l0.592-0.908l0.419-0.764
					c2.277-4.101,3.579-8.817,3.579-13.838c0-15.758-10.753-26.511-26.511-26.511c-14.774,0-25.147,9.453-26.385,23.62
					c-0.003,0.028-0.004,0.057-0.006,0.085c-0.018,0.208-0.035,0.417-0.048,0.627c0,0.005,0,0.011-0.001,0.017
					c-0.015,0.232-0.028,0.467-0.038,0.702c-0.001,0.012-0.001,0.024-0.001,0.036C476.787,906.041,476.777,906.516,476.777,906.995z
					 M488.895,905.712c0-0.249,0.007-0.496,0.019-0.742c0.004-0.093,0.014-0.185,0.021-0.277c0.011-0.151,0.02-0.304,0.034-0.454
					c0.013-0.128,0.032-0.254,0.049-0.381c0.014-0.113,0.026-0.227,0.042-0.339c0.023-0.15,0.052-0.3,0.08-0.449
					c0.016-0.086,0.029-0.173,0.046-0.259c0.035-0.17,0.076-0.338,0.116-0.506c0.015-0.063,0.028-0.127,0.043-0.189
					c0.048-0.187,0.102-0.372,0.157-0.557c0.012-0.041,0.022-0.083,0.035-0.124c0.064-0.206,0.133-0.409,0.206-0.61
					c0.006-0.019,0.012-0.037,0.019-0.057c2.019-5.549,7.34-9.513,13.588-9.513c7.982,0,14.454,6.473,14.454,14.457
					c0,7.983-6.472,14.455-14.454,14.455c-5.752,0-10.719-3.359-13.046-8.224c-0.001-0.001-0.002-0.003-0.002-0.004
					c-0.1-0.207-0.194-0.418-0.284-0.631c-0.009-0.021-0.017-0.044-0.026-0.066c-0.08-0.192-0.158-0.388-0.229-0.584
					c-0.015-0.043-0.028-0.086-0.043-0.128c-0.063-0.179-0.125-0.357-0.182-0.54c-0.02-0.063-0.036-0.128-0.055-0.192
					c-0.048-0.162-0.096-0.324-0.138-0.488c-0.021-0.083-0.038-0.168-0.058-0.252c-0.035-0.147-0.071-0.294-0.102-0.444
					c-0.021-0.103-0.037-0.207-0.056-0.31c-0.023-0.133-0.05-0.265-0.07-0.398c-0.02-0.125-0.032-0.252-0.048-0.378
					c-0.015-0.114-0.032-0.228-0.044-0.343c-0.016-0.159-0.025-0.319-0.036-0.479c-0.006-0.084-0.015-0.167-0.019-0.252
					C488.901,906.207,488.895,905.961,488.895,905.712z"/>
			</g>
			<g>
				<path fill="#A5A6A9" d="M495.416,792.262L495.416,792.262L495.416,792.262c0,2.188,0.25,4.314,0.718,6.36
					c0.53,2.317,1.34,4.529,2.395,6.595c0,0,0.553,0.978,0.908,1.649c0.397,0.588,0.588,0.957,0.903,1.423l21.333,36.727
					l0.175-0.292v-0.002l21.671-36.445c0.112-0.166,0.218-0.337,0.327-0.505l0.592-0.908l0.418-0.764
					c2.277-4.101,3.579-8.816,3.579-13.838c0-15.758-10.753-26.511-26.511-26.511c-14.774,0-25.147,9.452-26.385,23.62
					c-0.002,0.028-0.004,0.058-0.007,0.086c-0.017,0.208-0.034,0.416-0.047,0.626c0,0.006,0,0.012,0,0.017
					c-0.016,0.233-0.028,0.467-0.038,0.702c-0.001,0.012-0.001,0.024-0.001,0.036C495.426,791.309,495.416,791.782,495.416,792.262z
					 M507.533,790.979c0-0.249,0.006-0.496,0.019-0.742c0.004-0.093,0.014-0.185,0.021-0.277c0.011-0.151,0.02-0.304,0.035-0.453
					c0.013-0.129,0.032-0.255,0.049-0.382c0.014-0.112,0.025-0.227,0.042-0.339c0.023-0.15,0.052-0.299,0.08-0.448
					c0.016-0.087,0.029-0.174,0.046-0.26c0.034-0.17,0.075-0.338,0.116-0.506c0.015-0.063,0.027-0.127,0.043-0.188
					c0.048-0.188,0.102-0.372,0.157-0.557c0.013-0.041,0.022-0.084,0.035-0.125c0.064-0.206,0.133-0.409,0.206-0.61
					c0.006-0.019,0.012-0.037,0.019-0.056c2.019-5.55,7.34-9.513,13.588-9.513c7.982,0,14.454,6.472,14.454,14.456
					c0,7.983-6.472,14.455-14.454,14.455c-5.752,0-10.719-3.359-13.046-8.224c-0.001-0.001-0.002-0.002-0.002-0.003
					c-0.1-0.208-0.194-0.418-0.284-0.632c-0.009-0.021-0.017-0.044-0.026-0.065c-0.08-0.193-0.158-0.389-0.229-0.586
					c-0.015-0.041-0.028-0.084-0.043-0.127c-0.063-0.178-0.125-0.357-0.182-0.539c-0.02-0.063-0.036-0.129-0.055-0.193
					c-0.048-0.162-0.096-0.324-0.138-0.488c-0.021-0.084-0.039-0.168-0.059-0.252c-0.035-0.147-0.071-0.295-0.102-0.443
					c-0.021-0.104-0.037-0.207-0.056-0.311c-0.023-0.133-0.05-0.265-0.07-0.398c-0.019-0.125-0.032-0.251-0.048-0.377
					c-0.015-0.114-0.032-0.228-0.044-0.343c-0.016-0.159-0.025-0.32-0.036-0.48c-0.006-0.084-0.015-0.167-0.019-0.252
					C507.54,791.475,507.533,791.228,507.533,790.979z"/>
			</g>
		</g>
	</g>
	<g>
		<g>
			<rect x="1343.482" y="176.603" fill="#A5A6A9" width="167.39" height="201.441"/>
		</g>
		<g>
			<rect x="1362.002" y="195.726" fill="#DBDBDB" width="130.352" height="152.557"/>
		</g>
		<g>
			<circle fill="#DBDBDB" cx="1427.177" cy="366.502" r="7.148"/>
		</g>
		<g>
			<path fill="#DBDBDB" d="M1499.709,355.783h-145.063V188.225h145.063V355.783z M1356.477,353.953h141.402V190.055h-141.402
				V353.953z"/>
		</g>
		<g>
			<g>
				<rect x="1375.747" y="210.059" fill="#41DAC5" width="17.991" height="17.992"/>
			</g>
			<g>
				<rect x="1403.717" y="210.059" fill="#41DAC5" width="17.992" height="17.992"/>
			</g>
			<g>
				<rect x="1432.646" y="210.059" fill="#41DAC5" width="17.991" height="17.992"/>
			</g>
			<g>
				<rect x="1460.615" y="210.059" fill="#41DAC5" width="17.992" height="17.992"/>
			</g>
		</g>
		<g>
			<g>
				<rect x="1375.747" y="241.013" fill="#41DAC5" width="17.991" height="17.992"/>
			</g>
			<g>
				<rect x="1403.717" y="241.013" fill="#41DAC5" width="17.992" height="17.992"/>
			</g>
			<g>
				<rect x="1432.646" y="241.013" fill="#41DAC5" width="17.991" height="17.992"/>
			</g>
			<g>
				<rect x="1460.615" y="241.013" fill="#41DAC5" width="17.992" height="17.992"/>
			</g>
		</g>
		<g>
			<g>
				<rect x="1375.747" y="271.967" fill="#41DAC5" width="17.991" height="17.992"/>
			</g>
			<g>
				<rect x="1403.717" y="271.967" fill="#41DAC5" width="17.992" height="17.992"/>
			</g>
			<g>
				<rect x="1432.646" y="271.967" fill="#41DAC5" width="17.991" height="17.992"/>
			</g>
			<g>
				<rect x="1460.615" y="271.967" fill="#41DAC5" width="17.992" height="17.992"/>
			</g>
		</g>
		<g>
			<g>
				<rect x="1375.747" y="302.921" fill="#41DAC5" width="17.991" height="17.992"/>
			</g>
			<g>
				<rect x="1403.717" y="302.921" fill="#41DAC5" width="17.992" height="17.992"/>
			</g>
		</g>
	</g>
	<g>
		<g>
			<g>
				<rect x="1131.068" y="733.793" fill="#59595B" width="173.668" height="113.881"/>
			</g>
			<g>
				<rect x="1146.119" y="749.357" fill="#DBDBDB" width="143.566" height="82.753"/>
			</g>
			<g>
				<rect x="1192.008" y="847.674" fill="#A5A6A9" width="51.79" height="14.634"/>
			</g>
			<g>
				<rect x="1176.801" y="862.308" fill="#59595B" width="82.203" height="7.894"/>
			</g>
			<g>
				<path fill="#A5A6A9" d="M1296.389,839.326h-156.973v-97.186h156.973V839.326z M1141.246,837.496h153.313v-93.525h-153.313
					V837.496z"/>
			</g>
		</g>
		<g>
			<rect x="1185.499" y="782.497" fill="#41DAC5" width="24.161" height="16.474"/>
		</g>
		<g>
			<rect x="1220.115" y="782.497" fill="#7C8088" width="24.161" height="16.474"/>
		</g>
		<g>
			<path fill="#59595B" d="M1268.835,807.421l-26.739-20.126c-3.1-2.332-2.918,1.241-2.897,1.551
				c0.001,0.013,0.001,0.021,0.003,0.021v0.003l2.325,32.977c0.001,0.021,0.005,0.05,0.008,0.086
				c0.054,0.529,0.354,2.554,1.759,0.755l3.123-4.002l0,0l4.593-5.886l6.684,12.292l4.662-2.535l-6.704-12.33l12.467-1.1
				l-0.148,0.014c0.02-0.001,0.122-0.01,0.164-0.015l0.008-0.001C1268.672,809.071,1270.633,808.824,1268.835,807.421z"/>
		</g>
		<g>
			<rect x="1185.499" y="772.428" fill="#59595B" width="53.69" height="1.83"/>
		</g>
		<g>
			<rect x="1185.499" y="767.696" fill="#59595B" width="53.69" height="1.83"/>
		</g>
	</g>
	<g>
		<g>
			<polygon fill="#A5A6A9" points="1254.641,269.216 1295.923,269.216 1295.923,246.06 1254.641,246.06 1254.641,235.193 
				1232.195,257.638 1254.641,280.083 			"/>
		</g>
		<g>
			<polygon fill="#A5A6A9" points="1306.543,208.751 1265.26,208.751 1265.26,231.907 1306.543,231.907 1306.543,242.774 
				1328.987,220.33 1306.543,197.885 			"/>
		</g>
	</g>
	<g>
		<g>
			<g>
				<path fill="#41DAC5" d="M1303.188,537.419c0,28.7,23.267,51.967,51.967,51.967c28.701,0,51.967-23.267,51.967-51.967
					c0-28.701-23.266-51.967-51.967-51.967C1326.454,485.452,1303.188,508.718,1303.188,537.419z M1320.383,537.419
					c0-19.205,15.567-34.772,34.771-34.772c19.205,0,34.773,15.568,34.773,34.772c0,19.204-15.568,34.772-34.773,34.772
					C1335.95,572.191,1320.383,556.623,1320.383,537.419z"/>
			</g>
			<g opacity="0.5">
				<path fill="#41DAC5" d="M1355.154,572.191c19.205,0,34.773-15.568,34.773-34.772c0-19.205-15.568-34.772-34.773-34.772v-17.194
					c28.701,0,51.967,23.266,51.967,51.967c0,28.7-23.266,51.967-51.967,51.967V572.191z"/>
			</g>
		</g>
		<g>
			<path fill="#41DAC5" d="M1471.171,545.722c0,11.698,9.483,21.182,21.183,21.182c11.698,0,21.182-9.484,21.182-21.182
				c0-11.699-9.483-21.183-21.182-21.183C1480.654,524.54,1471.171,534.023,1471.171,545.722z M1481.616,545.722
				c0-5.93,4.807-10.737,10.737-10.737c5.93,0,10.736,4.807,10.736,10.737c0,5.93-4.807,10.737-10.736,10.737
				C1486.423,556.459,1481.616,551.652,1481.616,545.722z"/>
		</g>
		<g opacity="0.5">
			<path fill="#7DB7C9" d="M1492.354,559.896c7.827,0,14.173-6.346,14.173-14.173c0-7.828-6.346-14.174-14.173-14.174v-7.009
				c11.698,0,21.182,9.484,21.182,21.183c0,11.698-9.483,21.182-21.182,21.182V559.896z"/>
		</g>
		<g>
			<circle fill="#41DAC5" cx="1388.398" cy="437.87" r="17.892"/>
		</g>
		<g>
			<circle fill="#A5A6A9" cx="1314.664" cy="639.811" r="23.234"/>
		</g>
		<g>
			<circle fill="#A5A6A9" cx="1286.118" cy="460.939" r="9.642"/>
		</g>
		<g>
			<circle fill="#A5A6A9" cx="1414.946" cy="484.841" r="9.641"/>
		</g>
		<g>
			<circle fill="#41DAC5" cx="1232.196" cy="547.945" r="13.149"/>
		</g>
	</g>
	<g>
		<polygon fill="#DBDBDB" points="431.2,550.523 306.708,550.523 306.708,637.818 370.932,637.818 408.028,678.441 398.483,637.818 
			431.2,637.818 		"/>
	</g>
	<g>
		<g>
			
				<ellipse transform="matrix(0.1757 -0.9844 0.9844 0.1757 348.0713 814.0695)" fill="#41DAC5" cx="660.168" cy="199.179" rx="14.52" ry="8.651"/>
		</g>
		<g>
			<path fill="#41DAC5" d="M662.506,151.969c-25.987,0-47.053,21.066-47.053,47.054c0,25.986,21.066,47.053,47.053,47.053
				s47.053-21.066,47.053-47.053C709.56,173.035,688.493,151.969,662.506,151.969z M691.796,218.379
				c-5.514,3.881-10.384,3.143-10.384,3.143c-1.391-0.147-2.591-0.471-3.972-1.012c-0.754-0.295-1.482-0.677-2.149-1.189
				c-2.3-1.77-3.016-3.659-3.239-5.767l-0.103-0.076l0.061-0.382c-0.016-0.215-0.027-0.435-0.037-0.653
				c-3.894,4.806-9.572,7.426-15.315,6.401c-9.085-1.622-14.879-11.742-12.939-22.602c1.938-10.86,10.876-18.348,19.961-16.727
				c5.562,0.993,9.878,5.178,11.954,10.76l1.368-8.61l6.118,1.09l-4.554,28.417c0.224,1.082,0.757,2.349,1.988,3.098
				c2.465,1.501,6.603,0.69,8.587-2.764c0.049-0.103,0.093-0.206,0.14-0.309c0.148-0.326,0.294-0.655,0.431-0.988
				c1.42-3.449,2.209-7.225,2.209-11.188c0-16.244-13.167-29.412-29.41-29.412c-16.243,0-29.411,13.168-29.411,29.412
				c0,16.242,13.168,29.41,29.411,29.41c5.088,0,9.876-1.293,14.05-3.568l4.505,6.223c-5.458,3.165-11.792,4.986-18.555,4.986
				c-20.463,0-37.051-16.588-37.051-37.05c0-20.463,16.588-37.052,37.051-37.052c20.357,0,36.875,16.422,37.043,36.742
				C699.645,211.125,694.025,216.677,691.796,218.379z"/>
		</g>
	</g>
	<g>
		<g>
			<path fill="#59595B" d="M348.405,753.784v-78.561H122.36v78.561H348.405z M333.599,679.397h8.028v8.027h-8.028V679.397z
				 M333.599,741.033h8.028v8.028h-8.028V741.033z M317.844,679.397h8.027v8.027h-8.027V679.397z M317.844,741.033h8.027v8.028
				h-8.027V741.033z M302.088,679.397h8.028v8.027h-8.028V679.397z M302.088,741.033h8.028v8.028h-8.028V741.033z M286.333,679.397
				h8.028v8.027h-8.028V679.397z M286.333,741.033h8.028v8.028h-8.028V741.033z M270.578,679.397h8.028v8.027h-8.028V679.397z
				 M270.578,741.033h8.028v8.028h-8.028V741.033z M254.823,679.397h8.028v8.027h-8.028V679.397z M254.823,741.033h8.028v8.028
				h-8.028V741.033z M239.068,679.397h8.027v8.027h-8.027V679.397z M239.068,741.033h8.027v8.028h-8.027V741.033z M223.313,679.397
				h8.028v8.027h-8.028V679.397z M223.313,741.033h8.028v8.028h-8.028V741.033z M207.558,679.397h8.028v8.027h-8.028V679.397z
				 M207.558,741.033h8.028v8.028h-8.028V741.033z M191.803,679.397h8.028v8.027h-8.028V679.397z M191.803,741.033h8.028v8.028
				h-8.028V741.033z M176.048,679.397h8.028v8.027h-8.028V679.397z M176.048,741.033h8.028v8.028h-8.028V741.033z M160.293,679.397
				h8.028v8.027h-8.028V679.397z M160.293,741.033h8.028v8.028h-8.028V741.033z M144.538,679.397h8.028v8.027h-8.028V679.397z
				 M144.538,741.033h8.028v8.028h-8.028V741.033z M128.783,679.397h8.028v8.027h-8.028V679.397z M128.783,741.033h8.028v8.028
				h-8.028V741.033z"/>
		</g>
		<g>
			<rect x="309.661" y="691.752" fill="#DBDBDB" width="31.966" height="45.504"/>
		</g>
		<g>
			<rect x="273.485" y="691.752" fill="#7C8088" width="31.966" height="45.504"/>
		</g>
		<g>
			<rect x="237.31" y="691.752" fill="#41DAC5" width="31.966" height="45.504"/>
		</g>
		<g>
			<rect x="201.134" y="691.752" fill="#DBDBDB" width="31.965" height="45.504"/>
		</g>
		<g>
			<rect x="164.958" y="691.752" fill="#DBDBDB" width="31.966" height="45.504"/>
		</g>
		<g>
			<rect x="128.783" y="691.752" fill="#DBDBDB" width="31.966" height="45.504"/>
		</g>
	</g>
	<g>
		<g>
			<rect x="1580.99" y="233.528" fill="#59595B" width="75.579" height="96.706"/>
		</g>
		<g>
			<rect x="1587.952" y="240.933" fill="#FFFFFF" width="61.655" height="72.502"/>
		</g>
		<g>
			<rect x="1587.952" y="313.435" fill="#59595B" width="0" height="0"/>
		</g>
		<g>
			<polygon fill="#DBDBDB" points="1587.952,313.841 1587.952,298.028 1603.104,254.678 1649.607,313.841 			"/>
		</g>
		<g>
			<polygon fill="#A5A6A9" points="1587.952,313.841 1642.073,274.918 1649.607,306.789 1649.607,313.841 			"/>
		</g>
		<g>
			<circle fill="#41DAC5" cx="1629.892" cy="258.026" r="9.161"/>
		</g>
	</g>
	<g>
		<path fill="#59595B" d="M163.615,256.74l1.315-0.572c0.486,1.206,1.861,1.941,3.116,1.941c1.578,0,3.297-1.124,3.297-2.84
			c0-3.576-7.081-2.391-7.081-7.151c0-2.35,1.922-4.291,4.269-4.291c1.477,0,2.914,0.817,3.662,2.125l-1.335,0.593
			c-0.506-0.776-1.396-1.267-2.327-1.267c-1.538,0-2.832,1.287-2.832,2.84c0,3.473,7.081,2.329,7.081,7.151
			c0,2.534-2.367,4.291-4.734,4.291C166.225,259.56,164.323,258.497,163.615,256.74z"/>
		<path fill="#59595B" d="M174.397,251.693c0-4.331,3.54-7.866,7.829-7.866c4.289,0,7.83,3.535,7.83,7.866
			c0,4.352-3.541,7.866-7.83,7.866C177.938,259.56,174.397,256.045,174.397,251.693z M175.813,251.693
			c0,3.555,2.914,6.436,6.413,6.436c3.5,0,6.414-2.881,6.414-6.436s-2.914-6.436-6.414-6.436
			C178.706,245.257,175.813,248.138,175.813,251.693z"/>
		<path fill="#59595B" d="M205.45,257.189c-1.436,1.532-3.52,2.37-5.583,2.37c-4.289,0-7.789-3.535-7.789-7.866
			c0-4.331,3.5-7.866,7.789-7.866c2.043,0,4.147,0.838,5.563,2.35l-1.011,0.96c-1.457-1.389-3.035-1.88-4.552-1.88
			c-3.5,0-6.373,2.881-6.373,6.436c0,3.535,2.873,6.436,6.373,6.436c1.538,0,3.055-0.49,4.552-1.879L205.45,257.189z"/>
		<path fill="#59595B" d="M209.091,259.355h-1.416v-15.324h1.416V259.355z"/>
		<path fill="#59595B" d="M218.397,244.032l7.263,15.324h-1.558l-2.286-4.801h-7.263l-2.266,4.801h-1.578l7.283-15.324H218.397z
			 M215.241,253.124h5.887l-2.933-6.211L215.241,253.124z"/>
		<path fill="#59595B" d="M228.977,257.925h4.896v1.431h-6.393v-15.324h1.497V257.925z"/>
		<path fill="#59595B" d="M241.884,244.032l9.589,11.789v-11.789h1.416v15.324h-0.364l-9.549-11.728v11.728h-1.416v-15.324H241.884z
			"/>
		<path fill="#59595B" d="M257.602,245.462v4.291h5.463v1.43h-5.463v6.742h6.251v1.431h-7.728v-15.324h7.728v1.43H257.602z"/>
		<path fill="#59595B" d="M274.434,245.462h-3.966v13.894h-1.416v-13.894h-3.985v-1.43h9.367V245.462z"/>
		<path fill="#59595B" d="M288.088,259.355l-2.792-5.864l-2.771,5.864h-0.405l-7.283-15.324h1.578l5.908,12.443l2.185-4.638
			l-3.703-7.805h1.578l2.914,6.15l2.933-6.15h1.559l-3.703,7.805l2.205,4.638l5.907-12.443h1.558l-7.263,15.324H288.088z"/>
		<path fill="#59595B" d="M295.351,251.693c0-4.331,3.541-7.866,7.829-7.866c4.289,0,7.829,3.535,7.829,7.866
			c0,4.352-3.54,7.866-7.829,7.866C298.891,259.56,295.351,256.045,295.351,251.693z M296.767,251.693
			c0,3.555,2.913,6.436,6.413,6.436s6.413-2.881,6.413-6.436s-2.913-6.436-6.413-6.436
			C299.66,245.257,296.767,248.138,296.767,251.693z"/>
		<path fill="#59595B" d="M313.638,259.355v-15.324h4.552c2.326,0,4.228,1.92,4.228,4.27c0,1.818-1.213,3.494-2.933,4.045
			l3.479,7.008h-1.599l-3.358-6.804h-2.954v6.804H313.638z M315.055,251.122h3.136c1.537,0,2.812-1.267,2.812-2.82
			s-1.275-2.84-2.812-2.84h-3.136V251.122z"/>
		<path fill="#59595B" d="M327.415,251.693l7.586,7.662h-2.002l-6.798-6.906v6.906h-1.416v-15.324h1.416v6.906l6.798-6.906h2.002
			L327.415,251.693z"/>
	</g>
	<g>
		<path fill="#59595B" d="M1422.518,601.176l1.314-0.572c0.486,1.205,1.862,1.941,3.116,1.941c1.578,0,3.298-1.124,3.298-2.84
			c0-3.576-7.081-2.392-7.081-7.151c0-2.35,1.922-4.291,4.269-4.291c1.477,0,2.914,0.817,3.662,2.125l-1.336,0.593
			c-0.506-0.776-1.396-1.268-2.326-1.268c-1.537,0-2.832,1.288-2.832,2.841c0,3.474,7.08,2.329,7.08,7.151
			c0,2.533-2.367,4.29-4.733,4.29C1425.127,603.995,1423.227,602.933,1422.518,601.176z"/>
		<path fill="#59595B" d="M1445.297,588.467v15.324h-1.416v-6.947h-7.951v6.947h-1.416v-15.324h1.416v6.947h7.951v-6.947H1445.297z"
			/>
		<path fill="#59595B" d="M1454.805,588.467l7.263,15.324h-1.558l-2.286-4.801h-7.263l-2.266,4.801h-1.578l7.283-15.324H1454.805z
			 M1451.648,597.56h5.888l-2.934-6.212L1451.648,597.56z"/>
		<path fill="#59595B" d="M1463.887,603.791v-15.324h4.553c2.326,0,4.228,1.921,4.228,4.271c0,1.818-1.214,3.494-2.933,4.046
			l3.479,7.008h-1.599l-3.357-6.804h-2.954v6.804H1463.887z M1465.304,595.557h3.136c1.537,0,2.813-1.267,2.813-2.819
			s-1.275-2.84-2.813-2.84h-3.136V595.557z"/>
		<path fill="#59595B" d="M1476.511,589.897v4.291h5.462v1.43h-5.462v6.742h6.251v1.431h-7.728v-15.324h7.728v1.431H1476.511z"/>
	</g>
	<g>
		<path fill="#59595B" d="M1563.416,317.143v-4.896h1.432v6.393h-15.324v-1.497H1563.416z"/>
		<path fill="#59595B" d="M1564.848,309.01v1.416h-15.324v-1.416H1564.848z"/>
		<path fill="#59595B" d="M1557.185,303.346l7.663-7.586v2.002l-6.906,6.797h6.906v1.417h-15.324v-1.417h6.905l-6.905-6.797v-2.002
			L1557.185,303.346z"/>
		<path fill="#59595B" d="M1550.953,292.462h4.291V287h1.43v5.462h6.742v-6.251h1.432v7.729h-15.324v-7.729h1.43V292.462z"/>
	</g>
	<g>
		<g>
			<g>
				<circle fill="#41DAC5" cx="508.185" cy="143.339" r="18.808"/>
			</g>
			<g opacity="0.5">
				<path fill="#41DAC5" d="M508.185,162.146c-10.387,0-18.808-8.42-18.808-18.808c0-10.388,8.42-18.808,18.808-18.808V162.146z"/>
			</g>
		</g>
		<g>
			<g>
				<circle fill="#A5A6A9" cx="560.455" cy="107.271" r="16.859"/>
			</g>
			<g opacity="0.5">
				<path fill="#A5A6A9" d="M560.455,124.13c-9.311,0-16.859-7.548-16.859-16.859c0-9.311,7.548-16.859,16.859-16.859V124.13z"/>
			</g>
		</g>
		<g>
			<g>
				<circle fill="#A5A6A9" cx="561.158" cy="176.742" r="16.859"/>
			</g>
			<g opacity="0.5">
				<path fill="#A5A6A9" d="M561.158,193.601c-9.311,0-16.859-7.548-16.859-16.858c0-9.311,7.548-16.859,16.859-16.859V193.601z"/>
			</g>
		</g>
	</g>
	<g>
		<g>
			<g>
				<rect x="1390.862" y="863.72" fill="#41DAC5" width="102.987" height="59.337"/>
			</g>
			<g>
				<polygon fill="#A5A6A9" points="1419.313,853.489 1419.313,847.028 1394.268,847.028 1394.268,853.489 1394.268,855.966 
					1394.268,863.72 1401.151,863.72 1401.151,857.127 1483.561,857.127 1483.561,863.72 1490.445,863.72 1490.445,853.489 				"/>
			</g>
		</g>
		<g>
			<rect x="1401.193" y="793.754" fill="#DBDBDB" width="82.326" height="69.966"/>
		</g>
		<g>
			<rect x="1409.424" y="806.563" fill="#59595B" width="65.421" height="1.831"/>
		</g>
		<g>
			<rect x="1409.424" y="815.841" fill="#59595B" width="65.421" height="1.831"/>
		</g>
		<g>
			<rect x="1409.424" y="825.119" fill="#59595B" width="65.421" height="1.83"/>
		</g>
		<g>
			<rect x="1409.424" y="834.396" fill="#59595B" width="65.421" height="1.83"/>
		</g>
		<g>
			<rect x="1409.424" y="843.674" fill="#59595B" width="65.421" height="1.83"/>
		</g>
		<g>
			<rect x="1409.424" y="852.951" fill="#59595B" width="65.421" height="1.83"/>
		</g>
	</g>
	<g>
		<g>
			<path fill="#59595B" d="M478.879,622.755l7.9-44.591c-22.294-8.49-36.075-24.683-36.075-42.534
				c0-13.064,7.29-25.299,20.527-34.45c13.031-9.009,30.323-13.971,48.691-13.971s35.661,4.961,48.691,13.971
				c13.237,9.151,20.527,21.386,20.527,34.45c0,13.063-7.29,25.298-20.527,34.45c-13.031,9.009-30.323,13.971-48.691,13.971
				c-3.624,0-7.265-0.198-10.837-0.59L478.879,622.755z M519.923,490.869c-36.149,0-65.558,20.08-65.558,44.761
				c0,16.648,13.45,31.833,35.103,39.627l1.451,0.522l-5.826,32.886l22.357-29.083l1.035,0.125
				c3.759,0.453,7.607,0.684,11.438,0.684c36.148,0,65.558-20.08,65.558-44.761C585.48,510.949,556.071,490.869,519.923,490.869z"/>
		</g>
		<g>
			<rect x="476.205" y="516.076" fill="#59595B" width="87.437" height="3.661"/>
		</g>
		<g>
			<rect x="476.205" y="533.31" fill="#59595B" width="87.437" height="3.661"/>
		</g>
		<g>
			<rect x="476.205" y="550.544" fill="#59595B" width="87.437" height="3.661"/>
		</g>
	</g>
	<g>
		<g>
			<g>
				<rect x="53.769" y="455.529" fill="#A5A6A9" width="27.496" height="27.496"/>
			</g>
			<g>
				<rect x="118.361" y="455.529" fill="#59595B" width="27.496" height="27.496"/>
			</g>
			<g>
				<rect x="181.658" y="455.529" fill="#A5A6A9" width="27.496" height="27.496"/>
			</g>
			<g>
				<rect x="244.955" y="455.529" fill="#A5A6A9" width="27.496" height="27.496"/>
			</g>
			<g>
				<g>
					<g>
						<g>
							<path fill="#41DAC5" d="M112.848,357.608c0,11.088,9.021,20.11,20.111,20.11c1.094,0,2.209-0.094,3.316-0.279h59.218
								c0.065,0,0.128-0.004,0.189-0.015c10.482-0.34,18.984-9.103,18.984-19.609c0-10.624-8.484-19.303-19.034-19.616
								c-1.045-6.056-6.261-10.507-12.513-10.507c-2.518,0-4.984,0.755-7.063,2.146c-5.131-7.635-13.58-12.156-22.832-12.156
								c-12.557,0-23.684,8.736-26.699,20.867C118.441,341.284,112.848,349.027,112.848,357.608z"/>
						</g>
					</g>
				</g>
			</g>
		</g>
	</g>
	<g>
		<g>
			<g>
				<rect x="1623.265" y="786.61" fill="#59595B" width="71.471" height="41.178"/>
			</g>
			<g>
				<polygon fill="#A5A6A9" points="1643.008,779.511 1643.008,775.026 1625.628,775.026 1625.628,779.511 1625.628,781.229 
					1625.628,786.61 1630.405,786.61 1630.405,782.035 1687.595,782.035 1687.595,786.61 1692.372,786.61 1692.372,779.511 				"/>
			</g>
		</g>
		<g>
			<g>
				<rect x="1623.265" y="876.229" fill="#59595B" width="71.471" height="41.178"/>
			</g>
			<g>
				<polygon fill="#A5A6A9" points="1643.008,869.129 1643.008,864.645 1625.628,864.645 1625.628,869.129 1625.628,870.848 
					1625.628,876.229 1630.405,876.229 1630.405,871.653 1687.595,871.653 1687.595,876.229 1692.372,876.229 1692.372,869.129 				
					"/>
			</g>
		</g>
		<g>
			<g>
				<rect x="1623.265" y="965.847" fill="#59595B" width="71.471" height="41.178"/>
			</g>
			<g>
				<polygon fill="#A5A6A9" points="1643.008,958.747 1643.008,954.264 1625.628,954.264 1625.628,958.747 1625.628,960.466 
					1625.628,965.847 1630.405,965.847 1630.405,961.271 1687.595,961.271 1687.595,965.847 1692.372,965.847 1692.372,958.747 				
					"/>
			</g>
		</g>
		<g>
			<g>
				<circle fill="#A5A6A9" cx="1511.162" cy="894.582" r="7.981"/>
			</g>
			<g>
				<circle fill="#A5A6A9" cx="1607.89" cy="894.582" r="7.981"/>
			</g>
			<g>
				<circle fill="#A5A6A9" cx="1607.89" cy="986.436" r="7.981"/>
			</g>
			<g>
				<circle fill="#A5A6A9" cx="1607.89" cy="806.109" r="7.981"/>
			</g>
		</g>
	</g>
	<g>
		<g>
			<g>
				<path fill="#DBDBDB" d="M1655.664,519.741c5.568-4.109,9.196-10.699,9.196-18.152c0-12.466-10.108-22.574-22.575-22.574
					c-12.469,0-22.574,10.107-22.574,22.574c0,7.453,3.627,14.043,9.196,18.152c-9.651,3.771-16.492,13.153-16.492,24.14v16.195
					h59.74v-16.195C1672.155,532.894,1665.315,523.513,1655.664,519.741z"/>
			</g>
			<g>
				<g>
					<path fill="#41DAC5" d="M1642.285,479.016c-11.401,0-20.807,8.464-22.333,19.447c0.454,0.004,16.908,0.066,22.333-10.056
						c0,0,5.307,10.022,22.332,10.056C1663.092,487.479,1653.688,479.016,1642.285,479.016z"/>
				</g>
			</g>
		</g>
		<g>
			<g>
				<path fill="#DBDBDB" d="M1733.508,639.359c5.568-4.11,9.196-10.7,9.196-18.152c0-12.467-10.108-22.574-22.574-22.574
					c-12.47,0-22.574,10.107-22.574,22.574c0,7.452,3.627,14.042,9.195,18.152c-9.65,3.771-16.491,13.152-16.491,24.139v16.195H1750
					v-16.195C1750,652.512,1743.159,643.13,1733.508,639.359z"/>
			</g>
			<g>
				<g>
					<path fill="#59595B" d="M1720.13,598.633c-11.402,0-20.808,8.464-22.334,19.447c0.455,0.004,16.909,0.065,22.334-10.056
						c0,0,5.306,10.021,22.331,10.056C1740.937,607.097,1731.532,598.633,1720.13,598.633z"/>
				</g>
			</g>
		</g>
		<g>
			<g>
				<path fill="#41DAC5" d="M1543.178,621.157v15.276c0,3.865,1.009,7.49,2.766,10.641c2.388-2.449,5.285-4.403,8.528-5.671
					c-5.201-3.842-8.591-9.997-8.591-16.957c0-0.997,0.096-1.97,0.229-2.927c2.623-0.054,16.034-0.747,20.755-9.207v-8.944v-0.007
					v-0.635v-0.002v-3.477h-1.778C1552.988,599.248,1543.178,609.057,1543.178,621.157z"/>
			</g>
			<g>
				<path fill="#DBDBDB" d="M1588.04,646.907c-2.4-2.463-5.312-4.427-8.572-5.701c5.228-3.861,8.634-10.049,8.634-17.046
					c0-1.001-0.095-1.979-0.228-2.941c-2.638-0.055-16.118-0.751-20.864-9.255c-4.746,8.504-18.228,9.2-20.864,9.255
					c-0.133,0.962-0.229,1.94-0.229,2.941c0,6.997,3.407,13.185,8.635,17.046c-3.26,1.274-6.172,3.238-8.571,5.701
					c-4.273,4.382-6.912,10.361-6.912,16.965v15.206h27.941h27.941v-15.206C1594.951,657.269,1592.313,651.289,1588.04,646.907z"/>
			</g>
			<g>
				<path fill="#41DAC5" d="M1568.94,599.248h-0.089h-1.987v3.477c0.035,0,0.07-0.006,0.105-0.006c0.014,0,0.027,0,0.041,0
					c0.017,0,0.032-0.003,0.049,0c0.049,0,0.095,0.008,0.146,0.011c-0.064,0-0.129-0.011-0.194-0.011
					c-0.049,0.003-0.098,0.007-0.146,0.008v0.635c0.035,0,0.07-0.004,0.105-0.004c0.014,0,0.03,0.003,0.044,0.003
					c-0.049,0.001-0.101,0.006-0.149,0.008v8.944c0.033-0.063,0.073-0.117,0.105-0.18c0,0,0.024,0.036,0.044,0.069
					c0.016-0.024,0.032-0.045,0.046-0.069c0,0,3.362,5.637,12.304,8.176c0.073,0.02,0.141,0.041,0.214,0.061
					c0.338,0.095,0.683,0.182,1.036,0.266c0.479,0.113,0.973,0.218,1.484,0.309c0.238,0.046,0.479,0.088,0.723,0.127
					c0.646,0.103,1.313,0.193,2.003,0.262c0.138,0.014,0.279,0.025,0.417,0.039c0.814,0.07,1.654,0.12,2.529,0.138
					c0.021,0,0.04,0,0.059,0.001c0.03,0,0.06,0.002,0.09,0.002c0.179,0.004,0.354,0.011,0.536,0.011l0,0
					c-0.182,0-0.354-0.006-0.536-0.011c0.135,0.962,0.227,1.937,0.227,2.935c0,6.96-3.387,13.115-8.59,16.957
					c3.223,1.258,6.098,3.191,8.477,5.617c0.017,0.019,0.035,0.035,0.054,0.054c1.757-3.15,2.765-6.775,2.765-10.641v-15.276
					C1590.85,609.057,1581.041,599.248,1568.94,599.248z"/>
			</g>
		</g>
	</g>
	<g>
		<g>
			<path fill="#DBDBDB" d="M1002.257,167.851c5.792-4.274,9.565-11.13,9.565-18.883c0-12.968-10.515-23.481-23.482-23.481
				c-12.971,0-23.483,10.514-23.483,23.481c0,7.752,3.774,14.608,9.566,18.883c-10.039,3.923-17.155,13.682-17.155,25.111v16.847
				h62.145v-16.847C1019.412,181.533,1012.296,171.773,1002.257,167.851z"/>
		</g>
		<g>
			<g>
				<path fill="#59595B" d="M988.34,125.486c-11.861,0-21.645,8.804-23.232,20.229c0.473,0.004,17.589,0.069,23.232-10.46
					c0,0,5.52,10.425,23.229,10.46C1009.983,134.291,1000.201,125.486,988.34,125.486z"/>
			</g>
		</g>
	</g>
	<g>
		<g>
			<path fill="#59595B" d="M954.202,151.486l-25.055-27.437h-37.132V71.309h73.655v52.741h-17.914L954.202,151.486z M895.676,120.39
				h35.086l16.66,18.244l-4.286-18.244h18.874V74.969h-66.334V120.39z"/>
		</g>
		<g>
			<g>
				<circle fill="#59595B" cx="913.365" cy="97.941" r="3.262"/>
			</g>
			<g>
				<circle fill="#59595B" cx="929.275" cy="97.941" r="3.262"/>
			</g>
			<g>
				<circle fill="#59595B" cx="945.186" cy="97.941" r="3.262"/>
			</g>
		</g>
	</g>
	<g>
		<g>
			<circle fill="#A5A6A9" cx="341.626" cy="1017.859" r="16.332"/>
		</g>
		<g opacity="0.5">
			<path fill="#E5E5E6" d="M341.626,1034.19c-9.02,0-16.332-7.312-16.332-16.331s7.312-16.332,16.332-16.332V1034.19z"/>
		</g>
	</g>
	<g>
		<g>
			<circle fill="#A5A6A9" cx="1413.018" cy="978.141" r="16.332"/>
		</g>
		<g opacity="0.5">
			<path fill="#E5E5E6" d="M1413.018,994.473c-9.02,0-16.331-7.312-16.331-16.332c0-9.02,7.312-16.331,16.331-16.331V994.473z"/>
		</g>
	</g>
	<g>
		<g>
			<circle fill="#E5E5E6" cx="1362.002" cy="1017.348" r="9.662"/>
		</g>
		<g opacity="0.5">
			<path fill="#E5E5E6" d="M1362.002,1027.01c-5.337,0-9.662-4.326-9.662-9.662s4.325-9.662,9.662-9.662V1027.01z"/>
		</g>
	</g>
	<g>
		<g>
			<circle fill="#A5A6A9" cx="1515.934" cy="475.736" r="16.332"/>
		</g>
		<g opacity="0.5">
			<path fill="#E5E5E6" d="M1515.934,492.068c-9.02,0-16.331-7.313-16.331-16.332s7.312-16.332,16.331-16.332V492.068z"/>
		</g>
	</g>
	<g>
		<g>
			<circle fill="#E5E5E6" cx="1684.778" cy="430.3" r="9.663"/>
		</g>
		<g opacity="0.5">
			<path fill="#E5E5E6" d="M1684.778,439.962c-5.337,0-9.663-4.326-9.663-9.662c0-5.336,4.326-9.662,9.663-9.662V439.962z"/>
		</g>
	</g>
	<g>
		<g>
			<path fill="#E5E5E6" d="M447.81,1005.099h-74.099v-74.098h74.099V1005.099z M378.279,1000.531h64.963v-64.963h-64.963V1000.531z"
				/>
		</g>
	</g>
	<g>
		<g>
			
				<rect x="945.729" y="979.243" transform="matrix(0.7155 -0.6986 0.6986 0.7155 -419.7434 947.0892)" fill="#41DAC5" width="14.583" height="19.374"/>
		</g>
		<g>
			<path fill="#59595B" d="M951.593,920.35c-18.091-18.528-47.777-18.884-66.306-0.793c-18.529,18.092-18.883,47.777-0.792,66.307
				c18.091,18.528,47.777,18.883,66.306,0.793C969.328,968.564,969.684,938.879,951.593,920.35z M941.203,976.826
				c-13.101,12.791-34.089,12.54-46.88-0.561c-12.791-13.1-12.54-34.089,0.561-46.879c13.101-12.791,34.089-12.54,46.88,0.561
				C954.555,943.047,954.303,964.036,941.203,976.826z"/>
		</g>
		<g>
			
				<rect x="951.663" y="994.296" transform="matrix(0.7155 -0.6986 0.6986 0.7155 -424.319 957.6483)" fill="#A5A6A9" width="23.94" height="11.007"/>
		</g>
		<g>
			
				<rect x="978.244" y="995.662" transform="matrix(0.7155 -0.6986 0.6986 0.7155 -434.5231 981.061)" fill="#59595B" width="18.129" height="56.772"/>
		</g>
		<g>
			<path fill="#DBDBDB" d="M918.048,995.307c-10.981,0-21.954-4.245-30.214-12.705c-16.263-16.657-15.943-43.44,0.714-59.704
				c16.657-16.265,43.44-15.944,59.704,0.714l0,0c16.264,16.657,15.943,43.44-0.714,59.704
				C939.341,991.318,928.689,995.307,918.048,995.307z M918.039,912.735c-10.182,0-20.369,3.813-28.212,11.472
				c-15.936,15.559-16.242,41.181-0.684,57.116c15.558,15.934,41.181,16.241,57.116,0.683s16.241-41.181,0.683-57.116
				C939.042,916.798,928.543,912.735,918.039,912.735z"/>
		</g>
	</g>
	<g>
		<g>
			<g>
				<path fill="#59595B" d="M266.817,588.311v-11.033h-6.359c-0.247-1.999-0.676-3.941-1.271-5.811l5.156-2.978l-5.517-9.555
					l-4.744,2.739c-1.296-1.697-2.755-3.262-4.355-4.671l2.563-4.441l-9.555-5.517l-2.414,4.181c-2.05-0.815-4.202-1.427-6.433-1.81
					v-4.623h-11.034v4.623c-2.25,0.387-4.422,1.006-6.488,1.833l-2.299-3.982l-9.556,5.517l2.459,4.26
					c-1.638,1.448-3.129,3.059-4.446,4.808l-4.387-2.533l-5.517,9.556l4.866,2.809c-0.602,1.941-1.025,3.96-1.252,6.038h-5.866
					v11.033h6.541c0.442,1.868,1.047,3.674,1.798,5.401l-5.866,3.387l5.517,9.555l6.426-3.709c1.199,1.278,2.501,2.459,3.894,3.53
					l-3.784,6.553l9.555,5.517l4.002-6.932c1.566,0.504,3.185,0.894,4.845,1.155v8.028h11.034v-8.182
					c1.632-0.305,3.222-0.731,4.758-1.271l4.029,6.979l9.556-5.517l-3.954-6.85c1.323-1.073,2.561-2.248,3.699-3.514l6.629,3.827
					l5.517-9.556l-6.271-3.62c0.688-1.676,1.239-3.423,1.64-5.227H266.817z M253.191,581.275c0,13.707-11.112,24.819-24.819,24.819
					c-13.708,0-24.819-11.112-24.819-24.819s11.112-24.819,24.819-24.819C242.08,556.456,253.191,567.568,253.191,581.275z"/>
			</g>
			<g>
				<path fill="#59595B" d="M228.373,560.776c-11.322,0-20.5,9.178-20.5,20.499s9.178,20.499,20.5,20.499
					c11.321,0,20.499-9.178,20.499-20.499S239.694,560.776,228.373,560.776z M228.373,598.223c-9.36,0-16.947-7.588-16.947-16.947
					s7.587-16.947,16.947-16.947s16.947,7.588,16.947,16.947S237.732,598.223,228.373,598.223z"/>
			</g>
		</g>
		<g>
			<path fill="#A5A6A9" d="M189.435,616.771c0.487-1.438,0.805-2.946,0.936-4.5l-3.103-1.504c0.003-0.502-0.014-1.008-0.059-1.517
				c-0.013-0.177-0.037-0.351-0.057-0.524l2.918-1.844c-0.304-1.533-0.788-2.996-1.427-4.363l-3.447,0.25
				c-0.337-0.599-0.712-1.171-1.121-1.715l1.604-3.051c-1.015-1.154-2.165-2.181-3.424-3.063l-2.856,1.937
				c-0.587-0.345-1.195-0.653-1.827-0.926l-0.135-3.445c-1.437-0.487-2.944-0.806-4.496-0.938l-1.504,3.104
				c-0.502-0.002-1.008,0.015-1.518,0.059c-0.178,0.016-0.351,0.039-0.524,0.06l-1.842-2.923c-1.534,0.307-2.998,0.789-4.366,1.43
				l0.25,3.447c-0.596,0.338-1.169,0.712-1.711,1.122l-3.055-1.606c-1.154,1.017-2.183,2.167-3.06,3.425l1.938,2.856
				c-0.347,0.587-0.658,1.195-0.929,1.826l-3.445,0.134c-0.488,1.437-0.805,2.943-0.936,4.499l3.104,1.503
				c-0.004,0.504,0.012,1.009,0.057,1.518c0.016,0.177,0.037,0.349,0.059,0.524l-2.92,1.844c0.307,1.531,0.787,2.995,1.428,4.362
				l3.445-0.249c0.338,0.596,0.712,1.168,1.122,1.713l-1.605,3.051c1.015,1.156,2.167,2.186,3.424,3.063l2.856-1.938
				c0.587,0.348,1.195,0.659,1.825,0.929l0.137,3.444c1.436,0.487,2.941,0.807,4.496,0.938l1.506-3.104
				c0.5,0.002,1.008-0.014,1.518-0.058c0.175-0.016,0.348-0.039,0.521-0.061l1.843,2.924c1.536-0.307,2.998-0.789,4.366-1.43
				l-0.247-3.447c0.594-0.339,1.167-0.713,1.711-1.121l3.052,1.604c1.153-1.016,2.182-2.165,3.062-3.424l-1.936-2.857
				c0.345-0.587,0.656-1.195,0.927-1.823L189.435,616.771z M171.99,618.498c-4.343,0.381-8.172-2.836-8.55-7.177
				c-0.377-4.343,2.837-8.171,7.178-8.548c4.344-0.379,8.173,2.835,8.55,7.176C179.545,614.294,176.332,618.122,171.99,618.498z"/>
		</g>
	</g>
	<g>
		<g>
			<g>
				<g>
					<path fill="#41DAC5" d="M1094.767,885.354c-13.41,0-24.28,10.871-24.28,24.28c0,9.065,4.971,16.965,12.334,21.136v-21.433
						h23.415v21.7c7.625-4.095,12.812-12.143,12.812-21.403C1119.047,896.225,1108.176,885.354,1094.767,885.354z"/>
				</g>
			</g>
			<g>
				<g>
					<path fill="#41DAC5" d="M1094.767,876.122c-18.479,0-33.513,15.033-33.513,33.512c0,14.271,8.971,26.48,21.566,31.304V936.3
						c-10.176-4.577-17.283-14.804-17.283-26.666c0-16.116,13.112-29.229,29.229-29.229s29.229,13.112,29.229,29.229
						c0,12.048-7.328,22.415-17.761,26.882v4.607c12.847-4.693,22.044-17.037,22.044-31.489
						C1128.279,891.155,1113.245,876.122,1094.767,876.122z"/>
				</g>
			</g>
		</g>
		<g>
			<g>
				<rect x="1089.516" y="910.923" fill="#59595B" width="10.501" height="5.321"/>
			</g>
			<g>
				<polygon fill="#59595B" points="1132.098,952.932 1132.098,968.469 1137.422,968.469 1137.422,952.932 1142.602,952.932 
					1142.602,947.607 1137.422,947.607 1132.098,947.607 				"/>
			</g>
			<g>
				<rect x="1142.6" y="994.436" fill="#59595B" width="5.321" height="15.646"/>
			</g>
			<g>
				<rect x="1073.834" y="977.82" fill="#59595B" width="5.323" height="10.892"/>
			</g>
			<g>
				<rect x="1078.866" y="988.773" fill="#59595B" width="5.325" height="10.894"/>
			</g>
			<g>
				<rect x="1084.191" y="999.667" fill="#59595B" width="5.324" height="10.892"/>
			</g>
			<g>
				<polygon fill="#59595B" points="1089.516,1010.559 1089.516,1020.547 1089.516,1025.636 1094.84,1025.636 1142.6,1025.636 
					1142.6,1025.155 1142.6,1020.547 1142.6,1010.082 1137.276,1010.082 1137.276,1020.547 1094.84,1020.547 1094.84,1010.559 				
					"/>
			</g>
			<g>
				<polygon fill="#59595B" points="1100.017,916.244 1100.017,963.576 1105.338,963.576 1105.338,942.143 1116.417,942.143 
					1116.417,936.816 1105.338,936.816 1105.338,916.244 				"/>
			</g>
			<g>
				<rect x="1147.921" y="958.254" fill="#59595B" width="5.326" height="36.182"/>
			</g>
			<g>
				<polygon fill="#59595B" points="1116.417,947.607 1116.417,963.002 1121.74,963.002 1121.74,947.607 1132.098,947.607 
					1132.098,942.286 1121.74,942.286 1116.417,942.286 				"/>
			</g>
			<g>
				<polygon fill="#59595B" points="1089.516,985.112 1089.516,916.244 1084.191,916.244 1084.191,962.137 1078.866,962.137 
					1078.866,957.101 1068.511,957.101 1063.188,957.101 1063.188,962.426 1063.188,972.496 1068.511,972.496 1068.511,962.426 
					1078.866,962.426 1078.866,967.459 1084.191,967.459 1084.191,985.112 				"/>
			</g>
			<g>
				<rect x="1142.602" y="952.932" fill="#59595B" width="5.319" height="5.322"/>
			</g>
			<g>
				<rect x="1068.511" y="972.496" fill="#59595B" width="5.323" height="5.324"/>
			</g>
		</g>
	</g>
	<g>
		<g>
			<path fill="#41DAC5" d="M1577.193,136.387h-71.959c-7.844,0-14.202,6.359-14.202,14.203s6.358,14.203,14.202,14.203h54.637
				c0.074,3.156-0.9,7.348-5.205,11.653c0,0,13.152-2.507,16.922-11.653h5.605c7.844,0,14.202-6.359,14.202-14.203
				S1585.037,136.387,1577.193,136.387z"/>
		</g>
		<g>
			<path fill="#A5A6A9" d="M1443.421,93.71h71.959c7.845,0,14.203,6.358,14.203,14.202s-6.358,14.203-14.203,14.203h-54.636
				c-0.075,3.156,0.899,7.348,5.205,11.653c0,0-13.152-2.508-16.923-11.653h-5.605c-7.844,0-14.202-6.359-14.202-14.203
				S1435.577,93.71,1443.421,93.71z"/>
		</g>
		<g>
			<g>
				<circle fill="#DBDBDB" cx="1526.147" cy="150.869" r="3.089"/>
			</g>
			<g>
				<circle fill="#DBDBDB" cx="1541.214" cy="150.869" r="3.089"/>
			</g>
			<g>
				<circle fill="#DBDBDB" cx="1556.281" cy="150.869" r="3.088"/>
			</g>
		</g>
		<g>
			<g>
				<circle fill="#DBDBDB" cx="1465.72" cy="108.354" r="3.089"/>
			</g>
			<g>
				<circle fill="#DBDBDB" cx="1480.787" cy="108.354" r="3.089"/>
			</g>
			<g>
				<circle fill="#DBDBDB" cx="1495.854" cy="108.354" r="3.089"/>
			</g>
		</g>
	</g>
	<g>
		<g>
			<polygon fill="#A5A6A9" points="365.922,83.185 365.922,91.808 447.617,91.808 447.617,193.655 455.599,193.655 455.599,83.185 
							"/>
		</g>
		<g>
			<g>
				<polygon fill="#DBDBDB" points="429.519,208.516 351.34,208.516 351.34,94.355 445.069,94.355 445.069,191.3 				"/>
			</g>
			<g>
				<polygon fill="#A5A6A9" points="445.069,191.3 429.519,191.3 429.519,208.516 				"/>
			</g>
		</g>
		<g>
			<rect x="379.863" y="109.489" fill="#59595B" width="56.698" height="1.83"/>
		</g>
		<g>
			<rect x="358.772" y="115.591" fill="#59595B" width="77.789" height="1.83"/>
		</g>
		<g>
			<rect x="358.772" y="122.406" fill="#59595B" width="77.789" height="1.83"/>
		</g>
		<g>
			<rect x="358.772" y="161.803" fill="#59595B" width="77.789" height="1.831"/>
		</g>
		<g>
			<rect x="358.772" y="168.618" fill="#59595B" width="77.789" height="1.83"/>
		</g>
		<g>
			<rect x="358.772" y="175.821" fill="#59595B" width="77.789" height="1.83"/>
		</g>
		<g>
			<rect x="358.772" y="182.636" fill="#59595B" width="77.789" height="1.83"/>
		</g>
		<g>
			<rect x="358.772" y="189.881" fill="#59595B" width="62.366" height="1.831"/>
		</g>
		<g>
			<rect x="358.772" y="131.349" fill="#41DAC5" width="49.44" height="24.333"/>
		</g>
		<g>
			<rect x="412.612" y="131.349" fill="#626165" width="22.387" height="24.333"/>
		</g>
	</g>
	<g>
		<g>
			<path fill="#41DAC5" d="M182.833,161.463h-3.661c0-20.813,16.933-37.745,37.745-37.745v3.66
				C198.124,127.378,182.833,142.669,182.833,161.463z"/>
		</g>
		<g>
			<path fill="#41DAC5" d="M193.941,161.463h-3.661c0-14.688,11.949-26.637,26.637-26.637v3.66
				C204.248,138.486,193.941,148.794,193.941,161.463z"/>
		</g>
		<g>
			<path fill="#41DAC5" d="M205.947,161.463h-3.661c0-8.068,6.564-14.631,14.631-14.631v3.661
				C210.868,150.492,205.947,155.414,205.947,161.463z"/>
		</g>
	</g>
	<g>
		<g>
			<path fill="#DBDBDB" d="M183.452,981.426c5.568-4.108,9.196-10.699,9.196-18.152c0-12.466-10.108-22.572-22.574-22.572
				c-12.469,0-22.575,10.106-22.575,22.572c0,7.453,3.627,14.044,9.196,18.152c-9.65,3.771-16.492,13.153-16.492,24.14v16.195
				h59.741v-16.195C199.943,994.579,193.103,985.197,183.452,981.426z"/>
		</g>
		<g>
			<g>
				<path fill="#41DAC5" d="M170.073,940.701c-11.402,0-20.807,8.463-22.334,19.446c0.455,0.004,16.909,0.065,22.334-10.056
					c0,0,5.306,10.021,22.331,10.056C190.88,949.164,181.476,940.701,170.073,940.701z"/>
			</g>
		</g>
	</g>
	<g>
		<g>
			<path fill="#DBDBDB" d="M245.424,874.826c-27.797,0-50.332,15.579-50.332,34.798c0,13.431,11.006,25.082,27.122,30.884
				l-5.125,28.928l19.628-25.533c2.829,0.341,5.737,0.52,8.707,0.52c27.798,0,50.332-15.579,50.332-34.798
				S273.222,874.826,245.424,874.826z"/>
		</g>
		<g>
			<g>
				<circle fill="#59595B" cx="229.044" cy="909.326" r="3.262"/>
			</g>
			<g>
				<circle fill="#59595B" cx="244.954" cy="909.326" r="3.262"/>
			</g>
			<g>
				<circle fill="#59595B" cx="260.864" cy="909.326" r="3.262"/>
			</g>
		</g>
	</g>
</g>
</svg>
